#N canvas 619 44 359 263 10;
#X declare -path includes -path abs;
#X declare -stdlib extra/zexy -stdpath extra/zexy;
#X declare -stdpath extra/iemnet -stdpath extra/mrpeach;
#N canvas 1236 44 428 479 netpd 0;
#N canvas 185 218 305 401 chat 0;
#N canvas 334 296 444 295 connection 0;
#X msg 143 175 disconnect;
#X msg 9 184 connect \$1 \$2;
#X obj 9 138 symbol;
#X obj 9 162 pack s f;
#X obj 48 117 r netpd-domain;
#X obj 62 140 r netpd-port;
#X obj 119 42 del 100;
#X obj 9 18 r \$0-connect;
#N canvas 0 0 228 141 speedlimit 0;
#X obj 131 38 del 300;
#X obj 17 44 spigot 1;
#X obj 88 74 0;
#X obj 131 65 1;
#X obj 17 69 t a b;
#X obj 17 20 inlet;
#X obj 17 95 outlet;
#X connect 0 0 3 0;
#X connect 1 0 4 0;
#X connect 2 0 1 1;
#X connect 3 0 1 1;
#X connect 4 0 6 0;
#X connect 4 1 2 0;
#X connect 4 1 0 0;
#X connect 5 0 1 0;
#X restore 9 43 pd speedlimit;
#X obj 119 12 r \$0.loadbang.1;
#X obj 9 82 sel 1 0;
#X obj 9 258 s NETPD;
#X obj 9 236 list prepend tcpclient;
#X msg 204 114 from /server/num_of_clients 0;
#X obj 204 137 s NETPD;
#X connect 0 0 12 0;
#X connect 1 0 12 0;
#X connect 2 0 3 0;
#X connect 3 0 1 0;
#X connect 4 0 2 1;
#X connect 5 0 3 1;
#X connect 6 0 2 0;
#X connect 7 0 8 0;
#X connect 8 0 10 0;
#X connect 9 0 6 0;
#X connect 10 0 2 0;
#X connect 10 1 0 0;
#X connect 10 1 13 0;
#X connect 12 0 11 0;
#X connect 13 0 14 0;
#X restore 17 73 pd connection;
#N canvas 730 301 222 240 offline 0;
#X obj 25 16 r netpd-broadcast;
#X obj 25 199 s netpd-receive;
#X obj 25 144 spigot;
#X obj 90 99 * -1;
#X obj 90 120 + 1;
#X obj 90 79 r \$0-conn_status;
#X obj 126 99 r \$0-noconnect;
#X obj 126 119 1;
#X obj 40 38 r netpd-send;
#X obj 150 119 loadbang;
#X obj 150 140 1;
#X obj 25 167 route list;
#X obj 40 59 list split 1;
#X connect 0 0 2 0;
#X connect 2 0 11 0;
#X connect 3 0 4 0;
#X connect 4 0 2 1;
#X connect 5 0 3 0;
#X connect 6 0 7 0;
#X connect 7 0 2 1;
#X connect 8 0 12 0;
#X connect 9 0 10 0;
#X connect 10 0 2 1;
#X connect 11 0 1 0;
#X connect 11 1 1 0;
#X connect 12 1 2 0;
#X restore 17 34 pd offline;
#N canvas 469 73 153 247 chat-guicode 0;
#N canvas 551 67 458 598 talkdisplay 0;
#N canvas 323 2 684 832 scrolllist 0;
#X obj 163 547 s \$0-scrollbar;
#X msg 258 489 pos \$1 \$2;
#X obj 258 466 pack f f;
#X obj 258 423 t b f;
#X obj 76 350 int;
#X obj 76 286 /;
#X obj 76 197 max 1;
#X obj 76 307 min 1;
#X obj 146 312 -;
#X obj 258 396 min;
#X obj 180 335 t b f;
#X obj 258 360 max 0;
#X obj 258 172 r \$0-scrollsensor;
#X obj 258 232 t f f b;
#X obj 285 256 f;
#X obj 258 276 -;
#X obj 312 351 f;
#X obj 258 330 +;
#X obj 76 371 max 4;
#X obj 54 481 s \$0-scrollsensor-r;
#X msg 54 460 set \$1;
#X obj 54 439 f;
#X obj 481 495 /;
#X obj 519 497 max 0;
#X obj 481 562 *;
#X obj 481 582 int;
#X obj 481 602 change;
#X obj 62 86 s \$0-to_list-index;
#X obj 62 106 r \$0-from_list-index;
#X msg 62 66 length;
#X obj 32 128 list;
#X obj 9 9 r \$0-pl-refresh;
#X obj 519 471 - 3;
#X obj 76 264 pack;
#X obj 76 243 4;
#X obj 76 220 t b f;
#X obj 363 48 \$0;
#X obj 535 422 r \$0-numOfItems;
#X obj 535 449 - 1;
#X obj 139 247 r \$0-numOfItems;
#X obj 363 26 loadbang;
#X obj 60 536 f;
#X obj 32 509 t f f b;
#X obj 32 558 -;
#X obj 32 164 t a b a;
#X obj 9 34 t b b b;
#X obj 442 638 f;
#X obj 376 221 r \$0-setpos;
#X obj 32 742 s \$0-scrollsensor-r;
#X obj 57 603 t b b;
#X obj 87 625 0;
#X obj 62 689 f;
#X obj 84 660 r \$0-scrollsensor;
#X obj 32 689 f;
#X obj 32 652 t b b;
#X obj 258 444 337;
#X obj 309 445 + 24;
#X msg 76 395 vis_size 12 \$1;
#X msg 363 68 \; \$1-numOfItems 12;
#X obj 57 627 188;
#X obj 76 329 * 191;
#X msg 146 290 191 \$1;
#X obj 481 516 * -1;
#X obj 481 537 + 0.999;
#X obj 32 578 sel -1 1 0;
#N canvas 0 0 320 399 get_display_content 0;
#X obj 86 113 4;
#X obj 86 136 until;
#X obj 86 169 f;
#X obj 86 192 + 1;
#X obj 137 133 0;
#X obj 158 238 +;
#X obj 158 279 s \$0-to_list-index;
#X obj 158 299 r \$0-from_list-index;
#X obj 86 236 \$0;
#X msg 158 259 get \$1;
#X obj 86 307 pack f f;
#X obj 86 327 list append;
#X obj 86 213 t b a a;
#X obj 67 72 t a b b a;
#X obj 164 77 r \$0-numOfItems;
#X obj 86 365 outlet;
#X obj 67 41 inlet;
#X connect 0 0 1 0;
#X connect 1 0 2 0;
#X connect 2 0 3 0;
#X connect 3 0 2 1;
#X connect 3 0 12 0;
#X connect 4 0 2 1;
#X connect 5 0 9 0;
#X connect 7 0 11 1;
#X connect 8 0 10 0;
#X connect 9 0 6 0;
#X connect 10 0 11 0;
#X connect 11 0 15 0;
#X connect 12 0 8 0;
#X connect 12 1 10 1;
#X connect 12 2 5 0;
#X connect 13 1 0 0;
#X connect 13 2 4 0;
#X connect 13 3 5 1;
#X connect 14 0 0 1;
#X connect 16 0 13 0;
#X restore 442 667 pd get_display_content;
#X obj 442 693 outlet;
#X obj 103 719 s \$0-setpos;
#X connect 1 0 0 0;
#X connect 2 0 1 0;
#X connect 3 0 55 0;
#X connect 3 1 56 0;
#X connect 4 0 18 0;
#X connect 5 0 7 0;
#X connect 6 0 35 0;
#X connect 7 0 60 0;
#X connect 8 0 10 0;
#X connect 9 0 3 0;
#X connect 9 0 16 0;
#X connect 9 0 22 0;
#X connect 9 0 21 1;
#X connect 10 0 9 0;
#X connect 10 1 9 1;
#X connect 10 1 22 1;
#X connect 11 0 9 0;
#X connect 12 0 13 0;
#X connect 13 0 15 0;
#X connect 13 1 14 1;
#X connect 13 2 14 0;
#X connect 14 0 15 1;
#X connect 15 0 17 0;
#X connect 16 0 17 1;
#X connect 17 0 11 0;
#X connect 18 0 57 0;
#X connect 18 0 61 0;
#X connect 20 0 19 0;
#X connect 21 0 20 0;
#X connect 22 0 62 0;
#X connect 23 0 24 1;
#X connect 24 0 25 0;
#X connect 25 0 26 0;
#X connect 26 0 46 0;
#X connect 28 0 30 1;
#X connect 29 0 27 0;
#X connect 30 0 44 0;
#X connect 31 0 45 0;
#X connect 32 0 23 0;
#X connect 33 0 5 0;
#X connect 34 0 33 0;
#X connect 35 0 34 0;
#X connect 35 1 33 1;
#X connect 36 0 58 0;
#X connect 37 0 38 0;
#X connect 38 0 32 1;
#X connect 39 0 34 1;
#X connect 39 0 18 1;
#X connect 40 0 36 0;
#X connect 41 0 43 1;
#X connect 42 0 43 0;
#X connect 42 1 41 1;
#X connect 42 2 41 0;
#X connect 43 0 64 0;
#X connect 44 0 42 0;
#X connect 44 1 21 0;
#X connect 44 2 32 0;
#X connect 44 2 6 0;
#X connect 45 0 46 0;
#X connect 45 1 30 0;
#X connect 45 2 29 0;
#X connect 46 0 65 0;
#X connect 47 0 14 1;
#X connect 49 0 59 0;
#X connect 49 1 50 0;
#X connect 50 0 67 0;
#X connect 51 0 67 0;
#X connect 52 0 51 1;
#X connect 52 0 53 1;
#X connect 53 0 48 0;
#X connect 54 0 53 0;
#X connect 54 1 51 0;
#X connect 55 0 2 0;
#X connect 56 0 2 1;
#X connect 57 0 0 0;
#X connect 59 0 48 0;
#X connect 60 0 4 0;
#X connect 61 0 8 0;
#X connect 62 0 63 0;
#X connect 63 0 24 0;
#X connect 64 0 54 0;
#X connect 64 1 49 0;
#X connect 64 2 49 0;
#X connect 65 0 66 0;
#X restore 239 186 pd scrolllist;
#N canvas 668 21 542 290 set_gui 0;
#X obj 7 8 inlet;
#X obj 115 8 r ch.background.clr-r;
#X msg 115 28 \$1;
#X obj 7 59 list append 0;
#X text 47 99 \$0 pos nick message txt.clr timestamp bg.clr;
#X msg 7 124 \; \$1-\$2-line label \$4 \; \$1-\$2-nick label \$3 \;
\$1-\$2-nick color \$7 \$5 \; \$1-\$2-line color \$7 \$5;
#X connect 0 0 3 0;
#X connect 1 0 2 0;
#X connect 2 0 3 1;
#X connect 3 0 5 0;
#X restore 239 212 pd set_gui;
#N canvas 391 295 441 309 list-index 0;
#X obj 256 155 list;
#X obj 256 109 r \$0-pl_i1;
#X obj 279 133 r \$0-pl_i2;
#X obj 256 176 s \$0-pl_o1;
#N canvas 336 203 232 208 method 0;
#X obj 8 13 r \$0-inlet1;
#X obj 8 35 route get;
#X obj 8 60 list;
#X obj 8 83 route float symbol;
#N canvas 310 81 182 456 get_position 0;
#X obj 28 336 sel empty;
#X obj 31 59 s \$0-pl_i1;
#X obj 31 79 r \$0-pl_o1;
#X obj 9 36 t b b a;
#X obj 9 102 list;
#X obj 28 151 until;
#X obj 28 263 list append;
#X obj 123 229 bang;
#X obj 61 202 f;
#X obj 61 224 + 1;
#X obj 103 157 0;
#X obj 28 174 t b b;
#X obj 28 362 f;
#X obj 9 394 f;
#X obj 9 125 t b b l b;
#X obj 9 416 s \$0-outlet1;
#X obj 9 12 inlet;
#X obj 28 309 list split 1;
#X obj 28 286 list split 6;
#X obj 114 253 r \$0-pl.length;
#X connect 0 0 12 0;
#X connect 2 0 4 1;
#X connect 3 0 4 0;
#X connect 3 1 1 0;
#X connect 3 2 0 1;
#X connect 4 0 14 0;
#X connect 5 0 11 0;
#X connect 6 0 18 0;
#X connect 7 0 5 1;
#X connect 8 0 9 0;
#X connect 9 0 8 1;
#X connect 9 0 12 1;
#X connect 10 0 8 1;
#X connect 10 0 13 1;
#X connect 11 0 6 0;
#X connect 11 1 8 0;
#X connect 12 0 13 1;
#X connect 13 0 15 0;
#X connect 14 0 13 0;
#X connect 14 1 5 0;
#X connect 14 2 6 1;
#X connect 14 3 10 0;
#X connect 16 0 3 0;
#X connect 17 0 0 0;
#X connect 18 0 17 0;
#X connect 18 1 6 1;
#X connect 18 2 7 0;
#X connect 19 0 18 1;
#X restore 68 120 pd get_position;
#N canvas 578 191 346 457 get_name 0;
#X obj 145 136 s \$0-pl_i1;
#X obj 145 157 r \$0-pl_o1;
#X obj 122 183 list;
#X obj 122 234 list split;
#X obj 78 67 - 1;
#X obj 78 91 moses 0;
#X obj 78 115 b;
#X obj 9 399 s \$0-outlet1;
#X obj 122 113 t b b f;
#X obj 9 5 inlet;
#X obj 9 27 t b a;
#X obj 9 377 list;
#X obj 208 2 r \$0-getname;
#X obj 208 403 s \$0-name;
#X obj 208 26 t b a;
#X obj 208 379 list;
#X obj 78 328 t a;
#X obj 187 198 * 6;
#X obj 154 260 list split 6;
#X obj 228 170 r \$0-pl.length;
#X msg 78 296 list empty empty 0 0;
#X connect 1 0 2 1;
#X connect 2 0 3 0;
#X connect 3 1 18 0;
#X connect 3 2 20 0;
#X connect 4 0 5 0;
#X connect 5 0 6 0;
#X connect 5 1 8 0;
#X connect 6 0 20 0;
#X connect 8 0 2 0;
#X connect 8 1 0 0;
#X connect 8 2 17 0;
#X connect 9 0 10 0;
#X connect 10 0 11 0;
#X connect 10 1 4 0;
#X connect 11 0 7 0;
#X connect 12 0 14 0;
#X connect 14 0 15 0;
#X connect 14 1 4 0;
#X connect 15 0 13 0;
#X connect 16 0 11 1;
#X connect 16 0 15 1;
#X connect 17 0 3 1;
#X connect 18 0 16 0;
#X connect 18 2 20 0;
#X connect 19 0 17 1;
#X connect 19 0 18 1;
#X connect 20 0 16 0;
#X restore 8 148 pd get_name;
#X connect 0 0 1 0;
#X connect 1 0 2 0;
#X connect 2 0 3 0;
#X connect 3 0 5 0;
#X connect 3 1 4 0;
#X restore 86 179 pd method get;
#N canvas 220 257 267 429 method 0;
#X obj 36 386 s \$0-pl_i2;
#X obj 14 0 r \$0-inlet1;
#X obj 14 22 route remove;
#X obj 14 44 list;
#X obj 36 111 s \$0-pl_i1;
#X obj 36 134 r \$0-pl_o1;
#X obj 14 158 list;
#X obj 14 90 t b b a;
#X obj 134 197 *;
#X obj 150 103 r \$0-pl.length;
#X obj 134 168 - 1;
#X obj 44 240 list split;
#X obj 76 267 list split;
#X obj 36 326 list;
#X obj 91 327 list;
#X obj 15 293 t b b;
#X obj 36 361 list append;
#X obj 14 65 moses 1;
#X obj 14 200 t b a b;
#X connect 1 0 2 0;
#X connect 2 0 3 0;
#X connect 3 0 17 0;
#X connect 5 0 6 1;
#X connect 6 0 18 0;
#X connect 7 0 6 0;
#X connect 7 1 4 0;
#X connect 7 2 10 0;
#X connect 8 0 11 1;
#X connect 9 0 8 1;
#X connect 9 0 12 1;
#X connect 10 0 8 0;
#X connect 11 0 13 1;
#X connect 11 1 12 0;
#X connect 11 2 13 1;
#X connect 12 1 14 1;
#X connect 12 2 14 1;
#X connect 13 0 16 0;
#X connect 14 0 16 1;
#X connect 15 0 13 0;
#X connect 15 1 14 0;
#X connect 16 0 0 0;
#X connect 17 1 7 0;
#X connect 18 0 15 0;
#X connect 18 1 11 0;
#X connect 18 2 13 1;
#X connect 18 2 14 1;
#X restore 86 159 pd method remove;
#N canvas 386 222 139 154 method 0;
#X obj 6 69 b;
#X obj 6 90 s \$0-pl_i2;
#X obj 6 11 r \$0-inlet1;
#X obj 6 33 route clear;
#X connect 0 0 1 0;
#X connect 2 0 3 0;
#X connect 3 0 0 0;
#X restore 86 139 pd method clear;
#N canvas 339 220 229 256 method 0;
#X obj 24 86 t a b;
#X obj 54 110 s \$0-pl_i1;
#X obj 54 131 r \$0-pl_o1;
#X obj 24 179 s \$0-pl_i2;
#X obj 24 158 list prepend;
#X obj 24 24 r \$0-inlet1;
#X obj 24 46 route append;
#X connect 0 0 4 0;
#X connect 0 1 1 0;
#X connect 2 0 4 1;
#X connect 4 0 3 0;
#X connect 5 0 6 0;
#X connect 6 0 0 0;
#X restore 86 99 pd method append;
#N canvas 0 0 180 270 method 0;
#X obj 63 111 s \$0-pl_i1;
#X obj 63 132 r \$0-pl_o1;
#X obj 33 159 list;
#X obj 33 87 t b b;
#X obj 33 228 s \$0-outlet1;
#X obj 33 26 r \$0-inlet1;
#X obj 33 48 route flush;
#X connect 1 0 2 1;
#X connect 2 0 4 0;
#X connect 3 0 2 0;
#X connect 3 1 0 0;
#X connect 5 0 6 0;
#X connect 6 0 3 0;
#X restore 86 79 pd method flush;
#N canvas 339 220 182 234 method 0;
#X obj 24 86 t a b;
#X obj 54 110 s \$0-pl_i1;
#X obj 54 131 r \$0-pl_o1;
#X obj 24 179 s \$0-pl_i2;
#X obj 24 24 r \$0-inlet1;
#X obj 24 46 route prepend;
#X obj 24 158 list append;
#X connect 0 0 6 0;
#X connect 0 1 1 0;
#X connect 2 0 6 1;
#X connect 4 0 5 0;
#X connect 5 0 0 0;
#X connect 6 0 3 0;
#X restore 86 119 pd method prepend;
#X obj 34 39 s \$0-inlet1;
#X obj 24 259 r \$0-outlet1;
#X obj 34 18 inlet;
#X obj 24 281 outlet;
#N canvas 336 203 219 224 method 0;
#X obj 8 13 r \$0-inlet1;
#X obj 8 35 route length;
#X obj 8 194 s \$0-outlet1;
#X obj 8 57 t b b;
#X obj 38 78 s \$0-pl_i1;
#X obj 38 98 r \$0-pl_o1;
#X obj 8 120 list;
#X obj 8 142 list length;
#X obj 8 166 / 6;
#X obj 97 124 r \$0-pl.length;
#X connect 0 0 1 0;
#X connect 1 0 3 0;
#X connect 3 0 6 0;
#X connect 3 1 4 0;
#X connect 5 0 6 1;
#X connect 6 0 7 0;
#X connect 7 0 8 0;
#X connect 8 0 2 0;
#X connect 9 0 8 1;
#X restore 86 220 pd method length;
#N canvas 336 203 401 682 method 0;
#X obj 8 13 r \$0-inlet1;
#X obj 8 60 list;
#X obj 8 35 route set;
#X obj 52 598 s \$0-pl_i2;
#X obj 127 260 s \$0-pl_i1;
#X obj 127 281 r \$0-pl_o1;
#X obj 104 307 list;
#X obj 104 327 list split;
#X obj 8 164 - 1;
#X obj 8 188 moses 0;
#X obj 8 212 b;
#X msg 8 122 \$1;
#X obj 8 143 route float;
#X obj 124 505 list;
#X obj 214 503 list;
#X obj 52 506 list;
#X obj 52 461 t b b b;
#X obj 52 557 list append;
#X obj 52 531 list append;
#X obj 288 451 t b;
#N canvas 0 0 379 420 replace 0;
#X obj 26 16 inlet;
#X obj 26 354 outlet;
#X obj 271 12 inlet;
#X obj 48 75 list split;
#X msg 113 12 \$2;
#X obj 113 54 - 1;
#X obj 98 273 list;
#X obj 199 272 list;
#X obj 26 274 list;
#X obj 26 225 t b b b;
#X obj 26 325 list append;
#X obj 26 299 list append;
#X obj 301 207 t b;
#X obj 26 48 t b a b;
#X msg 147 184 \$3;
#X obj 147 207 list;
#X obj 271 37 t a b;
#X obj 80 123 list split 1;
#X obj 113 32 max 1;
#X obj 141 252 0;
#X obj 113 202 b;
#X connect 0 0 13 0;
#X connect 2 0 16 0;
#X connect 3 0 8 1;
#X connect 3 1 17 0;
#X connect 3 2 8 1;
#X connect 3 2 20 0;
#X connect 4 0 18 0;
#X connect 5 0 3 1;
#X connect 6 0 11 1;
#X connect 7 0 10 1;
#X connect 8 0 11 0;
#X connect 9 0 8 0;
#X connect 9 1 6 0;
#X connect 9 2 7 0;
#X connect 10 0 1 0;
#X connect 11 0 10 0;
#X connect 12 0 7 1;
#X connect 12 0 8 1;
#X connect 12 0 19 0;
#X connect 13 0 9 0;
#X connect 13 1 3 0;
#X connect 14 0 15 0;
#X connect 15 0 6 1;
#X connect 16 0 14 0;
#X connect 16 0 4 0;
#X connect 16 1 12 0;
#X connect 17 1 7 1;
#X connect 17 2 20 0;
#X connect 18 0 5 0;
#X connect 19 0 6 1;
#X connect 20 0 6 1;
#X restore 137 436 pd replace;
#X obj 8 92 t a a b;
#X obj 52 210 t b b b f;
#X obj 169 304 * 6;
#X obj 136 353 list split 6;
#X obj 270 280 r \$0-pl.length;
#X connect 0 0 2 0;
#X connect 1 0 21 0;
#X connect 2 0 1 0;
#X connect 5 0 6 1;
#X connect 6 0 7 0;
#X connect 7 0 15 1;
#X connect 7 1 24 0;
#X connect 7 2 15 1;
#X connect 8 0 9 0;
#X connect 9 0 10 0;
#X connect 9 1 22 0;
#X connect 11 0 12 0;
#X connect 12 0 8 0;
#X connect 13 0 18 1;
#X connect 14 0 17 1;
#X connect 15 0 18 0;
#X connect 16 0 15 0;
#X connect 16 1 13 0;
#X connect 16 2 14 0;
#X connect 17 0 3 0;
#X connect 18 0 17 0;
#X connect 19 0 14 1;
#X connect 19 0 13 1;
#X connect 19 0 15 1;
#X connect 20 0 13 1;
#X connect 21 0 11 0;
#X connect 21 1 20 1;
#X connect 21 2 19 0;
#X connect 22 0 16 0;
#X connect 22 1 6 0;
#X connect 22 2 4 0;
#X connect 22 3 23 0;
#X connect 23 0 7 1;
#X connect 24 0 20 0;
#X connect 24 1 14 1;
#X connect 24 2 14 1;
#X connect 25 0 23 1;
#X connect 25 0 24 1;
#X restore 86 200 pd method set;
#X connect 0 0 3 0;
#X connect 1 0 0 0;
#X connect 2 0 0 1;
#X connect 11 0 13 0;
#X connect 12 0 10 0;
#X restore 240 116 pd list-index;
#X obj 240 94 r \$0-to_list-index;
#X obj 240 138 s \$0-from_list-index;
#X obj 69 345 list trim;
#X obj 240 67 s \$0-pl.length;
#X obj 240 27 loadbang;
#X obj 69 367 s \$0-to_list-index;
#X obj 69 302 list prepend prepend;
#X obj 30 417 s \$0-to_list-index;
#X obj 11 441 s \$0-pl-refresh;
#X obj 240 47 4;
#X obj 15 471 r \$0-toall;
#X obj 45 541 s \$0-to_list-index;
#X obj 15 561 s \$0-pl-refresh;
#X obj 15 497 t b b;
#X msg 45 519 clear;
#X obj 238 259 r \$0-gui.update;
#X obj 238 281 s \$0-pl-refresh;
#X obj 238 351 s \$0-scrollbar;
#X obj 238 309 r ch.active.clr-r;
#X msg 238 330 color \$1 \$1;
#N canvas 356 109 308 338 font-setting 0;
#X obj 11 10 r ch.talk.fnt-r;
#X obj 27 85 r \$0-numOfItems;
#X msg 11 32 \$1 \$2;
#X obj 11 54 t b a;
#X obj 11 110 f;
#X obj 11 155 until;
#X obj 11 131 t a b;
#X obj 11 182 f;
#X obj 56 158 0;
#X obj 11 206 + 1;
#X obj 11 231 list prepend \$0;
#X msg 11 280 \; \$1-\$2-line label_font \$3 \$4 \; \$1-\$2-nick label_font
\$3 \$4 \;;
#X obj 11 256 list append 0 0;
#X connect 0 0 2 0;
#X connect 1 0 4 1;
#X connect 2 0 3 0;
#X connect 3 0 4 0;
#X connect 3 1 12 1;
#X connect 4 0 6 0;
#X connect 5 0 7 0;
#X connect 6 0 5 0;
#X connect 6 1 8 0;
#X connect 7 0 9 0;
#X connect 8 0 7 1;
#X connect 9 0 7 1;
#X connect 9 0 10 0;
#X connect 10 0 12 0;
#X connect 12 0 11 0;
#X restore 237 385 pd font-setting;
#X obj 69 323 list append 0;
#X obj 11 112 list;
#X obj 11 166 unpack s s f;
#X obj 11 255 pack s s f;
#N canvas 505 545 308 211 client_color 0;
#X obj 22 7 inlet;
#X obj 22 183 outlet;
#X obj 114 25 r ch.background.clr-r;
#X msg 114 51 \$1;
#N canvas 0 0 193 243 convert_to_RGB 0;
#X obj 12 2 inlet;
#X obj 12 114 / 65536;
#X obj 12 138 int;
#X obj 12 78 t f f f;
#X obj 66 116 % 65536;
#X obj 66 138 / 256;
#X obj 66 160 int;
#X obj 115 115 % 256;
#X obj 12 57 * -1;
#X obj 12 187 pack f f f;
#X obj 12 212 outlet;
#X obj 12 27 + 1;
#X connect 0 0 11 0;
#X connect 1 0 2 0;
#X connect 2 0 9 0;
#X connect 3 0 1 0;
#X connect 3 1 4 0;
#X connect 3 2 7 0;
#X connect 4 0 5 0;
#X connect 5 0 6 0;
#X connect 6 0 9 1;
#X connect 7 0 9 2;
#X connect 8 0 3 0;
#X connect 9 0 10 0;
#X connect 11 0 8 0;
#X restore 114 90 pd convert_to_RGB;
#X obj 22 42 t a b;
#N canvas 447 97 467 356 render_color 0;
#X obj 8 19 inlet;
#X obj 340 27 inlet;
#X obj 340 67 unpack f f f;
#X obj 340 87 / 128;
#X obj 379 87 / 128;
#X obj 419 87 / 128;
#X obj 340 108 int;
#X obj 379 108 int;
#X obj 419 108 int;
#X obj 340 182 * 128;
#X obj 379 182 * 128;
#X obj 419 181 * 128;
#X obj 8 224 +;
#X obj 106 221 +;
#X obj 197 218 +;
#X obj 340 132 * -1;
#X obj 340 153 + 1;
#X obj 379 130 * -1;
#X obj 379 151 + 1;
#X obj 419 132 * -1;
#X obj 419 153 + 1;
#N canvas 810 442 194 198 convert_to_pd-color 0;
#X obj 78 40 * -256;
#X obj 13 40 * -65536;
#X obj 143 41 * -1;
#X obj 13 19 int;
#X obj 78 18 int;
#X obj 143 19 int;
#X obj 78 92 +;
#X obj 65 117 +;
#X obj 65 161 outlet;
#X obj 13 -1 inlet;
#X obj 78 -3 inlet;
#X obj 143 -1 inlet;
#X connect 0 0 6 0;
#X connect 1 0 7 0;
#X connect 2 0 6 1;
#X connect 3 0 1 0;
#X connect 4 0 0 0;
#X connect 5 0 2 0;
#X connect 6 0 7 1;
#X connect 7 0 8 0;
#X connect 9 0 3 0;
#X connect 10 0 4 0;
#X connect 11 0 5 0;
#X restore 8 252 pd convert_to_pd-color;
#N canvas 814 224 252 364 assign 0;
#X obj 16 11 inlet;
#X obj 16 317 outlet;
#X obj 16 54 route 0 1 2 3 4 5 6 7;
#X obj 16 258 unpack f f f;
#X obj 64 317 outlet;
#X obj 111 317 outlet;
#X msg 33 206 120 120 120;
#X msg 51 186 10 10 120;
#X msg 69 164 120 120 10;
#X msg 87 144 120 10 10;
#X msg 104 124 10 120 120;
#X msg 122 104 10 120 60;
#X msg 140 85 120 10 120;
#X msg 16 228 10 10 10;
#X obj 16 33 mod 8;
#X connect 0 0 14 0;
#X connect 2 0 13 0;
#X connect 2 1 6 0;
#X connect 2 2 7 0;
#X connect 2 3 8 0;
#X connect 2 4 9 0;
#X connect 2 5 10 0;
#X connect 2 6 11 0;
#X connect 2 7 12 0;
#X connect 3 0 1 0;
#X connect 3 1 4 0;
#X connect 3 2 5 0;
#X connect 6 0 3 0;
#X connect 7 0 3 0;
#X connect 8 0 3 0;
#X connect 9 0 3 0;
#X connect 10 0 3 0;
#X connect 11 0 3 0;
#X connect 12 0 3 0;
#X connect 13 0 3 0;
#X connect 14 0 2 0;
#X restore 8 86 pd assign;
#X obj 8 305 outlet;
#X connect 0 0 22 0;
#X connect 1 0 2 0;
#X connect 2 0 3 0;
#X connect 2 1 4 0;
#X connect 2 2 5 0;
#X connect 3 0 6 0;
#X connect 4 0 7 0;
#X connect 5 0 8 0;
#X connect 6 0 15 0;
#X connect 7 0 17 0;
#X connect 8 0 19 0;
#X connect 9 0 12 1;
#X connect 10 0 13 1;
#X connect 11 0 14 1;
#X connect 12 0 21 0;
#X connect 13 0 21 1;
#X connect 14 0 21 2;
#X connect 15 0 16 0;
#X connect 16 0 9 0;
#X connect 17 0 18 0;
#X connect 18 0 10 0;
#X connect 19 0 20 0;
#X connect 20 0 11 0;
#X connect 21 0 23 0;
#X connect 22 0 12 0;
#X connect 22 1 13 0;
#X connect 22 2 14 0;
#X restore 22 139 pd render_color;
#X obj 91 114 list;
#X connect 0 0 5 0;
#X connect 2 0 3 0;
#X connect 3 0 4 0;
#X connect 4 0 7 1;
#X connect 5 0 6 0;
#X connect 5 1 7 0;
#X connect 6 0 1 0;
#X connect 7 0 6 1;
#X restore 80 233 pd client_color;
#X obj 50 189 t a b;
#X obj 11 137 t a b;
#X obj 108 167 1;
#X obj 80 211 f;
#X obj 11 278 t b b b a;
#X msg 30 394 remove 201;
#X obj 11 9 r NETPD;
#X obj 11 30 route from;
#X obj 11 51 routeOSC /chat;
#X obj 11 72 routeOSC /msg;
#X connect 0 0 1 0;
#X connect 2 0 4 0;
#X connect 3 0 2 0;
#X connect 5 0 8 0;
#X connect 7 0 12 0;
#X connect 9 0 24 0;
#X connect 12 0 6 0;
#X connect 13 0 16 0;
#X connect 16 0 15 0;
#X connect 16 1 17 0;
#X connect 17 0 14 0;
#X connect 18 0 19 0;
#X connect 21 0 22 0;
#X connect 22 0 20 0;
#X connect 24 0 5 0;
#X connect 25 0 30 0;
#X connect 26 0 27 0;
#X connect 26 1 29 0;
#X connect 26 2 32 1;
#X connect 27 0 33 0;
#X connect 28 0 27 2;
#X connect 29 0 27 1;
#X connect 29 1 32 0;
#X connect 30 0 26 0;
#X connect 30 1 31 0;
#X connect 31 0 32 1;
#X connect 32 0 28 0;
#X connect 33 0 11 0;
#X connect 33 1 34 0;
#X connect 33 3 9 0;
#X connect 34 0 10 0;
#X connect 35 0 36 0;
#X connect 36 0 37 0;
#X connect 37 0 38 0;
#X connect 38 0 25 0;
#X restore 9 48 pd talkdisplay;
#N canvas 360 145 641 357 connect-button 0;
#X obj 8 89 + 1;
#X obj 8 111 mod 2;
#X obj 8 153 s \$0-connect-r;
#X msg 8 132 range \$1 \$1;
#X obj 113 54 sel 0 1;
#X msg 113 98 label offline;
#X msg 135 77 label online;
#X obj 113 293 s \$0-connect-display;
#X obj 163 151 r \$0-toall;
#X obj 302 85 del 300;
#X obj 302 57 spigot 1;
#X obj 302 35 b;
#X obj 334 111 0;
#X obj 302 110 1;
#X text 369 83 select color;
#X obj 302 187 f;
#X obj 331 188 f;
#X msg 302 236 color \$1 \$2;
#X obj 476 66 r ch.background.clr-r;
#X msg 476 88 \$1;
#X msg 474 132 \$1;
#X obj 474 110 r ch.active.clr-r;
#X msg 474 175 \$1;
#X obj 474 153 r ch.font.clr-r;
#X obj 302 135 f;
#X obj 180 29 r \$0-gui.update;
#X msg 470 246 label_font \$1 \$2;
#X obj 470 223 r ch.buttons.fnt-r;
#X obj 302 13 r \$0-connect;
#X obj 302 159 sel 1 0;
#X obj 397 13 loadbang;
#X obj 302 214 list append 0;
#X obj 52 62 loadbang;
#X obj 48 214 loadbang;
#X obj 48 237 1;
#X obj 8 26 route connection;
#X obj 8 5 r NETPD;
#X connect 0 0 1 0;
#X connect 1 0 3 0;
#X connect 3 0 2 0;
#X connect 4 0 5 0;
#X connect 4 1 6 0;
#X connect 5 0 7 0;
#X connect 6 0 7 0;
#X connect 8 0 7 0;
#X connect 9 0 13 0;
#X connect 10 0 12 0;
#X connect 10 0 9 0;
#X connect 11 0 10 0;
#X connect 12 0 10 1;
#X connect 12 0 24 0;
#X connect 13 0 10 1;
#X connect 13 0 24 0;
#X connect 15 0 31 0;
#X connect 16 0 31 0;
#X connect 17 0 7 0;
#X connect 18 0 19 0;
#X connect 19 0 15 1;
#X connect 20 0 16 1;
#X connect 21 0 20 0;
#X connect 22 0 31 1;
#X connect 23 0 22 0;
#X connect 24 0 29 0;
#X connect 25 0 24 0;
#X connect 26 0 7 0;
#X connect 27 0 26 0;
#X connect 28 0 11 0;
#X connect 29 0 15 0;
#X connect 29 1 16 0;
#X connect 30 0 11 0;
#X connect 31 0 17 0;
#X connect 32 0 5 0;
#X connect 33 0 34 0;
#X connect 34 0 3 0;
#X connect 35 0 0 0;
#X connect 35 0 4 0;
#X connect 36 0 35 0;
#X restore 9 88 pd connect-button;
#N canvas 384 116 505 265 clients-display 0;
#X msg 10 122 list \$1 clients;
#X msg 10 168 label \$1;
#X obj 88 165 r \$0-toall;
#X obj 10 235 s \$0-onlinedisplay;
#X obj 231 13 r ch.background.clr-r;
#X obj 276 34 r ch.font.clr-r;
#X msg 276 57 \$1;
#X msg 231 38 \$1;
#X obj 231 100 pack;
#X obj 276 78 t b a;
#X msg 231 123 color \$1 \$2;
#X msg 335 165 label_font \$1 \$2;
#X obj 335 140 r ch.buttons.fnt-r;
#N canvas 0 0 650 442 list-l2s 0;
#X msg 327 196 set %s;
#X obj 235 244 t a;
#X obj 118 252 makefilename %s;
#X obj 96 62 t b a b;
#X obj 96 283 symbol;
#X msg 142 22 a b c d 1 2;
#X obj 118 158 route symbol float;
#X obj 118 186 symbol;
#X obj 178 190 makefilename %d;
#X obj 96 21 inlet;
#X obj 96 313 outlet;
#X obj 395 89 loadbang;
#X msg 395 228 set set \, adddollsym \$1;
#X msg 235 265 set \$1 %s;
#N canvas 0 0 533 407 drip 0;
#X obj 64 206 list split 1;
#X obj 64 123 until;
#X obj 64 181 list append;
#X obj 194 206 bang;
#X text 146 90 First store list \, then start the loop;
#X text 163 118 "until" bangs its output until told to stop by a "bang"
to its right inlet.;
#X text 182 160 Store the remaining list.;
#X text 239 205 third outlet of "split" tells us to stop.;
#X obj 64 243 outlet;
#X obj 64 57 inlet;
#X text 237 44 From list-help.pd;
#X obj 143 243 outlet;
#X obj 64 86 t b a;
#X connect 0 0 8 0;
#X connect 0 1 2 1;
#X connect 0 2 3 0;
#X connect 0 2 11 0;
#X connect 1 0 2 0;
#X connect 2 0 0 0;
#X connect 3 0 1 1;
#X connect 9 0 12 0;
#X connect 12 0 1 0;
#X connect 12 1 2 1;
#X restore 118 123 pd drip;
#X obj 395 156 makefilename %c;
#X msg 395 118 32;
#X obj 395 192 makefilename 1%s%%s;
#X connect 0 0 2 0;
#X connect 1 0 13 0;
#X connect 2 0 1 0;
#X connect 2 0 4 1;
#X connect 3 0 4 0;
#X connect 3 1 14 0;
#X connect 3 2 0 0;
#X connect 4 0 10 0;
#X connect 5 0 3 0;
#X connect 6 0 7 0;
#X connect 6 1 8 0;
#X connect 7 0 2 0;
#X connect 8 0 2 0;
#X connect 9 0 3 0;
#X connect 11 0 16 0;
#X connect 12 0 13 0;
#X connect 13 0 2 0;
#X connect 14 0 6 0;
#X connect 15 0 17 0;
#X connect 16 0 15 0;
#X connect 17 0 12 0;
#X restore 10 144 pd list-l2s;
#X obj 10 13 r NETPD;
#X obj 10 34 route from;
#X obj 10 54 routeOSC /server;
#X obj 10 74 routeOSC /num_of_clients;
#X connect 0 0 13 0;
#X connect 1 0 3 0;
#X connect 2 0 3 0;
#X connect 4 0 7 0;
#X connect 5 0 6 0;
#X connect 6 0 9 0;
#X connect 7 0 8 0;
#X connect 8 0 10 0;
#X connect 9 0 8 0;
#X connect 9 1 8 1;
#X connect 10 0 3 0;
#X connect 11 0 3 0;
#X connect 12 0 11 0;
#X connect 13 0 1 0;
#X connect 14 0 15 0;
#X connect 15 0 16 0;
#X connect 16 0 17 0;
#X connect 17 0 0 0;
#X restore 9 68 pd clients-display;
#N canvas 533 183 366 158 inputbox 0;
#X obj 20 110 s \$0-inputbox-r;
#X msg 20 85 set \$1;
#X msg 20 42 list >> click here & type & press <Enter>;
#X obj 158 71 r ch.inputbox.clr-r;
#X msg 158 92 color \$1 \$1;
#X obj 158 113 s \$0-input;
#X obj 20 16 loadbang;
#N canvas 0 0 650 442 list-l2s 0;
#X msg 327 196 set %s;
#X obj 235 244 t a;
#X obj 118 252 makefilename %s;
#X obj 96 62 t b a b;
#X obj 96 283 symbol;
#X msg 142 22 a b c d 1 2;
#X obj 118 158 route symbol float;
#X obj 118 186 symbol;
#X obj 178 190 makefilename %d;
#X obj 96 21 inlet;
#X obj 96 313 outlet;
#X obj 395 89 loadbang;
#X msg 395 228 set set \, adddollsym \$1;
#X msg 235 265 set \$1 %s;
#N canvas 0 0 533 407 drip 0;
#X obj 64 206 list split 1;
#X obj 64 123 until;
#X obj 64 181 list append;
#X obj 194 206 bang;
#X text 146 90 First store list \, then start the loop;
#X text 163 118 "until" bangs its output until told to stop by a "bang"
to its right inlet.;
#X text 182 160 Store the remaining list.;
#X text 239 205 third outlet of "split" tells us to stop.;
#X obj 64 243 outlet;
#X obj 64 57 inlet;
#X text 237 44 From list-help.pd;
#X obj 143 243 outlet;
#X obj 64 86 t b a;
#X connect 0 0 8 0;
#X connect 0 1 2 1;
#X connect 0 2 3 0;
#X connect 0 2 11 0;
#X connect 1 0 2 0;
#X connect 2 0 0 0;
#X connect 3 0 1 1;
#X connect 9 0 12 0;
#X connect 12 0 1 0;
#X connect 12 1 2 1;
#X restore 118 123 pd drip;
#X obj 395 156 makefilename %c;
#X msg 395 118 32;
#X obj 395 192 makefilename 1%s%%s;
#X connect 0 0 2 0;
#X connect 1 0 13 0;
#X connect 2 0 1 0;
#X connect 2 0 4 1;
#X connect 3 0 4 0;
#X connect 3 1 14 0;
#X connect 3 2 0 0;
#X connect 4 0 10 0;
#X connect 5 0 3 0;
#X connect 6 0 7 0;
#X connect 6 1 8 0;
#X connect 7 0 2 0;
#X connect 8 0 2 0;
#X connect 9 0 3 0;
#X connect 11 0 16 0;
#X connect 12 0 13 0;
#X connect 13 0 2 0;
#X connect 14 0 6 0;
#X connect 15 0 17 0;
#X connect 16 0 15 0;
#X connect 17 0 12 0;
#X restore 20 63 pd list-l2s;
#X connect 1 0 0 0;
#X connect 2 0 7 0;
#X connect 3 0 4 0;
#X connect 4 0 5 0;
#X connect 6 0 2 0;
#X connect 7 0 1 0;
#X restore 9 28 pd inputbox;
#N canvas 360 145 545 313 list-button 0;
#X obj 12 6 r \$0-list;
#X obj 12 194 s \$0-listrequest;
#X obj 124 38 del 300;
#X obj 12 50 spigot 1;
#X obj 12 28 b;
#X obj 90 60 0;
#X obj 124 65 1;
#X text 194 78 select color;
#X obj 192 156 f;
#X obj 221 157 f;
#X obj 192 257 s \$0-list-display;
#X msg 192 203 color \$1 \$2;
#X obj 404 32 r ch.background.clr-r;
#X msg 404 54 \$1;
#X msg 402 98 \$1;
#X obj 402 76 r ch.active.clr-r;
#X msg 402 141 \$1;
#X obj 402 119 r ch.font.clr-r;
#X msg 398 194 label_font \$1 \$2;
#X obj 398 171 r ch.buttons.fnt-r;
#X obj 192 128 sel 1 0;
#X obj 208 38 r \$0-gui.update;
#X obj 192 105 1;
#X obj 192 181 list append 0;
#X obj 90 150 bng 15 250 50 0 empty empty empty 17 7 0 10 -262144 -1
-1;
#X connect 0 0 4 0;
#X connect 2 0 6 0;
#X connect 3 0 5 0;
#X connect 3 0 2 0;
#X connect 3 0 1 0;
#X connect 4 0 3 0;
#X connect 5 0 3 1;
#X connect 5 0 22 0;
#X connect 6 0 3 1;
#X connect 6 0 22 0;
#X connect 8 0 23 0;
#X connect 9 0 23 0;
#X connect 11 0 10 0;
#X connect 12 0 13 0;
#X connect 13 0 8 1;
#X connect 14 0 9 1;
#X connect 15 0 14 0;
#X connect 16 0 23 1;
#X connect 17 0 16 0;
#X connect 18 0 10 0;
#X connect 19 0 18 0;
#X connect 20 0 8 0;
#X connect 20 1 9 0;
#X connect 21 0 22 0;
#X connect 22 0 20 0;
#X connect 23 0 11 0;
#X connect 24 0 1 0;
#X restore 9 108 pd list-button;
#N canvas 360 145 630 259 pref-button 0;
#X obj 124 38 del 300;
#X obj 12 50 spigot 1;
#X obj 12 28 b;
#X obj 90 60 0;
#X obj 124 65 1;
#X text 203 7 select color;
#X obj 192 157 f;
#X obj 221 158 f;
#X msg 192 211 color \$1 \$2;
#X obj 12 6 r \$0-pref;
#X obj 192 236 s \$0-pref-display;
#X obj 12 194 s \$0-show-settings;
#X obj 404 26 r ch.background.clr-r;
#X msg 404 54 \$1;
#X msg 402 98 \$1;
#X obj 402 76 r ch.active.clr-r;
#X msg 402 141 \$1;
#X obj 402 119 r ch.font.clr-r;
#X msg 398 194 label_font \$1 \$2;
#X obj 398 171 r ch.buttons.fnt-r;
#X obj 192 73 r \$0-gui.update;
#X obj 192 129 sel 1 0;
#X obj 192 106 1;
#X obj 192 189 list append 0;
#X connect 0 0 4 0;
#X connect 1 0 3 0;
#X connect 1 0 0 0;
#X connect 1 0 11 0;
#X connect 2 0 1 0;
#X connect 3 0 1 1;
#X connect 3 0 22 0;
#X connect 4 0 1 1;
#X connect 4 0 22 0;
#X connect 6 0 23 0;
#X connect 7 0 23 0;
#X connect 8 0 10 0;
#X connect 9 0 2 0;
#X connect 12 0 13 0;
#X connect 13 0 6 1;
#X connect 14 0 7 1;
#X connect 15 0 14 0;
#X connect 16 0 23 1;
#X connect 17 0 16 0;
#X connect 18 0 10 0;
#X connect 19 0 18 0;
#X connect 20 0 22 0;
#X connect 21 0 6 0;
#X connect 21 1 7 0;
#X connect 22 0 21 0;
#X connect 23 0 8 0;
#X restore 9 128 pd pref-button;
#N canvas 360 145 715 249 logview-button 0;
#X obj 292 70 sel 0 1;
#X text 320 52 select color;
#X obj 292 97 f;
#X obj 321 99 f;
#X msg 292 149 color \$1 \$2;
#X obj 12 6 r \$0-showlogview;
#X obj 292 200 s \$0-showlogview-display;
#N canvas 0 0 228 141 speedlimit 0;
#X obj 131 38 del 300;
#X obj 17 44 spigot 1;
#X obj 88 74 0;
#X obj 131 65 1;
#X obj 17 69 t a b;
#X obj 17 20 inlet;
#X obj 17 95 outlet;
#X connect 0 0 3 0;
#X connect 1 0 4 0;
#X connect 2 0 1 1;
#X connect 3 0 1 1;
#X connect 4 0 6 0;
#X connect 4 1 2 0;
#X connect 4 1 0 0;
#X connect 5 0 1 0;
#X restore 12 34 pd speedlimit;
#X obj 145 105 + 1;
#X obj 145 129 mod 2;
#X msg 145 150 range \$1 \$1;
#X obj 145 171 s \$0-showlogview-r;
#X obj 12 167 s \$0-logview;
#X obj 289 10 r \$0-gui.update;
#X obj 533 16 r ch.background.clr-r;
#X msg 533 38 \$1;
#X msg 531 88 \$1;
#X obj 531 66 r ch.active.clr-r;
#X msg 531 131 \$1;
#X obj 531 109 r ch.font.clr-r;
#X msg 527 184 label_font \$1 \$2;
#X obj 527 161 r ch.buttons.fnt-r;
#X obj 292 36 f;
#X obj 292 127 list append 0;
#X connect 0 0 2 0;
#X connect 0 1 3 0;
#X connect 2 0 23 0;
#X connect 3 0 23 0;
#X connect 4 0 6 0;
#X connect 5 0 7 0;
#X connect 7 0 8 0;
#X connect 7 0 12 0;
#X connect 7 0 22 0;
#X connect 8 0 9 0;
#X connect 9 0 10 0;
#X connect 10 0 11 0;
#X connect 13 0 22 0;
#X connect 14 0 15 0;
#X connect 15 0 2 1;
#X connect 16 0 3 1;
#X connect 17 0 16 0;
#X connect 18 0 23 1;
#X connect 19 0 18 0;
#X connect 20 0 6 0;
#X connect 21 0 20 0;
#X connect 22 0 0 0;
#X connect 23 0 4 0;
#X restore 9 166 pd logview-button;
#N canvas 360 145 720 242 creator-button 0;
#X obj 291 104 sel 0 1;
#X text 362 27 select color;
#X obj 291 131 f;
#X obj 320 133 f;
#X msg 291 181 color \$1 \$2;
#N canvas 0 0 228 141 speedlimit 0;
#X obj 131 38 del 300;
#X obj 17 44 spigot 1;
#X obj 88 74 0;
#X obj 131 65 1;
#X obj 17 69 t a b;
#X obj 17 20 inlet;
#X obj 17 95 outlet;
#X connect 0 0 3 0;
#X connect 1 0 4 0;
#X connect 2 0 1 1;
#X connect 3 0 1 1;
#X connect 4 0 6 0;
#X connect 4 1 2 0;
#X connect 4 1 0 0;
#X connect 5 0 1 0;
#X restore 12 34 pd speedlimit;
#X obj 145 105 + 1;
#X obj 145 129 mod 2;
#X msg 145 150 range \$1 \$1;
#X obj 12 6 r \$0-showcreator;
#X obj 12 167 s \$0-creator;
#X obj 145 171 s \$0-showcreator-r;
#X obj 291 206 s \$0-showcreator-display;
#X obj 533 16 r ch.background.clr-r;
#X msg 533 38 \$1;
#X msg 531 88 \$1;
#X obj 531 66 r ch.active.clr-r;
#X msg 531 131 \$1;
#X obj 531 109 r ch.font.clr-r;
#X msg 527 184 label_font \$1 \$2;
#X obj 527 161 r ch.buttons.fnt-r;
#X obj 291 74 f;
#X obj 229 24 r \$0-gui.update;
#X obj 291 159 list append 0;
#X connect 0 0 2 0;
#X connect 0 1 3 0;
#X connect 2 0 23 0;
#X connect 3 0 23 0;
#X connect 4 0 12 0;
#X connect 5 0 6 0;
#X connect 5 0 10 0;
#X connect 5 0 21 0;
#X connect 6 0 7 0;
#X connect 7 0 8 0;
#X connect 8 0 11 0;
#X connect 9 0 5 0;
#X connect 13 0 14 0;
#X connect 14 0 2 1;
#X connect 15 0 3 1;
#X connect 16 0 15 0;
#X connect 17 0 23 1;
#X connect 18 0 17 0;
#X connect 19 0 12 0;
#X connect 20 0 19 0;
#X connect 21 0 0 0;
#X connect 22 0 21 0;
#X connect 23 0 4 0;
#X restore 9 185 pd creator-button;
#N canvas 573 74 414 285 title 0;
#X obj 52 75 r chatversion;
#X obj 52 54 s chatgetversion;
#X obj 52 97 list;
#X obj 22 31 t b b;
#X obj 22 142 list prepend CHAT;
#X obj 22 118 list;
#X obj 111 187 r \$0-toall;
#X obj 22 246 s \$0-title;
#X msg 22 187 label \$1;
#X obj 22 8 loadbang;
#X obj 234 43 r ch.background.clr-r;
#X obj 277 68 r ch.font.clr-r;
#X msg 234 67 \$1;
#X msg 277 91 \$1;
#X obj 234 136 pack;
#X obj 277 114 t b f;
#X msg 234 156 color \$1 \$2;
#X obj 232 187 r ch.title.fnt-r;
#X msg 232 208 label_font \$1 \$2;
#N canvas 0 0 650 442 list-l2s 0;
#X msg 327 196 set %s;
#X obj 235 244 t a;
#X obj 118 252 makefilename %s;
#X obj 96 62 t b a b;
#X obj 96 283 symbol;
#X msg 142 22 a b c d 1 2;
#X obj 118 158 route symbol float;
#X obj 118 186 symbol;
#X obj 178 190 makefilename %d;
#X obj 96 21 inlet;
#X obj 96 313 outlet;
#X obj 395 89 loadbang;
#X msg 395 228 set set \, adddollsym \$1;
#X msg 235 265 set \$1 %s;
#N canvas 0 0 533 407 drip 0;
#X obj 64 206 list split 1;
#X obj 64 123 until;
#X obj 64 181 list append;
#X obj 194 206 bang;
#X text 146 90 First store list \, then start the loop;
#X text 163 118 "until" bangs its output until told to stop by a "bang"
to its right inlet.;
#X text 182 160 Store the remaining list.;
#X text 239 205 third outlet of "split" tells us to stop.;
#X obj 64 243 outlet;
#X obj 64 57 inlet;
#X text 237 44 From list-help.pd;
#X obj 143 243 outlet;
#X obj 64 86 t b a;
#X connect 0 0 8 0;
#X connect 0 1 2 1;
#X connect 0 2 3 0;
#X connect 0 2 11 0;
#X connect 1 0 2 0;
#X connect 2 0 0 0;
#X connect 3 0 1 1;
#X connect 9 0 12 0;
#X connect 12 0 1 0;
#X connect 12 1 2 1;
#X restore 118 123 pd drip;
#X obj 395 156 makefilename %c;
#X msg 395 118 32;
#X obj 395 192 makefilename 1%s%%s;
#X connect 0 0 2 0;
#X connect 1 0 13 0;
#X connect 2 0 1 0;
#X connect 2 0 4 1;
#X connect 3 0 4 0;
#X connect 3 1 14 0;
#X connect 3 2 0 0;
#X connect 4 0 10 0;
#X connect 5 0 3 0;
#X connect 6 0 7 0;
#X connect 6 1 8 0;
#X connect 7 0 2 0;
#X connect 8 0 2 0;
#X connect 9 0 3 0;
#X connect 11 0 16 0;
#X connect 12 0 13 0;
#X connect 13 0 2 0;
#X connect 14 0 6 0;
#X connect 15 0 17 0;
#X connect 16 0 15 0;
#X connect 17 0 12 0;
#X restore 22 164 pd list-l2s;
#X connect 0 0 2 0;
#X connect 2 0 5 1;
#X connect 3 0 5 0;
#X connect 3 1 1 0;
#X connect 4 0 19 0;
#X connect 5 0 4 0;
#X connect 6 0 7 0;
#X connect 8 0 7 0;
#X connect 9 0 3 0;
#X connect 10 0 12 0;
#X connect 11 0 13 0;
#X connect 12 0 14 0;
#X connect 13 0 15 0;
#X connect 14 0 16 0;
#X connect 15 0 14 0;
#X connect 15 1 14 1;
#X connect 16 0 7 0;
#X connect 17 0 18 0;
#X connect 18 0 7 0;
#X connect 19 0 8 0;
#X restore 9 9 pd title;
#N canvas 607 264 144 80 border 0;
#X obj 6 8 r ch.border.clr-r;
#X msg 6 32 color \$1 \$1;
#X obj 6 54 s \$0-border;
#X connect 0 0 1 0;
#X connect 1 0 2 0;
#X restore 9 204 pd border;
#N canvas 634 214 177 105 background 0;
#X obj 15 15 r ch.background.clr-r;
#X msg 15 37 color \$1 \$1;
#X obj 15 59 s \$0-background;
#X connect 0 0 1 0;
#X connect 1 0 2 0;
#X restore 9 223 pd background;
#N canvas 360 145 718 240 mute-button 0;
#X obj 291 104 sel 0 1;
#X text 362 27 select color;
#X obj 291 131 f;
#X obj 320 133 f;
#X msg 291 181 color \$1 \$2;
#N canvas 0 0 228 141 speedlimit 0;
#X obj 131 38 del 300;
#X obj 17 44 spigot 1;
#X obj 88 74 0;
#X obj 131 65 1;
#X obj 17 69 t a b;
#X obj 17 20 inlet;
#X obj 17 95 outlet;
#X connect 0 0 3 0;
#X connect 1 0 4 0;
#X connect 2 0 1 1;
#X connect 3 0 1 1;
#X connect 4 0 6 0;
#X connect 4 1 2 0;
#X connect 4 1 0 0;
#X connect 5 0 1 0;
#X restore 12 34 pd speedlimit;
#X obj 145 105 + 1;
#X obj 145 129 mod 2;
#X msg 145 150 range \$1 \$1;
#X obj 533 16 r ch.background.clr-r;
#X msg 533 38 \$1;
#X msg 531 88 \$1;
#X obj 531 66 r ch.active.clr-r;
#X msg 531 131 \$1;
#X obj 531 109 r ch.font.clr-r;
#X msg 527 184 label_font \$1 \$2;
#X obj 527 161 r ch.buttons.fnt-r;
#X obj 291 74 f;
#X obj 229 24 r \$0-gui.update;
#X obj 291 159 list append 0;
#X obj 12 6 r \$0-mute;
#X obj 145 171 s \$0-mute-r;
#X obj 291 206 s \$0-mute-display;
#X obj 12 169 s \$0-muteclick;
#X connect 0 0 2 0;
#X connect 0 1 3 0;
#X connect 2 0 19 0;
#X connect 3 0 19 0;
#X connect 4 0 22 0;
#X connect 5 0 6 0;
#X connect 5 0 17 0;
#X connect 5 0 23 0;
#X connect 6 0 7 0;
#X connect 7 0 8 0;
#X connect 8 0 21 0;
#X connect 9 0 10 0;
#X connect 10 0 2 1;
#X connect 11 0 3 1;
#X connect 12 0 11 0;
#X connect 13 0 19 1;
#X connect 14 0 13 0;
#X connect 15 0 22 0;
#X connect 16 0 15 0;
#X connect 17 0 0 0;
#X connect 18 0 17 0;
#X connect 19 0 4 0;
#X connect 20 0 5 0;
#X restore 9 147 pd mute-button;
#X restore 17 54 pd chat-guicode;
#N canvas 559 87 378 427 CLIENT 0;
#X obj 171 222 tcpclient;
#X obj 13 330 unpackOSC;
#X obj 13 78 packOSC;
#X obj 171 177 list prepend send;
#X obj 171 200 list trim;
#N canvas 1027 44 653 487 forward_to_localhost 0;
#X obj 22 127 route 47;
#X obj 22 18 inlet;
#X obj 22 40 t a a a a a a a b;
#X obj 94 337 t b a;
#X obj 126 359 s to.realign;
#X obj 126 378 r from.realign;
#X obj 94 402 list append;
#X text 247 380 realign OSC address to a multiple of 4 bytes;
#X obj 94 445 outlet;
#X obj 22 67 list split 3;
#X obj 22 175 route 47;
#X obj 22 206 list append;
#X obj 22 289 t b a;
#X obj 54 313 list split 2;
#X text 178 312 skip first field of OSC adress;
#X obj 131 213 list append;
#X obj 131 189 b;
#X obj 131 238 outlet;
#X text 202 241 non-local messages;
#X text 162 449 local messages;
#X text 163 73 first field of OSC address mustn't exceed 1 byte (+
2 x '/');
#N canvas 390 123 493 501 realign 0;
#N canvas 1048 333 213 342 find 0;
#X obj 15 124 list split 1;
#X obj 15 77 until;
#X obj 15 99 list append;
#X obj 122 118 bang;
#X obj 15 14 inlet;
#X obj 15 43 t b a b;
#X obj 15 152 t a b;
#X obj 47 176 f;
#X obj 47 200 + 1;
#X msg 65 152 0;
#X obj 15 228 sel 44;
#X obj 15 252 f;
#X obj 15 306 outlet;
#X obj 15 275 - 1;
#X connect 0 0 6 0;
#X connect 0 1 2 1;
#X connect 0 2 3 0;
#X connect 1 0 2 0;
#X connect 2 0 0 0;
#X connect 3 0 1 1;
#X connect 4 0 5 0;
#X connect 5 0 1 0;
#X connect 5 1 2 1;
#X connect 5 2 9 0;
#X connect 6 0 10 0;
#X connect 6 1 7 0;
#X connect 7 0 8 0;
#X connect 8 0 7 1;
#X connect 8 0 11 1;
#X connect 9 0 7 1;
#X connect 10 0 11 0;
#X connect 10 0 3 0;
#X connect 11 0 13 0;
#X connect 13 0 12 0;
#X restore 82 67 pd find 44;
#X obj 15 34 t a a;
#X obj 15 96 list split;
#N canvas 40 252 341 337 strip 0;
#X obj 35 128 list split 1;
#X obj 35 81 until;
#X obj 35 103 list append;
#X obj 142 122 bang;
#X obj 15 14 inlet;
#X obj 160 175 t a;
#X obj 67 175 list prepend;
#X obj 15 45 t b b a b;
#X obj 15 210 list append;
#X obj 35 151 sel 0;
#X obj 195 122 b;
#X obj 15 233 outlet;
#X connect 0 0 9 0;
#X connect 0 1 2 1;
#X connect 0 2 3 0;
#X connect 1 0 2 0;
#X connect 2 0 0 0;
#X connect 3 0 1 1;
#X connect 4 0 7 0;
#X connect 5 0 6 1;
#X connect 6 0 5 0;
#X connect 6 0 8 1;
#X connect 7 0 8 0;
#X connect 7 1 1 0;
#X connect 7 2 2 1;
#X connect 7 3 10 0;
#X connect 8 0 11 0;
#X connect 9 1 6 0;
#X connect 10 0 6 1;
#X connect 10 0 8 1;
#X restore 15 135 pd strip 0;
#X obj 47 230 mod 4;
#X obj 47 251 sel 0 1 2 3;
#X msg 47 331 0 0 0 0;
#X msg 65 311 0 0 0;
#X msg 84 292 0 0;
#X msg 102 272 0;
#X obj 15 378 list append;
#X obj 15 428 list append;
#X obj 15 180 t a a;
#X obj 47 208 list length;
#X obj 15 9 inlet;
#X text 168 67 find start of type tag: 44 = \,;
#X text 101 135 strip any trailing zeros from OSC adress pattern;
#X text 135 307 align OSC address to a multiple of 4 bytes;
#X text 113 430 join OSC address and rest of OSC packet;
#X obj 15 452 outlet;
#X text 113 96 split OSC address pattern from rest of OSC packet;
#X connect 0 0 2 1;
#X connect 1 0 2 0;
#X connect 1 1 0 0;
#X connect 2 0 3 0;
#X connect 2 1 11 1;
#X connect 3 0 12 0;
#X connect 4 0 5 0;
#X connect 5 0 6 0;
#X connect 5 1 7 0;
#X connect 5 2 8 0;
#X connect 5 3 9 0;
#X connect 6 0 10 1;
#X connect 7 0 10 1;
#X connect 8 0 10 1;
#X connect 9 0 10 1;
#X connect 10 0 11 0;
#X connect 11 0 19 0;
#X connect 12 0 10 0;
#X connect 12 1 13 0;
#X connect 13 0 4 0;
#X connect 14 0 1 0;
#X restore 487 252 pd realign;
#X obj 487 230 r to.realign;
#X obj 487 273 s from.realign;
#X text 175 123 we only need to check for this sequence: 47 108 47
;
#X text 173 145 108 = 'l';
#X obj 22 152 route 108;
#X connect 0 0 26 0;
#X connect 1 0 2 0;
#X connect 2 0 9 0;
#X connect 2 6 11 1;
#X connect 2 6 15 1;
#X connect 3 0 6 0;
#X connect 3 1 4 0;
#X connect 5 0 6 1;
#X connect 6 0 8 0;
#X connect 9 0 0 0;
#X connect 10 0 11 0;
#X connect 11 0 12 0;
#X connect 12 1 13 0;
#X connect 13 1 3 0;
#X connect 15 0 17 0;
#X connect 16 0 15 0;
#X connect 21 0 23 0;
#X connect 22 0 21 0;
#X connect 26 0 10 0;
#X connect 26 1 16 0;
#X restore 13 131 pd forward_to_localhost;
#X obj 13 400 s NETPD;
#X obj 13 358 list prepend from;
#X obj 13 378 list trim;
#X obj 13 8 r NETPD;
#X msg 222 262 connection \$1;
#X obj 222 282 s NETPD;
#X obj 13 31 list trim;
#X obj 13 56 route to tcpclient;
#X obj 171 281 slipdec;
#X obj 171 153 slipenc;
#X connect 0 0 14 0;
#X connect 0 2 10 0;
#X connect 1 0 7 0;
#X connect 2 0 5 0;
#X connect 3 0 4 0;
#X connect 4 0 0 0;
#X connect 5 0 1 0;
#X connect 5 1 15 0;
#X connect 7 0 8 0;
#X connect 8 0 6 0;
#X connect 9 0 12 0;
#X connect 10 0 11 0;
#X connect 12 0 13 0;
#X connect 13 0 2 0;
#X connect 13 1 0 0;
#X connect 14 0 1 0;
#X connect 15 0 3 0;
#X restore 18 -1 pd CLIENT;
#N canvas 518 476 616 160 keep_alive 0;
#X obj 22 68 metro 60000;
#X text 142 70 in order to keep the tcp connection alive \, we send
a dummy message every 60;
#X obj 22 113 s NETPD;
#X obj 22 24 r NETPD;
#X obj 22 44 route connection;
#X msg 22 90 to /s/dummy;
#X connect 0 0 5 0;
#X connect 3 0 4 0;
#X connect 4 0 0 0;
#X connect 5 0 2 0;
#X restore 15 126 pd keep_alive;
#N canvas 570 338 227 202 send_messages 0;
#X obj 6 5 r \$0-inputbox;
#X obj 98 104 r netpd-socket;
#X obj 98 64 r netpd-name;
#N canvas 244 610 140 169 cut_empty 0;
#X obj 6 7 inlet;
#X obj 6 142 outlet;
#X obj 6 75 sel _;
#X obj 6 100 b;
#X obj 6 121 list append;
#X obj 6 30 t a a;
#X obj 6 52 makefilename %s_;
#X connect 0 0 5 0;
#X connect 2 1 3 0;
#X connect 3 0 4 0;
#X connect 4 0 1 0;
#X connect 5 0 6 0;
#X connect 5 1 4 1;
#X connect 6 0 2 0;
#X restore 6 27 pd cut_empty;
#X obj 6 85 list prepend;
#X obj 6 124 list append;
#X obj 6 145 list prepend to /b/chat/msg;
#X obj 6 167 s NETPD;
#X connect 0 0 3 0;
#X connect 1 0 5 1;
#X connect 2 0 4 1;
#X connect 3 0 4 0;
#X connect 4 0 5 0;
#X connect 5 0 6 0;
#X connect 6 0 7 0;
#X restore 15 147 pd send_messages;
#N canvas 610 190 252 288 say_hello 0;
#X obj 97 109 r netpd-welcome;
#X obj 16 134 list prepend;
#X obj 16 183 list prepend;
#X obj 97 160 r netpd-name;
#X obj 16 233 list prepend to /b/chat/msg;
#X obj 16 254 s NETPD;
#X obj 16 12 r NETPD;
#X obj 16 32 route from;
#X obj 16 54 routeOSC /server;
#X obj 16 75 route /socket;
#X connect 0 0 1 1;
#X connect 1 0 2 0;
#X connect 2 0 4 0;
#X connect 3 0 2 1;
#X connect 4 0 5 0;
#X connect 6 0 7 0;
#X connect 7 0 8 0;
#X connect 8 0 9 0;
#X connect 9 0 1 0;
#X restore 15 168 pd say_hello;
#N canvas 674 203 182 157 socket_request 0;
#X obj 6 22 r NETPD;
#X obj 6 43 route connection;
#X obj 6 64 sel 1;
#X msg 6 110 to /s/server/socket;
#X obj 6 131 s NETPD;
#X obj 6 87 del 100;
#X connect 0 0 1 0;
#X connect 1 0 2 0;
#X connect 2 0 5 0;
#X connect 3 0 4 0;
#X connect 5 0 3 0;
#X restore 15 188 pd socket_request;
#N canvas 550 108 363 583 list 0;
#X text 6 7 send list request;
#X obj 8 31 r \$0-listrequest;
#X msg 8 102 to /b/chat/listrequest \$1;
#X obj 8 80 f;
#X obj 26 57 r netpd-socket;
#X obj 8 125 s NETPD;
#X obj 89 380 r netpd-socket;
#X obj 203 368 s ch.creator_statuss;
#X obj 204 388 r ch.creator_statusr;
#X obj 141 320 t b b;
#X obj 67 443 symbol;
#X msg 173 341 symbol;
#X obj 67 463 pack s s;
#X obj 39 345 r netpd-name;
#X obj 12 507 pack f s s f;
#X obj 12 291 t a b b;
#X msg 105 415 symbol _on_socket:_\$1;
#X msg 66 484 symbol \$1_\$2;
#X text 8 180 send list response;
#X obj 12 204 r NETPD;
#X obj 12 225 route from;
#X obj 12 246 routeOSC /chat;
#X obj 12 266 routeOSC /listrequest;
#X obj 12 550 s NETPD;
#X msg 12 528 to /\$1/chat/msg \$2 \$3 \$4;
#X connect 1 0 3 0;
#X connect 2 0 5 0;
#X connect 3 0 2 0;
#X connect 4 0 3 1;
#X connect 6 0 14 3;
#X connect 6 0 16 0;
#X connect 8 0 12 1;
#X connect 9 0 7 0;
#X connect 9 1 11 0;
#X connect 10 0 12 0;
#X connect 11 0 12 1;
#X connect 12 0 17 0;
#X connect 13 0 14 1;
#X connect 14 0 24 0;
#X connect 15 0 14 0;
#X connect 15 1 10 0;
#X connect 15 2 9 0;
#X connect 16 0 10 1;
#X connect 17 0 14 2;
#X connect 19 0 20 0;
#X connect 20 0 21 0;
#X connect 21 0 22 0;
#X connect 22 0 15 0;
#X connect 24 0 23 0;
#X restore 15 208 pd list;
#N canvas 663 396 181 212 print_messages 0;
#X obj 10 15 r NETPD;
#X obj 10 36 route from;
#X obj 10 58 routeOSC /chat;
#X obj 10 79 routeOSC /msg;
#X msg 10 123 \$1: \$2;
#X obj 10 145 print CHAT;
#X obj 10 101 list;
#X connect 0 0 1 0;
#X connect 1 0 2 0;
#X connect 2 0 3 0;
#X connect 3 0 6 0;
#X connect 4 0 5 0;
#X connect 6 0 4 0;
#X restore 15 228 pd print_messages;
#N canvas 149 357 346 197 bell&click 0;
#N canvas 416 337 436 240 click 0;
#X obj 10 17 inlet;
#X obj 10 40 bang;
#X obj 10 137 line~;
#X obj 10 79 t b b;
#X obj 10 166 *~;
#X obj 10 201 dac~;
#X obj 145 120 noise~;
#X msg 10 105 0 10;
#X obj 145 141 hip~ 10000;
#X obj 228 144 del 10;
#X obj 228 121 t b b;
#X obj 253 172 1;
#X obj 228 171 0;
#X obj 228 192 switch~;
#X obj 228 98 spigot;
#X obj 259 34 r \$0-muteclick;
#X obj 259 76 abs;
#X obj 259 54 - 1;
#X obj 370 34 loadbang;
#X obj 370 56 1;
#X msg 48 105 0.03;
#X connect 0 0 1 0;
#X connect 1 0 3 0;
#X connect 1 0 14 0;
#X connect 2 0 4 0;
#X connect 3 0 7 0;
#X connect 3 1 20 0;
#X connect 4 0 5 0;
#X connect 4 0 5 1;
#X connect 6 0 8 0;
#X connect 7 0 2 0;
#X connect 8 0 4 1;
#X connect 9 0 12 0;
#X connect 10 0 9 0;
#X connect 10 1 11 0;
#X connect 11 0 13 0;
#X connect 12 0 13 0;
#X connect 14 0 10 0;
#X connect 15 0 17 0;
#X connect 16 0 14 1;
#X connect 17 0 16 0;
#X connect 18 0 19 0;
#X connect 19 0 14 1;
#X connect 20 0 2 0;
#X restore 16 142 pd click;
#X obj 16 30 r NETPD;
#X obj 16 52 route from;
#X obj 16 77 routeOSC /chat;
#X obj 16 99 routeOSC /msg;
#X obj 16 121 b;
#N canvas 69 107 485 258 bell 0;
#X obj 12 11 inlet;
#X obj 12 34 bang;
#X obj 12 190 dac~;
#X obj 230 92 spigot;
#X obj 261 28 r \$0-muteclick;
#X obj 261 70 abs;
#X obj 261 48 - 1;
#X obj 354 29 loadbang;
#X obj 354 51 1;
#X obj 12 135 line~;
#X obj 12 77 t b b;
#X msg 12 103 0 200;
#X obj 12 164 *~;
#X obj 86 133 osc~ 1000;
#X obj 152 136 osc~ 1500;
#X obj 230 118 t b b;
#X obj 255 169 1;
#X obj 230 168 0;
#X obj 230 189 switch~;
#X obj 230 141 del 200;
#X msg 51 103 0.01;
#X connect 0 0 1 0;
#X connect 1 0 3 0;
#X connect 1 0 10 0;
#X connect 3 0 15 0;
#X connect 4 0 6 0;
#X connect 5 0 3 1;
#X connect 6 0 5 0;
#X connect 7 0 8 0;
#X connect 8 0 3 1;
#X connect 9 0 12 0;
#X connect 10 0 11 0;
#X connect 10 1 20 0;
#X connect 11 0 9 0;
#X connect 12 0 2 0;
#X connect 12 0 2 1;
#X connect 13 0 12 1;
#X connect 14 0 12 1;
#X connect 15 0 19 0;
#X connect 15 1 16 0;
#X connect 16 0 18 0;
#X connect 17 0 18 0;
#X connect 19 0 17 0;
#X connect 20 0 9 0;
#X restore 158 146 pd bell;
#X obj 158 32 r NETPD;
#X obj 158 54 route from;
#X obj 158 79 routeOSC /server;
#X obj 158 101 routeOSC /num_of_clients;
#X obj 158 123 b;
#X text 16 8 click;
#X text 157 10 bell;
#X connect 1 0 2 0;
#X connect 2 0 3 0;
#X connect 3 0 4 0;
#X connect 4 0 5 0;
#X connect 5 0 0 0;
#X connect 7 0 8 0;
#X connect 8 0 9 0;
#X connect 9 0 10 0;
#X connect 10 0 11 0;
#X connect 11 0 6 0;
#X restore 15 249 pd bell&click;
#X restore 9 79 pd chat;
#N canvas 470 372 949 249 netpd_related_programs 0;
#X obj 482 15 r \$0-creator;
#N canvas 475 643 226 70 \$0.creator.container 0;
#X restore 482 210 pd \$0.creator.container;
#X obj 482 40 sel 0 1;
#X obj 505 61 \$0;
#X obj 482 154 \$0;
#X msg 482 175 \; pd-\$1.creator.container clear;
#X obj 8 32 sel 0 1;
#X obj 31 53 \$0;
#X obj 8 146 \$0;
#X obj 8 7 r \$0-logview;
#N canvas 475 643 224 68 \$0.logview.container 0;
#X restore 8 202 pd \$0.logview.container;
#X msg 8 167 \; pd-\$1.logview.container clear;
#X msg 31 73 \; pd-\$1.logview.container obj 20 20 _logview \; pd-_logview.pd
vis 0 \; pd-logview vis 1 \; pd-_logview.pd loadbang \;;
#X msg 505 82 \; pd-\$1.creator.container obj 20 20 _creator \; pd-_creator.pd
vis 0 \; pd-creator vis 1 \; pd-_creator.pd loadbang \;;
#X connect 0 0 2 0;
#X connect 2 0 4 0;
#X connect 2 1 3 0;
#X connect 3 0 13 0;
#X connect 4 0 5 0;
#X connect 6 0 8 0;
#X connect 6 1 7 0;
#X connect 7 0 12 0;
#X connect 8 0 11 0;
#X connect 9 0 6 0;
#X restore 8 58 pd netpd_related_programs;
#X obj 14 135 s \$0-toall;
#X msg 14 113 label empty;
#X msg 9 443 \; pd-_chat.pd loadbang;
#N canvas 1 328 432 473 netpd-settings 0;
#X symbolatom 103 15 10 0 0 0 - set.netpd-name netpd-name-s;
#X symbolatom 103 36 40 0 0 0 - set.netpd-welcome netpd-welcome-s;
#X symbolatom 103 56 40 0 0 0 - set.netpd-domain netpd-domain-s;
#X floatatom 103 76 6 0 0 0 - set.netpd-port netpd-port-s;
#X text 59 14 name:;
#X text 59 74 port:;
#X text 24 55 IP/domain:;
#X obj 7 167 cnv 15 141 34 empty empty empty 20 12 0 14 -1 -66577 0
;
#X obj 8 168 cnv 15 139 32 empty empty empty 20 12 0 14 -262144 -66577
0;
#X obj 44 169 hsl 100 10 0 255 0 0 \$0-red-s \$0-red-r empty -2 -6
0 8 -258699 -1 -1 0 0;
#X obj 44 179 hsl 100 10 0 255 0 0 \$0-grn-s \$0-grn-r empty -2 -6
0 8 -24198 -1 -1 0 0;
#X obj 44 189 hsl 100 10 0 255 0 0 \$0-blu-s \$0-blu-r empty -2 -6
0 8 -62784 -1 -1 0 0;
#X obj 9 169 cnv 15 30 30 empty empty empty 20 12 0 14 -1 -66577 0
;
#X obj 10 170 cnv 15 28 28 empty \$0-preview empty 20 12 0 14 -1 -1
0;
#X text 4 114 ____________________________________________________________
;
#X text 5 416 ____________________________________________________________
;
#X obj 185 170 nbx 2 16 3 20 0 0 \$0-fontsize \$0-blid empty 0 -6 0
12 -262144 -1 -1 3 256;
#X obj 225 170 vradio 11 1 0 3 \$0-fonttype \$0-blib empty 0 -6 0 8
-262144 -1 -1 0;
#X text 238 167 courier;
#X text 239 178 helvetica;
#X text 238 190 times;
#X text 184 184 size;
#X obj 317 178 cnv 15 100 15 empty \$0-testtext testtext 0 12 0 12
-262144 -66577 0;
#X text 24 36 say hello:;
#X obj 165 128 cnv 1 1 300 empty empty empty 20 12 0 14 -1 -66577 0
;
#X obj 166 128 cnv 1 1 346 empty empty empty 20 12 0 14 -262144 -66577
0;
#X obj 47 138 cnv 15 15 15 empty empty color 0 9 1 14 -262144 -66577
0;
#X obj 244 139 cnv 15 15 15 empty empty font 0 9 1 14 -262144 -66577
0;
#X text 5 197 ____________________________________________________________
;
#X text 341 225 C;
#X text 341 248 H;
#X text 341 274 A;
#X text 341 300 T;
#X text 5 313 ____________________________________________________________
;
#X text 344 336 C;
#X text 345 347 R;
#X text 344 358 E;
#X text 344 370 A;
#X text 344 381 T;
#X text 344 392 O;
#X text 344 402 R;
#X floatatom 103 97 4 0 0 0 - set.netpd-msg-interval netpd-msg-interval-s
;
#X text 3 97 msg-interval:;
#X text 135 97 /100 ms;
#X obj 11 223 hsl 50 15 0 127 0 0 ch.font.clr ch.font.clr-r label 55
8 1 11 -1 -1 -1 0 1;
#X obj 11 242 hsl 50 15 0 127 0 0 ch.background.clr ch.background.clr-r
background 55 8 1 11 -241213 -241213 -1 0 1;
#X obj 11 262 hsl 50 15 0 127 0 0 ch.active.clr ch.active.clr-r active
55 8 1 11 -187246 -187246 -1 0 1;
#X obj 11 281 hsl 50 15 0 127 0 0 ch.border.clr ch.border.clr-r border
55 8 1 11 -1 -1 -1 0 1;
#X obj 185 223 hsl 80 20 0 127 0 0 ch.title.fnt ch.title.fnt-r title
4 12 1 12 -233017 -233017 -1 0 1;
#X obj 185 250 hsl 80 20 0 127 0 0 ch.talk.fnt ch.talk.fnt-r talk 4
13 0 12 -233017 -233017 -1 0 1;
#X obj 185 276 hsl 80 20 0 127 0 0 ch.buttons.fnt ch.buttons.fnt-r
buttons 4 13 1 10 -233017 -233017 -1 0 1;
#X obj 11 300 hsl 50 15 0 127 0 0 ch.inputbox.clr ch.inputbox.clr-r
inputbox 55 8 1 11 -241213 -241213 -1 0 1;
#X obj 11 338 hsl 50 15 0 127 0 0 cr.background1.clr cr.background1.clr-r
background1 55 8 1 11 -199731 -199731 -1 0 1;
#X obj 11 357 hsl 50 15 0 127 0 0 cr.background2.clr cr.background2.clr-r
backgruond2 55 8 1 11 -224635 -224635 -1 0 1;
#X obj 185 337 hsl 80 20 0 127 0 0 cr.title.fnt cr.title.fnt-r title
4 12 1 12 -233017 -233017 -1 0 1;
#X obj 185 364 hsl 80 20 0 127 0 0 cr.label.fnt cr.label.fnt-r label
4 13 1 10 -233017 -233017 -1 0 1;
#X obj 185 390 hsl 80 20 0 127 0 0 cr.display.fnt cr.display.fnt-r
display 4 13 0 12 -233017 -233017 -1 0 1;
#X obj 11 376 hsl 50 15 0 127 0 0 cr.label.clr cr.label.clr-r label
55 8 1 11 -1 -1 -1 0 1;
#X obj 11 395 hsl 50 15 0 127 0 0 cr.display.clr cr.display.clr-r display
55 8 1 11 -258049 -258049 -1 0 1;
#X obj 11 446 hsl 75 17 0 127 0 0 \$0-closesavesettings \$0-bli save&close
2 9 1 11 -233017 -233017 -1 0 1;
#X restore 8 37 pd netpd-settings;
#N canvas 450 131 434 571 settings-code 0;
#N canvas 433 86 245 246 getcolor 0;
#X obj 75 54 * -256;
#X obj 10 54 * -65536;
#X obj 140 55 * -1;
#X obj 10 12 r \$0-red-s;
#X obj 75 12 r \$0-grn-s;
#X obj 140 12 r \$0-blu-s;
#X obj 10 33 int;
#X obj 75 32 int;
#X obj 140 33 int;
#X obj 75 106 +;
#X obj 121 79 t b f;
#X obj 75 150 +;
#X obj 75 128 t b f;
#X obj 75 194 outlet;
#N canvas 1100 120 147 143 view-color 0;
#X obj 12 88 s \$0-preview;
#X msg 12 67 color \$1 -1;
#X obj 47 19 loadbang;
#X obj 47 41 -1;
#X obj 12 19 inlet;
#X connect 1 0 0 0;
#X connect 2 0 3 0;
#X connect 3 0 1 0;
#X connect 4 0 1 0;
#X restore 120 194 pd view-color;
#X obj 75 171 - 1;
#X connect 0 0 9 0;
#X connect 1 0 11 0;
#X connect 2 0 10 0;
#X connect 3 0 6 0;
#X connect 4 0 7 0;
#X connect 5 0 8 0;
#X connect 6 0 1 0;
#X connect 7 0 0 0;
#X connect 8 0 2 0;
#X connect 9 0 12 0;
#X connect 10 0 9 0;
#X connect 10 1 9 1;
#X connect 11 0 15 0;
#X connect 12 0 11 0;
#X connect 12 1 11 1;
#X connect 15 0 13 0;
#X connect 15 0 14 0;
#X restore 13 -7 pd getcolor;
#N canvas 866 119 243 199 view-font 0;
#X obj 17 10 r \$0-fonttype;
#X obj 109 13 r \$0-fontsize;
#X obj 69 117 s \$0-testtext;
#X obj 17 66 pack;
#X obj 37 38 t b f;
#X msg 69 94 label_font \$1 \$2;
#X obj 17 150 outlet;
#X text 59 150 [fonttype] [fontsize];
#X connect 0 0 3 0;
#X connect 1 0 4 0;
#X connect 3 0 5 0;
#X connect 3 0 6 0;
#X connect 4 0 3 0;
#X connect 4 1 3 1;
#X connect 5 0 2 0;
#X restore 99 -5 pd view-font;
#X obj 13 16 s \$0.color;
#X obj 99 16 s \$0.font;
#X text 20 72 colors;
#X text 187 71 font;
#N canvas 606 472 334 202 netpd-name 0;
#X obj 163 71 r netpd-settings-save-tr;
#X obj 163 137 s netpd-settings-save;
#X obj 10 63 symbol;
#X obj 163 93 symbol;
#X obj 143 36 route netpd-name;
#X msg 163 115 netpd-name \$1;
#X obj 10 160 s set.netpd-name;
#X msg 10 137 set \$1;
#X obj 144 14 r netpd-settings-restore;
#X obj 10 12 r netpd-name-s;
#X connect 0 0 3 0;
#X connect 2 0 7 0;
#X connect 2 0 3 1;
#X connect 3 0 5 0;
#X connect 4 0 2 0;
#X connect 5 0 1 0;
#X connect 7 0 6 0;
#X connect 8 0 4 0;
#X connect 9 0 2 0;
#X restore 14 403 pd netpd-name;
#N canvas 606 472 342 210 netpd-welcome 0;
#X obj 163 71 r netpd-settings-save-tr;
#X obj 163 137 s netpd-settings-save;
#X obj 10 63 symbol;
#X obj 163 93 symbol;
#X msg 10 137 set \$1;
#X obj 10 160 s set.netpd-welcome;
#X obj 143 36 route netpd-welcome;
#X msg 163 115 netpd-welcome \$1;
#X obj 143 14 r netpd-settings-restore;
#X obj 10 12 r netpd-welcome-s;
#X connect 0 0 3 0;
#X connect 2 0 4 0;
#X connect 2 0 3 1;
#X connect 3 0 7 0;
#X connect 4 0 5 0;
#X connect 6 0 2 0;
#X connect 7 0 1 0;
#X connect 8 0 6 0;
#X connect 9 0 2 0;
#X restore 14 422 pd netpd-welcome;
#N canvas 606 472 346 214 netpd-domain 0;
#X obj 163 71 r netpd-settings-save-tr;
#X obj 163 137 s netpd-settings-save;
#X obj 10 63 symbol;
#X obj 163 93 symbol;
#X msg 10 137 set \$1;
#X obj 10 160 s set.netpd-domain;
#X msg 163 115 netpd-domain \$1;
#X obj 143 36 route netpd-domain;
#X obj 143 14 r netpd-settings-restore;
#X obj 10 12 r netpd-domain-s;
#X connect 0 0 3 0;
#X connect 2 0 4 0;
#X connect 2 0 3 1;
#X connect 3 0 6 0;
#X connect 4 0 5 0;
#X connect 6 0 1 0;
#X connect 7 0 2 0;
#X connect 8 0 7 0;
#X connect 9 0 2 0;
#X restore 14 441 pd netpd-domain;
#N canvas 606 472 354 222 netpd-port 0;
#X obj 163 71 r netpd-settings-save-tr;
#X obj 163 137 s netpd-settings-save;
#X msg 10 137 set \$1;
#X obj 143 36 route netpd-port;
#X msg 163 115 netpd-port \$1;
#X obj 10 160 s set.netpd-port;
#X obj 10 63 f;
#X obj 163 93 f;
#X obj 143 14 r netpd-settings-restore;
#X obj 10 12 r netpd-port-s;
#X connect 0 0 7 0;
#X connect 2 0 5 0;
#X connect 3 0 6 0;
#X connect 4 0 1 0;
#X connect 6 0 2 0;
#X connect 6 0 7 1;
#X connect 7 0 4 0;
#X connect 8 0 3 0;
#X connect 9 0 6 0;
#X restore 14 460 pd netpd-port;
#X text 14 381 netpd-settings;
#N canvas 908 397 285 352 save 0;
#X obj 96 80 s netpd-settings-save-tr;
#X obj 96 102 r netpd-settings-save;
#X text 69 144 colors;
#X text 168 143 rest;
#N canvas 466 602 189 221 convert 0;
#X obj 27 6 inlet;
#X obj 27 84 / 65536;
#X obj 27 108 int;
#X obj 27 48 t f f f;
#X obj 81 86 % 65536;
#X obj 81 108 / 256;
#X obj 81 130 int;
#X obj 130 85 % 256;
#X obj 27 196 outlet;
#X obj 81 195 outlet;
#X obj 130 199 outlet;
#X obj 26 28 * -1;
#X connect 0 0 11 0;
#X connect 1 0 2 0;
#X connect 2 0 8 0;
#X connect 3 0 1 0;
#X connect 3 1 4 0;
#X connect 3 2 7 0;
#X connect 4 0 5 0;
#X connect 5 0 6 0;
#X connect 6 0 9 0;
#X connect 7 0 10 0;
#X connect 11 0 3 0;
#X restore 161 213 pd convert;
#X obj 96 171 unpack s f;
#X obj 96 234 pack s f f f;
#X obj 15 10 r \$0-closesavesettings;
#X obj 15 32 t b b b;
#X obj 15 312 textfile;
#X msg 52 79 clear;
#X msg 15 55 write netpd-settings.txt cr;
#X obj 161 193 + 1;
#N canvas 0 0 302 318 separate 0;
#X obj 41 66 t l l;
#X msg 41 91 symbol \$1;
#X obj 64 135 symbol2list;
#X obj 115 85 loadbang;
#X msg 115 108 symbol .;
#X obj 41 115 t b s;
#X obj 41 177 symbol;
#X obj 41 200 sel clr;
#X obj 78 221 b;
#X text 27 236 colors;
#X text 182 242 rest;
#X obj 41 11 inlet;
#X obj 41 285 outlet;
#X obj 183 288 outlet;
#X obj 41 37 list;
#X obj 41 259 list;
#X obj 183 264 list;
#N canvas 0 0 531 405 drip 0;
#X obj 64 206 list split 1;
#X obj 64 123 until;
#X obj 64 181 list append;
#X obj 194 206 bang;
#X text 146 90 First store list \, then start the loop;
#X text 163 118 "until" bangs its output until told to stop by a "bang"
to its right inlet.;
#X text 182 160 Store the remaining list.;
#X text 239 205 third outlet of "split" tells us to stop.;
#X obj 64 243 outlet;
#X obj 64 57 inlet;
#X text 237 44 From list-help.pd;
#X obj 143 243 outlet;
#X obj 64 86 t b a;
#X connect 0 0 8 0;
#X connect 0 1 2 1;
#X connect 0 2 3 0;
#X connect 0 2 11 0;
#X connect 1 0 2 0;
#X connect 2 0 0 0;
#X connect 3 0 1 1;
#X connect 9 0 12 0;
#X connect 12 0 1 0;
#X connect 12 1 2 1;
#X restore 64 156 pd drip;
#X connect 0 0 1 0;
#X connect 0 1 15 1;
#X connect 0 1 16 1;
#X connect 1 0 5 0;
#X connect 2 0 17 0;
#X connect 3 0 4 0;
#X connect 4 0 2 1;
#X connect 5 0 6 0;
#X connect 5 1 2 0;
#X connect 6 0 7 0;
#X connect 7 0 15 0;
#X connect 7 1 8 0;
#X connect 8 0 16 0;
#X connect 11 0 14 0;
#X connect 14 0 0 0;
#X connect 15 0 12 0;
#X connect 16 0 13 0;
#X connect 17 0 6 1;
#X restore 96 124 pd separate;
#X obj 96 263 list prepend add;
#X obj 96 284 list trim;
#X connect 1 0 13 0;
#X connect 4 0 6 1;
#X connect 4 1 6 2;
#X connect 4 2 6 3;
#X connect 5 0 6 0;
#X connect 5 1 12 0;
#X connect 6 0 14 0;
#X connect 7 0 8 0;
#X connect 8 0 11 0;
#X connect 8 1 0 0;
#X connect 8 2 10 0;
#X connect 10 0 9 0;
#X connect 11 0 9 0;
#X connect 12 0 4 0;
#X connect 13 0 5 0;
#X connect 13 1 14 0;
#X connect 14 0 15 0;
#X connect 15 0 9 0;
#X restore 175 19 pd save;
#N canvas 367 66 761 718 load 0;
#X obj 37 193 textfile;
#X msg 69 134 rewind;
#X obj 37 163 until;
#N canvas 0 0 302 318 separate 0;
#X obj 41 66 t l l;
#X msg 41 91 symbol \$1;
#X obj 64 135 symbol2list;
#X obj 115 85 loadbang;
#X msg 115 108 symbol .;
#X obj 41 115 t b s;
#X obj 41 177 symbol;
#X obj 41 200 sel clr;
#X obj 78 221 b;
#X text 27 236 colors;
#X text 182 242 rest;
#X obj 41 11 inlet;
#X obj 41 285 outlet;
#X obj 183 288 outlet;
#X obj 41 37 list;
#X obj 41 259 list;
#X obj 183 264 list;
#N canvas 0 0 531 405 drip 0;
#X obj 64 206 list split 1;
#X obj 64 123 until;
#X obj 64 181 list append;
#X obj 194 206 bang;
#X text 146 90 First store list \, then start the loop;
#X text 163 118 "until" bangs its output until told to stop by a "bang"
to its right inlet.;
#X text 182 160 Store the remaining list.;
#X text 239 205 third outlet of "split" tells us to stop.;
#X obj 64 243 outlet;
#X obj 64 57 inlet;
#X text 237 44 From list-help.pd;
#X obj 143 243 outlet;
#X obj 64 86 t b a;
#X connect 0 0 8 0;
#X connect 0 1 2 1;
#X connect 0 2 3 0;
#X connect 0 2 11 0;
#X connect 1 0 2 0;
#X connect 2 0 0 0;
#X connect 3 0 1 1;
#X connect 9 0 12 0;
#X connect 12 0 1 0;
#X connect 12 1 2 1;
#X restore 64 156 pd drip;
#X connect 0 0 1 0;
#X connect 0 1 15 1;
#X connect 0 1 16 1;
#X connect 1 0 5 0;
#X connect 2 0 17 0;
#X connect 3 0 4 0;
#X connect 4 0 2 1;
#X connect 5 0 6 0;
#X connect 5 1 2 0;
#X connect 6 0 7 0;
#X connect 7 0 15 0;
#X connect 7 1 8 0;
#X connect 8 0 16 0;
#X connect 11 0 14 0;
#X connect 14 0 0 0;
#X connect 15 0 12 0;
#X connect 16 0 13 0;
#X connect 17 0 6 1;
#X restore 37 250 pd separate;
#X obj 37 286 unpack s f f f;
#N canvas 810 442 192 196 backconvert 0;
#X obj 78 40 * -256;
#X obj 13 40 * -65536;
#X obj 143 41 * -1;
#X obj 13 19 int;
#X obj 78 18 int;
#X obj 143 19 int;
#X obj 78 92 +;
#X obj 65 117 +;
#X obj 65 161 outlet;
#X obj 13 -1 inlet;
#X obj 78 -3 inlet;
#X obj 143 -1 inlet;
#X connect 0 0 6 0;
#X connect 1 0 7 0;
#X connect 2 0 6 1;
#X connect 3 0 1 0;
#X connect 4 0 0 0;
#X connect 5 0 2 0;
#X connect 6 0 7 1;
#X connect 7 0 8 0;
#X connect 9 0 3 0;
#X connect 10 0 4 0;
#X connect 11 0 5 0;
#X restore 63 314 pd backconvert;
#X obj 37 359 pack s f;
#X text 42 268 colors;
#X text 102 268 rest;
#X obj 37 383 route list;
#X obj 37 408 s netpd-settings-restore;
#X obj 243 284 sel 1;
#X text 218 187 in case there is no;
#X text 217 201 netpd-settings.txt;
#X obj 256 220 b;
#X obj 256 240 0;
#X msg 136 163 clear;
#X obj 243 261 1;
#X obj 262 527 textfile;
#X msg 261 328 write netpd-settings.txt cr;
#X msg 86 112 read netpd-settings.txt cr;
#X obj 243 306 t b b b;
#X obj 244 550 s \$0.loadsettings-again;
#X obj 69 46 r \$0.loadsettings-again;
#X obj 88 338 - 1;
#X msg 23 578 cr.display.fnt 0 11 \, cr.label.fnt 1 9 \, cr.title.fnt
1 11 \, cr.display.clr 255 0 0 \, cr.label.clr 0 0 0 \, cr.background2.clr
216 213 234 \, cr.background1.clr 193 195 200 \, ch.font.clr 0 0 0
\, ch.inputbox.clr 234 226 242 \, ch.buttons.fnt 1 10 \, ch.talk.fnt
0 11 \, ch.title.fnt 1 11 \, ch.border.clr 0 0 0 \, ch.active.clr 182
180 182 \, ch.background.clr 234 226 242 \, netpd-msg-interval 100
\, netpd-port 3025 \, netpd-domain netpd.org \, netpd-welcome <<<<<<<<<<<<<connected<<<<<<<<<<<<<<<<<
\, netpd-name name;
#X obj 25 435 s \$0-gui.update;
#X obj 24 122 t b b;
#X obj 34 74 t b b b b b;
#X obj 23 553 r \$0-get.defaultsettings;
#X obj 23 704 s \$0-defaultsettings;
#X obj 297 399 s \$0-get.defaultsettings;
#X obj 297 418 r \$0-defaultsettings;
#X obj 281 444 spigot;
#X obj 281 352 t b b b;
#X obj 281 374 0;
#X obj 325 375 1;
#X obj 281 464 list;
#X obj 281 484 list prepend add;
#X obj 281 504 list trim;
#X obj 413 253 s \$0-get.defaultsettings;
#X obj 413 272 r \$0-defaultsettings;
#X obj 397 298 spigot;
#X obj 397 206 t b b b;
#X obj 397 228 0;
#X obj 441 229 1;
#X obj 34 25 r \$0.loadbang.1;
#X connect 0 0 3 0;
#X connect 0 0 14 0;
#X connect 0 1 2 1;
#X connect 1 0 0 0;
#X connect 2 0 0 0;
#X connect 3 0 4 0;
#X connect 3 1 9 0;
#X connect 4 0 6 0;
#X connect 4 1 5 0;
#X connect 4 2 5 1;
#X connect 4 3 5 2;
#X connect 5 0 24 0;
#X connect 6 0 9 0;
#X connect 9 0 10 0;
#X connect 11 0 21 0;
#X connect 14 0 15 0;
#X connect 15 0 17 1;
#X connect 16 0 0 0;
#X connect 17 0 11 0;
#X connect 19 0 18 0;
#X connect 20 0 0 0;
#X connect 21 0 22 0;
#X connect 21 1 19 0;
#X connect 21 2 34 0;
#X connect 23 0 28 0;
#X connect 24 0 6 1;
#X connect 25 0 30 0;
#X connect 27 0 26 0;
#X connect 27 1 17 0;
#X connect 28 0 27 0;
#X connect 28 1 2 0;
#X connect 28 2 1 0;
#X connect 28 3 20 0;
#X connect 28 4 43 0;
#X connect 29 0 25 0;
#X connect 32 0 33 0;
#X connect 33 0 37 0;
#X connect 34 0 35 0;
#X connect 34 1 31 0;
#X connect 34 2 36 0;
#X connect 35 0 33 1;
#X connect 36 0 33 1;
#X connect 37 0 38 0;
#X connect 38 0 39 0;
#X connect 39 0 18 0;
#X connect 41 0 42 0;
#X connect 42 0 3 0;
#X connect 43 0 44 0;
#X connect 43 1 40 0;
#X connect 43 2 45 0;
#X connect 44 0 42 1;
#X connect 45 0 42 1;
#X connect 46 0 28 0;
#X restore 229 19 pd load;
#N canvas 664 289 310 154 show-settings 0;
#X obj 8 18 r \$0-show-settings;
#X obj 142 20 r \$0-closesavesettings;
#X msg 8 90 \; pd-netpd-settings vis \$1;
#X obj 8 40 1;
#X obj 142 67 0;
#X obj 142 43 del 10;
#X connect 0 0 3 0;
#X connect 1 0 5 0;
#X connect 3 0 2 0;
#X connect 4 0 2 0;
#X connect 5 0 4 0;
#X restore 290 4 pd show-settings;
#N canvas 606 472 377 205 netpd-msg-interval 0;
#X obj 191 76 r netpd-settings-save-tr;
#X obj 191 142 s netpd-settings-save;
#X msg 10 137 set \$1;
#X obj 199 13 r netpd-settings-restore;
#X obj 10 63 f;
#X obj 10 12 r netpd-msg-interval-s;
#X obj 199 35 route netpd-msg-interval;
#X msg 191 120 netpd-msg-interval \$1;
#X obj 191 98 f;
#X obj 10 160 s set.netpd-msg-interval;
#X connect 0 0 8 0;
#X connect 2 0 9 0;
#X connect 3 0 6 0;
#X connect 4 0 2 0;
#X connect 4 0 8 1;
#X connect 5 0 4 0;
#X connect 6 0 4 0;
#X connect 7 0 1 0;
#X connect 8 0 7 0;
#X restore 14 479 pd netpd-msg-interval;
#X text 340 131 C H A T;
#X text 319 281 C R E A T O R;
#N canvas 491 415 355 206 ch.background.clr 0;
#X obj 57 9 r \$0.color;
#X obj 41 79 f;
#X obj 174 111 f;
#X obj 174 87 r netpd-settings-save-tr;
#X obj 174 153 s netpd-settings-save;
#X obj 170 12 r netpd-settings-restore;
#X obj 170 34 route ch.background.clr;
#X msg 174 131 ch.background.clr \$1;
#X obj 21 152 s ch.background.clr-r;
#X msg 21 129 color \$1 \$1 -1;
#X obj 11 176 s \$0-gui.update;
#X obj 11 32 r ch.background.clr;
#X obj 11 54 t b b;
#X connect 0 0 1 1;
#X connect 1 0 2 1;
#X connect 1 0 9 0;
#X connect 2 0 7 0;
#X connect 3 0 2 0;
#X connect 5 0 6 0;
#X connect 6 0 1 0;
#X connect 7 0 4 0;
#X connect 9 0 8 0;
#X connect 11 0 12 0;
#X connect 12 0 10 0;
#X connect 12 1 1 0;
#X restore 15 110 pd ch.background.clr;
#N canvas 491 415 353 204 ch.active.clr 0;
#X obj 57 8 r \$0.color;
#X obj 41 78 f;
#X obj 171 111 f;
#X obj 171 87 r netpd-settings-save-tr;
#X obj 171 153 s netpd-settings-save;
#X obj 170 12 r netpd-settings-restore;
#X obj 11 32 r ch.active.clr;
#X obj 27 133 s ch.active.clr-r;
#X msg 171 131 ch.active.clr \$1;
#X obj 170 34 route ch.active.clr;
#X msg 27 110 color \$1 \$1 -1;
#X obj 11 156 s \$0-gui.update;
#X obj 11 54 t b b;
#X connect 0 0 1 1;
#X connect 1 0 2 1;
#X connect 1 0 10 0;
#X connect 2 0 8 0;
#X connect 3 0 2 0;
#X connect 5 0 9 0;
#X connect 6 0 12 0;
#X connect 8 0 4 0;
#X connect 9 0 1 0;
#X connect 10 0 7 0;
#X connect 12 0 11 0;
#X connect 12 1 1 0;
#X restore 15 130 pd ch.active.clr;
#N canvas 491 415 355 206 ch.border.clr 0;
#X obj 57 9 r \$0.color;
#X obj 41 78 f;
#X obj 171 111 f;
#X obj 171 87 r netpd-settings-save-tr;
#X obj 171 153 s netpd-settings-save;
#X obj 170 12 r netpd-settings-restore;
#X obj 26 136 s ch.border.clr-r;
#X obj 11 32 r ch.border.clr;
#X obj 170 34 route ch.border.clr;
#X msg 171 131 ch.border.clr \$1;
#X msg 26 113 color \$1 \$1 -1;
#X obj 11 157 s \$0-gui.update;
#X obj 11 54 t b b;
#X connect 0 0 1 1;
#X connect 1 0 2 1;
#X connect 1 0 10 0;
#X connect 2 0 9 0;
#X connect 3 0 2 0;
#X connect 5 0 8 0;
#X connect 7 0 12 0;
#X connect 8 0 1 0;
#X connect 9 0 4 0;
#X connect 10 0 6 0;
#X connect 12 0 11 0;
#X connect 12 1 1 0;
#X restore 15 150 pd ch.border.clr;
#N canvas 491 415 375 201 ch.title.fnt 0;
#X obj 174 86 r netpd-settings-save-tr;
#X obj 174 152 s netpd-settings-save;
#X obj 63 11 r \$0.font;
#X obj 175 16 r netpd-settings-restore;
#X obj 40 79 list;
#X obj 174 108 list;
#X obj 10 32 r ch.title.fnt;
#X obj 40 145 s ch.title.fnt-r;
#X obj 175 38 route ch.title.fnt;
#X msg 174 130 ch.title.fnt \$1 \$2;
#X msg 40 123 label_font \$1 \$2;
#X obj 10 167 s \$0-gui.update;
#X obj 10 55 t b b;
#X connect 0 0 5 0;
#X connect 2 0 4 1;
#X connect 3 0 8 0;
#X connect 4 0 5 1;
#X connect 4 0 10 0;
#X connect 5 0 9 0;
#X connect 6 0 12 0;
#X connect 8 0 4 0;
#X connect 9 0 1 0;
#X connect 10 0 7 0;
#X connect 12 0 11 0;
#X connect 12 1 4 0;
#X restore 181 89 pd ch.title.fnt;
#N canvas 491 415 381 190 ch.talk.fnt 0;
#X obj 174 86 r netpd-settings-save-tr;
#X obj 174 152 s netpd-settings-save;
#X obj 63 10 r \$0.font;
#X obj 175 16 r netpd-settings-restore;
#X obj 40 78 list;
#X obj 174 108 list;
#X msg 40 121 label_font \$1 \$2;
#X obj 10 32 r ch.talk.fnt;
#X obj 40 142 s ch.talk.fnt-r;
#X obj 175 38 route ch.talk.fnt;
#X msg 174 130 ch.talk.fnt \$1 \$2;
#X obj 10 161 s \$0-gui.update;
#X obj 10 55 t b b;
#X connect 0 0 5 0;
#X connect 2 0 4 1;
#X connect 3 0 9 0;
#X connect 4 0 5 1;
#X connect 4 0 6 0;
#X connect 5 0 10 0;
#X connect 6 0 8 0;
#X connect 7 0 12 0;
#X connect 9 0 4 0;
#X connect 10 0 1 0;
#X connect 12 0 11 0;
#X connect 12 1 4 0;
#X restore 181 109 pd ch.talk.fnt;
#N canvas 491 415 373 199 ch.buttons.fnt 0;
#X obj 174 86 r netpd-settings-save-tr;
#X obj 174 152 s netpd-settings-save;
#X obj 62 8 r \$0.font;
#X obj 175 16 r netpd-settings-restore;
#X obj 40 79 list;
#X obj 174 108 list;
#X msg 27 128 label_font \$1 \$2;
#X obj 10 32 r ch.buttons.fnt;
#X obj 27 148 s ch.buttons.fnt-r;
#X obj 175 38 route ch.buttons.fnt;
#X msg 174 130 ch.buttons.fnt \$1 \$2;
#X obj 10 170 s \$0-gui.update;
#X obj 10 55 t b b;
#X connect 0 0 5 0;
#X connect 2 0 4 1;
#X connect 3 0 9 0;
#X connect 4 0 5 1;
#X connect 4 0 6 0;
#X connect 5 0 10 0;
#X connect 6 0 8 0;
#X connect 7 0 12 0;
#X connect 9 0 4 0;
#X connect 10 0 1 0;
#X connect 12 0 11 0;
#X connect 12 1 4 0;
#X restore 181 129 pd ch.buttons.fnt;
#N canvas 491 415 355 206 ch.inputbox.clr 0;
#X obj 57 10 r \$0.color;
#X obj 41 76 f;
#X obj 171 111 f;
#X obj 171 87 r netpd-settings-save-tr;
#X obj 171 153 s netpd-settings-save;
#X obj 170 12 r netpd-settings-restore;
#X msg 27 122 color \$1 \$1 -1;
#X obj 11 171 s \$0-gui.update;
#X obj 11 32 r ch.inputbox.clr;
#X obj 170 34 route ch.inputbox.clr;
#X msg 171 131 ch.inputbox.clr \$1;
#X obj 27 145 s ch.inputbox.clr-r;
#X obj 11 54 t b b;
#X connect 0 0 1 1;
#X connect 1 0 2 1;
#X connect 1 0 6 0;
#X connect 2 0 10 0;
#X connect 3 0 2 0;
#X connect 5 0 9 0;
#X connect 6 0 11 0;
#X connect 8 0 12 0;
#X connect 9 0 1 0;
#X connect 10 0 4 0;
#X connect 12 0 7 0;
#X connect 12 1 1 0;
#X restore 15 170 pd ch.inputbox.clr;
#N canvas 491 415 355 206 ch.font.clr 0;
#X obj 61 10 r \$0.color;
#X obj 45 85 f;
#X obj 171 111 f;
#X obj 171 87 r netpd-settings-save-tr;
#X obj 171 153 s netpd-settings-save;
#X obj 170 12 r netpd-settings-restore;
#X obj 15 32 r ch.font.clr;
#X obj 170 34 route ch.font.clr;
#X msg 171 131 ch.font.clr \$1;
#X obj 45 144 s ch.font.clr-r;
#X msg 45 121 color \$1 \$1 -1;
#X obj 15 171 s \$0-gui.update;
#X obj 15 54 t b b;
#X obj 64 57 r ch.reloadsettings;
#X connect 0 0 1 1;
#X connect 1 0 2 1;
#X connect 1 0 10 0;
#X connect 2 0 8 0;
#X connect 3 0 2 0;
#X connect 5 0 7 0;
#X connect 6 0 12 0;
#X connect 7 0 1 0;
#X connect 8 0 4 0;
#X connect 10 0 9 0;
#X connect 12 0 11 0;
#X connect 12 1 1 0;
#X connect 13 0 1 0;
#X restore 15 90 pd ch.font.clr;
#N canvas 491 415 415 205 cr.background1.clr 0;
#X obj 61 10 r \$0.color;
#X obj 45 85 f;
#X obj 211 118 f;
#X obj 211 96 r netpd-settings-save-tr;
#X obj 211 162 s netpd-settings-save;
#X obj 170 12 r netpd-settings-restore;
#X msg 45 140 color \$1 \$1 -1;
#X obj 15 54 t b b;
#X obj 15 189 s cr.gui.update;
#X obj 15 32 r cr.background1.clr;
#X obj 170 34 route cr.background1.clr;
#X msg 211 140 cr.background1.clr \$1;
#X obj 45 163 s cr.background1.clr-r;
#X obj 97 60 r cr.getsettings;
#X obj 64 114 f;
#X obj 97 83 t b b;
#X connect 0 0 1 1;
#X connect 1 0 2 1;
#X connect 1 0 6 0;
#X connect 1 0 14 1;
#X connect 2 0 11 0;
#X connect 3 0 2 0;
#X connect 5 0 10 0;
#X connect 6 0 12 0;
#X connect 7 0 8 0;
#X connect 7 1 1 0;
#X connect 9 0 7 0;
#X connect 10 0 1 0;
#X connect 11 0 4 0;
#X connect 13 0 15 0;
#X connect 14 0 6 0;
#X connect 15 0 8 0;
#X connect 15 1 14 0;
#X restore 19 233 pd cr.background1.clr;
#N canvas 491 415 420 276 cr.background2.clr 0;
#X obj 61 10 r \$0.color;
#X obj 45 85 f;
#X obj 211 118 f;
#X obj 211 96 r netpd-settings-save-tr;
#X obj 211 162 s netpd-settings-save;
#X obj 170 12 r netpd-settings-restore;
#X msg 45 143 color \$1 \$1 -1;
#X obj 15 54 t b b;
#X obj 15 193 s cr.gui.update;
#X obj 15 32 r cr.background2.clr;
#X obj 45 166 s cr.background2.clr-r;
#X msg 211 140 cr.background2.clr \$1;
#X obj 170 34 route cr.background2.clr;
#X obj 97 60 r cr.getsettings;
#X obj 69 123 f;
#X obj 97 83 t b b;
#X connect 0 0 1 1;
#X connect 1 0 2 1;
#X connect 1 0 6 0;
#X connect 1 0 14 1;
#X connect 2 0 11 0;
#X connect 3 0 2 0;
#X connect 5 0 12 0;
#X connect 6 0 10 0;
#X connect 7 0 8 0;
#X connect 7 1 1 0;
#X connect 9 0 7 0;
#X connect 11 0 4 0;
#X connect 12 0 1 0;
#X connect 13 0 15 0;
#X connect 14 0 6 0;
#X connect 15 0 8 0;
#X connect 15 1 14 0;
#X restore 19 253 pd cr.background2.clr;
#N canvas 491 415 417 207 cr.label.clr 0;
#X obj 61 10 r \$0.color;
#X obj 45 85 f;
#X obj 211 118 f;
#X obj 211 96 r netpd-settings-save-tr;
#X obj 211 162 s netpd-settings-save;
#X obj 170 12 r netpd-settings-restore;
#X msg 45 136 color \$1 \$1 -1;
#X obj 15 54 t b b;
#X obj 15 186 s cr.gui.update;
#X obj 15 32 r cr.label.clr;
#X obj 170 34 route cr.label.clr;
#X obj 45 159 s cr.label.clr-r;
#X msg 211 140 cr.label.clr \$1;
#X obj 97 60 r cr.getsettings;
#X obj 64 114 f;
#X obj 97 83 t b b;
#X connect 0 0 1 1;
#X connect 1 0 2 1;
#X connect 1 0 6 0;
#X connect 1 0 14 1;
#X connect 2 0 12 0;
#X connect 3 0 2 0;
#X connect 5 0 10 0;
#X connect 6 0 11 0;
#X connect 7 0 8 0;
#X connect 7 1 1 0;
#X connect 9 0 7 0;
#X connect 10 0 1 0;
#X connect 12 0 4 0;
#X connect 13 0 15 0;
#X connect 14 0 6 0;
#X connect 15 0 8 0;
#X connect 15 1 14 0;
#X restore 19 273 pd cr.label.clr;
#N canvas 491 415 417 207 cr.display.clr 0;
#X obj 61 10 r \$0.color;
#X obj 45 85 f;
#X obj 211 118 f;
#X obj 211 96 r netpd-settings-save-tr;
#X obj 211 162 s netpd-settings-save;
#X obj 170 12 r netpd-settings-restore;
#X msg 45 138 color \$1 \$1 -1;
#X obj 15 54 t b b;
#X obj 15 188 s cr.gui.update;
#X obj 15 32 r cr.display.clr;
#X obj 170 34 route cr.display.clr;
#X obj 45 161 s cr.display.clr-r;
#X msg 211 140 cr.display.clr \$1;
#X obj 97 60 r cr.getsettings;
#X obj 64 114 f;
#X obj 97 83 t b b;
#X connect 0 0 1 1;
#X connect 1 0 2 1;
#X connect 1 0 6 0;
#X connect 1 0 14 1;
#X connect 2 0 12 0;
#X connect 3 0 2 0;
#X connect 5 0 10 0;
#X connect 6 0 11 0;
#X connect 7 0 8 0;
#X connect 7 1 1 0;
#X connect 9 0 7 0;
#X connect 10 0 1 0;
#X connect 12 0 4 0;
#X connect 13 0 15 0;
#X connect 14 0 6 0;
#X connect 15 0 8 0;
#X connect 15 1 14 0;
#X restore 19 293 pd cr.display.clr;
#N canvas 491 415 378 244 cr.title.fnt 0;
#X obj 174 86 r netpd-settings-save-tr;
#X obj 174 152 s netpd-settings-save;
#X obj 63 11 r \$0.font;
#X obj 175 16 r netpd-settings-restore;
#X obj 40 79 list;
#X obj 174 108 list;
#X msg 40 146 label_font \$1 \$2;
#X obj 10 55 t b b;
#X obj 10 32 r cr.title.fnt;
#X obj 10 190 s cr.gui.update;
#X obj 40 168 s cr.title.fnt-r;
#X obj 175 38 route cr.title.fnt;
#X msg 174 130 cr.title.fnt \$1 \$2;
#X obj 97 60 r cr.getsettings;
#X obj 97 83 t b b;
#X obj 64 114 list;
#X connect 0 0 5 0;
#X connect 2 0 4 1;
#X connect 3 0 11 0;
#X connect 4 0 5 1;
#X connect 4 0 6 0;
#X connect 4 0 15 1;
#X connect 5 0 12 0;
#X connect 6 0 10 0;
#X connect 7 0 9 0;
#X connect 7 1 4 0;
#X connect 8 0 7 0;
#X connect 11 0 4 0;
#X connect 11 0 4 1;
#X connect 12 0 1 0;
#X connect 13 0 14 0;
#X connect 14 0 9 0;
#X connect 14 1 15 0;
#X connect 15 0 6 0;
#X restore 184 233 pd cr.title.fnt;
#N canvas 491 415 377 203 cr.label.fnt 0;
#X obj 174 86 r netpd-settings-save-tr;
#X obj 174 152 s netpd-settings-save;
#X obj 63 11 r \$0.font;
#X obj 175 16 r netpd-settings-restore;
#X obj 40 79 list;
#X obj 174 108 list;
#X msg 40 143 label_font \$1 \$2;
#X obj 10 55 t b b;
#X obj 10 187 s cr.gui.update;
#X obj 10 32 r cr.label.fnt;
#X obj 175 38 route cr.label.fnt;
#X msg 174 130 cr.label.fnt \$1 \$2;
#X obj 40 165 s cr.label.fnt-r;
#X obj 97 60 r cr.getsettings;
#X obj 97 83 t b b;
#X obj 64 114 list;
#X connect 0 0 5 0;
#X connect 2 0 4 1;
#X connect 3 0 10 0;
#X connect 4 0 5 1;
#X connect 4 0 6 0;
#X connect 4 0 15 1;
#X connect 5 0 11 0;
#X connect 6 0 12 0;
#X connect 7 0 8 0;
#X connect 7 1 4 0;
#X connect 9 0 7 0;
#X connect 10 0 4 0;
#X connect 10 0 4 1;
#X connect 11 0 1 0;
#X connect 13 0 14 0;
#X connect 14 0 8 0;
#X connect 14 1 15 0;
#X connect 15 0 6 0;
#X restore 184 253 pd cr.label.fnt;
#N canvas 491 415 372 231 cr.display.fnt 0;
#X obj 174 86 r netpd-settings-save-tr;
#X obj 174 152 s netpd-settings-save;
#X obj 63 11 r \$0.font;
#X obj 175 16 r netpd-settings-restore;
#X obj 40 79 list;
#X obj 174 108 list;
#X msg 40 150 label_font \$1 \$2;
#X obj 10 55 t b b;
#X obj 10 194 s cr.gui.update;
#X obj 10 32 r cr.display.fnt;
#X obj 175 38 route cr.display.fnt;
#X msg 174 130 cr.display.fnt \$1 \$2;
#X obj 40 172 s cr.display.fnt-r;
#X obj 97 60 r cr.getsettings;
#X obj 97 83 t b b;
#X obj 64 114 list;
#X connect 0 0 5 0;
#X connect 2 0 4 1;
#X connect 3 0 10 0;
#X connect 4 0 5 1;
#X connect 4 0 6 0;
#X connect 4 0 15 1;
#X connect 5 0 11 0;
#X connect 6 0 12 0;
#X connect 7 0 8 0;
#X connect 7 1 4 0;
#X connect 9 0 7 0;
#X connect 10 0 4 0;
#X connect 10 0 4 1;
#X connect 11 0 1 0;
#X connect 13 0 14 0;
#X connect 14 0 8 0;
#X connect 14 1 15 0;
#X connect 15 0 6 0;
#X restore 184 273 pd cr.display.fnt;
#X connect 0 0 2 0;
#X connect 1 0 3 0;
#X restore 136 37 pd settings-code;
#X text 10 16 Author: Roman Haefeli (roman@netpd.org);
#N canvas 515 320 203 90 chatversion 0;
#X obj 7 7 r chatgetversion;
#X obj 7 48 s chatversion;
#X msg 7 28 2.0.-1;
#X connect 0 0 2 0;
#X connect 2 0 1 0;
#X restore 66 79 pd chatversion;
#X msg 335 35 \; pd dsp 1;
#X obj 335 14 loadbang;
#X msg 166 443 \; pd-_creator.pd vis 1;
#N canvas 365 170 198 192 netpd-variables 0;
#N canvas 722 278 235 208 netpd-status 0;
#X obj 11 113 f;
#X obj 11 9 r netpd-getstatus;
#X obj 11 30 b;
#X obj 11 134 s netpd-status;
#X obj 73 45 r NETPD;
#X obj 73 66 route connection;
#X connect 0 0 3 0;
#X connect 1 0 2 0;
#X connect 2 0 0 0;
#X connect 4 0 5 0;
#X connect 5 0 0 0;
#X restore 2 9 pd netpd-status;
#N canvas 228 44 266 154 netpd-socket 0;
#X obj 8 11 r netpd-getsocket;
#X obj 8 34 b;
#X obj 8 105 f;
#X obj 8 128 s netpd-socket;
#X obj 139 12 r NETPD;
#X obj 139 33 route from;
#X obj 139 54 routeOSC /server;
#X obj 139 75 routeOSC /socket;
#X connect 0 0 1 0;
#X connect 1 0 2 0;
#X connect 2 0 3 0;
#X connect 4 0 5 0;
#X connect 5 0 6 0;
#X connect 6 0 7 0;
#X connect 7 0 2 0;
#X restore 2 29 pd netpd-socket;
#N canvas 390 417 308 130 netpd-name 0;
#X obj 12 67 symbol;
#X obj 148 38 route netpd-name;
#X obj 12 16 r netpd-getname;
#X obj 12 93 s netpd-name;
#X obj 148 16 r netpd-settings-restore;
#X obj 12 41 b;
#X obj 149 62 r netpd-name-s;
#X connect 0 0 3 0;
#X connect 1 0 0 0;
#X connect 2 0 5 0;
#X connect 4 0 1 0;
#X connect 5 0 0 0;
#X connect 6 0 0 0;
#X restore 2 69 pd netpd-name;
#N canvas 400 154 340 208 netpd-welcome 0;
#X obj 10 63 symbol;
#X obj 10 89 s netpd-welcome;
#X obj 143 36 route netpd-welcome;
#X obj 10 12 r netpd-getwelcome;
#X obj 143 14 r netpd-settings-restore;
#X obj 10 36 b;
#X obj 138 60 r netpd-welcome-s;
#X connect 0 0 1 0;
#X connect 2 0 0 0;
#X connect 3 0 5 0;
#X connect 4 0 2 0;
#X connect 5 0 0 0;
#X connect 6 0 0 0;
#X restore 2 89 pd netpd-welcome;
#N canvas 581 248 346 214 netpd-domain 0;
#X obj 10 68 symbol;
#X obj 10 17 r netpd-getdomain;
#X obj 10 96 s netpd-domain;
#X obj 143 36 route netpd-domain;
#X obj 143 14 r netpd-settings-restore;
#X obj 10 42 b;
#X obj 141 60 r netpd-domain-s;
#X connect 0 0 2 0;
#X connect 1 0 5 0;
#X connect 3 0 0 0;
#X connect 4 0 3 0;
#X connect 5 0 0 0;
#X connect 6 0 0 0;
#X restore 2 109 pd netpd-domain;
#N canvas 656 548 354 222 netpd-port 0;
#X obj 10 23 r netpd-getport;
#X obj 10 104 s netpd-port;
#X obj 143 36 route netpd-port;
#X obj 10 74 f;
#X obj 143 14 r netpd-settings-restore;
#X obj 10 50 b;
#X obj 143 61 r netpd-port-s;
#X connect 0 0 5 0;
#X connect 2 0 3 0;
#X connect 3 0 1 0;
#X connect 4 0 2 0;
#X connect 5 0 3 0;
#X connect 6 0 3 0;
#X restore 2 129 pd netpd-port;
#N canvas 606 472 377 205 netpd-msg-interval 0;
#X obj 199 13 r netpd-settings-restore;
#X obj 10 71 f;
#X obj 199 35 route netpd-msg-interval;
#X obj 10 19 r netpd-getmsg-interval;
#X obj 10 96 s netpd-msg-interval;
#X obj 10 43 b;
#X obj 200 56 r netpd-msg-interval-s;
#X connect 0 0 2 0;
#X connect 1 0 4 0;
#X connect 2 0 1 0;
#X connect 3 0 5 0;
#X connect 5 0 1 0;
#X connect 6 0 1 0;
#X restore 2 149 pd netpd-msg-interval;
#N canvas 445 291 231 146 netpd-dsp 0;
#X obj 125 10 r pd;
#X obj 125 35 route dsp;
#X obj 11 94 s netpd-dsp;
#X obj 11 7 r netpd-getdsp;
#X obj 11 63 f;
#X obj 11 32 b;
#X connect 0 0 1 0;
#X connect 1 0 4 0;
#X connect 3 0 5 0;
#X connect 4 0 2 0;
#X connect 5 0 4 0;
#X restore 2 49 pd netpd-dsp;
#X restore 191 58 pd netpd-variables;
#X text 101 111 <-- click before saving;
#X text 9 -1 CHAT;
#X obj 10 329 t b b b;
#X obj 56 351 s \$0.loadbang.1;
#X obj 33 370 s \$0.loadbang.2;
#X obj 10 390 s \$0.loadbang.3;
#X obj 10 306 loadbang;
#X text 169 351 reserved for loading preferences;
#X obj 11 167 declare -path includes -path abs;
#X obj 14 231 declare -stdlib extra/zexy -stdpath extra/zexy;
#X text 13 214 soon to be deprecated:;
#X obj 11 191 declare -stdpath extra/iemnet -stdpath extra/mrpeach
;
#X connect 3 0 2 0;
#X connect 10 0 9 0;
#X connect 15 0 18 0;
#X connect 15 1 17 0;
#X connect 15 2 16 0;
#X connect 19 0 15 0;
#X restore 240 198 pd netpd;
#X obj 3 2 cnv 15 347 17 empty \$0-border empty 6 8 1 12 -1 -1 0;
#X obj 4 3 cnv 15 345 15 empty \$0-title empty 6 8 1 12 -241213 -1
0;
#X obj 3 220 cnv 6 59 16 empty \$0-border empty 6 7 1 12 -1 -1 0;
#X obj 4 221 cnv 14 57 14 empty \$0-onlinedisplay empty 4 7 1 10 -241213
-1 0;
#X obj 190 240 cnv 6 28 16 empty \$0-border empty 6 7 1 12 -1 -1 0
;
#X obj 191 241 cnv 14 26 14 empty \$0-background empty 2 6 0 12 -241213
-241213 0;
#X obj 66 220 cnv 6 284 16 empty \$0-border empty 6 7 1 12 -1 -1 0
;
#X obj 68 222 cnv 12 280 12 empty \$0-input empty 6 7 1 12 -241213
-241213 0;
#X symbolatom 67 221 40 0 0 0 - #0-inputbox-r #0-inputbox;
#X obj 3 240 cnv 6 60 16 empty \$0-border empty 6 7 1 12 -1 -1 0;
#X obj 7 241 hsl 53 14 0 0 0 0 \$0-connect \$0-connect-r empty -2 -8
0 10 -262144 -1 -1 0 1;
#X obj 4 241 cnv 14 58 14 empty \$0-connect-display empty 2 7 1 10
-241213 -1 0;
#X obj 67 240 cnv 6 37 16 empty \$0-border empty 6 7 1 12 -1 -1 0;
#X obj 71 241 hsl 30 14 0 0 0 0 \$0-list \$0-list-r empty -2 -8 0 10
-262144 -1 -1 0 1;
#X obj 68 241 cnv 14 35 14 empty \$0-list-display list 2 7 1 10 -241213
-1 0;
#X obj 108 240 cnv 6 37 16 empty \$0-border empty 6 7 1 12 -1 -1 0
;
#X obj 112 241 hsl 30 14 0 0 0 0 \$0-pref \$0-pref-r empty -2 -8 0
10 -262144 -1 -1 0 1;
#X obj 109 241 cnv 14 35 14 empty \$0-pref-display pref 2 7 1 10 -241213
-1 0;
#X obj 222 240 cnv 6 62 16 empty \$0-border empty 6 7 1 12 -1 -1 0
;
#X obj 226 241 hsl 55 14 1 1 0 0 \$0-showlogview \$0-showlogview-r
empty -2 -8 0 10 -262144 -1 -1 0 1;
#X obj 223 241 cnv 14 60 14 empty \$0-showlogview-display logview 2
7 1 10 -241213 -1 0;
#X obj 288 240 cnv 6 62 16 empty \$0-border empty 6 7 1 12 -1 -1 0
;
#X obj 292 241 hsl 55 14 1 1 0 0 \$0-showcreator \$0-showcreator-r
empty -2 -8 0 10 -262144 -1 -1 0 1;
#X obj 289 241 cnv 14 60 14 empty \$0-showcreator-display creator 2
7 1 10 -241213 -1 0;
#X obj 336 25 vsl 14 188 187 0 0 0 \$0-scrollsensor \$0-scrollsensor-r
empty 0 -9 0 10 -195568 -195568 -1 0 1;
#X obj 3 23 cnv 3 347 193 empty \$0-border empty 6 7 1 12 -1 -1 0;
#X obj 337 24 cnv 12 12 191 empty \$0-background empty 20 12 0 14 -241213
-241213 0;
#X obj 337 24 cnv 12 12 191 empty \$0-scrollbar empty 20 12 0 14 -187246
-187246 0;
#X obj 4 200 cnv 15 70 15 empty \$0-1-nick empty 2 7 0 12 -241213 -262144
0;
#X obj 4 184 cnv 15 70 15 empty \$0-2-nick empty 2 7 0 12 -241213 -262144
0;
#X obj 4 168 cnv 15 70 15 empty \$0-3-nick empty 2 7 0 12 -241213 -262144
0;
#X obj 4 152 cnv 15 70 15 empty \$0-4-nick empty 2 7 0 12 -241213 -262144
0;
#X obj 4 136 cnv 15 70 15 empty \$0-5-nick empty 2 7 0 12 -241213 -262144
0;
#X obj 4 120 cnv 15 70 15 empty \$0-6-nick empty 2 7 0 12 -241213 -262144
0;
#X obj 4 104 cnv 15 70 15 empty \$0-7-nick empty 2 7 0 12 -241213 -262144
0;
#X obj 4 88 cnv 15 70 15 empty \$0-8-nick empty 2 7 0 12 -241213 -262144
0;
#X obj 4 72 cnv 15 70 15 empty \$0-9-nick empty 2 7 0 12 -241213 -262144
0;
#X obj 4 56 cnv 15 70 15 empty \$0-10-nick empty 2 7 0 12 -241213 -262144
0;
#X obj 4 40 cnv 15 70 15 empty \$0-11-nick empty 2 7 0 12 -241213 -262144
0;
#X obj 4 24 cnv 15 70 15 empty \$0-12-nick empty 2 7 0 12 -241213 -262144
0;
#X obj 75 200 cnv 13 260 15 empty \$0-1-line empty 2 7 0 12 -241213
-262144 0;
#X obj 75 184 cnv 13 260 15 empty \$0-2-line empty 2 7 0 12 -241213
-262144 0;
#X obj 75 168 cnv 13 260 15 empty \$0-3-line empty 2 7 0 12 -241213
-262144 0;
#X obj 75 152 cnv 13 260 15 empty \$0-4-line empty 2 7 0 12 -241213
-262144 0;
#X obj 75 136 cnv 13 260 15 empty \$0-5-line empty 2 7 0 12 -241213
-262144 0;
#X obj 75 120 cnv 13 260 15 empty \$0-6-line empty 2 7 0 12 -241213
-262144 0;
#X obj 75 104 cnv 13 260 15 empty \$0-7-line empty 2 7 0 12 -241213
-262144 0;
#X obj 75 88 cnv 13 260 15 empty \$0-8-line empty 2 7 0 12 -241213
-262144 0;
#X obj 75 72 cnv 13 260 15 empty \$0-9-line empty 2 7 0 12 -241213
-262144 0;
#X obj 75 56 cnv 13 260 15 empty \$0-10-line empty 2 7 0 12 -241213
-262144 0;
#X obj 75 40 cnv 13 260 15 empty \$0-11-line empty 2 7 0 12 -241213
-262144 0;
#X obj 75 24 cnv 13 260 15 empty \$0-12-line empty 2 7 0 12 -241213
-262144 0;
#X obj 149 240 cnv 6 37 16 empty \$0-border empty 6 7 1 12 -1 -1 0
;
#X obj 153 241 hsl 30 14 1 1 0 0 \$0-mute \$0-mute-r empty -2 -8 0
10 -262144 -1 -1 0 1;
#X obj 150 241 cnv 14 35 14 empty \$0-mute-display mute 2 7 1 10 -241213
-1 0;
