#N canvas 0 44 363 268 10;
#X declare -stdpath extra/iemnet -stdpath extra/net;
#X declare -stdpath extra/mrpeach;
#X declare -stdpath extra/osc;
#X declare -path . -path includes;
#N canvas 0 352 359 279 netpd 0;
#N canvas 189 444 170 298 chat 0;
#N canvas 331 379 444 295 connection 0;
#X msg 143 175 disconnect;
#X msg 9 184 connect \$1 \$2;
#X obj 9 138 symbol;
#X obj 9 162 pack s f;
#X obj 9 18 r \$0-connect;
#N canvas 0 0 228 141 speedlimit 0;
#X obj 131 38 del 300;
#X obj 17 44 spigot 1;
#X obj 88 74 0;
#X obj 131 65 1;
#X obj 17 69 t a b;
#X obj 17 20 inlet;
#X obj 17 95 outlet;
#X connect 0 0 3 0;
#X connect 1 0 4 0;
#X connect 2 0 1 1;
#X connect 3 0 1 1;
#X connect 4 0 6 0;
#X connect 4 1 2 0;
#X connect 4 1 0 0;
#X connect 5 0 1 0;
#X restore 9 43 pd speedlimit;
#X obj 9 82 sel 1 0;
#X obj 9 258 s NETPD;
#X obj 9 236 list prepend tcpclient;
#X obj 230 172 s NETPD;
#X obj 119 12 loadbang;
#X obj 118 41 r NETPD;
#X obj 118 62 route pref;
#X obj 118 83 route netpd-server netpd-port;
#X msg 230 149 to /l/server/num_of_clients 0;
#X obj 118 104 list;
#X connect 0 0 8 0;
#X connect 1 0 8 0;
#X connect 2 0 3 0;
#X connect 3 0 1 0;
#X connect 4 0 5 0;
#X connect 5 0 6 0;
#X connect 6 0 2 0;
#X connect 6 1 0 0;
#X connect 6 1 14 0;
#X connect 8 0 7 0;
#X connect 10 0 2 0;
#X connect 11 0 12 0;
#X connect 12 0 13 0;
#X connect 13 0 15 0;
#X connect 13 1 3 1;
#X connect 14 0 9 0;
#X connect 15 0 2 1;
#X restore 17 73 pd connection;
#N canvas 455 329 192 351 chat-guicode 0;
#N canvas 545 95 492 638 talkdisplay 0;
#N canvas 323 46 684 806 scrolllist 0;
#X obj 163 547 s \$0-scrollbar;
#X msg 258 489 pos \$1 \$2;
#X obj 258 466 pack f f;
#X obj 258 423 t b f;
#X obj 76 350 int;
#X obj 76 286 /;
#X obj 76 197 max 1;
#X obj 76 307 min 1;
#X obj 146 312 -;
#X obj 258 396 min;
#X obj 180 335 t b f;
#X obj 258 360 max 0;
#X obj 258 172 r \$0-scrollsensor;
#X obj 258 232 t f f b;
#X obj 285 256 f;
#X obj 258 276 -;
#X obj 312 351 f;
#X obj 258 330 +;
#X obj 76 371 max 4;
#X obj 54 481 s \$0-scrollsensor-r;
#X msg 54 460 set \$1;
#X obj 54 439 f;
#X obj 481 495 /;
#X obj 519 497 max 0;
#X obj 481 562 *;
#X obj 481 582 int;
#X obj 481 602 change;
#X obj 62 86 s \$0-to_list-index;
#X obj 62 106 r \$0-from_list-index;
#X msg 62 66 length;
#X obj 32 128 list;
#X obj 9 9 r \$0-pl-refresh;
#X obj 519 471 - 3;
#X obj 76 264 pack;
#X obj 76 243 4;
#X obj 76 220 t b f;
#X obj 363 48 \$0;
#X obj 535 422 r \$0-numOfItems;
#X obj 535 449 - 1;
#X obj 139 247 r \$0-numOfItems;
#X obj 363 26 loadbang;
#X obj 60 536 f;
#X obj 32 509 t f f b;
#X obj 32 558 -;
#X obj 32 164 t a b a;
#X obj 9 34 t b b b;
#X obj 442 638 f;
#X obj 376 221 r \$0-setpos;
#X obj 32 742 s \$0-scrollsensor-r;
#X obj 57 603 t b b;
#X obj 87 625 0;
#X obj 62 689 f;
#X obj 84 660 r \$0-scrollsensor;
#X obj 32 689 f;
#X obj 32 652 t b b;
#X obj 258 444 337;
#X obj 309 445 + 24;
#X msg 76 395 vis_size 12 \$1;
#X msg 363 68 \; \$1-numOfItems 12;
#X obj 57 627 188;
#X obj 76 329 * 191;
#X msg 146 290 191 \$1;
#X obj 481 516 * -1;
#X obj 481 537 + 0.999;
#X obj 32 578 sel -1 1 0;
#N canvas 0 46 320 399 get_display_content 0;
#X obj 86 113 4;
#X obj 86 136 until;
#X obj 86 169 f;
#X obj 86 192 + 1;
#X obj 137 133 0;
#X obj 158 238 +;
#X obj 158 279 s \$0-to_list-index;
#X obj 158 299 r \$0-from_list-index;
#X obj 86 236 \$0;
#X msg 158 259 get \$1;
#X obj 86 307 pack f f;
#X obj 86 327 list append;
#X obj 86 213 t b a a;
#X obj 67 72 t a b b a;
#X obj 164 77 r \$0-numOfItems;
#X obj 86 365 outlet;
#X obj 67 41 inlet;
#X connect 0 0 1 0;
#X connect 1 0 2 0;
#X connect 2 0 3 0;
#X connect 3 0 2 1;
#X connect 3 0 12 0;
#X connect 4 0 2 1;
#X connect 5 0 9 0;
#X connect 7 0 11 1;
#X connect 8 0 10 0;
#X connect 9 0 6 0;
#X connect 10 0 11 0;
#X connect 11 0 15 0;
#X connect 12 0 8 0;
#X connect 12 1 10 1;
#X connect 12 2 5 0;
#X connect 13 1 0 0;
#X connect 13 2 4 0;
#X connect 13 3 5 1;
#X connect 14 0 0 1;
#X connect 16 0 13 0;
#X restore 442 667 pd get_display_content;
#X obj 442 693 outlet;
#X obj 103 719 s \$0-setpos;
#X connect 1 0 0 0;
#X connect 2 0 1 0;
#X connect 3 0 55 0;
#X connect 3 1 56 0;
#X connect 4 0 18 0;
#X connect 5 0 7 0;
#X connect 6 0 35 0;
#X connect 7 0 60 0;
#X connect 8 0 10 0;
#X connect 9 0 3 0;
#X connect 9 0 16 0;
#X connect 9 0 22 0;
#X connect 9 0 21 1;
#X connect 10 0 9 0;
#X connect 10 1 9 1;
#X connect 10 1 22 1;
#X connect 11 0 9 0;
#X connect 12 0 13 0;
#X connect 13 0 15 0;
#X connect 13 1 14 1;
#X connect 13 2 14 0;
#X connect 14 0 15 1;
#X connect 15 0 17 0;
#X connect 16 0 17 1;
#X connect 17 0 11 0;
#X connect 18 0 57 0;
#X connect 18 0 61 0;
#X connect 20 0 19 0;
#X connect 21 0 20 0;
#X connect 22 0 62 0;
#X connect 23 0 24 1;
#X connect 24 0 25 0;
#X connect 25 0 26 0;
#X connect 26 0 46 0;
#X connect 28 0 30 1;
#X connect 29 0 27 0;
#X connect 30 0 44 0;
#X connect 31 0 45 0;
#X connect 32 0 23 0;
#X connect 33 0 5 0;
#X connect 34 0 33 0;
#X connect 35 0 34 0;
#X connect 35 1 33 1;
#X connect 36 0 58 0;
#X connect 37 0 38 0;
#X connect 38 0 32 1;
#X connect 39 0 34 1;
#X connect 39 0 18 1;
#X connect 40 0 36 0;
#X connect 41 0 43 1;
#X connect 42 0 43 0;
#X connect 42 1 41 1;
#X connect 42 2 41 0;
#X connect 43 0 64 0;
#X connect 44 0 42 0;
#X connect 44 1 21 0;
#X connect 44 2 32 0;
#X connect 44 2 6 0;
#X connect 45 0 46 0;
#X connect 45 1 30 0;
#X connect 45 2 29 0;
#X connect 46 0 65 0;
#X connect 47 0 14 1;
#X connect 49 0 59 0;
#X connect 49 1 50 0;
#X connect 50 0 67 0;
#X connect 51 0 67 0;
#X connect 52 0 51 1;
#X connect 52 0 53 1;
#X connect 53 0 48 0;
#X connect 54 0 53 0;
#X connect 54 1 51 0;
#X connect 55 0 2 0;
#X connect 56 0 2 1;
#X connect 57 0 0 0;
#X connect 59 0 48 0;
#X connect 60 0 4 0;
#X connect 61 0 8 0;
#X connect 62 0 63 0;
#X connect 63 0 24 0;
#X connect 64 0 54 0;
#X connect 64 1 49 0;
#X connect 64 2 49 0;
#X connect 65 0 66 0;
#X restore 239 186 pd scrolllist;
#N canvas 668 46 542 290 set_gui 0;
#X obj 7 8 inlet;
#X obj 7 91 list append 0;
#X text 47 131 \$0 pos nick message txt.clr timestamp bg.clr;
#X msg 7 156 \; \$1-\$2-line label \$4 \; \$1-\$2-nick label \$3 \;
\$1-\$2-nick color \$7 \$5 \; \$1-\$2-line color \$7 \$5;
#X obj 82 6 r NETPD;
#X obj 82 27 route pref;
#X obj 82 48 route ch.background.clr;
#X obj 82 69 netpd-rgb2iem;
#X connect 0 0 1 0;
#X connect 1 0 3 0;
#X connect 4 0 5 0;
#X connect 5 0 6 0;
#X connect 6 0 7 0;
#X connect 7 0 1 1;
#X restore 239 212 pd set_gui;
#N canvas 391 295 441 309 list-index 0;
#X obj 256 155 list;
#X obj 256 109 r \$0-pl_i1;
#X obj 279 133 r \$0-pl_i2;
#X obj 256 176 s \$0-pl_o1;
#N canvas 336 203 232 208 method 0;
#X obj 8 13 r \$0-inlet1;
#X obj 8 35 route get;
#X obj 8 60 list;
#X obj 8 83 route float symbol;
#N canvas 310 81 182 456 get_position 0;
#X obj 28 336 sel empty;
#X obj 31 59 s \$0-pl_i1;
#X obj 31 79 r \$0-pl_o1;
#X obj 9 36 t b b a;
#X obj 9 102 list;
#X obj 28 151 until;
#X obj 28 263 list append;
#X obj 123 229 bang;
#X obj 61 202 f;
#X obj 61 224 + 1;
#X obj 103 157 0;
#X obj 28 174 t b b;
#X obj 28 362 f;
#X obj 9 394 f;
#X obj 9 125 t b b l b;
#X obj 9 416 s \$0-outlet1;
#X obj 9 12 inlet;
#X obj 28 309 list split 1;
#X obj 28 286 list split 6;
#X obj 114 253 r \$0-pl.length;
#X connect 0 0 12 0;
#X connect 2 0 4 1;
#X connect 3 0 4 0;
#X connect 3 1 1 0;
#X connect 3 2 0 1;
#X connect 4 0 14 0;
#X connect 5 0 11 0;
#X connect 6 0 18 0;
#X connect 7 0 5 1;
#X connect 8 0 9 0;
#X connect 9 0 8 1;
#X connect 9 0 12 1;
#X connect 10 0 8 1;
#X connect 10 0 13 1;
#X connect 11 0 6 0;
#X connect 11 1 8 0;
#X connect 12 0 13 1;
#X connect 13 0 15 0;
#X connect 14 0 13 0;
#X connect 14 1 5 0;
#X connect 14 2 6 1;
#X connect 14 3 10 0;
#X connect 16 0 3 0;
#X connect 17 0 0 0;
#X connect 18 0 17 0;
#X connect 18 1 6 1;
#X connect 18 2 7 0;
#X connect 19 0 18 1;
#X restore 68 120 pd get_position;
#N canvas 578 191 346 457 get_name 0;
#X obj 145 136 s \$0-pl_i1;
#X obj 145 157 r \$0-pl_o1;
#X obj 122 183 list;
#X obj 122 234 list split;
#X obj 78 67 - 1;
#X obj 78 91 moses 0;
#X obj 78 115 b;
#X obj 9 399 s \$0-outlet1;
#X obj 122 113 t b b f;
#X obj 9 5 inlet;
#X obj 9 27 t b a;
#X obj 9 377 list;
#X obj 208 2 r \$0-getname;
#X obj 208 403 s \$0-name;
#X obj 208 26 t b a;
#X obj 208 379 list;
#X obj 78 328 t a;
#X obj 187 198 * 6;
#X obj 154 260 list split 6;
#X obj 228 170 r \$0-pl.length;
#X msg 78 296 list empty empty 0 0;
#X connect 1 0 2 1;
#X connect 2 0 3 0;
#X connect 3 1 18 0;
#X connect 3 2 20 0;
#X connect 4 0 5 0;
#X connect 5 0 6 0;
#X connect 5 1 8 0;
#X connect 6 0 20 0;
#X connect 8 0 2 0;
#X connect 8 1 0 0;
#X connect 8 2 17 0;
#X connect 9 0 10 0;
#X connect 10 0 11 0;
#X connect 10 1 4 0;
#X connect 11 0 7 0;
#X connect 12 0 14 0;
#X connect 14 0 15 0;
#X connect 14 1 4 0;
#X connect 15 0 13 0;
#X connect 16 0 11 1;
#X connect 16 0 15 1;
#X connect 17 0 3 1;
#X connect 18 0 16 0;
#X connect 18 2 20 0;
#X connect 19 0 17 1;
#X connect 19 0 18 1;
#X connect 20 0 16 0;
#X restore 8 148 pd get_name;
#X connect 0 0 1 0;
#X connect 1 0 2 0;
#X connect 2 0 3 0;
#X connect 3 0 5 0;
#X connect 3 1 4 0;
#X restore 86 179 pd method get;
#N canvas 220 257 267 429 method 0;
#X obj 36 386 s \$0-pl_i2;
#X obj 14 0 r \$0-inlet1;
#X obj 14 22 route remove;
#X obj 14 44 list;
#X obj 36 111 s \$0-pl_i1;
#X obj 36 134 r \$0-pl_o1;
#X obj 14 158 list;
#X obj 14 90 t b b a;
#X obj 134 197 *;
#X obj 150 103 r \$0-pl.length;
#X obj 134 168 - 1;
#X obj 44 240 list split;
#X obj 76 267 list split;
#X obj 36 326 list;
#X obj 91 327 list;
#X obj 15 293 t b b;
#X obj 36 361 list append;
#X obj 14 65 moses 1;
#X obj 14 200 t b a b;
#X connect 1 0 2 0;
#X connect 2 0 3 0;
#X connect 3 0 17 0;
#X connect 5 0 6 1;
#X connect 6 0 18 0;
#X connect 7 0 6 0;
#X connect 7 1 4 0;
#X connect 7 2 10 0;
#X connect 8 0 11 1;
#X connect 9 0 8 1;
#X connect 9 0 12 1;
#X connect 10 0 8 0;
#X connect 11 0 13 1;
#X connect 11 1 12 0;
#X connect 11 2 13 1;
#X connect 12 1 14 1;
#X connect 12 2 14 1;
#X connect 13 0 16 0;
#X connect 14 0 16 1;
#X connect 15 0 13 0;
#X connect 15 1 14 0;
#X connect 16 0 0 0;
#X connect 17 1 7 0;
#X connect 18 0 15 0;
#X connect 18 1 11 0;
#X connect 18 2 13 1;
#X connect 18 2 14 1;
#X restore 86 159 pd method remove;
#N canvas 386 222 139 154 method 0;
#X obj 6 69 b;
#X obj 6 90 s \$0-pl_i2;
#X obj 6 11 r \$0-inlet1;
#X obj 6 33 route clear;
#X connect 0 0 1 0;
#X connect 2 0 3 0;
#X connect 3 0 0 0;
#X restore 86 139 pd method clear;
#N canvas 339 220 229 256 method 0;
#X obj 24 86 t a b;
#X obj 54 110 s \$0-pl_i1;
#X obj 54 131 r \$0-pl_o1;
#X obj 24 179 s \$0-pl_i2;
#X obj 24 158 list prepend;
#X obj 24 24 r \$0-inlet1;
#X obj 24 46 route append;
#X connect 0 0 4 0;
#X connect 0 1 1 0;
#X connect 2 0 4 1;
#X connect 4 0 3 0;
#X connect 5 0 6 0;
#X connect 6 0 0 0;
#X restore 86 99 pd method append;
#N canvas 0 0 180 270 method 0;
#X obj 63 111 s \$0-pl_i1;
#X obj 63 132 r \$0-pl_o1;
#X obj 33 159 list;
#X obj 33 87 t b b;
#X obj 33 228 s \$0-outlet1;
#X obj 33 26 r \$0-inlet1;
#X obj 33 48 route flush;
#X connect 1 0 2 1;
#X connect 2 0 4 0;
#X connect 3 0 2 0;
#X connect 3 1 0 0;
#X connect 5 0 6 0;
#X connect 6 0 3 0;
#X restore 86 79 pd method flush;
#N canvas 339 220 182 234 method 0;
#X obj 24 86 t a b;
#X obj 54 110 s \$0-pl_i1;
#X obj 54 131 r \$0-pl_o1;
#X obj 24 179 s \$0-pl_i2;
#X obj 24 24 r \$0-inlet1;
#X obj 24 46 route prepend;
#X obj 24 158 list append;
#X connect 0 0 6 0;
#X connect 0 1 1 0;
#X connect 2 0 6 1;
#X connect 4 0 5 0;
#X connect 5 0 0 0;
#X connect 6 0 3 0;
#X restore 86 119 pd method prepend;
#X obj 34 39 s \$0-inlet1;
#X obj 24 259 r \$0-outlet1;
#X obj 34 18 inlet;
#X obj 24 281 outlet;
#N canvas 336 203 219 224 method 0;
#X obj 8 13 r \$0-inlet1;
#X obj 8 35 route length;
#X obj 8 194 s \$0-outlet1;
#X obj 8 57 t b b;
#X obj 38 78 s \$0-pl_i1;
#X obj 38 98 r \$0-pl_o1;
#X obj 8 120 list;
#X obj 8 142 list length;
#X obj 8 166 / 6;
#X obj 97 124 r \$0-pl.length;
#X connect 0 0 1 0;
#X connect 1 0 3 0;
#X connect 3 0 6 0;
#X connect 3 1 4 0;
#X connect 5 0 6 1;
#X connect 6 0 7 0;
#X connect 7 0 8 0;
#X connect 8 0 2 0;
#X connect 9 0 8 1;
#X restore 86 220 pd method length;
#N canvas 336 203 401 682 method 0;
#X obj 8 13 r \$0-inlet1;
#X obj 8 60 list;
#X obj 8 35 route set;
#X obj 52 598 s \$0-pl_i2;
#X obj 127 260 s \$0-pl_i1;
#X obj 127 281 r \$0-pl_o1;
#X obj 104 307 list;
#X obj 104 327 list split;
#X obj 8 164 - 1;
#X obj 8 188 moses 0;
#X obj 8 212 b;
#X msg 8 122 \$1;
#X obj 8 143 route float;
#X obj 124 505 list;
#X obj 214 503 list;
#X obj 52 506 list;
#X obj 52 461 t b b b;
#X obj 52 557 list append;
#X obj 52 531 list append;
#X obj 288 451 t b;
#N canvas 0 0 379 420 replace 0;
#X obj 26 16 inlet;
#X obj 26 354 outlet;
#X obj 271 12 inlet;
#X obj 48 75 list split;
#X msg 113 12 \$2;
#X obj 113 54 - 1;
#X obj 98 273 list;
#X obj 199 272 list;
#X obj 26 274 list;
#X obj 26 225 t b b b;
#X obj 26 325 list append;
#X obj 26 299 list append;
#X obj 301 207 t b;
#X obj 26 48 t b a b;
#X msg 147 184 \$3;
#X obj 147 207 list;
#X obj 271 37 t a b;
#X obj 80 123 list split 1;
#X obj 113 32 max 1;
#X obj 141 252 0;
#X obj 113 202 b;
#X connect 0 0 13 0;
#X connect 2 0 16 0;
#X connect 3 0 8 1;
#X connect 3 1 17 0;
#X connect 3 2 8 1;
#X connect 3 2 20 0;
#X connect 4 0 18 0;
#X connect 5 0 3 1;
#X connect 6 0 11 1;
#X connect 7 0 10 1;
#X connect 8 0 11 0;
#X connect 9 0 8 0;
#X connect 9 1 6 0;
#X connect 9 2 7 0;
#X connect 10 0 1 0;
#X connect 11 0 10 0;
#X connect 12 0 7 1;
#X connect 12 0 8 1;
#X connect 12 0 19 0;
#X connect 13 0 9 0;
#X connect 13 1 3 0;
#X connect 14 0 15 0;
#X connect 15 0 6 1;
#X connect 16 0 14 0;
#X connect 16 0 4 0;
#X connect 16 1 12 0;
#X connect 17 1 7 1;
#X connect 17 2 20 0;
#X connect 18 0 5 0;
#X connect 19 0 6 1;
#X connect 20 0 6 1;
#X restore 137 436 pd replace;
#X obj 8 92 t a a b;
#X obj 52 210 t b b b f;
#X obj 169 304 * 6;
#X obj 136 353 list split 6;
#X obj 270 280 r \$0-pl.length;
#X connect 0 0 2 0;
#X connect 1 0 21 0;
#X connect 2 0 1 0;
#X connect 5 0 6 1;
#X connect 6 0 7 0;
#X connect 7 0 15 1;
#X connect 7 1 24 0;
#X connect 7 2 15 1;
#X connect 8 0 9 0;
#X connect 9 0 10 0;
#X connect 9 1 22 0;
#X connect 11 0 12 0;
#X connect 12 0 8 0;
#X connect 13 0 18 1;
#X connect 14 0 17 1;
#X connect 15 0 18 0;
#X connect 16 0 15 0;
#X connect 16 1 13 0;
#X connect 16 2 14 0;
#X connect 17 0 3 0;
#X connect 18 0 17 0;
#X connect 19 0 14 1;
#X connect 19 0 13 1;
#X connect 19 0 15 1;
#X connect 20 0 13 1;
#X connect 21 0 11 0;
#X connect 21 1 20 1;
#X connect 21 2 19 0;
#X connect 22 0 16 0;
#X connect 22 1 6 0;
#X connect 22 2 4 0;
#X connect 22 3 23 0;
#X connect 23 0 7 1;
#X connect 24 0 20 0;
#X connect 24 1 14 1;
#X connect 24 2 14 1;
#X connect 25 0 23 1;
#X connect 25 0 24 1;
#X restore 86 200 pd method set;
#X connect 0 0 3 0;
#X connect 1 0 0 0;
#X connect 2 0 0 1;
#X connect 11 0 13 0;
#X connect 12 0 10 0;
#X restore 240 116 pd list-index;
#X obj 240 94 r \$0-to_list-index;
#X obj 240 138 s \$0-from_list-index;
#X obj 69 345 list trim;
#X obj 240 67 s \$0-pl.length;
#X obj 240 27 loadbang;
#X obj 69 367 s \$0-to_list-index;
#X obj 69 302 list prepend prepend;
#X obj 30 417 s \$0-to_list-index;
#X obj 11 441 s \$0-pl-refresh;
#X obj 240 47 4;
#X obj 15 471 r \$0-toall;
#X obj 45 541 s \$0-to_list-index;
#X obj 15 561 s \$0-pl-refresh;
#X obj 15 497 t b b;
#X msg 45 519 clear;
#X obj 238 259 r \$0-gui.update;
#X obj 238 281 s \$0-pl-refresh;
#X obj 254 430 s \$0-scrollbar;
#X msg 254 409 color \$1 \$1;
#N canvas 353 174 286 374 font-setting 0;
#X obj 27 122 r \$0-numOfItems;
#X msg 11 71 \$1 \$2;
#X obj 11 91 t b a;
#X obj 11 147 f;
#X obj 11 192 until;
#X obj 11 168 t a b;
#X obj 11 219 f;
#X obj 56 195 0;
#X obj 11 243 + 1;
#X obj 11 268 list prepend \$0;
#X msg 11 317 \; \$1-\$2-line label_font \$3 \$4 \; \$1-\$2-nick label_font
\$3 \$4 \;;
#X obj 11 293 list append 0 0;
#X obj 11 6 r NETPD;
#X obj 11 27 route pref;
#X obj 11 48 route ch.talk.fnt;
#X connect 0 0 3 1;
#X connect 1 0 2 0;
#X connect 2 0 3 0;
#X connect 2 1 11 1;
#X connect 3 0 5 0;
#X connect 4 0 6 0;
#X connect 5 0 4 0;
#X connect 5 1 7 0;
#X connect 6 0 8 0;
#X connect 7 0 6 1;
#X connect 8 0 6 1;
#X connect 8 0 9 0;
#X connect 9 0 11 0;
#X connect 11 0 10 0;
#X connect 12 0 13 0;
#X connect 13 0 14 0;
#X connect 14 0 1 0;
#X restore 248 466 pd font-setting;
#X obj 69 323 list append 0;
#X obj 11 112 list;
#X obj 11 166 unpack s s f;
#X obj 11 255 pack s s f;
#N canvas 505 614 308 211 client_color 0;
#X obj 22 7 inlet;
#X obj 22 183 outlet;
#X obj 22 42 t a b;
#N canvas 447 120 467 356 render_color 0;
#X obj 8 19 inlet;
#X obj 340 27 inlet;
#X obj 340 67 unpack f f f;
#X obj 340 87 / 128;
#X obj 379 87 / 128;
#X obj 419 87 / 128;
#X obj 340 108 int;
#X obj 379 108 int;
#X obj 419 108 int;
#X obj 340 182 * 128;
#X obj 379 182 * 128;
#X obj 419 181 * 128;
#X obj 8 224 +;
#X obj 106 221 +;
#X obj 197 218 +;
#X obj 340 132 * -1;
#X obj 340 153 + 1;
#X obj 379 130 * -1;
#X obj 379 151 + 1;
#X obj 419 132 * -1;
#X obj 419 153 + 1;
#N canvas 810 442 194 198 convert_to_pd-color 0;
#X obj 78 40 * -256;
#X obj 13 40 * -65536;
#X obj 143 41 * -1;
#X obj 13 19 int;
#X obj 78 18 int;
#X obj 143 19 int;
#X obj 78 92 +;
#X obj 65 117 +;
#X obj 65 161 outlet;
#X obj 13 -1 inlet;
#X obj 78 -3 inlet;
#X obj 143 -1 inlet;
#X connect 0 0 6 0;
#X connect 1 0 7 0;
#X connect 2 0 6 1;
#X connect 3 0 1 0;
#X connect 4 0 0 0;
#X connect 5 0 2 0;
#X connect 6 0 7 1;
#X connect 7 0 8 0;
#X connect 9 0 3 0;
#X connect 10 0 4 0;
#X connect 11 0 5 0;
#X restore 8 252 pd convert_to_pd-color;
#N canvas 814 247 252 364 assign 0;
#X obj 16 11 inlet;
#X obj 16 317 outlet;
#X obj 16 54 route 0 1 2 3 4 5 6 7;
#X obj 16 258 unpack f f f;
#X obj 64 317 outlet;
#X obj 111 317 outlet;
#X msg 33 206 120 120 120;
#X msg 51 186 10 10 120;
#X msg 69 164 120 120 10;
#X msg 87 144 120 10 10;
#X msg 104 124 10 120 120;
#X msg 122 104 10 120 60;
#X msg 140 85 120 10 120;
#X msg 16 228 10 10 10;
#X obj 16 33 mod 8;
#X connect 0 0 14 0;
#X connect 2 0 13 0;
#X connect 2 1 6 0;
#X connect 2 2 7 0;
#X connect 2 3 8 0;
#X connect 2 4 9 0;
#X connect 2 5 10 0;
#X connect 2 6 11 0;
#X connect 2 7 12 0;
#X connect 3 0 1 0;
#X connect 3 1 4 0;
#X connect 3 2 5 0;
#X connect 6 0 3 0;
#X connect 7 0 3 0;
#X connect 8 0 3 0;
#X connect 9 0 3 0;
#X connect 10 0 3 0;
#X connect 11 0 3 0;
#X connect 12 0 3 0;
#X connect 13 0 3 0;
#X connect 14 0 2 0;
#X restore 8 86 pd assign;
#X obj 8 305 outlet;
#X connect 0 0 22 0;
#X connect 1 0 2 0;
#X connect 2 0 3 0;
#X connect 2 1 4 0;
#X connect 2 2 5 0;
#X connect 3 0 6 0;
#X connect 4 0 7 0;
#X connect 5 0 8 0;
#X connect 6 0 15 0;
#X connect 7 0 17 0;
#X connect 8 0 19 0;
#X connect 9 0 12 1;
#X connect 10 0 13 1;
#X connect 11 0 14 1;
#X connect 12 0 21 0;
#X connect 13 0 21 1;
#X connect 14 0 21 2;
#X connect 15 0 16 0;
#X connect 16 0 9 0;
#X connect 17 0 18 0;
#X connect 18 0 10 0;
#X connect 19 0 20 0;
#X connect 20 0 11 0;
#X connect 21 0 23 0;
#X connect 22 0 12 0;
#X connect 22 1 13 0;
#X connect 22 2 14 0;
#X restore 22 139 pd render_color;
#X obj 91 114 list;
#X obj 112 9 r NETPD;
#X obj 112 30 route pref;
#X obj 112 51 route ch.background.clr;
#X connect 0 0 2 0;
#X connect 2 0 3 0;
#X connect 2 1 4 0;
#X connect 3 0 1 0;
#X connect 4 0 3 1;
#X connect 5 0 6 0;
#X connect 6 0 7 0;
#X connect 7 0 4 1;
#X restore 80 233 pd client_color;
#X obj 50 189 t a b;
#X obj 11 137 t a b;
#X obj 108 167 1;
#X obj 80 211 f;
#X obj 11 278 t b b b a;
#X msg 30 394 remove 201;
#X obj 11 9 r NETPD;
#X obj 11 30 route from;
#X obj 11 51 routeOSC /chat;
#X obj 11 72 routeOSC /msg;
#X obj 254 325 r NETPD;
#X obj 254 346 route pref;
#X obj 254 367 route ch.active.clr;
#X obj 254 388 netpd-rgb2iem;
#X obj 225 610 s \$0-pl-refresh;
#X obj 225 503 r NETPD;
#X obj 225 524 route pref;
#X obj 225 546 route ch.talk.fnt ch.background.clr;
#X obj 225 568 t b;
#X obj 225 590 del 0;
#X connect 0 0 1 0;
#X connect 2 0 4 0;
#X connect 3 0 2 0;
#X connect 5 0 8 0;
#X connect 7 0 12 0;
#X connect 9 0 23 0;
#X connect 12 0 6 0;
#X connect 13 0 16 0;
#X connect 16 0 15 0;
#X connect 16 1 17 0;
#X connect 17 0 14 0;
#X connect 18 0 19 0;
#X connect 21 0 20 0;
#X connect 23 0 5 0;
#X connect 24 0 29 0;
#X connect 25 0 26 0;
#X connect 25 1 28 0;
#X connect 25 2 31 1;
#X connect 26 0 32 0;
#X connect 27 0 26 2;
#X connect 28 0 26 1;
#X connect 28 1 31 0;
#X connect 29 0 25 0;
#X connect 29 1 30 0;
#X connect 30 0 31 1;
#X connect 31 0 27 0;
#X connect 32 0 11 0;
#X connect 32 1 33 0;
#X connect 32 3 9 0;
#X connect 33 0 10 0;
#X connect 34 0 35 0;
#X connect 35 0 36 0;
#X connect 36 0 37 0;
#X connect 37 0 24 0;
#X connect 38 0 39 0;
#X connect 39 0 40 0;
#X connect 40 0 41 0;
#X connect 41 0 21 0;
#X connect 43 0 44 0;
#X connect 44 0 45 0;
#X connect 45 0 46 0;
#X connect 45 1 46 0;
#X connect 46 0 47 0;
#X connect 47 0 42 0;
#X restore 9 48 pd talkdisplay;
#N canvas 357 182 826 326 connect-button 0;
#X obj 8 89 + 1;
#X obj 8 111 mod 2;
#X obj 8 153 s \$0-connect-r;
#X msg 8 132 range \$1 \$1;
#X obj 113 54 sel 0 1;
#X msg 113 98 label offline;
#X msg 135 77 label online;
#X obj 113 293 s \$0-connect-display;
#X obj 163 151 r \$0-toall;
#X obj 302 85 del 300;
#X obj 302 57 spigot 1;
#X obj 302 35 b;
#X obj 334 111 0;
#X obj 302 110 1;
#X text 369 83 select color;
#X obj 302 187 f;
#X obj 331 188 f;
#X msg 302 236 color \$1 \$2;
#X obj 302 135 f;
#X obj 180 29 r \$0-gui.update;
#X msg 705 174 label_font \$1 \$2;
#X obj 302 13 r \$0-connect;
#X obj 302 159 sel 1 0;
#X obj 397 13 loadbang;
#X obj 302 214 list append 0;
#X obj 52 62 loadbang;
#X obj 48 214 loadbang;
#X obj 48 237 1;
#X obj 8 26 route connection;
#X obj 8 5 r NETPD;
#X obj 487 10 r NETPD;
#X obj 487 31 route pref;
#X obj 487 52 route ch.background.clr ch.active.clr ch.font.clr ch.buttons.fnt
;
#X obj 514 151 netpd-rgb2iem;
#X obj 586 131 netpd-rgb2iem;
#X obj 659 109 netpd-rgb2iem;
#X obj 487 87 t b a;
#X obj 559 86 t b a;
#X obj 632 87 t b a;
#X obj 448 126 t b;
#X connect 0 0 1 0;
#X connect 1 0 3 0;
#X connect 3 0 2 0;
#X connect 4 0 5 0;
#X connect 4 1 6 0;
#X connect 5 0 7 0;
#X connect 6 0 7 0;
#X connect 8 0 7 0;
#X connect 9 0 13 0;
#X connect 10 0 12 0;
#X connect 10 0 9 0;
#X connect 11 0 10 0;
#X connect 12 0 10 1;
#X connect 12 0 18 0;
#X connect 13 0 10 1;
#X connect 13 0 18 0;
#X connect 15 0 24 0;
#X connect 16 0 24 0;
#X connect 17 0 7 0;
#X connect 18 0 22 0;
#X connect 19 0 18 0;
#X connect 20 0 7 0;
#X connect 21 0 11 0;
#X connect 22 0 15 0;
#X connect 22 1 16 0;
#X connect 23 0 11 0;
#X connect 24 0 17 0;
#X connect 25 0 5 0;
#X connect 26 0 27 0;
#X connect 27 0 3 0;
#X connect 28 0 0 0;
#X connect 28 0 4 0;
#X connect 29 0 28 0;
#X connect 30 0 31 0;
#X connect 31 0 32 0;
#X connect 32 0 36 0;
#X connect 32 1 37 0;
#X connect 32 2 38 0;
#X connect 32 3 20 0;
#X connect 33 0 15 1;
#X connect 34 0 16 1;
#X connect 35 0 24 1;
#X connect 36 0 39 0;
#X connect 36 1 33 0;
#X connect 37 0 39 0;
#X connect 37 1 34 0;
#X connect 38 0 39 0;
#X connect 38 1 35 0;
#X connect 39 0 18 0;
#X restore 9 88 pd connect-button;
#N canvas 713 169 543 290 clients-display 0;
#X msg 10 122 list \$1 clients;
#X msg 10 168 label \$1;
#X obj 88 165 r \$0-toall;
#X obj 10 235 s \$0-onlinedisplay;
#X obj 231 124 pack;
#X obj 328 95 t b a;
#X msg 231 147 color \$1 \$2;
#X msg 429 140 label_font \$1 \$2;
#N canvas 0 0 650 442 list-l2s 0;
#X msg 327 196 set %s;
#X obj 235 244 t a;
#X obj 118 252 makefilename %s;
#X obj 96 62 t b a b;
#X obj 96 283 symbol;
#X msg 142 22 a b c d 1 2;
#X obj 118 158 route symbol float;
#X obj 118 186 symbol;
#X obj 178 190 makefilename %d;
#X obj 96 21 inlet;
#X obj 96 313 outlet;
#X obj 395 89 loadbang;
#X msg 395 228 set set \, adddollsym \$1;
#X msg 235 265 set \$1 %s;
#N canvas 0 0 533 407 drip 0;
#X obj 64 206 list split 1;
#X obj 64 123 until;
#X obj 64 181 list append;
#X obj 194 206 bang;
#X text 146 90 First store list \, then start the loop;
#X text 163 118 "until" bangs its output until told to stop by a "bang"
to its right inlet.;
#X text 182 160 Store the remaining list.;
#X text 239 205 third outlet of "split" tells us to stop.;
#X obj 64 243 outlet;
#X obj 64 57 inlet;
#X text 237 44 From list-help.pd;
#X obj 143 243 outlet;
#X obj 64 86 t b a;
#X connect 0 0 8 0;
#X connect 0 1 2 1;
#X connect 0 2 3 0;
#X connect 0 2 11 0;
#X connect 1 0 2 0;
#X connect 2 0 0 0;
#X connect 3 0 1 1;
#X connect 9 0 12 0;
#X connect 12 0 1 0;
#X connect 12 1 2 1;
#X restore 118 123 pd drip;
#X obj 395 156 makefilename %c;
#X msg 395 118 32;
#X obj 395 192 makefilename 1%s%%s;
#X connect 0 0 2 0;
#X connect 1 0 13 0;
#X connect 2 0 1 0;
#X connect 2 0 4 1;
#X connect 3 0 4 0;
#X connect 3 1 14 0;
#X connect 3 2 0 0;
#X connect 4 0 10 0;
#X connect 5 0 3 0;
#X connect 6 0 7 0;
#X connect 6 1 8 0;
#X connect 7 0 2 0;
#X connect 8 0 2 0;
#X connect 9 0 3 0;
#X connect 11 0 16 0;
#X connect 12 0 13 0;
#X connect 13 0 2 0;
#X connect 14 0 6 0;
#X connect 15 0 17 0;
#X connect 16 0 15 0;
#X connect 17 0 12 0;
#X restore 10 144 pd list-l2s;
#X obj 10 13 r NETPD;
#X obj 10 34 route from;
#X obj 10 54 routeOSC /server;
#X obj 10 74 routeOSC /num_of_clients;
#X obj 231 11 r NETPD;
#X obj 231 32 route pref;
#X obj 231 74 netpd-rgb2iem;
#X obj 328 74 netpd-rgb2iem;
#X obj 231 53 route ch.background.clr ch.font.clr ch.buttons.fnt;
#X connect 0 0 8 0;
#X connect 1 0 3 0;
#X connect 2 0 3 0;
#X connect 4 0 6 0;
#X connect 5 0 4 0;
#X connect 5 1 4 1;
#X connect 6 0 3 0;
#X connect 7 0 3 0;
#X connect 8 0 1 0;
#X connect 9 0 10 0;
#X connect 10 0 11 0;
#X connect 11 0 12 0;
#X connect 12 0 0 0;
#X connect 13 0 14 0;
#X connect 14 0 17 0;
#X connect 15 0 4 0;
#X connect 16 0 5 0;
#X connect 17 0 15 0;
#X connect 17 1 16 0;
#X connect 17 2 7 0;
#X restore 9 68 pd clients-display;
#N canvas 533 206 435 190 inputbox 0;
#X obj 20 110 s \$0-inputbox-r;
#X msg 20 85 set \$1;
#X msg 20 42 list >> click here & type & press <Enter>;
#X msg 294 112 color \$1 \$1;
#X obj 294 133 s \$0-input;
#X obj 20 16 loadbang;
#N canvas 0 0 650 442 list-l2s 0;
#X msg 327 196 set %s;
#X obj 235 244 t a;
#X obj 118 252 makefilename %s;
#X obj 96 62 t b a b;
#X obj 96 283 symbol;
#X msg 142 22 a b c d 1 2;
#X obj 118 158 route symbol float;
#X obj 118 186 symbol;
#X obj 178 190 makefilename %d;
#X obj 96 21 inlet;
#X obj 96 313 outlet;
#X obj 395 89 loadbang;
#X msg 395 228 set set \, adddollsym \$1;
#X msg 235 265 set \$1 %s;
#N canvas 0 0 533 407 drip 0;
#X obj 64 206 list split 1;
#X obj 64 123 until;
#X obj 64 181 list append;
#X obj 194 206 bang;
#X text 146 90 First store list \, then start the loop;
#X text 163 118 "until" bangs its output until told to stop by a "bang"
to its right inlet.;
#X text 182 160 Store the remaining list.;
#X text 239 205 third outlet of "split" tells us to stop.;
#X obj 64 243 outlet;
#X obj 64 57 inlet;
#X text 237 44 From list-help.pd;
#X obj 143 243 outlet;
#X obj 64 86 t b a;
#X connect 0 0 8 0;
#X connect 0 1 2 1;
#X connect 0 2 3 0;
#X connect 0 2 11 0;
#X connect 1 0 2 0;
#X connect 2 0 0 0;
#X connect 3 0 1 1;
#X connect 9 0 12 0;
#X connect 12 0 1 0;
#X connect 12 1 2 1;
#X restore 118 123 pd drip;
#X obj 395 156 makefilename %c;
#X msg 395 118 32;
#X obj 395 192 makefilename 1%s%%s;
#X connect 0 0 2 0;
#X connect 1 0 13 0;
#X connect 2 0 1 0;
#X connect 2 0 4 1;
#X connect 3 0 4 0;
#X connect 3 1 14 0;
#X connect 3 2 0 0;
#X connect 4 0 10 0;
#X connect 5 0 3 0;
#X connect 6 0 7 0;
#X connect 6 1 8 0;
#X connect 7 0 2 0;
#X connect 8 0 2 0;
#X connect 9 0 3 0;
#X connect 11 0 16 0;
#X connect 12 0 13 0;
#X connect 13 0 2 0;
#X connect 14 0 6 0;
#X connect 15 0 17 0;
#X connect 16 0 15 0;
#X connect 17 0 12 0;
#X restore 20 63 pd list-l2s;
#X obj 294 27 r NETPD;
#X obj 294 48 route pref;
#X obj 294 69 route ch.inputbox.clr;
#X obj 294 90 netpd-rgb2iem;
#X connect 1 0 0 0;
#X connect 2 0 6 0;
#X connect 3 0 4 0;
#X connect 5 0 2 0;
#X connect 6 0 1 0;
#X connect 7 0 8 0;
#X connect 8 0 9 0;
#X connect 9 0 10 0;
#X connect 10 0 3 0;
#X restore 9 28 pd inputbox;
#N canvas 357 182 696 299 list-button 0;
#X obj 12 6 r \$0-list;
#X obj 12 194 s \$0-listrequest;
#X obj 124 38 del 300;
#X obj 12 50 spigot 1;
#X obj 12 28 b;
#X obj 90 60 0;
#X obj 124 65 1;
#X text 194 78 select color;
#X obj 192 156 f;
#X obj 221 157 f;
#X obj 192 257 s \$0-list-display;
#X msg 192 203 color \$1 \$2;
#X obj 192 128 sel 1 0;
#X obj 192 105 1;
#X obj 192 181 list append 0;
#X msg 573 177 label_font \$1 \$2;
#X obj 355 13 r NETPD;
#X obj 355 34 route pref;
#X obj 355 55 route ch.background.clr ch.active.clr ch.font.clr ch.buttons.fnt
;
#X obj 382 154 netpd-rgb2iem;
#X obj 454 134 netpd-rgb2iem;
#X obj 527 112 netpd-rgb2iem;
#X obj 355 92 t b a;
#X obj 427 92 t b a;
#X obj 500 90 t b a;
#X obj 355 116 t b;
#X connect 0 0 4 0;
#X connect 2 0 6 0;
#X connect 3 0 5 0;
#X connect 3 0 2 0;
#X connect 3 0 1 0;
#X connect 4 0 3 0;
#X connect 5 0 3 1;
#X connect 5 0 13 0;
#X connect 6 0 3 1;
#X connect 6 0 13 0;
#X connect 8 0 14 0;
#X connect 9 0 14 0;
#X connect 11 0 10 0;
#X connect 12 0 8 0;
#X connect 12 1 9 0;
#X connect 13 0 12 0;
#X connect 14 0 11 0;
#X connect 15 0 10 0;
#X connect 16 0 17 0;
#X connect 17 0 18 0;
#X connect 18 0 22 0;
#X connect 18 1 23 0;
#X connect 18 2 24 0;
#X connect 18 3 15 0;
#X connect 19 0 8 1;
#X connect 20 0 9 1;
#X connect 21 0 14 1;
#X connect 22 0 25 0;
#X connect 22 1 19 0;
#X connect 23 0 25 0;
#X connect 23 1 20 0;
#X connect 24 0 25 0;
#X connect 24 1 21 0;
#X connect 25 0 13 0;
#X restore 9 108 pd list-button;
#N canvas 354 173 735 261 pref-button 0;
#X obj 124 38 del 300;
#X obj 12 50 spigot 1;
#X obj 12 28 b;
#X obj 90 60 0;
#X obj 124 65 1;
#X text 203 7 select color;
#X obj 192 157 f;
#X obj 221 158 f;
#X msg 192 211 color \$1 \$2;
#X obj 12 6 r \$0-pref;
#X obj 192 236 s \$0-pref-display;
#X obj 192 73 r \$0-gui.update;
#X obj 192 129 sel 1 0;
#X obj 192 106 1;
#X obj 192 189 list append 0;
#X obj 12 184 list prepend pref gui;
#X obj 12 205 list trim;
#X obj 12 226 s NETPD;
#X msg 12 164 1;
#X msg 578 194 label_font \$1 \$2;
#X obj 360 30 r NETPD;
#X obj 360 51 route pref;
#X obj 360 72 route ch.background.clr ch.active.clr ch.font.clr ch.buttons.fnt
;
#X obj 387 172 netpd-rgb2iem;
#X obj 459 152 netpd-rgb2iem;
#X obj 532 130 netpd-rgb2iem;
#X obj 360 108 t b a;
#X obj 432 108 t b a;
#X obj 505 107 t b a;
#X obj 360 140 t b;
#X connect 0 0 4 0;
#X connect 1 0 3 0;
#X connect 1 0 0 0;
#X connect 1 0 18 0;
#X connect 2 0 1 0;
#X connect 3 0 1 1;
#X connect 3 0 13 0;
#X connect 4 0 1 1;
#X connect 4 0 13 0;
#X connect 6 0 14 0;
#X connect 7 0 14 0;
#X connect 8 0 10 0;
#X connect 9 0 2 0;
#X connect 11 0 13 0;
#X connect 12 0 6 0;
#X connect 12 1 7 0;
#X connect 13 0 12 0;
#X connect 14 0 8 0;
#X connect 15 0 16 0;
#X connect 16 0 17 0;
#X connect 18 0 15 0;
#X connect 19 0 10 0;
#X connect 20 0 21 0;
#X connect 21 0 22 0;
#X connect 22 0 26 0;
#X connect 22 1 27 0;
#X connect 22 2 28 0;
#X connect 22 3 19 0;
#X connect 23 0 6 1;
#X connect 24 0 7 1;
#X connect 25 0 14 1;
#X connect 26 0 29 0;
#X connect 26 1 23 0;
#X connect 27 0 29 0;
#X connect 27 1 24 0;
#X connect 28 0 29 0;
#X connect 28 1 25 0;
#X connect 29 0 13 0;
#X restore 9 128 pd pref-button;
#N canvas 357 159 969 303 unpatch-button 0;
#X obj 291 104 sel 0 1;
#X text 362 27 select color;
#X obj 291 131 f;
#X obj 320 133 f;
#X msg 291 181 color \$1 \$2;
#N canvas 0 0 228 141 speedlimit 0;
#X obj 131 38 del 300;
#X obj 17 44 spigot 1;
#X obj 88 74 0;
#X obj 131 65 1;
#X obj 17 69 t a b;
#X obj 17 20 inlet;
#X obj 17 95 outlet;
#X connect 0 0 3 0;
#X connect 1 0 4 0;
#X connect 2 0 1 1;
#X connect 3 0 1 1;
#X connect 4 0 6 0;
#X connect 4 1 2 0;
#X connect 4 1 0 0;
#X connect 5 0 1 0;
#X restore 12 34 pd speedlimit;
#X obj 145 105 + 1;
#X obj 145 129 mod 2;
#X msg 145 150 range \$1 \$1;
#X obj 12 6 r \$0-showunpatch;
#X obj 12 167 s \$0-unpatch;
#X obj 145 171 s \$0-showunpatch-r;
#X obj 291 206 s \$0-showunpatch-display;
#X obj 291 74 f;
#X obj 291 159 list append 0;
#X msg 693 178 label_font \$1 \$2;
#X obj 475 14 r NETPD;
#X obj 475 35 route pref;
#X obj 475 56 route ch.background.clr ch.active.clr ch.font.clr ch.buttons.fnt
;
#X obj 502 157 netpd-rgb2iem;
#X obj 574 137 netpd-rgb2iem;
#X obj 647 115 netpd-rgb2iem;
#X obj 475 91 t b a;
#X obj 547 90 t b a;
#X obj 620 91 t b a;
#X obj 475 123 t b;
#X connect 0 0 2 0;
#X connect 0 1 3 0;
#X connect 2 0 14 0;
#X connect 3 0 14 0;
#X connect 4 0 12 0;
#X connect 5 0 6 0;
#X connect 5 0 10 0;
#X connect 5 0 13 0;
#X connect 6 0 7 0;
#X connect 7 0 8 0;
#X connect 8 0 11 0;
#X connect 9 0 5 0;
#X connect 13 0 0 0;
#X connect 14 0 4 0;
#X connect 15 0 12 0;
#X connect 16 0 17 0;
#X connect 17 0 18 0;
#X connect 18 0 22 0;
#X connect 18 1 23 0;
#X connect 18 2 24 0;
#X connect 18 3 15 0;
#X connect 19 0 2 1;
#X connect 20 0 3 1;
#X connect 21 0 14 1;
#X connect 22 0 25 0;
#X connect 22 1 19 0;
#X connect 23 0 25 0;
#X connect 23 1 20 0;
#X connect 24 0 25 0;
#X connect 24 1 21 0;
#X connect 25 0 13 0;
#X restore 9 166 pd unpatch-button;
#N canvas 573 97 500 307 title 0;
#X obj 52 75 r chatversion;
#X obj 52 54 s chatgetversion;
#X obj 52 97 list;
#X obj 22 31 t b b;
#X obj 22 142 list prepend CHAT;
#X obj 22 118 list;
#X obj 111 187 r \$0-toall;
#X obj 22 246 s \$0-title;
#X msg 22 187 label \$1;
#X obj 22 8 loadbang;
#X obj 187 128 pack;
#X obj 282 95 t b f;
#X msg 187 148 color \$1 \$2;
#X msg 377 182 label_font \$1 \$2;
#N canvas 0 46 650 442 list-l2s 0;
#X msg 327 196 set %s;
#X obj 235 244 t a;
#X obj 118 252 makefilename %s;
#X obj 96 62 t b a b;
#X obj 96 283 symbol;
#X msg 142 22 a b c d 1 2;
#X obj 118 158 route symbol float;
#X obj 118 186 symbol;
#X obj 178 190 makefilename %d;
#X obj 96 21 inlet;
#X obj 96 313 outlet;
#X obj 395 89 loadbang;
#X msg 395 228 set set \, adddollsym \$1;
#X msg 235 265 set \$1 %s;
#N canvas 0 0 533 407 drip 0;
#X obj 64 206 list split 1;
#X obj 64 123 until;
#X obj 64 181 list append;
#X obj 194 206 bang;
#X text 146 90 First store list \, then start the loop;
#X text 163 118 "until" bangs its output until told to stop by a "bang"
to its right inlet.;
#X text 182 160 Store the remaining list.;
#X text 239 205 third outlet of "split" tells us to stop.;
#X obj 64 243 outlet;
#X obj 64 57 inlet;
#X text 237 44 From list-help.pd;
#X obj 143 243 outlet;
#X obj 64 86 t b a;
#X connect 0 0 8 0;
#X connect 0 1 2 1;
#X connect 0 2 3 0;
#X connect 0 2 11 0;
#X connect 1 0 2 0;
#X connect 2 0 0 0;
#X connect 3 0 1 1;
#X connect 9 0 12 0;
#X connect 12 0 1 0;
#X connect 12 1 2 1;
#X restore 118 123 pd drip;
#X obj 395 156 makefilename %c;
#X msg 395 118 32;
#X obj 395 192 makefilename 1%s%%s;
#X connect 0 0 2 0;
#X connect 1 0 13 0;
#X connect 2 0 1 0;
#X connect 2 0 4 1;
#X connect 3 0 4 0;
#X connect 3 1 14 0;
#X connect 3 2 0 0;
#X connect 4 0 10 0;
#X connect 5 0 3 0;
#X connect 6 0 7 0;
#X connect 6 1 8 0;
#X connect 7 0 2 0;
#X connect 8 0 2 0;
#X connect 9 0 3 0;
#X connect 11 0 16 0;
#X connect 12 0 13 0;
#X connect 13 0 2 0;
#X connect 14 0 6 0;
#X connect 15 0 17 0;
#X connect 16 0 15 0;
#X connect 17 0 12 0;
#X restore 22 164 pd list-l2s;
#X obj 187 12 r NETPD;
#X obj 187 33 route pref;
#X obj 187 75 netpd-rgb2iem;
#X obj 282 74 netpd-rgb2iem;
#X obj 187 54 route ch.background.clr ch.font.clr ch.title.fnt;
#X connect 0 0 2 0;
#X connect 2 0 5 1;
#X connect 3 0 5 0;
#X connect 3 1 1 0;
#X connect 4 0 14 0;
#X connect 5 0 4 0;
#X connect 6 0 7 0;
#X connect 8 0 7 0;
#X connect 9 0 3 0;
#X connect 10 0 12 0;
#X connect 11 0 10 0;
#X connect 11 1 10 1;
#X connect 12 0 7 0;
#X connect 13 0 7 0;
#X connect 14 0 8 0;
#X connect 15 0 16 0;
#X connect 16 0 19 0;
#X connect 17 0 10 0;
#X connect 18 0 11 0;
#X connect 19 0 17 0;
#X connect 19 1 18 0;
#X connect 19 2 13 0;
#X restore 9 9 pd title;
#N canvas 607 310 168 165 border 0;
#X msg 27 107 color \$1 \$1;
#X obj 27 129 s \$0-border;
#X obj 27 20 r NETPD;
#X obj 27 41 route pref;
#X obj 27 62 route ch.border.clr;
#X obj 27 83 netpd-rgb2iem;
#X connect 0 0 1 0;
#X connect 2 0 3 0;
#X connect 3 0 4 0;
#X connect 4 0 5 0;
#X connect 5 0 0 0;
#X restore 9 185 pd border;
#N canvas 634 237 190 167 background 0;
#X msg 36 104 color \$1 \$1;
#X obj 36 126 s \$0-background;
#X obj 36 20 r NETPD;
#X obj 36 41 route pref;
#X obj 36 62 route ch.background.clr;
#X obj 36 83 netpd-rgb2iem;
#X connect 0 0 1 0;
#X connect 2 0 3 0;
#X connect 3 0 4 0;
#X connect 4 0 5 0;
#X connect 5 0 0 0;
#X restore 9 204 pd background;
#N canvas 357 182 804 250 mute-button 0;
#X obj 291 104 sel 0 1;
#X text 362 27 select color;
#X obj 291 132 f;
#X obj 320 133 f;
#X msg 291 181 color \$1 \$2;
#N canvas 0 0 228 141 speedlimit 0;
#X obj 131 38 del 300;
#X obj 17 44 spigot 1;
#X obj 88 74 0;
#X obj 131 65 1;
#X obj 17 69 t a b;
#X obj 17 20 inlet;
#X obj 17 95 outlet;
#X connect 0 0 3 0;
#X connect 1 0 4 0;
#X connect 2 0 1 1;
#X connect 3 0 1 1;
#X connect 4 0 6 0;
#X connect 4 1 2 0;
#X connect 4 1 0 0;
#X connect 5 0 1 0;
#X restore 12 34 pd speedlimit;
#X obj 145 105 + 1;
#X obj 145 129 mod 2;
#X msg 145 150 range \$1 \$1;
#X obj 291 74 f;
#X obj 291 159 list append 0;
#X obj 12 6 r \$0-mute;
#X obj 145 171 s \$0-mute-r;
#X obj 291 206 s \$0-mute-display;
#X obj 12 169 s \$0-muteclick;
#X msg 677 178 label_font \$1 \$2;
#X obj 459 14 r NETPD;
#X obj 459 35 route pref;
#X obj 459 56 route ch.background.clr ch.active.clr ch.font.clr ch.buttons.fnt
;
#X obj 486 160 netpd-rgb2iem;
#X obj 558 140 netpd-rgb2iem;
#X obj 631 115 netpd-rgb2iem;
#X obj 459 91 t b a;
#X obj 531 93 t b a;
#X obj 604 92 t b a;
#X obj 459 123 t b;
#X connect 0 0 2 0;
#X connect 0 1 3 0;
#X connect 2 0 10 0;
#X connect 3 0 10 0;
#X connect 4 0 13 0;
#X connect 5 0 6 0;
#X connect 5 0 9 0;
#X connect 5 0 14 0;
#X connect 6 0 7 0;
#X connect 7 0 8 0;
#X connect 8 0 12 0;
#X connect 9 0 0 0;
#X connect 10 0 4 0;
#X connect 11 0 5 0;
#X connect 15 0 13 0;
#X connect 16 0 17 0;
#X connect 17 0 18 0;
#X connect 18 0 22 0;
#X connect 18 1 23 0;
#X connect 18 2 24 0;
#X connect 18 3 15 0;
#X connect 19 0 2 1;
#X connect 20 0 3 1;
#X connect 21 0 10 1;
#X connect 22 0 25 0;
#X connect 22 1 19 0;
#X connect 23 0 25 0;
#X connect 23 1 20 0;
#X connect 24 0 25 0;
#X connect 24 1 21 0;
#X connect 25 0 9 0;
#X restore 9 147 pd mute-button;
#X obj 11 320 s \$0-toall;
#X msg 11 298 label empty;
#X text 14 258 click before saving;
#X obj 11 277 r \$0.before.saving;
#X connect 12 0 11 0;
#X connect 14 0 12 0;
#X restore 17 54 pd chat-guicode;
#N canvas 547 310 239 325 CLIENT 0;
#X obj -26 186 s NETPD;
#X obj -26 31 r NETPD;
#X msg -26 163 connection \$1;
#X obj -26 54 list trim;
#X obj -26 141 route connection;
#X obj -26 109 netpd-client;
#X obj -26 78 route tcpclient;
#X connect 1 0 3 0;
#X connect 2 0 0 0;
#X connect 3 0 6 0;
#X connect 4 0 2 0;
#X connect 5 0 4 0;
#X connect 6 0 5 0;
#X restore 18 -3 pd CLIENT;
#N canvas 518 591 616 160 keep_alive 0;
#X obj 22 68 metro 60000;
#X text 142 70 in order to keep the tcp connection alive \, we send
a dummy message every 60;
#X obj 22 113 s NETPD;
#X obj 22 24 r NETPD;
#X obj 22 44 route connection;
#X msg 22 90 to /s/dummy;
#X connect 0 0 5 0;
#X connect 3 0 4 0;
#X connect 4 0 0 0;
#X connect 5 0 2 0;
#X restore 15 126 pd keep_alive;
#N canvas 570 407 315 255 send_messages 0;
#X obj 6 5 r \$0-inputbox;
#N canvas 244 633 140 169 cut_empty 0;
#X obj 6 7 inlet;
#X obj 6 142 outlet;
#X obj 6 75 sel _;
#X obj 6 100 b;
#X obj 6 121 list append;
#X obj 6 30 t a a;
#X obj 6 52 makefilename %s_;
#X connect 0 0 5 0;
#X connect 2 1 3 0;
#X connect 3 0 4 0;
#X connect 4 0 1 0;
#X connect 5 0 6 0;
#X connect 5 1 4 1;
#X connect 6 0 2 0;
#X restore 6 27 pd cut_empty;
#X obj 6 111 list prepend;
#X obj 6 139 list append;
#X obj 6 204 list prepend to /b/chat/msg;
#X obj 6 226 s NETPD;
#X obj 100 17 r NETPD;
#X obj 100 38 route pref status;
#X obj 100 59 route netpd-name;
#X obj 149 96 route socket;
#X obj 150 119 r NETPD;
#X obj 150 140 route connection;
#X obj 6 174 spigot;
#X connect 0 0 1 0;
#X connect 1 0 2 0;
#X connect 2 0 3 0;
#X connect 3 0 12 0;
#X connect 4 0 5 0;
#X connect 6 0 7 0;
#X connect 7 0 8 0;
#X connect 7 1 9 0;
#X connect 8 0 2 1;
#X connect 9 0 3 1;
#X connect 10 0 11 0;
#X connect 11 0 12 1;
#X connect 12 0 4 0;
#X restore 15 147 pd send_messages;
#N canvas 610 374 332 278 say_hello 0;
#X obj 16 134 list prepend;
#X obj 16 183 list prepend;
#X obj 16 233 list prepend to /b/chat/msg;
#X obj 16 254 s NETPD;
#X obj 16 12 r NETPD;
#X obj 126 48 r NETPD;
#X obj 126 69 route pref;
#X obj 126 90 route netpd-welcome netpd-name;
#X obj 16 32 route from;
#X obj 16 53 routeOSC /server;
#X obj 16 74 route /socket;
#X connect 0 0 1 0;
#X connect 1 0 2 0;
#X connect 2 0 3 0;
#X connect 4 0 8 0;
#X connect 5 0 6 0;
#X connect 6 0 7 0;
#X connect 7 0 0 1;
#X connect 7 1 1 1;
#X connect 8 0 9 0;
#X connect 9 0 10 0;
#X connect 10 0 0 0;
#X restore 15 168 pd say_hello;
#N canvas 674 402 182 157 socket_request 0;
#X obj 6 22 r NETPD;
#X obj 6 43 route connection;
#X obj 6 64 sel 1;
#X msg 6 110 to /s/server/socket;
#X obj 6 131 s NETPD;
#X obj 6 87 del 100;
#X connect 0 0 1 0;
#X connect 1 0 2 0;
#X connect 2 0 5 0;
#X connect 3 0 4 0;
#X connect 5 0 3 0;
#X restore 15 188 pd socket_request;
#N canvas 498 382 245 384 list 0;
#X text 6 7 send list request;
#X obj 8 31 r \$0-listrequest;
#X msg 8 92 to /b/chat/listrequest \$1;
#X obj 8 70 f;
#X obj 8 115 s NETPD;
#X text 8 180 send list response;
#X obj 12 204 r NETPD;
#X obj 12 225 route from;
#X obj 12 246 routeOSC /chat;
#X obj 12 266 routeOSC /listrequest;
#X obj 12 349 s NETPD;
#X msg 12 327 to /\$1/chat/msg \$2 \$3 \$4;
#X obj 119 30 r NETPD;
#X obj 119 51 route status;
#X obj 119 72 route socket;
#N canvas 678 73 345 443 compose.message 0;
#X obj 67 16 r NETPD;
#X obj 67 37 route pref status;
#X obj 67 80 route netpd-name;
#X obj 116 58 route socket;
#X obj 15 18 inlet;
#X obj 15 406 outlet;
#X obj 67 102 list;
#X obj 117 178 list;
#X obj 117 107 t b b b;
#X obj 117 200 route bang;
#X msg 117 221 symbol;
#X obj 34 293 list append;
#X obj 15 382 list append;
#X obj 15 187 list append;
#X obj 34 244 makefilename %2d;
#X obj 15 354 list append;
#X obj 34 220 f;
#X obj 15 46 t a b b;
#X msg 210 63 getversion;
#X obj 210 85 s UNPATCH;
#X obj 210 107 r UNPATCH;
#X obj 210 129 route version;
#N canvas 625 56 326 411 list2symbol 0;
#X obj 166 172 loadbang;
#X msg 166 194 32;
#X obj 166 216 makefilename %c;
#X obj 103 238 list append;
#X msg 103 260 symbol \$1\$2;
#X obj 40 200 t b a;
#X obj 40 232 symbol;
#X obj 40 282 list append;
#X msg 40 304 symbol \$1\$2;
#X obj 40 157 list split 1;
#X obj 40 113 until;
#X obj 40 135 list append;
#X obj 134 121 b;
#X obj 40 89 t b a;
#X msg 171 113 symbol;
#X obj 21 52 t b a b;
#X obj 21 343 symbol;
#X obj 21 5 inlet;
#X obj 21 365 outlet;
#X obj 21 27 list;
#X connect 0 0 1 0;
#X connect 1 0 2 0;
#X connect 2 0 3 1;
#X connect 3 0 4 0;
#X connect 4 0 7 1;
#X connect 5 0 6 0;
#X connect 5 1 3 0;
#X connect 6 0 7 0;
#X connect 7 0 8 0;
#X connect 8 0 6 1;
#X connect 8 0 16 1;
#X connect 9 0 5 0;
#X connect 9 1 11 1;
#X connect 9 2 12 0;
#X connect 10 0 11 0;
#X connect 11 0 9 0;
#X connect 12 0 10 1;
#X connect 13 0 10 0;
#X connect 13 1 11 1;
#X connect 14 0 6 1;
#X connect 14 0 7 1;
#X connect 15 0 16 0;
#X connect 15 1 13 0;
#X connect 15 2 14 0;
#X connect 16 0 18 0;
#X connect 17 0 19 0;
#X connect 19 0 15 0;
#X restore 34 314 pd list2symbol;
#X obj 174 225 list prepend / unpatch;
#X obj 210 197 list append;
#X obj 210 151 list split 3;
#X msg 210 173 symbol \$1.\$2.\$3;
#X msg 34 272 list on socket:\$1;
#X connect 0 0 1 0;
#X connect 1 0 2 0;
#X connect 1 1 3 0;
#X connect 2 0 6 0;
#X connect 3 0 12 1;
#X connect 3 0 16 1;
#X connect 4 0 17 0;
#X connect 6 0 13 1;
#X connect 7 0 9 0;
#X connect 8 0 7 0;
#X connect 8 1 18 0;
#X connect 8 2 7 1;
#X connect 9 0 10 0;
#X connect 9 1 23 0;
#X connect 10 0 11 1;
#X connect 11 0 22 0;
#X connect 12 0 5 0;
#X connect 13 0 15 0;
#X connect 14 0 27 0;
#X connect 15 0 12 0;
#X connect 16 0 14 0;
#X connect 17 0 13 0;
#X connect 17 1 16 0;
#X connect 17 2 8 0;
#X connect 18 0 19 0;
#X connect 20 0 21 0;
#X connect 21 0 25 0;
#X connect 22 0 15 1;
#X connect 23 0 11 1;
#X connect 24 0 7 1;
#X connect 25 0 26 0;
#X connect 25 1 24 1;
#X connect 26 0 24 0;
#X connect 27 0 11 0;
#X restore 12 297 pd compose.message;
#X connect 1 0 3 0;
#X connect 2 0 4 0;
#X connect 3 0 2 0;
#X connect 6 0 7 0;
#X connect 7 0 8 0;
#X connect 8 0 9 0;
#X connect 9 0 15 0;
#X connect 11 0 10 0;
#X connect 12 0 13 0;
#X connect 13 0 14 0;
#X connect 14 0 3 1;
#X connect 15 0 11 0;
#X restore 15 208 pd list;
#N canvas 663 493 181 212 print_messages 0;
#X obj 10 15 r NETPD;
#X obj 10 36 route from;
#X obj 10 58 routeOSC /chat;
#X obj 10 79 routeOSC /msg;
#X msg 10 123 \$1: \$2;
#X obj 10 145 print CHAT;
#X obj 10 101 list;
#X connect 0 0 1 0;
#X connect 1 0 2 0;
#X connect 2 0 3 0;
#X connect 3 0 6 0;
#X connect 4 0 5 0;
#X connect 6 0 4 0;
#X restore 15 228 pd print_messages;
#N canvas 149 403 346 197 bell&click 0;
#N canvas 416 337 436 240 click 0;
#X obj 10 17 inlet;
#X obj 10 40 bang;
#X obj 10 137 line~;
#X obj 10 79 t b b;
#X obj 10 166 *~;
#X obj 10 201 dac~;
#X obj 145 120 noise~;
#X msg 10 105 0 10;
#X obj 145 141 hip~ 10000;
#X obj 228 144 del 10;
#X obj 228 121 t b b;
#X obj 253 172 1;
#X obj 228 171 0;
#X obj 228 192 switch~;
#X obj 228 98 spigot;
#X obj 259 34 r \$0-muteclick;
#X obj 259 76 abs;
#X obj 259 54 - 1;
#X obj 370 34 loadbang;
#X obj 370 56 1;
#X msg 48 105 0.03;
#X connect 0 0 1 0;
#X connect 1 0 3 0;
#X connect 1 0 14 0;
#X connect 2 0 4 0;
#X connect 3 0 7 0;
#X connect 3 1 20 0;
#X connect 4 0 5 0;
#X connect 4 0 5 1;
#X connect 6 0 8 0;
#X connect 7 0 2 0;
#X connect 8 0 4 1;
#X connect 9 0 12 0;
#X connect 10 0 9 0;
#X connect 10 1 11 0;
#X connect 11 0 13 0;
#X connect 12 0 13 0;
#X connect 14 0 10 0;
#X connect 15 0 17 0;
#X connect 16 0 14 1;
#X connect 17 0 16 0;
#X connect 18 0 19 0;
#X connect 19 0 14 1;
#X connect 20 0 2 0;
#X restore 16 142 pd click;
#X obj 16 30 r NETPD;
#X obj 16 52 route from;
#X obj 16 77 routeOSC /chat;
#X obj 16 99 routeOSC /msg;
#X obj 16 121 b;
#N canvas 69 107 485 258 bell 0;
#X obj 12 11 inlet;
#X obj 12 34 bang;
#X obj 12 190 dac~;
#X obj 230 92 spigot;
#X obj 261 28 r \$0-muteclick;
#X obj 261 70 abs;
#X obj 261 48 - 1;
#X obj 354 29 loadbang;
#X obj 354 51 1;
#X obj 12 135 line~;
#X obj 12 77 t b b;
#X msg 12 103 0 200;
#X obj 12 164 *~;
#X obj 86 133 osc~ 1000;
#X obj 152 136 osc~ 1500;
#X obj 230 118 t b b;
#X obj 255 169 1;
#X obj 230 168 0;
#X obj 230 189 switch~;
#X obj 230 141 del 200;
#X msg 51 103 0.01;
#X connect 0 0 1 0;
#X connect 1 0 3 0;
#X connect 1 0 10 0;
#X connect 3 0 15 0;
#X connect 4 0 6 0;
#X connect 5 0 3 1;
#X connect 6 0 5 0;
#X connect 7 0 8 0;
#X connect 8 0 3 1;
#X connect 9 0 12 0;
#X connect 10 0 11 0;
#X connect 10 1 20 0;
#X connect 11 0 9 0;
#X connect 12 0 2 0;
#X connect 12 0 2 1;
#X connect 13 0 12 1;
#X connect 14 0 12 1;
#X connect 15 0 19 0;
#X connect 15 1 16 0;
#X connect 16 0 18 0;
#X connect 17 0 18 0;
#X connect 19 0 17 0;
#X connect 20 0 9 0;
#X restore 158 146 pd bell;
#X obj 158 32 r NETPD;
#X obj 158 54 route from;
#X obj 158 79 routeOSC /server;
#X obj 158 101 routeOSC /num_of_clients;
#X obj 158 123 b;
#X text 16 8 click;
#X text 157 10 bell;
#X connect 1 0 2 0;
#X connect 2 0 3 0;
#X connect 3 0 4 0;
#X connect 4 0 5 0;
#X connect 5 0 0 0;
#X connect 7 0 8 0;
#X connect 8 0 9 0;
#X connect 9 0 10 0;
#X connect 10 0 11 0;
#X connect 11 0 6 0;
#X restore 15 249 pd bell&click;
#X restore 12 121 pd chat;
#N canvas 470 418 325 236 netpd_related_programs 0;
#X obj 18 12 r \$0-unpatch;
#N canvas 475 671 226 70 \$0.unpatch.container 0;
#X restore 18 207 pd \$0.unpatch.container;
#X obj 18 37 sel 0 1;
#X obj 37 58 \$0;
#X obj 18 151 \$0;
#X msg 18 172 \; pd-\$1.unpatch.container clear;
#X msg 37 79 \; pd-\$1.unpatch.container obj 20 20 unpatch \; pd-unpatch.pd
vis 0 \; pd-unpatch vis 1 \; pd-unpatch.pd loadbang \;;
#X connect 0 0 2 0;
#X connect 2 0 4 0;
#X connect 2 1 3 0;
#X connect 3 0 6 0;
#X connect 4 0 5 0;
#X restore 12 226 pd netpd_related_programs;
#X text 10 16 Author: Roman Haefeli (roman@netpd.org);
#X text 9 -1 CHAT;
#N canvas 397 319 510 397 preferences 0;
#X text 20 12 colors;
#X text 18 281 netpd-settings;
#X text 334 124 C H A T;
#X text 310 239 C R E A T O R;
#X obj 15 30 netpd-pref-store ch.font.clr;
#X obj 15 50 netpd-pref-store ch.background.clr;
#X obj 15 70 netpd-pref-store ch.active.clr;
#X obj 15 90 netpd-pref-store ch.border.clr;
#X obj 15 110 netpd-pref-store ch.inputbox.clr;
#X obj 251 30 netpd-pref-store ch.title.fnt;
#X obj 251 50 netpd-pref-store ch.talk.fnt;
#X obj 251 70 netpd-pref-store ch.buttons.fnt;
#X obj 19 173 netpd-pref-store cr.background1.clr;
#X obj 19 193 netpd-pref-store cr.background2.clr;
#X obj 19 213 netpd-pref-store cr.label.clr;
#X obj 19 233 netpd-pref-store cr.display.clr;
#X obj 245 170 netpd-pref-store cr.title.fnt;
#X obj 245 190 netpd-pref-store cr.label.fnt;
#X obj 245 210 netpd-pref-store cr.display.fnt;
#X text 252 13 fonts;
#X text 17 137 ____________________________________________________________
;
#X obj 18 303 netpd-pref-store netpd-name;
#X obj 18 322 netpd-pref-store netpd-welcome;
#X obj 18 341 netpd-pref-store netpd-server;
#X obj 18 360 netpd-pref-store netpd-port;
#N canvas 89 401 374 429 netpd-preferences 0;
#X symbolatom 103 15 10 0 0 0 - #0.netpd-name.r #0.netpd-name;
#X symbolatom 103 36 40 0 0 0 - #0.netpd-welcome.r #0.netpd-welcome
;
#X symbolatom 103 56 40 0 0 0 - #0.netpd-server.r #0.netpd-server;
#X floatatom 103 76 6 0 0 0 - #0.netpd-port.r #0.netpd-port;
#X text 59 14 name:;
#X text 59 74 port:;
#X obj 7 147 cnv 15 141 34 empty empty empty 20 12 0 14 -1 -66577 0
;
#X obj 8 148 cnv 15 139 32 empty empty empty 20 12 0 14 -262144 -66577
0;
#X obj 44 149 hsl 100 10 0 255 0 0 \$0-red-s \$0-red-r empty -2 -6
0 8 -258699 -1 -1 0 0;
#X obj 44 159 hsl 100 10 0 255 0 0 \$0-grn-s \$0-grn-r empty -2 -6
0 8 -24198 -1 -1 0 0;
#X obj 44 169 hsl 100 10 0 255 0 0 \$0-blu-s \$0-blu-r empty -2 -6
0 8 -62784 -1 -1 0 0;
#X obj 9 149 cnv 15 30 30 empty empty empty 20 12 0 14 -1 -66577 0
;
#X obj 10 150 cnv 15 28 28 empty \$0-preview empty 20 12 0 14 -1 -1
0;
#X text 5 105 ____________________________________________________________
;
#X obj 185 150 nbx 2 16 3 40 0 0 \$0.fontsize \$0.fontsize.r empty
0 -6 0 12 -262144 -1 -1 3 256;
#X obj 225 150 vradio 11 1 0 3 \$0.fonttype \$0.fonttype.r empty 0
-6 0 8 -262144 -1 -1 0;
#X text 238 147 courier;
#X text 239 158 helvetica;
#X text 238 170 times;
#X text 184 164 size;
#X obj 309 170 cnv 15 15 15 empty \$0-testtext testtext 0 12 0 12 -262144
-66577 0;
#X text 29 36 say hello:;
#X obj 158 119 cnv 1 1 270 empty empty empty 20 12 0 14 -1 -66577 0
;
#X obj 159 119 cnv 1 1 270 empty empty empty 20 12 0 14 -262144 -66577
0;
#X obj 47 119 cnv 15 15 15 empty empty color 0 9 1 14 -262144 -66577
0;
#X obj 244 119 cnv 15 15 15 empty empty font 0 9 1 14 -262144 -66577
0;
#X text 5 188 ____________________________________________________________
;
#X text 341 205 C;
#X text 341 228 H;
#X text 341 254 A;
#X text 341 280 T;
#X text 5 289 ____________________________________________________________
;
#X text 342 306 C;
#X text 343 317 R;
#X text 342 328 E;
#X text 342 340 A;
#X text 342 351 T;
#X text 342 362 O;
#X text 342 372 R;
#X obj 11 396 hsl 75 17 0 127 0 0 \$0.closesavesettings \$0-bli save&close
2 9 1 11 -233017 -233017 -1 0 1;
#X text 15 55 IP/hostname:;
#X text 5 377 ____________________________________________________________
;
#X obj 7 202 chat-set-clr \$0 ch.font.clr label;
#X obj 7 222 chat-set-clr \$0 ch.background.clr background;
#X obj 7 242 chat-set-clr \$0 ch.active.clr active;
#X obj 7 262 chat-set-clr \$0 ch.border.clr border;
#X obj 7 282 chat-set-clr \$0 ch.inputbox.clr inputbox;
#X obj 7 303 chat-set-clr \$0 cr.background1.clr background1;
#X obj 7 323 chat-set-clr \$0 cr.background2.clr background2;
#X obj 7 343 chat-set-clr \$0 cr.label.clr label;
#X obj 7 363 chat-set-clr \$0 cr.display.clr display;
#X obj 159 202 chat-set-fnt \$0 ch.title.fnt title;
#X obj 159 231 chat-set-fnt \$0 ch.talk.fnt talk;
#X obj 159 260 chat-set-fnt \$0 ch.buttons.fnt buttons;
#X obj 159 303 chat-set-fnt \$0 cr.title.fnt title;
#X obj 159 332 chat-set-fnt \$0 cr.label.fnt label;
#X obj 159 361 chat-set-fnt \$0 cr.display.fnt display;
#X restore 251 306 pd netpd-preferences;
#X text 252 287 Preferences Window:;
#N canvas 130 390 240 421 netpd-preferences-code 0;
#X obj 14 366 s pd-netpd-preferences;
#X obj 14 280 r NETPD;
#X obj 14 301 route pref;
#X obj 14 322 route gui;
#X msg 14 343 vis \$1;
#N canvas 421 185 245 414 color.setter 0;
#X obj 10 12 r \$0-red-s;
#X obj 76 12 r \$0-grn-s;
#X obj 142 12 r \$0-blu-s;
#X obj 10 87 pack f f f;
#X obj 10 59 f;
#X obj 76 34 t b a;
#X obj 142 34 t b a;
#X obj 10 143 s \$0.color;
#X obj 99 189 s \$0-preview;
#X msg 99 168 color \$1 -1;
#X obj 10 109 t a a;
#X obj 99 147 netpd-rgb2iem;
#X obj 165 91 loadbang;
#X msg 165 113 -1;
#X obj 13 219 r \$0.color.set;
#X obj 13 241 unpack f f f;
#X obj 13 365 s \$0-red-r;
#X obj 47 344 s \$0-grn-r;
#X obj 82 323 s \$0-blu-r;
#X msg 13 307 set \$1;
#X msg 47 287 set \$1;
#X msg 82 266 set \$1;
#X connect 0 0 4 0;
#X connect 1 0 5 0;
#X connect 2 0 6 0;
#X connect 3 0 10 0;
#X connect 4 0 3 0;
#X connect 5 0 4 0;
#X connect 5 1 3 1;
#X connect 6 0 4 0;
#X connect 6 1 3 2;
#X connect 9 0 8 0;
#X connect 10 0 7 0;
#X connect 10 1 11 0;
#X connect 11 0 9 0;
#X connect 12 0 13 0;
#X connect 13 0 9 0;
#X connect 14 0 15 0;
#X connect 14 0 11 0;
#X connect 15 0 19 0;
#X connect 15 0 4 1;
#X connect 15 1 20 0;
#X connect 15 1 3 1;
#X connect 15 2 21 0;
#X connect 15 2 3 2;
#X connect 19 0 16 0;
#X connect 20 0 17 0;
#X connect 21 0 18 0;
#X restore 13 18 pd color.setter;
#N canvas 611 96 297 302 font.setter 0;
#X obj 96 252 s \$0-testtext;
#X obj 17 195 pack;
#X msg 96 229 label_font \$1 \$2;
#X obj 25 51 t b a;
#X obj 17 231 s \$0.font;
#X obj 17 10 r \$0.fonttype;
#X obj 25 30 r \$0.fontsize;
#X obj 96 55 r \$0.font.set;
#X obj 17 163 f;
#X obj 123 201 s \$0.fonttype.r;
#X obj 180 178 s \$0.fontsize.r;
#X obj 123 104 unpack f f;
#X msg 123 154 set \$1;
#X msg 180 155 set \$1;
#X obj 96 77 t a a;
#X connect 1 0 2 0;
#X connect 1 0 4 0;
#X connect 2 0 0 0;
#X connect 3 0 8 0;
#X connect 3 1 1 1;
#X connect 5 0 8 0;
#X connect 6 0 3 0;
#X connect 7 0 14 0;
#X connect 8 0 1 0;
#X connect 11 0 12 0;
#X connect 11 0 8 1;
#X connect 11 1 13 0;
#X connect 11 1 1 1;
#X connect 12 0 9 0;
#X connect 13 0 10 0;
#X connect 14 0 2 0;
#X connect 14 1 11 0;
#X restore 13 38 pd font.setter;
#X obj 14 64 chat-set-pref \$0 netpd-name;
#X obj 14 83 chat-set-pref \$0 netpd-welcome;
#X obj 14 102 chat-set-pref \$0 netpd-server;
#X obj 14 121 chat-set-pref \$0 netpd-port;
#X obj 14 148 r \$0.closesavesettings;
#X msg 14 220 pref save \, pref gui 0;
#X obj 14 242 s NETPD;
#X obj 14 170 b;
#X obj 14 192 del 100;
#X connect 1 0 2 0;
#X connect 2 0 3 0;
#X connect 3 0 4 0;
#X connect 4 0 0 0;
#X connect 11 0 14 0;
#X connect 12 0 13 0;
#X connect 14 0 15 0;
#X connect 15 0 12 0;
#X restore 251 325 pd netpd-preferences-code;
#X obj 251 344 netpd-pref-manager netpd-preferences.cnf;
#X restore 12 163 pd preferences;
#N canvas 391 473 198 192 status 0;
#N canvas 722 518 235 208 connection 0;
#X obj 10 108 f;
#X obj 125 66 r NETPD;
#X obj 125 87 route connection;
#X obj 10 5 r NETPD;
#X obj 10 26 route status;
#X obj 10 47 route get;
#X obj 10 68 route connection;
#X obj 10 129 list prepend status connection;
#X obj 10 150 list trim;
#X obj 10 171 s NETPD;
#X obj 10 88 b;
#X connect 0 0 7 0;
#X connect 1 0 2 0;
#X connect 2 0 0 0;
#X connect 3 0 4 0;
#X connect 4 0 5 0;
#X connect 5 0 6 0;
#X connect 6 0 10 0;
#X connect 7 0 8 0;
#X connect 8 0 9 0;
#X connect 10 0 0 0;
#X restore 8 7 pd connection;
#N canvas 445 360 319 222 dsp 0;
#X obj 167 50 r pd;
#X obj 167 75 route dsp;
#X obj 11 122 f;
#X obj 11 14 r NETPD;
#X obj 11 35 route status;
#X obj 11 56 route get;
#X obj 11 77 route dsp;
#X obj 11 98 b;
#X obj 11 153 list prepend status dsp;
#X obj 11 174 list trim;
#X obj 11 195 s NETPD;
#X connect 0 0 1 0;
#X connect 1 0 2 0;
#X connect 2 0 8 0;
#X connect 3 0 4 0;
#X connect 4 0 5 0;
#X connect 5 0 6 0;
#X connect 6 0 7 0;
#X connect 7 0 2 0;
#X connect 8 0 9 0;
#X connect 9 0 10 0;
#X restore 8 26 pd dsp;
#N canvas 657 263 405 251 socket 0;
#X obj 9 13 r NETPD;
#X obj 9 55 route get;
#X obj 9 76 route socket;
#X obj 9 97 b;
#X obj 9 138 f;
#X obj 9 159 list prepend status socket;
#X obj 9 180 list trim;
#X obj 9 201 s NETPD;
#X obj 9 34 route status from;
#X obj 108 65 routeOSC /server;
#X obj 108 86 routeOSC /socket;
#X obj 218 32 r NETPD;
#X obj 218 53 route connection;
#X obj 218 75 sel 0;
#X msg 218 96 0;
#X connect 0 0 8 0;
#X connect 1 0 2 0;
#X connect 2 0 3 0;
#X connect 3 0 4 0;
#X connect 4 0 5 0;
#X connect 5 0 6 0;
#X connect 6 0 7 0;
#X connect 8 0 1 0;
#X connect 8 1 9 0;
#X connect 9 0 10 0;
#X connect 10 0 4 0;
#X connect 11 0 12 0;
#X connect 12 0 13 0;
#X connect 13 0 14 0;
#X connect 14 0 4 0;
#X restore 8 46 pd socket;
#X restore 12 184 pd status;
#N canvas 568 178 317 333 INIT 0;
#X msg 9 130 \; pd dsp 1;
#N canvas 120 155 181 227 netpd-loadbang 0;
#X obj 8 8 loadbang;
#X msg 8 28 10;
#X obj 8 48 until;
#X obj 8 69 f;
#X obj 8 90 + 1;
#X obj 8 110 list prepend loadbang;
#X obj 8 131 list trim;
#X obj 8 152 s NETPD;
#X connect 0 0 1 0;
#X connect 1 0 2 0;
#X connect 2 0 3 0;
#X connect 3 0 4 0;
#X connect 4 0 3 1;
#X connect 4 0 5 0;
#X connect 5 0 6 0;
#X connect 6 0 7 0;
#X restore 9 18 pd netpd-loadbang;
#X text 130 20 - ordered loadbang;
#X obj 9 66 r NETPD;
#X obj 9 87 route loadbang;
#X obj 9 108 sel 10;
#X text 131 133 - start DSP;
#X obj 14 251 s \$0-toall;
#X msg 14 229 label empty;
#X text 17 189 click before saving;
#X obj 14 208 r \$0.before.saving;
#X connect 3 0 4 0;
#X connect 4 0 5 0;
#X connect 5 0 0 0;
#X connect 8 0 7 0;
#X connect 10 0 8 0;
#X restore 12 100 pd INIT;
#N canvas 515 483 203 90 chat 0;
#X obj 7 7 r chatgetversion;
#X obj 7 48 s chatversion;
#X msg 7 28 2.0.0;
#X connect 0 0 2 0;
#X connect 2 0 1 0;
#X restore 12 142 pd chat version;
#X obj 248 246 bng 15 250 50 0 \$0.before.saving \$0.bli before_saving
17 7 0 10 -232576 -1 -1;
#N canvas 373 213 366 277 errors 0;
#X obj 6 31 r NETPD;
#X obj 6 53 route error;
#X obj 6 75 print ERROR;
#X text 5 8 print netpd errors:;
#X connect 0 0 1 0;
#X connect 1 0 2 0;
#X restore 12 205 pd errors;
#X obj 169 97 r NETPD;
#X obj 169 167 spigot;
#X obj 169 203 print NETPD_DEBUG;
#X obj 225 152 tgl 15 0 empty empty debug_on/off 17 7 0 10 -204786
-1 -1 0 1;
#X obj 12 72 declare -stdpath extra/osc;
#X obj 169 126 route to from;
#X obj 12 52 declare -path . -path includes;
#X connect 10 0 15 0;
#X connect 11 0 12 0;
#X connect 13 0 11 1;
#X connect 15 0 11 0;
#X restore 240 198 pd netpd;
#X obj 3 2 cnv 15 347 17 empty \$0-border empty 6 8 1 12 -1 -1 0;
#X obj 4 3 cnv 15 345 15 empty \$0-title empty 6 8 1 12 -241213 -1
0;
#X obj 3 220 cnv 6 59 16 empty \$0-border empty 6 7 1 12 -1 -1 0;
#X obj 4 221 cnv 14 57 14 empty \$0-onlinedisplay empty 4 7 1 10
-241213 -1 0;
#X obj 190 240 cnv 6 94 16 empty \$0-border empty 6 7 1 12 -1 -1 0
;
#X obj 191 241 cnv 14 92 14 empty \$0-background empty 2 6 0 12 -241213
-241213 0;
#X obj 66 220 cnv 6 284 16 empty \$0-border empty 6 7 1 12 -1 -1 0
;
#X obj 68 222 cnv 12 280 12 empty \$0-input empty 6 7 1 12 -241213
-241213 0;
#X symbolatom 67 221 46 0 0 0 - #0-inputbox-r #0-inputbox;
#X obj 3 240 cnv 6 60 16 empty \$0-border empty 6 7 1 12 -1 -1 0;
#X obj 7 241 hsl 53 14 0 0 0 0 \$0-connect \$0-connect-r empty -2 -8
0 10 -262144 -1 -1 0 1;
#X obj 4 241 cnv 14 58 14 empty \$0-connect-display empty 2 7 1 10
-241213 -1 0;
#X obj 67 240 cnv 6 37 16 empty \$0-border empty 6 7 1 12 -1 -1 0;
#X obj 71 241 hsl 30 14 0 0 0 0 \$0-list \$0-list-r empty -2 -8 0 10
-262144 -1 -1 0 1;
#X obj 68 241 cnv 14 35 14 empty \$0-list-display list 2 7 1 10 -241213
-1 0;
#X obj 108 240 cnv 6 37 16 empty \$0-border empty 6 7 1 12 -1 -1 0
;
#X obj 112 241 hsl 30 14 0 0 0 0 \$0-pref \$0-pref-r empty -2 -8 0
10 -262144 -1 -1 0 1;
#X obj 109 241 cnv 14 35 14 empty \$0-pref-display pref 2 7 1 10 -241213
-1 0;
#X obj 288 240 cnv 6 62 16 empty \$0-border empty 6 7 1 12 -1 -1 0
;
#X obj 292 241 hsl 55 14 1 1 0 0 \$0-showunpatch \$0-showunpatch-r
empty -2 -8 0 10 -262144 -1 -1 0 1;
#X obj 289 241 cnv 14 60 14 empty \$0-showunpatch-display unpatch 2
7 1 10 -241213 -1 0;
#X obj 336 25 vsl 14 188 187 0 0 0 \$0-scrollsensor \$0-scrollsensor-r
empty 0 -9 0 10 -195568 -195568 -1 0 1;
#X obj 3 23 cnv 3 347 193 empty \$0-border empty 6 7 1 12 -1 -1 0;
#X obj 337 24 cnv 12 12 191 empty \$0-background empty 20 12 0 14 -241213
-241213 0;
#X obj 337 24 cnv 12 12 191 empty \$0-scrollbar empty 20 12 0 14 -187246
-187246 0;
#X obj 4 200 cnv 15 70 15 empty \$0-1-nick empty 2 7 0 12 -241213 -262144
0;
#X obj 4 184 cnv 15 70 15 empty \$0-2-nick empty 2 7 0 12 -241213 -262144
0;
#X obj 4 168 cnv 15 70 15 empty \$0-3-nick empty 2 7 0 12 -241213 -262144
0;
#X obj 4 152 cnv 15 70 15 empty \$0-4-nick empty 2 7 0 12 -241213 -262144
0;
#X obj 4 136 cnv 15 70 15 empty \$0-5-nick empty 2 7 0 12 -241213 -262144
0;
#X obj 4 120 cnv 15 70 15 empty \$0-6-nick empty 2 7 0 12 -241213 -262144
0;
#X obj 4 104 cnv 15 70 15 empty \$0-7-nick empty 2 7 0 12 -241213 -262144
0;
#X obj 4 88 cnv 15 70 15 empty \$0-8-nick empty 2 7 0 12 -241213 -262144
0;
#X obj 4 72 cnv 15 70 15 empty \$0-9-nick empty 2 7 0 12 -241213 -262144
0;
#X obj 4 56 cnv 15 70 15 empty \$0-10-nick empty 2 7 0 12 -241213 -262144
0;
#X obj 4 40 cnv 15 70 15 empty \$0-11-nick empty 2 7 0 12 -241213 -262144
0;
#X obj 4 24 cnv 15 70 15 empty \$0-12-nick empty 2 7 0 12 -241213 -262144
0;
#X obj 75 200 cnv 13 260 15 empty \$0-1-line empty 2 7 0 12 -241213
-262144 0;
#X obj 75 184 cnv 13 260 15 empty \$0-2-line empty 2 7 0 12 -241213
-262144 0;
#X obj 75 168 cnv 13 260 15 empty \$0-3-line empty 2 7 0 12 -241213
-262144 0;
#X obj 75 152 cnv 13 260 15 empty \$0-4-line empty 2 7 0 12 -241213
-262144 0;
#X obj 75 136 cnv 13 260 15 empty \$0-5-line empty 2 7 0 12 -241213
-262144 0;
#X obj 75 120 cnv 13 260 15 empty \$0-6-line empty 2 7 0 12 -241213
-262144 0;
#X obj 75 104 cnv 13 260 15 empty \$0-7-line empty 2 7 0 12 -241213
-262144 0;
#X obj 75 88 cnv 13 260 15 empty \$0-8-line empty 2 7 0 12 -241213
-262144 0;
#X obj 75 72 cnv 13 260 15 empty \$0-9-line empty 2 7 0 12 -241213
-262144 0;
#X obj 75 56 cnv 13 260 15 empty \$0-10-line empty 2 7 0 12 -241213
-262144 0;
#X obj 75 40 cnv 13 260 15 empty \$0-11-line empty 2 7 0 12 -241213
-262144 0;
#X obj 75 24 cnv 13 260 15 empty \$0-12-line empty 2 7 0 12 -241213
-262144 0;
#X obj 149 240 cnv 6 37 16 empty \$0-border empty 6 7 1 12 -1 -1 0
;
#X obj 153 241 hsl 30 14 1 1 0 0 \$0-mute \$0-mute-r empty -2 -8 0
10 -262144 -1 -1 0 1;
#X obj 150 241 cnv 14 35 14 empty \$0-mute-display mute 2 7 1 10 -241213
-1 0;
