#N canvas 323 86 530 400 10;
#X obj 20 20 cnv 18 150 28 empty \$0.bg empty 20 12 0 14 -233017 -1
0;
#X text 229 23 \$1: \$0 parent;
#X text 229 38 \$2: pref name;
#X text 230 54 \$3: label;
#X msg 334 267 color \$1 -1;
#X msg 334 240 10;
#X msg 363 240 0;
#X obj 307 97 t b b;
#X msg 338 168 0;
#X msg 307 168 1;
#X obj 307 191 t a a;
#X obj 334 214 sel 1 0;
#X obj 234 376 s NETPD;
#X obj 234 333 list prepend pref set \$2;
#X obj 234 355 list trim;
#X obj 148 244 spigot 0;
#X obj 42 124 list append pref get \$2;
#X obj 42 146 list trim;
#X obj 23 96 t b b b;
#X obj 42 168 s NETPD;
#X obj 42 190 r NETPD;
#X msg 126 189 1;
#X msg 95 189 0;
#X obj 42 214 route pref;
#X obj 42 236 route \$2;
#X obj 413 209 loadbang;
#X obj 42 289 spigot;
#X obj 334 118 s \$1.reset.fnt;
#X obj 338 148 r \$1.reset.fnt;
#X obj 334 288 s \$0.bg;
#X obj 23 74 r \$0.button;
#X obj 148 324 s \$0.button.r;
#X obj 307 75 r \$0.button;
#X obj 27 24 hsl 80 20 0 127 0 0 \$0.button \$0.button.r \$3 4 12 1
13 -233017 -233017 -1 0 1;
#X msg 148 302 label_font \$1 \$2;
#X obj 148 218 r \$1.font;
#X obj 42 312 s \$1.font.set;
#X connect 4 0 29 0;
#X connect 5 0 4 0;
#X connect 6 0 4 0;
#X connect 7 0 9 0;
#X connect 7 1 27 0;
#X connect 8 0 10 0;
#X connect 9 0 10 0;
#X connect 10 0 15 1;
#X connect 10 1 11 0;
#X connect 11 0 5 0;
#X connect 11 1 6 0;
#X connect 13 0 14 0;
#X connect 14 0 12 0;
#X connect 15 0 13 0;
#X connect 15 0 34 0;
#X connect 16 0 17 0;
#X connect 17 0 19 0;
#X connect 18 0 22 0;
#X connect 18 1 16 0;
#X connect 18 2 21 0;
#X connect 20 0 23 0;
#X connect 21 0 26 1;
#X connect 22 0 26 1;
#X connect 23 0 24 0;
#X connect 24 0 26 0;
#X connect 24 0 34 0;
#X connect 25 0 6 0;
#X connect 26 0 36 0;
#X connect 28 0 8 0;
#X connect 30 0 18 0;
#X connect 32 0 7 0;
#X connect 34 0 31 0;
#X connect 35 0 15 0;
#X coords 0 -1 1 1 150 28 2 20 20;
