#N canvas 347 537 245 272 10;
#X obj 17 26 r NETPD;
#X obj 17 48 route pref;
#X msg 17 132 set \$1;
#X obj 17 70 route \$2;
#X obj 17 198 list prepend pref set \$2;
#X obj 17 220 list trim;
#X obj 17 242 s NETPD;
#X obj 17 154 s \$1.\$2.r;
#X obj 17 176 r \$1.\$2;
#X obj 17 111 list;
#X obj 17 90 route bang;
#X connect 0 0 1 0;
#X connect 1 0 3 0;
#X connect 2 0 7 0;
#X connect 3 0 10 0;
#X connect 4 0 5 0;
#X connect 5 0 6 0;
#X connect 8 0 4 0;
#X connect 9 0 2 0;
#X connect 10 1 9 0;
