#N canvas 0 106 595 562 10;
#X declare -path osc;
#N canvas 31 423 172 320 chat 0;
#N canvas 331 376 444 295 connection 0;
#X msg 143 175 disconnect;
#X msg 9 184 connect \$1 \$2;
#X obj 9 138 symbol;
#X obj 9 162 pack s f;
#X obj 9 82 sel 1 0;
#X obj 9 258 s NETPD;
#X obj 9 236 list prepend tcpclient;
#X obj 118 41 r NETPD;
#X obj 118 62 route pref;
#X obj 118 83 route netpd-server netpd-port;
#X obj 118 104 list;
#X obj 222 201 netpd-s /server/num_of_clients l;
#X msg 222 176 0;
#X obj 9 12 r \$0-connect-server;
#X connect 0 0 6 0;
#X connect 1 0 6 0;
#X connect 2 0 3 0;
#X connect 3 0 1 0;
#X connect 4 0 2 0;
#X connect 4 1 0 0;
#X connect 4 1 12 0;
#X connect 6 0 5 0;
#X connect 7 0 8 0;
#X connect 8 0 9 0;
#X connect 9 0 10 0;
#X connect 9 1 3 1;
#X connect 10 0 2 1;
#X connect 12 0 11 0;
#X connect 13 0 4 0;
#X restore 17 85 pd connection;
#N canvas 330 394 198 283 chat-guicode 0;
#N canvas 357 176 555 324 connect-button 0;
#X obj 8 26 route connection;
#X obj 8 5 r NETPD;
#X obj 212 125 ==;
#X obj 327 86 route connection;
#X obj 327 60 r NETPD;
#X obj 212 165 s \$0-connect-server;
#N canvas 733 447 419 245 netpd-auto-connect 0;
#X obj 51 154 outlet;
#X obj 12 12 loadbang;
#X obj 51 114 sel 1;
#X msg 27 63 1;
#X obj 12 32 t b b b;
#X obj 12 84 f 0;
#X obj 12 104 sel 0;
#X msg 12 164 1;
#X text 184 186 set to 1 when not defined;
#X obj 51 84 netpd-pref-get netpd-auto-connect;
#X obj 12 189 s \$0.netpd-auto-connect.r;
#X connect 1 0 4 0;
#X connect 2 0 0 0;
#X connect 3 0 5 1;
#X connect 4 0 5 0;
#X connect 4 2 9 0;
#X connect 5 0 6 0;
#X connect 6 0 7 0;
#X connect 6 0 0 0;
#X connect 7 0 10 0;
#X connect 9 0 3 0;
#X connect 9 0 2 0;
#X restore 385 28 pd netpd-auto-connect;
#X obj 212 22 r \$0.online.button;
#X obj 212 47 route bang;
#X obj 8 75 s \$0.online.button;
#X msg 8 50 set \$1;
#X connect 0 0 10 0;
#X connect 1 0 0 0;
#X connect 2 0 5 0;
#X connect 3 0 2 1;
#X connect 4 0 3 0;
#X connect 6 0 2 0;
#X connect 7 0 8 0;
#X connect 8 0 2 0;
#X connect 10 0 9 0;
#X restore 9 88 pd connect-button;
#N canvas 599 453 250 291 clients-display 0;
#X obj 10 13 r NETPD;
#X obj 10 34 route from;
#X obj 10 54 routeOSC /server;
#X obj 10 74 routeOSC /num_of_clients;
#X obj 43 109 loadbang;
#X msg 43 134 0;
#X msg 10 168 label \$1\\\ ;
#X obj 10 235 s \$0.num.clients.label;
#X connect 0 0 1 0;
#X connect 1 0 2 0;
#X connect 2 0 3 0;
#X connect 3 0 6 0;
#X connect 4 0 5 0;
#X connect 5 0 6 0;
#X connect 6 0 7 0;
#X restore 9 68 pd clients-display;
#N canvas 467 376 228 237 inputbox 0;
#X obj 11 13 loadbang;
#X obj 11 199 s \$0.input;
#X obj 11 143 netpd-rgb2iem;
#X msg 11 170 color \$1;
#X msg 11 115 200 192 208;
#X obj 11 90 loadbang;
#X obj 11 61 s \$0.input;
#X msg 11 36 set <type\ here>;
#X connect 0 0 7 0;
#X connect 2 0 3 0;
#X connect 3 0 1 0;
#X connect 4 0 2 0;
#X connect 5 0 4 0;
#X connect 7 0 6 0;
#X restore 9 28 pd inputbox;
#N canvas 357 181 433 238 list-button 0;
#X obj 12 194 s \$0-listrequest;
#X obj 157 34 route connection;
#X obj 157 13 r NETPD;
#X msg 157 58 set \$1;
#X obj 157 83 s \$0.list.button;
#X obj 12 6 r \$0.list.button;
#X obj 12 31 route bang;
#X connect 1 0 3 0;
#X connect 2 0 1 0;
#X connect 3 0 4 0;
#X connect 5 0 6 0;
#X connect 6 0 0 0;
#X restore 9 108 pd list-button;
#N canvas 354 205 306 259 pref-button 0;
#X obj 12 184 list prepend pref gui;
#X obj 12 206 list trim;
#X obj 12 226 s NETPD;
#X msg 12 164 1;
#X obj 12 6 r \$0.pref.button;
#X obj 12 29 route bang;
#X obj 145 108 s \$0.pref.button;
#X obj 144 60 loadbang;
#X msg 145 84 set 1;
#X connect 0 0 1 0;
#X connect 1 0 2 0;
#X connect 3 0 0 0;
#X connect 4 0 5 0;
#X connect 5 0 3 0;
#X connect 7 0 8 0;
#X connect 8 0 6 0;
#X restore 9 128 pd pref-button;
#N canvas 347 149 394 299 unpatch-button 0;
#X obj 12 71 ==;
#X obj 51 71 t a;
#X obj 148 18 r NETPD;
#X obj 148 41 route unpatch;
#X obj 148 64 route start stop;
#X msg 148 87 1;
#X msg 194 88 0;
#X obj 12 142 sel 0 1;
#X msg 12 172 stop;
#X msg 56 172 start;
#X obj 12 206 list prepend unpatch;
#X obj 12 229 list trim;
#X obj 12 252 s NETPD;
#X obj 148 114 t a a;
#X msg 175 144 set \$1;
#X obj 175 167 s \$0.unpatch.button;
#X obj 12 6 r \$0.unpatch.button;
#X obj 12 29 route bang;
#X connect 0 0 1 0;
#X connect 0 0 7 0;
#X connect 1 0 0 1;
#X connect 2 0 3 0;
#X connect 3 0 4 0;
#X connect 4 0 5 0;
#X connect 4 1 6 0;
#X connect 5 0 13 0;
#X connect 6 0 13 0;
#X connect 7 0 8 0;
#X connect 7 1 9 0;
#X connect 8 0 10 0;
#X connect 9 0 10 0;
#X connect 10 0 11 0;
#X connect 11 0 12 0;
#X connect 13 0 1 0;
#X connect 13 1 14 0;
#X connect 14 0 15 0;
#X connect 16 0 17 0;
#X connect 17 0 0 0;
#X restore 9 188 pd unpatch-button;
#N canvas 607 310 168 165 border 0;
#X msg 27 107 color \$1 \$1;
#X obj 27 129 s \$0-border;
#X obj 27 20 r NETPD;
#X obj 27 41 route pref;
#X obj 27 62 route ch.border.clr;
#X obj 27 83 netpd-rgb2iem;
#X connect 0 0 1 0;
#X connect 2 0 3 0;
#X connect 3 0 4 0;
#X connect 4 0 5 0;
#X connect 5 0 0 0;
#X restore 9 208 pd border;
#N canvas 634 237 190 167 background 0;
#X msg 36 104 color \$1 \$1;
#X obj 36 126 s \$0-background;
#X obj 36 20 r NETPD;
#X obj 36 41 route pref;
#X obj 36 62 route ch.background.clr;
#X obj 36 83 netpd-rgb2iem;
#X connect 0 0 1 0;
#X connect 2 0 3 0;
#X connect 3 0 4 0;
#X connect 4 0 5 0;
#X connect 5 0 0 0;
#X restore 9 228 pd background;
#N canvas 357 181 804 250 mute-button 0;
#X obj 12 212 s \$0-muteclick;
#X obj 12 56 ==;
#X obj 42 56 t a;
#X obj 12 87 t a a;
#X obj 12 6 r \$0.mute.button;
#X obj 12 29 route bang;
#X msg 39 110 set \$1;
#X obj 39 133 s \$0.mute.button;
#X connect 1 0 2 0;
#X connect 1 0 3 0;
#X connect 2 0 1 1;
#X connect 3 0 0 0;
#X connect 3 1 6 0;
#X connect 4 0 5 0;
#X connect 5 0 1 0;
#X connect 6 0 7 0;
#X restore 9 148 pd mute-button;
#N canvas 357 181 396 253 dsp-button 0;
#X msg 12 185 dsp \$1;
#X obj 12 207 s pd;
#X obj 122 7 r pd;
#X obj 122 29 route dsp;
#X obj 12 81 ==;
#X obj 44 81 t a;
#X obj 122 49 t a a;
#X obj 12 6 r \$0.dsp.button;
#X obj 12 29 route bang;
#X msg 149 72 set \$1;
#X obj 149 95 s \$0.dsp.button;
#X connect 0 0 1 0;
#X connect 2 0 3 0;
#X connect 3 0 6 0;
#X connect 4 0 5 0;
#X connect 4 0 0 0;
#X connect 5 0 4 1;
#X connect 6 0 4 1;
#X connect 6 1 9 0;
#X connect 7 0 8 0;
#X connect 8 0 4 0;
#X connect 9 0 10 0;
#X restore 9 168 pd dsp-button;
#N canvas 757 145 479 486 chatdisplay 0;
#X obj 11 63 list;
#X obj 11 117 unpack s s f;
#X obj 11 206 pack s s f;
#N canvas 505 647 308 211 client_color 0;
#X obj 22 7 inlet;
#X obj 22 183 outlet;
#X obj 22 42 t a b;
#N canvas 447 120 467 356 render_color 0;
#X obj 8 19 inlet;
#X obj 340 27 inlet;
#X obj 340 67 unpack f f f;
#X obj 340 87 / 128;
#X obj 379 87 / 128;
#X obj 419 87 / 128;
#X obj 340 108 int;
#X obj 379 108 int;
#X obj 419 108 int;
#X obj 340 182 * 128;
#X obj 379 182 * 128;
#X obj 419 181 * 128;
#X obj 8 224 +;
#X obj 106 221 +;
#X obj 197 218 +;
#X obj 340 132 * -1;
#X obj 340 153 + 1;
#X obj 379 130 * -1;
#X obj 379 151 + 1;
#X obj 419 132 * -1;
#X obj 419 153 + 1;
#N canvas 810 442 194 198 convert_to_pd-color 0;
#X obj 78 40 * -256;
#X obj 13 40 * -65536;
#X obj 143 41 * -1;
#X obj 13 19 int;
#X obj 78 18 int;
#X obj 143 19 int;
#X obj 78 92 +;
#X obj 65 117 +;
#X obj 65 161 outlet;
#X obj 13 -1 inlet;
#X obj 78 -3 inlet;
#X obj 143 -1 inlet;
#X connect 0 0 6 0;
#X connect 1 0 7 0;
#X connect 2 0 6 1;
#X connect 3 0 1 0;
#X connect 4 0 0 0;
#X connect 5 0 2 0;
#X connect 6 0 7 1;
#X connect 7 0 8 0;
#X connect 9 0 3 0;
#X connect 10 0 4 0;
#X connect 11 0 5 0;
#X restore 8 252 pd convert_to_pd-color;
#N canvas 814 247 252 364 assign 0;
#X obj 16 11 inlet;
#X obj 16 317 outlet;
#X obj 16 54 route 0 1 2 3 4 5 6 7;
#X obj 16 258 unpack f f f;
#X obj 64 317 outlet;
#X obj 111 317 outlet;
#X msg 33 206 120 120 120;
#X msg 51 186 10 10 120;
#X msg 69 164 120 120 10;
#X msg 87 144 120 10 10;
#X msg 104 124 10 120 120;
#X msg 122 104 10 120 60;
#X msg 140 85 120 10 120;
#X msg 16 228 10 10 10;
#X obj 16 33 mod 8;
#X connect 0 0 14 0;
#X connect 2 0 13 0;
#X connect 2 1 6 0;
#X connect 2 2 7 0;
#X connect 2 3 8 0;
#X connect 2 4 9 0;
#X connect 2 5 10 0;
#X connect 2 6 11 0;
#X connect 2 7 12 0;
#X connect 3 0 1 0;
#X connect 3 1 4 0;
#X connect 3 2 5 0;
#X connect 6 0 3 0;
#X connect 7 0 3 0;
#X connect 8 0 3 0;
#X connect 9 0 3 0;
#X connect 10 0 3 0;
#X connect 11 0 3 0;
#X connect 12 0 3 0;
#X connect 13 0 3 0;
#X connect 14 0 2 0;
#X restore 8 86 pd assign;
#X obj 8 305 outlet;
#X connect 0 0 22 0;
#X connect 1 0 2 0;
#X connect 2 0 3 0;
#X connect 2 1 4 0;
#X connect 2 2 5 0;
#X connect 3 0 6 0;
#X connect 4 0 7 0;
#X connect 5 0 8 0;
#X connect 6 0 15 0;
#X connect 7 0 17 0;
#X connect 8 0 19 0;
#X connect 9 0 12 1;
#X connect 10 0 13 1;
#X connect 11 0 14 1;
#X connect 12 0 21 0;
#X connect 13 0 21 1;
#X connect 14 0 21 2;
#X connect 15 0 16 0;
#X connect 16 0 9 0;
#X connect 17 0 18 0;
#X connect 18 0 10 0;
#X connect 19 0 20 0;
#X connect 20 0 11 0;
#X connect 21 0 23 0;
#X connect 22 0 12 0;
#X connect 22 1 13 0;
#X connect 22 2 14 0;
#X restore 22 139 pd render_color;
#X obj 91 114 list;
#X obj 112 9 r NETPD;
#X obj 112 30 route pref;
#X obj 112 51 route ch.background.clr;
#X connect 0 0 2 0;
#X connect 2 0 3 0;
#X connect 2 1 4 0;
#X connect 3 0 1 0;
#X connect 4 0 3 1;
#X connect 5 0 6 0;
#X connect 6 0 7 0;
#X connect 7 0 4 1;
#X restore 80 184 pd client_color;
#X obj 50 140 t a b;
#X obj 11 88 t a b;
#X obj 108 118 1;
#X obj 80 162 f;
#X obj 11 16 netpd-r /chat/msg;
#N canvas 0 106 413 217 command.display 0;
#X obj 21 17 r \$0.chat.comand.display;
#X obj 21 117 list prepend;
#X obj 21 140 list append 0;
#X obj 148 90 loadbang;
#X msg 148 113 symbol \ ;
#X obj 21 167 outlet;
#X obj 21 54 netpd-list2symbol;
#X connect 0 0 6 0;
#X connect 1 0 2 0;
#X connect 2 0 5 0;
#X connect 3 0 4 0;
#X connect 4 0 1 1;
#X connect 6 0 1 0;
#X restore 23 39 pd command.display;
#X obj 226 94 r \$0.scrollbar;
#X obj 226 117 route pos;
#X obj 154 55 s \$0.scrollbar;
#X msg 154 33 set bgcolor 232 224 240 \, set frontcolor 176 168 184
;
#X obj 154 10 loadbang;
#X obj 219 169 text define \$0.msgs;
#X obj 30 302 text set \$0.msgs;
#X msg 61 279 1e+15;
#X obj 11 324 text size \$0.msgs;
#X obj 11 377 - 12;
#X obj 11 400 max 0;
#X obj 65 403 s \$0.scrollbar;
#X msg 65 380 set totallength \$1;
#X obj 11 347 t a a;
#X obj 11 449 s \$0.scrollbar;
#X msg 11 425 set pos \$1;
#X obj 11 239 t b a b b;
#N canvas 984 635 370 164 limit.history 0;
#X obj 21 8 inlet;
#X obj 21 31 text size \$0.msgs;
#X obj 21 77 sel 1;
#X obj 21 125 text delete \$0.msgs;
#X msg 21 101 0;
#X obj 21 54 > 200;
#X connect 0 0 1 0;
#X connect 1 0 5 0;
#X connect 2 0 4 0;
#X connect 4 0 3 0;
#X connect 5 0 2 0;
#X restore 101 261 pd limit.history;
#X connect 0 0 5 0;
#X connect 1 0 2 0;
#X connect 1 1 4 0;
#X connect 1 2 7 1;
#X connect 2 0 26 0;
#X connect 3 0 2 2;
#X connect 4 0 2 1;
#X connect 4 1 7 0;
#X connect 5 0 1 0;
#X connect 5 1 6 0;
#X connect 6 0 7 1;
#X connect 7 0 3 0;
#X connect 8 0 0 0;
#X connect 9 0 0 0;
#X connect 10 0 11 0;
#X connect 13 0 12 0;
#X connect 14 0 13 0;
#X connect 17 0 16 1;
#X connect 18 0 23 0;
#X connect 19 0 20 0;
#X connect 20 0 25 0;
#X connect 22 0 21 0;
#X connect 23 0 19 0;
#X connect 23 1 22 0;
#X connect 25 0 24 0;
#X connect 26 0 18 0;
#X connect 26 1 16 0;
#X connect 26 2 17 0;
#X connect 26 3 27 0;
#X restore 9 48 pd chatdisplay;
#X restore 17 66 pd chat-guicode;
#N canvas 392 594 279 249 CLIENT 0;
#X obj 22 207 s NETPD;
#X obj 22 16 r NETPD;
#X msg 22 148 connection \$1;
#X obj 22 39 list trim;
#X obj 22 126 route connection;
#X obj 22 94 netpd-client;
#X obj 22 63 route tcpclient;
#X obj 115 148 list prepend status;
#X obj 115 170 list trim;
#X connect 1 0 3 0;
#X connect 2 0 0 0;
#X connect 3 0 6 0;
#X connect 4 0 2 0;
#X connect 4 1 7 0;
#X connect 5 0 4 0;
#X connect 6 0 5 0;
#X connect 7 0 8 0;
#X connect 8 0 0 0;
#X restore 18 9 pd CLIENT;
#N canvas 518 590 616 160 keep_alive 0;
#X obj 22 68 metro 60000;
#X text 142 70 in order to keep the tcp connection alive \, we send
a dummy message every 60;
#X obj 22 24 r NETPD;
#X obj 22 44 route connection;
#X obj 22 107 netpd-s /dummy s;
#X connect 0 0 4 0;
#X connect 2 0 3 0;
#X connect 3 0 0 0;
#X restore 15 138 pd keep_alive;
#N canvas 205 424 376 299 send_messages 0;
#N canvas 244 831 140 169 cut_empty 0;
#X obj 6 7 inlet;
#X obj 6 142 outlet;
#X obj 6 75 sel _;
#X obj 6 100 b;
#X obj 6 121 list append;
#X obj 6 30 t a a;
#X obj 6 52 makefilename %s_;
#X connect 0 0 5 0;
#X connect 2 1 3 0;
#X connect 3 0 4 0;
#X connect 4 0 1 0;
#X connect 5 0 6 0;
#X connect 5 1 4 1;
#X connect 6 0 2 0;
#X restore 6 77 pd cut_empty;
#X obj 6 141 list prepend;
#X obj 6 169 list append;
#X obj 100 47 r NETPD;
#X obj 100 68 route pref status;
#X obj 100 89 route netpd-name;
#X obj 149 126 route socket;
#X obj 150 149 r NETPD;
#X obj 150 170 route connection;
#X obj 6 204 spigot;
#X obj 6 234 netpd-s /chat/msg b;
#N canvas 0 106 450 300 parse.commands 0;
#X obj 21 18 inlet;
#X obj 21 222 outlet;
#X obj 95 16 netpd-symbol2list;
#X obj 21 41 t a a;
#X obj 21 184 spigot 1;
#X obj 95 91 list fromsymbol;
#X obj 95 114 route 47;
#X msg 95 160 0;
#X msg 140 160 1;
#X obj 203 169 list append;
#X obj 203 192 list trim;
#X obj 203 217 s \$0.chat.commands;
#X obj 95 39 list split 1;
#X obj 95 137 t b a;
#X obj 203 144 list tosymbol;
#X connect 0 0 3 0;
#X connect 2 0 12 0;
#X connect 3 0 4 0;
#X connect 3 1 2 0;
#X connect 4 0 1 0;
#X connect 5 0 6 0;
#X connect 6 0 13 0;
#X connect 6 1 8 0;
#X connect 7 0 4 1;
#X connect 8 0 4 1;
#X connect 9 0 10 0;
#X connect 10 0 11 0;
#X connect 12 0 5 0;
#X connect 12 1 9 1;
#X connect 13 0 7 0;
#X connect 13 1 14 0;
#X connect 14 0 9 0;
#X restore 6 111 pd parse.commands;
#X obj 6 5 r \$0.input;
#X obj 6 28 route from;
#X obj 6 51 symbol;
#X connect 0 0 11 0;
#X connect 1 0 2 0;
#X connect 2 0 9 0;
#X connect 3 0 4 0;
#X connect 4 0 5 0;
#X connect 4 1 6 0;
#X connect 5 0 1 1;
#X connect 6 0 2 1;
#X connect 7 0 8 0;
#X connect 8 0 9 1;
#X connect 9 0 10 0;
#X connect 11 0 1 0;
#X connect 12 0 13 0;
#X connect 13 0 14 0;
#X connect 14 0 0 0;
#X restore 15 159 pd send_messages;
#N canvas 591 360 332 278 say_hello 0;
#X obj 16 134 list prepend;
#X obj 16 183 list prepend;
#X obj 126 48 r NETPD;
#X obj 126 69 route pref;
#X obj 126 90 route netpd-welcome netpd-name;
#X obj 16 12 netpd-r /server/socket;
#X obj 16 209 netpd-s /chat/msg b;
#X connect 0 0 1 0;
#X connect 1 0 6 0;
#X connect 2 0 3 0;
#X connect 3 0 4 0;
#X connect 4 0 0 1;
#X connect 4 1 1 1;
#X connect 5 0 0 0;
#X restore 15 180 pd say_hello;
#N canvas 674 1332 206 173 socket_request 0;
#X obj 6 22 r NETPD;
#X obj 6 43 route connection;
#X obj 6 64 sel 1;
#X obj 6 87 del 100;
#X obj 6 113 netpd-s /server/socket s;
#X connect 0 0 1 0;
#X connect 1 0 2 0;
#X connect 2 0 3 0;
#X connect 3 0 4 0;
#X restore 15 200 pd socket_request;
#N canvas 387 284 245 384 list 0;
#X text 6 7 send list request;
#X obj 8 31 r \$0-listrequest;
#X obj 8 70 f;
#X text 8 180 send list response;
#X obj 119 30 r NETPD;
#X obj 119 51 route status;
#X obj 119 72 route socket;
#N canvas 375 178 640 495 compose.message 0;
#X obj 15 18 inlet;
#X obj 15 402 outlet;
#X obj 243 172 netpd-status-get version;
#X obj 15 102 netpd-pref-get netpd-name;
#X obj 70 170 netpd-status-get socket;
#X obj 405 180 netpd-status-get unpatch;
#X obj 15 41 b;
#X obj 15 70 t b b b b;
#X obj 15 378 pack s s f;
#X obj 43 216 t a a;
#X msg 216 228 / v\$1.\$2.\$3;
#X obj 405 203 sel 1 0;
#X msg 424 227 symbol;
#X msg 405 253 / unpatch;
#X msg 43 241 ▬▬▬ client-ID: \$1;
#X obj 405 281 list append;
#X obj 43 268 list append;
#X obj 216 251 list append;
#X obj 43 291 list append;
#X obj 43 314 list append;
#X obj 43 343 netpd-list2symbol;
#X obj 231 313 loadbang;
#X msg 231 335 32;
#X obj 231 359 makefilename %c;
#X obj 216 203 list append;
#X obj 216 150 t b b;
#X obj 43 190 f;
#X obj 43 145 t b b;
#X obj 405 109 netpd-status-get unpatch-protection;
#X obj 405 155 b;
#X obj 405 132 route 0 1;
#X connect 0 0 6 0;
#X connect 2 0 24 1;
#X connect 3 0 8 0;
#X connect 4 0 26 1;
#X connect 5 0 11 0;
#X connect 6 0 7 0;
#X connect 7 0 3 0;
#X connect 7 1 27 0;
#X connect 7 2 25 0;
#X connect 7 3 28 0;
#X connect 8 0 1 0;
#X connect 9 0 14 0;
#X connect 9 1 8 2;
#X connect 10 0 17 0;
#X connect 11 0 13 0;
#X connect 11 1 12 0;
#X connect 12 0 15 0;
#X connect 13 0 15 0;
#X connect 14 0 16 0;
#X connect 15 0 19 1;
#X connect 16 0 18 0;
#X connect 17 0 18 1;
#X connect 18 0 19 0;
#X connect 19 0 20 0;
#X connect 20 0 8 1;
#X connect 21 0 22 0;
#X connect 22 0 23 0;
#X connect 23 0 20 1;
#X connect 24 0 10 0;
#X connect 25 0 24 0;
#X connect 25 1 2 0;
#X connect 26 0 9 0;
#X connect 27 0 26 0;
#X connect 27 1 4 0;
#X connect 28 0 30 0;
#X connect 29 0 5 0;
#X connect 30 0 29 0;
#X connect 30 1 12 0;
#X restore 12 237 pd compose.message;
#X obj 8 102 netpd-s /chat/listrequest b;
#X obj 12 322 netpd-s /chat/msg 0;
#X msg 123 286 \$1;
#X obj 12 210 netpd-r /chat/listrequest;
#X connect 1 0 2 0;
#X connect 2 0 8 0;
#X connect 4 0 5 0;
#X connect 5 0 6 0;
#X connect 6 0 2 1;
#X connect 7 0 9 0;
#X connect 10 0 9 1;
#X connect 11 0 7 0;
#X connect 11 1 10 0;
#X restore 15 220 pd list;
#N canvas 663 615 177 140 print_messages 0;
#X msg 10 63 \$1: \$2;
#X obj 10 85 print CHAT;
#X obj 10 41 list;
#X obj 10 15 netpd-r /chat/msg;
#X connect 0 0 1 0;
#X connect 2 0 0 0;
#X connect 3 0 2 0;
#X restore 15 240 pd print_messages;
#N canvas 149 403 346 197 bell&click 0;
#N canvas 416 337 436 240 click 0;
#X obj 10 17 inlet;
#X obj 10 40 bang;
#X obj 10 137 line~;
#X obj 10 79 t b b;
#X obj 10 166 *~;
#X obj 10 201 dac~;
#X obj 145 120 noise~;
#X msg 10 105 0 10;
#X obj 145 141 hip~ 4500;
#X obj 228 144 del 10;
#X obj 228 121 t b b;
#X obj 253 172 1;
#X obj 228 171 0;
#X obj 228 192 switch~;
#X obj 228 98 spigot;
#X obj 259 34 r \$0-muteclick;
#X obj 259 76 abs;
#X obj 259 54 - 1;
#X obj 370 34 loadbang;
#X obj 370 56 1;
#X msg 48 105 0.03;
#X connect 0 0 1 0;
#X connect 1 0 3 0;
#X connect 1 0 14 0;
#X connect 2 0 4 0;
#X connect 3 0 7 0;
#X connect 3 1 20 0;
#X connect 4 0 5 0;
#X connect 4 0 5 1;
#X connect 6 0 8 0;
#X connect 7 0 2 0;
#X connect 8 0 4 1;
#X connect 9 0 12 0;
#X connect 10 0 9 0;
#X connect 10 1 11 0;
#X connect 11 0 13 0;
#X connect 12 0 13 0;
#X connect 14 0 10 0;
#X connect 15 0 17 0;
#X connect 16 0 14 1;
#X connect 17 0 16 0;
#X connect 18 0 19 0;
#X connect 19 0 14 1;
#X connect 20 0 2 0;
#X restore 16 142 pd click;
#X obj 16 30 r NETPD;
#X obj 16 52 route from;
#X obj 16 77 routeOSC /chat;
#X obj 16 99 routeOSC /msg;
#X obj 16 121 b;
#N canvas 69 107 485 258 bell 0;
#X obj 12 11 inlet;
#X obj 12 34 bang;
#X obj 12 190 dac~;
#X obj 230 92 spigot;
#X obj 261 28 r \$0-muteclick;
#X obj 261 70 abs;
#X obj 261 48 - 1;
#X obj 354 29 loadbang;
#X obj 354 51 1;
#X obj 12 135 line~;
#X obj 12 77 t b b;
#X msg 12 103 0 200;
#X obj 12 164 *~;
#X obj 86 133 osc~ 1000;
#X obj 152 136 osc~ 1500;
#X obj 230 118 t b b;
#X obj 255 169 1;
#X obj 230 168 0;
#X obj 230 189 switch~;
#X obj 230 141 del 200;
#X msg 51 103 0.01;
#X connect 0 0 1 0;
#X connect 1 0 3 0;
#X connect 1 0 10 0;
#X connect 3 0 15 0;
#X connect 4 0 6 0;
#X connect 5 0 3 1;
#X connect 6 0 5 0;
#X connect 7 0 8 0;
#X connect 8 0 3 1;
#X connect 9 0 12 0;
#X connect 10 0 11 0;
#X connect 10 1 20 0;
#X connect 11 0 9 0;
#X connect 12 0 2 0;
#X connect 12 0 2 1;
#X connect 13 0 12 1;
#X connect 14 0 12 1;
#X connect 15 0 19 0;
#X connect 15 1 16 0;
#X connect 16 0 18 0;
#X connect 17 0 18 0;
#X connect 19 0 17 0;
#X connect 20 0 9 0;
#X restore 158 146 pd bell;
#X obj 158 32 r NETPD;
#X obj 158 54 route from;
#X obj 158 79 routeOSC /server;
#X obj 158 101 routeOSC /num_of_clients;
#X obj 158 123 b;
#X text 16 8 click;
#X text 157 10 bell;
#X connect 1 0 2 0;
#X connect 2 0 3 0;
#X connect 3 0 4 0;
#X connect 4 0 5 0;
#X connect 5 0 0 0;
#X connect 7 0 8 0;
#X connect 8 0 9 0;
#X connect 9 0 10 0;
#X connect 10 0 11 0;
#X connect 11 0 6 0;
#X restore 15 261 pd bell&click;
#X restore 12 401 pd chat;
#N canvas 454 209 380 369 netpd_related_programs 0;
#N canvas 475 487 241 127 \$0.unpatch.container 0;
#X restore 17 330 pd \$0.unpatch.container;
#X obj 17 225 \$0;
#X obj 63 178 \$0;
#X msg 63 199 \; pd-\$1.unpatch.container clear;
#X msg 17 246 \; pd-\$1.unpatch.container obj 20 20 unpatch \; pd-unpatch.pd
vis 0 \; pd-unpatch vis 1 \; pd-unpatch.pd loadbang \;;
#X obj 17 12 r NETPD;
#X obj 17 35 route unpatch;
#X obj 17 58 route start stop;
#X obj 17 151 b;
#X obj 63 154 b;
#X msg 17 81 1;
#X msg 63 80 0;
#X obj 17 107 change 0;
#X obj 17 130 sel 1 0;
#X connect 1 0 4 0;
#X connect 2 0 3 0;
#X connect 5 0 6 0;
#X connect 6 0 7 0;
#X connect 7 0 10 0;
#X connect 7 1 11 0;
#X connect 8 0 1 0;
#X connect 9 0 2 0;
#X connect 10 0 12 0;
#X connect 11 0 12 0;
#X connect 12 0 13 0;
#X connect 13 0 8 0;
#X connect 13 1 9 0;
#X restore 12 486 pd netpd_related_programs;
#X text 9 359 Author: Roman Haefeli (roman@netpd.org);
#X text 9 339 CHAT;
#N canvas 472 332 587 529 preferences 0;
#X text 20 12 colors;
#X text 18 281 netpd-settings;
#X text 334 124 C H A T;
#X obj 15 30 netpd-pref-store ch.font.clr;
#X obj 15 50 netpd-pref-store ch.background.clr;
#X obj 15 70 netpd-pref-store ch.active.clr;
#X obj 15 90 netpd-pref-store ch.border.clr;
#X obj 15 110 netpd-pref-store ch.inputbox.clr;
#X obj 251 30 netpd-pref-store ch.title.fnt;
#X obj 251 50 netpd-pref-store ch.talk.fnt;
#X obj 251 70 netpd-pref-store ch.buttons.fnt;
#X obj 19 173 netpd-pref-store cr.background1.clr;
#X obj 19 193 netpd-pref-store cr.background2.clr;
#X obj 19 213 netpd-pref-store cr.label.clr;
#X obj 19 233 netpd-pref-store cr.display.clr;
#X obj 245 170 netpd-pref-store cr.title.fnt;
#X obj 245 190 netpd-pref-store cr.label.fnt;
#X obj 245 210 netpd-pref-store cr.display.fnt;
#X text 252 13 fonts;
#X text 17 137 ____________________________________________________________
;
#N canvas 0 450 379 284 netpd-preferences 0;
#X symbolatom 120 15 10 0 0 0 - #0.netpd-name.r #0.netpd-name;
#X symbolatom 120 36 40 0 0 0 - #0.netpd-welcome.r #0.netpd-welcome
;
#X symbolatom 120 56 40 0 0 0 - #0.netpd-server.r #0.netpd-server;
#X floatatom 120 76 6 0 0 0 - #0.netpd-port.r #0.netpd-port;
#X text 76 14 name:;
#X text 76 74 port:;
#X text 46 36 say hello:;
#X obj 116 246 hsl 237 19 0 127 0 0 \$0.closesavesettings \$0-bli save&close
2 9 1 11 -233017 -233017 -1 0 1;
#X obj 120 157 tgl 15 0 \$0.pd-dynamic-dsp-off \$0.pd-dynamic-dsp-off.r
empty 17 7 0 10 -262144 -1 -1 1 1;
#X floatatom 120 177 10 0 0 0 - #0.pd-audio-latency.r #0.pd-audio-latency
;
#X text 183 177 ms;
#X text 40 195 appearance:;
#X obj 123 195 hsl 73 14 0 127 0 0 \$0.show.appearance.dialog \$0.show.appearance.dialog.r
colors&fonts 0 8 0 10 -228856 -228856 -1 0 1;
#X text 3 216 __________________________________________________________
;
#X text 22 176 audio latency:;
#X text 10 154 dynamic DSP-off:;
#X text 10 134 DSP on at start:;
#X text 22 54 IP / hostname:;
#X obj 120 137 tgl 15 0 \$0.pd-start-dsp \$0.pd-start-dsp.r empty 17
7 0 10 -262144 -1 -1 1 1;
#X obj 212 175 hsl 30 14 0 127 0 0 \$0.show.alsa.dialog \$0.show.alsa.dialog.r
alsa 0 8 0 10 -228856 -228856 -1 0 1;
#X obj 250 175 hsl 30 14 0 127 0 0 \$0.show.jack.dialog \$0.show.jack.dialog.r
jack 0 8 0 10 -228856 -228856 -1 0 1;
#X text 4 114 connect at start:;
#X obj 120 117 tgl 15 0 \$0.netpd-auto-connect \$0.netpd-auto-connect.r
empty 17 7 0 10 -262144 -1 -1 1 1;
#X symbolatom 132 96 38 0 0 0 - #0.netpd-instruments-path.r #0.netpd-instruments-path
;
#X text 4 94 instruments path:;
#X obj 120 98 vsl 12 12 0 127 0 0 \$0.netpd-instruments-path.button
\$0.blu empty 0 -9 0 10 -228856 -228856 -1 0 1;
#X restore 271 303 pd netpd-preferences;
#X text 272 284 Preferences Window:;
#N canvas 123 285 417 497 netpd-preferences-code 0;
#X obj 14 456 s pd-netpd-preferences;
#X obj 14 370 r NETPD;
#X obj 14 391 route pref;
#X obj 14 412 route gui;
#X msg 14 433 vis \$1;
#N canvas 421 218 245 414 color.setter 0;
#X obj 10 12 r \$0-red-s;
#X obj 76 12 r \$0-grn-s;
#X obj 142 12 r \$0-blu-s;
#X obj 10 87 pack f f f;
#X obj 10 59 f;
#X obj 76 34 t b a;
#X obj 142 34 t b a;
#X obj 10 143 s \$0.color;
#X obj 99 189 s \$0-preview;
#X msg 99 168 color \$1 -1;
#X obj 10 109 t a a;
#X obj 99 147 netpd-rgb2iem;
#X obj 165 91 loadbang;
#X msg 165 113 -1;
#X obj 13 219 r \$0.color.set;
#X obj 13 241 unpack f f f;
#X obj 13 365 s \$0-red-r;
#X obj 47 344 s \$0-grn-r;
#X obj 82 323 s \$0-blu-r;
#X msg 13 307 set \$1;
#X msg 47 287 set \$1;
#X msg 82 266 set \$1;
#X connect 0 0 4 0;
#X connect 1 0 5 0;
#X connect 2 0 6 0;
#X connect 3 0 10 0;
#X connect 4 0 3 0;
#X connect 5 0 4 0;
#X connect 5 1 3 1;
#X connect 6 0 4 0;
#X connect 6 1 3 2;
#X connect 9 0 8 0;
#X connect 10 0 7 0;
#X connect 10 1 11 0;
#X connect 11 0 9 0;
#X connect 12 0 13 0;
#X connect 13 0 9 0;
#X connect 14 0 15 0;
#X connect 14 0 11 0;
#X connect 15 0 19 0;
#X connect 15 0 4 1;
#X connect 15 1 20 0;
#X connect 15 1 3 1;
#X connect 15 2 21 0;
#X connect 15 2 3 2;
#X connect 19 0 16 0;
#X connect 20 0 17 0;
#X connect 21 0 18 0;
#X restore 13 18 pd color.setter;
#N canvas 611 132 297 302 font.setter 0;
#X obj 96 252 s \$0-testtext;
#X obj 17 195 pack;
#X msg 96 229 label_font \$1 \$2;
#X obj 25 51 t b a;
#X obj 17 231 s \$0.font;
#X obj 17 10 r \$0.fonttype;
#X obj 25 30 r \$0.fontsize;
#X obj 96 55 r \$0.font.set;
#X obj 17 163 f;
#X obj 123 201 s \$0.fonttype.r;
#X obj 180 178 s \$0.fontsize.r;
#X obj 123 104 unpack f f;
#X msg 123 154 set \$1;
#X msg 180 155 set \$1;
#X obj 96 77 t a a;
#X connect 1 0 2 0;
#X connect 1 0 4 0;
#X connect 2 0 0 0;
#X connect 3 0 8 0;
#X connect 3 1 1 1;
#X connect 5 0 8 0;
#X connect 6 0 3 0;
#X connect 7 0 14 0;
#X connect 8 0 1 0;
#X connect 11 0 12 0;
#X connect 11 0 8 1;
#X connect 11 1 13 0;
#X connect 11 1 1 1;
#X connect 12 0 9 0;
#X connect 13 0 10 0;
#X connect 14 0 2 0;
#X connect 14 1 11 0;
#X restore 13 38 pd font.setter;
#X obj 14 258 r \$0.closesavesettings;
#X msg 14 323 pref save \, pref gui 0;
#X obj 14 345 s NETPD;
#X obj 14 280 b;
#X obj 14 302 del 100;
#X obj 14 221 chat-set-pref \$0 pd-audio-latency;
#X obj 14 201 chat-set-pref \$0 pd-dynamic-dsp-off;
#X obj 14 181 chat-set-pref \$0 pd-start-dsp;
#N canvas 0 99 560 490 show-dialogs 0;
#X obj 130 27 r \$0.show.appearance.dialog;
#X obj 130 47 sel 0;
#X obj 176 50 t a;
#X msg 130 71 vis 1;
#X obj 130 91 s pd-netpd-preferences-appearance;
#X obj 11 16 inlet;
#X msg 11 47 vis 0;
#X obj 130 143 sel 0;
#X obj 176 146 t a;
#X msg 130 167 vis 1;
#X obj 130 123 r \$0.show.alsa.dialog;
#X obj 130 233 sel 0;
#X obj 176 236 t a;
#X msg 130 257 vis 1;
#X obj 130 187 s pd-netpd-preferences-alsa;
#X obj 130 277 s pd-netpd-preferences-jack;
#X obj 130 213 r \$0.show.jack.dialog;
#X msg 41 226 vis 0;
#X msg 42 185 vis 0;
#X msg 43 134 vis 0;
#X connect 0 0 1 0;
#X connect 1 0 3 0;
#X connect 1 0 19 0;
#X connect 1 1 2 0;
#X connect 2 0 1 1;
#X connect 3 0 4 0;
#X connect 5 0 6 0;
#X connect 6 0 4 0;
#X connect 6 0 14 0;
#X connect 6 0 15 0;
#X connect 7 0 9 0;
#X connect 7 0 17 0;
#X connect 7 1 8 0;
#X connect 8 0 7 1;
#X connect 9 0 14 0;
#X connect 10 0 7 0;
#X connect 11 0 13 0;
#X connect 11 0 18 0;
#X connect 11 1 12 0;
#X connect 12 0 11 1;
#X connect 13 0 15 0;
#X connect 16 0 11 0;
#X connect 17 0 15 0;
#X connect 17 0 4 0;
#X connect 18 0 14 0;
#X connect 18 0 4 0;
#X connect 19 0 14 0;
#X connect 19 0 15 0;
#X restore 159 457 pd show-dialogs;
#N canvas 641 263 296 419 jack_latency 0;
#X msg 130 68 2 \$1;
#X obj 130 89 pow;
#X obj 130 44 + 6;
#X obj 18 158 *;
#X obj 39 135 t b a;
#X text 47 77 why?;
#X obj 18 16 r \$0.jack.periods;
#X obj 130 15 r \$0.jack.frames;
#X text 69 271 convert samples to ms;
#X obj 18 271 t a b;
#X obj 18 318 /;
#X obj 45 295 samplerate~;
#X obj 18 341 * 1000;
#X obj 18 371 outlet;
#X obj 18 78 + 4;
#X obj 18 209 + 150;
#X text 58 211 add constant of 150 samples (why?);
#X connect 0 0 1 0;
#X connect 1 0 4 0;
#X connect 2 0 0 0;
#X connect 3 0 15 0;
#X connect 4 0 3 0;
#X connect 4 1 3 1;
#X connect 6 0 14 0;
#X connect 7 0 2 0;
#X connect 9 0 10 0;
#X connect 9 1 11 0;
#X connect 10 0 12 0;
#X connect 11 0 10 1;
#X connect 12 0 13 0;
#X connect 14 0 3 0;
#X connect 15 0 9 0;
#X restore 218 362 pd jack_latency;
#N canvas 238 169 418 371 alsa_latency 0;
#X obj 173 87 <<;
#X obj 173 41 t b a;
#X msg 173 64 64;
#X text 235 191 ALSA blocksize in ms;
#X obj 35 159 /;
#X obj 49 131 t b a;
#X obj 35 181 int;
#X obj 35 222 *;
#X obj 35 202 max 1;
#X obj 35 76 r \$0.alsa.msec;
#X obj 173 15 r \$0.alsa.blocksize;
#X obj 35 297 outlet;
#X text 224 112 convert samples to ms;
#X obj 173 112 t a b;
#X obj 173 159 /;
#X obj 200 136 samplerate~;
#X obj 173 182 * 1000;
#X obj 129 225 loadbang;
#X obj 129 245 samplerate~;
#X msg 129 265 1000 \$1;
#X obj 129 285 /;
#X obj 129 305 * 198;
#X obj 35 250 +;
#X connect 0 0 13 0;
#X connect 1 0 2 0;
#X connect 1 1 0 1;
#X connect 2 0 0 0;
#X connect 4 0 6 0;
#X connect 5 0 4 0;
#X connect 5 1 4 1;
#X connect 5 1 7 1;
#X connect 6 0 8 0;
#X connect 7 0 22 0;
#X connect 8 0 7 0;
#X connect 9 0 4 0;
#X connect 10 0 1 0;
#X connect 13 0 14 0;
#X connect 13 1 15 0;
#X connect 14 0 16 0;
#X connect 15 0 14 1;
#X connect 16 0 5 0;
#X connect 17 0 18 0;
#X connect 18 0 19 0;
#X connect 19 0 20 0;
#X connect 20 0 21 0;
#X connect 21 0 22 1;
#X connect 22 0 11 0;
#X restore 199 340 pd alsa_latency;
#X obj 199 394 s \$0.pd-audio-latency.r;
#X obj 116 414 sel 0;
#X obj 14 161 chat-set-pref \$0 netpd-auto-connect;
#X obj 14 121 chat-set-pref \$0 netpd-port;
#X obj 14 102 chat-set-pref \$0 netpd-server;
#X obj 14 83 chat-set-pref \$0 netpd-welcome;
#X obj 14 64 chat-set-pref \$0 netpd-name;
#X obj 14 141 chat-set-pref \$0 netpd-instruments-path;
#N canvas 399 356 383 246 dir.selector 0;
#X obj 18 42 r \$0.netpd-instruments-path.button;
#X obj 18 65 sel;
#X obj 45 65 t a;
#X msg 18 89 dir;
#X obj 18 112 pdcontrol;
#X obj 18 135 openpanel 1;
#X obj 18 160 s \$0.netpd-instruments-path.r;
#X connect 0 0 1 0;
#X connect 1 0 3 0;
#X connect 1 1 2 0;
#X connect 2 0 1 1;
#X connect 3 0 4 0;
#X connect 4 0 5 0;
#X connect 5 0 6 0;
#X restore 255 141 pd dir.selector;
#X connect 1 0 2 0;
#X connect 2 0 3 0;
#X connect 3 0 4 0;
#X connect 3 0 19 0;
#X connect 4 0 0 0;
#X connect 7 0 10 0;
#X connect 8 0 9 0;
#X connect 10 0 11 0;
#X connect 11 0 8 0;
#X connect 16 0 18 0;
#X connect 17 0 18 0;
#X connect 19 0 15 0;
#X restore 271 379 pd netpd-preferences-code;
#X obj 271 398 netpd-pref-manager netpd-preferences.cnf;
#X text 308 238 U N P A T C H;
#N canvas 369 357 380 316 netpd-preferences-appearance 0;
#X obj 7 57 cnv 15 141 34 empty empty empty 20 12 0 14 -1 -66577 0
;
#X obj 8 58 cnv 15 139 32 empty empty empty 20 12 0 14 -262144 -66577
0;
#X obj 44 59 hsl 100 10 0 255 0 0 \$0-red-s \$0-red-r empty -2 -6 0
8 -258699 -1 -1 0 0;
#X obj 44 69 hsl 100 10 0 255 0 0 \$0-grn-s \$0-grn-r empty -2 -6 0
8 -24198 -1 -1 0 0;
#X obj 44 79 hsl 100 10 0 255 0 0 \$0-blu-s \$0-blu-r empty -2 -6 0
8 -62784 -1 -1 0 0;
#X obj 9 59 cnv 15 30 30 empty empty empty 20 12 0 14 -1 -66577 0;
#X obj 10 60 cnv 15 28 28 empty \$0-preview empty 20 12 0 14 -1 -1
0;
#X text 5 15 ____________________________________________________________
;
#X obj 185 60 nbx 2 16 3 40 0 0 \$0.fontsize \$0.fontsize.r empty 0
-6 0 12 -262144 -1 -1 3 256;
#X obj 225 60 vradio 11 1 0 3 \$0.fonttype \$0.fonttype.r empty 0 -6
0 8 -262144 -1 -1 0;
#X text 238 57 courier;
#X text 239 68 helvetica;
#X text 238 80 times;
#X text 184 74 size;
#X obj 309 40 cnv 15 15 15 empty \$0-testtext testtext 0 12 0 12 -262144
-66577 0;
#X obj 158 29 cnv 1 1 270 empty empty empty 20 12 0 14 -1 -66577 0
;
#X obj 159 29 cnv 1 1 270 empty empty empty 20 12 0 14 -262144 -66577
0;
#X obj 47 29 cnv 15 15 15 empty empty color 0 9 1 14 -262144 -66577
0;
#X obj 244 29 cnv 15 15 15 empty empty font 0 9 1 14 -262144 -66577
0;
#X text 5 98 ____________________________________________________________
;
#X text 359 121 C;
#X text 359 144 H;
#X text 359 167 A;
#X text 359 190 T;
#X text 5 199 ____________________________________________________________
;
#X text 5 287 ____________________________________________________________
;
#X obj 7 112 chat-set-clr \$0 ch.font.clr label;
#X obj 7 132 chat-set-clr \$0 ch.background.clr background;
#X obj 7 152 chat-set-clr \$0 ch.active.clr active;
#X obj 7 172 chat-set-clr \$0 ch.border.clr border;
#X obj 7 192 chat-set-clr \$0 ch.inputbox.clr inputbox;
#X obj 7 213 chat-set-clr \$0 cr.background1.clr background1;
#X obj 7 233 chat-set-clr \$0 cr.background2.clr background2;
#X obj 7 253 chat-set-clr \$0 cr.label.clr label;
#X obj 7 273 chat-set-clr \$0 cr.display.clr display;
#X obj 159 112 chat-set-fnt \$0 ch.title.fnt title;
#X obj 159 141 chat-set-fnt \$0 ch.talk.fnt talk;
#X obj 159 170 chat-set-fnt \$0 ch.buttons.fnt buttons;
#X obj 159 213 chat-set-fnt \$0 cr.title.fnt title;
#X obj 159 242 chat-set-fnt \$0 cr.label.fnt label;
#X obj 159 271 chat-set-fnt \$0 cr.display.fnt display;
#X text 6 6 N E T P D - A P P E A R A N C E;
#X text 359 215 U;
#X text 359 225 N;
#X text 359 235 P;
#X text 359 245 A;
#X text 359 255 T;
#X text 359 265 C;
#X text 359 275 H;
#X restore 271 322 pd netpd-preferences-appearance;
#X obj 18 455 netpd-pref-store pd-audio-latency;
#X obj 18 436 netpd-pref-store pd-dynamic-dsp-off;
#X obj 18 417 netpd-pref-store pd-start-dsp;
#N canvas 369 621 326 201 netpd-preferences-alsa 0;
#X obj 130 65 vradio 15 1 0 7 \$0.alsa.blocksize \$0.bli empty 0 -8
0 10 -1 -228856 -1 6;
#X text 113 66 64;
#X text 107 81 128;
#X text 107 96 256;
#X text 107 111 512;
#X text 101 126 1024;
#X text 101 143 2048;
#X text 101 159 4096;
#X obj 6 65 nbx 4 14 0 3000 0 0 \$0.alsa.msec \$0.blidsk empty 45 8
0 12 -1 -228856 -1 0 256;
#X text 59 66 msec;
#X text 4 48 Delay;
#X text 81 48 Block size;
#X text 4 26 Enter currently used ALSA settings:;
#X text 4 5 CALCULATE AUDIO LATENCY (ALSA);
#X restore 271 341 pd netpd-preferences-alsa;
#N canvas 379 488 327 200 netpd-preferences-jack 0;
#X obj 53 73 vradio 15 1 0 7 \$0.jack.frames \$0.bli empty 0 -8 0 10
-1 -228856 -1 0;
#X text 36 74 64;
#X text 30 89 128;
#X text 30 104 256;
#X text 30 119 512;
#X text 24 134 1024;
#X text 24 151 2048;
#X text 4 5 CALCULATE AUDIO LATENCY (JACK);
#X text 4 26 Enter currently used JACK settings:;
#X text 4 56 Frames;
#X text 24 167 4096;
#X obj 149 73 vradio 15 1 0 7 \$0.jack.periods \$0.bli empty 0 -8 0
10 -1 -228856 -1 0;
#X text 100 56 Periods;
#X text 138 74 2;
#X text 138 89 3;
#X text 138 104 4;
#X text 138 119 5;
#X text 138 134 6;
#X text 138 149 7;
#X text 138 164 8;
#X restore 271 360 pd netpd-preferences-jack;
#X obj 18 379 netpd-pref-store netpd-auto-connect;
#X obj 18 360 netpd-pref-store netpd-port;
#X obj 18 341 netpd-pref-store netpd-server;
#X obj 18 322 netpd-pref-store netpd-welcome;
#X obj 18 303 netpd-pref-store netpd-name;
#X obj 18 398 netpd-pref-store netpd-instruments-path;
#X restore 12 423 pd preferences;
#N canvas 382 290 974 304 status 0;
#N canvas 419 416 280 353 unpatch_ 0;
#X obj 10 14 r NETPD;
#X obj 10 35 route status;
#X obj 10 56 route get;
#X obj 10 267 list trim;
#X obj 10 288 s NETPD;
#X obj 10 77 route unpatch;
#X obj 10 246 list prepend status unpatch;
#X obj 109 96 s UNPATCH;
#X obj 109 116 r UNPATCH;
#X obj 10 99 t b b b;
#X msg 49 121 0;
#X msg 15 122 1;
#X obj 10 223 f;
#X obj 109 165 list prepend 1;
#X obj 109 188 route 1 0;
#X msg 109 75 running?;
#X obj 109 138 route running;
#X connect 0 0 1 0;
#X connect 1 0 2 0;
#X connect 2 0 5 0;
#X connect 3 0 4 0;
#X connect 5 0 9 0;
#X connect 6 0 3 0;
#X connect 8 0 16 0;
#X connect 9 0 11 0;
#X connect 9 0 12 0;
#X connect 9 1 15 0;
#X connect 9 2 10 0;
#X connect 10 0 12 1;
#X connect 10 0 13 1;
#X connect 11 0 13 1;
#X connect 12 0 6 0;
#X connect 13 0 14 0;
#X connect 14 0 12 0;
#X connect 14 1 12 1;
#X connect 15 0 7 0;
#X connect 16 0 13 0;
#X restore 8 70 pd unpatch_;
#X obj 8 113 netpd-status-property unpatch-protection;
#X obj 8 91 netpd-status-property version;
#X obj 8 49 netpd-status-property socket;
#X obj 324 18 r NETPD;
#X obj 324 39 route connection;
#X obj 391 63 netpd-r /server/socket;
#X obj 324 61 route 0;
#X msg 324 84 0;
#X obj 324 113 t a;
#X obj 324 254 list trim;
#X obj 324 277 s NETPD;
#X obj 420 88 r pd;
#X obj 420 113 route dsp;
#X msg 324 139 socket \$1;
#X obj 324 231 list prepend status set;
#X msg 420 139 dsp \$1;
#X obj 8 28 netpd-status-property dsp;
#X obj 500 99 r NETPD;
#X obj 500 120 route connection;
#X obj 8 7 netpd-status-property connection;
#X msg 500 143 connection \$1;
#X connect 4 0 5 0;
#X connect 5 0 7 0;
#X connect 6 0 9 0;
#X connect 7 0 8 0;
#X connect 8 0 9 0;
#X connect 9 0 14 0;
#X connect 10 0 11 0;
#X connect 12 0 13 0;
#X connect 13 0 16 0;
#X connect 14 0 15 0;
#X connect 15 0 10 0;
#X connect 16 0 15 0;
#X connect 18 0 19 0;
#X connect 19 0 21 0;
#X connect 21 0 15 0;
#X restore 12 444 pd status;
#N canvas 610 256 306 426 INIT 0;
#X msg 47 217 \; pd dsp 1;
#N canvas 120 208 181 227 netpd-loadbang 0;
#X obj 8 8 loadbang;
#X msg 8 28 10;
#X obj 8 48 until;
#X obj 8 69 f;
#X obj 8 90 + 1;
#X obj 8 110 list prepend loadbang;
#X obj 8 131 list trim;
#X obj 8 152 s NETPD;
#X connect 0 0 1 0;
#X connect 1 0 2 0;
#X connect 2 0 3 0;
#X connect 3 0 4 0;
#X connect 4 0 3 1;
#X connect 4 0 5 0;
#X connect 5 0 6 0;
#X connect 6 0 7 0;
#X restore 9 48 pd netpd-loadbang;
#X text 130 50 - ordered loadbang;
#X text 111 224 - start DSP;
#X obj 2 348 s \$0-toall;
#X msg 2 326 label empty;
#X text 5 286 click before saving;
#X obj 2 305 r \$0.before.saving;
#X obj 8 73 loadbang;
#X obj 47 196 sel 1;
#X obj 47 145 netpd-pref-get pd-start-dsp;
#X msg 23 124 1;
#X obj 8 93 t b b b;
#X obj 8 145 f 0;
#X obj 8 165 sel 0;
#X msg 8 185 1;
#X text 134 250 set to 1 when not defined;
#X obj 8 250 s \$0.pd-start-dsp.r;
#X obj 10 16 declare -path osc;
#N canvas 0 99 492 310 check.instruments.path 0;
#X obj 14 23 netpd-pref-get netpd-instruments-path;
#X msg 33 72 symbol \$1/abs;
#X obj 14 127 netpd-if-dir;
#X obj 14 100 t a a;
#X obj 14 150 list append;
#X obj 14 173 route 0 1;
#X obj 14 203 list;
#X obj 14 271 netpd-error NETPD;
#X msg 14 230 instruments directory '\$1' does not exist. Please check
netpd-instruments-dir in preferences.;
#X obj 14 46 t a a a;
#X obj 161 53 loadbang;
#X obj 161 91 symbol <not_set>;
#X obj 161 114 sel <not_set>;
#X msg 161 139 instruments directory not configured. Please check netpd-instruments-dir
in preferences.;
#X connect 0 0 9 0;
#X connect 1 0 3 0;
#X connect 2 0 4 0;
#X connect 3 0 2 0;
#X connect 3 1 4 1;
#X connect 4 0 5 0;
#X connect 5 0 6 0;
#X connect 6 0 8 0;
#X connect 8 0 7 0;
#X connect 9 0 3 0;
#X connect 9 1 1 0;
#X connect 9 2 11 1;
#X connect 10 0 11 0;
#X connect 11 0 12 0;
#X connect 12 0 13 0;
#X connect 13 0 7 0;
#X restore 5 385 pd check.instruments.path;
#X connect 5 0 4 0;
#X connect 7 0 5 0;
#X connect 8 0 12 0;
#X connect 9 0 0 0;
#X connect 10 0 11 0;
#X connect 10 0 9 0;
#X connect 11 0 13 1;
#X connect 12 0 13 0;
#X connect 12 2 10 0;
#X connect 13 0 14 0;
#X connect 14 0 15 0;
#X connect 15 0 0 0;
#X connect 15 0 17 0;
#X restore 12 380 pd INIT;
#X obj 247 523 bng 15 250 50 0 \$0.before.saving \$0.bli before_saving
17 7 0 10 -232576 -1 -1;
#N canvas 373 213 366 277 errors 0;
#X obj 6 31 r NETPD;
#X obj 6 53 route error;
#X obj 6 75 print ERROR;
#X text 5 8 print netpd errors:;
#X connect 0 0 1 0;
#X connect 1 0 2 0;
#X restore 12 465 pd errors;
#X obj 337 24 cnv 12 12 191 empty \$0-scrollbar empty 20 12 0 14 -187246
-187246 0;
#X obj 231 396 loadbang;
#X msg 231 419 2 3 0;
#N canvas 138 498 414 142 set_version 0;
#X obj 6 19 inlet;
#X obj 6 46 list prepend status set version;
#X obj 6 93 s NETPD;
#X obj 6 69 list trim;
#X connect 0 0 1 0;
#X connect 1 0 3 0;
#X connect 3 0 2 0;
#X restore 231 445 pd set_version;
#N canvas 369 189 447 158 commands 0;
#N canvas 475 170 396 351 TESTS 0;
#X obj 14 12 netpd-status-get connection 1;
#X obj 15 112 netpd-status-get socket 1;
#X obj 14 34 sel 1;
#X msg 14 56 CONNECTION OK;
#X obj 15 134 sel 0;
#X obj 14 78 s \$0.tests;
#X obj 15 223 s \$0.tests;
#X obj 304 111 r TESTS;
#X obj 271 137 spigot;
#X obj 271 90 r \$0.tests;
#X obj 271 159 print TEST;
#X obj 16 276 sel 1;
#X obj 16 320 s \$0.tests;
#X obj 16 254 netpd-status-get unpatch 1;
#X obj 42 156 spigot 1;
#X msg 111 172 0;
#X obj 271 19 r NETPD;
#X obj 271 41 route tests;
#X obj 271 63 s \$0.tests;
#X obj 42 178 t a b;
#X msg 15 201 SOCKET_NUMBER_RECEIVED \$1;
#X msg 16 298 UNPATCH_LOADED;
#X connect 0 0 2 0;
#X connect 1 0 4 0;
#X connect 2 0 3 0;
#X connect 3 0 5 0;
#X connect 4 1 14 0;
#X connect 7 0 8 1;
#X connect 8 0 10 0;
#X connect 9 0 8 0;
#X connect 11 0 21 0;
#X connect 13 0 11 0;
#X connect 14 0 19 0;
#X connect 15 0 14 1;
#X connect 16 0 17 0;
#X connect 17 0 18 0;
#X connect 19 0 20 0;
#X connect 19 1 15 0;
#X connect 20 0 6 0;
#X connect 21 0 12 0;
#X restore 314 45 pd TESTS;
#X text 311 15 deprececated;
#N canvas 389 150 1057 516 unpatch.cmd 0;
#X obj 23 77 s NETPD;
#X obj 623 21 r \$0.chat.commands;
#X msg 683 207 1;
#X msg 827 221 0;
#X obj 623 44 t a a, f 6;
#X obj 623 318 t a a;
#X obj 623 475 s NETPD;
#X obj 650 407 list append ✓;
#X obj 650 447 s \$0.chat.comand.display;
#X obj 17 230 r NETPD;
#X obj 17 276 route help;
#X obj 17 386 s \$0.chat.comand.display;
#X obj 656 72 route unpatch;
#X msg 23 22 unpatch start;
#X msg 36 48 unpatch stop;
#X obj 17 253 route unpatch;
#X msg 683 354 ---------- \, unpatch: invalid usage \, see: \, \ \ unpatch
help \, ----------;
#X obj 811 166 route on off;
#X obj 683 138 route start stop help protect;
#X msg 17 298 ---------- \, control unpatch \, Usage: \, \ \ unpatch
start|stop \, \ \ \ start and stop unpatch by command \, \ \ unpatch
protect on|off \, \ \ \ turn on|off protected mode where \, \ \ \ interaction
with any other unpatch \, \ \ \ is suppressed \, ----------;
#X obj 623 255 list prepend;
#X obj 623 278 route 1 0;
#X obj 710 326 list append ✗;
#X obj 683 302 t b a;
#X obj 656 95 t b a;
#X msg 731 95 0;
#X msg 656 118 1;
#X obj 623 146 spigot;
#X obj 156 23 r NETPD;
#X obj 156 46 route unpatch;
#X obj 156 69 route protect;
#X obj 156 92 route on off;
#X msg 156 120 1;
#X msg 190 121 0;
#X msg 156 150 status set unpatch-protection \$1;
#X obj 156 173 s NETPD;
#X connect 1 0 4 0;
#X connect 2 0 20 1;
#X connect 3 0 20 1;
#X connect 4 0 27 0;
#X connect 4 1 12 0;
#X connect 5 0 6 0;
#X connect 5 1 7 0;
#X connect 7 0 8 0;
#X connect 9 0 15 0;
#X connect 10 0 19 0;
#X connect 12 0 24 0;
#X connect 12 1 25 0;
#X connect 13 0 0 0;
#X connect 14 0 0 0;
#X connect 15 0 10 0;
#X connect 16 0 8 0;
#X connect 17 0 2 0;
#X connect 17 1 2 0;
#X connect 17 2 3 0;
#X connect 18 0 2 0;
#X connect 18 1 2 0;
#X connect 18 2 2 0;
#X connect 18 3 17 0;
#X connect 18 4 3 0;
#X connect 19 0 11 0;
#X connect 20 0 21 0;
#X connect 21 0 5 0;
#X connect 21 1 23 0;
#X connect 22 0 8 0;
#X connect 23 0 16 0;
#X connect 23 1 22 0;
#X connect 24 0 26 0;
#X connect 24 1 18 0;
#X connect 25 0 27 1;
#X connect 26 0 27 1;
#X connect 27 0 20 0;
#X connect 28 0 29 0;
#X connect 29 0 30 0;
#X connect 30 0 31 0;
#X connect 31 0 32 0;
#X connect 31 1 33 0;
#X connect 32 0 34 0;
#X connect 33 0 34 0;
#X connect 34 0 35 0;
#X restore 17 77 pd unpatch.cmd;
#N canvas 24 106 1225 711 debug.cmd 0;
#X obj 22 58 r NETPD;
#X obj 22 259 list split 1;
#X obj 56 283 list split 1;
#X obj 22 234 route sendtyped send, f 22;
#X obj 151 297 t a;
#X obj 22 372 print NETPD_SND;
#X obj 205 298 print NETPD_RCV;
#N canvas 0 205 371 257 length.limit 0;
#X obj 20 47 list split 11;
#X obj 114 97 list length;
#X msg 114 120 symbol [\$1];
#X obj 20 140 list append;
#X obj 57 70 route bang;
#X obj 20 17 inlet;
#X obj 20 202 outlet;
#X obj 20 167 list trim;
#X connect 0 0 3 0;
#X connect 0 1 4 0;
#X connect 0 2 7 0;
#X connect 1 0 2 0;
#X connect 2 0 3 1;
#X connect 3 0 7 0;
#X connect 4 0 3 1;
#X connect 4 1 1 0;
#X connect 5 0 0 0;
#X connect 7 0 6 0;
#X restore 22 343 pd length.limit;
#N canvas 0 172 371 224 length.limit 0;
#X obj 20 47 list split 11;
#X obj 114 97 list length;
#X msg 114 120 symbol [\$1];
#X obj 20 140 list append;
#X obj 57 70 route bang;
#X obj 20 17 inlet;
#X obj 20 190 outlet;
#X obj 20 167 list trim;
#X connect 0 0 3 0;
#X connect 0 1 4 0;
#X connect 0 2 7 0;
#X connect 1 0 2 0;
#X connect 2 0 3 1;
#X connect 3 0 7 0;
#X connect 4 0 3 1;
#X connect 4 1 1 0;
#X connect 5 0 0 0;
#X connect 7 0 6 0;
#X restore 205 255 pd length.limit;
#X obj 22 307 list append;
#X obj 112 133 route on off;
#X msg 112 156 1;
#X msg 146 155 0;
#X obj 22 211 spigot 0, f 15;
#X msg 229 358 debug to on;
#X obj 237 572 s NETPD;
#X msg 242 384 debug to off;
#X msg 272 416 debug from on;
#X msg 285 438 debug from off;
#X obj 112 110 route to;
#X obj 22 87 route to receiver debug;
#X obj 39 121 route l;
#X obj 22 175 spigot;
#X msg 78 145 1;
#X obj 295 135 route on off;
#X msg 295 158 1;
#X msg 329 157 0;
#X obj 205 213 spigot 0, f 15;
#X obj 222 123 route l;
#X obj 205 177 spigot;
#X msg 261 147 1;
#X obj 295 112 route from;
#X msg 39 146 0;
#X msg 221 145 0;
#X msg 301 468 debug local on;
#X msg 309 492 debug local off;
#X text 22 23 SEND;
#X text 206 25 RECEIVE;
#N canvas 0 172 371 224 length.limit 0;
#X obj 20 47 list split 11;
#X obj 114 97 list length;
#X msg 114 120 symbol [\$1];
#X obj 20 140 list append;
#X obj 57 70 route bang;
#X obj 20 17 inlet;
#X obj 20 190 outlet;
#X obj 20 167 list trim;
#X connect 0 0 3 0;
#X connect 0 1 4 0;
#X connect 0 2 7 0;
#X connect 1 0 2 0;
#X connect 2 0 3 1;
#X connect 3 0 7 0;
#X connect 4 0 3 1;
#X connect 4 1 1 0;
#X connect 5 0 0 0;
#X connect 7 0 6 0;
#X restore 391 256 pd length.limit;
#X obj 391 61 r NETPD;
#X obj 481 136 route on off;
#X msg 481 159 1;
#X msg 515 158 0;
#X obj 391 214 spigot 0, f 15;
#X obj 408 124 route l;
#X obj 391 178 spigot;
#X obj 391 90 route from sender debug;
#X text 389 26 LOCAL;
#X msg 407 146 1;
#X msg 447 148 0;
#X obj 481 113 route local;
#X obj 391 299 print NETPD_LOC;
#N canvas 0 172 371 224 length.limit 0;
#X obj 20 47 list split 11;
#X obj 114 97 list length;
#X msg 114 120 symbol [\$1];
#X obj 20 140 list append;
#X obj 57 70 route bang;
#X obj 20 17 inlet;
#X obj 20 190 outlet;
#X obj 20 167 list trim;
#X connect 0 0 3 0;
#X connect 0 1 4 0;
#X connect 0 2 7 0;
#X connect 1 0 2 0;
#X connect 2 0 3 1;
#X connect 3 0 7 0;
#X connect 4 0 3 1;
#X connect 4 1 1 0;
#X connect 5 0 0 0;
#X connect 7 0 6 0;
#X restore 571 256 pd length.limit;
#X obj 571 61 r NETPD;
#X obj 624 159 route on off;
#X msg 624 182 1;
#X msg 658 181 0;
#X obj 571 214 spigot 0, f 15;
#X obj 624 112 route debug;
#X obj 571 84 t a a;
#X obj 624 136 route raw;
#X text 575 23 RAW;
#X msg 318 520 debug raw on;
#X msg 326 544 debug raw off;
#X obj 571 299 print NETPD_RAW;
#X obj 741 28 r \$0.chat.commands;
#X obj 801 182 route on off;
#X obj 801 152 route to from local raw help;
#X msg 801 221 1;
#X obj 774 79 route debug;
#X msg 870 229 0;
#X obj 741 51 t a a, f 6;
#X obj 741 335 t a a;
#X obj 741 482 s NETPD;
#X obj 768 384 list append ✓;
#X obj 768 458 s \$0.chat.comand.display;
#X obj 13 528 r NETPD;
#X obj 13 551 route debug;
#X obj 13 574 route help;
#X obj 13 678 s \$0.chat.comand.display;
#X msg 854 410 ---------- \, debug: invalid usage \, use: \, \ \ debug
help \, ----------;
#X msg 13 596 ---------- \, print different kinds of netpd \, messages
to the console \, \, Usage: \, \ \ debug <type> on|off \, Available
types are: \, \ \ to - message I send \, \ \ from - messages I receive
\, \ \ local - messages sent locally \, \ \ raw - raw messages on NETPD
bus \, ----------;
#X obj 205 60 r NETPD.DEBUG.FROM;
#X obj 205 89 route from sender;
#X obj 295 14 r NETPD;
#X obj 295 37 route debug;
#X obj 881 382 list append ✗;
#X obj 774 102 t b a;
#X obj 741 152 spigot;
#X msg 774 125 1;
#X msg 837 120 0;
#X obj 741 252 list prepend;
#X obj 741 275 route 1 0;
#X obj 854 340 t a a;
#X connect 0 0 20 0;
#X connect 1 0 9 0;
#X connect 1 1 2 0;
#X connect 2 1 9 1;
#X connect 3 0 1 0;
#X connect 3 1 4 0;
#X connect 3 2 4 0;
#X connect 4 0 7 0;
#X connect 7 0 5 0;
#X connect 8 0 6 0;
#X connect 9 0 7 0;
#X connect 10 0 11 0;
#X connect 10 1 12 0;
#X connect 11 0 13 1;
#X connect 12 0 13 1;
#X connect 13 0 3 0;
#X connect 14 0 15 0;
#X connect 16 0 15 0;
#X connect 17 0 15 0;
#X connect 18 0 15 0;
#X connect 19 0 10 0;
#X connect 20 0 22 0;
#X connect 20 1 21 0;
#X connect 20 2 19 0;
#X connect 21 0 32 0;
#X connect 21 1 23 0;
#X connect 22 0 13 0;
#X connect 23 0 22 1;
#X connect 24 0 25 0;
#X connect 24 1 26 0;
#X connect 25 0 27 1;
#X connect 26 0 27 1;
#X connect 27 0 8 0;
#X connect 28 0 33 0;
#X connect 28 1 30 0;
#X connect 29 0 27 0;
#X connect 30 0 29 1;
#X connect 31 0 24 0;
#X connect 32 0 22 1;
#X connect 33 0 29 1;
#X connect 34 0 15 0;
#X connect 35 0 15 0;
#X connect 38 0 51 0;
#X connect 39 0 46 0;
#X connect 40 0 41 0;
#X connect 40 1 42 0;
#X connect 41 0 43 1;
#X connect 42 0 43 1;
#X connect 43 0 38 0;
#X connect 44 0 48 0;
#X connect 44 1 49 0;
#X connect 45 0 43 0;
#X connect 46 0 45 0;
#X connect 46 1 44 0;
#X connect 46 2 50 0;
#X connect 48 0 45 1;
#X connect 49 0 45 1;
#X connect 50 0 40 0;
#X connect 52 0 64 0;
#X connect 53 0 59 0;
#X connect 54 0 55 0;
#X connect 54 1 56 0;
#X connect 55 0 57 1;
#X connect 56 0 57 1;
#X connect 57 0 52 0;
#X connect 58 0 60 0;
#X connect 59 0 57 0;
#X connect 59 1 58 0;
#X connect 60 0 54 0;
#X connect 62 0 15 0;
#X connect 63 0 15 0;
#X connect 65 0 71 0;
#X connect 66 0 68 0;
#X connect 66 1 68 0;
#X connect 66 2 70 0;
#X connect 67 0 66 0;
#X connect 67 1 66 0;
#X connect 67 2 66 0;
#X connect 67 3 66 0;
#X connect 67 4 68 0;
#X connect 67 5 70 0;
#X connect 68 0 91 1;
#X connect 69 0 87 0;
#X connect 69 1 90 0;
#X connect 70 0 91 1;
#X connect 71 0 88 0;
#X connect 71 1 69 0;
#X connect 72 0 73 0;
#X connect 72 1 74 0;
#X connect 74 0 75 0;
#X connect 76 0 77 0;
#X connect 77 0 78 0;
#X connect 78 0 81 0;
#X connect 80 0 75 0;
#X connect 81 0 79 0;
#X connect 82 0 83 0;
#X connect 83 0 29 0;
#X connect 83 1 28 0;
#X connect 84 0 85 0;
#X connect 85 0 31 0;
#X connect 86 0 75 0;
#X connect 87 0 89 0;
#X connect 87 1 67 0;
#X connect 88 0 91 0;
#X connect 89 0 88 1;
#X connect 90 0 88 1;
#X connect 91 0 92 0;
#X connect 92 0 72 0;
#X connect 92 1 93 0;
#X connect 93 0 80 0;
#X connect 93 1 86 0;
#X restore 17 49 pd debug.cmd;
#N canvas 372 163 574 339 help.cmd 0;
#X obj 15 15 r \$0.chat.commands;
#X obj 72 282 s \$0.chat.comand.display;
#X obj 15 143 route help;
#X obj 156 90 list;
#X msg 156 114 ---------- \, no such command: \$1 \, use: \, \ \ help
\, to get more information \, ----------;
#X obj 15 51 route help debug unpatch;
#X msg 72 216 help ✓ \, ---------- \, Available commands are: \,
\ \ debug: manage debug output \, \ \ help: show this help \, \ \ unpatch:
control unpatch \, For more detailed information use: \, \ \ /<command>
help \, ----------;
#X msg 15 168 help help ✓ \, ---------- \, Sorry\\\, there is no
help for help \, ----------;
#X connect 0 0 5 0;
#X connect 2 0 7 0;
#X connect 2 1 6 0;
#X connect 3 0 4 0;
#X connect 4 0 1 0;
#X connect 5 0 2 0;
#X connect 5 3 3 0;
#X connect 6 0 1 0;
#X connect 7 0 1 0;
#X restore 17 19 pd help.cmd;
#X restore 12 507 pd commands;
#X obj 15 16 cnv 6 347 254 empty empty empty 20 12 0 14 -262144 -66577
0;
#X obj 3 2 cnv 7 384 324 empty empty empty 6 8 1 12 -182959 -1 0;
#X obj 5 4 cnv 15 380 320 empty empty netpd 3 12 0 20 -241213 -124705
0;
#X obj 85 279 chat-inputbox \$0.input;
#X obj 5 304 chat-button \$0.online.button online 79;
#X obj 85 304 chat-button \$0.list.button list 60;
#X obj 146 304 chat-button \$0.pref.button pref 60;
#X obj 207 304 chat-button \$0.mute.button mute 60;
#X obj 268 304 chat-button \$0.dsp.button dsp 54;
#X obj 323 304 chat-button \$0.unpatch.button unpatch 62;
#X obj 370 38 netpd-scrollbar \$0.scrollbar 15 240 12;
#X obj 5 279 cnv 15 79 24 empty \$0.num.clients.label 1\  4 12 0 16
-241213 -124705 0;
#X obj 5 238 chat-line \$0 1;
#X obj 5 218 chat-line \$0 2;
#X obj 5 198 chat-line \$0 3;
#X obj 5 178 chat-line \$0 4;
#X obj 5 158 chat-line \$0 5;
#X obj 5 138 chat-line \$0 6;
#X obj 5 118 chat-line \$0 7;
#X obj 5 98 chat-line \$0 8;
#X obj 5 78 chat-line \$0 9;
#X obj 5 58 chat-line \$0 10;
#X obj 5 38 chat-line \$0 11;
#X obj 5 258 chat-line \$0 0;
#X msg 391 344 232 224 240;
#X text 473 347 background;
#X msg 391 372 120 112 128;
#X msg 391 401 200 192 208;
#X text 470 401 input box;
#X text 473 373 title font;
#X msg 391 430 64 56 72;
#X text 470 430 button active;
#X msg 391 459 164 156 172;
#X text 470 459 button inactive;
#X msg 390 494 176 168 184;
#X text 473 493 scrollbar handle;
#X obj 318 4 chat-version-display;
#X connect 10 0 11 0;
#X connect 11 0 12 0;
#X coords 0 -1 1 1 384 324 2 3 2;
