#N canvas -10 26 493 564 10;
#N canvas 31 555 172 351 chat 0;
#N canvas 331 376 612 295 connection 0;
#X msg 143 175 disconnect;
#X msg 9 184 connect \$1 \$2;
#X obj 9 138 symbol;
#X obj 9 162 pack s f;
#X obj 9 86 sel 1 0;
#X obj 9 258 s NETPD;
#X obj 9 236 list prepend tcpclient;
#X obj 176 24 r NETPD;
#X obj 176 45 route pref;
#X obj 176 66 route netpd-server netpd-port;
#X obj 176 87 list;
#X obj 288 230 netpd-s /server/num_of_clients l;
#X msg 288 205 0;
#X obj 9 12 r \$0-connect-server;
#X obj 9 36 t a a;
#N canvas 969 507 526 331 detect.disconnect 0;
#X obj 167 44 inlet;
#X obj 18 79 sel 0;
#X obj 18 121 f;
#X obj 18 144 sel 1;
#X obj 18 9 netpd-status-get connection 1;
#X msg 18 173 UNITIATED DISCONNECT;
#X obj 18 196 list prepend notification;
#X obj 18 259 s NETPD;
#X obj 18 219 list trim;
#X obj 138 129 s NETPD;
#X msg 138 94 warning Uninitiated disconnect detected. Session might be out of sync.;
#X connect 0 0 2 1;
#X connect 1 0 2 0;
#X connect 2 0 3 0;
#X connect 3 0 5 0;
#X connect 3 0 10 0;
#X connect 4 0 1 0;
#X connect 5 0 6 0;
#X connect 6 0 8 0;
#X connect 8 0 7 0;
#X connect 10 0 9 0;
#X restore 36 60 pd detect.disconnect;
#X obj 288 181 sel 0;
#X obj 288 155 netpd-status-get connection 1;
#X connect 0 0 6 0;
#X connect 1 0 6 0;
#X connect 2 0 3 0;
#X connect 3 0 1 0;
#X connect 4 0 2 0;
#X connect 4 1 0 0;
#X connect 6 0 5 0;
#X connect 7 0 8 0;
#X connect 8 0 9 0;
#X connect 9 0 10 0;
#X connect 9 1 3 1;
#X connect 10 0 2 1;
#X connect 12 0 11 0;
#X connect 13 0 14 0;
#X connect 14 0 4 0;
#X connect 14 1 15 0;
#X connect 16 0 12 0;
#X connect 17 0 16 0;
#X restore 17 85 pd connection;
#N canvas 330 427 182 290 chat-guicode 0;
#N canvas 357 176 555 324 connect-button 0;
#X obj 8 26 route connection;
#X obj 8 5 r NETPD;
#X obj 212 125 ==;
#X obj 327 86 route connection;
#X obj 327 60 r NETPD;
#X obj 212 165 s \$0-connect-server;
#N canvas 733 447 419 245 netpd-auto-connect 0;
#X obj 51 154 outlet;
#X obj 51 114 sel 1;
#X msg 27 63 1;
#X obj 12 32 t b b b;
#X obj 12 84 f 0;
#X obj 12 104 sel 0;
#X msg 12 164 1;
#X text 184 186 set to 1 when not defined;
#X obj 51 84 netpd-pref-get netpd-auto-connect;
#X obj 12 189 s \$0.netpd-auto-connect.r;
#X obj 95 8 r NETPD;
#X obj 95 31 route loadbang;
#X obj 95 54 route 3;
#X connect 1 0 0 0;
#X connect 2 0 4 1;
#X connect 3 0 4 0;
#X connect 3 2 8 0;
#X connect 4 0 5 0;
#X connect 5 0 6 0;
#X connect 5 0 0 0;
#X connect 6 0 9 0;
#X connect 8 0 2 0;
#X connect 8 0 1 0;
#X connect 10 0 11 0;
#X connect 11 0 12 0;
#X connect 12 0 3 0;
#X restore 385 28 pd netpd-auto-connect;
#X obj 212 22 r \$0.online.button;
#X obj 212 47 route bang;
#X obj 8 75 s \$0.online.button;
#X msg 8 50 set \$1;
#X connect 0 0 10 0;
#X connect 1 0 0 0;
#X connect 2 0 5 0;
#X connect 3 0 2 1;
#X connect 4 0 3 0;
#X connect 6 0 2 0;
#X connect 7 0 8 0;
#X connect 8 0 2 0;
#X connect 10 0 9 0;
#X restore 9 88 pd connect-button;
#N canvas 599 453 250 291 clients-display 0;
#X obj 10 13 r NETPD;
#X obj 10 34 route from;
#X obj 10 54 routeOSC /server;
#X obj 10 74 routeOSC /num_of_clients;
#X obj 43 109 loadbang;
#X msg 43 134 0;
#X msg 10 168 label \$1\\\ ;
#X obj 10 235 s \$0.num.clients.label;
#X connect 0 0 1 0;
#X connect 1 0 2 0;
#X connect 2 0 3 0;
#X connect 3 0 6 0;
#X connect 4 0 5 0;
#X connect 5 0 6 0;
#X connect 6 0 7 0;
#X restore 9 68 pd clients-display;
#N canvas 467 376 228 237 inputbox 0;
#X obj 11 13 loadbang;
#X obj 11 199 s \$0.input;
#X obj 11 143 netpd-rgb2iem;
#X msg 11 170 color \$1;
#X msg 11 115 200 192 208;
#X obj 11 90 loadbang;
#X obj 11 61 s \$0.input;
#X msg 11 36 set <type\ here>;
#X connect 0 0 7 0;
#X connect 2 0 3 0;
#X connect 3 0 1 0;
#X connect 4 0 2 0;
#X connect 5 0 4 0;
#X connect 7 0 6 0;
#X restore 9 28 pd inputbox;
#N canvas 357 181 433 238 list-button 0;
#X obj 12 194 s \$0-listrequest;
#X obj 157 34 route connection;
#X obj 157 13 r NETPD;
#X msg 157 58 set \$1;
#X obj 157 83 s \$0.list.button;
#X obj 12 6 r \$0.list.button;
#X obj 12 31 route bang;
#X connect 1 0 3 0;
#X connect 2 0 1 0;
#X connect 3 0 4 0;
#X connect 5 0 6 0;
#X connect 6 0 0 0;
#X restore 9 108 pd list-button;
#N canvas 354 205 306 259 pref-button 0;
#X obj 12 184 list prepend pref gui;
#X obj 12 206 list trim;
#X obj 12 226 s NETPD;
#X msg 12 164 1;
#X obj 12 6 r \$0.pref.button;
#X obj 12 29 route bang;
#X obj 145 108 s \$0.pref.button;
#X obj 144 60 loadbang;
#X msg 145 84 set 1;
#X connect 0 0 1 0;
#X connect 1 0 2 0;
#X connect 3 0 0 0;
#X connect 4 0 5 0;
#X connect 5 0 3 0;
#X connect 7 0 8 0;
#X connect 8 0 6 0;
#X restore 9 128 pd pref-button;
#N canvas 347 149 394 299 unpatch-button 0;
#X obj 12 71 ==;
#X obj 51 71 t a;
#X obj 148 18 r NETPD;
#X obj 148 41 route unpatch;
#X obj 148 64 route start stop;
#X msg 148 87 1;
#X msg 194 88 0;
#X obj 12 142 sel 0 1;
#X msg 12 172 stop;
#X msg 56 172 start;
#X obj 12 206 list prepend unpatch;
#X obj 12 229 list trim;
#X obj 12 252 s NETPD;
#X obj 148 114 t a a;
#X msg 175 144 set \$1;
#X obj 175 167 s \$0.unpatch.button;
#X obj 12 6 r \$0.unpatch.button;
#X obj 12 29 route bang;
#X connect 0 0 1 0;
#X connect 0 0 7 0;
#X connect 1 0 0 1;
#X connect 2 0 3 0;
#X connect 3 0 4 0;
#X connect 4 0 5 0;
#X connect 4 1 6 0;
#X connect 5 0 13 0;
#X connect 6 0 13 0;
#X connect 7 0 8 0;
#X connect 7 1 9 0;
#X connect 8 0 10 0;
#X connect 9 0 10 0;
#X connect 10 0 11 0;
#X connect 11 0 12 0;
#X connect 13 0 1 0;
#X connect 13 1 14 0;
#X connect 14 0 15 0;
#X connect 16 0 17 0;
#X connect 17 0 0 0;
#X restore 9 188 pd unpatch-button;
#N canvas 607 310 168 165 border 0;
#X msg 27 107 color \$1 \$1;
#X obj 27 129 s \$0-border;
#X obj 27 20 r NETPD;
#X obj 27 41 route pref;
#X obj 27 62 route ch.border.clr;
#X obj 27 83 netpd-rgb2iem;
#X connect 0 0 1 0;
#X connect 2 0 3 0;
#X connect 3 0 4 0;
#X connect 4 0 5 0;
#X connect 5 0 0 0;
#X restore 9 208 pd border;
#N canvas 634 237 190 167 background 0;
#X msg 36 104 color \$1 \$1;
#X obj 36 126 s \$0-background;
#X obj 36 20 r NETPD;
#X obj 36 41 route pref;
#X obj 36 62 route ch.background.clr;
#X obj 36 83 netpd-rgb2iem;
#X connect 0 0 1 0;
#X connect 2 0 3 0;
#X connect 3 0 4 0;
#X connect 4 0 5 0;
#X connect 5 0 0 0;
#X restore 9 228 pd background;
#N canvas 357 181 804 250 mute-button 0;
#X obj 12 212 s \$0-muteclick;
#X obj 12 56 ==;
#X obj 42 56 t a;
#X obj 12 87 t a a;
#X obj 12 6 r \$0.mute.button;
#X obj 12 29 route bang;
#X msg 39 110 set \$1;
#X obj 39 133 s \$0.mute.button;
#X connect 1 0 2 0;
#X connect 1 0 3 0;
#X connect 2 0 1 1;
#X connect 3 0 0 0;
#X connect 3 1 6 0;
#X connect 4 0 5 0;
#X connect 5 0 1 0;
#X connect 6 0 7 0;
#X restore 9 148 pd mute-button;
#N canvas 357 181 396 253 dsp-button 0;
#X msg 12 185 dsp \$1;
#X obj 12 207 s pd;
#X obj 122 7 r pd;
#X obj 122 29 route dsp;
#X obj 12 81 ==;
#X obj 44 81 t a;
#X obj 122 49 t a a;
#X obj 12 6 r \$0.dsp.button;
#X obj 12 29 route bang;
#X msg 149 72 set \$1;
#X obj 149 95 s \$0.dsp.button;
#X connect 0 0 1 0;
#X connect 2 0 3 0;
#X connect 3 0 6 0;
#X connect 4 0 5 0;
#X connect 4 0 0 0;
#X connect 5 0 4 1;
#X connect 6 0 4 1;
#X connect 6 1 9 0;
#X connect 7 0 8 0;
#X connect 8 0 4 0;
#X connect 9 0 10 0;
#X restore 9 168 pd dsp-button;
#N canvas 641 139 479 486 chatdisplay 0;
#X obj 11 63 list;
#X obj 11 117 unpack s s f;
#X obj 11 206 pack s s f;
#N canvas 505 647 308 211 client_color 0;
#X obj 22 7 inlet;
#X obj 22 183 outlet;
#X obj 22 42 t a b;
#N canvas 447 120 467 356 render_color 0;
#X obj 8 19 inlet;
#X obj 340 27 inlet;
#X obj 340 67 unpack f f f;
#X obj 340 87 / 128;
#X obj 379 87 / 128;
#X obj 419 87 / 128;
#X obj 340 108 int;
#X obj 379 108 int;
#X obj 419 108 int;
#X obj 340 182 * 128;
#X obj 379 182 * 128;
#X obj 419 181 * 128;
#X obj 8 224 +;
#X obj 106 221 +;
#X obj 197 218 +;
#X obj 340 132 * -1;
#X obj 340 153 + 1;
#X obj 379 130 * -1;
#X obj 379 151 + 1;
#X obj 419 132 * -1;
#X obj 419 153 + 1;
#N canvas 810 442 194 198 convert_to_pd-color 0;
#X obj 78 40 * -256;
#X obj 13 40 * -65536;
#X obj 143 41 * -1;
#X obj 13 19 int;
#X obj 78 18 int;
#X obj 143 19 int;
#X obj 78 92 +;
#X obj 65 117 +;
#X obj 65 161 outlet;
#X obj 13 -1 inlet;
#X obj 78 -3 inlet;
#X obj 143 -1 inlet;
#X connect 0 0 6 0;
#X connect 1 0 7 0;
#X connect 2 0 6 1;
#X connect 3 0 1 0;
#X connect 4 0 0 0;
#X connect 5 0 2 0;
#X connect 6 0 7 1;
#X connect 7 0 8 0;
#X connect 9 0 3 0;
#X connect 10 0 4 0;
#X connect 11 0 5 0;
#X restore 8 252 pd convert_to_pd-color;
#N canvas 814 247 252 364 assign 0;
#X obj 16 11 inlet;
#X obj 16 317 outlet;
#X obj 16 54 route 0 1 2 3 4 5 6 7;
#X obj 16 258 unpack f f f;
#X obj 64 317 outlet;
#X obj 111 317 outlet;
#X msg 33 206 120 120 120;
#X msg 51 186 10 10 120;
#X msg 69 164 120 120 10;
#X msg 87 144 120 10 10;
#X msg 104 124 10 120 120;
#X msg 122 104 10 120 60;
#X msg 140 85 120 10 120;
#X msg 16 228 10 10 10;
#X obj 16 33 mod 8;
#X connect 0 0 14 0;
#X connect 2 0 13 0;
#X connect 2 1 6 0;
#X connect 2 2 7 0;
#X connect 2 3 8 0;
#X connect 2 4 9 0;
#X connect 2 5 10 0;
#X connect 2 6 11 0;
#X connect 2 7 12 0;
#X connect 3 0 1 0;
#X connect 3 1 4 0;
#X connect 3 2 5 0;
#X connect 6 0 3 0;
#X connect 7 0 3 0;
#X connect 8 0 3 0;
#X connect 9 0 3 0;
#X connect 10 0 3 0;
#X connect 11 0 3 0;
#X connect 12 0 3 0;
#X connect 13 0 3 0;
#X connect 14 0 2 0;
#X restore 8 86 pd assign;
#X obj 8 305 outlet;
#X connect 0 0 22 0;
#X connect 1 0 2 0;
#X connect 2 0 3 0;
#X connect 2 1 4 0;
#X connect 2 2 5 0;
#X connect 3 0 6 0;
#X connect 4 0 7 0;
#X connect 5 0 8 0;
#X connect 6 0 15 0;
#X connect 7 0 17 0;
#X connect 8 0 19 0;
#X connect 9 0 12 1;
#X connect 10 0 13 1;
#X connect 11 0 14 1;
#X connect 12 0 21 0;
#X connect 13 0 21 1;
#X connect 14 0 21 2;
#X connect 15 0 16 0;
#X connect 16 0 9 0;
#X connect 17 0 18 0;
#X connect 18 0 10 0;
#X connect 19 0 20 0;
#X connect 20 0 11 0;
#X connect 21 0 23 0;
#X connect 22 0 12 0;
#X connect 22 1 13 0;
#X connect 22 2 14 0;
#X restore 22 139 pd render_color;
#X obj 91 114 list;
#X obj 112 9 r NETPD;
#X obj 112 30 route pref;
#X obj 112 51 route ch.background.clr;
#X connect 0 0 2 0;
#X connect 2 0 3 0;
#X connect 2 1 4 0;
#X connect 3 0 1 0;
#X connect 4 0 3 1;
#X connect 5 0 6 0;
#X connect 6 0 7 0;
#X connect 7 0 4 1;
#X restore 154 182 pd client_color;
#X obj 45 139 t a b;
#X obj 11 88 t a b;
#X obj 108 118 1;
#X obj 154 160 f;
#X obj 11 16 netpd-r /chat/msg;
#N canvas 0 106 413 217 command.display 0;
#X obj 21 17 r \$0.chat.comand.display;
#X obj 21 117 list prepend;
#X obj 21 140 list append 0;
#X obj 148 90 loadbang;
#X msg 148 113 symbol \ ;
#X obj 21 167 outlet;
#X obj 21 54 netpd-list2symbol;
#X connect 0 0 6 0;
#X connect 1 0 2 0;
#X connect 2 0 5 0;
#X connect 3 0 4 0;
#X connect 4 0 1 1;
#X connect 6 0 1 0;
#X restore 23 39 pd command.display;
#X obj 226 94 r \$0.scrollbar;
#X obj 226 117 route pos;
#X obj 154 55 s \$0.scrollbar;
#X msg 154 33 set bgcolor 232 224 240 \, set frontcolor 176 168 184;
#X obj 154 10 loadbang;
#X obj 227 141 text define \$0.msgs;
#X obj 30 302 text set \$0.msgs;
#X msg 61 279 1e+15;
#X obj 11 324 text size \$0.msgs;
#X obj 11 377 - 12;
#X obj 11 400 max 0;
#X obj 65 403 s \$0.scrollbar;
#X msg 65 380 set totallength \$1;
#X obj 11 347 t a a;
#X obj 11 449 s \$0.scrollbar;
#X msg 11 425 set pos \$1;
#X obj 11 239 t b a b b;
#N canvas 984 635 370 164 limit.history 0;
#X obj 21 8 inlet;
#X obj 21 31 text size \$0.msgs;
#X obj 21 77 sel 1;
#X obj 21 125 text delete \$0.msgs;
#X msg 21 101 0;
#X obj 21 54 > 200;
#X connect 0 0 1 0;
#X connect 1 0 5 0;
#X connect 2 0 4 0;
#X connect 4 0 3 0;
#X connect 5 0 2 0;
#X restore 101 261 pd limit.history;
#X obj 17 175 netpd-str-replace " ˮ;
#X connect 0 0 5 0;
#X connect 1 0 2 0;
#X connect 1 1 4 0;
#X connect 1 2 7 1;
#X connect 2 0 26 0;
#X connect 3 0 2 2;
#X connect 4 0 28 0;
#X connect 4 1 7 0;
#X connect 5 0 1 0;
#X connect 5 1 6 0;
#X connect 6 0 7 1;
#X connect 7 0 3 0;
#X connect 8 0 0 0;
#X connect 9 0 0 0;
#X connect 10 0 11 0;
#X connect 13 0 12 0;
#X connect 14 0 13 0;
#X connect 17 0 16 1;
#X connect 18 0 23 0;
#X connect 19 0 20 0;
#X connect 20 0 25 0;
#X connect 22 0 21 0;
#X connect 23 0 19 0;
#X connect 23 1 22 0;
#X connect 25 0 24 0;
#X connect 26 0 18 0;
#X connect 26 1 16 0;
#X connect 26 2 17 0;
#X connect 26 3 27 0;
#X connect 28 0 2 1;
#X restore 9 48 pd chatdisplay;
#N canvas 519 435 408 508 notification.code 0;
#X obj 59 449 s \$0.notification.label;
#X msg 59 425 label \$1;
#X obj 224 385 s pd-notification;
#X msg 224 361 vis \$1;
#X obj 229 32 r \$0.notification.ok;
#X obj 271 55 t a;
#X obj 229 55 sel 0;
#X obj 229 78 del 100;
#X msg 256 150 0;
#X obj 32 12 r NETPD;
#X obj 32 35 route notification;
#X obj 32 58 list;
#X obj 59 401 netpd-list2symbol;
#X obj 32 216 netpd-fifo;
#X obj 229 102 t b b;
#X obj 32 81 t b a, f 10;
#X obj 32 108 f;
#X obj 32 131 sel 0;
#X obj 32 240 t b a;
#X msg 32 263 1;
#X obj 97 271 t a a;
#X obj 32 159 del 500;
#X obj 32 182 t b b;
#X msg 89 175 0;
#X connect 1 0 0 0;
#X connect 3 0 2 0;
#X connect 4 0 6 0;
#X connect 5 0 6 1;
#X connect 6 0 7 0;
#X connect 6 1 5 0;
#X connect 7 0 14 0;
#X connect 8 0 20 0;
#X connect 9 0 10 0;
#X connect 10 0 11 0;
#X connect 11 0 15 0;
#X connect 12 0 1 0;
#X connect 13 0 18 0;
#X connect 14 0 13 0;
#X connect 14 1 8 0;
#X connect 15 0 16 0;
#X connect 15 1 13 1;
#X connect 16 0 17 0;
#X connect 17 0 21 0;
#X connect 18 0 19 0;
#X connect 18 1 12 0;
#X connect 19 0 20 0;
#X connect 20 0 3 0;
#X connect 20 1 16 1;
#X connect 21 0 22 0;
#X connect 22 0 13 0;
#X connect 22 1 23 0;
#X connect 23 0 21 1;
#X restore 9 249 pd notification.code;
#X restore 17 65 pd chat-guicode;
#N canvas 392 594 279 249 CLIENT 0;
#X obj 22 207 s NETPD;
#X obj 22 16 r NETPD;
#X msg 22 148 connection \$1;
#X obj 22 39 list trim;
#X obj 22 126 route connection;
#X obj 22 94 netpd-client;
#X obj 22 63 route tcpclient;
#X obj 115 148 list prepend status;
#X obj 115 170 list trim;
#X connect 1 0 3 0;
#X connect 2 0 0 0;
#X connect 3 0 6 0;
#X connect 4 0 2 0;
#X connect 4 1 7 0;
#X connect 5 0 4 0;
#X connect 6 0 5 0;
#X connect 7 0 8 0;
#X connect 8 0 0 0;
#X restore 18 9 pd CLIENT;
#N canvas 518 590 616 160 keep_alive 0;
#X obj 22 68 metro 60000;
#X text 142 70 in order to keep the tcp connection alive \, we send a dummy message every 60;
#X obj 22 24 r NETPD;
#X obj 22 44 route connection;
#X obj 22 107 netpd-s /dummy s;
#X connect 0 0 4 0;
#X connect 2 0 3 0;
#X connect 3 0 0 0;
#X restore 15 138 pd keep_alive;
#N canvas 205 424 426 394 send_messages 0;
#N canvas 244 831 140 169 cut_empty 0;
#X obj 6 7 inlet;
#X obj 6 142 outlet;
#X obj 6 75 sel _;
#X obj 6 100 b;
#X obj 6 121 list append;
#X obj 6 30 t a a;
#X obj 6 52 makefilename %s_;
#X connect 0 0 5 0;
#X connect 2 1 3 0;
#X connect 3 0 4 0;
#X connect 4 0 1 0;
#X connect 5 0 6 0;
#X connect 5 1 4 1;
#X connect 6 0 2 0;
#X restore 6 197 pd cut_empty;
#X obj 6 261 list prepend;
#X obj 6 289 list append;
#X obj 100 167 r NETPD;
#X obj 100 188 route pref status;
#X obj 100 209 route netpd-name;
#X obj 149 246 route socket;
#X obj 150 269 r NETPD;
#X obj 150 290 route connection;
#X obj 6 324 spigot;
#X obj 6 354 netpd-s /chat/msg b;
#N canvas 0 106 450 300 parse.commands 0;
#X obj 21 18 inlet;
#X obj 21 222 outlet;
#X obj 95 16 netpd-symbol2list;
#X obj 21 41 t a a;
#X obj 21 184 spigot 1;
#X obj 95 91 list fromsymbol;
#X obj 95 114 route 47;
#X msg 95 160 0;
#X msg 140 160 1;
#X obj 203 169 list append;
#X obj 203 192 list trim;
#X obj 203 217 s \$0.chat.commands;
#X obj 95 39 list split 1;
#X obj 95 137 t b a;
#X obj 203 144 list tosymbol;
#X connect 0 0 3 0;
#X connect 2 0 12 0;
#X connect 3 0 4 0;
#X connect 3 1 2 0;
#X connect 4 0 1 0;
#X connect 5 0 6 0;
#X connect 6 0 13 0;
#X connect 6 1 8 0;
#X connect 7 0 4 1;
#X connect 8 0 4 1;
#X connect 9 0 10 0;
#X connect 10 0 11 0;
#X connect 12 0 5 0;
#X connect 12 1 9 1;
#X connect 13 0 7 0;
#X connect 13 1 14 0;
#X connect 14 0 9 0;
#X restore 6 231 pd parse.commands;
#X obj 6 5 r \$0.input;
#X obj 6 32 route from;
#X obj 6 55 symbol;
#X msg 73 65 symbol;
#X msg 73 88 set \$1;
#X obj 73 111 s \$0.input;
#X obj 6 78 t a b;
#X connect 0 0 11 0;
#X connect 1 0 2 0;
#X connect 2 0 9 0;
#X connect 3 0 4 0;
#X connect 4 0 5 0;
#X connect 4 1 6 0;
#X connect 5 0 1 1;
#X connect 6 0 2 1;
#X connect 7 0 8 0;
#X connect 8 0 9 1;
#X connect 9 0 10 0;
#X connect 11 0 1 0;
#X connect 12 0 13 0;
#X connect 13 0 14 0;
#X connect 14 0 18 0;
#X connect 15 0 16 0;
#X connect 16 0 17 0;
#X connect 18 0 0 0;
#X connect 18 1 15 0;
#X restore 15 159 pd send_messages;
#N canvas 591 360 332 278 say_hello 0;
#X obj 16 134 list prepend;
#X obj 16 183 list prepend;
#X obj 126 48 r NETPD;
#X obj 126 69 route pref;
#X obj 126 90 route netpd-welcome netpd-name;
#X obj 16 12 netpd-r /server/socket;
#X obj 16 209 netpd-s /chat/msg b;
#X connect 0 0 1 0;
#X connect 1 0 6 0;
#X connect 2 0 3 0;
#X connect 3 0 4 0;
#X connect 4 0 0 1;
#X connect 4 1 1 1;
#X connect 5 0 0 0;
#X restore 15 180 pd say_hello;
#N canvas 674 1332 206 173 socket_request 0;
#X obj 6 22 r NETPD;
#X obj 6 43 route connection;
#X obj 6 64 sel 1;
#X obj 6 87 del 100;
#X obj 6 113 netpd-s /server/socket s;
#X connect 0 0 1 0;
#X connect 1 0 2 0;
#X connect 2 0 3 0;
#X connect 3 0 4 0;
#X restore 15 200 pd socket_request;
#N canvas 387 317 356 471 list 0;
#X text 6 7 send list request;
#X obj 8 31 r \$0-listrequest;
#X obj 8 70 f;
#X text 8 180 send list response;
#N canvas 375 178 640 495 compose.message 0;
#X obj 15 18 inlet;
#X obj 15 402 outlet;
#X obj 243 172 netpd-status-get version;
#X obj 15 102 netpd-pref-get netpd-name;
#X obj 70 170 netpd-status-get socket;
#X obj 405 180 netpd-status-get unpatch;
#X obj 15 41 b;
#X obj 15 70 t b b b b;
#X obj 15 378 pack s s f;
#X obj 43 216 t a a;
#X msg 216 228 / v\$1.\$2.\$3;
#X obj 405 203 sel 1 0;
#X msg 424 227 symbol;
#X msg 405 253 / unpatch;
#X msg 43 241 ▬▬▬ client-ID: \$1;
#X obj 405 281 list append;
#X obj 43 268 list append;
#X obj 216 251 list append;
#X obj 43 291 list append;
#X obj 43 314 list append;
#X obj 43 343 netpd-list2symbol;
#X obj 231 313 loadbang;
#X msg 231 335 32;
#X obj 231 359 makefilename %c;
#X obj 216 203 list append;
#X obj 216 150 t b b;
#X obj 43 190 f;
#X obj 43 145 t b b;
#X obj 405 109 netpd-status-get unpatch-protection;
#X obj 405 155 b;
#X obj 405 132 route 0 1;
#X connect 0 0 6 0;
#X connect 2 0 24 1;
#X connect 3 0 8 0;
#X connect 4 0 26 1;
#X connect 5 0 11 0;
#X connect 6 0 7 0;
#X connect 7 0 3 0;
#X connect 7 1 27 0;
#X connect 7 2 25 0;
#X connect 7 3 28 0;
#X connect 8 0 1 0;
#X connect 9 0 14 0;
#X connect 9 1 8 2;
#X connect 10 0 17 0;
#X connect 11 0 13 0;
#X connect 11 1 12 0;
#X connect 12 0 15 0;
#X connect 13 0 15 0;
#X connect 14 0 16 0;
#X connect 15 0 19 1;
#X connect 16 0 18 0;
#X connect 17 0 18 1;
#X connect 18 0 19 0;
#X connect 19 0 20 0;
#X connect 20 0 8 1;
#X connect 21 0 22 0;
#X connect 22 0 23 0;
#X connect 23 0 20 1;
#X connect 24 0 10 0;
#X connect 25 0 24 0;
#X connect 25 1 2 0;
#X connect 26 0 9 0;
#X connect 27 0 26 0;
#X connect 27 1 4 0;
#X connect 28 0 30 0;
#X connect 29 0 5 0;
#X connect 30 0 29 0;
#X connect 30 1 12 0;
#X restore 12 237 pd compose.message;
#X obj 8 102 netpd-s /chat/listrequest b;
#X obj 12 322 netpd-s /chat/msg 0;
#X msg 123 286 \$1;
#X obj 12 210 netpd-r /chat/listrequest;
#X obj 119 37 netpd-status-get socket;
#X connect 1 0 2 0;
#X connect 2 0 5 0;
#X connect 4 0 6 0;
#X connect 7 0 6 1;
#X connect 8 0 4 0;
#X connect 8 1 7 0;
#X connect 9 0 2 1;
#X restore 15 220 pd list;
#N canvas 663 615 259 269 print_messages 0;
#X obj 10 197 print CHAT;
#X obj 10 41 list;
#X obj 10 15 netpd-r /chat/msg;
#X obj 10 64 list split 1, f 26;
#X msg 10 89 symbol \$1:;
#X msg 86 89 symbol \$1;
#X obj 86 112 netpd-symbol2list;
#X obj 10 151 list append, f 13;
#X obj 10 173 list trim;
#X connect 1 0 3 0;
#X connect 2 0 1 0;
#X connect 3 0 4 0;
#X connect 3 1 5 0;
#X connect 4 0 7 0;
#X connect 5 0 6 0;
#X connect 6 0 7 1;
#X connect 7 0 8 0;
#X connect 8 0 0 0;
#X restore 15 240 pd print_messages;
#N canvas 149 403 346 197 bell&click 0;
#N canvas 416 337 436 240 click 0;
#X obj 10 17 inlet;
#X obj 10 40 bang;
#X obj 10 137 line~;
#X obj 10 79 t b b;
#X obj 10 166 *~;
#X obj 10 201 dac~;
#X obj 145 120 noise~;
#X msg 10 105 0 10;
#X obj 145 141 hip~ 4500;
#X obj 228 144 del 10;
#X obj 228 121 t b b;
#X obj 253 172 1;
#X obj 228 171 0;
#X obj 228 192 switch~;
#X obj 228 98 spigot;
#X obj 259 34 r \$0-muteclick;
#X obj 259 76 abs;
#X obj 259 54 - 1;
#X obj 370 34 loadbang;
#X obj 370 56 1;
#X msg 48 105 0.03;
#X connect 0 0 1 0;
#X connect 1 0 3 0;
#X connect 1 0 14 0;
#X connect 2 0 4 0;
#X connect 3 0 7 0;
#X connect 3 1 20 0;
#X connect 4 0 5 0;
#X connect 4 0 5 1;
#X connect 6 0 8 0;
#X connect 7 0 2 0;
#X connect 8 0 4 1;
#X connect 9 0 12 0;
#X connect 10 0 9 0;
#X connect 10 1 11 0;
#X connect 11 0 13 0;
#X connect 12 0 13 0;
#X connect 14 0 10 0;
#X connect 15 0 17 0;
#X connect 16 0 14 1;
#X connect 17 0 16 0;
#X connect 18 0 19 0;
#X connect 19 0 14 1;
#X connect 20 0 2 0;
#X restore 16 142 pd click;
#X obj 16 30 r NETPD;
#X obj 16 52 route from;
#X obj 16 77 routeOSC /chat;
#X obj 16 99 routeOSC /msg;
#X obj 16 121 b;
#N canvas 69 107 485 258 bell 0;
#X obj 12 11 inlet;
#X obj 12 34 bang;
#X obj 12 190 dac~;
#X obj 230 92 spigot;
#X obj 261 28 r \$0-muteclick;
#X obj 261 70 abs;
#X obj 261 48 - 1;
#X obj 354 29 loadbang;
#X obj 354 51 1;
#X obj 12 135 line~;
#X obj 12 77 t b b;
#X msg 12 103 0 200;
#X obj 12 164 *~;
#X obj 86 133 osc~ 1000;
#X obj 152 136 osc~ 1500;
#X obj 230 118 t b b;
#X obj 255 169 1;
#X obj 230 168 0;
#X obj 230 189 switch~;
#X obj 230 141 del 200;
#X msg 51 103 0.01;
#X connect 0 0 1 0;
#X connect 1 0 3 0;
#X connect 1 0 10 0;
#X connect 3 0 15 0;
#X connect 4 0 6 0;
#X connect 5 0 3 1;
#X connect 6 0 5 0;
#X connect 7 0 8 0;
#X connect 8 0 3 1;
#X connect 9 0 12 0;
#X connect 10 0 11 0;
#X connect 10 1 20 0;
#X connect 11 0 9 0;
#X connect 12 0 2 0;
#X connect 12 0 2 1;
#X connect 13 0 12 1;
#X connect 14 0 12 1;
#X connect 15 0 19 0;
#X connect 15 1 16 0;
#X connect 16 0 18 0;
#X connect 17 0 18 0;
#X connect 19 0 17 0;
#X connect 20 0 9 0;
#X restore 158 146 pd bell;
#X obj 158 32 r NETPD;
#X obj 158 54 route from;
#X obj 158 79 routeOSC /server;
#X obj 158 101 routeOSC /num_of_clients;
#X obj 158 123 b;
#X text 16 8 click;
#X text 157 10 bell;
#X connect 1 0 2 0;
#X connect 2 0 3 0;
#X connect 3 0 4 0;
#X connect 4 0 5 0;
#X connect 5 0 0 0;
#X connect 7 0 8 0;
#X connect 8 0 9 0;
#X connect 9 0 10 0;
#X connect 10 0 11 0;
#X connect 11 0 6 0;
#X restore 15 261 pd bell&click;
#N canvas -2 46 421 155 notification 0;
#N canvas 481 455 469 350 \$0.notification.gop 0;
#X obj 21 21 cnv 18 398 135 empty empty empty 0 0 0 10 #ff8e00 #404040 0;
#X obj 27 27 cnv 18 386 86 empty \$0.notification.label Wrong\ samplerate:\ 48000 20 60 0 25 #fafafa #ff0400 0;
#X obj 48 52 cnv 18 30 20 empty empty WARNING 0 0 0 25 #fafafa #000000 0;
#X obj 323 122 hsl 89 28 0 127 0 0 \$0.notification.ok empty empty -2 -8 0 10 #fcfcfc #000000 #000000 0 1;
#X obj 320 122 cnv 15 94 28 empty empty empty 5 12 0 20 #7c7c7c #000000 0;
#X obj 322 124 cnv 15 90 24 empty empty OK 32 12 0 20 #c6ffc7 #000000 0;
#X coords 0 -1 1 1 400 137 2 20 20;
#X restore 7 5 pd \$0.notification.gop;
#X restore 15 281 pd notification;
#X restore 12 401 pd chat;
#N canvas 454 209 399 436 netpd_related_programs 0;
#X obj 17 225 \$0;
#X obj 63 178 \$0;
#X msg 63 199 \; pd-\$1.unpatch.container clear;
#X msg 17 246 \; pd-\$1.unpatch.container obj 20 20 unpatch \; pd-unpatch.pd vis 0 \; pd-unpatch vis 1 \; pd-unpatch.pd loadbang \;;
#X obj 17 12 r NETPD;
#X obj 17 35 route unpatch;
#X obj 17 58 route start stop;
#X obj 17 151 b;
#X obj 63 154 b;
#X msg 17 81 1;
#X msg 63 80 0;
#X obj 17 107 change 0;
#X obj 17 130 sel 1 0;
#X obj 17 327 chat-unpatch-container \$0;
#X connect 0 0 3 0;
#X connect 1 0 2 0;
#X connect 4 0 5 0;
#X connect 5 0 6 0;
#X connect 6 0 9 0;
#X connect 6 1 10 0;
#X connect 7 0 0 0;
#X connect 8 0 1 0;
#X connect 9 0 11 0;
#X connect 10 0 11 0;
#X connect 11 0 12 0;
#X connect 12 0 7 0;
#X connect 12 1 8 0;
#X restore 12 486 pd netpd_related_programs;
#X text 9 359 Author: Roman Haefeli (roman@netpd.org);
#X text 9 339 CHAT;
#N canvas 472 332 548 274 preferences 0;
#X text 18 11 netpd-settings;
#N canvas 0 450 378 285 netpd-preferences 0;
#X symbolatom 120 15 10 0 0 0 - \$0.netpd-name.r \$0.netpd-name 0;
#X symbolatom 120 36 40 0 0 0 - \$0.netpd-welcome.r \$0.netpd-welcome 0;
#X symbolatom 120 56 40 0 0 0 - \$0.netpd-server.r \$0.netpd-server 0;
#X floatatom 120 76 6 0 0 0 - \$0.netpd-port.r \$0.netpd-port 0;
#X text 76 14 name:;
#X text 76 74 port:;
#X text 46 36 say hello:;
#X obj 116 246 hsl 237 19 0 127 0 0 \$0.closesavesettings \$0-bli save&close 2 9 1 11 #e0e0e0 #e0e0e0 #000000 0 1;
#X obj 120 157 tgl 15 0 \$0.pd-dynamic-dsp-off \$0.pd-dynamic-dsp-off.r empty 17 7 0 10 #fcfcfc #000000 #000000 0 1;
#X floatatom 120 197 10 0 0 0 - \$0.pd-audio-latency.r \$0.pd-audio-latency 0;
#X text 183 197 ms;
#X text 3 216 __________________________________________________________;
#X text 22 196 audio latency:;
#X text 22 54 IP / hostname:;
#X obj 120 137 tgl 15 0 \$0.pd-start-dsp \$0.pd-start-dsp.r empty 17 7 0 10 #fcfcfc #000000 #000000 0 1;
#X obj 253 197 hsl 100 17 0 127 0 0 \$0.show.latency.dialog \$0.show.latency.dialog.r Latency\ Settings 2 9 0 10 #dcdcdc #dcdcdc #000000 0 1;
#X obj 120 117 tgl 15 0 \$0.netpd-auto-connect \$0.netpd-auto-connect.r empty 17 7 0 10 #fcfcfc #000000 #000000 0 1;
#X symbolatom 132 96 38 0 0 0 - \$0.netpd-instruments-path.r \$0.netpd-instruments-path 0;
#X text 4 94 instruments path:;
#X obj 120 98 vsl 12 12 0 127 0 0 \$0.netpd-instruments-path.button \$0.blu empty 0 -9 0 10 #dcdcdc #dcdcdc #000000 0 1;
#X obj 120 177 tgl 15 0 \$0.netpd-download-ask \$0.netpd-download-ask.r empty 17 7 0 10 #fcfcfc #000000 #000000 0 1;
#X text 137 116 connect at start;
#X text 137 136 DSP on at start;
#X text 137 156 dynamic DSP-off;
#X text 137 176 ask before downloading;
#X restore 271 33 pd netpd-preferences;
#X text 272 14 Preferences Window:;
#N canvas 115 168 468 523 netpd-preferences-code 0;
#X obj 14 486 s pd-netpd-preferences;
#X obj 14 400 r NETPD;
#X obj 14 421 route pref;
#X obj 14 442 route gui;
#X msg 14 463 vis \$1;
#N canvas 421 218 245 414 color.setter 0;
#X obj 10 12 r \$0-red-s;
#X obj 76 12 r \$0-grn-s;
#X obj 142 12 r \$0-blu-s;
#X obj 10 87 pack f f f;
#X obj 10 59 f;
#X obj 76 34 t b a;
#X obj 142 34 t b a;
#X obj 10 143 s \$0.color;
#X obj 99 189 s \$0-preview;
#X msg 99 168 color \$1 -1;
#X obj 10 109 t a a;
#X obj 99 147 netpd-rgb2iem;
#X obj 165 91 loadbang;
#X msg 165 113 -1;
#X obj 13 219 r \$0.color.set;
#X obj 13 241 unpack f f f;
#X obj 13 365 s \$0-red-r;
#X obj 47 344 s \$0-grn-r;
#X obj 82 323 s \$0-blu-r;
#X msg 13 307 set \$1;
#X msg 47 287 set \$1;
#X msg 82 266 set \$1;
#X connect 0 0 4 0;
#X connect 1 0 5 0;
#X connect 2 0 6 0;
#X connect 3 0 10 0;
#X connect 4 0 3 0;
#X connect 5 0 4 0;
#X connect 5 1 3 1;
#X connect 6 0 4 0;
#X connect 6 1 3 2;
#X connect 9 0 8 0;
#X connect 10 0 7 0;
#X connect 10 1 11 0;
#X connect 11 0 9 0;
#X connect 12 0 13 0;
#X connect 13 0 9 0;
#X connect 14 0 15 0;
#X connect 14 0 11 0;
#X connect 15 0 19 0;
#X connect 15 0 4 1;
#X connect 15 1 20 0;
#X connect 15 1 3 1;
#X connect 15 2 21 0;
#X connect 15 2 3 2;
#X connect 19 0 16 0;
#X connect 20 0 17 0;
#X connect 21 0 18 0;
#X restore 13 6 pd color.setter;
#N canvas 611 132 297 302 font.setter 0;
#X obj 96 252 s \$0-testtext;
#X obj 17 195 pack;
#X msg 96 229 label_font \$1 \$2;
#X obj 25 51 t b a;
#X obj 17 231 s \$0.font;
#X obj 17 10 r \$0.fonttype;
#X obj 25 30 r \$0.fontsize;
#X obj 96 55 r \$0.font.set;
#X obj 17 163 f;
#X obj 123 201 s \$0.fonttype.r;
#X obj 180 178 s \$0.fontsize.r;
#X obj 123 104 unpack f f;
#X msg 123 154 set \$1;
#X msg 180 155 set \$1;
#X obj 96 77 t a a;
#X connect 1 0 2 0;
#X connect 1 0 4 0;
#X connect 2 0 0 0;
#X connect 3 0 8 0;
#X connect 3 1 1 1;
#X connect 5 0 8 0;
#X connect 6 0 3 0;
#X connect 7 0 14 0;
#X connect 8 0 1 0;
#X connect 11 0 12 0;
#X connect 11 0 8 1;
#X connect 11 1 13 0;
#X connect 11 1 1 1;
#X connect 12 0 9 0;
#X connect 13 0 10 0;
#X connect 14 0 2 0;
#X connect 14 1 11 0;
#X restore 13 26 pd font.setter;
#X obj 14 288 r \$0.closesavesettings;
#X msg 14 353 pref save \, pref gui 0;
#X obj 14 375 s NETPD;
#X obj 14 310 b;
#X obj 14 332 del 100;
#X obj 14 251 chat-set-pref \$0 pd-audio-latency;
#X obj 14 231 chat-set-pref \$0 pd-dynamic-dsp-off;
#X obj 14 211 chat-set-pref \$0 pd-start-dsp;
#N canvas 816 463 339 254 show-dialogs 0;
#X obj 11 16 inlet;
#X msg 11 47 vis 0;
#X obj 66 60 sel 0;
#X obj 112 63 t a;
#X msg 66 84 vis 1;
#X obj 66 104 s pd-netpd-preferences-latency;
#X obj 66 40 r \$0.show.latency.dialog;
#X connect 0 0 1 0;
#X connect 1 0 5 0;
#X connect 2 0 4 0;
#X connect 2 1 3 0;
#X connect 3 0 2 1;
#X connect 4 0 5 0;
#X connect 6 0 2 0;
#X restore 159 487 pd show-dialogs;
#N canvas 641 263 490 465 jack_latency 0;
#X msg 130 68 2 \$1;
#X obj 130 89 pow;
#X obj 130 44 + 6;
#X obj 18 158 *;
#X obj 39 135 t b a;
#X text 47 77 why?;
#X obj 18 16 r \$0.jack.periods;
#X obj 130 15 r \$0.jack.frames;
#X text 69 271 convert samples to ms;
#X obj 18 271 t a b;
#X obj 18 318 /;
#X obj 45 295 samplerate~;
#X obj 18 341 * 1000;
#X obj 18 371 outlet;
#X obj 18 78 + 4;
#X obj 347 17 r \$0.jack.callback;
#X obj 238 15 r \$0.jack.msec;
#X obj 265 88 samplerate~;
#X obj 238 107 *;
#X obj 238 40 * 0.001;
#X obj 238 63 t a b;
#X obj 238 134 / 64;
#X obj 238 157 int;
#X obj 238 180 + 1;
#X obj 238 203 * 64;
#X obj 39 210 t b a;
#X obj 18 234 +;
#X obj 238 263 *;
#X obj 347 40 == 0;
#X obj 332 209 t b a;
#X connect 0 0 1 0;
#X connect 1 0 4 0;
#X connect 2 0 0 0;
#X connect 3 0 26 0;
#X connect 4 0 3 0;
#X connect 4 1 3 1;
#X connect 6 0 14 0;
#X connect 7 0 2 0;
#X connect 9 0 10 0;
#X connect 9 1 11 0;
#X connect 10 0 12 0;
#X connect 11 0 10 1;
#X connect 12 0 13 0;
#X connect 14 0 3 0;
#X connect 15 0 28 0;
#X connect 16 0 19 0;
#X connect 17 0 18 1;
#X connect 18 0 21 0;
#X connect 19 0 20 0;
#X connect 20 0 18 0;
#X connect 20 1 17 0;
#X connect 21 0 22 0;
#X connect 22 0 23 0;
#X connect 23 0 24 0;
#X connect 24 0 27 0;
#X connect 25 0 26 0;
#X connect 25 1 26 1;
#X connect 26 0 9 0;
#X connect 27 0 25 0;
#X connect 28 0 29 0;
#X connect 29 0 27 0;
#X connect 29 1 27 1;
#X restore 218 358 pd jack_latency;
#N canvas 238 169 418 371 alsa_latency 0;
#X obj 173 87 <<;
#X obj 173 41 t b a;
#X msg 173 64 64;
#X text 235 191 ALSA blocksize in ms;
#X obj 35 159 /;
#X obj 49 131 t b a;
#X obj 35 181 int;
#X obj 35 222 *;
#X obj 35 202 max 1;
#X obj 35 76 r \$0.alsa.msec;
#X obj 173 15 r \$0.alsa.blocksize;
#X obj 35 297 outlet;
#X text 224 112 convert samples to ms;
#X obj 173 112 t a b;
#X obj 173 159 /;
#X obj 200 136 samplerate~;
#X obj 173 182 * 1000;
#X obj 129 225 loadbang;
#X obj 129 245 samplerate~;
#X msg 129 265 1000 \$1;
#X obj 129 285 /;
#X obj 129 305 * 198;
#X obj 35 250 +;
#X connect 0 0 13 0;
#X connect 1 0 2 0;
#X connect 1 1 0 1;
#X connect 2 0 0 0;
#X connect 4 0 6 0;
#X connect 5 0 4 0;
#X connect 5 1 4 1;
#X connect 5 1 7 1;
#X connect 6 0 8 0;
#X connect 7 0 22 0;
#X connect 8 0 7 0;
#X connect 9 0 4 0;
#X connect 10 0 1 0;
#X connect 13 0 14 0;
#X connect 13 1 15 0;
#X connect 14 0 16 0;
#X connect 15 0 14 1;
#X connect 16 0 5 0;
#X connect 17 0 18 0;
#X connect 18 0 19 0;
#X connect 19 0 20 0;
#X connect 20 0 21 0;
#X connect 21 0 22 1;
#X connect 22 0 11 0;
#X restore 199 336 pd alsa_latency;
#X obj 199 424 s \$0.pd-audio-latency.r;
#X obj 116 444 sel 0;
#X obj 14 149 chat-set-pref \$0 netpd-auto-connect;
#X obj 14 109 chat-set-pref \$0 netpd-port;
#X obj 14 90 chat-set-pref \$0 netpd-server;
#X obj 14 71 chat-set-pref \$0 netpd-welcome;
#X obj 14 52 chat-set-pref \$0 netpd-name;
#X obj 14 129 chat-set-pref \$0 netpd-instruments-path;
#N canvas 399 356 383 246 dir.selector 0;
#X obj 18 42 r \$0.netpd-instruments-path.button;
#X obj 18 65 sel;
#X obj 45 65 t a;
#X msg 18 89 dir;
#X obj 18 112 pdcontrol;
#X obj 18 135 openpanel 1;
#X obj 18 160 s \$0.netpd-instruments-path.r;
#X connect 0 0 1 0;
#X connect 1 0 3 0;
#X connect 1 1 2 0;
#X connect 2 0 1 1;
#X connect 3 0 4 0;
#X connect 4 0 5 0;
#X connect 5 0 6 0;
#X restore 255 129 pd dir.selector;
#N canvas 603 274 479 668 measure_latency 0;
#X obj 75 182 osc~;
#X obj 12 111 t b b;
#X obj 75 158 vline~;
#X obj 12 90 metro 1000;
#X msg 75 137 1000 \, 9000 \$1;
#X obj 172 147 * 0.5;
#X obj 219 178 dac~ 1;
#X obj 74 114 f 1000;
#X obj 12 31 t a a a;
#X obj 75 333 *~;
#X obj 74 464 sigmund~ -npts 4096 -hop 1024 pitch;
#X obj 74 485 mtof;
#X obj 12 536 f;
#X obj 74 357 lop~ 4000;
#X obj 74 387 lop~ 4000;
#X obj 74 414 lop~ 4000;
#X obj 74 444 lop~ 4000;
#X obj 219 281 env~ 8192 8192;
#X obj 219 305 int;
#X obj 219 326 makefilename %3d;
#X msg 219 348 label \$1dB;
#X obj 12 514 delay 900;
#N canvas 977 392 757 449 latency.display 0;
#X msg 35 238 label \$1ms;
#X obj 228 106 r \$1.latency.measurement.state;
#X msg 228 202 color -1 -1 \$1;
#X obj 228 127 - 1;
#X obj 228 176 f;
#X obj 35 22 inlet;
#X obj 35 43 t a b b;
#X obj 456 29 inlet;
#X obj 553 96 * 1.01;
#X obj 510 96 * 0.99;
#X obj 483 130 moses;
#X obj 510 152 moses;
#X obj 510 68 f;
#X obj 456 75 sel 0;
#X obj 562 216 t b a;
#X obj 510 243 t a b;
#X obj 537 279 f;
#X obj 588 296 + 1;
#X obj 537 304 t a a;
#X msg 562 248 0;
#X msg 537 366 0;
#X msg 582 367 1;
#X obj 127 161 f 13;
#X obj 211 286 sel 0 1;
#X msg 211 311 13;
#X msg 240 310 16;
#X obj 160 140 del 300;
#X obj 537 345 moses 20;
#X obj 35 261 s \$0.latency.label;
#X obj 510 34 r \$0.lat.range.reset;
#X obj 589 242 s \$0.lat.range.reset;
#X obj 537 392 s \$0.lat.mes.valid;
#X obj 211 265 r \$0.lat.mes.valid;
#X obj 35 152 - 10;
#X text 44 131 remove offset;
#X obj 35 216 makefilename %.1f;
#X obj 21 182 max 0;
#X obj 10 90 loadbang;
#X msg 10 113 0;
#X obj 255 148 loadbang;
#X obj 4 426 outlet;
#X obj 4 356 r \$0.lat.mes.valid;
#X obj 4 379 sel 1;
#X obj 4 403 f;
#X connect 0 0 28 0;
#X connect 1 0 3 0;
#X connect 2 0 28 0;
#X connect 3 0 4 0;
#X connect 4 0 2 0;
#X connect 5 0 6 0;
#X connect 6 0 33 0;
#X connect 6 1 22 0;
#X connect 6 2 26 0;
#X connect 7 0 13 0;
#X connect 8 0 11 1;
#X connect 9 0 10 1;
#X connect 10 0 14 0;
#X connect 10 1 11 0;
#X connect 11 0 15 0;
#X connect 11 1 14 0;
#X connect 12 0 9 0;
#X connect 12 0 8 0;
#X connect 13 1 10 0;
#X connect 14 0 19 0;
#X connect 14 1 30 0;
#X connect 15 1 16 0;
#X connect 16 0 18 0;
#X connect 17 0 16 1;
#X connect 18 0 27 0;
#X connect 18 1 17 0;
#X connect 19 0 16 0;
#X connect 20 0 31 0;
#X connect 21 0 31 0;
#X connect 22 0 2 0;
#X connect 23 0 24 0;
#X connect 23 1 25 0;
#X connect 24 0 22 1;
#X connect 25 0 22 1;
#X connect 26 0 4 0;
#X connect 27 0 20 0;
#X connect 27 1 21 0;
#X connect 29 0 12 0;
#X connect 32 0 23 0;
#X connect 33 0 36 0;
#X connect 35 0 0 0;
#X connect 36 0 35 0;
#X connect 36 0 43 1;
#X connect 37 0 38 0;
#X connect 38 0 36 0;
#X connect 39 0 4 0;
#X connect 41 0 42 0;
#X connect 42 0 43 0;
#X connect 43 0 40 0;
#X restore 12 590 pd latency.display;
#N canvas 658 406 284 204 sample.period 0;
#X obj 59 159 outlet;
#X obj 20 33 inlet;
#X obj 59 125 *;
#X obj 39 85 f;
#X obj 20 54 t b b a;
#X obj 88 59 / 8;
#X obj 88 33 t a a;
#X obj 147 101 * 1000;
#X obj 147 122 - 100;
#X obj 147 143 outlet;
#X obj 165 48 loadbang;
#X msg 91 8 1;
#X connect 1 0 4 0;
#X connect 2 0 0 0;
#X connect 3 0 2 1;
#X connect 4 0 7 0;
#X connect 4 1 3 0;
#X connect 4 2 2 0;
#X connect 5 0 3 1;
#X connect 6 0 5 0;
#X connect 6 1 7 1;
#X connect 7 0 8 0;
#X connect 8 0 9 0;
#X connect 10 0 11 0;
#X connect 11 0 6 0;
#X restore 12 560 pd sample.period;
#X obj 376 470 cnv 15 60 25 empty \$0.lat.ret.level \ \ 0dB 6 12 0 14 #e0e0e0 #404040 0;
#X obj 219 371 s \$0.lat.ret.level;
#X obj 12 247 bang;
#X obj 382 508 cnv 15 60 25 empty \$0.latency.label 0.0ms 6 12 0 14 #000000 #fcfcfc 0;
#X obj 219 206 adc~ 1;
#X obj 75 207 *~ 0;
#X obj 219 230 delwrite~ \$0.lat.offset 20;
#X obj 219 253 delread~ \$0.lat.offset 20;
#X obj 381 423 tgl 20 0 \$0.lat.measure.s \$0.lat.measure.r empty 17 7 0 10 #c6ffc7 #000000 #000000 0 1;
#X obj 12 8 r \$0.lat.measure.s;
#X obj 12 616 outlet;
#X connect 0 0 29 0;
#X connect 1 0 26 0;
#X connect 1 1 7 0;
#X connect 2 0 0 0;
#X connect 3 0 1 0;
#X connect 4 0 2 0;
#X connect 5 0 29 1;
#X connect 7 0 4 0;
#X connect 8 0 3 0;
#X connect 8 1 5 0;
#X connect 9 0 13 0;
#X connect 10 0 11 0;
#X connect 11 0 12 1;
#X connect 11 0 22 1;
#X connect 12 0 23 0;
#X connect 13 0 14 0;
#X connect 14 0 15 0;
#X connect 15 0 16 0;
#X connect 16 0 10 0;
#X connect 17 0 18 0;
#X connect 18 0 19 0;
#X connect 19 0 20 0;
#X connect 20 0 25 0;
#X connect 21 0 12 0;
#X connect 22 0 34 0;
#X connect 23 0 22 0;
#X connect 23 1 21 1;
#X connect 26 0 21 0;
#X connect 28 0 30 0;
#X connect 29 0 9 0;
#X connect 29 0 6 0;
#X connect 31 0 9 1;
#X connect 31 0 17 0;
#X connect 33 0 8 0;
#X restore 224 382 pd measure_latency;
#X obj 14 169 chat-set-pref \$0 netpd-download-ask;
#X obj 272 5 r NETPD;
#X obj 272 28 route loadbang;
#X msg 272 74 pref set netpd-download-ask 1;
#X obj 272 97 s NETPD;
#X obj 272 51 route 1;
#X connect 1 0 2 0;
#X connect 2 0 3 0;
#X connect 3 0 4 0;
#X connect 3 0 19 0;
#X connect 4 0 0 0;
#X connect 7 0 10 0;
#X connect 8 0 9 0;
#X connect 10 0 11 0;
#X connect 11 0 8 0;
#X connect 16 0 18 0;
#X connect 17 0 18 0;
#X connect 19 0 15 0;
#X connect 27 0 18 0;
#X connect 29 0 30 0;
#X connect 30 0 33 0;
#X connect 31 0 32 0;
#X connect 33 0 31 0;
#X restore 271 109 pd netpd-preferences-code;
#X obj 275 231 netpd-pref-manager netpd-preferences.cnf;
#X obj 18 204 netpd-pref-store pd-audio-latency;
#X obj 18 185 netpd-pref-store pd-dynamic-dsp-off;
#X obj 18 166 netpd-pref-store pd-start-dsp;
#X obj 18 109 netpd-pref-store netpd-auto-connect;
#X obj 18 90 netpd-pref-store netpd-port;
#X obj 18 71 netpd-pref-store netpd-server;
#X obj 18 52 netpd-pref-store netpd-welcome;
#X obj 18 33 netpd-pref-store netpd-name;
#X obj 18 128 netpd-pref-store netpd-instruments-path;
#N canvas 378 442 331 282 netpd-preferences-latency 0;
#X obj 11 22 chat-latency-dialog \$0;
#X restore 271 55 pd netpd-preferences-latency;
#X obj 18 147 netpd-pref-store netpd-download-ask;
#X obj 275 136 r NETPD;
#X obj 275 159 route loadbang;
#X obj 275 182 route 2;
#X obj 275 205 b;
#X connect 16 0 17 0;
#X connect 17 0 18 0;
#X connect 18 0 19 0;
#X connect 19 0 4 0;
#X restore 12 423 pd preferences;
#N canvas 382 290 974 304 status 0;
#N canvas 419 416 280 353 unpatch_ 0;
#X obj 10 14 r NETPD;
#X obj 10 35 route status;
#X obj 10 56 route get;
#X obj 10 267 list trim;
#X obj 10 288 s NETPD;
#X obj 10 77 route unpatch;
#X obj 10 246 list prepend status unpatch;
#X obj 109 96 s UNPATCH;
#X obj 109 116 r UNPATCH;
#X obj 10 99 t b b b;
#X msg 49 121 0;
#X msg 15 122 1;
#X obj 10 223 f;
#X obj 109 165 list prepend 1;
#X obj 109 188 route 1 0;
#X msg 109 75 running?;
#X obj 109 138 route running;
#X connect 0 0 1 0;
#X connect 1 0 2 0;
#X connect 2 0 5 0;
#X connect 3 0 4 0;
#X connect 5 0 9 0;
#X connect 6 0 3 0;
#X connect 8 0 16 0;
#X connect 9 0 11 0;
#X connect 9 0 12 0;
#X connect 9 1 15 0;
#X connect 9 2 10 0;
#X connect 10 0 12 1;
#X connect 10 0 13 1;
#X connect 11 0 13 1;
#X connect 12 0 6 0;
#X connect 13 0 14 0;
#X connect 14 0 12 0;
#X connect 14 1 12 1;
#X connect 15 0 7 0;
#X connect 16 0 13 0;
#X restore 8 70 pd unpatch_;
#X obj 8 113 netpd-status-property unpatch-protection;
#X obj 8 91 netpd-status-property version;
#X obj 8 49 netpd-status-property socket;
#X obj 324 18 r NETPD;
#X obj 324 39 route connection;
#X obj 428 39 netpd-r /server/socket;
#X obj 324 61 route 0;
#X msg 324 84 0;
#X obj 324 113 t a;
#X obj 324 254 list trim;
#X obj 324 277 s NETPD;
#X obj 420 88 r pd;
#X obj 420 113 route dsp;
#X msg 324 139 socket \$1;
#X obj 324 231 list prepend status set;
#X msg 420 139 dsp \$1;
#X obj 8 28 netpd-status-property dsp;
#X obj 500 99 r NETPD;
#X obj 500 120 route connection;
#X obj 8 7 netpd-status-property connection;
#X msg 500 143 connection \$1;
#X obj 498 233 print YOYO;
#X obj 428 62 route bang;
#X connect 4 0 5 0;
#X connect 5 0 7 0;
#X connect 6 0 23 0;
#X connect 7 0 8 0;
#X connect 8 0 9 0;
#X connect 9 0 14 0;
#X connect 10 0 11 0;
#X connect 12 0 13 0;
#X connect 13 0 16 0;
#X connect 14 0 15 0;
#X connect 15 0 10 0;
#X connect 16 0 15 0;
#X connect 18 0 19 0;
#X connect 19 0 21 0;
#X connect 21 0 15 0;
#X connect 23 1 9 0;
#X restore 12 444 pd status;
#N canvas 426 130 386 466 INIT 0;
#X msg 47 177 \; pd dsp 1;
#N canvas 120 274 181 227 netpd-loadbang 0;
#X obj 8 8 loadbang;
#X msg 8 28 10;
#X obj 8 48 until;
#X obj 8 69 f;
#X obj 8 90 + 1;
#X obj 8 110 list prepend loadbang;
#X obj 8 131 list trim;
#X obj 8 152 s NETPD;
#X connect 0 0 1 0;
#X connect 1 0 2 0;
#X connect 2 0 3 0;
#X connect 3 0 4 0;
#X connect 4 0 3 1;
#X connect 4 0 5 0;
#X connect 5 0 6 0;
#X connect 6 0 7 0;
#X restore 9 8 pd netpd-loadbang;
#X text 130 10 - ordered loadbang;
#X text 111 184 - start DSP;
#X obj 2 308 s \$0-toall;
#X msg 2 286 label empty;
#X text 5 246 click before saving;
#X obj 2 265 r \$0.before.saving;
#X obj 47 156 sel 1;
#X obj 47 105 netpd-pref-get pd-start-dsp;
#X msg 23 84 1;
#X obj 8 53 t b b b;
#X obj 8 105 f 0;
#X obj 8 125 sel 0;
#X msg 8 145 1;
#X text 134 210 set to 1 when not defined;
#X obj 8 210 s \$0.pd-start-dsp.r;
#N canvas 0 106 492 403 check.instruments.path 0;
#X obj 14 113 netpd-pref-get netpd-instruments-path;
#X msg 33 162 symbol \$1/abs;
#X obj 14 217 netpd-if-dir;
#X obj 14 190 t a a;
#X obj 14 240 list append;
#X obj 14 263 route 0 1;
#X obj 14 293 list;
#X obj 14 361 netpd-error NETPD;
#X msg 14 320 instruments directory '\$1' does not exist. Please check netpd-instruments-dir in preferences.;
#X obj 14 136 t a a a;
#X obj 161 181 symbol <not_set>;
#X obj 161 204 sel <not_set>;
#X msg 161 229 instruments directory not configured. Please check netpd-instruments-dir in preferences.;
#X obj 14 79 t b b;
#X obj 13 10 r NETPD;
#X obj 13 33 route loadbang;
#X obj 13 56 route 3;
#X connect 0 0 9 0;
#X connect 1 0 3 0;
#X connect 2 0 4 0;
#X connect 3 0 2 0;
#X connect 3 1 4 1;
#X connect 4 0 5 0;
#X connect 5 0 6 0;
#X connect 6 0 8 0;
#X connect 8 0 7 0;
#X connect 9 0 3 0;
#X connect 9 1 1 0;
#X connect 9 2 10 1;
#X connect 10 0 11 0;
#X connect 11 0 12 0;
#X connect 12 0 7 0;
#X connect 13 0 10 0;
#X connect 13 1 0 0;
#X connect 14 0 15 0;
#X connect 15 0 16 0;
#X connect 16 0 13 0;
#X restore 5 345 pd check.instruments.path;
#N canvas 594 381 469 317 check.samplerate 0;
#X obj 27 91 samplerate~;
#X obj 27 118 select 44100;
#X obj 54 198 s NETPD;
#X msg 54 165 warning non-standard samplerate detected: \$1 Hz;
#X obj 27 286 print -n;
#X msg 27 228 netpd uses 44100 Hz by convention. Not following this convention has unwanted side effects and prevents audio samples or live audio from being shared with peers.;
#X obj 27 141 t b a;
#X obj 27 59 delay 100;
#X obj 33 16 loadbang;
#X msg 183 45 notification Wrong samplerate: \$1;
#X obj 183 68 s NETPD;
#X connect 0 0 1 0;
#X connect 1 1 6 0;
#X connect 3 0 2 0;
#X connect 5 0 4 0;
#X connect 6 0 5 0;
#X connect 6 1 3 0;
#X connect 6 1 9 0;
#X connect 7 0 0 0;
#X connect 8 0 7 0;
#X connect 9 0 10 0;
#X restore 5 368 pd check.samplerate;
#N canvas 0 0 392 136 check.dependencies 0;
#X obj 16 18 netpd-check-external slip slipdec-help.pd;
#X obj 16 38 netpd-check-external iemnet tcpclient-help.pd;
#X obj 16 58 netpd-check-external osc routeOSC-help.pd;
#X obj 16 78 netpd-check-external iemlib lp4_cheb~.pd;
#X restore 5 391 pd check.dependencies;
#X obj 79 33 r NETPD;
#X obj 79 56 route loadbang;
#X obj 79 79 route 3;
#X connect 5 0 4 0;
#X connect 7 0 5 0;
#X connect 8 0 0 0;
#X connect 9 0 10 0;
#X connect 9 0 8 0;
#X connect 10 0 12 1;
#X connect 11 0 12 0;
#X connect 11 2 9 0;
#X connect 12 0 13 0;
#X connect 13 0 14 0;
#X connect 14 0 0 0;
#X connect 14 0 16 0;
#X connect 20 0 21 0;
#X connect 21 0 22 0;
#X connect 22 0 11 0;
#X restore 12 380 pd INIT;
#N canvas 373 279 366 277 errors 0;
#X obj 6 31 r NETPD;
#X obj 6 53 route error;
#X obj 6 75 print ERROR;
#X text 5 8 print netpd errors:;
#X obj 81 30 r NETPD;
#X obj 81 74 print WARNING;
#X obj 81 52 route warning;
#X connect 0 0 1 0;
#X connect 1 0 2 0;
#X connect 4 0 6 0;
#X connect 6 0 5 0;
#X restore 12 465 pd errors;
#X obj 337 24 cnv 12 12 191 empty \$0-scrollbar empty 20 12 0 14 #b4b4b4 #b4b4b4 0;
#X obj 163 395 loadbang;
#N canvas 138 498 404 150 set_version 0;
#X obj 6 19 inlet;
#X obj 6 63 list prepend status set version;
#X obj 6 110 s NETPD;
#X obj 6 86 list trim;
#X obj 6 42 route VERSION;
#X connect 0 0 4 0;
#X connect 1 0 3 0;
#X connect 3 0 2 0;
#X connect 4 0 1 0;
#X restore 163 444 pd set_version;
#N canvas 349 173 447 158 commands 0;
#N canvas 475 170 396 351 TESTS 0;
#X obj 14 12 netpd-status-get connection 1;
#X obj 15 112 netpd-status-get socket 1;
#X obj 14 34 sel 1;
#X msg 14 56 CONNECTION OK;
#X obj 15 134 sel 0;
#X obj 14 78 s \$0.tests;
#X obj 15 223 s \$0.tests;
#X obj 304 111 r TESTS;
#X obj 271 137 spigot;
#X obj 271 90 r \$0.tests;
#X obj 271 159 print TEST;
#X obj 16 276 sel 1;
#X obj 16 320 s \$0.tests;
#X obj 16 254 netpd-status-get unpatch 1;
#X obj 42 156 spigot 1;
#X msg 111 172 0;
#X obj 271 19 r NETPD;
#X obj 271 41 route tests;
#X obj 271 63 s \$0.tests;
#X obj 42 178 t a b;
#X msg 15 201 SOCKET_NUMBER_RECEIVED \$1;
#X msg 16 298 UNPATCH_LOADED;
#X connect 0 0 2 0;
#X connect 1 0 4 0;
#X connect 2 0 3 0;
#X connect 3 0 5 0;
#X connect 4 1 14 0;
#X connect 7 0 8 1;
#X connect 8 0 10 0;
#X connect 9 0 8 0;
#X connect 11 0 21 0;
#X connect 13 0 11 0;
#X connect 14 0 19 0;
#X connect 15 0 14 1;
#X connect 16 0 17 0;
#X connect 17 0 18 0;
#X connect 19 0 20 0;
#X connect 19 1 15 0;
#X connect 20 0 6 0;
#X connect 21 0 12 0;
#X restore 314 45 pd TESTS;
#X text 311 15 deprececated;
#N canvas 379 142 1057 516 unpatch.cmd 0;
#X obj 23 77 s NETPD;
#X obj 623 21 r \$0.chat.commands;
#X msg 683 207 1;
#X msg 827 221 0;
#X obj 623 44 t a a, f 6;
#X obj 623 318 t a a;
#X obj 623 475 s NETPD;
#X obj 650 407 list append ✓;
#X obj 650 447 s \$0.chat.comand.display;
#X obj 17 230 r NETPD;
#X obj 17 276 route help;
#X obj 17 386 s \$0.chat.comand.display;
#X obj 656 72 route unpatch;
#X msg 23 22 unpatch start;
#X msg 36 48 unpatch stop;
#X obj 17 253 route unpatch;
#X msg 683 354 ---------- \, unpatch: invalid usage \, see: \, \ \ unpatch help \, ----------;
#X obj 811 166 route on off;
#X obj 683 138 route start stop help protect;
#X msg 17 298 ---------- \, control unpatch \, Usage: \, \ \ unpatch start|stop \, \ \ \ start and stop unpatch by command \, \ \ unpatch protect on|off \, \ \ \ turn on|off protected mode where \, \ \ \ interaction with any other unpatch \, \ \ \ is suppressed \, ----------;
#X obj 623 255 list prepend;
#X obj 623 278 route 1 0;
#X obj 710 326 list append ✗;
#X obj 683 302 t b a;
#X obj 656 95 t b a;
#X msg 731 95 0;
#X msg 656 118 1;
#X obj 623 146 spigot;
#X obj 156 23 r NETPD;
#X obj 156 46 route unpatch;
#X obj 156 69 route protect;
#X obj 156 92 route on off;
#X msg 156 120 1;
#X msg 190 121 0;
#X msg 156 150 status set unpatch-protection \$1;
#X obj 156 173 s NETPD;
#X obj 293 91 loadbang;
#X connect 1 0 4 0;
#X connect 2 0 20 1;
#X connect 3 0 20 1;
#X connect 4 0 27 0;
#X connect 4 1 12 0;
#X connect 5 0 6 0;
#X connect 5 1 7 0;
#X connect 7 0 8 0;
#X connect 9 0 15 0;
#X connect 10 0 19 0;
#X connect 12 0 24 0;
#X connect 12 1 25 0;
#X connect 13 0 0 0;
#X connect 14 0 0 0;
#X connect 15 0 10 0;
#X connect 16 0 8 0;
#X connect 17 0 2 0;
#X connect 17 1 2 0;
#X connect 17 2 3 0;
#X connect 18 0 2 0;
#X connect 18 1 2 0;
#X connect 18 2 2 0;
#X connect 18 3 17 0;
#X connect 18 4 3 0;
#X connect 19 0 11 0;
#X connect 20 0 21 0;
#X connect 21 0 5 0;
#X connect 21 1 23 0;
#X connect 22 0 8 0;
#X connect 23 0 16 0;
#X connect 23 1 22 0;
#X connect 24 0 26 0;
#X connect 24 1 18 0;
#X connect 25 0 27 1;
#X connect 26 0 27 1;
#X connect 27 0 20 0;
#X connect 28 0 29 0;
#X connect 29 0 30 0;
#X connect 30 0 31 0;
#X connect 31 0 32 0;
#X connect 31 1 33 0;
#X connect 32 0 34 0;
#X connect 33 0 34 0;
#X connect 34 0 35 0;
#X connect 36 0 33 0;
#X restore 17 77 pd unpatch.cmd;
#N canvas 0 106 1225 711 debug.cmd 0;
#X obj 22 58 r NETPD;
#X obj 22 259 list split 1;
#X obj 56 283 list split 1;
#X obj 22 234 route sendtyped send, f 22;
#X obj 151 297 t a;
#X obj 22 392 print NETPD_SND;
#X obj 205 298 print NETPD_RCV;
#N canvas 0 205 371 257 length.limit 0;
#X obj 20 47 list split 11;
#X obj 114 97 list length;
#X msg 114 120 symbol [\$1];
#X obj 20 140 list append;
#X obj 57 70 route bang;
#X obj 20 17 inlet;
#X obj 20 202 outlet;
#X obj 20 167 list trim;
#X connect 0 0 3 0;
#X connect 0 1 4 0;
#X connect 0 2 7 0;
#X connect 1 0 2 0;
#X connect 2 0 3 1;
#X connect 3 0 7 0;
#X connect 4 0 3 1;
#X connect 4 1 1 0;
#X connect 5 0 0 0;
#X connect 7 0 6 0;
#X restore 22 343 pd length.limit;
#N canvas 0 172 371 224 length.limit 0;
#X obj 20 47 list split 11;
#X obj 114 97 list length;
#X msg 114 120 symbol [\$1];
#X obj 20 140 list append;
#X obj 57 70 route bang;
#X obj 20 17 inlet;
#X obj 20 190 outlet;
#X obj 20 167 list trim;
#X connect 0 0 3 0;
#X connect 0 1 4 0;
#X connect 0 2 7 0;
#X connect 1 0 2 0;
#X connect 2 0 3 1;
#X connect 3 0 7 0;
#X connect 4 0 3 1;
#X connect 4 1 1 0;
#X connect 5 0 0 0;
#X connect 7 0 6 0;
#X restore 205 235 pd length.limit;
#X obj 22 307 list append;
#X obj 112 133 route on off;
#X msg 112 156 1;
#X msg 146 155 0;
#X obj 22 211 spigot 0, f 15;
#X msg 229 358 debug to on;
#X obj 237 572 s NETPD;
#X msg 242 384 debug to off;
#X msg 272 416 debug from on;
#X msg 285 438 debug from off;
#X obj 112 110 route to;
#X obj 22 87 route to receiver debug;
#X obj 39 121 route l;
#X obj 22 175 spigot;
#X msg 78 145 1;
#X obj 295 135 route on off;
#X msg 295 158 1;
#X msg 329 157 0;
#X obj 205 213 spigot 0, f 15;
#X obj 222 123 route l;
#X obj 205 177 spigot;
#X msg 261 147 1;
#X obj 295 112 route from;
#X msg 39 146 0;
#X msg 221 145 0;
#X msg 301 468 debug local on;
#X msg 309 492 debug local off;
#X text 22 23 SEND;
#X text 206 25 RECEIVE;
#N canvas 0 172 371 224 length.limit 0;
#X obj 20 47 list split 11;
#X obj 114 97 list length;
#X msg 114 120 symbol [\$1];
#X obj 20 140 list append;
#X obj 57 70 route bang;
#X obj 20 17 inlet;
#X obj 20 190 outlet;
#X obj 20 167 list trim;
#X connect 0 0 3 0;
#X connect 0 1 4 0;
#X connect 0 2 7 0;
#X connect 1 0 2 0;
#X connect 2 0 3 1;
#X connect 3 0 7 0;
#X connect 4 0 3 1;
#X connect 4 1 1 0;
#X connect 5 0 0 0;
#X connect 7 0 6 0;
#X restore 391 256 pd length.limit;
#X obj 391 61 r NETPD;
#X obj 481 136 route on off;
#X msg 481 159 1;
#X msg 515 158 0;
#X obj 391 214 spigot 0, f 15;
#X obj 408 124 route l;
#X obj 391 178 spigot;
#X obj 391 90 route from sender debug;
#X text 389 26 LOCAL;
#X msg 407 146 1;
#X msg 447 148 0;
#X obj 481 113 route local;
#X obj 391 319 print NETPD_LOC;
#N canvas 0 172 371 224 length.limit 0;
#X obj 20 47 list split 11;
#X obj 114 97 list length;
#X msg 114 120 symbol [\$1];
#X obj 20 140 list append;
#X obj 57 70 route bang;
#X obj 20 17 inlet;
#X obj 20 190 outlet;
#X obj 20 167 list trim;
#X connect 0 0 3 0;
#X connect 0 1 4 0;
#X connect 0 2 7 0;
#X connect 1 0 2 0;
#X connect 2 0 3 1;
#X connect 3 0 7 0;
#X connect 4 0 3 1;
#X connect 4 1 1 0;
#X connect 5 0 0 0;
#X connect 7 0 6 0;
#X restore 571 256 pd length.limit;
#X obj 571 61 r NETPD;
#X obj 624 159 route on off;
#X msg 624 182 1;
#X msg 658 181 0;
#X obj 571 214 spigot 0, f 15;
#X obj 624 112 route debug;
#X obj 571 84 t a a;
#X obj 624 136 route raw;
#X text 575 23 RAW;
#X msg 318 520 debug raw on;
#X msg 326 544 debug raw off;
#X obj 571 299 print NETPD_RAW;
#X obj 741 28 r \$0.chat.commands;
#X obj 801 182 route on off;
#X obj 801 152 route to from local raw help;
#X msg 801 221 1;
#X obj 774 79 route debug;
#X msg 870 229 0;
#X obj 741 51 t a a, f 6;
#X obj 741 335 t a a;
#X obj 741 482 s NETPD;
#X obj 768 384 list append ✓;
#X obj 768 458 s \$0.chat.comand.display;
#X obj 13 528 r NETPD;
#X obj 13 551 route debug;
#X obj 13 574 route help;
#X obj 13 678 s \$0.chat.comand.display;
#X msg 854 410 ---------- \, debug: invalid usage \, use: \, \ \ debug help \, ----------;
#X msg 13 596 ---------- \, print different kinds of netpd \, messages to the console \, \, Usage: \, \ \ debug <type> on|off \, Available types are: \, \ \ to - message I send \, \ \ from - messages I receive \, \ \ local - messages sent locally \, \ \ raw - raw messages on NETPD bus \, ----------;
#X obj 205 60 r NETPD.DEBUG.FROM;
#X obj 205 89 route from sender;
#X obj 295 14 r NETPD;
#X obj 295 37 route debug;
#X obj 881 382 list append ✗;
#X obj 774 102 t b a;
#X obj 741 152 spigot;
#X msg 774 125 1;
#X msg 837 120 0;
#X obj 741 252 list prepend;
#X obj 741 275 route 1 0;
#X obj 854 340 t a a;
#N canvas 280 224 396 241 prepend_receiver 0;
#N canvas 0 106 439 342 prefix.display 0;
#X obj 23 61 makefilename %d;
#X obj 23 36 route float symbol;
#X obj 23 84 list fromsymbol;
#X obj 23 107 t a a;
#X obj 50 131 list length;
#X obj 50 154 sel 1 2 3, f 21;
#X obj 23 204 list prepend;
#X msg 91 180 46;
#X msg 50 180 46 46;
#X obj 23 227 list prepend 91;
#X obj 23 250 list append 93;
#X obj 23 273 list tosymbol;
#X text 120 251 ];
#X text 123 225 [;
#X text 121 183 .. .;
#X obj 23 12 inlet;
#X obj 23 296 outlet;
#X obj 128 61 symbol;
#X connect 0 0 2 0;
#X connect 1 0 0 0;
#X connect 1 2 17 0;
#X connect 2 0 3 0;
#X connect 3 0 6 0;
#X connect 3 1 4 0;
#X connect 4 0 5 0;
#X connect 5 0 8 0;
#X connect 5 1 7 0;
#X connect 5 2 6 1;
#X connect 6 0 9 0;
#X connect 7 0 6 1;
#X connect 8 0 6 1;
#X connect 9 0 10 0;
#X connect 10 0 11 0;
#X connect 11 0 16 0;
#X connect 15 0 1 0;
#X connect 17 0 2 0;
#X restore 96 79 pd prefix.display;
#X obj 27 108 list prepend;
#X obj 96 32 r NETPD;
#X obj 96 55 route receiver;
#X obj 27 23 inlet;
#X obj 27 131 list trim;
#X obj 27 154 outlet;
#X connect 0 0 1 1;
#X connect 1 0 5 0;
#X connect 2 0 3 0;
#X connect 3 0 0 0;
#X connect 4 0 1 0;
#X connect 5 0 6 0;
#X restore 22 366 pd prepend_receiver;
#N canvas 270 216 396 241 prepend_sender 0;
#N canvas 0 106 439 342 prefix.display 0;
#X obj 23 61 makefilename %d;
#X obj 23 36 route float symbol;
#X obj 23 84 list fromsymbol;
#X obj 23 107 t a a;
#X obj 50 131 list length;
#X obj 50 154 sel 1 2 3, f 21;
#X obj 23 204 list prepend;
#X msg 91 180 46;
#X msg 50 180 46 46;
#X obj 23 227 list prepend 91;
#X obj 23 250 list append 93;
#X obj 23 273 list tosymbol;
#X text 120 251 ];
#X text 123 225 [;
#X text 121 183 .. .;
#X obj 23 12 inlet;
#X obj 23 296 outlet;
#X obj 128 60 symbol;
#X connect 0 0 2 0;
#X connect 1 0 0 0;
#X connect 1 2 17 0;
#X connect 2 0 3 0;
#X connect 3 0 6 0;
#X connect 3 1 4 0;
#X connect 4 0 5 0;
#X connect 5 0 8 0;
#X connect 5 1 7 0;
#X connect 5 2 6 1;
#X connect 6 0 9 0;
#X connect 7 0 6 1;
#X connect 8 0 6 1;
#X connect 9 0 10 0;
#X connect 10 0 11 0;
#X connect 11 0 16 0;
#X connect 15 0 1 0;
#X connect 17 0 2 0;
#X restore 96 79 pd prefix.display;
#X obj 27 108 list prepend;
#X obj 27 23 inlet;
#X obj 27 131 list trim;
#X obj 27 154 outlet;
#X obj 96 25 r NETPD.DEBUG.FROM;
#X obj 96 54 route sender;
#X connect 0 0 1 1;
#X connect 1 0 3 0;
#X connect 2 0 1 0;
#X connect 3 0 4 0;
#X connect 5 0 6 0;
#X connect 6 0 0 0;
#X restore 205 268 pd prepend_sender;
#N canvas 280 224 396 241 prepend_local 0;
#X obj 27 23 inlet;
#X obj 27 131 list trim;
#X obj 27 154 outlet;
#X obj 27 108 list prepend [..l];
#X connect 0 0 3 0;
#X connect 1 0 2 0;
#X connect 3 0 1 0;
#X restore 391 282 pd prepend_local;
#X connect 0 0 20 0;
#X connect 1 0 9 0;
#X connect 1 1 2 0;
#X connect 2 1 9 1;
#X connect 3 0 1 0;
#X connect 3 1 4 0;
#X connect 3 2 4 0;
#X connect 4 0 7 0;
#X connect 7 0 94 0;
#X connect 8 0 95 0;
#X connect 9 0 7 0;
#X connect 10 0 11 0;
#X connect 10 1 12 0;
#X connect 11 0 13 1;
#X connect 12 0 13 1;
#X connect 13 0 3 0;
#X connect 14 0 15 0;
#X connect 16 0 15 0;
#X connect 17 0 15 0;
#X connect 18 0 15 0;
#X connect 19 0 10 0;
#X connect 20 0 22 0;
#X connect 20 1 21 0;
#X connect 20 2 19 0;
#X connect 21 0 32 0;
#X connect 21 1 23 0;
#X connect 22 0 13 0;
#X connect 23 0 22 1;
#X connect 24 0 25 0;
#X connect 24 1 26 0;
#X connect 25 0 27 1;
#X connect 26 0 27 1;
#X connect 27 0 8 0;
#X connect 28 0 33 0;
#X connect 28 1 30 0;
#X connect 29 0 27 0;
#X connect 30 0 29 1;
#X connect 31 0 24 0;
#X connect 32 0 22 1;
#X connect 33 0 29 1;
#X connect 34 0 15 0;
#X connect 35 0 15 0;
#X connect 38 0 96 0;
#X connect 39 0 46 0;
#X connect 40 0 41 0;
#X connect 40 1 42 0;
#X connect 41 0 43 1;
#X connect 42 0 43 1;
#X connect 43 0 38 0;
#X connect 44 0 48 0;
#X connect 44 1 49 0;
#X connect 45 0 43 0;
#X connect 46 0 45 0;
#X connect 46 1 44 0;
#X connect 46 2 50 0;
#X connect 48 0 45 1;
#X connect 49 0 45 1;
#X connect 50 0 40 0;
#X connect 52 0 64 0;
#X connect 53 0 59 0;
#X connect 54 0 55 0;
#X connect 54 1 56 0;
#X connect 55 0 57 1;
#X connect 56 0 57 1;
#X connect 57 0 52 0;
#X connect 58 0 60 0;
#X connect 59 0 57 0;
#X connect 59 1 58 0;
#X connect 60 0 54 0;
#X connect 62 0 15 0;
#X connect 63 0 15 0;
#X connect 65 0 71 0;
#X connect 66 0 68 0;
#X connect 66 1 68 0;
#X connect 66 2 70 0;
#X connect 67 0 66 0;
#X connect 67 1 66 0;
#X connect 67 2 66 0;
#X connect 67 3 66 0;
#X connect 67 4 68 0;
#X connect 67 5 70 0;
#X connect 68 0 91 1;
#X connect 69 0 87 0;
#X connect 69 1 90 0;
#X connect 70 0 91 1;
#X connect 71 0 88 0;
#X connect 71 1 69 0;
#X connect 72 0 73 0;
#X connect 72 1 74 0;
#X connect 74 0 75 0;
#X connect 76 0 77 0;
#X connect 77 0 78 0;
#X connect 78 0 81 0;
#X connect 80 0 75 0;
#X connect 81 0 79 0;
#X connect 82 0 83 0;
#X connect 83 0 29 0;
#X connect 83 1 28 0;
#X connect 84 0 85 0;
#X connect 85 0 31 0;
#X connect 86 0 75 0;
#X connect 87 0 89 0;
#X connect 87 1 67 0;
#X connect 88 0 91 0;
#X connect 89 0 88 1;
#X connect 90 0 88 1;
#X connect 91 0 92 0;
#X connect 92 0 72 0;
#X connect 92 1 93 0;
#X connect 93 0 80 0;
#X connect 93 1 86 0;
#X connect 94 0 5 0;
#X connect 95 0 6 0;
#X connect 96 0 51 0;
#X restore 17 49 pd debug.cmd;
#N canvas 372 163 574 339 help.cmd 0;
#X obj 15 15 r \$0.chat.commands;
#X obj 72 282 s \$0.chat.comand.display;
#X obj 15 143 route help;
#X obj 156 90 list;
#X msg 156 114 ---------- \, no such command: \$1 \, use: \, \ \ help \, to get more information \, ----------;
#X obj 15 51 route help debug unpatch;
#X msg 72 216 help ✓ \, ---------- \, Available commands are: \, \ \ debug: manage debug output \, \ \ help: show this help \, \ \ unpatch: control unpatch \, For more detailed information use: \, \ \ /<command> help \, ----------;
#X msg 15 168 help help ✓ \, ---------- \, Sorry\\\, there is no help for help \, ----------;
#X connect 0 0 5 0;
#X connect 2 0 7 0;
#X connect 2 1 6 0;
#X connect 3 0 4 0;
#X connect 4 0 1 0;
#X connect 5 0 2 0;
#X connect 5 3 3 0;
#X connect 6 0 1 0;
#X connect 7 0 1 0;
#X restore 17 19 pd help.cmd;
#X restore 12 507 pd commands;
#X obj 15 16 cnv 6 347 254 empty empty empty 20 12 0 14 #fcfcfc #404040 0;
#X obj 3 2 cnv 7 384 324 empty empty empty 6 8 1 12 #b0a8b8 #000000 0;
#X obj 5 4 cnv 15 380 320 empty empty netpd 3 12 0 20 #e8e0f0 #787080 0;
#X obj 85 279 chat-inputbox \$0.input;
#X obj 5 304 chat-button \$0.online.button online 79;
#X obj 85 304 chat-button \$0.list.button list 60;
#X obj 146 304 chat-button \$0.pref.button pref 60;
#X obj 207 304 chat-button \$0.mute.button mute 60;
#X obj 268 304 chat-button \$0.dsp.button dsp 54;
#X obj 323 304 chat-button \$0.unpatch.button unpatch 62;
#X obj 370 38 netpd-gui-scrollbar \$0.scrollbar 15 240 12;
#X obj 5 279 cnv 15 79 24 empty \$0.num.clients.label 1\  4 12 0 16 #e8e0f0 #787080 0;
#X obj 5 238 chat-line \$0 1;
#X obj 5 218 chat-line \$0 2;
#X obj 5 198 chat-line \$0 3;
#X obj 5 178 chat-line \$0 4;
#X obj 5 158 chat-line \$0 5;
#X obj 5 138 chat-line \$0 6;
#X obj 5 118 chat-line \$0 7;
#X obj 5 98 chat-line \$0 8;
#X obj 5 78 chat-line \$0 9;
#X obj 5 58 chat-line \$0 10;
#X obj 5 38 chat-line \$0 11;
#X obj 5 258 chat-line \$0 0;
#X msg 284 365 232 224 240;
#X text 366 368 background;
#X msg 284 393 120 112 128;
#X msg 284 422 200 192 208;
#X text 363 422 input box;
#X text 366 394 title font;
#X msg 284 451 64 56 72;
#X text 363 451 button active;
#X msg 284 480 164 156 172;
#X text 363 480 button inactive;
#X msg 283 515 176 168 184;
#X text 366 514 scrollbar handle;
#X obj 318 4 chat-version-display;
#X msg 163 418 VERSION 2 3 3;
#X connect 9 0 49 0;
#X connect 49 0 10 0;
#X coords 0 -1 1 1 384 324 2 3 2;
