#N canvas 138 521 681 399 10;
#X obj 98 20 cnv 19 260 19 empty \$0.msg.label empty 2 7 0 12 -241213
-262144 0;
#X obj 20 20 cnv 19 77 19 empty \$0.nick.label empty 2 7 0 12 -241213
-262144 0;
#X obj 114 280 s \$0.msg.label;
#X obj 14 281 s \$0.nick.label;
#X obj 385 75 route pos;
#X obj 385 52 r \$1.scrollbar;
#X obj 383 294 text get \$1.msgs;
#X obj 385 187 - \$2;
#X msg 14 181 label \$1;
#X msg 114 184 label \$2;
#X obj 14 158 t a a a, f 34;
#X msg 257 169 232 224 240;
#X obj 257 147 loadbang;
#X obj 257 192 netpd-rgb2iem;
#X msg 215 182 \$3;
#X obj 215 221 list prepend;
#X msg 215 244 color \$1 \$1 \$2;
#X obj 385 164 + 11;
#X obj 14 103 route bang;
#X msg 14 132 list empty empty 0;
#X obj 315 85 t a;
#X obj 448 123 text size \$1.msgs;
#X obj 385 98 t a b, f 11;
#X obj 448 192 min;
#X msg 448 169 \$1 11;
#X obj 448 146 - 1;
#X connect 4 0 22 0;
#X connect 5 0 4 0;
#X connect 6 0 20 0;
#X connect 7 0 6 0;
#X connect 8 0 3 0;
#X connect 9 0 2 0;
#X connect 10 0 8 0;
#X connect 10 1 9 0;
#X connect 10 2 14 0;
#X connect 11 0 13 0;
#X connect 12 0 11 0;
#X connect 13 0 15 1;
#X connect 14 0 15 0;
#X connect 15 0 16 0;
#X connect 16 0 2 0;
#X connect 16 0 3 0;
#X connect 17 0 7 0;
#X connect 18 0 19 0;
#X connect 18 1 10 0;
#X connect 19 0 10 0;
#X connect 20 0 18 0;
#X connect 21 0 25 0;
#X connect 22 0 17 0;
#X connect 22 1 21 0;
#X connect 23 0 17 1;
#X connect 24 0 23 0;
#X connect 25 0 24 0;
#X coords 0 -1 1 1 338 19 2 20 20;
