#N canvas 35 77 583 617 12;
#X obj 27 338 r \$0.yes;
#X obj 61 363 t a;
#X obj 27 363 sel;
#X obj 131 363 t a;
#X obj 97 363 sel;
#X obj 201 363 t a;
#X obj 167 363 sel;
#X obj 97 338 r \$0.no;
#X obj 167 338 r \$0.ask;
#X obj 48 491 s \$1.scrub.answer;
#X msg 27 407 yes;
#X msg 97 412 no;
#X msg 167 405 ask;
#N canvas 773 294 706 446 \$0.gop 0;
#X obj 21 21 cnv 20 498 50 empty empty Instrument\ scrubber 10 22 0 20 #e0e0e0 #000000 0;
#X text 39 90 Apparently\\\, you upgraded netpd. The scrubber will look into your netpd-instruments folder for copies of built-in instruments. If copies with an older version are found\\\, they are renamed with a .bak suffix. No file is deleted.;
#X text 39 160 This is to avoid a local (lower) version masking a newer upstream (built-in) version of an instrument. If you decide to skip this \, netpd will load the local version instead of the newer one.;
#X text 39 233 Do you want to scrub instruments and abstractions?;
#X obj 373 271 hsl 49 28 0 127 0 0 \$0.yes empty empty -2 -8 0 10 #fcfcfc #000000 #000000 0 1;
#X obj 438 271 hsl 49 28 0 127 0 0 \$0.no empty empty -2 -8 0 10 #fcfcfc #000000 #000000 0 1;
#X obj 370 271 cnv 15 54 28 empty empty empty 5 12 0 20 #7c7c7c #000000 0;
#X obj 372 273 cnv 15 50 24 empty empty Yes 5 12 0 20 #c6ffc7 #000000 0;
#X obj 435 271 cnv 15 54 28 empty empty empty 5 12 0 20 #7c7c7c #000000 0;
#X obj 437 273 cnv 15 50 24 empty empty No 5 12 0 20 #ffc7c6 #000000 0;
#X obj 205 271 hsl 149 28 0 127 0 0 \$0.ask empty empty -2 -8 0 10 #fcfcfc #000000 #000000 0 1;
#X obj 202 271 cnv 15 154 28 empty empty empty 5 12 0 20 #7c7c7c #000000 0;
#X obj 204 273 cnv 15 150 24 empty empty Ask\ for\ each 5 12 0 20 #dfdfdf #000000 0;
#X coords 0 -1 1 1 500 300 2 20 20;
#X restore 20 20 pd \$0.gop;
#X connect 0 0 2 0;
#X connect 1 0 2 1;
#X connect 2 0 10 0;
#X connect 2 1 1 0;
#X connect 3 0 4 1;
#X connect 4 0 11 0;
#X connect 4 1 3 0;
#X connect 5 0 6 1;
#X connect 6 0 12 0;
#X connect 6 1 5 0;
#X connect 7 0 4 0;
#X connect 8 0 6 0;
#X connect 10 0 9 0;
#X connect 11 0 9 0;
#X connect 12 0 9 0;
#X coords 0 -1 1 1 500 300 2 20 20;
