#N canvas 59 134 608 300 10;
#X obj 417 269 namecanvas \$0.canvas;
#X obj 417 246 s \$0.canvas;
#X msg 417 224 coords 0 -1 1 1 \$1 20 2 20 20;
#X obj 23 20 hsl 55 20 0 127 0 0 \$0.button \$0.button.r empty -2 -8
0 10 -262144 -1 -1 0 1;
#X obj 20 20 cnv 15 60 20 empty \$0.label online 3 12 0 14 -207925
-170476 0;
#X obj 436 202 s \$0.label;
#X obj 456 156 s \$0.button.r;
#X msg 456 133 size \$1 20;
#X obj 456 109 - 5;
#X msg 436 179 vis_size \$1 20;
#X obj 417 80 t a a a;
#X obj 336 8 loadbang;
#X obj 417 56 f \$3;
#X obj 336 57 symbol \$2;
#X obj 336 103 s \$0.label;
#X obj 336 31 t b b, f 14;
#X obj 26 59 r \$0.button;
#X obj 26 82 sel;
#X obj 53 82 t a;
#X obj 26 168 s \$1;
#X msg 90 174 232 224 240;
#X msg 117 125 200 192 208;
#X obj 26 105 t b b;
#X obj 90 103 t b b;
#X obj 90 146 del 150;
#X obj 90 197 netpd-rgb2iem;
#X obj 90 273 s \$0.label;
#X obj 218 17 r \$1;
#X obj 218 40 route set;
#X obj 218 63 sel 0 1;
#X msg 237 91 64 56 72;
#X msg 218 113 164 156 172;
#X obj 218 138 netpd-rgb2iem;
#X obj 90 229 pack f f;
#X msg 90 250 color \$1 \$1 \$2;
#X obj 218 161 t b a;
#X msg 336 80 label \$1;
#X obj 141 22 loadbang;
#X obj 141 45 t b b;
#X connect 2 0 1 0;
#X connect 7 0 6 0;
#X connect 8 0 7 0;
#X connect 9 0 5 0;
#X connect 10 0 2 0;
#X connect 10 1 9 0;
#X connect 10 2 8 0;
#X connect 11 0 15 0;
#X connect 12 0 10 0;
#X connect 13 0 36 0;
#X connect 15 0 13 0;
#X connect 15 1 12 0;
#X connect 16 0 17 0;
#X connect 17 0 22 0;
#X connect 17 1 18 0;
#X connect 18 0 17 1;
#X connect 20 0 25 0;
#X connect 21 0 25 0;
#X connect 22 0 19 0;
#X connect 22 1 23 0;
#X connect 23 0 24 0;
#X connect 23 1 21 0;
#X connect 24 0 20 0;
#X connect 25 0 33 0;
#X connect 27 0 28 0;
#X connect 28 0 29 0;
#X connect 29 0 31 0;
#X connect 29 1 30 0;
#X connect 30 0 32 0;
#X connect 31 0 32 0;
#X connect 32 0 35 0;
#X connect 33 0 34 0;
#X connect 34 0 26 0;
#X connect 35 0 33 0;
#X connect 35 1 33 1;
#X connect 36 0 14 0;
#X connect 37 0 38 0;
#X connect 38 0 20 0;
#X connect 38 1 31 0;
#X coords 0 -1 1 1 60 20 2 20 20;
