#N canvas 0 141 367 501 10;
#X declare -path osc;
#N canvas 97 607 172 320 chat 0;
#N canvas 331 376 444 295 connection 0;
#X msg 143 175 disconnect;
#X msg 9 184 connect \$1 \$2;
#X obj 9 138 symbol;
#X obj 9 162 pack s f;
#X obj 9 82 sel 1 0;
#X obj 9 258 s NETPD;
#X obj 9 236 list prepend tcpclient;
#X obj 118 41 r NETPD;
#X obj 118 62 route pref;
#X obj 118 83 route netpd-server netpd-port;
#X obj 118 104 list;
#X obj 222 201 netpd-s /server/num_of_clients l;
#X msg 222 176 0;
#X obj 9 12 r \$0-connect-server;
#X connect 0 0 6 0;
#X connect 1 0 6 0;
#X connect 2 0 3 0;
#X connect 3 0 1 0;
#X connect 4 0 2 0;
#X connect 4 1 0 0;
#X connect 4 1 12 0;
#X connect 6 0 5 0;
#X connect 7 0 8 0;
#X connect 8 0 9 0;
#X connect 9 0 10 0;
#X connect 9 1 3 1;
#X connect 10 0 2 1;
#X connect 12 0 11 0;
#X connect 13 0 4 0;
#X restore 17 85 pd connection;
#N canvas 269 417 192 351 chat-guicode 0;
#N canvas 380 115 492 638 talkdisplay 0;
#N canvas 323 46 684 806 scrolllist 0;
#X obj 163 547 s \$0-scrollbar;
#X msg 258 489 pos \$1 \$2;
#X obj 258 466 pack f f;
#X obj 258 423 t b f;
#X obj 76 350 int;
#X obj 76 286 /;
#X obj 76 197 max 1;
#X obj 76 307 min 1;
#X obj 146 312 -;
#X obj 258 396 min;
#X obj 180 335 t b f;
#X obj 258 360 max 0;
#X obj 258 172 r \$0-scrollsensor;
#X obj 258 232 t f f b;
#X obj 285 256 f;
#X obj 258 276 -;
#X obj 312 351 f;
#X obj 258 330 +;
#X obj 76 371 max 4;
#X obj 54 481 s \$0-scrollsensor-r;
#X msg 54 460 set \$1;
#X obj 54 439 f;
#X obj 481 495 /;
#X obj 519 497 max 0;
#X obj 481 562 *;
#X obj 481 582 int;
#X obj 481 602 change;
#X obj 62 86 s \$0-to_list-index;
#X obj 62 106 r \$0-from_list-index;
#X msg 62 66 length;
#X obj 32 128 list;
#X obj 9 9 r \$0-pl-refresh;
#X obj 519 471 - 3;
#X obj 76 264 pack;
#X obj 76 243 4;
#X obj 76 220 t b f;
#X obj 363 48 \$0;
#X obj 535 422 r \$0-numOfItems;
#X obj 535 449 - 1;
#X obj 139 247 r \$0-numOfItems;
#X obj 363 26 loadbang;
#X obj 60 536 f;
#X obj 32 509 t f f b;
#X obj 32 558 -;
#X obj 32 164 t a b a;
#X obj 9 34 t b b b;
#X obj 442 638 f;
#X obj 376 221 r \$0-setpos;
#X obj 32 742 s \$0-scrollsensor-r;
#X obj 57 603 t b b;
#X obj 87 625 0;
#X obj 62 689 f;
#X obj 84 660 r \$0-scrollsensor;
#X obj 32 689 f;
#X obj 32 652 t b b;
#X obj 258 444 337;
#X obj 309 445 + 24;
#X msg 76 395 vis_size 12 \$1;
#X msg 363 68 \; \$1-numOfItems 12;
#X obj 57 627 188;
#X obj 76 329 * 191;
#X msg 146 290 191 \$1;
#X obj 481 516 * -1;
#X obj 481 537 + 0.999;
#X obj 32 578 sel -1 1 0;
#N canvas 0 46 320 399 get_display_content 0;
#X obj 86 113 4;
#X obj 86 136 until;
#X obj 86 169 f;
#X obj 86 192 + 1;
#X obj 137 133 0;
#X obj 158 238 +;
#X obj 158 279 s \$0-to_list-index;
#X obj 158 299 r \$0-from_list-index;
#X obj 86 236 \$0;
#X msg 158 259 get \$1;
#X obj 86 307 pack f f;
#X obj 86 327 list append;
#X obj 86 213 t b a a;
#X obj 67 72 t a b b a;
#X obj 164 77 r \$0-numOfItems;
#X obj 86 365 outlet;
#X obj 67 41 inlet;
#X connect 0 0 1 0;
#X connect 1 0 2 0;
#X connect 2 0 3 0;
#X connect 3 0 2 1;
#X connect 3 0 12 0;
#X connect 4 0 2 1;
#X connect 5 0 9 0;
#X connect 7 0 11 1;
#X connect 8 0 10 0;
#X connect 9 0 6 0;
#X connect 10 0 11 0;
#X connect 11 0 15 0;
#X connect 12 0 8 0;
#X connect 12 1 10 1;
#X connect 12 2 5 0;
#X connect 13 1 0 0;
#X connect 13 2 4 0;
#X connect 13 3 5 1;
#X connect 14 0 0 1;
#X connect 16 0 13 0;
#X restore 442 667 pd get_display_content;
#X obj 442 693 outlet;
#X obj 103 719 s \$0-setpos;
#X connect 1 0 0 0;
#X connect 2 0 1 0;
#X connect 3 0 55 0;
#X connect 3 1 56 0;
#X connect 4 0 18 0;
#X connect 5 0 7 0;
#X connect 6 0 35 0;
#X connect 7 0 60 0;
#X connect 8 0 10 0;
#X connect 9 0 3 0;
#X connect 9 0 16 0;
#X connect 9 0 22 0;
#X connect 9 0 21 1;
#X connect 10 0 9 0;
#X connect 10 1 9 1;
#X connect 10 1 22 1;
#X connect 11 0 9 0;
#X connect 12 0 13 0;
#X connect 13 0 15 0;
#X connect 13 1 14 1;
#X connect 13 2 14 0;
#X connect 14 0 15 1;
#X connect 15 0 17 0;
#X connect 16 0 17 1;
#X connect 17 0 11 0;
#X connect 18 0 57 0;
#X connect 18 0 61 0;
#X connect 20 0 19 0;
#X connect 21 0 20 0;
#X connect 22 0 62 0;
#X connect 23 0 24 1;
#X connect 24 0 25 0;
#X connect 25 0 26 0;
#X connect 26 0 46 0;
#X connect 28 0 30 1;
#X connect 29 0 27 0;
#X connect 30 0 44 0;
#X connect 31 0 45 0;
#X connect 32 0 23 0;
#X connect 33 0 5 0;
#X connect 34 0 33 0;
#X connect 35 0 34 0;
#X connect 35 1 33 1;
#X connect 36 0 58 0;
#X connect 37 0 38 0;
#X connect 38 0 32 1;
#X connect 39 0 34 1;
#X connect 39 0 18 1;
#X connect 40 0 36 0;
#X connect 41 0 43 1;
#X connect 42 0 43 0;
#X connect 42 1 41 1;
#X connect 42 2 41 0;
#X connect 43 0 64 0;
#X connect 44 0 42 0;
#X connect 44 1 21 0;
#X connect 44 2 32 0;
#X connect 44 2 6 0;
#X connect 45 0 46 0;
#X connect 45 1 30 0;
#X connect 45 2 29 0;
#X connect 46 0 65 0;
#X connect 47 0 14 1;
#X connect 49 0 59 0;
#X connect 49 1 50 0;
#X connect 50 0 67 0;
#X connect 51 0 67 0;
#X connect 52 0 51 1;
#X connect 52 0 53 1;
#X connect 53 0 48 0;
#X connect 54 0 53 0;
#X connect 54 1 51 0;
#X connect 55 0 2 0;
#X connect 56 0 2 1;
#X connect 57 0 0 0;
#X connect 59 0 48 0;
#X connect 60 0 4 0;
#X connect 61 0 8 0;
#X connect 62 0 63 0;
#X connect 63 0 24 0;
#X connect 64 0 54 0;
#X connect 64 1 49 0;
#X connect 64 2 49 0;
#X connect 65 0 66 0;
#X restore 239 186 pd scrolllist;
#N canvas 668 46 542 290 set_gui 0;
#X obj 7 8 inlet;
#X obj 7 91 list append 0;
#X text 47 131 \$0 pos nick message txt.clr timestamp bg.clr;
#X obj 82 6 r NETPD;
#X obj 82 27 route pref;
#X obj 82 48 route ch.background.clr;
#X obj 82 69 netpd-rgb2iem;
#X msg 7 156 \; \$1-\$2-line label \$4 \; \$1-\$2-nick label \$3 \;
\$1-\$2-nick color \$7 -1 \$5 \; \$1-\$2-line color \$7 -1 \$5;
#X connect 0 0 1 0;
#X connect 1 0 7 0;
#X connect 3 0 4 0;
#X connect 4 0 5 0;
#X connect 5 0 6 0;
#X connect 6 0 1 1;
#X restore 239 212 pd set_gui;
#N canvas 391 295 441 309 list-index 0;
#X obj 256 155 list;
#X obj 256 109 r \$0-pl_i1;
#X obj 279 133 r \$0-pl_i2;
#X obj 256 176 s \$0-pl_o1;
#N canvas 336 203 232 208 method 0;
#X obj 8 13 r \$0-inlet1;
#X obj 8 35 route get;
#X obj 8 60 list;
#X obj 8 83 route float symbol;
#N canvas 310 81 182 456 get_position 0;
#X obj 28 336 sel empty;
#X obj 31 59 s \$0-pl_i1;
#X obj 31 79 r \$0-pl_o1;
#X obj 9 36 t b b a;
#X obj 9 102 list;
#X obj 28 151 until;
#X obj 28 263 list append;
#X obj 123 229 bang;
#X obj 61 202 f;
#X obj 61 224 + 1;
#X obj 103 157 0;
#X obj 28 174 t b b;
#X obj 28 362 f;
#X obj 9 394 f;
#X obj 9 125 t b b l b;
#X obj 9 416 s \$0-outlet1;
#X obj 9 12 inlet;
#X obj 28 309 list split 1;
#X obj 28 286 list split 6;
#X obj 114 253 r \$0-pl.length;
#X connect 0 0 12 0;
#X connect 2 0 4 1;
#X connect 3 0 4 0;
#X connect 3 1 1 0;
#X connect 3 2 0 1;
#X connect 4 0 14 0;
#X connect 5 0 11 0;
#X connect 6 0 18 0;
#X connect 7 0 5 1;
#X connect 8 0 9 0;
#X connect 9 0 8 1;
#X connect 9 0 12 1;
#X connect 10 0 8 1;
#X connect 10 0 13 1;
#X connect 11 0 6 0;
#X connect 11 1 8 0;
#X connect 12 0 13 1;
#X connect 13 0 15 0;
#X connect 14 0 13 0;
#X connect 14 1 5 0;
#X connect 14 2 6 1;
#X connect 14 3 10 0;
#X connect 16 0 3 0;
#X connect 17 0 0 0;
#X connect 18 0 17 0;
#X connect 18 1 6 1;
#X connect 18 2 7 0;
#X connect 19 0 18 1;
#X restore 68 120 pd get_position;
#N canvas 578 191 346 457 get_name 0;
#X obj 145 136 s \$0-pl_i1;
#X obj 145 157 r \$0-pl_o1;
#X obj 122 183 list;
#X obj 122 234 list split;
#X obj 78 67 - 1;
#X obj 78 91 moses 0;
#X obj 78 115 b;
#X obj 9 399 s \$0-outlet1;
#X obj 122 113 t b b f;
#X obj 9 5 inlet;
#X obj 9 27 t b a;
#X obj 9 377 list;
#X obj 208 2 r \$0-getname;
#X obj 208 403 s \$0-name;
#X obj 208 26 t b a;
#X obj 208 379 list;
#X obj 78 328 t a;
#X obj 187 198 * 6;
#X obj 154 260 list split 6;
#X obj 228 170 r \$0-pl.length;
#X msg 78 296 list empty empty 0 0;
#X connect 1 0 2 1;
#X connect 2 0 3 0;
#X connect 3 1 18 0;
#X connect 3 2 20 0;
#X connect 4 0 5 0;
#X connect 5 0 6 0;
#X connect 5 1 8 0;
#X connect 6 0 20 0;
#X connect 8 0 2 0;
#X connect 8 1 0 0;
#X connect 8 2 17 0;
#X connect 9 0 10 0;
#X connect 10 0 11 0;
#X connect 10 1 4 0;
#X connect 11 0 7 0;
#X connect 12 0 14 0;
#X connect 14 0 15 0;
#X connect 14 1 4 0;
#X connect 15 0 13 0;
#X connect 16 0 11 1;
#X connect 16 0 15 1;
#X connect 17 0 3 1;
#X connect 18 0 16 0;
#X connect 18 2 20 0;
#X connect 19 0 17 1;
#X connect 19 0 18 1;
#X connect 20 0 16 0;
#X restore 8 148 pd get_name;
#X connect 0 0 1 0;
#X connect 1 0 2 0;
#X connect 2 0 3 0;
#X connect 3 0 5 0;
#X connect 3 1 4 0;
#X restore 86 179 pd method get;
#N canvas 220 257 267 429 method 0;
#X obj 36 386 s \$0-pl_i2;
#X obj 14 0 r \$0-inlet1;
#X obj 14 22 route remove;
#X obj 14 44 list;
#X obj 36 111 s \$0-pl_i1;
#X obj 36 134 r \$0-pl_o1;
#X obj 14 158 list;
#X obj 14 90 t b b a;
#X obj 134 197 *;
#X obj 150 103 r \$0-pl.length;
#X obj 134 168 - 1;
#X obj 44 240 list split;
#X obj 76 267 list split;
#X obj 36 326 list;
#X obj 91 327 list;
#X obj 15 293 t b b;
#X obj 36 361 list append;
#X obj 14 65 moses 1;
#X obj 14 200 t b a b;
#X connect 1 0 2 0;
#X connect 2 0 3 0;
#X connect 3 0 17 0;
#X connect 5 0 6 1;
#X connect 6 0 18 0;
#X connect 7 0 6 0;
#X connect 7 1 4 0;
#X connect 7 2 10 0;
#X connect 8 0 11 1;
#X connect 9 0 8 1;
#X connect 9 0 12 1;
#X connect 10 0 8 0;
#X connect 11 0 13 1;
#X connect 11 1 12 0;
#X connect 11 2 13 1;
#X connect 12 1 14 1;
#X connect 12 2 14 1;
#X connect 13 0 16 0;
#X connect 14 0 16 1;
#X connect 15 0 13 0;
#X connect 15 1 14 0;
#X connect 16 0 0 0;
#X connect 17 1 7 0;
#X connect 18 0 15 0;
#X connect 18 1 11 0;
#X connect 18 2 13 1;
#X connect 18 2 14 1;
#X restore 86 159 pd method remove;
#N canvas 386 222 139 154 method 0;
#X obj 6 69 b;
#X obj 6 90 s \$0-pl_i2;
#X obj 6 11 r \$0-inlet1;
#X obj 6 33 route clear;
#X connect 0 0 1 0;
#X connect 2 0 3 0;
#X connect 3 0 0 0;
#X restore 86 139 pd method clear;
#N canvas 339 220 229 256 method 0;
#X obj 24 86 t a b;
#X obj 54 110 s \$0-pl_i1;
#X obj 54 131 r \$0-pl_o1;
#X obj 24 179 s \$0-pl_i2;
#X obj 24 158 list prepend;
#X obj 24 24 r \$0-inlet1;
#X obj 24 46 route append;
#X connect 0 0 4 0;
#X connect 0 1 1 0;
#X connect 2 0 4 1;
#X connect 4 0 3 0;
#X connect 5 0 6 0;
#X connect 6 0 0 0;
#X restore 86 99 pd method append;
#N canvas 0 0 180 270 method 0;
#X obj 63 111 s \$0-pl_i1;
#X obj 63 132 r \$0-pl_o1;
#X obj 33 159 list;
#X obj 33 87 t b b;
#X obj 33 228 s \$0-outlet1;
#X obj 33 26 r \$0-inlet1;
#X obj 33 48 route flush;
#X connect 1 0 2 1;
#X connect 2 0 4 0;
#X connect 3 0 2 0;
#X connect 3 1 0 0;
#X connect 5 0 6 0;
#X connect 6 0 3 0;
#X restore 86 79 pd method flush;
#N canvas 339 220 182 234 method 0;
#X obj 24 86 t a b;
#X obj 54 110 s \$0-pl_i1;
#X obj 54 131 r \$0-pl_o1;
#X obj 24 179 s \$0-pl_i2;
#X obj 24 24 r \$0-inlet1;
#X obj 24 46 route prepend;
#X obj 24 158 list append;
#X connect 0 0 6 0;
#X connect 0 1 1 0;
#X connect 2 0 6 1;
#X connect 4 0 5 0;
#X connect 5 0 0 0;
#X connect 6 0 3 0;
#X restore 86 119 pd method prepend;
#X obj 34 39 s \$0-inlet1;
#X obj 24 259 r \$0-outlet1;
#X obj 34 18 inlet;
#X obj 24 281 outlet;
#N canvas 336 203 219 224 method 0;
#X obj 8 13 r \$0-inlet1;
#X obj 8 35 route length;
#X obj 8 194 s \$0-outlet1;
#X obj 8 57 t b b;
#X obj 38 78 s \$0-pl_i1;
#X obj 38 98 r \$0-pl_o1;
#X obj 8 120 list;
#X obj 8 142 list length;
#X obj 8 166 / 6;
#X obj 97 124 r \$0-pl.length;
#X connect 0 0 1 0;
#X connect 1 0 3 0;
#X connect 3 0 6 0;
#X connect 3 1 4 0;
#X connect 5 0 6 1;
#X connect 6 0 7 0;
#X connect 7 0 8 0;
#X connect 8 0 2 0;
#X connect 9 0 8 1;
#X restore 86 220 pd method length;
#N canvas 336 203 401 682 method 0;
#X obj 8 13 r \$0-inlet1;
#X obj 8 60 list;
#X obj 8 35 route set;
#X obj 52 598 s \$0-pl_i2;
#X obj 127 260 s \$0-pl_i1;
#X obj 127 281 r \$0-pl_o1;
#X obj 104 307 list;
#X obj 104 327 list split;
#X obj 8 164 - 1;
#X obj 8 188 moses 0;
#X obj 8 212 b;
#X msg 8 122 \$1;
#X obj 8 143 route float;
#X obj 124 505 list;
#X obj 214 503 list;
#X obj 52 506 list;
#X obj 52 461 t b b b;
#X obj 52 557 list append;
#X obj 52 531 list append;
#X obj 288 451 t b;
#N canvas 0 0 379 420 replace 0;
#X obj 26 16 inlet;
#X obj 26 354 outlet;
#X obj 271 12 inlet;
#X obj 48 75 list split;
#X msg 113 12 \$2;
#X obj 113 54 - 1;
#X obj 98 273 list;
#X obj 199 272 list;
#X obj 26 274 list;
#X obj 26 225 t b b b;
#X obj 26 325 list append;
#X obj 26 299 list append;
#X obj 301 207 t b;
#X obj 26 48 t b a b;
#X msg 147 184 \$3;
#X obj 147 207 list;
#X obj 271 37 t a b;
#X obj 80 123 list split 1;
#X obj 113 32 max 1;
#X obj 141 252 0;
#X obj 113 202 b;
#X connect 0 0 13 0;
#X connect 2 0 16 0;
#X connect 3 0 8 1;
#X connect 3 1 17 0;
#X connect 3 2 8 1;
#X connect 3 2 20 0;
#X connect 4 0 18 0;
#X connect 5 0 3 1;
#X connect 6 0 11 1;
#X connect 7 0 10 1;
#X connect 8 0 11 0;
#X connect 9 0 8 0;
#X connect 9 1 6 0;
#X connect 9 2 7 0;
#X connect 10 0 1 0;
#X connect 11 0 10 0;
#X connect 12 0 7 1;
#X connect 12 0 8 1;
#X connect 12 0 19 0;
#X connect 13 0 9 0;
#X connect 13 1 3 0;
#X connect 14 0 15 0;
#X connect 15 0 6 1;
#X connect 16 0 14 0;
#X connect 16 0 4 0;
#X connect 16 1 12 0;
#X connect 17 1 7 1;
#X connect 17 2 20 0;
#X connect 18 0 5 0;
#X connect 19 0 6 1;
#X connect 20 0 6 1;
#X restore 137 436 pd replace;
#X obj 8 92 t a a b;
#X obj 52 210 t b b b f;
#X obj 169 304 * 6;
#X obj 136 353 list split 6;
#X obj 270 280 r \$0-pl.length;
#X connect 0 0 2 0;
#X connect 1 0 21 0;
#X connect 2 0 1 0;
#X connect 5 0 6 1;
#X connect 6 0 7 0;
#X connect 7 0 15 1;
#X connect 7 1 24 0;
#X connect 7 2 15 1;
#X connect 8 0 9 0;
#X connect 9 0 10 0;
#X connect 9 1 22 0;
#X connect 11 0 12 0;
#X connect 12 0 8 0;
#X connect 13 0 18 1;
#X connect 14 0 17 1;
#X connect 15 0 18 0;
#X connect 16 0 15 0;
#X connect 16 1 13 0;
#X connect 16 2 14 0;
#X connect 17 0 3 0;
#X connect 18 0 17 0;
#X connect 19 0 14 1;
#X connect 19 0 13 1;
#X connect 19 0 15 1;
#X connect 20 0 13 1;
#X connect 21 0 11 0;
#X connect 21 1 20 1;
#X connect 21 2 19 0;
#X connect 22 0 16 0;
#X connect 22 1 6 0;
#X connect 22 2 4 0;
#X connect 22 3 23 0;
#X connect 23 0 7 1;
#X connect 24 0 20 0;
#X connect 24 1 14 1;
#X connect 24 2 14 1;
#X connect 25 0 23 1;
#X connect 25 0 24 1;
#X restore 86 200 pd method set;
#X connect 0 0 3 0;
#X connect 1 0 0 0;
#X connect 2 0 0 1;
#X connect 11 0 13 0;
#X connect 12 0 10 0;
#X restore 240 116 pd list-index;
#X obj 240 94 r \$0-to_list-index;
#X obj 240 138 s \$0-from_list-index;
#X obj 69 345 list trim;
#X obj 240 67 s \$0-pl.length;
#X obj 240 27 loadbang;
#X obj 69 367 s \$0-to_list-index;
#X obj 69 302 list prepend prepend;
#X obj 30 417 s \$0-to_list-index;
#X obj 11 441 s \$0-pl-refresh;
#X obj 240 47 4;
#X obj 15 471 r \$0-toall;
#X obj 45 541 s \$0-to_list-index;
#X obj 15 561 s \$0-pl-refresh;
#X obj 15 497 t b b;
#X msg 45 519 clear;
#X obj 238 259 r \$0-gui.update;
#X obj 238 281 s \$0-pl-refresh;
#X obj 254 430 s \$0-scrollbar;
#X msg 254 409 color \$1 \$1;
#N canvas 353 174 286 374 font-setting 0;
#X obj 27 122 r \$0-numOfItems;
#X msg 11 71 \$1 \$2;
#X obj 11 91 t b a;
#X obj 11 147 f;
#X obj 11 192 until;
#X obj 11 168 t a b;
#X obj 11 219 f;
#X obj 56 195 0;
#X obj 11 243 + 1;
#X obj 11 268 list prepend \$0;
#X msg 11 317 \; \$1-\$2-line label_font \$3 \$4 \; \$1-\$2-nick label_font
\$3 \$4 \;;
#X obj 11 293 list append 0 0;
#X obj 11 6 r NETPD;
#X obj 11 27 route pref;
#X obj 11 48 route ch.talk.fnt;
#X connect 0 0 3 1;
#X connect 1 0 2 0;
#X connect 2 0 3 0;
#X connect 2 1 11 1;
#X connect 3 0 5 0;
#X connect 4 0 6 0;
#X connect 5 0 4 0;
#X connect 5 1 7 0;
#X connect 6 0 8 0;
#X connect 7 0 6 1;
#X connect 8 0 6 1;
#X connect 8 0 9 0;
#X connect 9 0 11 0;
#X connect 11 0 10 0;
#X connect 12 0 13 0;
#X connect 13 0 14 0;
#X connect 14 0 1 0;
#X restore 248 466 pd font-setting;
#X obj 69 323 list append 0;
#X obj 11 112 list;
#X obj 11 166 unpack s s f;
#X obj 11 255 pack s s f;
#N canvas 505 614 308 211 client_color 0;
#X obj 22 7 inlet;
#X obj 22 183 outlet;
#X obj 22 42 t a b;
#N canvas 447 120 467 356 render_color 0;
#X obj 8 19 inlet;
#X obj 340 27 inlet;
#X obj 340 67 unpack f f f;
#X obj 340 87 / 128;
#X obj 379 87 / 128;
#X obj 419 87 / 128;
#X obj 340 108 int;
#X obj 379 108 int;
#X obj 419 108 int;
#X obj 340 182 * 128;
#X obj 379 182 * 128;
#X obj 419 181 * 128;
#X obj 8 224 +;
#X obj 106 221 +;
#X obj 197 218 +;
#X obj 340 132 * -1;
#X obj 340 153 + 1;
#X obj 379 130 * -1;
#X obj 379 151 + 1;
#X obj 419 132 * -1;
#X obj 419 153 + 1;
#N canvas 810 442 194 198 convert_to_pd-color 0;
#X obj 78 40 * -256;
#X obj 13 40 * -65536;
#X obj 143 41 * -1;
#X obj 13 19 int;
#X obj 78 18 int;
#X obj 143 19 int;
#X obj 78 92 +;
#X obj 65 117 +;
#X obj 65 161 outlet;
#X obj 13 -1 inlet;
#X obj 78 -3 inlet;
#X obj 143 -1 inlet;
#X connect 0 0 6 0;
#X connect 1 0 7 0;
#X connect 2 0 6 1;
#X connect 3 0 1 0;
#X connect 4 0 0 0;
#X connect 5 0 2 0;
#X connect 6 0 7 1;
#X connect 7 0 8 0;
#X connect 9 0 3 0;
#X connect 10 0 4 0;
#X connect 11 0 5 0;
#X restore 8 252 pd convert_to_pd-color;
#N canvas 814 247 252 364 assign 0;
#X obj 16 11 inlet;
#X obj 16 317 outlet;
#X obj 16 54 route 0 1 2 3 4 5 6 7;
#X obj 16 258 unpack f f f;
#X obj 64 317 outlet;
#X obj 111 317 outlet;
#X msg 33 206 120 120 120;
#X msg 51 186 10 10 120;
#X msg 69 164 120 120 10;
#X msg 87 144 120 10 10;
#X msg 104 124 10 120 120;
#X msg 122 104 10 120 60;
#X msg 140 85 120 10 120;
#X msg 16 228 10 10 10;
#X obj 16 33 mod 8;
#X connect 0 0 14 0;
#X connect 2 0 13 0;
#X connect 2 1 6 0;
#X connect 2 2 7 0;
#X connect 2 3 8 0;
#X connect 2 4 9 0;
#X connect 2 5 10 0;
#X connect 2 6 11 0;
#X connect 2 7 12 0;
#X connect 3 0 1 0;
#X connect 3 1 4 0;
#X connect 3 2 5 0;
#X connect 6 0 3 0;
#X connect 7 0 3 0;
#X connect 8 0 3 0;
#X connect 9 0 3 0;
#X connect 10 0 3 0;
#X connect 11 0 3 0;
#X connect 12 0 3 0;
#X connect 13 0 3 0;
#X connect 14 0 2 0;
#X restore 8 86 pd assign;
#X obj 8 305 outlet;
#X connect 0 0 22 0;
#X connect 1 0 2 0;
#X connect 2 0 3 0;
#X connect 2 1 4 0;
#X connect 2 2 5 0;
#X connect 3 0 6 0;
#X connect 4 0 7 0;
#X connect 5 0 8 0;
#X connect 6 0 15 0;
#X connect 7 0 17 0;
#X connect 8 0 19 0;
#X connect 9 0 12 1;
#X connect 10 0 13 1;
#X connect 11 0 14 1;
#X connect 12 0 21 0;
#X connect 13 0 21 1;
#X connect 14 0 21 2;
#X connect 15 0 16 0;
#X connect 16 0 9 0;
#X connect 17 0 18 0;
#X connect 18 0 10 0;
#X connect 19 0 20 0;
#X connect 20 0 11 0;
#X connect 21 0 23 0;
#X connect 22 0 12 0;
#X connect 22 1 13 0;
#X connect 22 2 14 0;
#X restore 22 139 pd render_color;
#X obj 91 114 list;
#X obj 112 9 r NETPD;
#X obj 112 30 route pref;
#X obj 112 51 route ch.background.clr;
#X connect 0 0 2 0;
#X connect 2 0 3 0;
#X connect 2 1 4 0;
#X connect 3 0 1 0;
#X connect 4 0 3 1;
#X connect 5 0 6 0;
#X connect 6 0 7 0;
#X connect 7 0 4 1;
#X restore 80 233 pd client_color;
#X obj 50 189 t a b;
#X obj 11 137 t a b;
#X obj 108 167 1;
#X obj 80 211 f;
#X obj 11 278 t b b b a;
#X msg 30 394 remove 201;
#X obj 254 325 r NETPD;
#X obj 254 346 route pref;
#X obj 254 367 route ch.active.clr;
#X obj 254 388 netpd-rgb2iem;
#X obj 225 610 s \$0-pl-refresh;
#X obj 225 503 r NETPD;
#X obj 225 524 route pref;
#X obj 225 546 route ch.talk.fnt ch.background.clr;
#X obj 225 568 t b;
#X obj 225 590 del 0;
#X obj 11 16 netpd-r /chat/msg;
#N canvas 0 106 413 217 command.display 0;
#X obj 21 17 r \$0.chat.comand.display;
#X obj 21 117 list prepend;
#X obj 21 140 list append 0;
#X obj 148 90 loadbang;
#X msg 148 113 symbol \ ;
#X obj 21 167 outlet;
#X obj 21 54 netpd-list2symbol;
#X connect 0 0 6 0;
#X connect 1 0 2 0;
#X connect 2 0 5 0;
#X connect 3 0 4 0;
#X connect 4 0 1 1;
#X connect 6 0 1 0;
#X restore 30 65 pd command.display;
#X connect 0 0 1 0;
#X connect 2 0 4 0;
#X connect 3 0 2 0;
#X connect 5 0 8 0;
#X connect 7 0 12 0;
#X connect 9 0 23 0;
#X connect 12 0 6 0;
#X connect 13 0 16 0;
#X connect 16 0 15 0;
#X connect 16 1 17 0;
#X connect 17 0 14 0;
#X connect 18 0 19 0;
#X connect 21 0 20 0;
#X connect 23 0 5 0;
#X connect 24 0 29 0;
#X connect 25 0 26 0;
#X connect 25 1 28 0;
#X connect 25 2 31 1;
#X connect 26 0 32 0;
#X connect 27 0 26 2;
#X connect 28 0 26 1;
#X connect 28 1 31 0;
#X connect 29 0 25 0;
#X connect 29 1 30 0;
#X connect 30 0 31 1;
#X connect 31 0 27 0;
#X connect 32 0 11 0;
#X connect 32 1 33 0;
#X connect 32 3 9 0;
#X connect 33 0 10 0;
#X connect 34 0 35 0;
#X connect 35 0 36 0;
#X connect 36 0 37 0;
#X connect 37 0 21 0;
#X connect 39 0 40 0;
#X connect 40 0 41 0;
#X connect 41 0 42 0;
#X connect 41 1 42 0;
#X connect 42 0 43 0;
#X connect 43 0 38 0;
#X connect 44 0 24 0;
#X connect 45 0 24 0;
#X restore 9 48 pd talkdisplay;
#N canvas 357 176 826 326 connect-button 0;
#X obj 8 50 sel 0 1;
#X msg 8 94 label offline;
#X msg 27 73 label online;
#X obj 8 289 s \$0-connect-display;
#X obj 58 147 r \$0-toall;
#X obj 212 187 f;
#X obj 241 188 f;
#X obj 212 135 f;
#X obj 101 77 r \$0-gui.update;
#X msg 705 174 label_font \$1 \$2;
#X obj 212 13 r \$0-connect;
#X obj 212 214 list append 0;
#X obj 8 26 route connection;
#X obj 8 5 r NETPD;
#X obj 487 10 r NETPD;
#X obj 487 31 route pref;
#X obj 487 52 route ch.background.clr ch.active.clr ch.font.clr ch.buttons.fnt
;
#X obj 514 123 netpd-rgb2iem;
#X obj 586 146 netpd-rgb2iem;
#X obj 659 109 netpd-rgb2iem;
#X obj 487 87 t b a;
#X obj 559 86 t b a;
#X obj 632 87 t b a;
#X obj 487 115 t b;
#X obj 212 36 sel 0;
#X obj 254 36 t a;
#X obj 212 84 ==;
#X obj 249 84 t a;
#X obj 290 56 route connection;
#X obj 290 37 r NETPD;
#X msg 212 236 color \$1 \$1 \$2;
#X obj 212 108 t a a;
#X obj 252 107 s \$0-connect-server;
#X obj 212 159 sel 0 1;
#N canvas 733 447 419 245 netpd-auto-connect 0;
#X obj 51 154 outlet;
#X obj 12 12 loadbang;
#X obj 51 114 sel 1;
#X msg 27 63 1;
#X obj 12 32 t b b b;
#X obj 12 84 f 0;
#X obj 12 104 sel 0;
#X msg 12 164 1;
#X text 184 186 set to 1 when not defined;
#X obj 51 84 netpd-pref-get netpd-auto-connect;
#X obj 12 189 s \$0.netpd-auto-connect.r;
#X connect 1 0 4 0;
#X connect 2 0 0 0;
#X connect 3 0 5 1;
#X connect 4 0 5 0;
#X connect 4 2 9 0;
#X connect 5 0 6 0;
#X connect 6 0 7 0;
#X connect 6 0 0 0;
#X connect 7 0 10 0;
#X connect 9 0 3 0;
#X connect 9 0 2 0;
#X restore 296 13 pd netpd-auto-connect;
#X connect 0 0 1 0;
#X connect 0 1 2 0;
#X connect 1 0 3 0;
#X connect 2 0 3 0;
#X connect 4 0 3 0;
#X connect 5 0 11 0;
#X connect 6 0 11 0;
#X connect 7 0 33 0;
#X connect 8 0 7 0;
#X connect 9 0 3 0;
#X connect 10 0 24 0;
#X connect 11 0 30 0;
#X connect 12 0 0 0;
#X connect 13 0 12 0;
#X connect 14 0 15 0;
#X connect 15 0 16 0;
#X connect 16 0 20 0;
#X connect 16 1 21 0;
#X connect 16 2 22 0;
#X connect 16 3 9 0;
#X connect 17 0 5 1;
#X connect 18 0 6 1;
#X connect 19 0 11 1;
#X connect 20 0 23 0;
#X connect 20 1 17 0;
#X connect 21 0 23 0;
#X connect 21 1 18 0;
#X connect 22 0 23 0;
#X connect 22 1 19 0;
#X connect 23 0 7 0;
#X connect 24 0 26 0;
#X connect 24 1 25 0;
#X connect 25 0 24 1;
#X connect 26 0 27 0;
#X connect 26 0 31 0;
#X connect 27 0 26 1;
#X connect 28 0 26 1;
#X connect 28 0 7 0;
#X connect 29 0 28 0;
#X connect 30 0 3 0;
#X connect 31 0 7 0;
#X connect 31 1 32 0;
#X connect 33 0 5 0;
#X connect 33 1 6 0;
#X connect 34 0 26 0;
#X restore 9 88 pd connect-button;
#N canvas 713 1299 579 312 clients-display 0;
#X msg 10 122 list \$1 clients;
#X msg 10 168 label \$1;
#X obj 88 165 r \$0-toall;
#X obj 10 235 s \$0-onlinedisplay;
#X obj 231 124 pack;
#X obj 328 95 t b a;
#X msg 231 147 color \$1 \$2;
#X msg 429 140 label_font \$1 \$2;
#X obj 10 13 r NETPD;
#X obj 10 34 route from;
#X obj 10 54 routeOSC /server;
#X obj 10 74 routeOSC /num_of_clients;
#X obj 231 11 r NETPD;
#X obj 231 32 route pref;
#X obj 231 74 netpd-rgb2iem;
#X obj 328 74 netpd-rgb2iem;
#X obj 231 53 route ch.background.clr ch.font.clr ch.buttons.fnt;
#X obj 10 145 netpd-l2s;
#X obj 201 235 loadbang;
#X msg 201 258 32;
#X obj 201 281 makefilename %c;
#X connect 0 0 17 0;
#X connect 1 0 3 0;
#X connect 2 0 3 0;
#X connect 4 0 6 0;
#X connect 5 0 4 0;
#X connect 5 1 4 1;
#X connect 6 0 3 0;
#X connect 7 0 3 0;
#X connect 8 0 9 0;
#X connect 9 0 10 0;
#X connect 10 0 11 0;
#X connect 11 0 0 0;
#X connect 12 0 13 0;
#X connect 13 0 16 0;
#X connect 14 0 4 0;
#X connect 15 0 5 0;
#X connect 16 0 14 0;
#X connect 16 1 15 0;
#X connect 16 2 7 0;
#X connect 17 0 1 0;
#X connect 18 0 19 0;
#X connect 19 0 20 0;
#X connect 20 0 17 1;
#X restore 9 68 pd clients-display;
#N canvas 533 1299 458 222 inputbox 0;
#X obj 21 179 s \$0-inputbox-r;
#X msg 21 154 set \$1;
#X msg 21 111 list >> click here & type & press <Enter>;
#X msg 294 112 color \$1 \$1;
#X obj 294 133 s \$0-input;
#X obj 21 16 loadbang;
#X obj 294 27 r NETPD;
#X obj 294 48 route pref;
#X obj 294 69 route ch.inputbox.clr;
#X obj 294 90 netpd-rgb2iem;
#X obj 22 131 netpd-l2s;
#X obj 21 39 t b b;
#X msg 48 65 32;
#X obj 48 88 makefilename %c;
#X connect 1 0 0 0;
#X connect 2 0 10 0;
#X connect 3 0 4 0;
#X connect 5 0 11 0;
#X connect 6 0 7 0;
#X connect 7 0 8 0;
#X connect 8 0 9 0;
#X connect 9 0 3 0;
#X connect 10 0 1 0;
#X connect 11 0 2 0;
#X connect 11 1 12 0;
#X connect 12 0 13 0;
#X connect 13 0 10 1;
#X restore 9 28 pd inputbox;
#N canvas 357 181 696 299 list-button 0;
#X obj 12 6 r \$0-list;
#X obj 12 194 s \$0-listrequest;
#X text 194 78 select color;
#X obj 192 156 f;
#X obj 221 157 f;
#X obj 192 257 s \$0-list-display;
#X msg 192 203 color \$1 \$2;
#X obj 192 128 sel 1 0;
#X obj 192 105 1;
#X obj 192 181 list append 0;
#X msg 573 177 label_font \$1 \$2;
#X obj 355 13 r NETPD;
#X obj 355 34 route pref;
#X obj 355 55 route ch.background.clr ch.active.clr ch.font.clr ch.buttons.fnt
;
#X obj 382 154 netpd-rgb2iem;
#X obj 454 134 netpd-rgb2iem;
#X obj 527 112 netpd-rgb2iem;
#X obj 355 92 t b a;
#X obj 427 92 t b a;
#X obj 500 90 t b a;
#X obj 355 116 t b;
#X obj 12 31 sel 0;
#X obj 57 31 t a;
#X obj 12 53 t b b;
#X connect 0 0 21 0;
#X connect 3 0 9 0;
#X connect 4 0 9 0;
#X connect 6 0 5 0;
#X connect 7 0 3 0;
#X connect 7 1 4 0;
#X connect 8 0 7 0;
#X connect 9 0 6 0;
#X connect 10 0 5 0;
#X connect 11 0 12 0;
#X connect 12 0 13 0;
#X connect 13 0 17 0;
#X connect 13 1 18 0;
#X connect 13 2 19 0;
#X connect 13 3 10 0;
#X connect 14 0 3 1;
#X connect 15 0 4 1;
#X connect 16 0 9 1;
#X connect 17 0 20 0;
#X connect 17 1 14 0;
#X connect 18 0 20 0;
#X connect 18 1 15 0;
#X connect 19 0 20 0;
#X connect 19 1 16 0;
#X connect 20 0 8 0;
#X connect 21 0 23 0;
#X connect 21 1 22 0;
#X connect 22 0 21 1;
#X connect 23 0 1 0;
#X connect 23 1 8 0;
#X restore 9 108 pd list-button;
#N canvas 354 172 735 261 pref-button 0;
#X text 203 7 select color;
#X obj 192 157 f;
#X obj 221 158 f;
#X msg 192 211 color \$1 \$2;
#X obj 12 6 r \$0-pref;
#X obj 192 236 s \$0-pref-display;
#X obj 192 73 r \$0-gui.update;
#X obj 192 129 sel 1 0;
#X obj 192 106 1;
#X obj 192 189 list append 0;
#X obj 12 184 list prepend pref gui;
#X obj 12 205 list trim;
#X obj 12 226 s NETPD;
#X msg 12 164 1;
#X msg 578 194 label_font \$1 \$2;
#X obj 360 30 r NETPD;
#X obj 360 51 route pref;
#X obj 360 72 route ch.background.clr ch.active.clr ch.font.clr ch.buttons.fnt
;
#X obj 387 172 netpd-rgb2iem;
#X obj 459 152 netpd-rgb2iem;
#X obj 532 130 netpd-rgb2iem;
#X obj 360 108 t b a;
#X obj 432 108 t b a;
#X obj 505 107 t b a;
#X obj 360 140 t b;
#X obj 12 31 sel 0;
#X obj 57 31 t a;
#X obj 12 54 t b b;
#X connect 1 0 9 0;
#X connect 2 0 9 0;
#X connect 3 0 5 0;
#X connect 4 0 25 0;
#X connect 6 0 8 0;
#X connect 7 0 1 0;
#X connect 7 1 2 0;
#X connect 8 0 7 0;
#X connect 9 0 3 0;
#X connect 10 0 11 0;
#X connect 11 0 12 0;
#X connect 13 0 10 0;
#X connect 14 0 5 0;
#X connect 15 0 16 0;
#X connect 16 0 17 0;
#X connect 17 0 21 0;
#X connect 17 1 22 0;
#X connect 17 2 23 0;
#X connect 17 3 14 0;
#X connect 18 0 1 1;
#X connect 19 0 2 1;
#X connect 20 0 9 1;
#X connect 21 0 24 0;
#X connect 21 1 18 0;
#X connect 22 0 24 0;
#X connect 22 1 19 0;
#X connect 23 0 24 0;
#X connect 23 1 20 0;
#X connect 24 0 8 0;
#X connect 25 0 27 0;
#X connect 25 1 26 0;
#X connect 26 0 25 1;
#X connect 27 0 13 0;
#X connect 27 1 8 0;
#X restore 9 128 pd pref-button;
#N canvas 357 157 930 277 unpatch-button 0;
#X obj 291 104 sel 0 1;
#X text 362 27 select color;
#X obj 291 131 f;
#X obj 320 133 f;
#X msg 291 181 color \$1 \$2;
#X obj 12 6 r \$0-showunpatch;
#X obj 291 206 s \$0-showunpatch-display;
#X obj 291 74 f;
#X obj 291 159 list append 0;
#X msg 693 178 label_font \$1 \$2;
#X obj 475 14 r NETPD;
#X obj 475 35 route pref;
#X obj 475 56 route ch.background.clr ch.active.clr ch.font.clr ch.buttons.fnt
;
#X obj 502 157 netpd-rgb2iem;
#X obj 574 137 netpd-rgb2iem;
#X obj 647 115 netpd-rgb2iem;
#X obj 475 91 t b a;
#X obj 547 90 t b a;
#X obj 620 91 t b a;
#X obj 475 123 t b;
#X obj 12 31 sel 0;
#X obj 57 31 t a;
#X obj 12 71 ==;
#X obj 51 71 t a;
#X obj 148 18 r NETPD;
#X obj 148 41 route unpatch;
#X obj 148 64 route start stop;
#X msg 148 87 1;
#X msg 194 88 0;
#X obj 12 102 sel 0 1;
#X msg 12 132 stop;
#X msg 56 132 start;
#X obj 12 166 list prepend unpatch;
#X obj 12 189 list trim;
#X obj 12 212 s NETPD;
#X obj 148 114 t a a;
#X connect 0 0 2 0;
#X connect 0 1 3 0;
#X connect 2 0 8 0;
#X connect 3 0 8 0;
#X connect 4 0 6 0;
#X connect 5 0 20 0;
#X connect 7 0 0 0;
#X connect 8 0 4 0;
#X connect 9 0 6 0;
#X connect 10 0 11 0;
#X connect 11 0 12 0;
#X connect 12 0 16 0;
#X connect 12 1 17 0;
#X connect 12 2 18 0;
#X connect 12 3 9 0;
#X connect 13 0 2 1;
#X connect 14 0 3 1;
#X connect 15 0 8 1;
#X connect 16 0 19 0;
#X connect 16 1 13 0;
#X connect 17 0 19 0;
#X connect 17 1 14 0;
#X connect 18 0 19 0;
#X connect 18 1 15 0;
#X connect 19 0 7 0;
#X connect 20 0 22 0;
#X connect 20 1 21 0;
#X connect 21 0 20 1;
#X connect 22 0 23 0;
#X connect 22 0 29 0;
#X connect 23 0 22 1;
#X connect 24 0 25 0;
#X connect 25 0 26 0;
#X connect 26 0 27 0;
#X connect 26 1 28 0;
#X connect 27 0 35 0;
#X connect 28 0 35 0;
#X connect 29 0 30 0;
#X connect 29 1 31 0;
#X connect 30 0 32 0;
#X connect 31 0 32 0;
#X connect 32 0 33 0;
#X connect 33 0 34 0;
#X connect 35 0 23 0;
#X connect 35 1 7 0;
#X restore 9 185 pd unpatch-button;
#N canvas 485 1310 591 329 title 0;
#X obj 24 186 list prepend n e t p d;
#X obj 257 198 r \$0-toall;
#X obj 24 290 s \$0-title;
#X msg 24 231 label \$1;
#X obj 24 8 loadbang;
#X obj 287 128 pack;
#X obj 382 95 t b f;
#X msg 287 148 color \$1 \$2;
#X msg 477 182 label_font \$1 \$2;
#X obj 287 12 r NETPD;
#X obj 287 33 route pref;
#X obj 287 75 netpd-rgb2iem;
#X obj 382 74 netpd-rgb2iem;
#X obj 287 54 route ch.background.clr ch.font.clr ch.title.fnt;
#X msg 99 113 list \$1 . \$2 . \$3;
#X obj 24 208 netpd-l2s;
#X msg 75 56 32;
#X obj 75 80 makefilename %c;
#X msg 24 78 symbol;
#X obj 24 121 pack s s s;
#X obj 24 101 t a a a;
#X obj 24 144 list append, f 13;
#X obj 24 51 t b a b;
#X obj 24 29 netpd-status-get version 1;
#X connect 0 0 15 0;
#X connect 1 0 2 0;
#X connect 3 0 2 0;
#X connect 4 0 23 0;
#X connect 5 0 7 0;
#X connect 6 0 5 0;
#X connect 6 1 5 1;
#X connect 7 0 2 0;
#X connect 8 0 2 0;
#X connect 9 0 10 0;
#X connect 10 0 13 0;
#X connect 11 0 5 0;
#X connect 12 0 6 0;
#X connect 13 0 11 0;
#X connect 13 1 12 0;
#X connect 13 2 8 0;
#X connect 14 0 21 1;
#X connect 15 0 3 0;
#X connect 16 0 17 0;
#X connect 17 0 15 1;
#X connect 18 0 20 0;
#X connect 19 0 21 0;
#X connect 20 0 19 0;
#X connect 20 1 19 1;
#X connect 20 2 19 2;
#X connect 21 0 0 0;
#X connect 22 0 18 0;
#X connect 22 1 14 0;
#X connect 22 2 16 0;
#X connect 23 0 22 0;
#X restore 9 9 pd title;
#N canvas 607 310 168 165 border 0;
#X msg 27 107 color \$1 \$1;
#X obj 27 129 s \$0-border;
#X obj 27 20 r NETPD;
#X obj 27 41 route pref;
#X obj 27 62 route ch.border.clr;
#X obj 27 83 netpd-rgb2iem;
#X connect 0 0 1 0;
#X connect 2 0 3 0;
#X connect 3 0 4 0;
#X connect 4 0 5 0;
#X connect 5 0 0 0;
#X restore 9 204 pd border;
#N canvas 634 237 190 167 background 0;
#X msg 36 104 color \$1 \$1;
#X obj 36 126 s \$0-background;
#X obj 36 20 r NETPD;
#X obj 36 41 route pref;
#X obj 36 62 route ch.background.clr;
#X obj 36 83 netpd-rgb2iem;
#X connect 0 0 1 0;
#X connect 2 0 3 0;
#X connect 3 0 4 0;
#X connect 4 0 5 0;
#X connect 5 0 0 0;
#X restore 9 223 pd background;
#N canvas 357 181 804 250 mute-button 0;
#X obj 291 104 sel 0 1;
#X text 362 27 select color;
#X obj 291 132 f;
#X obj 320 133 f;
#X msg 291 181 color \$1 \$2;
#X obj 291 74 f;
#X obj 291 159 list append 0;
#X obj 12 6 r \$0-mute;
#X obj 291 206 s \$0-mute-display;
#X obj 12 169 s \$0-muteclick;
#X msg 677 178 label_font \$1 \$2;
#X obj 459 14 r NETPD;
#X obj 459 35 route pref;
#X obj 459 56 route ch.background.clr ch.active.clr ch.font.clr ch.buttons.fnt
;
#X obj 486 160 netpd-rgb2iem;
#X obj 558 140 netpd-rgb2iem;
#X obj 631 115 netpd-rgb2iem;
#X obj 459 91 t b a;
#X obj 531 93 t b a;
#X obj 604 92 t b a;
#X obj 459 123 t b;
#X obj 12 31 sel 0;
#X obj 57 31 t a;
#X obj 12 56 ==;
#X obj 42 56 t a;
#X obj 12 87 t a a;
#X connect 0 0 2 0;
#X connect 0 1 3 0;
#X connect 2 0 6 0;
#X connect 3 0 6 0;
#X connect 4 0 8 0;
#X connect 5 0 0 0;
#X connect 6 0 4 0;
#X connect 7 0 21 0;
#X connect 10 0 8 0;
#X connect 11 0 12 0;
#X connect 12 0 13 0;
#X connect 13 0 17 0;
#X connect 13 1 18 0;
#X connect 13 2 19 0;
#X connect 13 3 10 0;
#X connect 14 0 2 1;
#X connect 15 0 3 1;
#X connect 16 0 6 1;
#X connect 17 0 20 0;
#X connect 17 1 14 0;
#X connect 18 0 20 0;
#X connect 18 1 15 0;
#X connect 19 0 20 0;
#X connect 19 1 16 0;
#X connect 20 0 5 0;
#X connect 21 0 23 0;
#X connect 21 1 22 0;
#X connect 22 0 21 1;
#X connect 23 0 24 0;
#X connect 23 0 25 0;
#X connect 24 0 23 1;
#X connect 25 0 9 0;
#X connect 25 1 5 0;
#X restore 9 147 pd mute-button;
#X obj 11 320 s \$0-toall;
#X msg 11 298 label empty;
#X text 14 258 click before saving;
#X obj 11 277 r \$0.before.saving;
#N canvas 357 181 804 250 dsp-button 0;
#X obj 291 104 sel 0 1;
#X text 362 27 select color;
#X obj 291 132 f;
#X obj 320 133 f;
#X msg 291 181 color \$1 \$2;
#X obj 291 74 f;
#X obj 291 159 list append 0;
#X msg 677 178 label_font \$1 \$2;
#X obj 459 14 r NETPD;
#X obj 459 35 route pref;
#X obj 459 56 route ch.background.clr ch.active.clr ch.font.clr ch.buttons.fnt
;
#X obj 486 160 netpd-rgb2iem;
#X obj 558 140 netpd-rgb2iem;
#X obj 631 115 netpd-rgb2iem;
#X obj 459 91 t b a;
#X obj 531 93 t b a;
#X obj 604 92 t b a;
#X obj 459 123 t b;
#X obj 12 6 r \$0-dsp;
#X obj 291 206 s \$0-dsp-display;
#X msg 12 185 dsp \$1;
#X obj 12 207 s pd;
#X obj 102 7 r pd;
#X obj 102 29 route dsp;
#X obj 12 31 sel 0;
#X obj 57 31 t a;
#X obj 12 71 ==;
#X obj 44 71 t a;
#X obj 12 99 t a a;
#X obj 129 76 t a;
#X obj 102 49 t a a;
#X connect 0 0 2 0;
#X connect 0 1 3 0;
#X connect 2 0 6 0;
#X connect 3 0 6 0;
#X connect 4 0 19 0;
#X connect 5 0 0 0;
#X connect 6 0 4 0;
#X connect 7 0 19 0;
#X connect 8 0 9 0;
#X connect 9 0 10 0;
#X connect 10 0 14 0;
#X connect 10 1 15 0;
#X connect 10 2 16 0;
#X connect 10 3 7 0;
#X connect 11 0 2 1;
#X connect 12 0 3 1;
#X connect 13 0 6 1;
#X connect 14 0 17 0;
#X connect 14 1 11 0;
#X connect 15 0 17 0;
#X connect 15 1 12 0;
#X connect 16 0 17 0;
#X connect 16 1 13 0;
#X connect 17 0 5 0;
#X connect 18 0 24 0;
#X connect 20 0 21 0;
#X connect 22 0 23 0;
#X connect 23 0 30 0;
#X connect 24 0 26 0;
#X connect 24 1 25 0;
#X connect 25 0 24 1;
#X connect 26 0 27 0;
#X connect 26 0 28 0;
#X connect 27 0 26 1;
#X connect 28 0 20 0;
#X connect 28 1 29 0;
#X connect 29 0 5 0;
#X connect 30 0 26 1;
#X connect 30 1 29 0;
#X restore 9 166 pd dsp-button;
#X connect 12 0 11 0;
#X connect 14 0 12 0;
#X restore 17 66 pd chat-guicode;
#N canvas 392 561 279 249 CLIENT 0;
#X obj 22 207 s NETPD;
#X obj 22 16 r NETPD;
#X msg 22 148 connection \$1;
#X obj 22 39 list trim;
#X obj 22 126 route connection;
#X obj 22 94 netpd-client;
#X obj 22 63 route tcpclient;
#X obj 115 148 list prepend status;
#X obj 115 170 list trim;
#X connect 1 0 3 0;
#X connect 2 0 0 0;
#X connect 3 0 6 0;
#X connect 4 0 2 0;
#X connect 4 1 7 0;
#X connect 5 0 4 0;
#X connect 6 0 5 0;
#X connect 7 0 8 0;
#X connect 8 0 0 0;
#X restore 18 9 pd CLIENT;
#N canvas 518 590 616 160 keep_alive 0;
#X obj 22 68 metro 60000;
#X text 142 70 in order to keep the tcp connection alive \, we send
a dummy message every 60;
#X obj 22 24 r NETPD;
#X obj 22 44 route connection;
#X obj 22 107 netpd-s /dummy s;
#X connect 0 0 4 0;
#X connect 2 0 3 0;
#X connect 3 0 0 0;
#X restore 15 138 pd keep_alive;
#N canvas 269 604 315 255 send_messages 0;
#X obj 6 5 r \$0-inputbox;
#N canvas 244 699 140 169 cut_empty 0;
#X obj 6 7 inlet;
#X obj 6 142 outlet;
#X obj 6 75 sel _;
#X obj 6 100 b;
#X obj 6 121 list append;
#X obj 6 30 t a a;
#X obj 6 52 makefilename %s_;
#X connect 0 0 5 0;
#X connect 2 1 3 0;
#X connect 3 0 4 0;
#X connect 4 0 1 0;
#X connect 5 0 6 0;
#X connect 5 1 4 1;
#X connect 6 0 2 0;
#X restore 6 27 pd cut_empty;
#X obj 6 111 list prepend;
#X obj 6 139 list append;
#X obj 100 17 r NETPD;
#X obj 100 38 route pref status;
#X obj 100 59 route netpd-name;
#X obj 149 96 route socket;
#X obj 150 119 r NETPD;
#X obj 150 140 route connection;
#X obj 6 174 spigot;
#X obj 6 204 netpd-s /chat/msg b;
#N canvas 0 106 450 300 parse.commands 0;
#X obj 21 18 inlet;
#X obj 21 222 outlet;
#X obj 95 16 netpd-symbol2list;
#X obj 21 41 t a a;
#X obj 21 184 spigot 1;
#X obj 95 91 list fromsymbol;
#X obj 95 114 route 47;
#X msg 95 160 0;
#X msg 140 160 1;
#X obj 203 169 list append;
#X obj 203 192 list trim;
#X obj 203 217 s \$0.chat.commands;
#X obj 95 39 list split 1;
#X obj 95 137 t b a;
#X obj 203 144 list tosymbol;
#X connect 0 0 3 0;
#X connect 2 0 12 0;
#X connect 3 0 4 0;
#X connect 3 1 2 0;
#X connect 4 0 1 0;
#X connect 5 0 6 0;
#X connect 6 0 13 0;
#X connect 6 1 8 0;
#X connect 7 0 4 1;
#X connect 8 0 4 1;
#X connect 9 0 10 0;
#X connect 10 0 11 0;
#X connect 12 0 5 0;
#X connect 12 1 9 1;
#X connect 13 0 7 0;
#X connect 13 1 14 0;
#X connect 14 0 9 0;
#X restore 6 81 pd parse.commands;
#X connect 0 0 1 0;
#X connect 1 0 12 0;
#X connect 2 0 3 0;
#X connect 3 0 10 0;
#X connect 4 0 5 0;
#X connect 5 0 6 0;
#X connect 5 1 7 0;
#X connect 6 0 2 1;
#X connect 7 0 3 1;
#X connect 8 0 9 0;
#X connect 9 0 10 1;
#X connect 10 0 11 0;
#X connect 12 0 2 0;
#X restore 15 159 pd send_messages;
#N canvas 591 360 332 278 say_hello 0;
#X obj 16 134 list prepend;
#X obj 16 183 list prepend;
#X obj 126 48 r NETPD;
#X obj 126 69 route pref;
#X obj 126 90 route netpd-welcome netpd-name;
#X obj 16 12 netpd-r /server/socket;
#X obj 16 209 netpd-s /chat/msg b;
#X connect 0 0 1 0;
#X connect 1 0 6 0;
#X connect 2 0 3 0;
#X connect 3 0 4 0;
#X connect 4 0 0 1;
#X connect 4 1 1 1;
#X connect 5 0 0 0;
#X restore 15 180 pd say_hello;
#N canvas 674 1332 206 173 socket_request 0;
#X obj 6 22 r NETPD;
#X obj 6 43 route connection;
#X obj 6 64 sel 1;
#X obj 6 87 del 100;
#X obj 6 113 netpd-s /server/socket s;
#X connect 0 0 1 0;
#X connect 1 0 2 0;
#X connect 2 0 3 0;
#X connect 3 0 4 0;
#X restore 15 200 pd socket_request;
#N canvas 428 1332 245 384 list 0;
#X text 6 7 send list request;
#X obj 8 31 r \$0-listrequest;
#X obj 8 70 f;
#X text 8 180 send list response;
#X obj 119 30 r NETPD;
#X obj 119 51 route status;
#X obj 119 72 route socket;
#N canvas 728 1328 640 495 compose.message 0;
#X obj 15 18 inlet;
#X obj 15 402 outlet;
#X obj 243 172 netpd-status-get version;
#X obj 15 102 netpd-pref-get netpd-name;
#X obj 70 170 netpd-status-get socket;
#X obj 405 140 netpd-status-get unpatch;
#X obj 15 41 b;
#X obj 15 70 t b b b b;
#X obj 15 378 pack s s f;
#X obj 43 216 t a a;
#X msg 216 228 / v\$1.\$2.\$3;
#X obj 405 163 sel 1 0;
#X msg 424 187 symbol;
#X msg 405 213 / unpatch;
#X msg 43 241 ▬▬▬ client-ID: \$1;
#X obj 405 241 list append;
#X obj 43 268 list append;
#X obj 216 251 list append;
#X obj 43 291 list append;
#X obj 43 314 list append;
#X obj 43 343 netpd-l2s;
#X obj 231 313 loadbang;
#X msg 231 335 32;
#X obj 231 359 makefilename %c;
#X obj 216 203 list append;
#X obj 216 150 t b b;
#X obj 43 190 f;
#X obj 43 145 t b b;
#X connect 0 0 6 0;
#X connect 2 0 24 1;
#X connect 3 0 8 0;
#X connect 4 0 26 1;
#X connect 5 0 11 0;
#X connect 6 0 7 0;
#X connect 7 0 3 0;
#X connect 7 1 27 0;
#X connect 7 2 25 0;
#X connect 7 3 5 0;
#X connect 8 0 1 0;
#X connect 9 0 14 0;
#X connect 9 1 8 2;
#X connect 10 0 17 0;
#X connect 11 0 13 0;
#X connect 11 1 12 0;
#X connect 12 0 15 0;
#X connect 13 0 15 0;
#X connect 14 0 16 0;
#X connect 15 0 19 1;
#X connect 16 0 18 0;
#X connect 17 0 18 1;
#X connect 18 0 19 0;
#X connect 19 0 20 0;
#X connect 20 0 8 1;
#X connect 21 0 22 0;
#X connect 22 0 23 0;
#X connect 23 0 20 1;
#X connect 24 0 10 0;
#X connect 25 0 24 0;
#X connect 25 1 2 0;
#X connect 26 0 9 0;
#X connect 27 0 26 0;
#X connect 27 1 4 0;
#X restore 12 237 pd compose.message;
#X obj 8 102 netpd-s /chat/listrequest b;
#X obj 12 322 netpd-s /chat/msg 0;
#X msg 123 286 \$1;
#X obj 12 210 netpd-r /chat/listrequest;
#X connect 1 0 2 0;
#X connect 2 0 8 0;
#X connect 4 0 5 0;
#X connect 5 0 6 0;
#X connect 6 0 2 1;
#X connect 7 0 9 0;
#X connect 10 0 9 1;
#X connect 11 0 7 0;
#X connect 11 1 10 0;
#X restore 15 220 pd list;
#N canvas 663 615 177 140 print_messages 0;
#X msg 10 63 \$1: \$2;
#X obj 10 85 print CHAT;
#X obj 10 41 list;
#X obj 10 15 netpd-r /chat/msg;
#X connect 0 0 1 0;
#X connect 2 0 0 0;
#X connect 3 0 2 0;
#X restore 15 240 pd print_messages;
#N canvas 149 403 346 197 bell&click 0;
#N canvas 416 337 436 240 click 0;
#X obj 10 17 inlet;
#X obj 10 40 bang;
#X obj 10 137 line~;
#X obj 10 79 t b b;
#X obj 10 166 *~;
#X obj 10 201 dac~;
#X obj 145 120 noise~;
#X msg 10 105 0 10;
#X obj 145 141 hip~ 4500;
#X obj 228 144 del 10;
#X obj 228 121 t b b;
#X obj 253 172 1;
#X obj 228 171 0;
#X obj 228 192 switch~;
#X obj 228 98 spigot;
#X obj 259 34 r \$0-muteclick;
#X obj 259 76 abs;
#X obj 259 54 - 1;
#X obj 370 34 loadbang;
#X obj 370 56 1;
#X msg 48 105 0.03;
#X connect 0 0 1 0;
#X connect 1 0 3 0;
#X connect 1 0 14 0;
#X connect 2 0 4 0;
#X connect 3 0 7 0;
#X connect 3 1 20 0;
#X connect 4 0 5 0;
#X connect 4 0 5 1;
#X connect 6 0 8 0;
#X connect 7 0 2 0;
#X connect 8 0 4 1;
#X connect 9 0 12 0;
#X connect 10 0 9 0;
#X connect 10 1 11 0;
#X connect 11 0 13 0;
#X connect 12 0 13 0;
#X connect 14 0 10 0;
#X connect 15 0 17 0;
#X connect 16 0 14 1;
#X connect 17 0 16 0;
#X connect 18 0 19 0;
#X connect 19 0 14 1;
#X connect 20 0 2 0;
#X restore 16 142 pd click;
#X obj 16 30 r NETPD;
#X obj 16 52 route from;
#X obj 16 77 routeOSC /chat;
#X obj 16 99 routeOSC /msg;
#X obj 16 121 b;
#N canvas 69 107 485 258 bell 0;
#X obj 12 11 inlet;
#X obj 12 34 bang;
#X obj 12 190 dac~;
#X obj 230 92 spigot;
#X obj 261 28 r \$0-muteclick;
#X obj 261 70 abs;
#X obj 261 48 - 1;
#X obj 354 29 loadbang;
#X obj 354 51 1;
#X obj 12 135 line~;
#X obj 12 77 t b b;
#X msg 12 103 0 200;
#X obj 12 164 *~;
#X obj 86 133 osc~ 1000;
#X obj 152 136 osc~ 1500;
#X obj 230 118 t b b;
#X obj 255 169 1;
#X obj 230 168 0;
#X obj 230 189 switch~;
#X obj 230 141 del 200;
#X msg 51 103 0.01;
#X connect 0 0 1 0;
#X connect 1 0 3 0;
#X connect 1 0 10 0;
#X connect 3 0 15 0;
#X connect 4 0 6 0;
#X connect 5 0 3 1;
#X connect 6 0 5 0;
#X connect 7 0 8 0;
#X connect 8 0 3 1;
#X connect 9 0 12 0;
#X connect 10 0 11 0;
#X connect 10 1 20 0;
#X connect 11 0 9 0;
#X connect 12 0 2 0;
#X connect 12 0 2 1;
#X connect 13 0 12 1;
#X connect 14 0 12 1;
#X connect 15 0 19 0;
#X connect 15 1 16 0;
#X connect 16 0 18 0;
#X connect 17 0 18 0;
#X connect 19 0 17 0;
#X connect 20 0 9 0;
#X restore 158 146 pd bell;
#X obj 158 32 r NETPD;
#X obj 158 54 route from;
#X obj 158 79 routeOSC /server;
#X obj 158 101 routeOSC /num_of_clients;
#X obj 158 123 b;
#X text 16 8 click;
#X text 157 10 bell;
#X connect 1 0 2 0;
#X connect 2 0 3 0;
#X connect 3 0 4 0;
#X connect 4 0 5 0;
#X connect 5 0 0 0;
#X connect 7 0 8 0;
#X connect 8 0 9 0;
#X connect 9 0 10 0;
#X connect 10 0 11 0;
#X connect 11 0 6 0;
#X restore 15 261 pd bell&click;
#X restore 12 341 pd chat;
#N canvas 454 209 380 369 netpd_related_programs 0;
#N canvas 475 953 241 127 \$0.unpatch.container 0;
#X restore 17 330 pd \$0.unpatch.container;
#X obj 17 225 \$0;
#X obj 63 178 \$0;
#X msg 63 199 \; pd-\$1.unpatch.container clear;
#X msg 17 246 \; pd-\$1.unpatch.container obj 20 20 unpatch \; pd-unpatch.pd
vis 0 \; pd-unpatch vis 1 \; pd-unpatch.pd loadbang \;;
#X obj 17 12 r NETPD;
#X obj 17 35 route unpatch;
#X obj 17 58 route start stop;
#X obj 17 151 b;
#X obj 63 154 b;
#X msg 17 81 1;
#X msg 63 80 0;
#X obj 17 107 change 0;
#X obj 17 130 sel 1 0;
#X connect 1 0 4 0;
#X connect 2 0 3 0;
#X connect 5 0 6 0;
#X connect 6 0 7 0;
#X connect 7 0 10 0;
#X connect 7 1 11 0;
#X connect 8 0 1 0;
#X connect 9 0 2 0;
#X connect 10 0 12 0;
#X connect 11 0 12 0;
#X connect 12 0 13 0;
#X connect 13 0 8 0;
#X connect 13 1 9 0;
#X restore 12 426 pd netpd_related_programs;
#X text 9 299 Author: Roman Haefeli (roman@netpd.org);
#X text 9 279 CHAT;
#N canvas 472 332 587 529 preferences 0;
#X text 20 12 colors;
#X text 18 281 netpd-settings;
#X text 334 124 C H A T;
#X obj 15 30 netpd-pref-store ch.font.clr;
#X obj 15 50 netpd-pref-store ch.background.clr;
#X obj 15 70 netpd-pref-store ch.active.clr;
#X obj 15 90 netpd-pref-store ch.border.clr;
#X obj 15 110 netpd-pref-store ch.inputbox.clr;
#X obj 251 30 netpd-pref-store ch.title.fnt;
#X obj 251 50 netpd-pref-store ch.talk.fnt;
#X obj 251 70 netpd-pref-store ch.buttons.fnt;
#X obj 19 173 netpd-pref-store cr.background1.clr;
#X obj 19 193 netpd-pref-store cr.background2.clr;
#X obj 19 213 netpd-pref-store cr.label.clr;
#X obj 19 233 netpd-pref-store cr.display.clr;
#X obj 245 170 netpd-pref-store cr.title.fnt;
#X obj 245 190 netpd-pref-store cr.label.fnt;
#X obj 245 210 netpd-pref-store cr.display.fnt;
#X text 252 13 fonts;
#X text 17 137 ____________________________________________________________
;
#N canvas 0 458 379 284 netpd-preferences 0;
#X symbolatom 120 15 10 0 0 0 - #0.netpd-name.r #0.netpd-name;
#X symbolatom 120 36 40 0 0 0 - #0.netpd-welcome.r #0.netpd-welcome
;
#X symbolatom 120 56 40 0 0 0 - #0.netpd-server.r #0.netpd-server;
#X floatatom 120 76 6 0 0 0 - #0.netpd-port.r #0.netpd-port;
#X text 76 14 name:;
#X text 76 74 port:;
#X text 46 36 say hello:;
#X obj 116 246 hsl 237 19 0 127 0 0 \$0.closesavesettings \$0-bli save&close
2 9 1 11 -233017 -233017 -1 0 1;
#X obj 120 157 tgl 15 0 \$0.pd-dynamic-dsp-off \$0.pd-dynamic-dsp-off.r
empty 17 7 0 10 -262144 -1 -1 1 1;
#X floatatom 120 177 10 0 0 0 - #0.pd-audio-latency.r #0.pd-audio-latency
;
#X text 183 177 ms;
#X text 40 195 appearance:;
#X obj 123 195 hsl 73 14 0 127 0 0 \$0.show.appearance.dialog \$0.show.appearance.dialog.r
colors&fonts 0 8 0 10 -228856 -228856 -1 0 1;
#X text 3 216 __________________________________________________________
;
#X text 22 176 audio latency:;
#X text 10 154 dynamic DSP-off:;
#X text 10 134 DSP on at start:;
#X text 22 54 IP / hostname:;
#X obj 120 137 tgl 15 0 \$0.pd-start-dsp \$0.pd-start-dsp.r empty 17
7 0 10 -262144 -1 -1 1 1;
#X obj 212 175 hsl 30 14 0 127 0 0 \$0.show.alsa.dialog \$0.show.alsa.dialog.r
alsa 0 8 0 10 -228856 -228856 -1 0 1;
#X obj 250 175 hsl 30 14 0 127 0 0 \$0.show.jack.dialog \$0.show.jack.dialog.r
jack 0 8 0 10 -228856 -228856 -1 0 1;
#X text 4 114 connect at start:;
#X obj 120 117 tgl 15 0 \$0.netpd-auto-connect \$0.netpd-auto-connect.r
empty 17 7 0 10 -262144 -1 -1 1 1;
#X symbolatom 132 96 38 0 0 0 - #0.netpd-instruments-path.r #0.netpd-instruments-path
;
#X text 4 94 instruments path:;
#X obj 120 98 vsl 12 12 0 127 0 0 \$0.netpd-instruments-path.button
\$0.blu empty 0 -9 0 10 -228856 -228856 -1 0 1;
#X restore 271 303 pd netpd-preferences;
#X text 272 284 Preferences Window:;
#N canvas 123 285 417 497 netpd-preferences-code 0;
#X obj 14 456 s pd-netpd-preferences;
#X obj 14 370 r NETPD;
#X obj 14 391 route pref;
#X obj 14 412 route gui;
#X msg 14 433 vis \$1;
#N canvas 421 218 245 414 color.setter 0;
#X obj 10 12 r \$0-red-s;
#X obj 76 12 r \$0-grn-s;
#X obj 142 12 r \$0-blu-s;
#X obj 10 87 pack f f f;
#X obj 10 59 f;
#X obj 76 34 t b a;
#X obj 142 34 t b a;
#X obj 10 143 s \$0.color;
#X obj 99 189 s \$0-preview;
#X msg 99 168 color \$1 -1;
#X obj 10 109 t a a;
#X obj 99 147 netpd-rgb2iem;
#X obj 165 91 loadbang;
#X msg 165 113 -1;
#X obj 13 219 r \$0.color.set;
#X obj 13 241 unpack f f f;
#X obj 13 365 s \$0-red-r;
#X obj 47 344 s \$0-grn-r;
#X obj 82 323 s \$0-blu-r;
#X msg 13 307 set \$1;
#X msg 47 287 set \$1;
#X msg 82 266 set \$1;
#X connect 0 0 4 0;
#X connect 1 0 5 0;
#X connect 2 0 6 0;
#X connect 3 0 10 0;
#X connect 4 0 3 0;
#X connect 5 0 4 0;
#X connect 5 1 3 1;
#X connect 6 0 4 0;
#X connect 6 1 3 2;
#X connect 9 0 8 0;
#X connect 10 0 7 0;
#X connect 10 1 11 0;
#X connect 11 0 9 0;
#X connect 12 0 13 0;
#X connect 13 0 9 0;
#X connect 14 0 15 0;
#X connect 14 0 11 0;
#X connect 15 0 19 0;
#X connect 15 0 4 1;
#X connect 15 1 20 0;
#X connect 15 1 3 1;
#X connect 15 2 21 0;
#X connect 15 2 3 2;
#X connect 19 0 16 0;
#X connect 20 0 17 0;
#X connect 21 0 18 0;
#X restore 13 18 pd color.setter;
#N canvas 611 132 297 302 font.setter 0;
#X obj 96 252 s \$0-testtext;
#X obj 17 195 pack;
#X msg 96 229 label_font \$1 \$2;
#X obj 25 51 t b a;
#X obj 17 231 s \$0.font;
#X obj 17 10 r \$0.fonttype;
#X obj 25 30 r \$0.fontsize;
#X obj 96 55 r \$0.font.set;
#X obj 17 163 f;
#X obj 123 201 s \$0.fonttype.r;
#X obj 180 178 s \$0.fontsize.r;
#X obj 123 104 unpack f f;
#X msg 123 154 set \$1;
#X msg 180 155 set \$1;
#X obj 96 77 t a a;
#X connect 1 0 2 0;
#X connect 1 0 4 0;
#X connect 2 0 0 0;
#X connect 3 0 8 0;
#X connect 3 1 1 1;
#X connect 5 0 8 0;
#X connect 6 0 3 0;
#X connect 7 0 14 0;
#X connect 8 0 1 0;
#X connect 11 0 12 0;
#X connect 11 0 8 1;
#X connect 11 1 13 0;
#X connect 11 1 1 1;
#X connect 12 0 9 0;
#X connect 13 0 10 0;
#X connect 14 0 2 0;
#X connect 14 1 11 0;
#X restore 13 38 pd font.setter;
#X obj 14 258 r \$0.closesavesettings;
#X msg 14 323 pref save \, pref gui 0;
#X obj 14 345 s NETPD;
#X obj 14 280 b;
#X obj 14 302 del 100;
#X obj 14 221 chat-set-pref \$0 pd-audio-latency;
#X obj 14 201 chat-set-pref \$0 pd-dynamic-dsp-off;
#X obj 14 181 chat-set-pref \$0 pd-start-dsp;
#N canvas 0 99 560 490 show-dialogs 0;
#X obj 130 27 r \$0.show.appearance.dialog;
#X obj 130 47 sel 0;
#X obj 176 50 t a;
#X msg 130 71 vis 1;
#X obj 130 91 s pd-netpd-preferences-appearance;
#X obj 11 16 inlet;
#X msg 11 47 vis 0;
#X obj 130 143 sel 0;
#X obj 176 146 t a;
#X msg 130 167 vis 1;
#X obj 130 123 r \$0.show.alsa.dialog;
#X obj 130 233 sel 0;
#X obj 176 236 t a;
#X msg 130 257 vis 1;
#X obj 130 187 s pd-netpd-preferences-alsa;
#X obj 130 277 s pd-netpd-preferences-jack;
#X obj 130 213 r \$0.show.jack.dialog;
#X msg 41 226 vis 0;
#X msg 42 185 vis 0;
#X msg 43 134 vis 0;
#X connect 0 0 1 0;
#X connect 1 0 3 0;
#X connect 1 0 19 0;
#X connect 1 1 2 0;
#X connect 2 0 1 1;
#X connect 3 0 4 0;
#X connect 5 0 6 0;
#X connect 6 0 4 0;
#X connect 6 0 14 0;
#X connect 6 0 15 0;
#X connect 7 0 9 0;
#X connect 7 0 17 0;
#X connect 7 1 8 0;
#X connect 8 0 7 1;
#X connect 9 0 14 0;
#X connect 10 0 7 0;
#X connect 11 0 13 0;
#X connect 11 0 18 0;
#X connect 11 1 12 0;
#X connect 12 0 11 1;
#X connect 13 0 15 0;
#X connect 16 0 11 0;
#X connect 17 0 15 0;
#X connect 17 0 4 0;
#X connect 18 0 14 0;
#X connect 18 0 4 0;
#X connect 19 0 14 0;
#X connect 19 0 15 0;
#X restore 159 457 pd show-dialogs;
#N canvas 641 263 296 419 jack_latency 0;
#X msg 130 68 2 \$1;
#X obj 130 89 pow;
#X obj 130 44 + 6;
#X obj 18 158 *;
#X obj 39 135 t b a;
#X text 47 77 why?;
#X obj 18 16 r \$0.jack.periods;
#X obj 130 15 r \$0.jack.frames;
#X text 69 271 convert samples to ms;
#X obj 18 271 t a b;
#X obj 18 318 /;
#X obj 45 295 samplerate~;
#X obj 18 341 * 1000;
#X obj 18 371 outlet;
#X obj 18 78 + 4;
#X obj 18 209 + 150;
#X text 58 211 add constant of 150 samples (why?);
#X connect 0 0 1 0;
#X connect 1 0 4 0;
#X connect 2 0 0 0;
#X connect 3 0 15 0;
#X connect 4 0 3 0;
#X connect 4 1 3 1;
#X connect 6 0 14 0;
#X connect 7 0 2 0;
#X connect 9 0 10 0;
#X connect 9 1 11 0;
#X connect 10 0 12 0;
#X connect 11 0 10 1;
#X connect 12 0 13 0;
#X connect 14 0 3 0;
#X connect 15 0 9 0;
#X restore 218 362 pd jack_latency;
#N canvas 238 169 418 371 alsa_latency 0;
#X obj 173 87 <<;
#X obj 173 41 t b a;
#X msg 173 64 64;
#X text 235 191 ALSA blocksize in ms;
#X obj 35 159 /;
#X obj 49 131 t b a;
#X obj 35 181 int;
#X obj 35 222 *;
#X obj 35 202 max 1;
#X obj 35 76 r \$0.alsa.msec;
#X obj 173 15 r \$0.alsa.blocksize;
#X obj 35 297 outlet;
#X text 224 112 convert samples to ms;
#X obj 173 112 t a b;
#X obj 173 159 /;
#X obj 200 136 samplerate~;
#X obj 173 182 * 1000;
#X obj 129 225 loadbang;
#X obj 129 245 samplerate~;
#X msg 129 265 1000 \$1;
#X obj 129 285 /;
#X obj 129 305 * 198;
#X obj 35 250 +;
#X connect 0 0 13 0;
#X connect 1 0 2 0;
#X connect 1 1 0 1;
#X connect 2 0 0 0;
#X connect 4 0 6 0;
#X connect 5 0 4 0;
#X connect 5 1 4 1;
#X connect 5 1 7 1;
#X connect 6 0 8 0;
#X connect 7 0 22 0;
#X connect 8 0 7 0;
#X connect 9 0 4 0;
#X connect 10 0 1 0;
#X connect 13 0 14 0;
#X connect 13 1 15 0;
#X connect 14 0 16 0;
#X connect 15 0 14 1;
#X connect 16 0 5 0;
#X connect 17 0 18 0;
#X connect 18 0 19 0;
#X connect 19 0 20 0;
#X connect 20 0 21 0;
#X connect 21 0 22 1;
#X connect 22 0 11 0;
#X restore 199 340 pd alsa_latency;
#X obj 199 394 s \$0.pd-audio-latency.r;
#X obj 116 414 sel 0;
#X obj 14 161 chat-set-pref \$0 netpd-auto-connect;
#X obj 14 121 chat-set-pref \$0 netpd-port;
#X obj 14 102 chat-set-pref \$0 netpd-server;
#X obj 14 83 chat-set-pref \$0 netpd-welcome;
#X obj 14 64 chat-set-pref \$0 netpd-name;
#X obj 14 141 chat-set-pref \$0 netpd-instruments-path;
#N canvas 399 356 383 246 dir.selector 0;
#X obj 18 42 r \$0.netpd-instruments-path.button;
#X obj 18 65 sel;
#X obj 45 65 t a;
#X msg 18 89 dir;
#X obj 18 112 pdcontrol;
#X obj 18 135 openpanel 1;
#X obj 18 160 s \$0.netpd-instruments-path.r;
#X connect 0 0 1 0;
#X connect 1 0 3 0;
#X connect 1 1 2 0;
#X connect 2 0 1 1;
#X connect 3 0 4 0;
#X connect 4 0 5 0;
#X connect 5 0 6 0;
#X restore 255 141 pd dir.selector;
#X connect 1 0 2 0;
#X connect 2 0 3 0;
#X connect 3 0 4 0;
#X connect 3 0 19 0;
#X connect 4 0 0 0;
#X connect 7 0 10 0;
#X connect 8 0 9 0;
#X connect 10 0 11 0;
#X connect 11 0 8 0;
#X connect 16 0 18 0;
#X connect 17 0 18 0;
#X connect 19 0 15 0;
#X restore 271 379 pd netpd-preferences-code;
#X obj 271 398 netpd-pref-manager netpd-preferences.cnf;
#X text 308 238 U N P A T C H;
#N canvas 369 357 380 316 netpd-preferences-appearance 0;
#X obj 7 57 cnv 15 141 34 empty empty empty 20 12 0 14 -1 -66577 0
;
#X obj 8 58 cnv 15 139 32 empty empty empty 20 12 0 14 -262144 -66577
0;
#X obj 44 59 hsl 100 10 0 255 0 0 \$0-red-s \$0-red-r empty -2 -6 0
8 -258699 -1 -1 0 0;
#X obj 44 69 hsl 100 10 0 255 0 0 \$0-grn-s \$0-grn-r empty -2 -6 0
8 -24198 -1 -1 0 0;
#X obj 44 79 hsl 100 10 0 255 0 0 \$0-blu-s \$0-blu-r empty -2 -6 0
8 -62784 -1 -1 0 0;
#X obj 9 59 cnv 15 30 30 empty empty empty 20 12 0 14 -1 -66577 0;
#X obj 10 60 cnv 15 28 28 empty \$0-preview empty 20 12 0 14 -1 -1
0;
#X text 5 15 ____________________________________________________________
;
#X obj 185 60 nbx 2 16 3 40 0 0 \$0.fontsize \$0.fontsize.r empty 0
-6 0 12 -262144 -1 -1 3 256;
#X obj 225 60 vradio 11 1 0 3 \$0.fonttype \$0.fonttype.r empty 0 -6
0 8 -262144 -1 -1 0;
#X text 238 57 courier;
#X text 239 68 helvetica;
#X text 238 80 times;
#X text 184 74 size;
#X obj 309 40 cnv 15 15 15 empty \$0-testtext testtext 0 12 0 12 -262144
-66577 0;
#X obj 158 29 cnv 1 1 270 empty empty empty 20 12 0 14 -1 -66577 0
;
#X obj 159 29 cnv 1 1 270 empty empty empty 20 12 0 14 -262144 -66577
0;
#X obj 47 29 cnv 15 15 15 empty empty color 0 9 1 14 -262144 -66577
0;
#X obj 244 29 cnv 15 15 15 empty empty font 0 9 1 14 -262144 -66577
0;
#X text 5 98 ____________________________________________________________
;
#X text 359 121 C;
#X text 359 144 H;
#X text 359 167 A;
#X text 359 190 T;
#X text 5 199 ____________________________________________________________
;
#X text 5 287 ____________________________________________________________
;
#X obj 7 112 chat-set-clr \$0 ch.font.clr label;
#X obj 7 132 chat-set-clr \$0 ch.background.clr background;
#X obj 7 152 chat-set-clr \$0 ch.active.clr active;
#X obj 7 172 chat-set-clr \$0 ch.border.clr border;
#X obj 7 192 chat-set-clr \$0 ch.inputbox.clr inputbox;
#X obj 7 213 chat-set-clr \$0 cr.background1.clr background1;
#X obj 7 233 chat-set-clr \$0 cr.background2.clr background2;
#X obj 7 253 chat-set-clr \$0 cr.label.clr label;
#X obj 7 273 chat-set-clr \$0 cr.display.clr display;
#X obj 159 112 chat-set-fnt \$0 ch.title.fnt title;
#X obj 159 141 chat-set-fnt \$0 ch.talk.fnt talk;
#X obj 159 170 chat-set-fnt \$0 ch.buttons.fnt buttons;
#X obj 159 213 chat-set-fnt \$0 cr.title.fnt title;
#X obj 159 242 chat-set-fnt \$0 cr.label.fnt label;
#X obj 159 271 chat-set-fnt \$0 cr.display.fnt display;
#X text 6 6 N E T P D - A P P E A R A N C E;
#X text 359 215 U;
#X text 359 225 N;
#X text 359 235 P;
#X text 359 245 A;
#X text 359 255 T;
#X text 359 265 C;
#X text 359 275 H;
#X restore 271 322 pd netpd-preferences-appearance;
#X obj 18 455 netpd-pref-store pd-audio-latency;
#X obj 18 436 netpd-pref-store pd-dynamic-dsp-off;
#X obj 18 417 netpd-pref-store pd-start-dsp;
#N canvas 369 621 326 201 netpd-preferences-alsa 0;
#X obj 130 65 vradio 15 1 0 7 \$0.alsa.blocksize \$0.bli empty 0 -8
0 10 -1 -228856 -1 6;
#X text 113 66 64;
#X text 107 81 128;
#X text 107 96 256;
#X text 107 111 512;
#X text 101 126 1024;
#X text 101 143 2048;
#X text 101 159 4096;
#X obj 6 65 nbx 4 14 0 3000 0 0 \$0.alsa.msec \$0.blidsk empty 45 8
0 12 -1 -228856 -1 0 256;
#X text 59 66 msec;
#X text 4 48 Delay;
#X text 81 48 Block size;
#X text 4 26 Enter currently used ALSA settings:;
#X text 4 5 CALCULATE AUDIO LATENCY (ALSA);
#X restore 271 341 pd netpd-preferences-alsa;
#N canvas 379 488 327 200 netpd-preferences-jack 0;
#X obj 53 73 vradio 15 1 0 7 \$0.jack.frames \$0.bli empty 0 -8 0 10
-1 -228856 -1 0;
#X text 36 74 64;
#X text 30 89 128;
#X text 30 104 256;
#X text 30 119 512;
#X text 24 134 1024;
#X text 24 151 2048;
#X text 4 5 CALCULATE AUDIO LATENCY (JACK);
#X text 4 26 Enter currently used JACK settings:;
#X text 4 56 Frames;
#X text 24 167 4096;
#X obj 149 73 vradio 15 1 0 7 \$0.jack.periods \$0.bli empty 0 -8 0
10 -1 -228856 -1 0;
#X text 100 56 Periods;
#X text 138 74 2;
#X text 138 89 3;
#X text 138 104 4;
#X text 138 119 5;
#X text 138 134 6;
#X text 138 149 7;
#X text 138 164 8;
#X restore 271 360 pd netpd-preferences-jack;
#X obj 18 379 netpd-pref-store netpd-auto-connect;
#X obj 18 360 netpd-pref-store netpd-port;
#X obj 18 341 netpd-pref-store netpd-server;
#X obj 18 322 netpd-pref-store netpd-welcome;
#X obj 18 303 netpd-pref-store netpd-name;
#X obj 18 398 netpd-pref-store netpd-instruments-path;
#X restore 12 363 pd preferences;
#N canvas 724 1352 198 192 status 0;
#N canvas 722 1332 235 208 connection 0;
#X obj 10 108 f;
#X obj 125 66 r NETPD;
#X obj 125 87 route connection;
#X obj 10 5 r NETPD;
#X obj 10 26 route status;
#X obj 10 47 route get;
#X obj 10 68 route connection;
#X obj 10 129 list prepend status connection;
#X obj 10 150 list trim;
#X obj 10 171 s NETPD;
#X obj 10 88 b;
#X connect 0 0 7 0;
#X connect 1 0 2 0;
#X connect 2 0 0 0;
#X connect 3 0 4 0;
#X connect 4 0 5 0;
#X connect 5 0 6 0;
#X connect 6 0 10 0;
#X connect 7 0 8 0;
#X connect 8 0 9 0;
#X connect 10 0 0 0;
#X restore 8 7 pd connection;
#N canvas 445 360 319 222 dsp 0;
#X obj 167 50 r pd;
#X obj 167 75 route dsp;
#X obj 11 122 f;
#X obj 11 14 r NETPD;
#X obj 11 35 route status;
#X obj 11 56 route get;
#X obj 11 77 route dsp;
#X obj 11 98 b;
#X obj 11 153 list prepend status dsp;
#X obj 11 174 list trim;
#X obj 11 195 s NETPD;
#X connect 0 0 1 0;
#X connect 1 0 2 0;
#X connect 2 0 8 0;
#X connect 3 0 4 0;
#X connect 4 0 5 0;
#X connect 5 0 6 0;
#X connect 6 0 7 0;
#X connect 7 0 2 0;
#X connect 8 0 9 0;
#X connect 9 0 10 0;
#X restore 8 26 pd dsp;
#N canvas 657 263 405 251 socket 0;
#X obj 9 13 r NETPD;
#X obj 9 55 route get;
#X obj 9 76 route socket;
#X obj 9 97 b;
#X obj 9 138 f;
#X obj 9 159 list prepend status socket;
#X obj 9 180 list trim;
#X obj 9 201 s NETPD;
#X obj 9 34 route status from;
#X obj 108 65 routeOSC /server;
#X obj 108 86 routeOSC /socket;
#X obj 218 32 r NETPD;
#X obj 218 53 route connection;
#X obj 218 75 sel 0;
#X msg 218 96 0;
#X connect 0 0 8 0;
#X connect 1 0 2 0;
#X connect 2 0 3 0;
#X connect 3 0 4 0;
#X connect 4 0 5 0;
#X connect 5 0 6 0;
#X connect 6 0 7 0;
#X connect 8 0 1 0;
#X connect 8 1 9 0;
#X connect 9 0 10 0;
#X connect 10 0 4 0;
#X connect 11 0 12 0;
#X connect 12 0 13 0;
#X connect 13 0 14 0;
#X connect 14 0 4 0;
#X restore 8 46 pd socket;
#N canvas 348 1332 280 353 unpatch_ 0;
#X obj 10 14 r NETPD;
#X obj 10 35 route status;
#X obj 10 56 route get;
#X obj 10 267 list trim;
#X obj 10 288 s NETPD;
#X obj 10 77 route unpatch;
#X obj 10 246 list prepend status unpatch;
#X obj 109 96 s UNPATCH;
#X obj 109 116 r UNPATCH;
#X obj 10 99 t b b b;
#X msg 49 121 0;
#X msg 15 122 1;
#X obj 10 223 f;
#X obj 109 165 list prepend 1;
#X obj 109 188 route 1 0;
#X msg 109 75 running?;
#X obj 109 138 route running;
#X connect 0 0 1 0;
#X connect 1 0 2 0;
#X connect 2 0 5 0;
#X connect 3 0 4 0;
#X connect 5 0 9 0;
#X connect 6 0 3 0;
#X connect 8 0 16 0;
#X connect 9 0 11 0;
#X connect 9 0 12 0;
#X connect 9 1 15 0;
#X connect 9 2 10 0;
#X connect 10 0 12 1;
#X connect 10 0 13 1;
#X connect 11 0 13 1;
#X connect 12 0 6 0;
#X connect 13 0 14 0;
#X connect 14 0 12 0;
#X connect 14 1 12 1;
#X connect 15 0 7 0;
#X connect 16 0 13 0;
#X restore 8 66 pd unpatch_;
#N canvas 745 1417 283 265 netpd_version 0;
#X obj 11 14 r NETPD;
#X obj 11 35 route status;
#X obj 11 216 list trim;
#X obj 11 237 s NETPD;
#X obj 11 82 route version;
#X obj 11 164 list append;
#X obj 11 191 list prepend status version;
#X obj 11 56 route get set;
#X obj 48 108 route version;
#X obj 11 114 b;
#X obj 48 131 t b a;
#X connect 0 0 1 0;
#X connect 1 0 7 0;
#X connect 2 0 3 0;
#X connect 4 0 9 0;
#X connect 5 0 6 0;
#X connect 6 0 2 0;
#X connect 7 0 4 0;
#X connect 7 1 8 0;
#X connect 8 0 10 0;
#X connect 9 0 5 0;
#X connect 10 0 5 0;
#X connect 10 1 5 1;
#X restore 8 88 pd netpd_version;
#X restore 12 384 pd status;
#N canvas 610 256 306 426 INIT 0;
#X msg 47 217 \; pd dsp 1;
#N canvas 120 208 181 227 netpd-loadbang 0;
#X obj 8 8 loadbang;
#X msg 8 28 10;
#X obj 8 48 until;
#X obj 8 69 f;
#X obj 8 90 + 1;
#X obj 8 110 list prepend loadbang;
#X obj 8 131 list trim;
#X obj 8 152 s NETPD;
#X connect 0 0 1 0;
#X connect 1 0 2 0;
#X connect 2 0 3 0;
#X connect 3 0 4 0;
#X connect 4 0 3 1;
#X connect 4 0 5 0;
#X connect 5 0 6 0;
#X connect 6 0 7 0;
#X restore 9 48 pd netpd-loadbang;
#X text 130 50 - ordered loadbang;
#X text 111 224 - start DSP;
#X obj 2 348 s \$0-toall;
#X msg 2 326 label empty;
#X text 5 286 click before saving;
#X obj 2 305 r \$0.before.saving;
#X obj 8 73 loadbang;
#X obj 47 196 sel 1;
#X obj 47 145 netpd-pref-get pd-start-dsp;
#X msg 23 124 1;
#X obj 8 93 t b b b;
#X obj 8 145 f 0;
#X obj 8 165 sel 0;
#X msg 8 185 1;
#X text 134 250 set to 1 when not defined;
#X obj 8 250 s \$0.pd-start-dsp.r;
#X obj 10 16 declare -path osc;
#N canvas 0 99 492 310 check.instruments.path 0;
#X obj 14 23 netpd-pref-get netpd-instruments-path;
#X msg 33 72 symbol \$1/abs;
#X obj 14 127 netpd-if-dir;
#X obj 14 100 t a a;
#X obj 14 150 list append;
#X obj 14 173 route 0 1;
#X obj 14 203 list;
#X obj 14 271 netpd-error NETPD;
#X msg 14 230 instruments directory '\$1' does not exist. Please check
netpd-instruments-dir in preferences.;
#X obj 14 46 t a a a;
#X obj 161 53 loadbang;
#X obj 161 91 symbol <not_set>;
#X obj 161 114 sel <not_set>;
#X msg 161 139 instruments directory not configured. Please check netpd-instruments-dir
in preferences.;
#X connect 0 0 9 0;
#X connect 1 0 3 0;
#X connect 2 0 4 0;
#X connect 3 0 2 0;
#X connect 3 1 4 1;
#X connect 4 0 5 0;
#X connect 5 0 6 0;
#X connect 6 0 8 0;
#X connect 8 0 7 0;
#X connect 9 0 3 0;
#X connect 9 1 1 0;
#X connect 9 2 11 1;
#X connect 10 0 11 0;
#X connect 11 0 12 0;
#X connect 12 0 13 0;
#X connect 13 0 7 0;
#X restore 5 385 pd check.instruments.path;
#X connect 5 0 4 0;
#X connect 7 0 5 0;
#X connect 8 0 12 0;
#X connect 9 0 0 0;
#X connect 10 0 11 0;
#X connect 10 0 9 0;
#X connect 11 0 13 1;
#X connect 12 0 13 0;
#X connect 12 2 10 0;
#X connect 13 0 14 0;
#X connect 14 0 15 0;
#X connect 15 0 0 0;
#X connect 15 0 17 0;
#X restore 12 320 pd INIT;
#X obj 247 463 bng 15 250 50 0 \$0.before.saving \$0.bli before_saving
17 7 0 10 -232576 -1 -1;
#N canvas 373 213 366 277 errors 0;
#X obj 6 31 r NETPD;
#X obj 6 53 route error;
#X obj 6 75 print ERROR;
#X text 5 8 print netpd errors:;
#X connect 0 0 1 0;
#X connect 1 0 2 0;
#X restore 12 405 pd errors;
#X obj 3 2 cnv 6 347 254 empty empty empty 20 12 0 14 -262144 -66577
0;
#X obj 3 2 cnv 15 347 17 empty \$0-border empty 6 8 1 12 -1 -1 0;
#X obj 4 3 cnv 15 345 15 empty \$0-title empty 6 8 1 12 -241213 -1
0;
#X obj 3 220 cnv 6 59 16 empty \$0-border empty 6 7 1 12 -1 -1 0;
#X obj 4 221 cnv 14 57 14 empty \$0-onlinedisplay 0\ clients 4 7 1
10 -241213 -1 0;
#X obj 221 240 cnv 6 63 16 empty \$0-border empty 6 7 1 12 -1 -1 0
;
#X obj 222 241 cnv 14 61 14 empty \$0-background empty 2 6 0 12 -241213
-241213 0;
#X obj 66 220 cnv 6 284 16 empty \$0-border empty 6 7 1 12 -1 -1 0
;
#X obj 68 222 cnv 12 280 12 empty \$0-input empty 6 7 1 12 -241213
-241213 0;
#X symbolatom 67 221 46 0 0 0 - #0-inputbox-r #0-inputbox;
#X obj 3 240 cnv 6 60 16 empty \$0-border empty 6 7 1 12 -1 -1 0;
#X obj 7 241 hsl 53 14 0 1 0 0 \$0-connect \$0-connect-r empty -2 -8
0 10 -262144 -1 -1 0 1;
#X obj 4 241 cnv 14 58 14 empty \$0-connect-display offline 2 7 1 10
-241213 -1 0;
#X obj 67 240 cnv 6 37 16 empty \$0-border empty 6 7 1 12 -1 -1 0;
#X obj 71 241 hsl 30 14 0 1 0 0 \$0-list \$0-list-r empty -2 -8 0 10
-262144 -1 -1 0 1;
#X obj 68 241 cnv 14 35 14 empty \$0-list-display list 2 7 1 10 -241213
-1 0;
#X obj 108 240 cnv 6 37 16 empty \$0-border empty 6 7 1 12 -1 -1 0
;
#X obj 112 241 hsl 30 14 0 1 0 0 \$0-pref \$0-pref-r empty -2 -8 0
10 -262144 -1 -1 0 1;
#X obj 109 241 cnv 14 35 14 empty \$0-pref-display pref 2 7 1 10 -241213
-1 0;
#X obj 288 240 cnv 6 62 16 empty \$0-border empty 6 7 1 12 -1 -1 0
;
#X obj 292 241 hsl 55 14 0 1 0 0 \$0-showunpatch \$0-showunpatch-r
empty -2 -8 0 10 -262144 -1 -1 0 1;
#X obj 289 241 cnv 14 60 14 empty \$0-showunpatch-display unpatch 2
7 1 10 -241213 -1 0;
#X obj 336 25 vsl 14 188 187 0 0 0 \$0-scrollsensor \$0-scrollsensor-r
empty 0 -9 0 10 -195568 -195568 -1 0 1;
#X obj 3 23 cnv 3 347 193 empty \$0-border empty 6 7 1 12 -1 -1 0;
#X obj 337 24 cnv 12 12 191 empty \$0-background empty 20 12 0 14 -241213
-241213 0;
#X obj 337 24 cnv 12 12 191 empty \$0-scrollbar empty 20 12 0 14 -187246
-187246 0;
#X obj 4 200 cnv 15 70 15 empty \$0-1-nick empty 2 7 0 12 -241213 -262144
0;
#X obj 4 184 cnv 15 70 15 empty \$0-2-nick empty 2 7 0 12 -241213 -262144
0;
#X obj 4 168 cnv 15 70 15 empty \$0-3-nick empty 2 7 0 12 -241213 -262144
0;
#X obj 4 152 cnv 15 70 15 empty \$0-4-nick empty 2 7 0 12 -241213 -262144
0;
#X obj 4 136 cnv 15 70 15 empty \$0-5-nick empty 2 7 0 12 -241213 -262144
0;
#X obj 4 120 cnv 15 70 15 empty \$0-6-nick empty 2 7 0 12 -241213 -262144
0;
#X obj 4 104 cnv 15 70 15 empty \$0-7-nick empty 2 7 0 12 -241213 -262144
0;
#X obj 4 88 cnv 15 70 15 empty \$0-8-nick empty 2 7 0 12 -241213 -262144
0;
#X obj 4 72 cnv 15 70 15 empty \$0-9-nick empty 2 7 0 12 -241213 -262144
0;
#X obj 4 56 cnv 15 70 15 empty \$0-10-nick empty 2 7 0 12 -241213 -262144
0;
#X obj 4 40 cnv 15 70 15 empty \$0-11-nick empty 2 7 0 12 -241213 -262144
0;
#X obj 4 24 cnv 15 70 15 empty \$0-12-nick empty 2 7 0 12 -241213 -262144
0;
#X obj 75 200 cnv 13 260 15 empty \$0-1-line empty 2 7 0 12 -241213
-262144 0;
#X obj 75 184 cnv 13 260 15 empty \$0-2-line empty 2 7 0 12 -241213
-262144 0;
#X obj 75 168 cnv 13 260 15 empty \$0-3-line empty 2 7 0 12 -241213
-262144 0;
#X obj 75 152 cnv 13 260 15 empty \$0-4-line empty 2 7 0 12 -241213
-262144 0;
#X obj 75 136 cnv 13 260 15 empty \$0-5-line empty 2 7 0 12 -241213
-262144 0;
#X obj 75 120 cnv 13 260 15 empty \$0-6-line empty 2 7 0 12 -241213
-262144 0;
#X obj 75 104 cnv 13 260 15 empty \$0-7-line empty 2 7 0 12 -241213
-262144 0;
#X obj 75 88 cnv 13 260 15 empty \$0-8-line empty 2 7 0 12 -241213
-262144 0;
#X obj 75 72 cnv 13 260 15 empty \$0-9-line empty 2 7 0 12 -241213
-262144 0;
#X obj 75 56 cnv 13 260 15 empty \$0-10-line empty 2 7 0 12 -241213
-262144 0;
#X obj 75 40 cnv 13 260 15 empty \$0-11-line empty 2 7 0 12 -241213
-262144 0;
#X obj 75 24 cnv 13 260 15 empty \$0-12-line empty 2 7 0 12 -241213
-262144 0;
#X obj 149 240 cnv 6 37 16 empty \$0-border empty 6 7 1 12 -1 -1 0
;
#X obj 153 241 hsl 30 14 0 1 0 0 \$0-mute \$0-mute-r empty -2 -8 0
10 -262144 -1 -1 0 1;
#X obj 150 241 cnv 14 35 14 empty \$0-mute-display mute 2 7 1 10 -241213
-1 0;
#X obj 190 240 cnv 6 27 16 empty \$0-border empty 6 7 1 12 -1 -1 0
;
#X obj 194 241 hsl 20 14 0 1 0 0 \$0-dsp \$0-dsp-r empty -2 -8 0 10
-262144 -1 -1 0 1;
#X obj 191 241 cnv 14 25 14 empty \$0-dsp-display dsp 2 7 1 10 -241213
-1 0;
#X obj 231 336 loadbang;
#X msg 231 359 2 2 3;
#N canvas 0 1299 414 142 set_version 0;
#X obj 6 19 inlet;
#X obj 6 46 list prepend status set version;
#X obj 6 93 s NETPD;
#X obj 6 69 list trim;
#X connect 0 0 1 0;
#X connect 1 0 3 0;
#X connect 3 0 2 0;
#X restore 231 385 pd set_version;
#N canvas 369 189 447 158 commands 0;
#N canvas 475 170 396 351 TESTS 0;
#X obj 14 12 netpd-status-get connection 1;
#X obj 15 112 netpd-status-get socket 1;
#X obj 14 34 sel 1;
#X msg 14 56 CONNECTION OK;
#X obj 15 134 sel 0;
#X obj 14 78 s \$0.tests;
#X obj 15 223 s \$0.tests;
#X obj 304 111 r TESTS;
#X obj 271 137 spigot;
#X obj 271 90 r \$0.tests;
#X obj 271 159 print TEST;
#X obj 16 276 sel 1;
#X obj 16 320 s \$0.tests;
#X obj 16 254 netpd-status-get unpatch 1;
#X obj 42 156 spigot 1;
#X msg 111 172 0;
#X obj 271 19 r NETPD;
#X obj 271 41 route tests;
#X obj 271 63 s \$0.tests;
#X obj 42 178 t a b;
#X msg 15 201 SOCKET_NUMBER_RECEIVED \$1;
#X msg 16 298 UNPATCH_LOADED;
#X connect 0 0 2 0;
#X connect 1 0 4 0;
#X connect 2 0 3 0;
#X connect 3 0 5 0;
#X connect 4 1 14 0;
#X connect 7 0 8 1;
#X connect 8 0 10 0;
#X connect 9 0 8 0;
#X connect 11 0 21 0;
#X connect 13 0 11 0;
#X connect 14 0 19 0;
#X connect 15 0 14 1;
#X connect 16 0 17 0;
#X connect 17 0 18 0;
#X connect 19 0 20 0;
#X connect 19 1 15 0;
#X connect 20 0 6 0;
#X connect 21 0 12 0;
#X restore 314 45 pd TESTS;
#X text 311 15 deprececated;
#N canvas 544 156 851 383 unpatch.cmd 0;
#X obj 23 77 s NETPD;
#X obj 413 21 r \$0.chat.commands;
#X msg 446 164 1;
#X msg 491 169 0;
#X obj 413 195 spigot;
#X obj 413 44 t a a, f 6;
#X obj 413 218 t a a;
#X obj 413 335 s NETPD;
#X obj 440 267 list append ✓;
#X obj 440 307 s \$0.chat.comand.display;
#X obj 21 133 r NETPD;
#X obj 21 179 route help;
#X obj 21 243 s \$0.chat.comand.display;
#X obj 526 133 t b b;
#X obj 446 72 route unpatch;
#X obj 446 95 route start stop help;
#X msg 23 22 unpatch start;
#X msg 36 48 unpatch stop;
#X obj 21 156 route unpatch;
#X msg 21 201 ---------- \, control unpatch \, Usage: \, \ \ unpatch
start \, \ \ unpatch stop \, start and stop unpatch by command \, ----------
;
#X msg 467 217 ---------- \, unpatch: invalid usage \, see: \, \ \ unpatch
help \, ----------;
#X connect 1 0 5 0;
#X connect 2 0 4 1;
#X connect 3 0 4 1;
#X connect 4 0 6 0;
#X connect 5 0 4 0;
#X connect 5 1 14 0;
#X connect 6 0 7 0;
#X connect 6 1 8 0;
#X connect 8 0 9 0;
#X connect 10 0 18 0;
#X connect 11 0 19 0;
#X connect 13 0 3 0;
#X connect 13 1 20 0;
#X connect 14 0 15 0;
#X connect 14 1 3 0;
#X connect 15 0 2 0;
#X connect 15 1 2 0;
#X connect 15 2 2 0;
#X connect 15 3 13 0;
#X connect 16 0 0 0;
#X connect 17 0 0 0;
#X connect 18 0 11 0;
#X connect 19 0 12 0;
#X connect 20 0 9 0;
#X restore 17 77 pd unpatch.cmd;
#N canvas 544 156 890 719 debug.cmd 0;
#X obj 22 58 r NETPD;
#X obj 22 259 list split 1;
#X obj 56 283 list split 1;
#X obj 22 234 route sendtyped send, f 22;
#X obj 151 297 t a;
#X obj 22 372 print NETPD_SND;
#X obj 205 298 print NETPD_RCV;
#N canvas 0 205 371 257 length.limit 0;
#X obj 20 47 list split 11;
#X obj 114 97 list length;
#X msg 114 120 symbol [\$1];
#X obj 20 140 list append;
#X obj 57 70 route bang;
#X obj 20 17 inlet;
#X obj 20 202 outlet;
#X obj 20 167 list trim;
#X connect 0 0 3 0;
#X connect 0 1 4 0;
#X connect 0 2 7 0;
#X connect 1 0 2 0;
#X connect 2 0 3 1;
#X connect 3 0 7 0;
#X connect 4 0 3 1;
#X connect 4 1 1 0;
#X connect 5 0 0 0;
#X connect 7 0 6 0;
#X restore 22 343 pd length.limit;
#N canvas 0 172 371 224 length.limit 0;
#X obj 20 47 list split 11;
#X obj 114 97 list length;
#X msg 114 120 symbol [\$1];
#X obj 20 140 list append;
#X obj 57 70 route bang;
#X obj 20 17 inlet;
#X obj 20 190 outlet;
#X obj 20 167 list trim;
#X connect 0 0 3 0;
#X connect 0 1 4 0;
#X connect 0 2 7 0;
#X connect 1 0 2 0;
#X connect 2 0 3 1;
#X connect 3 0 7 0;
#X connect 4 0 3 1;
#X connect 4 1 1 0;
#X connect 5 0 0 0;
#X connect 7 0 6 0;
#X restore 205 255 pd length.limit;
#X obj 22 307 list append;
#X obj 112 133 route on off;
#X msg 112 156 1;
#X msg 146 155 0;
#X obj 22 211 spigot 0, f 15;
#X msg 229 358 debug to on;
#X obj 237 572 s NETPD;
#X msg 242 384 debug to off;
#X msg 272 416 debug from on;
#X msg 285 438 debug from off;
#X obj 112 110 route to;
#X obj 22 87 route to receiver debug;
#X obj 39 121 route l;
#X obj 22 175 spigot;
#X msg 78 145 1;
#X obj 295 135 route on off;
#X msg 295 158 1;
#X msg 329 157 0;
#X obj 205 213 spigot 0, f 15;
#X obj 222 123 route l;
#X obj 205 177 spigot;
#X msg 261 147 1;
#X obj 295 112 route from;
#X msg 39 146 0;
#X msg 221 145 0;
#X msg 301 468 debug local on;
#X msg 309 492 debug local off;
#X text 22 23 SEND;
#X text 206 25 RECEIVE;
#N canvas 0 172 371 224 length.limit 0;
#X obj 20 47 list split 11;
#X obj 114 97 list length;
#X msg 114 120 symbol [\$1];
#X obj 20 140 list append;
#X obj 57 70 route bang;
#X obj 20 17 inlet;
#X obj 20 190 outlet;
#X obj 20 167 list trim;
#X connect 0 0 3 0;
#X connect 0 1 4 0;
#X connect 0 2 7 0;
#X connect 1 0 2 0;
#X connect 2 0 3 1;
#X connect 3 0 7 0;
#X connect 4 0 3 1;
#X connect 4 1 1 0;
#X connect 5 0 0 0;
#X connect 7 0 6 0;
#X restore 391 256 pd length.limit;
#X obj 391 61 r NETPD;
#X obj 481 136 route on off;
#X msg 481 159 1;
#X msg 515 158 0;
#X obj 391 214 spigot 0, f 15;
#X obj 408 124 route l;
#X obj 391 178 spigot;
#X obj 391 90 route from sender debug;
#X text 389 26 LOCAL;
#X msg 407 146 1;
#X msg 447 148 0;
#X obj 481 113 route local;
#X obj 391 299 print NETPD_LOC;
#N canvas 0 172 371 224 length.limit 0;
#X obj 20 47 list split 11;
#X obj 114 97 list length;
#X msg 114 120 symbol [\$1];
#X obj 20 140 list append;
#X obj 57 70 route bang;
#X obj 20 17 inlet;
#X obj 20 190 outlet;
#X obj 20 167 list trim;
#X connect 0 0 3 0;
#X connect 0 1 4 0;
#X connect 0 2 7 0;
#X connect 1 0 2 0;
#X connect 2 0 3 1;
#X connect 3 0 7 0;
#X connect 4 0 3 1;
#X connect 4 1 1 0;
#X connect 5 0 0 0;
#X connect 7 0 6 0;
#X restore 571 256 pd length.limit;
#X obj 571 61 r NETPD;
#X obj 624 159 route on off;
#X msg 624 182 1;
#X msg 658 181 0;
#X obj 571 214 spigot 0, f 15;
#X obj 624 112 route debug;
#X obj 571 84 t a a;
#X obj 624 136 route raw;
#X text 575 23 RAW;
#X msg 318 520 debug raw on;
#X msg 326 544 debug raw off;
#X obj 571 299 print NETPD_RAW;
#X obj 473 351 r \$0.chat.commands;
#X obj 506 455 route on off;
#X obj 506 425 route to from local raw help;
#X msg 506 494 1;
#X obj 506 402 route debug;
#X msg 551 499 0;
#X obj 473 525 spigot;
#X obj 473 374 t a a, f 6;
#X obj 473 548 t a a;
#X obj 473 665 s NETPD;
#X obj 500 597 list append ✓;
#X obj 500 637 s \$0.chat.comand.display;
#X obj 13 528 r NETPD;
#X obj 13 551 route debug;
#X obj 13 574 route help;
#X obj 13 678 s \$0.chat.comand.display;
#X msg 527 547 ---------- \, debug: invalid usage \, use: \, \ \ debug
help \, ----------;
#X msg 13 596 ---------- \, print different kinds of netpd \, messages
to the console \, \, Usage: \, \ \ debug <type> on|off \, Available
types are: \, \ \ to - message I send \, \ \ from - messages I receive
\, \ \ local - messages sent locally \, \ \ raw - raw messages on NETPD
bus \, ----------;
#X obj 575 481 t b b;
#X obj 205 60 r NETPD.DEBUG.FROM;
#X obj 205 89 route from sender;
#X obj 295 14 r NETPD;
#X obj 295 37 route debug;
#X connect 0 0 20 0;
#X connect 1 0 9 0;
#X connect 1 1 2 0;
#X connect 2 1 9 1;
#X connect 3 0 1 0;
#X connect 3 1 4 0;
#X connect 3 2 4 0;
#X connect 4 0 7 0;
#X connect 7 0 5 0;
#X connect 8 0 6 0;
#X connect 9 0 7 0;
#X connect 10 0 11 0;
#X connect 10 1 12 0;
#X connect 11 0 13 1;
#X connect 12 0 13 1;
#X connect 13 0 3 0;
#X connect 14 0 15 0;
#X connect 16 0 15 0;
#X connect 17 0 15 0;
#X connect 18 0 15 0;
#X connect 19 0 10 0;
#X connect 20 0 22 0;
#X connect 20 1 21 0;
#X connect 20 2 19 0;
#X connect 21 0 32 0;
#X connect 21 1 23 0;
#X connect 22 0 13 0;
#X connect 23 0 22 1;
#X connect 24 0 25 0;
#X connect 24 1 26 0;
#X connect 25 0 27 1;
#X connect 26 0 27 1;
#X connect 27 0 8 0;
#X connect 28 0 33 0;
#X connect 28 1 30 0;
#X connect 29 0 27 0;
#X connect 30 0 29 1;
#X connect 31 0 24 0;
#X connect 32 0 22 1;
#X connect 33 0 29 1;
#X connect 34 0 15 0;
#X connect 35 0 15 0;
#X connect 38 0 51 0;
#X connect 39 0 46 0;
#X connect 40 0 41 0;
#X connect 40 1 42 0;
#X connect 41 0 43 1;
#X connect 42 0 43 1;
#X connect 43 0 38 0;
#X connect 44 0 48 0;
#X connect 44 1 49 0;
#X connect 45 0 43 0;
#X connect 46 0 45 0;
#X connect 46 1 44 0;
#X connect 46 2 50 0;
#X connect 48 0 45 1;
#X connect 49 0 45 1;
#X connect 50 0 40 0;
#X connect 52 0 64 0;
#X connect 53 0 59 0;
#X connect 54 0 55 0;
#X connect 54 1 56 0;
#X connect 55 0 57 1;
#X connect 56 0 57 1;
#X connect 57 0 52 0;
#X connect 58 0 60 0;
#X connect 59 0 57 0;
#X connect 59 1 58 0;
#X connect 60 0 54 0;
#X connect 62 0 15 0;
#X connect 63 0 15 0;
#X connect 65 0 72 0;
#X connect 66 0 68 0;
#X connect 66 1 68 0;
#X connect 66 2 83 0;
#X connect 67 0 66 0;
#X connect 67 1 66 0;
#X connect 67 2 66 0;
#X connect 67 3 66 0;
#X connect 67 4 68 0;
#X connect 67 5 83 0;
#X connect 68 0 71 1;
#X connect 69 0 67 0;
#X connect 69 1 70 0;
#X connect 70 0 71 1;
#X connect 71 0 73 0;
#X connect 72 0 71 0;
#X connect 72 1 69 0;
#X connect 73 0 74 0;
#X connect 73 1 75 0;
#X connect 75 0 76 0;
#X connect 77 0 78 0;
#X connect 78 0 79 0;
#X connect 79 0 82 0;
#X connect 81 0 76 0;
#X connect 82 0 80 0;
#X connect 83 0 70 0;
#X connect 83 1 81 0;
#X connect 84 0 85 0;
#X connect 85 0 29 0;
#X connect 85 1 28 0;
#X connect 86 0 87 0;
#X connect 87 0 31 0;
#X restore 17 49 pd debug.cmd;
#N canvas 372 163 574 339 help.cmd 0;
#X obj 15 15 r \$0.chat.commands;
#X obj 72 282 s \$0.chat.comand.display;
#X obj 15 143 route help;
#X msg 15 168 help help ✓ \, ---------- \, help doesn't have more
detailed \, information \, ----------;
#X obj 156 90 list;
#X msg 156 114 ---------- \, no such command: \$1 \, use: \, \ \ help
\, to get more information \, ----------;
#X obj 15 51 route help debug unpatch;
#X msg 72 216 help ✓ \, ---------- \, Available commands are: \,
\ \ debug: manage debug output \, \ \ help: show this help \, \ \ unpatch:
control unpatch \, For more detailed information use: \, \ \ <command>
help \, ----------;
#X connect 0 0 6 0;
#X connect 2 0 3 0;
#X connect 2 1 7 0;
#X connect 3 0 1 0;
#X connect 4 0 5 0;
#X connect 5 0 1 0;
#X connect 6 0 2 0;
#X connect 6 3 4 0;
#X connect 7 0 1 0;
#X restore 17 19 pd help.cmd;
#X restore 12 447 pd commands;
#X connect 65 0 66 0;
#X connect 66 0 67 0;
#X coords 0 -1 1 1 347 254 2 3 2;
