#N canvas 300 87 502 630 10;
#X obj 43 57 list fromsymbol;
#X obj 178 461 list store;
#X msg 62 228 get \$1 1;
#X obj 43 80 t a a;
#X obj 43 105 list length;
#X obj 62 156 until;
#X obj 62 179 f;
#X obj 132 188 + 1;
#X msg 105 156 0;
#X obj 62 255 list store;
#X obj 62 202 t a a a;
#X obj 62 281 sel 32;
#X obj 62 303 f;
#X obj 43 353 f;
#X obj 43 332 t a b a;
#X obj 43 128 t a a b;
#X obj 235 146 t a;
#X obj 70 445 -;
#X obj 70 399 pack f f;
#X msg 70 422 \$2 \$1;
#X obj 43 376 t a a;
#X obj 43 470 pack f f;
#X msg 43 493 get \$1 \$2;
#X obj 178 484 route 32;
#X obj 178 510 list tosymbol;
#X msg 178 533 append \$1;
#X obj 43 570 list store;
#X obj 16 31 t b a;
#X obj 16 531 t b b;
#X obj 16 6 inlet;
#X obj 43 594 outlet;
#X obj 287 29 inlet;
#X obj 350 164 list fromsymbol;
#X msg 350 187 \$1;
#X obj 350 222 t a;
#X obj 329 29 loadbang;
#X obj 329 52 list append \$1;
#X obj 287 91 route 0;
#X obj 287 139 route float;
#X msg 287 114 32;
#X connect 0 0 3 0;
#X connect 1 0 23 0;
#X connect 2 0 9 0;
#X connect 3 0 4 0;
#X connect 3 1 16 0;
#X connect 4 0 15 0;
#X connect 5 0 6 0;
#X connect 6 0 10 0;
#X connect 7 0 6 1;
#X connect 8 0 6 1;
#X connect 8 0 13 1;
#X connect 9 0 11 0;
#X connect 10 0 2 0;
#X connect 10 1 12 1;
#X connect 10 2 7 0;
#X connect 11 0 12 0;
#X connect 12 0 14 0;
#X connect 13 0 20 0;
#X connect 14 0 13 1;
#X connect 14 1 13 0;
#X connect 14 2 18 1;
#X connect 15 0 14 0;
#X connect 15 1 5 0;
#X connect 15 2 8 0;
#X connect 16 0 9 1;
#X connect 16 0 1 1;
#X connect 17 0 21 1;
#X connect 18 0 19 0;
#X connect 19 0 17 0;
#X connect 20 0 21 0;
#X connect 20 1 18 0;
#X connect 21 0 22 0;
#X connect 22 0 1 0;
#X connect 23 0 24 0;
#X connect 23 1 24 0;
#X connect 24 0 25 0;
#X connect 25 0 26 0;
#X connect 26 0 30 0;
#X connect 27 0 28 0;
#X connect 27 1 0 0;
#X connect 28 0 26 1;
#X connect 28 1 26 0;
#X connect 29 0 27 0;
#X connect 31 0 37 0;
#X connect 32 0 33 0;
#X connect 33 0 34 0;
#X connect 34 0 11 1;
#X connect 34 0 23 1;
#X connect 35 0 36 0;
#X connect 36 0 37 0;
#X connect 37 0 39 0;
#X connect 37 1 38 0;
#X connect 38 0 33 0;
#X connect 38 1 32 0;
#X connect 39 0 38 0;
