#N canvas 933 26 442 390 10;
#X obj 116 7 inlet;
#X obj 174 335 outlet;
#X obj 285 97 inlet;
#X obj 116 192 f, f 12;
#X obj 116 239 moses 0;
#X obj 116 214 - 1, f 18;
#X obj 17 218 t b;
#X msg 285 141 -1;
#X obj 116 96 t b a b, f 12;
#X msg 221 186 1;
#X obj 116 39 route float bang, f 27;
#X obj 195 67 t b b b;
#X msg 214 102 0;
#X msg 246 104 0;
#X obj 155 263 t b b a;
#X obj 116 169 del \$1;
#X obj 361 94 inlet;
#X obj 116 299 b;
#X obj 116 331 outlet;
#X connect 0 0 10 0;
#X connect 2 0 7 0;
#X connect 3 0 5 0;
#X connect 4 0 17 0;
#X connect 4 1 14 0;
#X connect 5 0 4 0;
#X connect 6 0 15 0;
#X connect 7 0 3 1;
#X connect 8 0 15 0;
#X connect 8 1 3 1;
#X connect 8 2 9 0;
#X connect 9 0 5 1;
#X connect 10 0 8 0;
#X connect 10 1 11 0;
#X connect 11 0 15 0;
#X connect 11 1 12 0;
#X connect 11 2 13 0;
#X connect 12 0 3 1;
#X connect 13 0 5 1;
#X connect 14 0 6 0;
#X connect 14 1 1 0;
#X connect 14 2 3 1;
#X connect 15 0 3 0;
#X connect 16 0 15 1;
#X connect 17 0 18 0;
