#N canvas 409 44 505 339 10;
#X obj 1 0 cnv 15 500 30 empty empty empty 20 12 0 14 #e0e0e0 #404040 0;
#X obj 188 129 bng 15 250 50 0 empty empty empty 17 7 0 10 #c4fcc4 #000000 #000000;
#X text 9 7 netpd-default - output default if arg of parent not given;
#X obj 188 173 netpd-default 3 45.6;
#X obj 188 205 print netpd-default;
#X text 268 239 inlet0: bang;
#X text 262 254 outlet0: argument or default value;
#X text 280 297 arg2: default value;
#X text 280 282 arg1: arg to check;
#X text 209 129 <- usually a loadbang;
#X text 15 48 [netpd-default] is used in abstractions to specify default values for a given argument. If an argument is not specified \, [netpd-default] detects it and outputs a default value instead.;
#X obj 24 133 bng 15 250 50 0 empty empty empty 17 7 0 10 #c4fcc4 #000000 #000000;
#X text 45 133 <- usually a loadbang;
#X obj 24 177 f \$3;
#X obj 24 224 print netpd-default;
#X text 56 177 default is 0 if \$3;
#X text 55 191 is not specified;
#X text 321 172 default is 45.6 if \$3 is not;
#X text 321 185 specified;
#X connect 1 0 3 0;
#X connect 3 0 4 0;
#X connect 11 0 13 0;
#X connect 13 0 14 0;
