#N canvas 412 136 399 390 10;
#X obj 18 56 moses 1;
#X obj 18 36 route float;
#X obj 18 15 inlet;
#X text 15 299 Achtung: the right inlet has a different meaning from
the one in [until];
#X text 16 348 args1 / inlet1: interval in msec between bangs;
#X obj 57 125 t b b a;
#X obj 76 190 + 1;
#X obj 76 169 f;
#X obj 162 151 moses;
#X msg 57 101 0;
#X obj 57 78 t b a;
#X obj 189 179 b;
#X obj 57 265 outlet;
#X obj 11 265 outlet;
#X obj 76 147 del \$1;
#X obj 109 15 inlet;
#X connect 0 1 10 0;
#X connect 1 0 0 0;
#X connect 2 0 1 0;
#X connect 5 0 12 0;
#X connect 5 1 14 0;
#X connect 5 2 7 1;
#X connect 6 0 8 0;
#X connect 7 0 6 0;
#X connect 8 0 5 0;
#X connect 8 1 11 0;
#X connect 9 0 5 0;
#X connect 10 0 9 0;
#X connect 10 1 8 1;
#X connect 11 0 13 0;
#X connect 14 0 7 0;
#X connect 15 0 14 1;
