#N canvas 210 112 576 318 10;
#N canvas 247 349 709 287 \$0.gop 0;
#X coords 0 0 100 112 100 112 2 50 50;
#X restore 50 50 pd \$0.gop;
#N canvas 659 363 670 630 create.items 0;
#X obj 43 526 s pd-\$0.gop;
#X obj 43 154 until;
#X obj 43 177 f;
#X obj 43 222 t a a;
#X obj 89 224 + 1;
#X obj 166 184 s pd-\$0.gop;
#X msg 166 160 clear;
#X obj 455 340 list store;
#X msg 455 316 get \$1 1;
#X obj 512 315 r \$0.items;
#X obj 84 69 r \$0.length;
#X obj 43 200 mod, f 14;
#X obj 43 124 t a b a b, f 21;
#X obj 43 67 f;
#X obj 43 18 r \$0.redraw;
#X obj 43 454 pack f f f f f f f f s, f 64;
#X text 50 438 id;
#X text 100 437 x;
#X text 146 437 y;
#X text 193 436 w;
#X text 240 435 h;
#X text 393 437 bgclr;
#X text 338 437 boxclr;
#X text 434 438 label;
#X obj 43 478 list prepend scalar \$0.rectangle;
#X obj 43 501 list trim;
#X obj 43 247 t a a a a a a a a a, f 64;
#X text 289 436 txtclr;
#X obj 344 347 r \$0.sel.clr;
#X obj 332 299 b;
#X obj 281 370 list append;
#X obj 332 322 list append;
#X obj 359 296 r \$0.items.clr;
#X obj 281 400 unpack f f f;
#X obj 185 363 r \$0.width;
#X obj 201 397 r \$0.height;
#X msg 90 345 0;
#X obj 427 49 f;
#X obj 427 12 r \$0.redraw;
#X obj 461 48 r \$0.length;
#X obj 460 74 r \$0.height;
#X msg 427 130 coords 0 0 \$2 \$1 \$2 \$1 2 50 50;
#X obj 427 72 *;
#X obj 505 105 r \$0.width;
#X obj 427 104 list append;
#X obj 441 161 s \$0.top;
#X obj 427 191 s pd-\$0.gop;
#X obj 138 359 *;
#X msg 84 153 0;
#N canvas 0 103 399 230 convert.to.symbol 0;
#X obj 69 28 loadbang;
#X msg 69 51 symbol;
#X obj 18 90 list append;
#X msg 18 113 symbol \$1\$2;
#X obj 18 44 inlet;
#X obj 18 147 outlet;
#X connect 0 0 1 0;
#X connect 1 0 2 1;
#X connect 2 0 3 0;
#X connect 3 0 5 0;
#X connect 4 0 2 0;
#X restore 456 368 pd convert.to.symbol;
#X obj 281 274 sel -1, f 9;
#X connect 1 0 2 0;
#X connect 2 0 11 0;
#X connect 3 0 26 0;
#X connect 3 1 4 0;
#X connect 4 0 2 1;
#X connect 6 0 5 0;
#X connect 7 0 49 0;
#X connect 8 0 7 0;
#X connect 9 0 7 1;
#X connect 10 0 13 1;
#X connect 11 0 3 0;
#X connect 12 0 1 0;
#X connect 12 1 48 0;
#X connect 12 2 11 1;
#X connect 12 3 6 0;
#X connect 13 0 12 0;
#X connect 14 0 13 0;
#X connect 15 0 24 0;
#X connect 24 0 25 0;
#X connect 25 0 0 0;
#X connect 26 0 15 0;
#X connect 26 1 36 0;
#X connect 26 2 47 0;
#X connect 26 5 50 0;
#X connect 26 8 8 0;
#X connect 28 0 30 1;
#X connect 29 0 31 0;
#X connect 30 0 33 0;
#X connect 31 0 33 0;
#X connect 32 0 31 1;
#X connect 33 0 15 5;
#X connect 33 1 15 6;
#X connect 33 2 15 7;
#X connect 34 0 15 3;
#X connect 35 0 15 4;
#X connect 35 0 47 1;
#X connect 36 0 15 1;
#X connect 37 0 42 0;
#X connect 38 0 37 0;
#X connect 39 0 37 1;
#X connect 40 0 42 1;
#X connect 41 0 46 0;
#X connect 41 0 45 0;
#X connect 42 0 44 0;
#X connect 43 0 44 1;
#X connect 44 0 41 0;
#X connect 47 0 15 2;
#X connect 48 0 2 1;
#X connect 49 0 15 8;
#X connect 50 0 30 0;
#X connect 50 1 29 0;
#X restore 190 98 pd create.items;
#N canvas 306 206 433 148 the.struct 0;
#X obj 11 112 outlet;
#X obj 12 12 filledpolygon bgclr boxclr 1 0 0 w 0 w h 0 h;
#X obj 11 76 struct \$0.rectangle float id float x float y float w
float h float txtclr float boxclr float bgclr symbol label;
#X obj 13 44 drawsymbol label 1 2 txtclr;
#X connect 2 0 0 0;
#X restore 190 122 pd the.struct;
#X text 338 41 arg2: width;
#X text 338 27 arg1: sendname;
#X text 338 55 arg3: height;
#X obj 190 26 namecanvas \$0.top;
#N canvas 430 368 450 317 init 0;
#X obj 12 10 loadbang;
#X obj 70 83 pdcontrol;
#X msg 70 60 args 0;
#X obj 268 166 s \$0.items.clr;
#X obj 268 141 pack f f f;
#X obj 183 142 pack f f f;
#X obj 183 167 s \$0.sel.clr;
#X obj 126 221 s \$0.height;
#X obj 98 246 s \$0.width;
#X obj 12 33 t b b b, f 20;
#X obj 12 269 s \$1;
#X msg 12 244 items symbol;
#X obj 70 106 unpack s f f f f f f f f f, f 43;
#X obj 155 195 s \$0.fontsize;
#X msg 129 58 list _placeholder 100 16 10 0 666 888 555 666 888;
#X connect 0 0 9 0;
#X connect 1 0 12 0;
#X connect 2 0 1 0;
#X connect 4 0 3 0;
#X connect 5 0 6 0;
#X connect 9 0 11 0;
#X connect 9 1 2 0;
#X connect 9 2 14 0;
#X connect 11 0 10 0;
#X connect 12 1 8 0;
#X connect 12 2 7 0;
#X connect 12 3 13 0;
#X connect 12 4 5 0;
#X connect 12 5 5 1;
#X connect 12 6 5 2;
#X connect 12 7 4 0;
#X connect 12 8 4 1;
#X connect 12 9 4 2;
#X connect 14 0 12 0;
#X restore 190 50 pd init;
#N canvas 349 359 424 279 methods 0;
#N canvas 0 106 389 271 items 0;
#X obj 11 7 r \$1;
#X obj 45 142 list length;
#X obj 45 164 s \$0.length;
#X obj 62 119 s \$0.items;
#X obj 28 189 s \$0.redraw;
#X obj 11 96 t b b a a;
#X obj 11 30 route items;
#X obj 11 53 list;
#X connect 0 0 6 0;
#X connect 1 0 2 0;
#X connect 5 1 4 0;
#X connect 5 2 1 0;
#X connect 5 3 3 0;
#X connect 6 0 7 0;
#X connect 7 0 5 0;
#X restore 15 44 pd items;
#X text 13 13 input;
#X text 166 16 output;
#N canvas 0 106 439 129 selected 0;
#X obj 30 18 r \$0.sel.value;
#X msg 30 41 selected \$1;
#X obj 30 64 s \$1;
#X connect 0 0 1 0;
#X connect 1 0 2 0;
#X restore 165 44 pd selected;
#N canvas 0 106 439 174 width 0;
#X obj 11 7 r \$1;
#X obj 11 99 s \$0.redraw;
#X obj 11 29 route width;
#X obj 11 52 t b a;
#X obj 38 79 s \$0.width;
#X connect 0 0 2 0;
#X connect 2 0 3 0;
#X connect 3 0 1 0;
#X connect 3 1 4 0;
#X restore 15 68 pd width;
#N canvas 0 106 439 174 height 0;
#X obj 11 7 r \$1;
#X obj 11 99 s \$0.redraw;
#X obj 11 52 t b a;
#X obj 11 29 route height;
#X obj 38 79 s \$0.height;
#X connect 0 0 3 0;
#X connect 2 0 1 0;
#X connect 2 1 4 0;
#X connect 3 0 2 0;
#X restore 15 92 pd height;
#N canvas 0 106 439 271 items_* 0;
#X obj 11 7 r \$1;
#X obj 11 199 s \$0.redraw;
#X obj 11 65 t b a;
#X obj 86 68 t b a;
#X obj 161 70 t b a;
#X obj 56 153 pack f f f;
#X obj 56 126 f;
#X obj 11 100 t b b;
#X obj 56 177 s \$0.items.clr;
#X obj 11 29 route items_text_color items_box_color items_background_color
;
#X obj 257 43 r \$0.items.clr;
#X obj 257 66 unpack f f f;
#X connect 0 0 9 0;
#X connect 2 0 7 0;
#X connect 2 1 6 1;
#X connect 3 0 7 0;
#X connect 3 1 5 1;
#X connect 4 0 7 0;
#X connect 4 1 5 2;
#X connect 5 0 8 0;
#X connect 6 0 5 0;
#X connect 7 0 1 0;
#X connect 7 1 6 0;
#X connect 9 0 2 0;
#X connect 9 1 3 0;
#X connect 9 2 4 0;
#X connect 10 0 11 0;
#X connect 11 0 6 1;
#X connect 11 1 5 1;
#X connect 11 2 5 2;
#X restore 15 164 pd items_*;
#N canvas 0 106 439 271 selected_* 0;
#X obj 11 7 r \$1;
#X obj 11 199 s \$0.redraw;
#X obj 11 29 route selected_text_color selected_box_color selected_background_color
;
#X obj 56 177 s \$0.sel.clr;
#X obj 11 65 t b a;
#X obj 98 66 t b a;
#X obj 185 66 t b a;
#X obj 56 153 pack f f f;
#X obj 56 126 f;
#X obj 11 100 t b b;
#X obj 245 71 r \$0.sel.clr;
#X obj 245 94 unpack f f f;
#X connect 0 0 2 0;
#X connect 2 0 4 0;
#X connect 2 1 5 0;
#X connect 2 2 6 0;
#X connect 4 0 9 0;
#X connect 4 1 8 1;
#X connect 5 0 9 0;
#X connect 5 1 7 1;
#X connect 6 0 9 0;
#X connect 6 1 7 2;
#X connect 7 0 3 0;
#X connect 8 0 7 0;
#X connect 9 0 1 0;
#X connect 9 1 8 0;
#X connect 10 0 11 0;
#X connect 11 0 8 1;
#X connect 11 1 7 1;
#X connect 11 2 7 2;
#X restore 15 140 pd selected_*;
#N canvas 0 106 439 174 fontsize 0;
#X obj 11 7 r \$1;
#X obj 11 99 s \$0.redraw;
#X obj 11 52 t b a;
#X obj 11 29 route fontsize;
#X obj 38 79 s \$0.fontsize;
#X connect 0 0 3 0;
#X connect 2 0 1 0;
#X connect 2 1 4 0;
#X connect 3 0 2 0;
#X restore 15 116 pd fontsize;
#N canvas 0 103 426 372 setlabel 0;
#X obj 11 7 r \$1;
#X obj 11 30 route setlabel;
#X msg 57 141 traverse pd-\$1.gop;
#X obj 57 115 \$0;
#X msg 11 139 next;
#X obj 11 168 pointer \$0.rectangle;
#X obj 11 218 get \$0.rectangle id;
#X obj 11 116 until;
#X obj 11 288 symbol;
#X obj 11 242 sel 0;
#X obj 11 312 set -symbol \$0.rectangle label;
#X obj 11 265 t b b;
#X obj 11 193 t p p, f 30;
#X obj 267 231 b;
#X obj 11 91 t b b a, f 16;
#X obj 11 53 symbol;
#X connect 0 0 1 0;
#X connect 1 0 15 0;
#X connect 2 0 5 0;
#X connect 3 0 2 0;
#X connect 4 0 5 0;
#X connect 5 0 12 0;
#X connect 6 0 9 0;
#X connect 7 0 4 0;
#X connect 8 0 10 0;
#X connect 9 0 11 0;
#X connect 11 0 8 0;
#X connect 11 1 13 0;
#X connect 12 0 6 0;
#X connect 12 1 10 1;
#X connect 13 0 7 1;
#X connect 14 0 7 0;
#X connect 14 1 3 0;
#X connect 14 2 8 1;
#X connect 15 0 14 0;
#X restore 15 187 pd setlabel;
#X restore 190 74 pd methods;
#X obj 269 275 s \$0.top;
#X msg 269 250 font \$1 100 100;
#X text 338 83 arg5: selected text color;
#X text 338 97 arg6: selected box color;
#X text 338 111 arg7: selected background color;
#X text 338 125 arg8: items text color;
#X text 338 138 arg9: items box color;
#X text 332 152 arg10: items background color;
#X text 338 69 arg4: fontsize;
#X obj 269 226 r \$0.fontsize;
#N canvas 163 147 588 403 select 0;
#X obj 28 30 inlet;
#X obj 28 53 route click;
#X msg 28 76 \$1;
#X obj 28 334 get \$0.rectangle label;
#X obj 28 361 s \$0.sel.value;
#X obj 136 33 r \$0.sel.clr;
#X obj 173 62 r \$0.items.clr;
#X obj 94 191 spigot 0;
#X obj 190 164 t a b;
#X msg 217 190 1;
#X obj 116 166 r \$0.reset;
#X msg 369 195 traverse pd-\$1.gop;
#X obj 369 171 f \$0;
#X obj 317 237 pointer \$0.rectangle;
#X obj 317 171 until;
#X obj 317 291 get \$0.rectangle label;
#X msg 317 194 next;
#X obj 317 372 pointer;
#X obj 317 260 t a a, f 9;
#X obj 317 144 t b b a, f 18;
#X obj 317 118 r \$0.set;
#X obj 317 344 t b b;
#X obj 317 320 select bla, f 18;
#X obj 28 99 t a a;
#X obj 55 139 t b a b;
#X obj 94 240 list append;
#X obj 55 218 list append;
#X obj 55 305 set \$0.rectangle txtclr boxclr bgclr;
#X obj 55 262 unpack f f f;
#X connect 0 0 1 0;
#X connect 1 0 2 0;
#X connect 2 0 23 0;
#X connect 3 0 4 0;
#X connect 5 0 26 1;
#X connect 6 0 25 1;
#X connect 7 0 25 0;
#X connect 8 0 27 3;
#X connect 8 1 9 0;
#X connect 9 0 7 1;
#X connect 10 0 7 0;
#X connect 11 0 13 0;
#X connect 12 0 11 0;
#X connect 13 0 18 0;
#X connect 13 2 14 1;
#X connect 14 0 16 0;
#X connect 15 0 22 0;
#X connect 16 0 13 0;
#X connect 17 0 24 0;
#X connect 18 0 15 0;
#X connect 18 1 17 1;
#X connect 19 0 14 0;
#X connect 19 1 12 0;
#X connect 19 2 22 1;
#X connect 20 0 19 0;
#X connect 21 0 17 0;
#X connect 21 1 14 1;
#X connect 22 0 21 0;
#X connect 23 0 3 0;
#X connect 23 1 24 0;
#X connect 24 0 26 0;
#X connect 24 1 8 0;
#X connect 24 2 7 0;
#X connect 25 0 28 0;
#X connect 26 0 28 0;
#X connect 28 0 27 0;
#X connect 28 1 27 1;
#X connect 28 2 27 2;
#X restore 190 146 pd select;
#X msg 148 213 clear;
#X obj 148 236 s pd-\$0.gop;
#X connect 2 0 19 0;
#X connect 10 0 9 0;
#X connect 18 0 10 0;
#X connect 20 0 21 0;
#X coords 0 0 100 112 100 112 2 50 50;
