#N canvas 483 405 300 281 10;
#X obj 10 14 inlet;
#X obj 29 131 textfile;
#X obj 29 152 b;
#X msg 29 173 1;
#X obj 10 212 f;
#X obj 10 59 t b a b;
#X msg 99 139 0;
#X obj 10 234 outlet;
#X text 172 36 1: yes;
#X text 172 49 0: no;
#X text 103 19 check \, if given file exists:;
#X msg 29 101 clear \, read \$1 \, rewind \, bang;
#X obj 10 36 list;
#X connect 0 0 12 0;
#X connect 1 0 2 0;
#X connect 2 0 3 0;
#X connect 3 0 4 1;
#X connect 4 0 7 0;
#X connect 5 0 4 0;
#X connect 5 1 11 0;
#X connect 5 2 6 0;
#X connect 6 0 4 1;
#X connect 11 0 1 0;
#X connect 12 0 5 0;
