#N canvas 410 32 503 341 10;
#X obj 1 0 cnv 15 500 30 empty empty empty 20 12 0 14 #e0e0e0 #404040
0;
#X obj 23 243 netpd-str-replace u oo;
#X msg 23 103 symbol tuktuk;
#X msg 37 127 symbol tiktok;
#X msg 52 151 symbol suuuuuum;
#X text 8 7 netpd-str-replace - replace a substring within a symbol
;
#X text 265 274 inlet0: symbol;
#X text 259 294 outlet0: symbol;
#X symbolatom 63 177 20 0 0 0 - - - 0;
#X symbolatom 23 298 20 0 0 0 - - - 0;
#X text 277 234 arg1: substring to match;
#X text 277 254 arg2: replacement string;
#X text 11 53 [netpd-str-replace] replaces every occurrence of a substring
in a symbol by another string.;
#X msg 85 206 set ik ucc;
#X text 157 204 set different substring and replacement;
#X connect 1 0 9 0;
#X connect 2 0 1 0;
#X connect 3 0 1 0;
#X connect 4 0 1 0;
#X connect 8 0 1 0;
#X connect 13 0 1 0;
