#N canvas 186 322 501 610 10;
#X declare -path else;
#X text 211 89 1: yes;
#X text 211 102 0: no;
#X text 156 67 check \, if given file exists:;
#X obj 28 57 inlet;
#X obj 28 79 symbol;
#X obj 28 513 outlet;
#X obj 26 18 declare -path else;
#X obj 28 213 pack s s;
#X msg 28 236 list \$2 \$1;
#X obj 28 259 unpack s s;
#X obj 28 316 t b b a b;
#X msg 45 349 dump;
#X obj 45 411 select symbol;
#X msg 45 434 1;
#X msg 86 440 0;
#X obj 28 468 f;
#X obj 28 101 netpd-split-path;
#X obj 45 378 dir;
#X msg 85 283 reset \, open \$1;
#X obj 28 134 sel ./ ../;
#X msg 28 184 symbol .;
#X msg 56 160 symbol ..;
#X text 132 146 <- workaround for strange dir behaviour on Debian Buster
where ./ and ../ list content of /.;
#X connect 3 0 4 0;
#X connect 4 0 16 0;
#X connect 7 0 8 0;
#X connect 8 0 9 0;
#X connect 9 0 10 0;
#X connect 9 1 18 0;
#X connect 10 0 15 0;
#X connect 10 1 11 0;
#X connect 10 2 12 1;
#X connect 10 3 14 0;
#X connect 11 0 17 0;
#X connect 12 0 13 0;
#X connect 13 0 15 1;
#X connect 14 0 15 1;
#X connect 15 0 5 0;
#X connect 16 0 19 0;
#X connect 16 1 7 1;
#X connect 17 0 12 0;
#X connect 18 0 17 0;
#X connect 19 0 20 0;
#X connect 19 1 21 0;
#X connect 19 2 7 0;
#X connect 20 0 7 0;
#X connect 21 0 7 0;
