#N canvas 312 43 438 701 10;
#X obj 13 13 inlet;
#X obj 98 256 list length;
#X obj 13 651 s \$1;
#X obj 13 35 route set;
#X obj 64 57 list split 1;
#X obj 149 100 array size \$0.in.buffer;
#X obj 159 190 array size \$0.in.buffer;
#X obj 98 78 t a a a b;
#X obj 132 171 moses;
#X obj 149 120 + 1;
#X obj 115 213 list prepend 0;
#X obj 115 233 s \$0.in.buffer;
#X obj 64 281 pack f f;
#X obj 259 34 table \$0.buffer 2048;
#X obj 64 347 netpd-range-slice 2048;
#X obj 103 407 array get \$0.in.buffer;
#X obj 103 387 unpack f f;
#X obj 103 428 list prepend 0;
#X obj 103 448 s \$0.buffer;
#X obj 259 57 table \$0.out.buffer 1024;
#N canvas 0 43 433 263 DSP.processing 0;
#X obj 17 17 inlet;
#X obj 97 100 tabreceive~ \$0.buffer;
#N canvas 0 43 400 217 reblock_downsampled_by_2 0;
#X obj 13 8 inlet;
#X obj 13 28 switch~ 1024 1 0.5;
#X obj 173 17 inlet~;
#X obj 286 18 inlet~;
#X obj 174 70 netpd-16bit-to-sig~;
#X obj 174 123 tabsend~ \$0.out.buffer;
#X connect 0 0 1 0;
#X connect 2 0 4 0;
#X connect 3 0 4 1;
#X connect 4 0 5 0;
#X restore 17 164 pd reblock_downsampled_by_2;
#X obj 177 130 rzero_rev~ 0;
#X text 262 127 <- one sample delay;
#X obj 177 130 rzero_rev~ 0;
#X obj 17 37 t b b;
#X obj 44 59 switch~ 2048 1 1;
#X connect 0 0 6 0;
#X connect 1 0 3 0;
#X connect 1 0 2 1;
#X connect 3 0 2 2;
#X connect 6 0 2 0;
#X connect 6 1 7 0;
#X restore 83 472 pd DSP.processing;
#X obj 64 301 t a a;
#X msg 64 327 0 \$2;
#X msg 257 396 \$1;
#X obj 64 367 t a b a;
#X obj 133 562 +;
#X obj 64 495 t a a;
#X obj 64 587 array get \$0.out.buffer;
#X msg 133 515 \$1;
#X msg 64 516 \$2;
#X obj 64 565 t b a;
#X obj 64 614 list prepend;
#X obj 259 13 table \$0.in.buffer 2048;
#X obj 132 145 list length;
#X obj 64 538 * 0.5;
#X obj 133 535 * 0.5;
#X connect 0 0 3 0;
#X connect 1 0 12 1;
#X connect 3 0 2 0;
#X connect 3 1 4 0;
#X connect 4 0 12 0;
#X connect 4 1 7 0;
#X connect 5 0 9 0;
#X connect 7 0 1 0;
#X connect 7 1 10 0;
#X connect 7 2 33 0;
#X connect 7 3 5 0;
#X connect 8 1 6 0;
#X connect 9 0 8 1;
#X connect 10 0 11 0;
#X connect 12 0 21 0;
#X connect 14 0 24 0;
#X connect 15 0 17 0;
#X connect 16 0 15 0;
#X connect 16 1 15 1;
#X connect 17 0 18 0;
#X connect 21 0 22 0;
#X connect 21 1 23 0;
#X connect 22 0 14 0;
#X connect 23 0 25 1;
#X connect 24 0 26 0;
#X connect 24 1 20 0;
#X connect 24 2 16 0;
#X connect 25 0 31 1;
#X connect 26 0 29 0;
#X connect 26 1 28 0;
#X connect 27 0 31 0;
#X connect 28 0 35 0;
#X connect 29 0 34 0;
#X connect 30 0 27 0;
#X connect 30 1 27 1;
#X connect 31 0 2 0;
#X connect 33 0 8 0;
#X connect 34 0 30 0;
#X connect 35 0 25 0;
