#N canvas 397 67 450 458 10;
#X obj 312 47 r \$0.send;
#X obj 311 191 s \$0.receive;
#X obj 311 147 netpd-r \$1;
#X obj 312 69 list prepend to;
#X obj 312 91 list trim;
#X obj 312 113 s NETPD;
#X obj 11 12 inlet;
#X obj 311 169 routeOSC /transfer;
#X text 55 11 patch|abstraction <filename> <remote socket>;
#X msg 154 42 patch master.pd 5;
#N canvas 0 69 548 259 send.request 0;
#X obj 11 33 list;
#X obj 11 116 list append \$1;
#X obj 11 182 s \$0.send;
#X msg 38 75 socket;
#X obj 38 96 netpd-status-get;
#X obj 11 162 list append;
#X obj 11 54 t a b;
#X msg 11 139 /\$3\$4/transfer/request/\$1 \$2;
#X text 11 203 /<socket>/<namespace>/transfer/request/patch|abstraction
;
#X text 362 203 <filename> <local_socket>;
#X obj 11 7 inlet;
#X text 62 9 patch|abstraction <filename> <remote socket>;
#X connect 0 0 6 0;
#X connect 1 0 7 0;
#X connect 3 0 4 0;
#X connect 4 0 5 1;
#X connect 5 0 2 0;
#X connect 6 0 1 0;
#X connect 6 1 3 0;
#X connect 7 0 5 0;
#X connect 10 0 0 0;
#X restore 11 51 pd send.request;
#N canvas 0 69 338 178 handle.request 0;
#X obj 6 14 r \$0.receive;
#X obj 6 35 routeOSC /request;
#X obj 6 56 route /patch /abstraction;
#X obj 6 142 outlet;
#X text 132 78 <filename> <remote_socket>;
#X obj 6 77 list;
#X obj 79 77 list;
#X msg 6 117 list patches/\$1 \$2 patch;
#X msg 79 97 list abs/\$1 \$2 abstraction;
#X connect 0 0 1 0;
#X connect 1 0 2 0;
#X connect 2 0 5 0;
#X connect 2 1 6 0;
#X connect 5 0 7 0;
#X connect 6 0 8 0;
#X connect 7 0 3 0;
#X connect 8 0 3 0;
#X restore 10 91 pd handle.request;
#N canvas 410 123 286 359 send.patch 1;
#X obj 15 38 route patch abstraction;
#X obj 15 13 inlet;
#X msg 58 139 clear \, read \$1 \, rewind;
#X obj 15 169 textfile;
#X obj 15 138 until;
#X obj 82 60 list;
#X obj 15 59 list;
#X obj 15 113 t b a a;
#X obj 15 81 t a b;
#X obj 82 82 t a b;
#X msg 79 170 \$2;
#X obj 15 191 t b a;
#X obj 15 213 f;
#X text 108 171 socket;
#X obj 15 235 list append \$1;
#X msg 15 257 /\$1\$2/transfer/data;
#X obj 15 280 list append;
#X obj 15 302 s \$0.send;
#X connect 0 0 6 0;
#X connect 0 1 5 0;
#X connect 1 0 0 0;
#X connect 2 0 3 0;
#X connect 3 0 11 0;
#X connect 3 1 4 1;
#X connect 4 0 3 0;
#X connect 5 0 9 0;
#X connect 6 0 8 0;
#X connect 7 0 4 0;
#X connect 7 1 2 0;
#X connect 7 2 10 0;
#X connect 8 0 7 0;
#X connect 9 0 7 0;
#X connect 10 0 12 1;
#X connect 11 0 12 0;
#X connect 11 1 16 1;
#X connect 12 0 14 0;
#X connect 14 0 15 0;
#X connect 15 0 16 0;
#X connect 16 0 17 0;
#X restore 10 128 pd send.patch;
#X connect 0 0 3 0;
#X connect 2 0 7 0;
#X connect 3 0 4 0;
#X connect 4 0 5 0;
#X connect 6 0 10 0;
#X connect 7 0 1 0;
#X connect 11 0 12 0;
