#N canvas 457 448 474 96 10;
#N canvas 231 192 243 323 save 0;
#X obj 11 75 t b b b;
#X obj 11 294 textfile;
#X msg 50 145 clear;
#X obj 117 240 list prepend add;
#X obj 117 261 list trim;
#X obj 117 159 s NETPD;
#X obj 117 179 r NETPD;
#X obj 117 200 route pref;
#X msg 117 138 pref saving;
#X obj 117 220 route saved;
#X obj 11 12 r NETPD;
#X obj 11 33 route pref;
#X obj 11 54 route save;
#X msg 11 98 write ~/.netpd.cnf cr;
#X connect 0 0 13 0;
#X connect 0 1 8 0;
#X connect 0 2 2 0;
#X connect 2 0 1 0;
#X connect 3 0 4 0;
#X connect 4 0 1 0;
#X connect 6 0 7 0;
#X connect 7 0 9 0;
#X connect 8 0 5 0;
#X connect 9 0 3 0;
#X connect 10 0 11 0;
#X connect 11 0 12 0;
#X connect 12 0 0 0;
#X connect 13 0 1 0;
#X restore 10 9 pd save;
#N canvas 179 360 334 307 load 0;
#X obj 14 10 r NETPD;
#X obj 14 73 b;
#X obj 14 192 textfile;
#X obj 14 123 t b a;
#X obj 14 167 until;
#X msg 41 145 read \$1 cr \, rewind;
#X obj 14 213 list prepend pref set;
#X obj 14 234 list trim;
#X obj 14 257 s NETPD;
#X obj 14 31 route pref;
#X obj 14 52 route load;
#N canvas 0 40 450 355 netpd.cnf_cascade 0;
#X obj 32 89 file isfile;
#X obj 51 189 pdcontrol;
#X msg 51 163 dir;
#X obj 32 112 sel 1 0;
#X obj 95 113 b;
#X obj 32 63 t a a, f 20;
#X obj 32 138 symbol, f 20;
#X msg 32 40 symbol ~/.netpd.cnf;
#X msg 51 212 symbol \$1/netpd.cnf;
#X obj 32 253 t a;
#X obj 32 12 inlet;
#X obj 32 278 outlet;
#X connect 0 0 3 0;
#X connect 0 1 4 0;
#X connect 1 0 8 0;
#X connect 2 0 1 0;
#X connect 3 0 6 0;
#X connect 3 1 2 0;
#X connect 4 0 2 0;
#X connect 5 0 0 0;
#X connect 5 1 6 1;
#X connect 6 0 9 0;
#X connect 7 0 5 0;
#X connect 8 0 9 0;
#X connect 9 0 11 0;
#X connect 10 0 7 0;
#X restore 14 98 pd netpd.cnf_cascade;
#X connect 0 0 9 0;
#X connect 1 0 11 0;
#X connect 2 0 6 0;
#X connect 2 1 4 1;
#X connect 3 0 4 0;
#X connect 3 1 5 0;
#X connect 4 0 2 0;
#X connect 5 0 2 0;
#X connect 6 0 7 0;
#X connect 7 0 8 0;
#X connect 9 0 10 0;
#X connect 10 0 1 0;
#X connect 11 0 3 0;
#X restore 59 9 pd load;
#X msg 119 27 pref load;
#X obj 119 48 s NETPD;
#X obj 119 7 inlet;
#X connect 2 0 3 0;
#X connect 4 0 2 0;
