#N canvas 462 53 475 525 10;
#X obj 9 11 loadbang;
#X obj 282 33 list;
#X obj 282 84 list split 1;
#X obj 282 55 t a a;
#X msg 363 84 \$1;
#X obj 282 109 list prepend OSC;
#X obj 282 129 list trim;
#X obj 9 83 netpd-find-sync /\$1/\$2;
#X obj 282 180 netpd-r /\$1/\$2;
#X obj 282 149 netpd-s /\$1/\$2;
#X msg 9 107 \$1 /dump/request;
#X obj 9 173 routeOSC /dump/request;
#X obj 55 379 s \$1.NETPD;
#X msg 55 357 dump \$1;
#X obj 9 195 b;
#X obj 9 239 t a a;
#X obj 55 403 r \$1.NETPD;
#X obj 55 425 route send;
#X obj 36 263 t b b a;
#X msg 36 286 b;
#X obj 75 311 s \$0.to;
#X obj 136 426 r \$0.to;
#X obj 282 11 r \$1.send;
#X obj 282 205 s \$1.receive;
#X obj 363 223 s \$1.sender;
#X obj 62 218 r \$1.sender;
#X obj 55 497 s \$1.send;
#X msg 9 471 \$1 /dump/finished;
#X obj 105 11 r \$1.receive;
#X obj 105 33 routeOSC /dump/finished;
#X msg 105 56 ready;
#X msg 9 56 unready \, find;
#X obj 174 76 b;
#X msg 55 336 1 \, 2 \, 3 \, 4 \, 5 \, 6 \, 7 \, 8 \, 9 \, 10;
#X obj 55 449 list prepend b;
#X obj 297 323 netpd-status-get socket 1;
#X obj 282 347 !=;
#X obj 282 369 s \$1.notown;
#X obj 363 201 t a a;
#X obj 9 129 s \$1.send;
#X obj 9 151 r \$1.receive;
#X obj 9 217 list;
#X obj 282 257 route symbol;
#X msg 282 279 -1;
#X connect 0 0 31 0;
#X connect 1 0 3 0;
#X connect 2 1 5 0;
#X connect 3 0 2 0;
#X connect 3 1 4 0;
#X connect 4 0 9 1;
#X connect 5 0 6 0;
#X connect 6 0 9 0;
#X connect 7 0 10 0;
#X connect 7 1 32 0;
#X connect 8 0 23 0;
#X connect 8 1 38 0;
#X connect 10 0 39 0;
#X connect 11 0 14 0;
#X connect 13 0 12 0;
#X connect 14 0 41 0;
#X connect 15 0 27 0;
#X connect 15 1 18 0;
#X connect 16 0 17 0;
#X connect 17 0 34 0;
#X connect 18 0 19 0;
#X connect 18 1 33 0;
#X connect 18 2 20 0;
#X connect 19 0 20 0;
#X connect 21 0 34 1;
#X connect 22 0 1 0;
#X connect 25 0 41 1;
#X connect 27 0 26 0;
#X connect 28 0 29 0;
#X connect 29 0 30 0;
#X connect 30 0 7 0;
#X connect 31 0 7 0;
#X connect 32 0 30 0;
#X connect 33 0 13 0;
#X connect 34 0 26 0;
#X connect 35 0 36 1;
#X connect 36 0 37 0;
#X connect 38 0 24 0;
#X connect 38 1 42 0;
#X connect 40 0 11 0;
#X connect 41 0 15 0;
#X connect 42 0 43 0;
#X connect 42 1 36 0;
#X connect 43 0 36 0;
