#N canvas 338 188 620 462 10;
#X obj 13 17 inlet;
#X obj 13 431 outlet;
#X obj 513 14 inlet~;
#X obj 429 405 table \$1-\$2-table 2.646e+06;
#X text 434 423 max. size: 1 min @ 44.1kHz;
#X obj 13 43 s \$0.inlet;
#X obj 13 402 r \$0.outlet;
#N canvas 603 172 380 345 fromtable 0;
#X obj 9 9 r \$0.inlet;
#X obj 9 36 route loadtable;
#X obj 9 59 list;
#X msg 52 115 set \$1;
#N canvas 439 208 319 390 split.into.1024.chunks 0;
#X obj 25 89 t a a;
#X obj 82 133 div 1024;
#X obj 25 132 mod 1024;
#X obj 82 160 until;
#X msg 82 182 1024;
#X msg 25 63 \$2;
#X msg 157 161 \$1;
#X obj 25 210 t a b a;
#X obj 44 235 f;
#X obj 74 234 +;
#X obj 44 279 +;
#X obj 25 311 pack f f;
#X msg 25 333 \$2 \$1;
#X obj 25 41 t a a b;
#X msg 148 116 0;
#X obj 25 166 sel 0;
#X obj 25 13 inlet;
#X obj 25 358 outlet;
#X connect 0 0 2 0;
#X connect 0 1 1 0;
#X connect 1 0 3 0;
#X connect 2 0 15 0;
#X connect 3 0 4 0;
#X connect 4 0 7 0;
#X connect 5 0 0 0;
#X connect 6 0 10 1;
#X connect 7 0 11 0;
#X connect 7 1 8 0;
#X connect 7 2 9 1;
#X connect 8 0 9 0;
#X connect 8 0 10 0;
#X connect 9 0 8 1;
#X connect 10 0 11 1;
#X connect 11 0 12 0;
#X connect 12 0 17 0;
#X connect 13 0 5 0;
#X connect 13 1 6 0;
#X connect 13 2 14 0;
#X connect 14 0 8 1;
#X connect 15 1 7 0;
#X connect 16 0 13 0;
#X restore 9 150 pd split.into.1024.chunks;
#X msg 9 115 \$2 \$3;
#X obj 9 82 t a a a;
#X obj 226 175 list prepend \$2;
#X msg 226 153 \$3;
#X msg 226 211 send /\$1/length \$2;
#X obj 226 234 s \$1.NETPD;
#X obj 9 220 s \$0.tabdump;
#X msg 9 180 index \$1 \, \$1 \$2;
#X connect 0 0 1 0;
#X connect 1 0 2 0;
#X connect 2 0 6 0;
#X connect 3 0 11 0;
#X connect 4 0 12 0;
#X connect 5 0 4 0;
#X connect 6 0 5 0;
#X connect 6 1 3 0;
#X connect 6 2 8 0;
#X connect 7 0 9 0;
#X connect 8 0 7 0;
#X connect 9 0 10 0;
#X connect 12 0 11 0;
#X restore 9 99 pd fromtable;
#X obj 423 148 netpd-tabwrite16 \$1-\$2-table;
#X obj 396 104 netpd_r \$1 \$2/data;
#X obj 396 328 netpd_r \$1 \$2/length;
#X obj 140 157 netpd-tabdump16 \$1-\$2-table;
#X obj 140 248 s \$1.NETPD;
#X obj 140 226 list trim;
#X obj 140 203 list prepend sendtyped /\$2/data fb;
#X obj 140 105 r \$0.tabdump;
#X obj 140 179 list prepend;
#N canvas 603 172 380 345 length 0;
#X obj 9 9 r \$0.inlet;
#X obj 9 36 route length;
#X obj 38 59 r \$0.length;
#X obj 9 58 b;
#X obj 9 112 f;
#X obj 9 164 s \$0.outlet;
#X msg 9 135 length \$1;
#X connect 0 0 1 0;
#X connect 1 0 3 0;
#X connect 2 0 4 0;
#X connect 3 0 4 0;
#X connect 4 0 6 0;
#X connect 6 0 5 0;
#X restore 9 168 pd length;
#X obj 396 356 s \$0.length;
#N canvas 970 179 380 345 dump 0;
#X msg 36 192 set \$1;
#N canvas 439 208 319 390 split.into.1024.chunks 0;
#X obj 25 89 t a a;
#X obj 82 133 div 1024;
#X obj 25 132 mod 1024;
#X obj 82 160 until;
#X msg 82 182 1024;
#X msg 25 63 \$2;
#X msg 157 161 \$1;
#X obj 25 210 t a b a;
#X obj 44 235 f;
#X obj 74 234 +;
#X obj 44 279 +;
#X obj 25 311 pack f f;
#X msg 25 333 \$2 \$1;
#X obj 25 41 t a a b;
#X msg 148 116 0;
#X obj 25 166 sel 0;
#X obj 25 13 inlet;
#X obj 25 358 outlet;
#X connect 0 0 2 0;
#X connect 0 1 1 0;
#X connect 1 0 3 0;
#X connect 2 0 15 0;
#X connect 3 0 4 0;
#X connect 4 0 7 0;
#X connect 5 0 0 0;
#X connect 6 0 10 1;
#X connect 7 0 11 0;
#X connect 7 1 8 0;
#X connect 7 2 9 1;
#X connect 8 0 9 0;
#X connect 8 0 10 0;
#X connect 9 0 8 1;
#X connect 10 0 11 1;
#X connect 11 0 12 0;
#X connect 12 0 17 0;
#X connect 13 0 5 0;
#X connect 13 1 6 0;
#X connect 13 2 14 0;
#X connect 14 0 8 1;
#X connect 15 1 7 0;
#X connect 16 0 13 0;
#X restore 9 218 pd split.into.1024.chunks;
#X obj 179 65 list prepend \$2;
#X msg 179 89 send /\$1/length \$2;
#X obj 179 112 s \$1.NETPD;
#X obj 24 36 r \$0.length;
#X obj 9 64 f;
#X msg 9 121 0 \$1;
#X obj 9 86 t a a;
#X msg 179 43 \$1;
#X obj 9 147 t a b;
#X obj 36 169 symbol \$1-\$2-table;
#X obj 9 279 s \$0.tabdump;
#X msg 9 247 index \$1 \, \$1 \$2;
#X obj 9 9 netpd-dump \$1;
#X connect 0 0 12 0;
#X connect 1 0 13 0;
#X connect 2 0 3 0;
#X connect 3 0 4 0;
#X connect 5 0 6 1;
#X connect 6 0 8 0;
#X connect 7 0 10 0;
#X connect 8 0 7 0;
#X connect 8 1 9 0;
#X connect 9 0 2 0;
#X connect 10 0 1 0;
#X connect 10 1 11 0;
#X connect 11 0 0 0;
#X connect 13 0 12 0;
#X connect 14 0 6 0;
#X restore 9 191 pd dump;
#N canvas 652 188 333 359 fromfile 0;
#X msg 37 243 set \$1;
#N canvas 439 208 319 390 split.into.1024.chunks 0;
#X obj 25 89 t a a;
#X obj 82 133 div 1024;
#X obj 25 132 mod 1024;
#X obj 82 160 until;
#X msg 82 182 1024;
#X msg 25 63 \$2;
#X msg 157 161 \$1;
#X obj 25 210 t a b a;
#X obj 44 235 f;
#X obj 74 234 +;
#X obj 44 279 +;
#X obj 25 311 pack f f;
#X msg 25 333 \$2 \$1;
#X obj 25 41 t a a b;
#X msg 148 116 0;
#X obj 25 166 sel 0;
#X obj 25 13 inlet;
#X obj 25 358 outlet;
#X connect 0 0 2 0;
#X connect 0 1 1 0;
#X connect 1 0 3 0;
#X connect 2 0 15 0;
#X connect 3 0 4 0;
#X connect 4 0 7 0;
#X connect 5 0 0 0;
#X connect 6 0 10 1;
#X connect 7 0 11 0;
#X connect 7 1 8 0;
#X connect 7 2 9 1;
#X connect 8 0 9 0;
#X connect 8 0 10 0;
#X connect 9 0 8 1;
#X connect 10 0 11 1;
#X connect 11 0 12 0;
#X connect 12 0 17 0;
#X connect 13 0 5 0;
#X connect 13 1 6 0;
#X connect 13 2 14 0;
#X connect 14 0 8 1;
#X connect 15 1 7 0;
#X connect 16 0 13 0;
#X restore 10 269 pd split.into.1024.chunks;
#X obj 187 233 list prepend \$2;
#X msg 187 257 send /\$1/length \$2;
#X obj 187 280 s \$1.NETPD;
#X msg 10 172 0 \$1;
#X obj 10 137 t a a;
#X msg 187 211 \$1;
#X obj 10 198 t a b;
#X obj 37 220 symbol \$1-\$2-table;
#X obj 10 320 s \$0.tabdump;
#X obj 10 7 r \$0.inlet;
#X obj 10 29 route loadfile;
#X obj 10 96 soundfiler;
#X obj 10 50 list append \$1-\$2-table;
#X msg 10 72 read \$1 \$2;
#X msg 10 293 index \$1 \, \$1 \$2;
#X connect 0 0 10 0;
#X connect 1 0 16 0;
#X connect 2 0 3 0;
#X connect 3 0 4 0;
#X connect 5 0 8 0;
#X connect 6 0 5 0;
#X connect 6 1 7 0;
#X connect 7 0 2 0;
#X connect 8 0 1 0;
#X connect 8 1 9 0;
#X connect 9 0 0 0;
#X connect 11 0 12 0;
#X connect 12 0 14 0;
#X connect 13 0 6 0;
#X connect 14 0 15 0;
#X connect 15 0 13 0;
#X connect 16 0 10 0;
#X restore 9 122 pd fromfile;
#X obj 513 37 s~ \$0.inlet1;
#N canvas 520 60 450 300 liveinput 0;
#X obj 179 183 r~ \$0.inlet1;
#X obj 19 21 r \$0.inlet;
#X obj 178 118 route 1 0;
#X msg 19 165 1;
#X msg 72 169 0;
#X obj 67 49 netpd-status-get dsp 1;
#X obj 19 51 spigot;
#X obj 19 85 route start stop startuntil;
#N canvas 204 75 752 521 reblock@1024 0;
#X obj 9 7 inlet;
#X obj 593 17 inlet~;
#X obj 276 147 bang~;
#X obj 593 68 table \$0.audio.in 1024;
#X obj 593 45 tabsend~ \$0.audio.in;
#X obj 315 430 s \$0.tabdump;
#X obj 276 242 f;
#X obj 276 264 t a a;
#X obj 334 250 + 1;
#X obj 9 29 t a a;
#X obj 315 309 * 1024;
#N canvas 136 152 209 177 ms2samples 0;
#X obj 17 36 t a b;
#X obj 44 58 samplerate~;
#X obj 17 79 *;
#X obj 17 101 / 1000;
#X obj 17 9 inlet;
#X obj 17 124 outlet;
#X connect 0 0 2 0;
#X connect 0 1 1 0;
#X connect 1 0 2 1;
#X connect 2 0 3 0;
#X connect 3 0 5 0;
#X connect 4 0 0 0;
#X restore 482 152 pd ms2samples;
#X obj 482 174 int;
#X obj 482 335 +;
#X obj 482 380 list prepend \$2;
#X msg 482 404 send /\$1/length \$2;
#X obj 482 427 s \$1.NETPD;
#X msg 482 358 \$1;
#X obj 9 71 s \$0.startstop;
#N canvas 136 180 209 177 ms2samples 0;
#X obj 17 36 t a b;
#X obj 44 58 samplerate~;
#X obj 17 79 *;
#X obj 17 101 / 1000;
#X obj 17 9 inlet;
#X obj 17 124 outlet;
#X connect 0 0 2 0;
#X connect 0 1 1 0;
#X connect 1 0 2 1;
#X connect 2 0 3 0;
#X connect 3 0 5 0;
#X connect 4 0 0 0;
#X restore 12 136 pd ms2samples;
#X msg 41 234 1024 \$1;
#X obj 41 256 -;
#X obj 12 159 int;
#X obj 12 214 t a a;
#X obj 12 451 s \$0.tabdump;
#X obj 12 404 list append \$0.audio.in;
#X obj 12 308 pack f f;
#X obj 319 126 r \$0.startstop;
#X obj 346 172 sel 1;
#X msg 346 194 -1;
#X obj 276 286 moses 0;
#X obj 315 350 +;
#X msg 315 405 index \$1 \, 0 1024;
#X msg 12 426 set \$3 \, index 0 \, \$1 \$2;
#X obj 315 376 t a a;
#N canvas 0 44 345 266 get_bang_after_start 0;
#X obj 80 29 r \$0.startstop;
#X obj 80 51 sel 1;
#X obj 26 33 bang~;
#X obj 53 98 timer;
#X obj 26 58 t b b;
#X obj 80 73 t b b;
#X obj 26 141 f;
#X msg 107 98 1;
#X obj 26 163 sel 1;
#X obj 26 185 t b b;
#X msg 94 171 0;
#X obj 26 211 f;
#X obj 26 236 outlet;
#X connect 0 0 1 0;
#X connect 1 0 5 0;
#X connect 2 0 4 0;
#X connect 3 0 11 1;
#X connect 4 0 6 0;
#X connect 4 1 3 0;
#X connect 5 0 3 1;
#X connect 5 1 7 0;
#X connect 6 0 8 0;
#X connect 7 0 6 1;
#X connect 8 0 9 0;
#X connect 9 0 11 0;
#X connect 9 1 10 0;
#X connect 10 0 6 1;
#X connect 11 0 12 0;
#X restore 12 116 pd get_bang_after_start;
#X obj 99 15 block~ 1024 1 1;
#N canvas 252 164 268 171 or_this 0;
#N canvas 0 44 345 266 get_bang_after_start 0;
#X obj 34 9 r \$0.startstop;
#X obj 107 44 bang~;
#X obj 34 182 timer;
#X obj 34 222 outlet;
#X obj 34 31 sel 1;
#X obj 34 53 t b b;
#X obj 107 106 f;
#X obj 107 128 sel 1;
#X obj 107 150 t b b;
#X msg 168 139 0;
#X msg 122 83 1;
#X connect 0 0 4 0;
#X connect 1 0 6 0;
#X connect 2 0 3 0;
#X connect 4 0 5 0;
#X connect 5 0 2 0;
#X connect 5 1 10 0;
#X connect 6 0 7 0;
#X connect 7 0 8 0;
#X connect 8 0 2 1;
#X connect 8 1 9 0;
#X connect 9 0 6 1;
#X connect 10 0 6 1;
#X restore 34 21 pd get_bang_after_start;
#N canvas 136 180 209 177 ms2samples 0;
#X obj 17 36 t a b;
#X obj 44 58 samplerate~;
#X obj 17 79 *;
#X obj 17 101 / 1000;
#X obj 17 9 inlet;
#X obj 17 124 outlet;
#X connect 0 0 2 0;
#X connect 0 1 1 0;
#X connect 1 0 2 1;
#X connect 2 0 3 0;
#X connect 3 0 5 0;
#X connect 4 0 0 0;
#X restore 34 46 pd ms2samples;
#X msg 34 68 1024 \$1;
#X obj 34 90 -;
#X obj 34 112 int;
#X connect 0 0 1 0;
#X connect 1 0 2 0;
#X connect 2 0 3 0;
#X connect 3 0 4 0;
#X restore 157 117 pd or_this;
#X text 50 179 why???;
#X obj 12 182 + 64;
#X obj 41 278 max 0;
#X obj 12 330 t a a;
#X msg 153 317 \$2;
#X obj 276 179 spigot;
#X obj 319 149 t a a;
#X obj 410 348 + 1024;
#X obj 482 197 + 64;
#N canvas 0 44 476 445 get_bang_after_stop 0;
#X obj 110 18 r \$0.startstop;
#X obj 56 93 bang~;
#X obj 83 158 timer;
#X obj 56 118 t b b;
#X obj 56 201 f;
#X msg 129 177 1;
#X obj 56 223 sel 1;
#X obj 56 245 t b b;
#X msg 124 231 0;
#X obj 56 278 f;
#X obj 56 327 outlet;
#X obj 110 40 sel 0;
#X obj 192 78 inlet;
#X obj 192 108 delay;
#X obj 110 62 t b b b;
#X msg 149 85 stop;
#X obj 192 130 t b b;
#X msg 219 251 1;
#X msg 176 249 0;
#X obj 176 317 outlet;
#X obj 131 282 outlet;
#X connect 0 0 11 0;
#X connect 1 0 3 0;
#X connect 2 0 9 1;
#X connect 3 0 4 0;
#X connect 3 1 2 0;
#X connect 4 0 6 0;
#X connect 5 0 4 1;
#X connect 6 0 7 0;
#X connect 7 0 9 0;
#X connect 7 1 8 0;
#X connect 8 0 4 1;
#X connect 9 0 10 0;
#X connect 11 0 14 0;
#X connect 12 0 13 0;
#X connect 13 0 16 0;
#X connect 14 0 2 1;
#X connect 14 1 5 0;
#X connect 14 1 18 0;
#X connect 14 2 15 0;
#X connect 15 0 13 0;
#X connect 16 0 2 1;
#X connect 16 1 17 0;
#X connect 16 1 5 0;
#X connect 16 1 20 0;
#X connect 17 0 19 0;
#X connect 18 0 19 0;
#X restore 482 131 pd get_bang_after_stop;
#X obj 482 291 t a a;
#X obj 615 338 pack f f;
#X obj 615 406 s \$0.tabdump;
#X msg 615 381 index \$2 \, 0 \$1;
#X text 523 197 <-- why???;
#X obj 482 47 inlet;
#X obj 482 69 t a a;
#N canvas 0 44 360 173 send_length 0;
#N canvas 136 152 209 177 ms2samples 0;
#X obj 17 36 t a b;
#X obj 44 58 samplerate~;
#X obj 17 79 *;
#X obj 17 101 / 1000;
#X obj 17 9 inlet;
#X obj 17 124 outlet;
#X connect 0 0 2 0;
#X connect 0 1 1 0;
#X connect 1 0 2 1;
#X connect 2 0 3 0;
#X connect 3 0 5 0;
#X connect 4 0 0 0;
#X restore 22 42 pd ms2samples;
#X obj 22 72 list prepend \$2;
#X msg 22 96 send /\$1/length \$2;
#X obj 22 119 s \$1.NETPD;
#X obj 22 17 inlet;
#X connect 0 0 1 0;
#X connect 1 0 2 0;
#X connect 2 0 3 0;
#X connect 4 0 0 0;
#X restore 509 96 pd send_length;
#X obj 482 227 list prepend;
#X obj 482 249 route 0 1;
#X msg 328 84 0;
#X connect 0 0 9 0;
#X connect 1 0 4 0;
#X connect 2 0 43 0;
#X connect 6 0 7 0;
#X connect 7 0 30 0;
#X connect 7 1 8 0;
#X connect 8 0 6 1;
#X connect 9 0 18 0;
#X connect 10 0 31 0;
#X connect 11 0 12 0;
#X connect 12 0 46 0;
#X connect 13 0 17 0;
#X connect 14 0 15 0;
#X connect 15 0 16 0;
#X connect 17 0 14 0;
#X connect 19 0 22 0;
#X connect 20 0 21 0;
#X connect 21 0 40 0;
#X connect 22 0 39 0;
#X connect 23 0 26 0;
#X connect 23 1 20 0;
#X connect 25 0 33 0;
#X connect 26 0 41 0;
#X connect 27 0 44 0;
#X connect 28 0 29 0;
#X connect 29 0 6 1;
#X connect 30 1 10 0;
#X connect 31 0 34 0;
#X connect 32 0 5 0;
#X connect 33 0 24 0;
#X connect 34 0 32 0;
#X connect 34 1 45 0;
#X connect 35 0 19 0;
#X connect 39 0 23 0;
#X connect 40 0 26 1;
#X connect 41 0 25 0;
#X connect 41 1 42 0;
#X connect 42 0 31 1;
#X connect 43 0 6 0;
#X connect 44 0 43 1;
#X connect 44 1 28 0;
#X connect 45 0 13 1;
#X connect 45 0 49 1;
#X connect 46 0 56 0;
#X connect 47 0 11 0;
#X connect 47 1 58 0;
#X connect 47 2 56 1;
#X connect 48 0 13 0;
#X connect 48 1 49 0;
#X connect 49 0 51 0;
#X connect 51 0 50 0;
#X connect 53 0 54 0;
#X connect 54 0 47 0;
#X connect 54 1 55 0;
#X connect 56 0 57 0;
#X connect 57 0 48 0;
#X connect 57 1 49 0;
#X connect 58 0 44 0;
#X restore 19 214 pd reblock@1024 . . . . . .;
#X obj 125 113 t b a;
#X text 213 146 no more than 1min;
#X connect 0 0 8 2;
#X connect 1 0 6 0;
#X connect 2 0 3 0;
#X connect 2 1 4 0;
#X connect 3 0 8 0;
#X connect 4 0 8 0;
#X connect 5 0 6 1;
#X connect 6 0 7 0;
#X connect 7 0 3 0;
#X connect 7 1 4 0;
#X connect 7 2 9 0;
#X connect 7 3 2 0;
#X connect 9 0 3 0;
#X connect 9 1 8 1;
#X restore 9 145 pd liveinput;
#X obj 140 127 route list index;
#X obj 396 126 t a a;
#X obj 396 170 list split 1;
#X obj 430 190 list length;
#X obj 430 212 * 0.5;
#X obj 396 234 pack f f;
#X msg 396 254 updated \$1 \$2;
#X obj 396 276 s \$0.outlet;
#X text 11 74 methods;
#X text 144 74 send data;
#X text 391 77 receive data;
#X connect 0 0 5 0;
#X connect 2 0 21 0;
#X connect 6 0 1 0;
#X connect 9 0 24 0;
#X connect 10 0 18 0;
#X connect 11 0 16 0;
#X connect 13 0 12 0;
#X connect 14 0 13 0;
#X connect 15 0 23 0;
#X connect 16 0 14 0;
#X connect 23 0 11 0;
#X connect 23 1 16 1;
#X connect 23 2 11 0;
#X connect 24 0 25 0;
#X connect 24 1 8 0;
#X connect 25 0 28 0;
#X connect 25 1 26 0;
#X connect 26 0 27 0;
#X connect 27 0 28 1;
#X connect 28 0 29 0;
#X connect 29 0 30 0;
