#N canvas 368 222 392 402 10;
#X declare -path zexy -lib zexy;
#X obj 121 51 inlet;
#X obj 17 49 inlet;
#X obj 17 354 outlet;
#X obj 174 353 outlet empty;
#X obj 17 173 fifop;
#X obj 121 73 list;
#X obj 17 289 list trim;
#X text 21 267 let's keep the behaviour of old [netpd-fifo];
#X obj 22 15 declare -path zexy -lib zexy;
#X connect 0 0 5 0;
#X connect 1 0 4 0;
#X connect 4 0 6 0;
#X connect 4 1 3 0;
#X connect 5 0 4 0;
#X connect 6 0 2 0;
