#N canvas 473 150 437 300 10;
#X obj 10 180 table \$0.msb 65536;
#X obj 10 198 table \$0.lsb 65536;
#X obj 173 18 inlet~;
#X obj 173 76 *~ 32768;
#X obj 174 202 outlet~;
#X obj 270 204 outlet~;
#X obj 173 134 tabread~ \$0.msb;
#X obj 271 135 tabread~ \$0.lsb;
#X obj 173 48 +~ 1;
#X obj 18 23 loadbang;
#N canvas 16 186 311 243 generate_msb_lsb 0;
#X obj 11 12 inlet;
#X obj 11 64 until;
#X obj 11 84 f;
#X obj 110 96 + 1;
#X obj 11 162 mod 256;
#X obj 11 189 tabwrite \$0.lsb;
#X msg 11 39 65536;
#X obj 148 202 tabwrite \$0.msb;
#X obj 11 111 t a a a a a;
#X obj 148 122 div 256;
#X obj 148 147 + 128;
#X obj 148 169 mod 256;
#X connect 0 0 6 0;
#X connect 1 0 2 0;
#X connect 2 0 8 0;
#X connect 3 0 2 1;
#X connect 4 0 5 0;
#X connect 6 0 1 0;
#X connect 8 0 4 0;
#X connect 8 1 5 1;
#X connect 8 2 9 0;
#X connect 8 3 7 1;
#X connect 8 4 3 0;
#X connect 9 0 10 0;
#X connect 10 0 11 0;
#X connect 11 0 7 0;
#X restore 18 66 pd generate_msb_lsb;
#X connect 2 0 8 0;
#X connect 3 0 6 0;
#X connect 3 0 7 0;
#X connect 6 0 4 0;
#X connect 7 0 5 0;
#X connect 8 0 3 0;
#X connect 9 0 10 0;
