#N canvas 183 74 342 513 10;
#X obj 16 10 inlet;
#X obj 16 476 outlet;
#X obj 16 312 sel 0;
#X msg 16 388 1;
#X obj 16 413 s \$0.got.lock;
#X obj 16 125 sel 1 0;
#X obj 73 129 r \$0.got.lock;
#X obj 35 157 f;
#X obj 35 179 sel 1;
#X msg 35 201 0;
#X obj 61 265 r \$0.got.lock;
#X obj 16 453 r \$0.got.lock;
#X obj 16 82 t a a;
#X obj 62 245 s \$0.got.lock;
#X obj 66 82 s \$0.request.lock;
#X obj 52 339 r \$0.request.lock;
#X obj 16 339 f;
#X obj 16 362 sel 1;
#X obj 16 32 route acquire release;
#X msg 16 54 1;
#X msg 77 56 0;
#N canvas 166 198 563 339 value 0;
#X obj 12 15 inlet;
#X obj 11 226 outlet;
#X obj 11 149 f;
#X obj 153 12 inlet;
#X msg 153 34 set \$1;
#X obj 153 56 s \$1;
#X obj 153 78 r \$1;
#X obj 153 100 route set;
#X obj 12 40 s \$1;
#X obj 11 67 r \$1;
#X obj 11 89 route float bang;
#X obj 319 32 loadbang;
#X msg 346 76 update;
#X obj 346 99 s \$1;
#X obj 286 130 r \$1;
#X obj 286 189 route update float set;
#X obj 286 236 f;
#X obj 286 211 b;
#X obj 286 163 spigot;
#X msg 319 122 1;
#X obj 319 54 t b b;
#X obj 286 286 s \$1;
#X msg 286 260 set \$1;
#X text 251 14 make sure we are up-to-date at loadbang time;
#X connect 0 0 8 0;
#X connect 2 0 1 0;
#X connect 3 0 4 0;
#X connect 4 0 5 0;
#X connect 6 0 7 0;
#X connect 7 0 2 1;
#X connect 9 0 10 0;
#X connect 10 0 2 0;
#X connect 10 1 2 0;
#X connect 11 0 20 0;
#X connect 12 0 13 0;
#X connect 14 0 18 0;
#X connect 15 0 17 0;
#X connect 15 1 16 1;
#X connect 15 2 16 1;
#X connect 16 0 22 0;
#X connect 17 0 16 0;
#X connect 18 0 15 0;
#X connect 19 0 18 1;
#X connect 20 0 19 0;
#X connect 20 1 12 0;
#X connect 22 0 21 0;
#X restore 16 288 pd value;
#X obj 35 223 t b a;
#X connect 0 0 18 0;
#X connect 2 0 16 0;
#X connect 3 0 4 0;
#X connect 5 0 21 0;
#X connect 5 1 7 0;
#X connect 6 0 7 1;
#X connect 7 0 8 0;
#X connect 8 0 9 0;
#X connect 9 0 22 0;
#X connect 10 0 21 1;
#X connect 11 0 1 0;
#X connect 12 0 5 0;
#X connect 12 1 14 0;
#X connect 15 0 16 1;
#X connect 16 0 17 0;
#X connect 17 0 3 0;
#X connect 18 0 19 0;
#X connect 18 1 20 0;
#X connect 18 2 12 0;
#X connect 19 0 12 0;
#X connect 20 0 12 0;
#X connect 21 0 2 0;
#X connect 22 0 21 0;
#X connect 22 1 13 0;
