#N canvas 174 129 431 381 10;
#X obj 71 328 outlet;
#X obj 20 13 inlet;
#X obj 20 38 route set;
#X obj 20 140 list;
#X obj 71 61 t b a;
#N canvas 443 388 344 105 msgbox 0;
#X obj 10 7 inlet;
#X obj 10 59 outlet;
#X msg 10 33;
#X connect 0 0 2 0;
#X connect 2 0 1 0;
#X restore 71 304 pd msgbox;
#X msg 71 276 bang \, set;
#X obj 264 14 table \$0.in.segment 1024;
#X obj 264 33 table \$0.out.segment 2048;
#N canvas 608 306 368 376 DSP.variant 1;
#X obj 65 88 unpack f f;
#X obj 65 108 array get \$1;
#X obj 65 128 list prepend 0;
#N canvas 532 139 378 248 DSP.processing 0;
#X obj 6 13 inlet;
#N canvas 313 304 500 262 reblock_upsampled_by_2 0;
#X obj 15 20 inlet;
#X obj 236 91 rzero_rev~ 0;
#X text 321 88 <- one sample delay;
#X obj 158 161 +~;
#X obj 157 25 inlet~ pad;
#X obj 236 27 inlet~ pad;
#X obj 157 193 tabsend~ \$0.out.segment;
#X obj 15 98 switch~ 2048 1 2;
#X connect 0 0 7 0;
#X connect 1 0 3 1;
#X connect 3 0 6 0;
#X connect 4 0 3 0;
#X connect 5 0 1 0;
#X restore 6 194 pd reblock_upsampled_by_2;
#X obj 79 120 tabreceive~ \$0.in.segment;
#X obj 6 55 t b b;
#X obj 33 83 switch~ 1024 1 1;
#X obj 79 142 netpd-sig-to-16bit~;
#X connect 0 0 3 0;
#X connect 2 0 5 0;
#X connect 3 0 1 0;
#X connect 3 1 4 0;
#X connect 5 0 1 1;
#X connect 5 1 1 2;
#X restore 45 176 pd DSP.processing;
#X msg 26 201 \$2;
#X obj 26 223 * 2;
#X obj 65 148 s \$0.in.segment;
#X obj 26 68 t a b a;
#X obj 26 243 t b a;
#X obj 26 291 list prepend add2;
#X obj 26 266 array get \$0.out.segment;
#X obj 26 313 list trim;
#X obj 26 40 netpd-range-slice 1024;
#X obj 26 17 inlet;
#X obj 26 333 outlet;
#X obj 211 20 inlet;
#X connect 0 0 1 0;
#X connect 0 1 1 1;
#X connect 1 0 2 0;
#X connect 2 0 6 0;
#X connect 4 0 5 0;
#X connect 5 0 8 0;
#X connect 7 0 4 0;
#X connect 7 1 3 0;
#X connect 7 2 0 0;
#X connect 8 0 10 0;
#X connect 8 1 10 1;
#X connect 9 0 11 0;
#X connect 10 0 9 0;
#X connect 11 0 14 0;
#X connect 12 0 7 0;
#X connect 13 0 12 0;
#X connect 15 0 1 2;
#X restore 98 213 pd DSP.variant;
#N canvas 0 43 341 417 MSG.variant 0;
#X obj 29 115 until;
#X obj 29 139 f;
#X obj 29 163 t a a;
#X obj 78 156 + 1;
#X obj 29 338 pack f f;
#X msg 29 360 add2 \$1 \$2;
#X obj 29 41 t a a;
#X msg 29 68 \$2;
#X msg 56 68 \$1;
#X obj 29 189 tabread \$1;
#X obj 29 264 t a a;
#X obj 29 290 >> 8;
#X obj 64 291 & 255;
#X obj 29 312 mod 256;
#X obj 29 240 * 32768;
#X obj 29 213 clip -1 0.99997;
#X obj 29 14 inlet;
#X obj 29 386 outlet;
#X obj 195 35 inlet;
#X msg 195 152 set \$1;
#X connect 0 0 1 0;
#X connect 1 0 2 0;
#X connect 2 0 9 0;
#X connect 2 1 3 0;
#X connect 3 0 1 1;
#X connect 4 0 5 0;
#X connect 5 0 17 0;
#X connect 6 0 7 0;
#X connect 6 1 8 0;
#X connect 7 0 0 0;
#X connect 8 0 1 1;
#X connect 9 0 15 0;
#X connect 10 0 11 0;
#X connect 10 1 12 0;
#X connect 11 0 13 0;
#X connect 12 0 4 1;
#X connect 13 0 4 0;
#X connect 14 0 10 0;
#X connect 15 0 14 0;
#X connect 16 0 6 0;
#X connect 18 0 19 0;
#X connect 19 0 9 0;
#X restore 205 213 pd MSG.variant;
#X obj 98 140 spigot;
#X obj 238 71 netpd-status-get dsp 1;
#X obj 205 140 spigot;
#X obj 238 102 == 0;
#X obj 98 253 t a;
#X connect 1 0 2 0;
#X connect 2 0 3 0;
#X connect 2 1 4 0;
#X connect 3 0 9 1;
#X connect 3 0 10 1;
#X connect 4 0 6 0;
#X connect 4 1 11 0;
#X connect 4 1 13 0;
#X connect 5 0 0 0;
#X connect 6 0 5 0;
#X connect 9 0 15 0;
#X connect 10 0 15 0;
#X connect 11 0 9 0;
#X connect 12 0 11 1;
#X connect 12 0 14 0;
#X connect 13 0 10 0;
#X connect 14 0 13 1;
#X connect 15 0 5 0;
