#N canvas 312 43 433 472 10;
#X obj 13 13 inlet;
#X obj 98 256 list length;
#X obj 13 419 s \$1;
#X obj 13 35 route set;
#X obj 64 57 list split 1;
#X obj 149 100 array size \$0.in.buffer;
#X obj 159 190 array size \$0.in.buffer;
#X obj 98 78 t a a a b;
#X obj 132 171 moses;
#X obj 149 120 + 1;
#X obj 115 213 list prepend 0;
#X obj 115 233 s \$0.in.buffer;
#X obj 64 281 pack f f;
#X obj 259 34 table \$0.buffer 2048;
#X obj 259 57 table \$0.out.buffer 1024;
#X obj 259 13 table \$0.in.buffer 2048;
#X obj 132 145 list length;
#N canvas 616 398 455 515 DSP.variant 0;
#X obj 61 147 array get \$0.in.buffer;
#X obj 61 127 unpack f f;
#X obj 61 168 list prepend 0;
#X obj 61 188 s \$0.buffer;
#N canvas 717 621 431 323 DSP.processing 0;
#X obj 17 17 inlet;
#X obj 16 253 netpd-16bit-to-sig~;
#X obj 56 60 switch~ 1024 1 1;
#X obj 17 104 samplerate~;
#X obj 17 124 / 1024;
#X obj 17 147 phasor~;
#X obj 17 167 *~ 2048;
#X obj 128 198 +~ 1;
#X obj 16 282 tabsend~ \$0.out.buffer;
#X obj 17 37 t b b b;
#X msg 73 129 0;
#X obj 127 228 tabread~ \$0.buffer;
#X obj 17 228 tabread~ \$0.buffer;
#X connect 0 0 9 0;
#X connect 1 0 8 0;
#X connect 3 0 4 0;
#X connect 4 0 5 0;
#X connect 5 0 6 0;
#X connect 6 0 7 0;
#X connect 6 0 12 0;
#X connect 7 0 11 0;
#X connect 9 0 3 0;
#X connect 9 1 10 0;
#X connect 9 2 2 0;
#X connect 10 0 5 1;
#X connect 11 0 1 1;
#X connect 12 0 1 0;
#X restore 41 212 pd DSP.processing;
#X obj 22 41 t a a;
#X msg 22 67 0 \$2;
#X msg 215 136 \$1;
#X obj 22 107 t a b a;
#X obj 91 302 +;
#X obj 22 235 t a a;
#X obj 22 327 array get \$0.out.buffer;
#X msg 91 255 \$1;
#X msg 22 256 \$2;
#X obj 22 305 t b a;
#X obj 22 354 list prepend;
#X obj 22 278 * 0.5;
#X obj 91 275 * 0.5;
#X obj 22 16 inlet;
#X obj 22 382 outlet;
#X obj 22 87 netpd-range-slice 2048;
#X connect 0 0 2 0;
#X connect 1 0 0 0;
#X connect 1 1 0 1;
#X connect 2 0 3 0;
#X connect 5 0 6 0;
#X connect 5 1 7 0;
#X connect 6 0 20 0;
#X connect 7 0 9 1;
#X connect 8 0 10 0;
#X connect 8 1 4 0;
#X connect 8 2 1 0;
#X connect 9 0 15 1;
#X connect 10 0 13 0;
#X connect 10 1 12 0;
#X connect 11 0 15 0;
#X connect 12 0 17 0;
#X connect 13 0 16 0;
#X connect 14 0 11 0;
#X connect 14 1 11 1;
#X connect 15 0 19 0;
#X connect 16 0 14 0;
#X connect 17 0 9 0;
#X connect 18 0 5 0;
#X connect 20 0 8 0;
#X restore 64 379 pd DSP.variant;
#N canvas 0 43 302 540 MSG.variant 0;
#X obj 15 11 inlet;
#X obj 15 494 outlet;
#X obj 32 126 until;
#X obj 32 151 f;
#X obj 100 166 + 2;
#X obj 32 173 t a a a;
#X obj 51 195 + 1;
#N canvas 307 165 395 306 msg 0;
#X obj 23 17 inlet;
#X msg 23 39;
#X obj 23 249 outlet;
#X connect 0 0 1 0;
#X connect 1 0 2 0;
#X restore 15 472 pd msg;
#X msg 32 424 add2 \$1;
#X obj 15 97 t b a b b;
#X msg 15 446 bang \, set;
#X obj 15 75 >> 1;
#X obj 32 333 +;
#X obj 32 352 / 32768;
#X obj 32 312 << 8;
#X msg 72 126 0;
#X obj 15 32 t a a;
#X msg 15 52 \$2;
#X msg 213 207 \$1;
#X obj 51 218 tabread \$0.in.buffer;
#X obj 32 239 tabread \$0.in.buffer;
#X obj 32 372 - 1;
#X obj 32 263 - 128;
#X obj 32 285 mod 256;
#X connect 0 0 16 0;
#X connect 2 0 3 0;
#X connect 3 0 5 0;
#X connect 4 0 3 1;
#X connect 5 0 20 0;
#X connect 5 1 6 0;
#X connect 5 2 4 0;
#X connect 6 0 19 0;
#X connect 7 0 1 0;
#X connect 8 0 7 0;
#X connect 9 0 10 0;
#X connect 9 1 2 0;
#X connect 9 2 15 0;
#X connect 10 0 7 0;
#X connect 11 0 9 0;
#X connect 12 0 13 0;
#X connect 13 0 21 0;
#X connect 14 0 12 0;
#X connect 15 0 3 1;
#X connect 16 0 17 0;
#X connect 16 1 18 0;
#X connect 17 0 11 0;
#X connect 18 0 8 0;
#X connect 19 0 12 1;
#X connect 20 0 22 0;
#X connect 21 0 8 0;
#X connect 22 0 23 0;
#X connect 23 0 14 0;
#X restore 171 379 pd MSG.variant;
#X obj 64 343 spigot;
#X obj 204 274 netpd-status-get dsp 1;
#X obj 171 343 spigot;
#X obj 204 305 == 0;
#X connect 0 0 3 0;
#X connect 1 0 12 1;
#X connect 3 0 2 0;
#X connect 3 1 4 0;
#X connect 4 0 12 0;
#X connect 4 1 7 0;
#X connect 5 0 9 0;
#X connect 7 0 1 0;
#X connect 7 1 10 0;
#X connect 7 2 16 0;
#X connect 7 3 5 0;
#X connect 8 1 6 0;
#X connect 9 0 8 1;
#X connect 10 0 11 0;
#X connect 12 0 19 0;
#X connect 12 0 21 0;
#X connect 16 0 8 0;
#X connect 17 0 2 0;
#X connect 18 0 2 0;
#X connect 19 0 17 0;
#X connect 20 0 19 1;
#X connect 20 0 22 0;
#X connect 21 0 18 0;
#X connect 22 0 21 1;
