#N canvas 433 130 588 557 10;
#X obj 19 13 inlet;
#X obj 19 36 list;
#X obj 50 208 list store;
#X obj 50 113 until;
#X obj 50 136 f;
#X obj 96 148 + 1;
#X msg 90 115 0;
#X obj 50 90 t b b a, f 13;
#X msg 50 183 get \$1 1;
#X obj 50 263 route symbol float, f 36;
#X obj 50 305 list fromsymbol;
#X msg 156 287 symbol _\$1;
#X obj 156 345 route 95;
#X obj 50 386 list prepend append;
#X obj 50 410 list trim;
#X obj 19 443 list store, f 32;
#X obj 19 59 t b a b, f 32;
#X obj 19 518 outlet;
#X obj 19 468 list tosymbol;
#X obj 50 159 t a a;
#X text 359 287 <- DELIMITER CHARACTER;
#X obj 344 35 loadbang;
#X obj 344 58 list append \$1;
#X obj 344 81 route float symbol;
#X obj 344 109 sel 0;
#X msg 344 132 32;
#X obj 281 284 list append;
#X obj 459 167 list fromsymbol;
#X obj 396 105 symbol;
#X obj 396 128 select NULL;
#X msg 396 173 bang;
#X msg 281 257 bang;
#X obj 50 231 t a b;
#X obj 281 203 f;
#X obj 281 226 sel 0;
#X obj 486 43 inlet;
#X obj 156 310 list fromsymbol;
#X connect 0 0 1 0;
#X connect 1 0 16 0;
#X connect 2 0 32 0;
#X connect 2 1 3 1;
#X connect 3 0 4 0;
#X connect 4 0 19 0;
#X connect 5 0 4 1;
#X connect 6 0 4 1;
#X connect 7 0 3 0;
#X connect 7 1 6 0;
#X connect 7 2 2 1;
#X connect 8 0 2 0;
#X connect 9 0 10 0;
#X connect 9 1 11 0;
#X connect 10 0 13 0;
#X connect 11 0 36 0;
#X connect 12 0 13 0;
#X connect 13 0 14 0;
#X connect 14 0 15 0;
#X connect 15 0 18 0;
#X connect 16 0 15 0;
#X connect 16 1 7 0;
#X connect 16 2 15 1;
#X connect 18 0 17 0;
#X connect 19 0 8 0;
#X connect 19 1 5 0;
#X connect 19 1 33 1;
#X connect 21 0 22 0;
#X connect 22 0 23 0;
#X connect 23 0 24 0;
#X connect 23 1 28 0;
#X connect 24 0 25 0;
#X connect 24 1 26 1;
#X connect 25 0 26 1;
#X connect 26 0 13 0;
#X connect 27 0 26 1;
#X connect 28 0 29 0;
#X connect 29 0 30 0;
#X connect 29 1 27 0;
#X connect 30 0 26 1;
#X connect 31 0 26 0;
#X connect 32 0 9 0;
#X connect 32 1 33 0;
#X connect 33 0 34 0;
#X connect 34 1 31 0;
#X connect 35 0 23 0;
#X connect 36 0 12 0;
