#N struct 1182.rectangle float id float x float y symbol label float
bgclr;
#N canvas 210 112 886 342 10;
#N canvas 247 349 709 287 \$0.gop 0;
#X scalar 1182.rectangle 1 0 16 eins 777 \;;
#X scalar 1182.rectangle 2 0 32 zwei 777 \;;
#X scalar 1182.rectangle 3 0 48 drei 777 \;;
#X scalar 1182.rectangle 4 0 64 vier 777 \;;
#X scalar 1182.rectangle 5 0 80 fünf 777 \;;
#X scalar 1182.rectangle 0 0 0 drei 888 \;;
#X coords 0 0 100 97 100 97 2 50 50;
#X restore 27 23 pd \$0.gop;
#X obj 331 125 list length;
#X obj 331 147 s \$0.length;
#X obj 348 102 s \$0.items;
#X obj 297 32 loadbang;
#X obj 147 250 s \$0.expand;
#X obj 147 207 tgl 30 0 empty empty empty 17 7 0 10 -262144 -1 -1 0
1;
#X msg 297 194 0;
#X obj 297 217 s \$0.expand;
#N canvas 0 185 360 524 create.items 0;
#X obj 13 479 s pd-\$0.gop;
#X obj 13 239 list prepend \$0;
#X obj 13 124 until;
#X obj 13 147 f;
#X obj 13 192 t a a, f 6;
#X obj 73 193 + 1;
#X obj 136 154 s pd-\$0.gop;
#X msg 136 130 clear;
#X obj 169 353 list store;
#X msg 169 329 get \$1 1;
#X obj 13 401 list append;
#X msg 13 454 scalar \$1.rectangle \$2 \$3 \$4 \$5 \$6;
#X obj 13 424 list append, f 23;
#X msg 79 357 888;
#X msg 131 352 777;
#X obj 13 66 + 1;
#X obj 169 308 - 1;
#X obj 226 328 r \$0.items;
#X obj 33 322 b;
#X obj 33 345 symbol;
#X obj 54 39 r \$0.length;
#X obj 66 322 r \$0.sel.value;
#X msg 13 215 \$1 0 0;
#X obj 13 170 mod, f 14;
#X obj 13 94 t a b a b, f 21;
#X obj 80 269 moses 1, f 9;
#X text 133 472 id x y label bgclr;
#X text 40 66 items + selected;
#X msg 54 123 1;
#X obj 13 37 f;
#X obj 13 11 r \$0.redraw;
#X connect 1 0 10 0;
#X connect 2 0 3 0;
#X connect 3 0 23 0;
#X connect 4 0 22 0;
#X connect 4 1 5 0;
#X connect 4 1 25 0;
#X connect 5 0 3 1;
#X connect 7 0 6 0;
#X connect 8 0 10 1;
#X connect 9 0 8 0;
#X connect 10 0 12 0;
#X connect 11 0 0 0;
#X connect 12 0 11 0;
#X connect 13 0 12 1;
#X connect 14 0 12 1;
#X connect 15 0 24 0;
#X connect 16 0 9 0;
#X connect 17 0 8 1;
#X connect 18 0 19 0;
#X connect 19 0 10 1;
#X connect 20 0 29 1;
#X connect 21 0 19 1;
#X connect 22 0 1 0;
#X connect 23 0 4 0;
#X connect 24 0 2 0;
#X connect 24 1 28 0;
#X connect 24 2 23 1;
#X connect 24 3 7 0;
#X connect 25 0 18 0;
#X connect 25 0 13 0;
#X connect 25 1 14 0;
#X connect 25 1 16 0;
#X connect 28 0 3 1;
#X connect 29 0 15 0;
#X connect 30 0 29 0;
#X restore 150 60 pd create.items;
#N canvas 338 166 671 413 expand 0;
#X msg 58 171 traverse pd-\$1.gop;
#X obj 58 145 \$0;
#X msg 12 169 next;
#X obj 12 198 pointer \$0.rectangle;
#X obj 12 248 get \$0.rectangle id;
#X obj 12 325 set \$0.rectangle y;
#X obj 12 146 until;
#X obj 12 301 * 0, f 16;
#X obj 12 120 t b b a, f 16;
#X obj 12 67 sel 0 1, f 10;
#X msg 12 90 0;
#X obj 40 90 f 16;
#X obj 12 44 r \$0.expand;
#X obj 12 223 t p p p, f 47;
#X obj 12 271 t a a, f 26;
#X obj 213 320 r \$0.sel.value;
#X obj 165 319 symbol;
#X obj 165 295 sel 0;
#X obj 165 343 set -symbol \$0.rectangle label;
#X obj 422 231 s pd-\$0.gop;
#X obj 422 162 * 16;
#X obj 422 185 + 1;
#X msg 422 207 coords 0 0 100 \$1 100 \$1 2 50 50;
#X obj 422 137 + 1;
#X obj 422 64 r \$0.expand;
#X obj 437 89 r \$0.length;
#X obj 422 114 * 0;
#X text 15 16 Move scalars around;
#X text 419 34 resize GOP area;
#X connect 0 0 3 0;
#X connect 1 0 0 0;
#X connect 2 0 3 0;
#X connect 3 0 13 0;
#X connect 3 2 6 1;
#X connect 4 0 14 0;
#X connect 6 0 2 0;
#X connect 7 0 5 0;
#X connect 8 0 6 0;
#X connect 8 1 1 0;
#X connect 8 2 7 1;
#X connect 9 0 10 0;
#X connect 9 1 11 0;
#X connect 10 0 8 0;
#X connect 11 0 8 0;
#X connect 12 0 9 0;
#X connect 13 0 4 0;
#X connect 13 1 5 1;
#X connect 13 2 18 1;
#X connect 14 0 7 0;
#X connect 14 1 17 0;
#X connect 15 0 16 1;
#X connect 16 0 18 0;
#X connect 17 0 16 0;
#X connect 20 0 21 0;
#X connect 21 0 22 0;
#X connect 22 0 19 0;
#X connect 23 0 20 0;
#X connect 24 0 26 0;
#X connect 25 0 26 1;
#X connect 26 0 23 0;
#X restore 150 140 pd expand;
#N canvas 0 106 421 315 register.clicks 0;
#X obj 15 45 route click;
#X obj 15 68 unpack p f f;
#X obj 15 90 get \$0.rectangle id label;
#X obj 162 154 s \$0.sel.value;
#X obj 69 160 r \$0.expand;
#X obj 69 183 == 0;
#X obj 15 170 f;
#X obj 15 210 t b a, f 8;
#X obj 15 257 f, f 8;
#X obj 15 281 s \$0.expand;
#X obj 15 233 del 0;
#X obj 15 113 b;
#X obj 15 136 del 0;
#X obj 207 103 r \$0.expand;
#X obj 162 129 spigot 1;
#X obj 15 18 inlet;
#X connect 0 0 1 0;
#X connect 1 0 2 0;
#X connect 2 0 11 0;
#X connect 2 1 14 0;
#X connect 4 0 5 0;
#X connect 5 0 6 1;
#X connect 6 0 7 0;
#X connect 7 0 10 0;
#X connect 7 1 8 1;
#X connect 8 0 9 0;
#X connect 10 0 8 0;
#X connect 11 0 12 0;
#X connect 12 0 6 0;
#X connect 13 0 14 1;
#X connect 14 0 3 0;
#X connect 15 0 0 0;
#X restore 150 115 pd register.clicks;
#N canvas 1239 356 433 148 the.struct 0;
#X obj 11 112 outlet;
#X obj 11 76 struct \$0.rectangle float id float x float y symbol label
float bgclr;
#X obj 12 12 filledpolygon bgclr 666 1 0 0 100 0 100 17 0 17;
#X obj 13 44 drawsymbol label 3 3 0;
#X connect 1 0 0 0;
#X restore 150 88 pd the.struct;
#X obj 314 172 s \$0.redraw;
#X obj 297 79 t b b a a;
#X msg 297 56 list eins zwei drei vier fünf;
#N canvas 0 106 450 300 parse.args 1;
#X restore 150 32 pd parse.args;
#X text 521 34 arg2: width;
#X text 521 62 arg4: selected text color;
#X text 521 76 arg5: selected box color;
#X text 521 90 arg6: selected background color;
#X text 521 104 arg7: items text color;
#X text 521 117 arg8: items box color;
#X text 521 131 arg9: items background color;
#X text 521 20 arg1: sendname;
#X text 521 48 arg3: height;
#X connect 1 0 2 0;
#X connect 4 0 15 0;
#X connect 6 0 5 0;
#X connect 7 0 8 0;
#X connect 12 0 11 0;
#X connect 14 0 7 0;
#X connect 14 1 13 0;
#X connect 14 2 1 0;
#X connect 14 3 3 0;
#X connect 15 0 14 0;
