#N canvas 431 44 504 411 10;
#X obj 0 0 cnv 15 500 30 empty empty empty 20 12 0 14 -233017 -66577
0;
#X obj 24 166 netpd-funnel;
#X msg 24 105 one two three four five;
#X msg 90 132 1 2 3 4 5 6 7 8;
#X obj 24 188 t a b;
#X obj 209 56 tgl 15 0 empty empty empty 17 7 0 10 -262144 -1 -1 0
1;
#X obj 209 78 metro 500;
#X msg 24 56 10;
#X obj 24 78 until;
#X text 7 7 netpd-funnel - pass messages only as fast as to not block
Pd;
#N canvas 323 174 332 174 do_something_that_takes_much_cpu_time 0;
#X obj 13 66 until;
#X msg 13 88 234.034;
#X obj 13 110 pow 23.494;
#X msg 13 45 100000;
#X obj 13 21 inlet;
#X connect 0 0 1 0;
#X connect 1 0 2 0;
#X connect 3 0 0 0;
#X connect 4 0 3 0;
#X restore 51 213 pd do_something_that_takes_much_cpu_time;
#X obj 24 239 print netpd-funnel;
#X obj 209 100 print NOT_BLOCKED;
#X obj 102 369 netpd-nb-until;
#X text 13 279 [netpd-funnel] is a FIFO buffer for Pd messages that
outputs incoming messages as fast as possible without blocking Pd.
It uses [netpd-nb-until] internally to determine the rate for emptying
the buffer.;
#X text 269 138 inlet0: incoming messages;
#X text 263 153 outlet0: outgoing messages;
#X text 35 368 see also:;
#X obj 200 369 netpd-fifo;
#X connect 1 0 4 0;
#X connect 2 0 1 0;
#X connect 3 0 1 0;
#X connect 4 0 11 0;
#X connect 4 1 10 0;
#X connect 5 0 6 0;
#X connect 6 0 12 0;
#X connect 7 0 8 0;
#X connect 8 0 2 0;
