#N canvas 186 322 501 610 10;
#X declare -path else;
#X text 211 89 1: yes;
#X text 211 102 0: no;
#X text 156 67 check \, if given file exists:;
#X obj 28 57 inlet;
#X obj 28 79 symbol;
#X obj 28 513 outlet;
#X obj 26 18 declare -path else;
#X obj 28 213 pack s s;
#X msg 28 236 list \$2 \$1;
#X obj 28 259 unpack s s;
#X obj 28 316 t b b a b;
#X msg 45 349 dump;
#X obj 45 411 select symbol;
#X msg 45 434 1;
#X msg 86 440 0;
#X obj 28 468 f;
#X obj 28 101 netpd-split-path;
#X obj 45 378 dir;
#X msg 85 283 reset \, open \$1;
#N canvas 769 264 380 399 work-around-dir-on-buster-bug 0;
#X obj 27 26 inlet;
#X obj 27 350 outlet;
#X obj 27 217 t b a, f 8;
#X msg 27 240 dir;
#X obj 27 263 pdcontrol;
#X obj 27 286 pack s s;
#X msg 27 309 symbol \$1/\$2;
#X obj 96 73 list fromsymbol;
#X obj 96 96 route 46;
#X msg 96 139 1;
#X msg 141 120 0;
#X obj 27 49 t a a;
#X obj 27 168 list prepend;
#X text 177 120 absolute path;
#X text 127 143 relative path;
#X obj 27 191 route 1 0, f 30;
#X obj 115 316 t a;
#X obj 72 241 symbol;
#X obj 115 263 symbol;
#X connect 0 0 11 0;
#X connect 2 0 3 0;
#X connect 2 1 17 0;
#X connect 3 0 4 0;
#X connect 4 0 5 0;
#X connect 5 0 6 0;
#X connect 6 0 1 0;
#X connect 7 0 8 0;
#X connect 8 0 9 0;
#X connect 8 1 10 0;
#X connect 9 0 12 1;
#X connect 10 0 12 1;
#X connect 11 0 12 0;
#X connect 11 1 7 0;
#X connect 12 0 15 0;
#X connect 15 0 2 0;
#X connect 15 1 18 0;
#X connect 16 0 1 0;
#X connect 17 0 5 1;
#X connect 18 0 16 0;
#X restore 28 148 pd work-around-dir-on-buster-bug;
#X text 46 166 work-around buggy [dir] behaviour with relative paths
on Debian Buster.;
#X connect 3 0 4 0;
#X connect 4 0 16 0;
#X connect 7 0 8 0;
#X connect 8 0 9 0;
#X connect 9 0 10 0;
#X connect 9 1 18 0;
#X connect 10 0 15 0;
#X connect 10 1 11 0;
#X connect 10 2 12 1;
#X connect 10 3 14 0;
#X connect 11 0 17 0;
#X connect 12 0 13 0;
#X connect 13 0 15 1;
#X connect 14 0 15 1;
#X connect 15 0 5 0;
#X connect 16 0 19 0;
#X connect 16 1 7 1;
#X connect 17 0 12 0;
#X connect 18 0 17 0;
#X connect 19 0 7 0;
