#N canvas 668 298 253 416 10;
#X obj 53 10 r \$1-\$2;
#X obj 12 10 inlet;
#X obj 12 205 s \$1.NETPD;
#X obj 12 162 list prepend \$2;
#X msg 12 184 send /\$1 \$2;
#X obj 12 228 r \$1.receive;
#X obj 12 250 routeOSC /\$2;
#X obj 12 292 t a a;
#X obj 12 362 outlet;
#X obj 12 271 route float;
#X obj 39 315 spigot;
#X obj 72 293 r \$1.notown;
#X obj 12 32 t a a;
#X msg 113 348 set \$1;
#X obj 113 370 s \$1-\$2;
#N canvas 812 204 208 184 rate.limit 0;
#X obj 55 101 netpd-rate-limit \$4;
#X obj 16 38 list prepend \$4;
#X obj 16 60 route 0;
#X msg 55 81 \$2;
#X obj 16 14 inlet;
#X obj 16 133 outlet;
#X connect 0 0 5 0;
#X connect 1 0 2 0;
#X connect 2 0 5 0;
#X connect 2 1 3 0;
#X connect 3 0 0 0;
#X connect 4 0 1 0;
#X restore 12 79 pd rate.limit;
#X obj 53 32 route set float;
#X obj 12 137 f \$3;
#X obj 88 107 netpd-dump \$1;
#X connect 0 0 16 0;
#X connect 1 0 12 0;
#X connect 3 0 4 0;
#X connect 4 0 2 0;
#X connect 5 0 6 0;
#X connect 6 0 9 0;
#X connect 7 0 8 0;
#X connect 7 1 10 0;
#X connect 9 0 7 0;
#X connect 10 0 13 0;
#X connect 11 0 10 1;
#X connect 12 0 15 0;
#X connect 12 1 13 0;
#X connect 13 0 14 0;
#X connect 15 0 17 0;
#X connect 16 0 17 1;
#X connect 16 1 15 0;
#X connect 17 0 3 0;
#X connect 18 0 17 0;
