#N canvas 988 263 369 452 10;
#X obj 35 100 pdcontrol;
#X msg 35 76 args 1;
#X obj 35 152 list length;
#X obj 35 184 < \$1;
#X obj 35 215 select 0 1;
#X text 117 208 0: take value from arg;
#X text 117 221 1: take value from default;
#X obj 63 247 list append \$2;
#X obj 35 126 t a a, f 43;
#X obj 35 279 list append, f 43;
#X obj 218 325 f \$1;
#X obj 218 348 - 1;
#X obj 35 351 list split;
#X obj 63 388 list split 1;
#X obj 31 425 outlet;
#X obj 35 50 t b b, f 31;
#X obj 35 23 inlet;
#X connect 0 0 8 0;
#X connect 1 0 0 0;
#X connect 2 0 3 0;
#X connect 3 0 4 0;
#X connect 4 0 9 0;
#X connect 4 1 7 0;
#X connect 7 0 14 0;
#X connect 8 0 2 0;
#X connect 8 1 9 1;
#X connect 9 0 12 0;
#X connect 10 0 11 0;
#X connect 11 0 12 1;
#X connect 12 1 13 0;
#X connect 13 0 14 0;
#X connect 15 0 1 0;
#X connect 15 1 10 0;
#X connect 16 0 15 0;
