#N canvas 627 558 338 82 10;
#N canvas 231 192 243 323 save 0;
#X obj 11 75 t b b b;
#X obj 11 294 textfile;
#X msg 50 145 clear;
#X obj 117 240 list prepend add;
#X obj 117 261 list trim;
#X obj 11 99 list append \$1;
#X obj 117 159 s NETPD;
#X obj 117 179 r NETPD;
#X obj 117 200 route pref;
#X msg 11 123 write ../\$1 cr;
#X msg 117 138 pref saving;
#X obj 117 220 route saved;
#X obj 11 12 r NETPD;
#X obj 11 33 route pref;
#X obj 11 54 route save;
#X connect 0 0 5 0;
#X connect 0 1 10 0;
#X connect 0 2 2 0;
#X connect 2 0 1 0;
#X connect 3 0 4 0;
#X connect 4 0 1 0;
#X connect 5 0 9 0;
#X connect 7 0 8 0;
#X connect 8 0 11 0;
#X connect 9 0 1 0;
#X connect 10 0 6 0;
#X connect 11 0 3 0;
#X connect 12 0 13 0;
#X connect 13 0 14 0;
#X connect 14 0 0 0;
#X restore 10 9 pd save;
#N canvas 180 345 217 429 load 0;
#X obj 14 10 r NETPD;
#X obj 14 73 b;
#X obj 14 141 sel 1 0;
#X obj 14 225 list append \$1;
#X obj 14 318 textfile;
#X obj 14 249 t b a;
#X obj 14 293 until;
#X msg 41 271 read \$1 cr \, rewind;
#X obj 14 339 list prepend pref set;
#X obj 14 360 list trim;
#X obj 14 94 symbol \$1;
#X obj 14 382 s NETPD;
#X obj 14 31 route pref;
#X obj 14 52 route load;
#X obj 14 118 netpd-if-file;
#X connect 0 0 12 0;
#X connect 1 0 10 0;
#X connect 2 0 3 0;
#X connect 3 0 5 0;
#X connect 4 0 8 0;
#X connect 4 1 6 1;
#X connect 5 0 6 0;
#X connect 5 1 7 0;
#X connect 6 0 4 0;
#X connect 7 0 4 0;
#X connect 8 0 9 0;
#X connect 9 0 11 0;
#X connect 10 0 14 0;
#X connect 12 0 13 0;
#X connect 13 0 1 0;
#X connect 14 0 2 0;
#X restore 59 9 pd load;
#X obj 119 7 loadbang;
#X msg 119 27 pref load;
#X obj 119 48 s NETPD;
#X connect 2 0 3 0;
#X connect 3 0 4 0;
