#N canvas 174 131 472 452 10;
#X obj 71 371 outlet;
#X obj 20 13 inlet;
#X obj 20 38 route set;
#X obj 20 73 list;
#X obj 110 102 unpack f f;
#X obj 110 150 array get \$1;
#X obj 239 18 table \$0.in.buffer 100000;
#X obj 110 170 list prepend 0;
#X obj 110 190 s \$0.in.buffer;
#X obj 71 59 t a a a;
#N canvas 532 142 508 392 DSP.processing 0;
#X obj 6 13 inlet;
#X obj 72 157 switch~;
#X obj 227 21 tabreceive~ \$0.in.buffer;
#X obj 160 238 wrap~;
#X obj 144 259 -~;
#X obj 145 191 /~ 256;
#X obj 242 285 *~ 256;
#X obj 226 312 -~;
#X obj 242 116 wrap~;
#X obj 226 139 -~;
#X obj 226 46 *~ 32767.5;
#X obj 226 68 +~ 32768;
#X obj 242 97 +~ 1;
#X obj 161 218 +~ 1;
#X text 277 97 <- work-around [wrap~] bug;
#X text 203 217 <- work-around [wrap~] bug;
#N canvas 313 305 500 262 reblock_upsampled_by_2 0;
#X obj 15 20 inlet;
#X obj 15 98 switch~;
#X obj 236 99 rzero_rev~ 0;
#X text 321 96 <- one sample delay;
#X obj 157 193 tabsend~ \$0.out.buffer;
#X obj 158 161 +~;
#X obj 157 25 inlet~ pad;
#X obj 236 27 inlet~ pad;
#X connect 0 0 1 0;
#X connect 2 0 5 1;
#X connect 5 0 4 0;
#X connect 6 0 5 0;
#X connect 7 0 2 0;
#X restore 6 346 pd reblock_upsampled_by_2;
#X msg 6 34 \$2;
#X obj 45 158 * 2;
#X msg 72 134 set \$1 1 1;
#X msg 45 180 set \$1 1 2;
#X obj 6 227 t a;
#X obj 6 55 max 64;
#X obj 6 74 t b b a;
#X obj 45 94 change;
#X obj 45 114 t a a;
#X connect 0 0 17 0;
#X connect 2 0 10 0;
#X connect 3 0 4 1;
#X connect 4 0 6 0;
#X connect 4 0 16 1;
#X connect 5 0 4 0;
#X connect 5 0 13 0;
#X connect 6 0 7 1;
#X connect 7 0 16 2;
#X connect 8 0 9 1;
#X connect 9 0 5 0;
#X connect 9 0 7 0;
#X connect 10 0 11 0;
#X connect 11 0 9 0;
#X connect 11 0 12 0;
#X connect 12 0 8 0;
#X connect 13 0 3 0;
#X connect 17 0 22 0;
#X connect 18 0 20 0;
#X connect 19 0 1 0;
#X connect 20 0 21 0;
#X connect 21 0 16 0;
#X connect 22 0 23 0;
#X connect 23 0 1 0;
#X connect 23 1 21 0;
#X connect 23 2 24 0;
#X connect 24 0 25 0;
#X connect 25 0 18 0;
#X connect 25 1 19 0;
#X restore 90 237 pd DSP.processing;
#X obj 239 37 table \$0.out.buffer 200000;
#X msg 71 262 \$2;
#X obj 71 311 t b b a;
#X obj 71 284 * 2;
#X obj 71 343 array get \$0.out.buffer;
#X msg 110 80 \$1 \$2;
#X connect 1 0 2 0;
#X connect 2 0 3 0;
#X connect 2 1 9 0;
#X connect 3 0 5 2;
#X connect 4 0 5 0;
#X connect 4 1 5 1;
#X connect 5 0 7 0;
#X connect 7 0 8 0;
#X connect 9 0 12 0;
#X connect 9 1 10 0;
#X connect 9 2 16 0;
#X connect 12 0 14 0;
#X connect 13 0 15 0;
#X connect 13 2 15 1;
#X connect 14 0 13 0;
#X connect 15 0 0 0;
#X connect 16 0 4 0;
