#N canvas 602 40 540 712 10;
#N canvas 19 77 478 216 scrub-instrument 0;
#X obj 8 8 netpd-scrub-instruments-popup \$0.scrub.pop;
#X restore 374 82 pd scrub-instrument;
#X obj 167 231 netpd-fifo;
#X obj 224 208 r \$0.to.scrub;
#X obj 196 182 r \$0.next;
#X obj 44 568 list append, f 21;
#X obj 44 594 t b a;
#X obj 167 265 list;
#X obj 206 444 s pd-scrub-instrument;
#X msg 206 421 vis 1;
#X obj 43 376 r \$0.scrub.pop;
#X obj 43 399 route answer;
#X obj 43 445 del 50;
#X obj 44 469 t b b, f 6;
#X msg 77 519 vis 0;
#X obj 43 422 sel 1 0, f 18;
#X obj 95 445 del 50;
#X obj 95 468 t b b;
#X obj 167 399 t a a b;
#X obj 77 542 s pd-scrub-instrument;
#X obj 95 492 s \$0.next;
#X obj 44 643 s \$0.next;
#X obj 186 515 s \$0.scrub.pop;
#X obj 186 468 list prepend msg;
#X obj 186 491 list trim;
#X obj 236 159 s \$0.getlist;
#N canvas 35 69 471 909 get_list_of_instruments_and_patches_with_lower_versions 0;
#X obj 13 58 netpd-pref-get int-instr-path;
#X obj 13 109 pdcontrol;
#X msg 13 83 dir 0 \$1;
#X obj 13 192 file glob, f 12;
#X obj 13 238 route 0;
#X msg 13 215 \$2 \$1;
#X obj 13 306 netpd-properties;
#X obj 148 309 file splitname;
#X obj 13 329 route version;
#X obj 13 282 t a a, f 23;
#X obj 148 354 file splitext;
#X obj 13 355 list prepend;
#X obj 13 260 list;
#X msg 148 331 symbol \$2;
#X msg 148 377 symbol \$1;
#X obj 13 431 list prepend;
#X msg 13 409 symbol \$1;
#X obj 100 417 netpd-pref-get netpd-instruments-path;
#X obj 13 520 file isfile;
#X obj 13 498 t a a, f 13;
#X obj 13 543 sel 1;
#X obj 13 566 symbol, f 13;
#X obj 13 592 netpd-properties;
#X obj 13 615 route version;
#X obj 13 641 list prepend, f 20;
#X obj 47 740 netpd-version-compare;
#X obj 13 664 list split 1;
#X msg 47 716 \$1 \$2 \$3;
#X msg 170 716 \$4 \$5 \$6;
#X obj 13 764 list prepend;
#X obj 13 810 symbol;
#X msg 179 118 symbol;
#X msg 189 141 symbol /abs;
#X obj 13 29 t b b b b;
#X obj 13 140 list append;
#X msg 13 170 symbol \$1\$2/*.pd, f 18;
#X obj 13 453 list append, f 28;
#X msg 13 474 symbol \$1\$3/\$2.pd;
#X obj 179 169 t a;
#X obj 231 711 sel /abs;
#X msg 231 757 symbol abstraction;
#X msg 276 736 symbol instrument;
#X obj 12 833 list prepend;
#X obj 47 689 t a a a, f 21;
#X obj 12 856 list append, f 18;
#X obj 12 879 s \$0.to.scrub;
#X obj 13 7 r \$0.getlist;
#X obj 13 787 route 1 0;
#X obj 13 386 t a b a, f 20;
#X connect 0 0 2 0;
#X connect 1 0 34 0;
#X connect 2 0 1 0;
#X connect 3 0 5 0;
#X connect 4 0 12 0;
#X connect 5 0 4 0;
#X connect 6 0 8 0;
#X connect 7 0 13 0;
#X connect 8 0 11 0;
#X connect 9 0 6 0;
#X connect 9 1 7 0;
#X connect 10 0 14 0;
#X connect 11 0 48 0;
#X connect 12 0 9 0;
#X connect 13 0 10 0;
#X connect 14 0 11 1;
#X connect 15 0 36 0;
#X connect 16 0 15 0;
#X connect 17 0 15 1;
#X connect 18 0 20 0;
#X connect 19 0 18 0;
#X connect 19 1 21 1;
#X connect 20 0 21 0;
#X connect 21 0 22 0;
#X connect 22 0 23 0;
#X connect 23 0 24 0;
#X connect 24 0 26 0;
#X connect 25 0 29 1;
#X connect 26 0 29 0;
#X connect 26 1 43 0;
#X connect 27 0 25 0;
#X connect 28 0 25 1;
#X connect 29 0 47 0;
#X connect 30 0 42 0;
#X connect 31 0 38 0;
#X connect 32 0 38 0;
#X connect 33 0 0 0;
#X connect 33 1 32 0;
#X connect 33 2 0 0;
#X connect 33 3 31 0;
#X connect 34 0 35 0;
#X connect 35 0 3 0;
#X connect 36 0 37 0;
#X connect 37 0 19 0;
#X connect 38 0 36 1;
#X connect 38 0 34 1;
#X connect 38 0 39 0;
#X connect 39 0 40 0;
#X connect 39 1 41 0;
#X connect 40 0 42 1;
#X connect 41 0 42 1;
#X connect 42 0 44 0;
#X connect 43 0 27 0;
#X connect 43 1 44 1;
#X connect 43 2 28 0;
#X connect 44 0 45 0;
#X connect 46 0 33 0;
#X connect 47 0 30 0;
#X connect 47 1 30 0;
#X connect 48 0 16 0;
#X connect 48 1 17 0;
#X connect 48 2 24 1;
#X restore 16 10 pd get_list_of_instruments_and_patches_with_lower_versions;
#N canvas 991 249 444 459 do_the_actual_scrubbing 0;
#X obj 24 18 inlet;
#X obj 195 175 netpd-pref-get netpd-instruments-path;
#X obj 24 278 file move;
#X msg 24 69 symbol \$2;
#X obj 24 200 list prepend, f 29;
#X obj 24 40 t a a, f 16;
#X obj 117 95 sel instrument abstraction;
#X obj 24 148 list prepend;
#X msg 117 118 symbol;
#X msg 117 68 symbol \$1;
#X obj 24 257 t a a, f 17;
#X obj 75 299 b;
#X obj 75 322 list append;
#X msg 75 348 cannot move <br/> \$1 <br/> to <br/> \$2;
#X obj 75 375 netpd-error netpd-scrub-instrument 1;
#X msg 24 232 list \$1\$2/\$3.pd \$1\$2/\$3.pd.bak;
#X msg 193 118 symbol /abs;
#X obj 24 174 t a b;
#X connect 0 0 5 0;
#X connect 1 0 4 1;
#X connect 2 1 11 0;
#X connect 3 0 7 0;
#X connect 4 0 15 0;
#X connect 5 0 3 0;
#X connect 5 1 9 0;
#X connect 6 0 8 0;
#X connect 6 1 16 0;
#X connect 7 0 17 0;
#X connect 8 0 7 1;
#X connect 9 0 6 0;
#X connect 10 0 2 0;
#X connect 10 1 12 1;
#X connect 11 0 12 0;
#X connect 12 0 13 0;
#X connect 13 0 14 0;
#X connect 15 0 10 0;
#X connect 16 0 7 1;
#X connect 17 0 4 0;
#X connect 17 1 1 0;
#X restore 249 649 pd do_the_actual_scrubbing;
#X obj 89 38 inlet;
#X obj 224 259 outlet;
#X obj 89 77 route yes no ask, f 20;
#X obj 206 100 route bang;
#X obj 128 128 b;
#X obj 167 135 t b b b, f 25;
#X obj 167 293 list prepend, f 23;
#X msg 314 218 1;
#X obj 167 316 route 1 0, f 28;
#X obj 89 186 t b b b;
#X msg 128 237 0;
#X obj 89 302 until;
#X msg 89 274 2000;
#X obj 89 328 s \$0.next;
#X obj 249 343 list;
#X connect 1 0 6 0;
#X connect 1 1 28 0;
#X connect 1 1 38 1;
#X connect 2 0 1 1;
#X connect 3 0 1 0;
#X connect 4 0 5 0;
#X connect 5 0 20 0;
#X connect 5 1 26 0;
#X connect 6 0 33 0;
#X connect 8 0 7 0;
#X connect 9 0 10 0;
#X connect 10 0 14 0;
#X connect 11 0 12 0;
#X connect 12 0 4 0;
#X connect 12 1 13 0;
#X connect 13 0 18 0;
#X connect 14 0 11 0;
#X connect 14 1 15 0;
#X connect 15 0 16 0;
#X connect 16 0 19 0;
#X connect 16 1 13 0;
#X connect 17 0 4 1;
#X connect 17 1 22 0;
#X connect 17 2 8 0;
#X connect 22 0 23 0;
#X connect 23 0 21 0;
#X connect 27 0 29 0;
#X connect 29 0 36 0;
#X connect 29 1 31 0;
#X connect 29 2 32 0;
#X connect 29 3 30 0;
#X connect 30 0 32 0;
#X connect 31 0 28 0;
#X connect 32 0 1 0;
#X connect 32 1 24 0;
#X connect 32 2 34 0;
#X connect 33 0 35 0;
#X connect 34 0 33 1;
#X connect 35 0 17 0;
#X connect 35 1 41 0;
#X connect 36 0 39 0;
#X connect 36 1 24 0;
#X connect 36 2 37 0;
#X connect 37 0 33 1;
#X connect 38 0 40 0;
#X connect 39 0 38 0;
#X connect 41 0 26 0;
