#N canvas 359 44 317 706 10;
#X obj 15 155 textfile;
#X obj 15 124 until;
#X msg 64 124 clear \, read \$1 \, rewind;
#X obj 15 100 t b a;
#X obj 15 11 inlet;
#X obj 15 199 s \$0.out0;
#X obj 60 177 s \$0.finished;
#X obj 64 97 r \$0.finished;
#X obj 15 232 r \$0.out0;
#X obj 15 254 route #X;
#X obj 15 276 route msg;
#X obj 15 298 list split 2;
#X obj 15 321 list trim;
#X obj 15 342 route version;
#N canvas 492 253 303 469 typecheck 0;
#X obj 12 9 inlet;
#X obj 12 55 list length;
#X obj 12 32 t a a;
#X obj 12 78 sel 3;
#X obj 12 102 list;
#X obj 70 128 s \$0.malformed;
#X msg 70 107 wrong number of elements;
#X obj 29 246 list split 1;
#X obj 29 204 until;
#X obj 29 225 list append;
#X obj 29 269 route float;
#X msg 92 291 1;
#X obj 12 176 t b b a b;
#X msg 63 291 0;
#X obj 12 315 f;
#X obj 115 233 b;
#X obj 12 137 t a a;
#X obj 12 339 sel 0;
#X msg 76 364 all elements must be floats;
#X obj 76 386 s \$0.malformed;
#X obj 12 416 list append;
#X obj 12 438 outlet;
#X connect 0 0 2 0;
#X connect 1 0 3 0;
#X connect 2 0 1 0;
#X connect 2 1 4 1;
#X connect 3 0 4 0;
#X connect 3 1 6 0;
#X connect 4 0 16 0;
#X connect 6 0 5 0;
#X connect 7 0 10 0;
#X connect 7 1 9 1;
#X connect 7 2 15 0;
#X connect 8 0 9 0;
#X connect 9 0 7 0;
#X connect 10 1 11 0;
#X connect 11 0 14 1;
#X connect 12 0 14 0;
#X connect 12 1 8 0;
#X connect 12 2 9 1;
#X connect 12 3 13 0;
#X connect 13 0 14 1;
#X connect 14 0 17 0;
#X connect 15 0 8 1;
#X connect 16 0 12 0;
#X connect 16 1 20 1;
#X connect 17 0 20 0;
#X connect 17 1 18 0;
#X connect 18 0 19 0;
#X connect 20 0 21 0;
#X restore 15 577 pd typecheck;
#X obj 15 673 outlet version;
#X obj 15 54 t a a;
#X obj 42 75 s \$0.file;
#X obj 34 386 s \$0.finished;
#X obj 122 426 r \$0.file;
#X obj 78 406 r \$0.finished;
#X obj 78 484 f;
#X obj 15 364 t a b b;
#X msg 93 454 0;
#X msg 122 454 1;
#X obj 78 506 sel 1;
#X msg 78 528 no version tag found;
#X obj 78 550 s \$0.malformed;
#X obj 15 648 t a;
#X obj 113 579 r \$0.malformed;
#X msg 113 623 0 0 0;
#X obj 113 601 b;
#X obj 15 32 list split 1;
#N canvas 676 189 244 179 post.errors 0;
#X obj 7 9 r \$0.malformed;
#X obj 76 31 r \$0.file;
#X obj 7 74 list prepend;
#X msg 76 53 \$1:;
#X obj 7 96 list prepend error netpd-version:;
#X obj 7 118 list trim;
#X obj 7 140 s NETPD;
#X connect 0 0 2 0;
#X connect 1 0 3 0;
#X connect 2 0 4 0;
#X connect 3 0 2 1;
#X connect 4 0 5 0;
#X connect 5 0 6 0;
#X restore 183 277 pd post.errors;
#X connect 0 0 5 0;
#X connect 0 1 6 0;
#X connect 1 0 0 0;
#X connect 2 0 0 0;
#X connect 3 0 1 0;
#X connect 3 1 2 0;
#X connect 4 0 32 0;
#X connect 7 0 1 1;
#X connect 8 0 9 0;
#X connect 9 0 10 0;
#X connect 10 0 11 0;
#X connect 11 1 12 0;
#X connect 12 0 13 0;
#X connect 13 0 22 0;
#X connect 14 0 28 0;
#X connect 16 0 3 0;
#X connect 16 1 17 0;
#X connect 19 0 24 0;
#X connect 20 0 21 0;
#X connect 21 0 25 0;
#X connect 22 0 14 0;
#X connect 22 1 18 0;
#X connect 22 2 23 0;
#X connect 23 0 21 1;
#X connect 24 0 21 1;
#X connect 25 0 26 0;
#X connect 26 0 27 0;
#X connect 28 0 15 0;
#X connect 29 0 31 0;
#X connect 30 0 28 0;
#X connect 31 0 30 0;
#X connect 32 0 16 0;
