#N canvas 627 512 491 239 10;
#N canvas 231 169 243 323 save 0;
#X obj 11 75 t b b b;
#X obj 11 294 textfile;
#X msg 50 145 clear;
#X obj 117 240 list prepend add;
#X obj 117 261 list trim;
#X obj 11 99 list append \$1;
#X obj 117 159 s NETPD;
#X obj 117 179 r NETPD;
#X obj 117 200 route pref;
#X msg 11 123 write ../\$1 cr;
#X msg 117 138 pref saving;
#X obj 117 220 route saved;
#X obj 11 12 r NETPD;
#X obj 11 33 route pref;
#X obj 11 54 route save;
#X connect 0 0 5 0;
#X connect 0 1 10 0;
#X connect 0 2 2 0;
#X connect 2 0 1 0;
#X connect 3 0 4 0;
#X connect 4 0 1 0;
#X connect 5 0 9 0;
#X connect 7 0 8 0;
#X connect 8 0 11 0;
#X connect 9 0 1 0;
#X connect 10 0 6 0;
#X connect 11 0 3 0;
#X connect 12 0 13 0;
#X connect 13 0 14 0;
#X connect 14 0 0 0;
#X restore 10 9 pd save;
#N canvas 172 393 217 429 load 0;
#X obj 14 10 r NETPD;
#X obj 14 73 b;
#X obj 14 141 sel 1 0;
#X obj 14 225 list append \$1;
#X obj 14 318 textfile;
#X obj 14 249 t b a;
#X obj 14 293 until;
#X msg 41 271 read \$1 cr \, rewind;
#X obj 14 339 list prepend pref set;
#X obj 14 360 list trim;
#X obj 14 94 symbol \$1;
#X obj 14 382 s NETPD;
#X obj 14 31 route pref;
#X obj 14 52 route load;
#X obj 14 118 netpd-if-file;
#X connect 0 0 12 0;
#X connect 1 0 10 0;
#X connect 2 0 3 0;
#X connect 3 0 5 0;
#X connect 4 0 8 0;
#X connect 4 1 6 1;
#X connect 5 0 6 0;
#X connect 5 1 7 0;
#X connect 6 0 4 0;
#X connect 7 0 4 0;
#X connect 8 0 9 0;
#X connect 9 0 11 0;
#X connect 10 0 14 0;
#X connect 12 0 13 0;
#X connect 13 0 1 0;
#X connect 14 0 2 0;
#X restore 59 9 pd load;
#N canvas 433 109 245 246 getcolor 0;
#X obj 75 54 * -256;
#X obj 10 54 * -65536;
#X obj 140 55 * -1;
#X obj 10 12 r \$0-red-s;
#X obj 75 12 r \$0-grn-s;
#X obj 140 12 r \$0-blu-s;
#X obj 10 33 int;
#X obj 75 32 int;
#X obj 140 33 int;
#X obj 75 106 +;
#X obj 121 79 t b f;
#X obj 75 150 +;
#X obj 75 128 t b f;
#X obj 75 194 outlet;
#N canvas 1100 120 147 143 view-color 0;
#X obj 12 88 s \$0-preview;
#X msg 12 67 color \$1 -1;
#X obj 47 19 loadbang;
#X obj 47 41 -1;
#X obj 12 19 inlet;
#X connect 1 0 0 0;
#X connect 2 0 3 0;
#X connect 3 0 1 0;
#X connect 4 0 1 0;
#X restore 120 194 pd view-color;
#X obj 75 171 - 1;
#X connect 0 0 9 0;
#X connect 1 0 11 0;
#X connect 2 0 10 0;
#X connect 3 0 6 0;
#X connect 4 0 7 0;
#X connect 5 0 8 0;
#X connect 6 0 1 0;
#X connect 7 0 0 0;
#X connect 8 0 2 0;
#X connect 9 0 12 0;
#X connect 10 0 9 0;
#X connect 10 1 9 1;
#X connect 11 0 15 0;
#X connect 12 0 11 0;
#X connect 12 1 11 1;
#X connect 15 0 13 0;
#X connect 15 0 14 0;
#X restore 15 98 pd getcolor;
#N canvas 866 119 243 199 view-font 0;
#X obj 17 10 r \$0-fonttype;
#X obj 109 13 r \$0-fontsize;
#X obj 69 117 s \$0-testtext;
#X obj 17 66 pack;
#X obj 37 38 t b f;
#X msg 69 94 label_font \$1 \$2;
#X obj 17 150 outlet;
#X text 59 150 [fonttype] [fontsize];
#X connect 0 0 3 0;
#X connect 1 0 4 0;
#X connect 3 0 5 0;
#X connect 3 0 6 0;
#X connect 4 0 3 0;
#X connect 4 1 3 1;
#X connect 5 0 2 0;
#X restore 101 100 pd view-font;
#X obj 15 121 s \$0.color;
#X obj 101 121 s \$0.font;
#X text 14 47 GUI:;
#N canvas 92 379 432 473 netpd-preferences 0;
#X symbolatom 103 15 10 0 0 0 - set.netpd-name netpd-name-s;
#X symbolatom 103 36 40 0 0 0 - set.netpd-welcome netpd-welcome-s;
#X symbolatom 103 56 40 0 0 0 - set.netpd-domain netpd-domain-s;
#X floatatom 103 76 6 0 0 0 - set.netpd-port netpd-port-s;
#X text 59 14 name:;
#X text 59 74 port:;
#X text 24 55 IP/domain:;
#X obj 7 167 cnv 15 141 34 empty empty empty 20 12 0 14 -1 -66577 0
;
#X obj 8 168 cnv 15 139 32 empty empty empty 20 12 0 14 -262144 -66577
0;
#X obj 44 169 hsl 100 10 0 255 0 0 \$0-red-s \$0-red-r empty -2 -6
0 8 -258699 -1 -1 0 0;
#X obj 44 179 hsl 100 10 0 255 0 0 \$0-grn-s \$0-grn-r empty -2 -6
0 8 -24198 -1 -1 0 0;
#X obj 44 189 hsl 100 10 0 255 0 0 \$0-blu-s \$0-blu-r empty -2 -6
0 8 -62784 -1 -1 0 0;
#X obj 9 169 cnv 15 30 30 empty empty empty 20 12 0 14 -1 -66577 0
;
#X obj 10 170 cnv 15 28 28 empty \$0-preview empty 20 12 0 14 -1 -1
0;
#X text 4 114 ____________________________________________________________
;
#X text 5 416 ____________________________________________________________
;
#X obj 185 170 nbx 2 16 3 20 0 0 \$0-fontsize \$0-blid empty 0 -6 0
12 -262144 -1 -1 3 256;
#X obj 225 170 vradio 11 1 0 3 \$0-fonttype \$0-blib empty 0 -6 0 8
-262144 -1 -1 0;
#X text 238 167 courier;
#X text 239 178 helvetica;
#X text 238 190 times;
#X text 184 184 size;
#X obj 317 178 cnv 15 100 15 empty \$0-testtext testtext 0 12 0 12
-262144 -66577 0;
#X text 24 36 say hello:;
#X obj 165 128 cnv 1 1 300 empty empty empty 20 12 0 14 -1 -66577 0
;
#X obj 166 128 cnv 1 1 346 empty empty empty 20 12 0 14 -262144 -66577
0;
#X obj 47 138 cnv 15 15 15 empty empty color 0 9 1 14 -262144 -66577
0;
#X obj 244 139 cnv 15 15 15 empty empty font 0 9 1 14 -262144 -66577
0;
#X text 5 197 ____________________________________________________________
;
#X text 341 225 C;
#X text 341 248 H;
#X text 341 274 A;
#X text 341 300 T;
#X text 5 313 ____________________________________________________________
;
#X text 344 336 C;
#X text 345 347 R;
#X text 344 358 E;
#X text 344 370 A;
#X text 344 381 T;
#X text 344 392 O;
#X text 344 402 R;
#X floatatom 103 97 4 0 0 0 - set.netpd-msg-interval netpd-msg-interval-s
;
#X text 3 97 msg-interval:;
#X text 135 97 /100 ms;
#X obj 11 223 hsl 50 15 0 127 0 0 ch.font.clr ch.font.clr-r label 55
8 1 11 -1 -1 -1 0 1;
#X obj 11 242 hsl 50 15 0 127 0 0 ch.background.clr ch.background.clr-r
background 55 8 1 11 -241213 -241213 -1 0 1;
#X obj 11 262 hsl 50 15 0 127 0 0 ch.active.clr ch.active.clr-r active
55 8 1 11 -187246 -187246 -1 0 1;
#X obj 11 281 hsl 50 15 0 127 0 0 ch.border.clr ch.border.clr-r border
55 8 1 11 -1 -1 -1 0 1;
#X obj 185 223 hsl 80 20 0 127 0 0 ch.title.fnt ch.title.fnt-r title
4 12 1 12 -233017 -233017 -1 0 1;
#X obj 185 250 hsl 80 20 0 127 0 0 ch.talk.fnt ch.talk.fnt-r talk 4
13 0 12 -233017 -233017 -1 0 1;
#X obj 185 276 hsl 80 20 0 127 0 0 ch.buttons.fnt ch.buttons.fnt-r
buttons 4 13 1 10 -233017 -233017 -1 0 1;
#X obj 11 300 hsl 50 15 0 127 0 0 ch.inputbox.clr ch.inputbox.clr-r
inputbox 55 8 1 11 -241213 -241213 -1 0 1;
#X obj 11 338 hsl 50 15 0 127 0 0 cr.background1.clr cr.background1.clr-r
background1 55 8 1 11 -199731 -199731 -1 0 1;
#X obj 11 357 hsl 50 15 0 127 0 0 cr.background2.clr cr.background2.clr-r
backgruond2 55 8 1 11 -224635 -224635 -1 0 1;
#X obj 185 337 hsl 80 20 0 127 0 0 cr.title.fnt cr.title.fnt-r title
4 12 1 12 -233017 -233017 -1 0 1;
#X obj 185 364 hsl 80 20 0 127 0 0 cr.label.fnt cr.label.fnt-r label
4 13 1 10 -233017 -233017 -1 0 1;
#X obj 185 390 hsl 80 20 0 127 0 0 cr.display.fnt cr.display.fnt-r
display 4 13 0 12 -233017 -233017 -1 0 1;
#X obj 11 376 hsl 50 15 0 127 0 0 cr.label.clr cr.label.clr-r label
55 8 1 11 -1 -1 -1 0 1;
#X obj 11 395 hsl 50 15 0 127 0 0 cr.display.clr cr.display.clr-r display
55 8 1 11 -258049 -258049 -1 0 1;
#X obj 11 446 hsl 75 17 0 127 0 0 \$0-closesavesettings \$0-bli save&close
2 9 1 11 -233017 -233017 -1 0 1;
#X restore 13 66 pd netpd-preferences;
#X obj 263 104 s pd-netpd-preferences;
#X obj 263 18 r NETPD;
#X obj 263 39 route pref;
#X obj 263 60 route gui;
#X msg 263 81 vis \$1;
#X connect 2 0 4 0;
#X connect 3 0 5 0;
#X connect 9 0 10 0;
#X connect 10 0 11 0;
#X connect 11 0 12 0;
#X connect 12 0 8 0;
