#N struct 3982.number float x float y float number float fclr float bgclr float w float h;
#N struct 3972.number float x float y float number float fclr float bgclr float w float h;
#N canvas 593 40 504 504 10;
#X obj 1 0 cnv 15 500 30 empty empty empty 20 12 0 14 #e0e0e0 #404040 0;
#X text 30 443 No inlets;
#X text 30 457 No outlets;
#N canvas 1085 174 446 368 customize 0;
#X msg 18 46 width \$1;
#X floatatom 18 22 5 0 0 0 - - - 0;
#X floatatom 21 108 5 0 0 0 - - - 0;
#X msg 21 132 height \$1;
#X text 57 22 Change width;
#X text 59 106 Change height;
#X floatatom 23 232 5 0 0 0 - - - 0;
#X floatatom 233 242 5 0 0 0 - - - 0;
#X text 20 197 Colors for selected item;
#X text 230 198 Colors for drop-down items;
#X text 21 328 Use data structure color values (800=red \, 80=green \, 8=blue);
#X text 21 310 NOTE:;
#X floatatom 171 108 5 0 0 0 - - - 0;
#X msg 171 132 fontsize \$1;
#X text 209 106 Allowed values: 8 \, 10 \, 12 \, 16 \, 24 \, 36;
#X text 168 21 CUSTOMIZATIONS FOR [netpd-gui-number];
#X text 168 36 =====================================;
#X obj 18 71 s \$0.mynumber;
#X obj 21 157 s \$0.mynumber;
#X obj 171 157 s \$0.mynumber;
#X msg 23 256 text_color \$1;
#X obj 23 281 s \$0.mynumber;
#X msg 233 266 background_color \$1;
#X obj 233 291 s \$0.mynumber;
#X connect 0 0 17 0;
#X connect 1 0 0 0;
#X connect 2 0 3 0;
#X connect 3 0 18 0;
#X connect 6 0 20 0;
#X connect 7 0 22 0;
#X connect 12 0 13 0;
#X connect 13 0 19 0;
#X connect 20 0 21 0;
#X connect 22 0 23 0;
#X restore 284 350 pd customize;
#X text 282 326 More info:;
#N canvas 1083 84 373 436 optional 0;
#X text 9 10 It's possible to specify only some the args while the non-specified args stay at their default value.;
#X text 54 128 <- partially specified;
#X text 12 58 [netpd-gui-number \$0.num2 30 30];
#X obj 21 130 netpd-gui-number \$0.num2 30 30;
#X text 27 179 default fontsize: 12;
#X text 27 195 default text color: black/0;
#X text 27 211 default background color: white/888;
#X restore 284 379 pd optional args;
#X text 8 7 netpd-gui-number - a configurable clean number box;
#X text 10 47 [netpd-gui-number \$0.mynumber];
#X obj 27 90 netpd-gui-number \$0.mynumber 40 19 16 0 99 777 30;
#X text 24 257 arg1: sendname;
#X text 24 277 arg2: width;
#X text 24 377 arg7: background color;
#X text 24 397 arg8: text color;
#X text 24 297 arg3: height;
#X text 24 317 arg4: fontsize;
#X text 24 337 arg5: range min;
#X text 24 357 arg6: range max;
#X obj 25 163 r \$0.mynumber;
#X obj 25 186 route float;
#X obj 25 211 print netpd-gui-number;
#X obj 195 176 s \$0.mynumber;
#X msg 195 152 set \$1;
#X floatatom 195 127 5 0 0 0 - - - 0;
#X connect 17 0 18 0;
#X connect 18 0 19 0;
#X connect 21 0 20 0;
#X connect 22 0 21 0;
