#N canvas 315 196 638 443 10;
#X obj 20 22 vsl 15 115 1 0 0 0 \$0.sensor \$0.sensor.r empty 0 -9
0 10 -249661 -258113 -1 11305 1;
#X obj 49 42 namecanvas \$0.scrollbar;
#X obj 146 378 s \$0.quotient;
#X msg 146 256 \$2 \$1;
#X obj 146 278 /;
#X obj 146 300 min 1;
#X obj 238 253 *;
#X obj 265 317 int;
#X msg 253 230 \$1;
#X obj 238 205 r \$0.pos;
#X obj 265 296 + 0.5;
#N canvas 581 229 716 547 scrollbar.logic 0;
#X msg 471 224 coords 0 -1 1 1 \$1 \$2 2 20 20;
#X obj 349 20 loadbang;
#X obj 471 246 s \$0.scrollbar;
#X obj 407 359 s \$0.sensor.r;
#X msg 407 336 size \$1 \$2;
#X obj 407 272 unpack;
#X obj 440 293 - 5;
#X obj 407 314 pack f f;
#X obj 19 437 s \$0.bar.r;
#X msg 224 338 vis_size \$1 \$2;
#X obj 224 317 pack f f;
#X obj 224 359 s \$0.bar.r;
#X obj 224 179 t b a;
#X obj 19 21 r \$0.sensor;
#X msg 349 223 \$2;
#X obj 19 65 *;
#X obj 349 289 s \$0.scale;
#X obj 34 43 r \$0.scale;
#X obj 379 451 s \$0.barsize;
#X obj 237 200 r \$0.barsize;
#X obj 225 385 r \$0.scale;
#X obj 225 407 + 4;
#X obj 197 155 t a a;
#X obj 197 432 pack f f;
#X msg 197 454 \$2 \$1;
#X obj 197 476 -;
#X obj 19 359 int;
#X obj 19 311 max 0;
#X obj 197 498 s \$0.bar.y;
#X obj 19 289 min;
#X obj 77 191 >;
#X obj 58 69 r \$0.bar.y;
#X obj 77 213 sel 1;
#X obj 77 235 f;
#X obj 77 287 /;
#X obj 120 259 r \$0.scale;
#X msg 77 308 set \$1;
#X obj 77 330 s \$0.sensor.r;
#X obj 58 91 t b a;
#X obj 19 87 f;
#X obj 19 117 t a a a;
#X obj 212 37 r \$0.scale;
#X obj 197 81 *;
#X obj 197 102 int;
#X obj 197 14 r \$0.quotient;
#X obj 19 333 t a a;
#X obj 86 350 r \$0.scale;
#X obj 71 372 /;
#X obj 71 394 s \$0.pos;
#X text 440 290 <- a slider is 5px larger than given size;
#X obj 349 175 list append \$2 \$3;
#X msg 388 67 set 0;
#X obj 388 89 s \$0.sensor.r;
#X obj 349 45 t b b b;
#X obj 368 110 f \$4;
#X obj 368 153 s \$1;
#X msg 368 131 set displaylength \$1;
#X obj 237 222 unpack f f;
#X obj 294 243 t a a;
#X obj 269 266 min;
#X obj 269 288 max 4;
#X obj 557 32 sel 0;
#X obj 557 141 s \$0.sensor.r;
#X obj 572 77 r \$0.scale;
#X obj 557 98 /;
#X msg 557 119 set \$1;
#X msg 557 53 1;
#X obj 557 9 r \$0.sensor;
#X obj 496 359 s \$0.bg.cnv;
#X obj 349 197 t a a a a a, f 20;
#X msg 496 332 vis_size \$1 \$2;
#X obj 19 393 + 20;
#X msg 19 415 pos 20 \$1;
#X obj 121 431 print;
#X obj 94 147 -;
#X obj 430 25 bng 15 250 50 0 empty empty empty 17 7 0 10 -262144 -1
-1;
#X connect 0 0 2 0;
#X connect 1 0 53 0;
#X connect 4 0 3 0;
#X connect 5 0 7 0;
#X connect 5 1 6 0;
#X connect 6 0 7 1;
#X connect 7 0 4 0;
#X connect 9 0 11 0;
#X connect 10 0 9 0;
#X connect 12 0 10 0;
#X connect 12 1 59 0;
#X connect 13 0 15 0;
#X connect 14 0 16 0;
#X connect 15 0 39 0;
#X connect 17 0 15 1;
#X connect 19 0 57 0;
#X connect 20 0 21 0;
#X connect 21 0 23 1;
#X connect 22 0 23 0;
#X connect 22 1 12 0;
#X connect 23 0 24 0;
#X connect 24 0 25 0;
#X connect 25 0 28 0;
#X connect 26 0 71 0;
#X connect 27 0 45 0;
#X connect 29 0 27 0;
#X connect 30 0 32 0;
#X connect 31 0 38 0;
#X connect 32 0 33 0;
#X connect 33 0 34 0;
#X connect 34 0 36 0;
#X connect 35 0 34 1;
#X connect 36 0 37 0;
#X connect 38 0 39 0;
#X connect 38 1 29 1;
#X connect 38 1 74 0;
#X connect 38 1 73 0;
#X connect 39 0 40 0;
#X connect 40 0 29 0;
#X connect 40 2 30 0;
#X connect 41 0 42 1;
#X connect 42 0 43 0;
#X connect 43 0 22 0;
#X connect 44 0 42 0;
#X connect 45 0 26 0;
#X connect 45 1 47 0;
#X connect 46 0 47 1;
#X connect 47 0 48 0;
#X connect 50 0 69 0;
#X connect 51 0 52 0;
#X connect 53 0 50 0;
#X connect 53 1 54 0;
#X connect 53 2 51 0;
#X connect 54 0 56 0;
#X connect 56 0 55 0;
#X connect 57 0 10 0;
#X connect 57 1 58 0;
#X connect 58 0 59 0;
#X connect 58 1 59 1;
#X connect 59 0 60 0;
#X connect 60 0 10 1;
#X connect 61 0 66 0;
#X connect 63 0 64 1;
#X connect 64 0 65 0;
#X connect 65 0 62 0;
#X connect 66 0 64 0;
#X connect 67 0 61 0;
#X connect 69 0 14 0;
#X connect 69 1 18 0;
#X connect 69 2 5 0;
#X connect 69 3 70 0;
#X connect 69 4 0 0;
#X connect 70 0 68 0;
#X connect 71 0 72 0;
#X connect 72 0 8 0;
#X connect 74 0 30 1;
#X connect 74 0 33 1;
#X connect 75 0 53 0;
#X restore 49 22 pd scrollbar.logic;
#X obj 265 339 change;
#X obj 52 338 /;
#X obj 67 251 t a a;
#X msg 94 316 \$1;
#X obj 67 270 -;
#X obj 52 291 min;
#X obj 52 314 max 0;
#X obj 52 358 s \$0.sensor.r;
#X obj 52 75 r \$1;
#X obj 121 167 pack f f;
#X obj 190 142 t b a;
#X msg 265 361 pos \$1;
#X obj 265 383 s \$1;
#X obj 52 97 route set;
#X obj 52 119 route pos totallength displaylength;
#X obj 121 143 max 1;
#X obj 358 37 r \$1;
#X obj 358 59 route set;
#X obj 358 81 route bgcolor frontcolor;
#X obj 358 170 netpd-rgb2iem;
#X obj 428 103 netpd-rgb2iem;
#X msg 428 126 color \$1 \$1;
#X obj 428 148 s \$0.bar.r;
#X msg 358 192 color \$1 \$1 -1;
#X obj 238 273 t a a;
#X obj 121 189 t b a a a;
#X obj 121 232 f;
#X obj 52 142 t a b;
#X msg 79 209 set -1;
#X obj 20 20 cnv 2 15 120 empty \$0.bg.cnv empty 20 12 0 14 -249661
-1 0;
#X obj 20 20 cnv 4 15 72 empty \$0.bar.r empty 20 12 0 14 -191407 -258049
0;
#X obj 358 214 s \$0.bg.cnv;
#X connect 3 0 4 0;
#X connect 4 0 5 0;
#X connect 5 0 2 0;
#X connect 6 0 36 0;
#X connect 7 0 12 0;
#X connect 8 0 6 1;
#X connect 9 0 6 0;
#X connect 10 0 7 0;
#X connect 12 0 23 0;
#X connect 13 0 19 0;
#X connect 14 0 16 0;
#X connect 14 1 15 0;
#X connect 15 0 13 1;
#X connect 16 0 17 1;
#X connect 17 0 18 0;
#X connect 18 0 13 0;
#X connect 20 0 25 0;
#X connect 21 0 37 0;
#X connect 22 0 27 0;
#X connect 22 1 21 1;
#X connect 23 0 24 0;
#X connect 25 0 26 0;
#X connect 26 0 39 0;
#X connect 26 1 27 0;
#X connect 26 2 22 0;
#X connect 27 0 21 0;
#X connect 28 0 29 0;
#X connect 29 0 30 0;
#X connect 30 0 31 0;
#X connect 30 1 32 0;
#X connect 31 0 35 0;
#X connect 32 0 33 0;
#X connect 33 0 34 0;
#X connect 35 0 43 0;
#X connect 36 0 38 1;
#X connect 36 1 10 0;
#X connect 37 0 38 0;
#X connect 37 1 14 0;
#X connect 37 2 3 0;
#X connect 37 3 8 0;
#X connect 38 0 17 0;
#X connect 39 0 17 0;
#X connect 39 1 40 0;
#X connect 40 0 12 0;
#X coords 0 -1 1 1 15 120 2 20 20;
