#N canvas 99 113 450 300 10;
#X obj 124 206 outlet~;
#X obj 51 206 outlet~;
#X obj 48 10 inlet~;
#N canvas 0 43 344 153 div_256 0;
#X obj 18 16 inlet~;
#X obj 18 43 /~ 256;
#X obj 18 87 outlet~;
#X obj 19 63 tabread~ \$0.uint8;
#X connect 0 0 1 0;
#X connect 1 0 3 0;
#X connect 3 0 2 0;
#X restore 49 88 pd div_256;
#X obj 49 42 *~ 32768;
#X obj 49 62 +~ 32768;
#X obj 49 128 +~ 128;
#N canvas 0 43 355 235 mod_256 0;
#X obj 27 19 inlet~;
#X obj 54 72 /~ 256;
#X obj 54 112 *~ 256;
#X obj 27 136 -~;
#X obj 27 162 outlet~;
#X obj 54 92 tabread~ \$0.uint8;
#X connect 0 0 3 0;
#X connect 0 0 1 0;
#X connect 1 0 5 0;
#X connect 2 0 3 1;
#X connect 3 0 4 0;
#X connect 5 0 2 0;
#X restore 50 152 pd mod_256;
#X obj 298 61 loadbang;
#X obj 122 131 -~;
#X obj 137 111 *~ 256;
#N canvas 136 357 294 267 generate_uint8 0;
#X obj 19 17 inlet;
#X obj 58 59 switch~ 256 1 1;
#X obj 19 165 f;
#X msg 19 185 0 \, 256 \$1;
#X obj 19 205 line~;
#X obj 38 80 samplerate~;
#X msg 38 100 1000 \$1;
#X obj 38 120 /;
#X obj 38 140 * 256;
#X obj 19 37 t b b b;
#X obj 19 225 tabsend~ \$0.uint8;
#X connect 0 0 9 0;
#X connect 2 0 3 0;
#X connect 3 0 4 0;
#X connect 4 0 10 0;
#X connect 5 0 6 0;
#X connect 6 0 7 0;
#X connect 7 0 8 0;
#X connect 8 0 2 1;
#X connect 9 0 2 0;
#X connect 9 1 5 0;
#X connect 9 2 1 0;
#X restore 298 90 pd generate_uint8;
#X obj 298 113 table \$0.uint8 256;
#X obj 123 153 tabread~ \$0.uint8;
#X connect 2 0 4 0;
#X connect 3 0 6 0;
#X connect 3 0 10 0;
#X connect 4 0 5 0;
#X connect 5 0 3 0;
#X connect 5 0 9 0;
#X connect 6 0 7 0;
#X connect 7 0 1 0;
#X connect 8 0 11 0;
#X connect 9 0 13 0;
#X connect 10 0 9 1;
#X connect 13 0 0 0;
