#N canvas 550 72 367 445 10;
#X obj 15 11 inlet;
#N canvas 492 253 303 469 typecheck 0;
#X obj 12 9 inlet;
#X obj 12 55 list length;
#X obj 12 32 t a a;
#X obj 12 78 sel 3;
#X obj 12 102 list;
#X obj 70 128 s \$0.malformed;
#X msg 70 107 wrong number of elements;
#X obj 29 246 list split 1;
#X obj 29 204 until;
#X obj 29 225 list append;
#X obj 29 269 route float;
#X msg 92 291 1;
#X obj 12 176 t b b a b;
#X msg 63 291 0;
#X obj 12 315 f;
#X obj 115 233 b;
#X obj 12 137 t a a;
#X obj 12 339 sel 0;
#X msg 76 364 all elements must be floats;
#X obj 76 386 s \$0.malformed;
#X obj 12 416 list append;
#X obj 12 438 outlet;
#X connect 0 0 2 0;
#X connect 1 0 3 0;
#X connect 2 0 1 0;
#X connect 2 1 4 1;
#X connect 3 0 4 0;
#X connect 3 1 6 0;
#X connect 4 0 16 0;
#X connect 6 0 5 0;
#X connect 7 0 10 0;
#X connect 7 1 9 1;
#X connect 7 2 15 0;
#X connect 8 0 9 0;
#X connect 9 0 7 0;
#X connect 10 1 11 0;
#X connect 11 0 14 1;
#X connect 12 0 14 0;
#X connect 12 1 8 0;
#X connect 12 2 9 1;
#X connect 12 3 13 0;
#X connect 13 0 14 1;
#X connect 14 0 17 0;
#X connect 15 0 8 1;
#X connect 16 0 12 0;
#X connect 16 1 20 1;
#X connect 17 0 20 0;
#X connect 17 1 18 0;
#X connect 18 0 19 0;
#X connect 20 0 21 0;
#X restore 15 326 pd typecheck;
#X obj 15 422 outlet version;
#X obj 79 131 s \$0.finished;
#X obj 122 175 r \$0.file;
#X obj 78 155 r \$0.finished;
#X obj 78 233 f;
#X obj 15 113 t a b b;
#X msg 93 203 0;
#X msg 122 203 1;
#X obj 78 255 sel 1;
#X msg 78 277 no version tag found;
#X obj 78 299 s \$0.malformed;
#X obj 15 397 t a;
#X obj 113 328 r \$0.malformed;
#X msg 113 372 0 0 0;
#X obj 113 350 t b b;
#X obj 140 411 outlet;
#X obj 15 66 netpd-properties;
#X obj 15 88 route version;
#X obj 196 32 r \$0.malformed;
#X obj 265 54 r \$0.file;
#X obj 196 97 list prepend;
#X msg 265 76 \$1:;
#X obj 196 126 netpd-error netpd-version;
#X obj 72 41 s \$0.file;
#X obj 15 33 t a a;
#X obj 72 20 list;
#X connect 0 0 26 0;
#X connect 1 0 13 0;
#X connect 4 0 9 0;
#X connect 5 0 6 0;
#X connect 6 0 10 0;
#X connect 7 0 1 0;
#X connect 7 2 8 0;
#X connect 8 0 6 1;
#X connect 9 0 6 1;
#X connect 10 0 11 0;
#X connect 11 0 12 0;
#X connect 13 0 2 0;
#X connect 14 0 16 0;
#X connect 15 0 13 0;
#X connect 16 0 15 0;
#X connect 16 1 17 0;
#X connect 18 0 19 0;
#X connect 18 1 3 0;
#X connect 19 0 7 0;
#X connect 20 0 22 0;
#X connect 21 0 23 0;
#X connect 22 0 24 0;
#X connect 23 0 22 1;
#X connect 26 0 18 0;
#X connect 26 1 27 0;
#X connect 27 0 25 0;
