#N canvas 630 129 406 382 10;
#X obj 12 19 inlet;
#X obj 12 89 route OSC;
#X obj 12 117 list split 1;
#X obj 12 138 list prepend \$1;
#X obj 12 187 list append;
#X obj 152 25 loadbang;
#X obj 152 48 list append \$1;
#X obj 152 92 b;
#X obj 281 165 loadbang;
#X obj 281 209 route 0;
#X msg 12 160 list \$1\$2;
#X obj 281 187 list append \$2;
#X obj 109 183 list prepend \$1;
#X obj 109 327 list trim;
#X obj 109 285 list prepend to;
#X obj 262 143 inlet;
#X obj 152 70 route 0;
#X msg 99 117 symbol;
#X msg 281 231 b;
#X obj 241 266 list;
#X msg 241 288 receiver \$1;
#X obj 109 236 t a b;
#X obj 109 348 s NETPD;
#X connect 0 0 1 0;
#X connect 1 0 2 0;
#X connect 1 1 12 0;
#X connect 2 0 3 0;
#X connect 2 1 4 1;
#X connect 3 0 10 0;
#X connect 4 0 21 0;
#X connect 5 0 6 0;
#X connect 6 0 16 0;
#X connect 7 0 12 1;
#X connect 7 0 17 0;
#X connect 8 0 11 0;
#X connect 9 0 18 0;
#X connect 9 1 19 1;
#X connect 10 0 4 0;
#X connect 11 0 9 0;
#X connect 12 0 21 0;
#X connect 13 0 22 0;
#X connect 14 0 13 0;
#X connect 15 0 19 1;
#X connect 16 0 7 0;
#X connect 17 0 3 1;
#X connect 18 0 19 1;
#X connect 19 0 20 0;
#X connect 20 0 13 0;
#X connect 21 0 14 0;
#X connect 21 1 19 0;
