#N canvas 443 196 466 289 10;
#X obj 252 240 s \$0.receive;
#X obj 11 12 inlet;
#X text 55 11 patch|abstraction <filename> <remote socket>;
#N canvas 0 99 422 215 send.request 0;
#X obj 11 33 list;
#X obj 11 65 list append \$1;
#X obj 11 131 s \$0.send;
#X obj 11 111 list append;
#X obj 11 7 inlet;
#X text 62 9 patch|abstraction <filename> <remote socket>;
#X msg 11 88 \$3 /request/\$1 \$2;
#X text 11 152 <socket> /request/patch|abstraction <filename>;
#X connect 0 0 1 0;
#X connect 1 0 6 0;
#X connect 3 0 2 0;
#X connect 4 0 0 0;
#X connect 6 0 3 0;
#X restore 11 51 pd send.request;
#N canvas 410 229 464 489 handle.request 0;
#X obj 6 14 r \$0.receive;
#X obj 6 35 routeOSC /request;
#X obj 6 56 route /patch /abstraction, f 31;
#X obj 6 283 outlet;
#X obj 6 187 list append;
#X obj 97 189 list append;
#X obj 160 165 r \$0.sender;
#X obj 6 104 netpd-search 0;
#X text 58 281 list <filepath> <name> <remote_socket> <type>;
#X obj 6 80 t a a;
#X obj 6 131 list append;
#X obj 97 80 t a a;
#X obj 97 131 list append;
#X obj 97 104 netpd-search 1;
#X text 174 189 <filepath> <name> <remote_socket>;
#X obj 6 249 list append patch;
#X obj 97 220 list append abstraction;
#X connect 0 0 1 0;
#X connect 1 0 2 0;
#X connect 2 0 9 0;
#X connect 2 1 11 0;
#X connect 4 0 15 0;
#X connect 5 0 16 0;
#X connect 6 0 5 1;
#X connect 6 0 4 1;
#X connect 7 0 10 0;
#X connect 9 0 7 0;
#X connect 9 1 10 1;
#X connect 10 0 4 0;
#X connect 11 0 13 0;
#X connect 11 1 12 1;
#X connect 12 0 5 0;
#X connect 13 0 12 0;
#X connect 15 0 3 0;
#X connect 16 0 3 0;
#X restore 11 99 pd handle.request;
#N canvas 410 283 352 413 send.patch 0;
#X obj 15 13 inlet;
#X obj 15 174 textfile;
#X obj 15 143 until;
#X obj 15 236 t b a;
#X obj 15 258 f;
#X text 108 176 socket;
#X obj 15 330 list append;
#X obj 15 352 s \$0.send;
#X obj 100 230 t b b;
#X obj 34 80 s \$0.send;
#X text 147 41 start message;
#X obj 100 255 list append;
#X text 96 334 transmit data;
#X obj 100 301 s \$0.send;
#X text 187 279 end message;
#X msg 79 175 \$3;
#X msg 34 58 \$3 /start \$4 \$2;
#X text 145 59 <socket> /start <type> <name>;
#X text 60 17 list <path> <name> <remote_socket> <type>;
#X obj 15 118 t b a a a;
#X msg 15 307 \$1 /data;
#X msg 100 279 \$3 /done \$4 \$2;
#X obj 15 35 t a a a;
#X obj 235 302 outlet;
#X msg 204 108 upload begin \$3 \$4 \$2;
#X msg 198 215 upload end \$3 \$4 \$2;
#N canvas 338 257 323 183 compatibility 0;
#X obj 71 62 list prepend #X;
#X obj 17 103 list prepend #N;
#X obj 17 13 inlet;
#X obj 17 126 outlet;
#X obj 17 35 route #N #A #X;
#X obj 44 84 list prepend #A;
#X connect 0 0 3 0;
#X connect 1 0 3 0;
#X connect 2 0 4 0;
#X connect 4 0 1 0;
#X connect 4 1 5 0;
#X connect 4 2 0 0;
#X connect 4 3 0 0;
#X connect 5 0 3 0;
#X restore 15 205 pd compatibility >= 0.45;
#X msg 58 144 clear \, read \$1 \, rewind;
#X connect 0 0 22 0;
#X connect 1 0 26 0;
#X connect 1 1 8 0;
#X connect 2 0 1 0;
#X connect 3 0 4 0;
#X connect 3 1 6 1;
#X connect 4 0 20 0;
#X connect 6 0 7 0;
#X connect 8 0 11 0;
#X connect 8 1 2 1;
#X connect 11 0 21 0;
#X connect 11 0 25 0;
#X connect 15 0 4 1;
#X connect 16 0 9 0;
#X connect 19 0 2 0;
#X connect 19 1 27 0;
#X connect 19 2 15 0;
#X connect 19 3 11 1;
#X connect 20 0 6 0;
#X connect 21 0 13 0;
#X connect 22 0 19 0;
#X connect 22 1 16 0;
#X connect 22 2 24 0;
#X connect 24 0 23 0;
#X connect 25 0 23 0;
#X connect 26 0 3 0;
#X connect 27 0 1 0;
#X restore 11 136 pd send.patch;
#N canvas 363 175 647 464 receive.patch 0;
#X obj 11 12 r \$0.receive;
#X obj 50 55 routeOSC /start;
#X obj 11 34 t a a a;
#X obj 30 227 textfile;
#X msg 50 101 clear;
#X obj 30 128 routeOSC /data;
#X obj 132 400 outlet;
#X obj 30 172 list prepend add;
#X obj 30 194 list trim;
#X obj 11 259 routeOSC /done;
#X obj 11 304 list;
#X obj 151 190 route patch abstraction, f 30;
#X obj 132 106 list append;
#X obj 195 83 r \$0.sender;
#X msg 132 134 download begin \$3 \$1 \$2;
#X obj 11 330 list append;
#X obj 53 305 r \$0.sender;
#X msg 11 358 download end \$3 \$1 \$2;
#N canvas 923 187 522 262 time.out.detection 0;
#X obj 142 27 inlet;
#X obj 142 49 b;
#X obj 33 25 inlet;
#X obj 33 47 b;
#X obj 94 25 inlet;
#X obj 94 47 b;
#X obj 94 125 spigot 0;
#X obj 94 152 delay 5000;
#X obj 142 71 t b b;
#X msg 169 95 1;
#X obj 33 69 t b b;
#X msg 60 92 0;
#X msg 33 124 stop;
#X text 32 3 stop;
#X text 89 3 transmit;
#X text 151 3 start;
#X text 215 36 detects if transmission aborts before end;
#X obj 94 210 outlet;
#X text 170 151 <- bang on time-out (5s of no data);
#X connect 0 0 1 0;
#X connect 1 0 8 0;
#X connect 2 0 3 0;
#X connect 3 0 10 0;
#X connect 4 0 5 0;
#X connect 5 0 6 0;
#X connect 6 0 7 0;
#X connect 7 0 17 0;
#X connect 8 0 6 0;
#X connect 8 1 9 0;
#X connect 9 0 6 1;
#X connect 10 0 12 0;
#X connect 10 1 11 0;
#X connect 11 0 6 1;
#X connect 12 0 7 0;
#X restore 369 278 pd time.out.detection;
#X obj 50 77 t b a b;
#X obj 30 150 t a b;
#X obj 11 283 t a a b;
#X obj 369 312 list append;
#X msg 369 344 download expire \$3 \$1 \$2;
#X obj 383 139 loadbang;
#X obj 383 162 netpd-pref-get netpd-instruments-path;
#X obj 239 258 list prepend;
#X obj 151 259 list prepend;
#X msg 151 311 write \$1/\$2.pd;
#X obj 383 185 symbol;
#X msg 383 213 symbol \$1/abs;
#X connect 0 0 2 0;
#X connect 1 0 19 0;
#X connect 2 0 9 0;
#X connect 2 1 5 0;
#X connect 2 2 1 0;
#X connect 4 0 3 0;
#X connect 5 0 20 0;
#X connect 7 0 8 0;
#X connect 8 0 3 0;
#X connect 9 0 21 0;
#X connect 10 0 15 0;
#X connect 11 0 27 0;
#X connect 11 1 26 0;
#X connect 12 0 14 0;
#X connect 12 0 22 1;
#X connect 13 0 12 1;
#X connect 14 0 6 0;
#X connect 15 0 17 0;
#X connect 16 0 15 1;
#X connect 17 0 6 0;
#X connect 18 0 22 0;
#X connect 19 0 4 0;
#X connect 19 1 12 0;
#X connect 19 2 18 2;
#X connect 20 0 7 0;
#X connect 20 1 18 1;
#X connect 21 0 10 0;
#X connect 21 1 11 0;
#X connect 21 2 18 0;
#X connect 22 0 23 0;
#X connect 23 0 6 0;
#X connect 24 0 25 0;
#X connect 25 0 29 0;
#X connect 26 0 28 0;
#X connect 27 0 28 0;
#X connect 28 0 3 0;
#X connect 29 0 27 1;
#X connect 29 0 30 0;
#X connect 30 0 26 1;
#X restore 12 175 pd receive.patch;
#X obj 30 207 outlet;
#X obj 254 52 r \$0.send;
#X obj 254 74 list;
#X obj 254 125 list split 1;
#X obj 254 96 t a a;
#X msg 365 126 \$1;
#X obj 254 150 list prepend OSC;
#X obj 254 170 list trim;
#X obj 254 190 netpd-s \$1/download;
#X obj 252 217 netpd-r \$1/download;
#X obj 363 239 s \$0.sender;
#X connect 1 0 3 0;
#X connect 4 0 5 0;
#X connect 5 0 7 0;
#X connect 6 0 7 0;
#X connect 8 0 9 0;
#X connect 9 0 11 0;
#X connect 10 1 13 0;
#X connect 11 0 10 0;
#X connect 11 1 12 0;
#X connect 12 0 15 1;
#X connect 13 0 14 0;
#X connect 14 0 15 0;
#X connect 16 0 0 0;
#X connect 16 1 17 0;
