#N canvas 396 63 414 540 10;
#X obj 69 276 unpackOSC;
#X obj 69 109 packOSC;
#X obj 69 155 list prepend send;
#X obj 69 178 list trim;
#X obj 193 113 inlet;
#X obj 193 135 route connect disconnect;
#X obj 193 157 list;
#X msg 193 177 connect \$1 \$2;
#X msg 263 200 disconnect;
#X obj 156 467 outlet status;
#X msg 127 433 connection \$1;
#X obj 69 330 routeOSC /*;
#X obj 6 86 routeOSC /l;
#X text 82 86 don't transmit local OSC messages;
#X obj 69 300 t a a;
#X obj 6 377 t a;
#X obj 6 328 t a b;
#X obj 96 361 netpd-sender-get;
#X msg 33 359 symbol l;
#X obj 6 504 s NETPD;
#X obj 6 462 list prepend from;
#X obj 6 482 list trim;
#X msg 33 407 sender \$1;
#X obj 6 13 r NETPD;
#X obj 6 36 list trim;
#X obj 6 59 route to;
#X obj 69 131 slipenc 16384;
#X obj 69 254 slipdec 16384;
#X obj 69 230 netpd-tcpclient;
#X connect 0 0 14 0;
#X connect 1 0 26 0;
#X connect 2 0 3 0;
#X connect 3 0 28 0;
#X connect 4 0 5 0;
#X connect 5 0 6 0;
#X connect 5 1 8 0;
#X connect 6 0 7 0;
#X connect 7 0 28 0;
#X connect 8 0 28 0;
#X connect 10 0 9 0;
#X connect 11 0 15 0;
#X connect 12 0 16 0;
#X connect 12 1 1 0;
#X connect 14 0 11 0;
#X connect 14 1 17 0;
#X connect 15 0 20 0;
#X connect 16 0 15 0;
#X connect 16 1 18 0;
#X connect 17 0 22 0;
#X connect 18 0 22 0;
#X connect 20 0 21 0;
#X connect 21 0 19 0;
#X connect 22 0 19 0;
#X connect 23 0 24 0;
#X connect 24 0 25 0;
#X connect 25 0 12 0;
#X connect 26 0 2 0;
#X connect 27 0 0 0;
#X connect 28 0 27 0;
#X connect 28 2 10 0;
#X connect 28 3 9 0;
