#N canvas 189 96 445 207 10;
#X obj 19 56 symbol;
#X obj 19 80 list fromsymbol;
#X obj 19 129 list tosymbol;
#X obj 166 128 list tosymbol;
#N canvas 0 65 442 566 split_after_last_slash 0;
#X obj 12 20 inlet;
#X obj 13 491 outlet;
#X obj 83 486 outlet;
#X obj 70 270 list store;
#X msg 70 243 get \$1 1;
#X obj 70 76 t a a;
#X obj 70 103 list length;
#X obj 70 295 sel 47;
#X obj 70 149 until;
#X obj 70 172 f;
#X obj 70 195 - 1;
#X obj 70 218 t a a a;
#X obj 70 322 f;
#X obj 70 345 t a b;
#X obj 167 226 b;
#X obj 12 59 t a a;
#X obj 13 403 list split 0;
#X obj 70 126 t a a a;
#X obj 228 250 t a;
#X obj 70 368 + 1;
#X text 103 369 the slash belongs to the path part;
#X obj 228 281 + 1;
#X obj 82 429 t b a;
#X msg 29 454 46 47;
#X connect 0 0 15 0;
#X connect 3 0 7 0;
#X connect 4 0 3 0;
#X connect 5 0 6 0;
#X connect 5 1 3 1;
#X connect 6 0 17 0;
#X connect 7 0 12 0;
#X connect 8 0 9 0;
#X connect 9 0 10 0;
#X connect 10 0 11 0;
#X connect 11 0 4 0;
#X connect 11 1 12 1;
#X connect 11 2 9 1;
#X connect 12 0 13 0;
#X connect 13 0 19 0;
#X connect 13 1 14 0;
#X connect 14 0 8 1;
#X connect 15 0 16 0;
#X connect 15 1 5 0;
#X connect 16 0 1 0;
#X connect 16 1 2 0;
#X connect 16 2 22 0;
#X connect 17 0 8 0;
#X connect 17 1 9 1;
#X connect 17 2 18 0;
#X connect 18 0 21 0;
#X connect 19 0 16 1;
#X connect 21 0 16 1;
#X connect 22 0 23 0;
#X connect 22 1 2 0;
#X connect 23 0 1 0;
#X restore 19 105 pd split_after_last_slash;
#X obj 19 22 inlet;
#X obj 19 152 outlet;
#X obj 166 151 outlet;
#X connect 0 0 1 0;
#X connect 1 0 4 0;
#X connect 2 0 6 0;
#X connect 3 0 7 0;
#X connect 4 0 2 0;
#X connect 4 1 3 0;
#X connect 5 0 0 0;
