#N canvas 0 106 421 372 10;
#X obj 159 15 r \$1.NETPD;
#X obj 179 260 t a a;
#X obj 44 282 s \$1.NETPD;
#X obj 160 225 t b a a;
#X obj 25 15 r \$1/\$2.NETPD;
#X obj 35 40 r \$1/\$3.NETPD;
#X obj 206 285 s \$1/\$2.NETPD;
#X obj 179 305 s \$1/\$3.NETPD;
#N canvas 0 106 573 402 message.filter 0;
#X obj 37 37 inlet;
#X obj 37 331 outlet;
#X obj 156 31 inlet;
#X obj 37 60 t a a;
#X text 387 30 msg to be filtered;
#X text 194 31 disable filter;
#X obj 37 303 spigot 1;
#X obj 64 127 route list;
#X obj 64 179 list prepend LIST;
#X obj 121 152 list prepend ANY;
#X obj 373 81 route list;
#X obj 373 133 list prepend LIST;
#X obj 430 106 list prepend ANY;
#X obj 64 232 netpd-list-compare, f 52;
#X obj 64 257 == 0;
#X obj 64 104 spigot 1;
#X obj 346 27 inlet;
#X obj 346 50 t b a;
#X msg 321 78 1;
#X obj 156 54 t b b;
#X msg 156 77 0;
#X msg 183 276 1;
#X obj 64 205 list split 8;
#X obj 373 191 list split 8;
#X connect 0 0 3 0;
#X connect 2 0 19 0;
#X connect 3 0 6 0;
#X connect 3 1 15 0;
#X connect 6 0 1 0;
#X connect 7 0 8 0;
#X connect 7 1 9 0;
#X connect 8 0 22 0;
#X connect 9 0 22 0;
#X connect 10 0 11 0;
#X connect 10 1 12 0;
#X connect 11 0 23 0;
#X connect 12 0 23 0;
#X connect 13 0 14 0;
#X connect 14 0 6 1;
#X connect 15 0 7 0;
#X connect 16 0 17 0;
#X connect 17 0 18 0;
#X connect 17 1 10 0;
#X connect 18 0 15 1;
#X connect 19 0 20 0;
#X connect 19 1 21 0;
#X connect 20 0 15 1;
#X connect 21 0 6 1;
#X connect 22 0 13 0;
#X connect 22 2 13 0;
#X connect 23 0 13 1;
#X connect 23 2 13 1;
#X restore 159 122 pd message.filter;
#X obj 25 214 t b a a;
#N canvas 0 106 573 402 message.filter 0;
#X obj 37 37 inlet;
#X obj 37 331 outlet;
#X obj 156 31 inlet;
#X obj 37 60 t a a;
#X text 387 30 msg to be filtered;
#X text 194 31 disable filter;
#X obj 37 303 spigot 1;
#X obj 64 127 route list;
#X obj 64 179 list prepend LIST;
#X obj 121 152 list prepend ANY;
#X obj 373 81 route list;
#X obj 373 133 list prepend LIST;
#X obj 430 106 list prepend ANY;
#X obj 64 232 netpd-list-compare, f 52;
#X obj 64 257 == 0;
#X obj 64 104 spigot 1;
#X obj 346 27 inlet;
#X obj 346 50 t b a;
#X msg 321 78 1;
#X obj 156 54 t b b;
#X msg 156 77 0;
#X msg 183 276 1;
#X obj 64 205 list split 8;
#X obj 373 191 list split 8;
#X connect 0 0 3 0;
#X connect 2 0 19 0;
#X connect 3 0 6 0;
#X connect 3 1 15 0;
#X connect 6 0 1 0;
#X connect 7 0 8 0;
#X connect 7 1 9 0;
#X connect 8 0 22 0;
#X connect 9 0 22 0;
#X connect 10 0 11 0;
#X connect 10 1 12 0;
#X connect 11 0 23 0;
#X connect 12 0 23 0;
#X connect 13 0 14 0;
#X connect 14 0 6 1;
#X connect 15 0 7 0;
#X connect 16 0 17 0;
#X connect 17 0 18 0;
#X connect 17 1 10 0;
#X connect 18 0 15 1;
#X connect 19 0 20 0;
#X connect 19 1 21 0;
#X connect 20 0 15 1;
#X connect 21 0 6 1;
#X connect 22 0 13 0;
#X connect 22 2 13 0;
#X connect 23 0 13 1;
#X connect 23 2 13 1;
#X restore 25 128 pd message.filter;
#X connect 0 0 8 0;
#X connect 1 0 7 0;
#X connect 1 1 6 0;
#X connect 3 0 10 1;
#X connect 3 1 1 0;
#X connect 3 2 10 2;
#X connect 4 0 10 0;
#X connect 5 0 10 0;
#X connect 8 0 3 0;
#X connect 9 0 8 1;
#X connect 9 1 2 0;
#X connect 9 2 8 2;
#X connect 10 0 9 0;
