#N canvas 0 32 422 203 10;
#X obj 32 30 loadbang;
#X obj 32 53 symbol \$2;
#X obj 32 76 file which;
#X obj 89 99 b;
#X obj 89 122 symbol \$1;
#X obj 89 168 s NETPD;
#X msg 89 145 error -n Library '\$1' not found. Is it installed?;
#X connect 0 0 1 0;
#X connect 1 0 2 0;
#X connect 2 1 3 0;
#X connect 3 0 4 0;
#X connect 4 0 6 0;
#X connect 6 0 5 0;
