#N canvas 490 87 450 300 10;
#X obj 48 8 inlet;
#X obj 129 250 outlet;
#X obj 48 30 t b a;
#X obj 48 153 netpd-nb-until;
#X obj 48 102 sel 0;
#X obj 48 124 t b b;
#X obj 48 78 f;
#X msg 99 107 1;
#X obj 222 168 t b b;
#X msg 280 141 0;
#X obj 129 183 netpd-fifo \$1;
#X connect 0 0 2 0;
#X connect 2 0 6 0;
#X connect 2 1 10 1;
#X connect 3 1 10 0;
#X connect 4 0 5 0;
#X connect 5 0 3 0;
#X connect 5 1 7 0;
#X connect 6 0 4 0;
#X connect 7 0 6 1;
#X connect 8 0 3 1;
#X connect 8 1 9 0;
#X connect 9 0 6 1;
#X connect 10 0 1 0;
#X connect 10 1 8 0;
