#N canvas 443 196 463 273 10;
#X obj 252 240 s \$0.receive;
#X obj 11 12 inlet;
#X text 55 11 patch|abstraction <filename> <remote socket>;
#N canvas 0 69 376 185 send.request 0;
#X obj 11 33 list;
#X obj 11 65 list append \$1;
#X obj 11 131 s \$0.send;
#X obj 11 111 list append;
#X obj 11 7 inlet;
#X text 62 9 patch|abstraction <filename> <remote socket>;
#X msg 11 88 \$3 /request/\$1 \$2;
#X text 11 152 <socket> /request/patch|abstraction <filename>;
#X connect 0 0 1 0;
#X connect 1 0 6 0;
#X connect 3 0 2 0;
#X connect 4 0 0 0;
#X connect 6 0 3 0;
#X restore 11 51 pd send.request;
#N canvas 410 196 369 211 handle.request 0;
#X obj 6 14 r \$0.receive;
#X obj 6 35 routeOSC /request;
#X obj 6 56 route /patch /abstraction;
#X obj 6 172 outlet;
#X text 154 107 <filename> <remote_socket>;
#X msg 79 127 list abs \$1 \$2 abstraction;
#X msg 6 147 list patches \$1 \$2 patch;
#X text 58 170 list <path> <file> <remote_socket> <type>;
#X obj 6 107 list append;
#X obj 79 107 list append;
#X obj 142 83 r \$0.sender;
#X connect 0 0 1 0;
#X connect 1 0 2 0;
#X connect 2 0 8 0;
#X connect 2 1 9 0;
#X connect 5 0 3 0;
#X connect 6 0 3 0;
#X connect 8 0 6 0;
#X connect 9 0 5 0;
#X connect 10 0 9 1;
#X connect 10 0 8 1;
#X restore 11 99 pd handle.request;
#N canvas 410 151 352 413 send.patch 0;
#X obj 15 13 inlet;
#X obj 15 174 textfile;
#X obj 15 143 until;
#X obj 15 196 t b a;
#X obj 15 218 f;
#X text 108 176 socket;
#X obj 15 330 list append;
#X obj 15 352 s \$0.send;
#X obj 60 200 t b b;
#X obj 15 35 t a a;
#X obj 42 80 s \$0.send;
#X text 147 41 start message;
#X obj 60 225 list append;
#X text 96 334 transmit data;
#X obj 60 271 s \$0.send;
#X text 147 249 end message;
#X msg 79 175 \$3;
#X msg 58 144 clear \, read ../\$1/\$2.pd \, rewind;
#X msg 42 58 \$3 /start \$4 \$2;
#X text 145 59 <socket> /start <type> <name>;
#X text 60 17 list <path> <name> <remote_socket> <type>;
#X obj 15 118 t b a a a;
#X msg 15 307 \$1 /data;
#X msg 60 249 \$3 /done \$4 \$2;
#X connect 0 0 9 0;
#X connect 1 0 3 0;
#X connect 1 1 8 0;
#X connect 2 0 1 0;
#X connect 3 0 4 0;
#X connect 3 1 6 1;
#X connect 4 0 22 0;
#X connect 6 0 7 0;
#X connect 8 0 12 0;
#X connect 8 1 2 1;
#X connect 9 0 21 0;
#X connect 9 1 18 0;
#X connect 12 0 23 0;
#X connect 16 0 4 1;
#X connect 17 0 1 0;
#X connect 18 0 10 0;
#X connect 21 0 2 0;
#X connect 21 1 17 0;
#X connect 21 2 16 0;
#X connect 21 3 12 1;
#X connect 22 0 6 0;
#X connect 23 0 14 0;
#X restore 11 136 pd send.patch;
#N canvas 410 277 334 439 receive.patch 0;
#X obj 11 12 r \$0.receive;
#X obj 50 55 routeOSC /start;
#X obj 11 34 t a a a;
#X obj 191 108 list;
#X msg 191 130 download \$1 \$2;
#X obj 50 77 t b a;
#X obj 30 227 textfile;
#X msg 50 101 clear;
#X obj 30 149 routeOSC /data;
#X obj 135 399 outlet;
#X obj 30 172 list prepend add;
#X obj 30 194 list trim;
#X obj 11 259 routeOSC /done;
#X obj 11 314 list;
#X obj 11 283 t a a;
#X obj 150 217 route patch abstraction;
#X obj 150 261 list prepend patches;
#X obj 217 238 list prepend abs;
#X msg 11 338 saved \$1 \$2;
#X msg 150 283 write ../\$1/\$2.pd;
#X connect 0 0 2 0;
#X connect 1 0 5 0;
#X connect 2 0 12 0;
#X connect 2 1 8 0;
#X connect 2 2 1 0;
#X connect 3 0 4 0;
#X connect 4 0 9 0;
#X connect 5 0 7 0;
#X connect 5 1 3 0;
#X connect 7 0 6 0;
#X connect 8 0 10 0;
#X connect 10 0 11 0;
#X connect 11 0 6 0;
#X connect 12 0 14 0;
#X connect 13 0 18 0;
#X connect 14 0 13 0;
#X connect 14 1 15 0;
#X connect 15 0 16 0;
#X connect 15 1 17 0;
#X connect 16 0 19 0;
#X connect 17 0 19 0;
#X connect 18 0 9 0;
#X connect 19 0 6 0;
#X restore 12 175 pd receive.patch;
#X obj 12 197 outlet;
#X obj 254 52 r \$0.send;
#X obj 254 74 list;
#X obj 254 125 list split 1;
#X obj 254 96 t a a;
#X msg 365 126 \$1;
#X obj 254 150 list prepend OSC;
#X obj 254 170 list trim;
#X obj 254 190 netpd-s \$1/download;
#X obj 252 217 netpd-r \$1/download;
#X obj 363 239 s \$0.sender;
#X connect 1 0 3 0;
#X connect 4 0 5 0;
#X connect 6 0 7 0;
#X connect 8 0 9 0;
#X connect 9 0 11 0;
#X connect 10 1 13 0;
#X connect 11 0 10 0;
#X connect 11 1 12 0;
#X connect 12 0 15 1;
#X connect 13 0 14 0;
#X connect 14 0 15 0;
#X connect 16 0 0 0;
#X connect 16 1 17 0;
