#N canvas 668 207 222 214 10;
#X obj 8 10 r \$1.NETPD;
#X obj 8 153 b;
#X obj 8 177 outlet;
#X obj 8 32 route dump init;
#N canvas 805 96 176 114 once 0;
#X obj 13 12 inlet;
#X obj 13 34 spigot 1;
#X obj 13 56 t a b;
#X msg 88 49 0;
#X obj 13 78 outlet;
#X connect 0 0 1 0;
#X connect 1 0 2 0;
#X connect 2 0 4 0;
#X connect 2 1 3 0;
#X connect 3 0 1 1;
#X restore 51 93 pd once;
#X obj 51 57 bang;
#X obj 8 57 bang;
#X connect 0 0 3 0;
#X connect 1 0 2 0;
#X connect 3 0 6 0;
#X connect 3 1 5 0;
#X connect 4 0 1 0;
#X connect 5 0 4 0;
#X connect 6 0 1 0;
