#N canvas 239 75 368 449 10;
#X obj 125 263 t b b b;
#X obj 80 377 del;
#X obj 86 184 moses 1;
#X obj 144 304 outlet;
#X obj 86 151 t a a;
#X obj 86 22 inlet;
#X msg 86 205 b;
#X obj 86 226 outlet;
#X obj 80 354 * 1.2;
#X obj 80 330 realtime;
#X obj 86 130 +;
#X msg 15 268 -1;
#X text 122 357 (add 20% spare time);
#X text 131 226 <--- bang when done;
#X obj 211 20 inlet;
#X msg 211 59 0;
#X text 267 21 stop;
#X obj 86 44 route bang float;
#X msg 86 76 1e+08;
#X text 228 414 2012 \, Roman Haefeli;
#X connect 0 0 9 1;
#X connect 0 1 3 0;
#X connect 0 2 9 0;
#X connect 1 0 11 0;
#X connect 2 0 6 0;
#X connect 2 1 0 0;
#X connect 4 0 2 0;
#X connect 4 1 10 1;
#X connect 5 0 17 0;
#X connect 6 0 7 0;
#X connect 8 0 1 0;
#X connect 9 0 8 0;
#X connect 10 0 4 0;
#X connect 11 0 10 0;
#X connect 14 0 15 0;
#X connect 15 0 10 1;
#X connect 17 0 18 0;
#X connect 17 1 10 0;
#X connect 18 0 10 0;
