#N canvas 566 321 865 513 10;
#N canvas 859 454 483 226 \$0.download.gop 0;
#X obj 20 20 cnv 15 200 20 empty empty Scrub\ older\ version 0 12 0 20 #ffffff #000000 0;
#X obj 343 171 hsl 49 28 0 127 0 0 \$0.yes empty empty -2 -8 0 10 #fcfcfc #000000 #000000 0 1;
#X obj 408 171 hsl 49 28 0 127 0 0 \$0.no empty empty -2 -8 0 10 #fcfcfc #000000 #000000 0 1;
#X obj 340 171 cnv 15 54 28 empty empty empty 5 12 0 20 #7c7c7c #000000 0;
#X obj 342 173 cnv 15 50 24 empty empty Yes 5 12 0 20 #c6ffc7 #000000 0;
#X obj 405 171 cnv 15 54 28 empty empty empty 5 12 0 20 #7c7c7c #000000 0;
#X obj 407 173 cnv 15 50 24 empty empty No 5 12 0 20 #ffc7c6 #000000 0;
#X obj 20 50 cnv 15 440 30 empty \$0.type instrument 2 12 0 14 #dfdfdf #000000 0;
#X obj 20 72 cnv 15 440 30 empty \$0.name sine.pd 2 12 0 14 #dfdfdf #000000 0;
#X obj 20 131 cnv 15 440 30 empty \$0.rename Rename\ to\ sine.pd.bak? 2 14 0 14 #dfdfdf #000000 0;
#X obj 20 93 cnv 15 440 38 empty \$0.version version:\ 0.1.1\ (built-in:\ 0.1.0) 2 12 0 14 #dfdfdf #000000 0;
#X coords 0 -1 1 1 460 200 2 10 10;
#X restore 20 20 pd \$0.download.gop;
#X obj 16 261 r \$1;
#X msg 16 426 label \$1;
#X obj 254 282 r \$0.yes;
#X obj 254 305 sel;
#X obj 285 306 t a;
#X obj 319 309 sel;
#X obj 350 310 t a;
#X obj 319 286 r \$0.no;
#X msg 319 336 0;
#X msg 254 337 1;
#X msg 254 369 answer \$1;
#X obj 254 392 s \$1;
#X msg 128 310 symbol empty;
#X obj 16 450 s \$0.name;
#X msg 105 426 label \$1;
#X msg 195 427 label \$1;
#X obj 16 285 route set;
#X obj 16 309 list;
#X obj 16 333 unpack s s s, f 26;
#X obj 105 450 s \$0.type;
#X obj 195 451 s \$0.version;
#X obj 105 366 sel patch;
#X msg 105 390 symbol instrument;
#X obj 439 244 r \$1;
#X obj 439 267 route msg;
#X obj 439 290 list;
#X obj 439 313 list split 2, f 38;
#X obj 439 353 unpack s s;
#X obj 551 360 s \$0.version;
#X msg 439 452 label \$1;
#X obj 439 475 s \$0.type;
#X obj 496 432 s \$0.name;
#X obj 496 387 t a a, f 14;
#X obj 577 432 s \$0.rename;
#X msg 496 409 label \$1.pd;
#X msg 577 409 label Rename\\\ to\\\ \$1.pd.bak?;
#X msg 551 337 label version:\\\ \$4.\$5.\$6\\\ (built-in:\\\ \$1.\$2.\$3);
#X connect 1 0 17 0;
#X connect 2 0 14 0;
#X connect 3 0 4 0;
#X connect 4 0 10 0;
#X connect 4 1 5 0;
#X connect 5 0 4 1;
#X connect 6 0 9 0;
#X connect 6 1 7 0;
#X connect 7 0 6 1;
#X connect 8 0 6 0;
#X connect 9 0 11 0;
#X connect 10 0 11 0;
#X connect 11 0 12 0;
#X connect 13 0 2 0;
#X connect 13 0 15 0;
#X connect 13 0 16 0;
#X connect 15 0 20 0;
#X connect 16 0 21 0;
#X connect 17 0 18 0;
#X connect 18 0 19 0;
#X connect 19 0 2 0;
#X connect 19 1 22 0;
#X connect 19 2 16 0;
#X connect 22 0 23 0;
#X connect 22 1 15 0;
#X connect 23 0 15 0;
#X connect 24 0 25 0;
#X connect 25 0 26 0;
#X connect 26 0 27 0;
#X connect 27 0 28 0;
#X connect 27 1 37 0;
#X connect 28 0 30 0;
#X connect 28 1 33 0;
#X connect 30 0 31 0;
#X connect 33 0 35 0;
#X connect 33 1 36 0;
#X connect 35 0 32 0;
#X connect 36 0 34 0;
#X connect 37 0 29 0;
#X coords 0 -1 1 1 460 200 2 20 20;
