#N canvas 397 44 434 448 10;
#X obj 308 42 r \$0.send;
#X obj 307 186 s \$0.receive;
#X obj 307 142 netpd-r \$1;
#X obj 308 64 list prepend to;
#X obj 308 86 list trim;
#X obj 308 108 s NETPD;
#X obj 15 13 inlet;
#X obj 307 164 routeOSC /transfer;
#X text 59 12 patch|abstraction <path/to/file> <recipient socket>;
#X msg 29 101 abstraction ../includes/netpd-find-sync.pd 5;
#N canvas 410 100 286 359 send.data 0;
#X obj 15 38 route patch abstraction;
#X obj 15 13 inlet;
#X msg 58 139 clear \, read \$1 \, rewind;
#X obj 15 169 textfile;
#X obj 15 138 until;
#X obj 82 60 list;
#X obj 15 59 list;
#X obj 15 113 t b a a;
#X obj 15 81 t a b;
#X obj 82 82 t a b;
#X msg 79 170 \$2;
#X obj 15 191 t b a;
#X obj 15 213 f;
#X text 108 171 socket;
#X obj 15 235 list append \$1;
#X msg 15 257 /\$1\$2/transfer/data;
#X obj 15 280 list append;
#X obj 15 302 s \$0.send;
#X connect 0 0 6 0;
#X connect 0 1 5 0;
#X connect 1 0 0 0;
#X connect 2 0 3 0;
#X connect 3 0 11 0;
#X connect 3 1 4 1;
#X connect 4 0 3 0;
#X connect 5 0 9 0;
#X connect 6 0 8 0;
#X connect 7 0 4 0;
#X connect 7 1 2 0;
#X connect 7 2 10 0;
#X connect 8 0 7 0;
#X connect 9 0 7 0;
#X connect 10 0 12 1;
#X connect 11 0 12 0;
#X connect 11 1 16 1;
#X connect 12 0 14 0;
#X connect 14 0 15 0;
#X connect 15 0 16 0;
#X connect 16 0 17 0;
#X restore 15 152 pd send.data;
#X connect 0 0 3 0;
#X connect 2 0 7 0;
#X connect 3 0 4 0;
#X connect 4 0 5 0;
#X connect 7 0 1 0;
#X connect 9 0 10 0;
