#N canvas 348 273 390 300 10;
#X obj 222 58 inlet;
#X obj 94 57 inlet;
#X obj 94 199 outlet;
#X msg 210 138 0;
#N canvas 446 369 450 300 length 0;
#X obj 45 102 ==;
#X obj 45 123 select 1 0;
#X obj 144 35 inlet;
#X obj 45 20 inlet;
#X obj 45 203 outlet;
#X obj 99 213 outlet;
#X obj 45 45 t a a;
#X obj 45 154 list;
#X obj 45 67 list length;
#X obj 144 68 list length;
#X connect 0 0 1 0;
#X connect 1 0 7 0;
#X connect 1 1 5 0;
#X connect 2 0 9 0;
#X connect 3 0 6 0;
#X connect 6 0 8 0;
#X connect 6 1 7 1;
#X connect 7 0 4 0;
#X connect 8 0 0 0;
#X connect 9 0 0 1;
#X restore 94 93 pd length;
#N canvas 364 135 459 516 each-element 0;
#X obj 270 18 inlet;
#X obj 20 15 inlet;
#X obj 45 114 until;
#X obj 45 137 f;
#X obj 45 160 t a a;
#X msg 91 114 0;
#X obj 90 154 + 1;
#X msg 45 184 get \$1 1;
#X obj 45 207 t a a;
#X obj 45 234 list store;
#X obj 181 212 list store;
#X obj 45 91 t b b a, f 14;
#X obj 20 46 t b a b, f 20;
#X obj 181 235 route float symbol;
#X obj 45 293 list prepend;
#X msg 114 267 0;
#X msg 149 267 1;
#X obj 45 316 route 0 1;
#X obj 45 365 select 0;
#X obj 164 351 select dummy;
#X msg 90 391 0;
#X obj 20 442 f;
#X msg 137 409 1;
#X obj 20 468 outlet;
#X obj 45 342 list;
#X obj 164 326 list;
#X obj 233 325 list;
#X connect 0 0 10 1;
#X connect 1 0 12 0;
#X connect 2 0 3 0;
#X connect 3 0 4 0;
#X connect 4 0 7 0;
#X connect 4 1 6 0;
#X connect 5 0 3 1;
#X connect 6 0 3 1;
#X connect 7 0 8 0;
#X connect 8 0 9 0;
#X connect 8 1 10 0;
#X connect 9 0 14 0;
#X connect 9 1 2 1;
#X connect 10 0 13 0;
#X connect 11 0 2 0;
#X connect 11 1 5 0;
#X connect 11 2 9 1;
#X connect 12 0 21 0;
#X connect 12 1 11 0;
#X connect 12 2 22 0;
#X connect 13 0 15 0;
#X connect 13 0 18 1;
#X connect 13 1 16 0;
#X connect 13 1 26 0;
#X connect 14 0 17 0;
#X connect 15 0 14 1;
#X connect 16 0 14 1;
#X connect 17 0 24 0;
#X connect 17 1 25 0;
#X connect 18 1 20 0;
#X connect 19 1 20 0;
#X connect 20 0 21 1;
#X connect 21 0 23 0;
#X connect 22 0 21 1;
#X connect 24 0 18 0;
#X connect 25 0 19 0;
#X connect 26 0 19 1;
#X restore 94 136 pd each-element;
#X text 31 256 borrowed from footils' [list-abs/list-compare];
#X connect 0 0 4 1;
#X connect 0 0 5 1;
#X connect 1 0 4 0;
#X connect 3 0 2 0;
#X connect 4 0 5 0;
#X connect 4 1 3 0;
#X connect 5 0 2 0;
