#N struct 1003.rectangle float id float x float y float w float h float
txtclr float boxclr float bgclr symbol label;
#N canvas 210 112 576 318 10;
#N canvas 247 349 709 287 \$0.gop 0;
#X scalar 1003.rectangle 1 0 0 100 16 0 666 777  \;;
#X scalar 1003.rectangle 0 0 0 100 16 0 666 888  \;;
#X coords 0 0 100 16 100 16 2 50 50;
#X restore 50 50 pd \$0.gop;
#X obj 193 275 s \$0.expand;
#X obj 193 232 tgl 30 0 empty empty empty 17 7 0 10 #fcfcfc #000000
#000000 0 1;
#N canvas 30 112 670 630 create.items 0;
#X obj 43 526 s pd-\$0.gop;
#X obj 43 154 until;
#X obj 43 177 f;
#X obj 43 222 t a a;
#X obj 89 224 + 1;
#X obj 166 184 s pd-\$0.gop;
#X msg 166 160 clear;
#X obj 517 410 list store;
#X msg 517 386 get \$1 1;
#X obj 43 96 + 1;
#X obj 517 365 - 1;
#X obj 574 385 r \$0.items;
#X obj 84 69 r \$0.length;
#X obj 43 200 mod, f 14;
#X obj 43 124 t a b a b, f 21;
#X text 70 96 items + selected;
#X msg 84 153 1;
#X obj 43 67 f;
#X obj 16 16 r \$0.redraw;
#X obj 43 454 pack f f f f f f f f s, f 64;
#X text 50 438 id;
#X text 100 437 x;
#X text 146 437 y;
#X text 193 436 w;
#X text 240 435 h;
#X text 393 437 bgclr;
#X text 338 437 boxclr;
#X text 434 438 label;
#X obj 43 478 list prepend scalar \$0.rectangle;
#X obj 43 501 list trim;
#X obj 43 247 t a a a a a a a a a, f 64;
#X obj 466 294 moses 1, f 9;
#X obj 466 319 b;
#X obj 466 342 symbol;
#X obj 499 319 r \$0.sel.value;
#X text 289 436 txtclr;
#X obj 344 347 r \$0.sel.clr;
#X obj 332 299 b;
#X obj 281 370 list append;
#X obj 332 322 list append;
#X obj 359 296 r \$0.items.clr;
#X obj 281 400 unpack f f f;
#X obj 281 274 sel 0, f 9;
#X obj 185 363 r \$0.width;
#X obj 201 397 r \$0.height;
#X msg 90 345 0;
#X msg 138 347 0;
#X obj 16 577 f;
#X obj 31 553 r \$0.expand;
#X obj 16 600 s \$0.expand;
#X obj 16 39 t b b;
#X connect 1 0 2 0;
#X connect 2 0 13 0;
#X connect 3 0 30 0;
#X connect 3 1 4 0;
#X connect 4 0 2 1;
#X connect 6 0 5 0;
#X connect 7 0 19 8;
#X connect 8 0 7 0;
#X connect 9 0 14 0;
#X connect 10 0 8 0;
#X connect 11 0 7 1;
#X connect 12 0 17 1;
#X connect 13 0 3 0;
#X connect 14 0 1 0;
#X connect 14 1 16 0;
#X connect 14 2 13 1;
#X connect 14 3 6 0;
#X connect 16 0 2 1;
#X connect 17 0 9 0;
#X connect 18 0 50 0;
#X connect 19 0 28 0;
#X connect 28 0 29 0;
#X connect 29 0 0 0;
#X connect 30 0 19 0;
#X connect 30 1 45 0;
#X connect 30 2 46 0;
#X connect 30 5 42 0;
#X connect 30 8 31 0;
#X connect 31 0 32 0;
#X connect 31 1 10 0;
#X connect 32 0 33 0;
#X connect 33 0 19 8;
#X connect 34 0 33 1;
#X connect 36 0 38 1;
#X connect 37 0 39 0;
#X connect 38 0 41 0;
#X connect 39 0 41 0;
#X connect 40 0 39 1;
#X connect 41 0 19 5;
#X connect 41 1 19 6;
#X connect 41 2 19 7;
#X connect 42 0 38 0;
#X connect 42 1 37 0;
#X connect 43 0 19 3;
#X connect 44 0 19 4;
#X connect 45 0 19 1;
#X connect 46 0 19 2;
#X connect 47 0 49 0;
#X connect 48 0 47 1;
#X connect 50 0 47 0;
#X connect 50 1 17 0;
#X restore 190 98 pd create.items;
#N canvas 338 166 671 413 expand 0;
#X msg 58 171 traverse pd-\$1.gop;
#X obj 58 145 \$0;
#X msg 12 169 next;
#X obj 12 198 pointer \$0.rectangle;
#X obj 12 248 get \$0.rectangle id;
#X obj 12 325 set \$0.rectangle y;
#X obj 12 146 until;
#X obj 12 301 * 0, f 16;
#X obj 12 120 t b b a, f 16;
#X obj 12 67 sel 0 1, f 10;
#X msg 12 90 0;
#X obj 40 90 f 16;
#X obj 12 44 r \$0.expand;
#X obj 12 223 t p p p, f 47;
#X obj 12 271 t a a, f 26;
#X obj 213 320 r \$0.sel.value;
#X obj 165 319 symbol;
#X obj 165 295 sel 0;
#X obj 165 343 set -symbol \$0.rectangle label;
#X obj 422 362 s pd-\$0.gop;
#X obj 422 162 * 16;
#X obj 422 137 + 1;
#X obj 422 64 r \$0.expand;
#X obj 437 89 r \$0.length;
#X obj 422 114 * 0;
#X text 15 16 Move scalars around;
#X text 419 34 resize GOP area;
#X obj 442 337 s \$0.top;
#X obj 73 89 r \$0.height;
#X obj 464 161 r \$0.height;
#X obj 422 286 list append;
#X obj 501 286 r \$0.width;
#X msg 422 310 coords 0 0 \$2 \$1 \$2 \$1 2 50 50;
#X obj 422 185 t a a;
#X msg 449 234 expand \$1;
#X obj 449 257 s \$1;
#X obj 449 211 -;
#X connect 0 0 3 0;
#X connect 1 0 0 0;
#X connect 2 0 3 0;
#X connect 3 0 13 0;
#X connect 3 2 6 1;
#X connect 4 0 14 0;
#X connect 6 0 2 0;
#X connect 7 0 5 0;
#X connect 8 0 6 0;
#X connect 8 1 1 0;
#X connect 8 2 7 1;
#X connect 9 0 10 0;
#X connect 9 1 11 0;
#X connect 10 0 8 0;
#X connect 11 0 8 0;
#X connect 12 0 9 0;
#X connect 13 0 4 0;
#X connect 13 1 5 1;
#X connect 13 2 18 1;
#X connect 14 0 7 0;
#X connect 14 1 17 0;
#X connect 15 0 16 1;
#X connect 16 0 18 0;
#X connect 17 0 16 0;
#X connect 20 0 33 0;
#X connect 21 0 20 0;
#X connect 22 0 24 0;
#X connect 23 0 24 1;
#X connect 24 0 21 0;
#X connect 28 0 11 1;
#X connect 29 0 20 1;
#X connect 29 0 36 1;
#X connect 30 0 32 0;
#X connect 31 0 30 1;
#X connect 32 0 19 0;
#X connect 32 0 27 0;
#X connect 33 0 30 0;
#X connect 33 1 36 0;
#X connect 34 0 35 0;
#X connect 36 0 34 0;
#X restore 190 170 pd expand;
#N canvas 0 106 519 515 register.clicks 0;
#X obj 15 45 route click;
#X obj 15 78 unpack p f f;
#X obj 15 100 get \$0.rectangle id label;
#X obj 162 164 s \$0.sel.value;
#X obj 69 170 r \$0.expand;
#X obj 69 193 == 0;
#X obj 15 180 f;
#X obj 15 220 t b a, f 8;
#X obj 15 267 f, f 8;
#X obj 42 470 s \$0.expand;
#X obj 15 243 del 0;
#X obj 15 123 b;
#X obj 15 146 del 0;
#X obj 207 113 r \$0.expand;
#X obj 162 139 spigot 1;
#X obj 15 18 inlet;
#X obj 15 446 t a a;
#X obj 15 492 s \$0.active;
#X obj 48 371 netpd-mutex MXDROPDOWN;
#X obj 15 419 spigot;
#X obj 15 290 moses 1;
#X obj 15 313 t a a;
#X obj 54 315 t a b a;
#X obj 48 394 t a a;
#X obj 73 339 f;
#X text 102 339 <- if we do not acquire the lock immediately \, we
do not even request it;
#X obj 106 264 r \$0.to.mutex;
#X connect 0 0 1 0;
#X connect 1 0 2 0;
#X connect 2 0 11 0;
#X connect 2 1 14 0;
#X connect 4 0 5 0;
#X connect 5 0 6 1;
#X connect 6 0 7 0;
#X connect 7 0 10 0;
#X connect 7 1 8 1;
#X connect 8 0 20 0;
#X connect 10 0 8 0;
#X connect 11 0 12 0;
#X connect 12 0 6 0;
#X connect 13 0 14 1;
#X connect 14 0 3 0;
#X connect 15 0 0 0;
#X connect 16 0 17 0;
#X connect 16 1 9 0;
#X connect 18 0 23 0;
#X connect 19 0 16 0;
#X connect 20 0 21 0;
#X connect 20 1 22 0;
#X connect 21 0 18 0;
#X connect 21 1 19 0;
#X connect 22 0 19 0;
#X connect 22 1 24 0;
#X connect 22 2 18 0;
#X connect 23 0 19 1;
#X connect 23 1 24 1;
#X connect 24 0 18 0;
#X connect 26 0 20 0;
#X restore 190 146 pd register.clicks;
#N canvas 306 206 433 148 the.struct 0;
#X obj 11 112 outlet;
#X obj 12 12 filledpolygon bgclr boxclr 1 0 0 w 0 w h 0 h;
#X obj 11 76 struct \$0.rectangle float id float x float y float w
float h float txtclr float boxclr float bgclr symbol label;
#X obj 13 44 drawsymbol label 1 2 txtclr;
#X connect 2 0 0 0;
#X restore 190 122 pd the.struct;
#X text 338 41 arg2: width;
#X text 338 27 arg1: sendname;
#X text 338 55 arg3: height;
#X obj 190 26 namecanvas \$0.top;
#N canvas 430 368 450 317 init 0;
#X obj 12 10 loadbang;
#X obj 70 83 pdcontrol;
#X msg 70 60 args 0;
#X obj 268 166 s \$0.items.clr;
#X obj 268 141 pack f f f;
#X obj 183 142 pack f f f;
#X obj 183 167 s \$0.sel.clr;
#X obj 126 221 s \$0.height;
#X obj 98 246 s \$0.width;
#X obj 12 33 t b b b, f 20;
#X obj 12 269 s \$1;
#X msg 12 244 items symbol;
#X msg 129 58 list _placeholder 100 16 10 0 666 888 0 666 777;
#X obj 70 106 unpack s f f f f f f f f f, f 43;
#X obj 155 195 s \$0.fontsize;
#X connect 0 0 9 0;
#X connect 1 0 13 0;
#X connect 2 0 1 0;
#X connect 4 0 3 0;
#X connect 5 0 6 0;
#X connect 9 0 11 0;
#X connect 9 1 2 0;
#X connect 9 2 12 0;
#X connect 11 0 10 0;
#X connect 12 0 13 0;
#X connect 13 1 8 0;
#X connect 13 2 7 0;
#X connect 13 3 14 0;
#X connect 13 4 5 0;
#X connect 13 5 5 1;
#X connect 13 6 5 2;
#X connect 13 7 4 0;
#X connect 13 8 4 1;
#X connect 13 9 4 2;
#X restore 190 50 pd init;
#N canvas 349 359 424 279 methods 0;
#N canvas 0 106 389 271 items 0;
#X obj 11 7 r \$1;
#X obj 45 142 list length;
#X obj 45 164 s \$0.length;
#X obj 62 119 s \$0.items;
#X msg 11 211 0;
#X obj 11 234 s \$0.expand;
#X obj 28 189 s \$0.redraw;
#X obj 11 96 t b b a a;
#X obj 11 30 route items;
#X obj 11 53 list;
#X connect 0 0 8 0;
#X connect 1 0 2 0;
#X connect 4 0 5 0;
#X connect 7 0 4 0;
#X connect 7 1 6 0;
#X connect 7 2 1 0;
#X connect 7 3 3 0;
#X connect 8 0 9 0;
#X connect 9 0 7 0;
#X restore 15 44 pd items;
#X text 13 13 input;
#X text 166 16 output;
#N canvas 0 106 439 129 selected 0;
#X obj 30 18 r \$0.sel.value;
#X msg 30 41 selected \$1;
#X obj 30 64 s \$1;
#X connect 0 0 1 0;
#X connect 1 0 2 0;
#X restore 165 44 pd selected;
#N canvas 0 106 439 174 width 0;
#X obj 11 7 r \$1;
#X obj 11 99 s \$0.redraw;
#X obj 11 29 route width;
#X obj 11 52 t b a;
#X obj 38 79 s \$0.width;
#X connect 0 0 2 0;
#X connect 2 0 3 0;
#X connect 3 0 1 0;
#X connect 3 1 4 0;
#X restore 15 68 pd width;
#N canvas 0 106 439 174 height 0;
#X obj 11 7 r \$1;
#X obj 11 99 s \$0.redraw;
#X obj 11 52 t b a;
#X obj 11 29 route height;
#X obj 38 79 s \$0.height;
#X connect 0 0 3 0;
#X connect 2 0 1 0;
#X connect 2 1 4 0;
#X connect 3 0 2 0;
#X restore 15 92 pd height;
#N canvas 0 106 439 271 items_* 0;
#X obj 11 7 r \$1;
#X obj 11 199 s \$0.redraw;
#X obj 11 65 t b a;
#X obj 86 68 t b a;
#X obj 161 70 t b a;
#X obj 56 153 pack f f f;
#X obj 56 126 f;
#X obj 11 100 t b b;
#X obj 56 177 s \$0.items.clr;
#X obj 11 29 route items_text_color items_box_color items_background_color
;
#X obj 257 43 r \$0.items.clr;
#X obj 257 66 unpack f f f;
#X connect 0 0 9 0;
#X connect 2 0 7 0;
#X connect 2 1 6 1;
#X connect 3 0 7 0;
#X connect 3 1 5 1;
#X connect 4 0 7 0;
#X connect 4 1 5 2;
#X connect 5 0 8 0;
#X connect 6 0 5 0;
#X connect 7 0 1 0;
#X connect 7 1 6 0;
#X connect 9 0 2 0;
#X connect 9 1 3 0;
#X connect 9 2 4 0;
#X connect 10 0 11 0;
#X connect 11 0 6 1;
#X connect 11 1 5 1;
#X connect 11 2 5 2;
#X restore 15 164 pd items_*;
#N canvas 0 106 439 271 selected_* 0;
#X obj 11 7 r \$1;
#X obj 11 199 s \$0.redraw;
#X obj 11 29 route selected_text_color selected_box_color selected_background_color
;
#X obj 56 177 s \$0.sel.clr;
#X obj 11 65 t b a;
#X obj 98 66 t b a;
#X obj 185 66 t b a;
#X obj 56 153 pack f f f;
#X obj 56 126 f;
#X obj 11 100 t b b;
#X obj 245 71 r \$0.sel.clr;
#X obj 245 94 unpack f f f;
#X connect 0 0 2 0;
#X connect 2 0 4 0;
#X connect 2 1 5 0;
#X connect 2 2 6 0;
#X connect 4 0 9 0;
#X connect 4 1 8 1;
#X connect 5 0 9 0;
#X connect 5 1 7 1;
#X connect 6 0 9 0;
#X connect 6 1 7 2;
#X connect 7 0 3 0;
#X connect 8 0 7 0;
#X connect 9 0 1 0;
#X connect 9 1 8 0;
#X connect 10 0 11 0;
#X connect 11 0 8 1;
#X connect 11 1 7 1;
#X connect 11 2 7 2;
#X restore 15 140 pd selected_*;
#N canvas 0 106 439 174 fontsize 0;
#X obj 11 7 r \$1;
#X obj 11 99 s \$0.redraw;
#X obj 11 52 t b a;
#X obj 11 29 route fontsize;
#X obj 38 79 s \$0.fontsize;
#X connect 0 0 3 0;
#X connect 2 0 1 0;
#X connect 2 1 4 0;
#X connect 3 0 2 0;
#X restore 15 116 pd fontsize;
#N canvas 0 106 439 129 active 0;
#X obj 30 64 s \$1;
#X msg 30 41 active \$1;
#X obj 30 18 r \$0.active;
#X connect 1 0 0 0;
#X connect 2 0 1 0;
#X restore 165 68 pd active;
#N canvas 0 103 426 372 setlabel 0;
#X obj 11 7 r \$1;
#X obj 11 30 route setlabel;
#X msg 57 141 traverse pd-\$1.gop;
#X obj 57 115 \$0;
#X msg 11 139 next;
#X obj 11 168 pointer \$0.rectangle;
#X obj 11 218 get \$0.rectangle id;
#X obj 11 116 until;
#X obj 11 288 symbol;
#X obj 11 242 sel 0;
#X obj 11 312 set -symbol \$0.rectangle label;
#X obj 11 265 t b b;
#X obj 11 193 t p p, f 30;
#X obj 267 231 b;
#X obj 11 91 t b b a, f 16;
#X obj 11 53 symbol;
#X connect 0 0 1 0;
#X connect 1 0 15 0;
#X connect 2 0 5 0;
#X connect 3 0 2 0;
#X connect 4 0 5 0;
#X connect 5 0 12 0;
#X connect 6 0 9 0;
#X connect 7 0 4 0;
#X connect 8 0 10 0;
#X connect 9 0 11 0;
#X connect 11 0 8 0;
#X connect 11 1 13 0;
#X connect 12 0 6 0;
#X connect 12 1 10 1;
#X connect 13 0 7 1;
#X connect 14 0 7 0;
#X connect 14 1 3 0;
#X connect 14 2 8 1;
#X connect 15 0 14 0;
#X restore 15 187 pd setlabel;
#N canvas 0 106 485 407 drop 0;
#X obj 11 7 r \$1;
#X obj 11 30 route drop;
#X obj 11 53 sel 0 1;
#X msg 11 83 0;
#X msg 40 82 1;
#X obj 11 120 s \$0.to.mutex;
#X connect 0 0 1 0;
#X connect 1 0 2 0;
#X connect 2 0 3 0;
#X connect 2 1 4 0;
#X connect 3 0 5 0;
#X connect 4 0 5 0;
#X restore 15 210 pd drop;
#X restore 190 74 pd methods;
#X obj 269 275 s \$0.top;
#X msg 269 250 font \$1 100 100;
#X text 338 83 arg5: selected text color;
#X text 338 97 arg6: selected box color;
#X text 338 111 arg7: selected background color;
#X text 338 125 arg8: items text color;
#X text 338 138 arg9: items box color;
#X text 332 152 arg10: items background color;
#X text 338 69 arg4: fontsize;
#X obj 269 226 r \$0.fontsize;
#N canvas 305 510 387 67 NETPD 0;
#X msg 12 13 version 0 1 0;
#X restore 474 15 pd NETPD 2 0;
#X connect 2 0 1 0;
#X connect 6 0 5 0;
#X connect 14 0 13 0;
#X connect 22 0 14 0;
#X coords 0 0 100 16 100 16 2 50 50;
