#N canvas 458 70 548 631 10;
#X declare -stdpath extra/iemnet -stdpath extra/net;
#X declare -stdpath mrpeach -stdpath slip;
#X obj 177 322 unpackOSC;
#X obj 177 100 packOSC;
#X obj 326 77 inlet;
#X obj 326 99 route connect disconnect;
#X obj 326 121 list;
#X msg 326 141 connect \$1 \$2;
#X msg 396 164 disconnect;
#X obj 264 410 outlet status;
#X msg 324 378 connection \$1;
#X obj 177 401 routeOSC /*;
#X obj 177 378 t a a;
#X obj 204 447 netpd-sender-get;
#X obj 6 592 s NETPD;
#X obj 6 569 list trim;
#X obj 6 13 r NETPD;
#X obj 177 205 netpd-tcpclient;
#X text 73 34 we assume \, that there is no separate package for slip
yet;
#N canvas 377 44 639 444 check_protocol_version 0;
#X obj 10 10 inlet;
#X obj 10 281 outlet;
#X obj 10 260 spigot;
#X obj 10 32 t a a;
#X obj 412 10 inlet;
#X obj 115 56 t b b;
#X obj 37 106 spigot;
#X msg 115 78 1;
#X obj 37 174 route;
#X obj 37 196 route;
#X msg 37 239 1;
#X msg 89 153 0;
#X obj 37 218 t b b;
#X obj 64 382 s NETPD;
#X msg 64 359 to /s/server/num_of_clients;
#X obj 126 151 r \$0.protocol_version;
#X obj 126 173 unpack;
#X obj 37 130 routeOSC /s/server/protocol_version;
#X obj 37 152 t a a b;
#X obj 174 208 list append;
#X obj 111 229 list append;
#X obj 111 209 b;
#X obj 111 338 netpd-error netpd-client;
#X msg 111 317 protocol version mismatch \, server: \$1 \$2 \, client:
\$3 \$4;
#X obj 354 9 inlet;
#X obj 402 175 list split 1;
#X obj 402 152 list append;
#X obj 354 167 sel 0;
#X obj 402 129 t b a;
#X obj 436 198 route bang;
#X msg 402 106 99 104 46 110 117 109 98 101 114;
#X obj 354 65 spigot;
#X msg 310 293 wrong protocol \, can't talk to ancient netpd-server
;
#X obj 273 200 delay 5000;
#X msg 281 180 stop;
#X msg 273 272 unknown protocol (server does not speak netpd);
#X obj 364 220 routeOSC /s/server/num_of_clients;
#X msg 364 241 1;
#X obj 273 230 f 0;
#X obj 273 252 sel 0 1;
#X msg 292 343 protocol version in use was not confirmed by server
\, talking to it anyway;
#X obj 137 255 f;
#X msg 95 283 /s/server/num_of_clients \$1;
#X obj 115 34 sel 1 0;
#X msg 287 147 0;
#X obj 253 411 outlet;
#X msg 254 382 0;
#X msg 201 383 1;
#X obj 143 90 netpd-s /server/protocol_version s;
#X connect 0 0 3 0;
#X connect 2 0 1 0;
#X connect 3 0 2 0;
#X connect 3 1 6 0;
#X connect 4 0 43 0;
#X connect 5 0 7 0;
#X connect 5 0 30 0;
#X connect 5 0 33 0;
#X connect 5 1 48 0;
#X connect 6 0 17 0;
#X connect 6 0 36 0;
#X connect 7 0 6 1;
#X connect 7 0 31 1;
#X connect 8 0 9 0;
#X connect 8 1 21 0;
#X connect 9 0 12 0;
#X connect 9 1 21 0;
#X connect 10 0 2 1;
#X connect 11 0 6 1;
#X connect 11 0 31 1;
#X connect 12 0 10 0;
#X connect 12 1 14 0;
#X connect 12 1 47 0;
#X connect 14 0 13 0;
#X connect 15 0 19 1;
#X connect 15 0 16 0;
#X connect 16 0 8 1;
#X connect 16 1 9 1;
#X connect 17 0 18 0;
#X connect 18 0 8 0;
#X connect 18 1 19 0;
#X connect 18 2 11 0;
#X connect 18 2 34 0;
#X connect 19 0 20 1;
#X connect 20 0 23 0;
#X connect 21 0 20 0;
#X connect 23 0 22 0;
#X connect 24 0 31 0;
#X connect 25 0 27 1;
#X connect 25 1 26 1;
#X connect 25 1 29 0;
#X connect 26 0 25 0;
#X connect 27 0 26 0;
#X connect 28 0 26 0;
#X connect 28 1 26 1;
#X connect 29 0 32 0;
#X connect 29 0 34 0;
#X connect 30 0 28 0;
#X connect 31 0 27 0;
#X connect 32 0 22 0;
#X connect 33 0 38 0;
#X connect 34 0 33 0;
#X connect 35 0 22 0;
#X connect 36 0 37 0;
#X connect 36 0 41 1;
#X connect 37 0 38 1;
#X connect 38 0 39 0;
#X connect 39 0 35 0;
#X connect 39 1 40 0;
#X connect 39 1 41 0;
#X connect 39 1 10 0;
#X connect 39 1 47 0;
#X connect 40 0 22 0;
#X connect 41 0 42 0;
#X connect 42 0 1 0;
#X connect 43 0 5 0;
#X connect 43 1 44 0;
#X connect 43 1 46 0;
#X connect 44 0 38 1;
#X connect 46 0 45 0;
#X connect 47 0 45 0;
#X restore 177 352 pd check_protocol_version;
#X obj 370 487 loadbang;
#X obj 370 509 \$0;
#X msg 370 531 \; \$1.protocol_version 2 0;
#X obj 177 242 t a a;
#X obj 74 10 declare -stdpath mrpeach -stdpath slip;
#N canvas 0 44 427 478 switch 0;
#X obj 6 36 list trim;
#X obj 6 59 route to receiver;
#X obj 6 86 list prepend;
#X obj 6 108 list trim;
#X obj 6 13 inlet;
#X obj 6 352 outlet;
#X obj 117 388 outlet;
#X obj 260 267 netpd-error netpd-client;
#X msg 260 241 not a valid receiver: \$1;
#X obj 58 253 t a b;
#X msg 85 284 prefix /b;
#X obj 174 178 list split 1;
#X obj 174 204 route float;
#X obj 174 226 int;
#X obj 174 276 list append;
#X obj 174 298 list trim;
#X obj 174 248 t b a;
#X msg 201 341 prefix /\$1;
#X obj 6 129 route l g p b s;
#X obj 75 199 t a b;
#X msg 102 230 prefix /s;
#X text 111 130 <- valid receivers (and client ids);
#X connect 0 0 1 0;
#X connect 1 0 2 0;
#X connect 1 1 2 1;
#X connect 2 0 3 0;
#X connect 3 0 18 0;
#X connect 4 0 0 0;
#X connect 8 0 7 0;
#X connect 9 0 6 0;
#X connect 9 1 10 0;
#X connect 10 0 6 0;
#X connect 11 0 12 0;
#X connect 11 1 14 1;
#X connect 12 0 13 0;
#X connect 12 1 8 0;
#X connect 13 0 16 0;
#X connect 14 0 15 0;
#X connect 15 0 6 0;
#X connect 16 0 14 0;
#X connect 16 1 17 0;
#X connect 17 0 6 0;
#X connect 18 0 5 0;
#X connect 18 1 5 0;
#X connect 18 2 5 0;
#X connect 18 3 9 0;
#X connect 18 4 19 0;
#X connect 18 5 11 0;
#X connect 19 0 6 0;
#X connect 19 1 20 0;
#X connect 20 0 6 0;
#X restore 6 77 pd switch (local vs. relayed);
#X obj 6 322 unpackOSC;
#N canvas 0 44 414 230 local_passthrough 0;
#X obj 15 15 inlet;
#X obj 15 178 outlet;
#X text 41 83 Do nothing here \, just pass local message as is;
#X connect 0 0 1 0;
#X restore 6 204 pd local_passthrough;
#X text 293 204 OSC transport;
#X text 11 221 ------------------------------------------------------------
;
#X text 11 187 ------------------------------------------------------------
;
#N canvas 673 161 314 103 unpack_from_TCP 0;
#X obj 10 11 inlet;
#X obj 10 55 outlet;
#X obj 10 33 slipdec 65536;
#X text 98 33 unpack from serial transport;
#X connect 0 0 2 0;
#X connect 2 0 1 0;
#X restore 177 268 pd unpack_from_TCP;
#N canvas 673 161 314 103 pack_for_TCP 0;
#X obj 10 11 inlet;
#X obj 10 33 slipenc 65536;
#X obj 10 55 outlet;
#X text 98 33 Packetize for serial transport;
#X connect 0 0 1 0;
#X connect 1 0 2 0;
#X restore 177 164 pd pack_for_TCP;
#X obj 6 493 list prepend from;
#N canvas 0 44 294 300 switch 0;
#X obj 140 50 list trim;
#X obj 140 73 route receiver;
#X obj 140 27 r NETPD;
#X obj 27 28 inlet;
#X obj 27 250 outlet;
#X obj 88 252 outlet;
#X obj 140 95 route p;
#X msg 140 121 1;
#X obj 88 174 spigot 0;
#X obj 27 175 spigot 1;
#X msg 113 121 0;
#X msg 179 122 1;
#X msg 206 122 0;
#X obj 88 201 slipenc 65536;
#X connect 0 0 1 0;
#X connect 1 0 6 0;
#X connect 2 0 0 0;
#X connect 3 0 9 0;
#X connect 3 0 8 0;
#X connect 6 0 7 0;
#X connect 6 0 10 0;
#X connect 6 1 11 0;
#X connect 6 1 12 0;
#X connect 7 0 8 1;
#X connect 8 0 13 0;
#X connect 9 0 4 0;
#X connect 10 0 9 1;
#X connect 11 0 9 1;
#X connect 12 0 8 1;
#X connect 13 0 5 0;
#X restore 6 294 pd switch (local vs. preset);
#N canvas 194 160 318 195 sender 0;
#X obj 91 61 list trim;
#X obj 91 84 route receiver;
#X obj 91 38 r NETPD;
#X obj 16 153 outlet;
#X obj 16 31 inlet;
#X obj 16 53 b;
#X obj 16 125 list append b;
#X connect 0 0 1 0;
#X connect 1 0 6 1;
#X connect 2 0 0 0;
#X connect 4 0 5 0;
#X connect 5 0 6 0;
#X connect 6 0 3 0;
#X restore 122 446 pd sender;
#X obj 6 378 t a b;
#X msg 122 493 sender \$1;
#X obj 49 353 list prepend preset;
#N canvas 0 44 488 169 packOSC 0;
#X obj 38 62 packOSC;
#X obj 11 15 inlet;
#X obj 11 37 t b a;
#X obj 11 89 list append;
#X obj 11 111 outlet;
#X text 93 17 We buffer the output of [packOSC] in order to work-around
a reentrancy bug of [packOSC].;
#X connect 0 0 3 1;
#X connect 1 0 2 0;
#X connect 2 0 3 0;
#X connect 2 1 0 0;
#X connect 3 0 4 0;
#X restore 6 101 pd packOSC (fixed);
#X connect 0 0 17 0;
#X connect 1 0 30 0;
#X connect 2 0 3 0;
#X connect 3 0 4 0;
#X connect 3 1 6 0;
#X connect 4 0 5 0;
#X connect 5 0 15 0;
#X connect 6 0 15 0;
#X connect 8 0 7 0;
#X connect 9 0 31 0;
#X connect 10 0 9 0;
#X connect 10 1 11 0;
#X connect 11 0 35 0;
#X connect 13 0 12 0;
#X connect 14 0 23 0;
#X connect 15 0 21 0;
#X connect 15 2 17 2;
#X connect 15 3 7 0;
#X connect 17 0 10 0;
#X connect 17 1 8 0;
#X connect 18 0 19 0;
#X connect 19 0 20 0;
#X connect 21 0 29 0;
#X connect 21 1 17 1;
#X connect 23 0 37 0;
#X connect 23 1 1 0;
#X connect 24 0 34 0;
#X connect 25 0 32 0;
#X connect 29 0 0 0;
#X connect 30 0 15 0;
#X connect 31 0 13 0;
#X connect 32 0 24 0;
#X connect 32 1 36 0;
#X connect 33 0 35 0;
#X connect 34 0 31 0;
#X connect 34 1 33 0;
#X connect 35 0 13 0;
#X connect 36 0 13 0;
#X connect 37 0 25 0;
