#N canvas 520 65 502 307 10;
#X declare -path slip;
#X obj 1 0 cnv 15 500 30 empty empty empty 20 12 0 14 #e0e0e0 #404040
0;
#X text 268 253 inlet0: path to check;
#X text 8 7 netpd-check-external - check if an external is installed
;
#X text 10 50 [netpd-check-external] is used to give feedback to the
user when a declared external is not found.;
#X obj 13 168 netpd-check-external slip slipdec-help.pd;
#X text 280 213 arg1: library name;
#X text 280 233 arg2: file of library to check for;
#X text 11 98 NOTE: The check can only find something if the external
has been declared.;
#X obj 13 139 declare -path slip;
