#N canvas 738 109 498 516 10;
#X obj 57 151 t b b b;
#X obj 365 409 outlet;
#X obj 76 311 t a a;
#X obj 57 10 inlet;
#X obj 103 403 outlet;
#X obj 55 192 realtime;
#X obj 76 290 +;
#X text 144 405 <--- bang when done;
#X obj 325 15 inlet;
#X text 381 16 stop;
#X obj 189 119 route bang float;
#X msg 189 151 1e+08;
#N canvas 0 259 258 259 grouped_delay 0;
#X obj 16 75 +;
#X obj 16 115 t b a;
#X obj 61 119 t a b;
#X msg 120 87 0;
#X obj 16 95 moses 20;
#X obj 61 145 delay;
#X obj 16 25 inlet;
#X obj 120 22 inlet;
#X text 180 41 reset;
#X obj 61 181 outlet;
#X msg 138 118 stop;
#X obj 160 187 outlet;
#X obj 120 42 t b b b;
#X connect 0 0 4 0;
#X connect 1 1 0 1;
#X connect 2 0 5 0;
#X connect 2 1 3 0;
#X connect 2 1 11 0;
#X connect 3 0 0 1;
#X connect 4 0 1 0;
#X connect 4 1 2 0;
#X connect 5 0 9 0;
#X connect 6 0 0 0;
#X connect 7 0 12 0;
#X connect 10 0 5 0;
#X connect 12 0 3 0;
#X connect 12 1 10 0;
#X connect 12 2 11 0;
#X restore 55 213 pd grouped_delay;
#X text 359 488 2016 \, Roman Haefeli;
#N canvas 591 237 307 223 global.lock 0;
#X obj 15 14 inlet;
#X obj 15 166 outlet;
#X obj 15 112 netpd-mutex NB_UNTIL;
#X msg 15 57 1;
#X obj 15 139 sel 1;
#X msg 91 55 0;
#X obj 91 16 inlet;
#X obj 15 34 del 0;
#X obj 91 36 del 0;
#X connect 0 0 7 0;
#X connect 2 0 4 0;
#X connect 3 0 2 0;
#X connect 4 0 1 0;
#X connect 5 0 2 0;
#X connect 6 0 8 0;
#X connect 7 0 3 0;
#X connect 8 0 5 0;
#X restore 57 80 pd global.lock;
#X obj 57 129 until;
#X msg 76 263 -1;
#X obj 7 157 t a;
#X obj 189 185 t a;
#X obj 57 30 t b a;
#X obj 76 333 moses 1;
#X obj 76 365 t b b;
#X obj 365 383 b;
#X obj 76 453 s \$0.done;
#X obj 138 35 r \$0.done;
#X obj 325 47 s \$0.done;
#X obj 138 55 t b b;
#X connect 0 0 5 1;
#X connect 0 1 16 0;
#X connect 0 2 5 0;
#X connect 2 0 20 0;
#X connect 2 1 6 1;
#X connect 3 0 19 0;
#X connect 5 0 12 0;
#X connect 6 0 2 0;
#X connect 8 0 25 0;
#X connect 10 0 11 0;
#X connect 10 1 18 0;
#X connect 11 0 18 0;
#X connect 12 0 17 0;
#X connect 12 1 15 1;
#X connect 14 0 15 0;
#X connect 15 0 0 0;
#X connect 16 0 6 0;
#X connect 17 0 15 0;
#X connect 18 0 6 1;
#X connect 19 0 14 0;
#X connect 19 1 10 0;
#X connect 20 0 21 0;
#X connect 20 1 22 0;
#X connect 21 0 23 0;
#X connect 21 1 4 0;
#X connect 22 0 1 0;
#X connect 24 0 26 0;
#X connect 26 0 14 1;
#X connect 26 1 12 1;
