#N canvas 326 76 334 794 10;
#X obj 18 116 netpd-find-peers \$1;
#X obj 18 8 inlet;
#X obj 208 25 r \$0.send;
#X obj 207 169 s \$0.receive;
#X obj 207 125 netpd-r \$1;
#X obj 208 47 list prepend to;
#X obj 208 69 list trim;
#X obj 208 91 s NETPD;
#X obj 18 273 list append \$1;
#X obj 179 258 netpd-status-get;
#X msg 179 234 socket;
#X obj 18 295 list append;
#X obj 18 362 s \$0.send;
#X obj 18 139 t a b;
#X obj 45 244 s \$0.waittime;
#X obj 45 218 spigot;
#X msg 78 196 1;
#X obj 107 173 r \$0.stop;
#X msg 107 197 0;
#X obj 18 390 r \$0.receive;
#X obj 18 412 routeOSC /ifready;
#X obj 65 73 s \$0.ready;
#X obj 18 456 spigot;
#X msg 65 51 1;
#X obj 51 434 r \$0.ready;
#X obj 18 477 list append \$1;
#X obj 18 499 list append;
#X obj 18 541 s \$0.send;
#X obj 18 569 r \$0.receive;
#X obj 18 591 routeOSC /ready;
#X obj 207 147 routeOSC /sync;
#X obj 18 702 spigot 1;
#X obj 18 724 t a b;
#X msg 91 714 0;
#X obj 18 95 t b b b b b;
#X msg 288 298 1;
#X obj 18 767 outlet;
#X msg 45 172 3000;
#X obj 45 746 s \$0.stop;
#X obj 18 30 route find ready unready;
#X msg 112 51 0;
#X obj 227 632 r \$0.waittime;
#X obj 227 699 delay;
#X obj 227 721 outlet;
#X obj 244 654 r \$0.stop;
#X msg 244 676 stop;
#N canvas 54 120 211 221 append_increment 0;
#X obj 40 14 inlet;
#X obj 40 171 outlet;
#X obj 40 36 t a b;
#X obj 67 60 f;
#X obj 67 82 mod 1000;
#X obj 129 77 + 1;
#X obj 40 142 list append;
#X obj 67 104 t a a;
#X obj 142 170 outlet;
#X connect 0 0 2 0;
#X connect 2 0 6 0;
#X connect 2 1 3 0;
#X connect 3 0 4 0;
#X connect 4 0 5 0;
#X connect 4 0 7 0;
#X connect 5 0 3 1;
#X connect 6 0 1 0;
#X connect 7 0 6 1;
#X connect 7 1 8 0;
#X restore 18 317 pd append_increment;
#X msg 18 341 /\$1\$2/sync/ifready \$3 \$4;
#X msg 18 520 /\$1\$3/sync/ready \$4 \$2;
#X text 61 456 <remote_socket> <id>;
#X text 85 363 <local_socket> <id>;
#X text 80 538 <local_socket> <id>;
#X obj 18 613 t a a;
#X msg 18 635 \$2;
#X obj 18 657 select;
#X msg 63 657 \$1;
#X obj 18 679 f;
#X obj 206 203 loadbang;
#X connect 0 0 13 0;
#X connect 1 0 39 0;
#X connect 2 0 5 0;
#X connect 4 0 30 0;
#X connect 5 0 6 0;
#X connect 6 0 7 0;
#X connect 8 0 11 0;
#X connect 9 0 11 1;
#X connect 9 0 26 1;
#X connect 10 0 9 0;
#X connect 11 0 46 0;
#X connect 13 0 8 0;
#X connect 13 1 37 0;
#X connect 15 0 14 0;
#X connect 16 0 15 1;
#X connect 17 0 18 0;
#X connect 18 0 15 1;
#X connect 19 0 20 0;
#X connect 20 0 22 0;
#X connect 22 0 25 0;
#X connect 23 0 21 0;
#X connect 24 0 22 1;
#X connect 25 0 26 0;
#X connect 26 0 48 0;
#X connect 28 0 29 0;
#X connect 29 0 52 0;
#X connect 30 0 3 0;
#X connect 31 0 32 0;
#X connect 32 0 36 0;
#X connect 32 1 33 0;
#X connect 32 1 38 0;
#X connect 33 0 31 1;
#X connect 34 0 0 0;
#X connect 34 1 37 0;
#X connect 34 2 16 0;
#X connect 34 3 10 0;
#X connect 34 4 35 0;
#X connect 35 0 31 1;
#X connect 37 0 15 0;
#X connect 39 0 34 0;
#X connect 39 1 23 0;
#X connect 39 2 40 0;
#X connect 40 0 21 0;
#X connect 41 0 42 0;
#X connect 42 0 43 0;
#X connect 44 0 45 0;
#X connect 45 0 42 0;
#X connect 46 0 47 0;
#X connect 46 1 54 1;
#X connect 47 0 12 0;
#X connect 48 0 27 0;
#X connect 52 0 53 0;
#X connect 52 1 55 0;
#X connect 53 0 54 0;
#X connect 54 0 56 0;
#X connect 55 0 56 1;
#X connect 56 0 31 0;
#X connect 57 0 10 0;
