#N canvas 503 436 455 205 10;
#X obj 14 18 inlet;
#X obj 14 72 file isdirectory;
#X obj 14 123 outlet;
#X obj 14 43 netpd-resolve \$1;
#X msg 107 95 0;
#X connect 0 0 3 0;
#X connect 1 0 2 0;
#X connect 1 1 4 0;
#X connect 3 0 1 0;
#X connect 4 0 2 0;
