#N canvas 535 44 503 432 10;
#X obj 1 0 cnv 15 500 30 empty empty empty 20 12 0 14 #e0e0e0 #404040
0;
#X text 399 78 arg1: \$1;
#X text 399 98 arg2: name;
#X obj 344 42 netpd_head 992 netpd_t;
#X text 8 7 netpd_t - synchronize a table;
#X text 10 49 [netpd_t] synchronizes a table specified by arguments
between peers.;
#X obj 24 158 netpd_t 992 mytable;
#N canvas 0 50 450 250 (subpatch) 0;
#X array 992-mytable 177 float 2;
#X coords 0 1 177 -1 200 140 1;
#X restore 24 230 graph;
#X floatatom 135 128 5 0 0 0 - - - 0;
#X text 171 129 index;
#X floatatom 24 128 5 0 0 0 - - - 0;
#X text 60 129 value;
#X msg 253 91 const 0.5;
#X obj 253 269 s 992-mytable;
#X text 250 308 print changes:;
#X obj 253 329 netpd_r 992 mytable;
#X obj 253 352 print mytable.changes;
#X msg 286 164 20 \$1;
#X obj 289 143 hsl 128 15 -1 1 0 0 empty empty empty -2 -8 0 10 #fcfcfc
#000000 #000000 0 1;
#X msg 294 190 sinesum 128 0.5 0.1;
#X floatatom 305 214 5 0 0 0 - - - 0;
#X msg 277 116 9 0.3 0.9;
#X msg 305 236 resize \$1;
#X text 58 400 It only supports table sizes up to 2048;
#X text 23 382 Note: it detects and synchronizes manual manipulation
;
#X connect 8 0 6 1;
#X connect 10 0 6 0;
#X connect 12 0 13 0;
#X connect 15 0 16 0;
#X connect 17 0 13 0;
#X connect 18 0 17 0;
#X connect 19 0 13 0;
#X connect 20 0 22 0;
#X connect 21 0 13 0;
#X connect 22 0 13 0;
