#N canvas 205 94 344 539 10;
#X declare -stdpath extra/zexy -stdlib extra/zexy;
#X declare -stdpath moocow -stdpath extra/ggee;
#X text 211 89 1: yes;
#X text 211 102 0: no;
#X text 156 67 check \, if given file exists:;
#X obj 28 428 sel <empty>;
#X obj 28 304 t b a;
#X obj 28 330 until;
#X msg 28 398 symbol \$1;
#X msg 28 471 1;
#X msg 109 472 0;
#X obj 109 396 t b b;
#X obj 28 449 t b b;
#X obj 28 57 inlet;
#X obj 28 79 symbol;
#X obj 105 171 t b a;
#X obj 105 215 list append;
#N canvas 389 308 209 285 dir 0;
#X obj 18 19 inlet;
#X obj 18 41 symbol2list /;
#X obj 18 157 list2symbol /;
#X obj 18 63 t a a;
#X obj 45 84 list length;
#X obj 18 130 list split;
#X obj 45 106 - 1;
#X obj 103 210 outlet;
#X obj 18 201 outlet;
#X connect 0 0 1 0;
#X connect 1 0 3 0;
#X connect 2 0 8 0;
#X connect 3 0 5 0;
#X connect 3 1 4 0;
#X connect 4 0 6 0;
#X connect 5 0 2 0;
#X connect 5 1 7 0;
#X connect 6 0 5 1;
#X restore 28 103 pd dir basename;
#X msg 28 272 open \$1;
#X msg 105 237 symbol \$1/\$2;
#X obj 28 140 sel bla;
#X msg 142 116 symbol;
#X obj 142 94 loadbang;
#X obj 28 504 outlet;
#X obj 29 6 declare -stdpath extra/zexy -stdlib extra/zexy;
#X obj 28 369 readdir;
#X obj 28 29 declare -stdpath moocow -stdpath extra/ggee;
#X obj 28 210 getdir;
#X obj 105 193 getdir;
#X connect 3 0 10 0;
#X connect 4 0 5 0;
#X connect 4 1 23 0;
#X connect 5 0 23 0;
#X connect 6 0 3 0;
#X connect 7 0 21 0;
#X connect 8 0 21 0;
#X connect 9 0 8 0;
#X connect 9 1 5 1;
#X connect 10 0 7 0;
#X connect 10 1 5 1;
#X connect 11 0 12 0;
#X connect 12 0 15 0;
#X connect 13 0 26 0;
#X connect 13 1 14 1;
#X connect 14 0 17 0;
#X connect 15 0 18 0;
#X connect 15 1 3 1;
#X connect 16 0 4 0;
#X connect 17 0 16 0;
#X connect 18 0 25 0;
#X connect 18 1 13 0;
#X connect 19 0 18 1;
#X connect 20 0 19 0;
#X connect 23 0 6 0;
#X connect 23 1 9 0;
#X connect 25 0 16 0;
#X connect 26 0 14 0;
