#N canvas 635 90 494 600 10;
#X obj 21 115 textfile;
#X obj 21 84 until;
#X msg 70 84 clear \, read \$1 \, rewind;
#X obj 21 60 t b a;
#X obj 21 11 inlet;
#X obj 21 38 list;
#X obj 176 145 outlet finished;
#X obj 21 159 s \$0.out0;
#X obj 66 137 s \$0.finished;
#X obj 70 57 r \$0.finished;
#X obj 176 122 r \$0.finished;
#X obj 31 553 outlet;
#X obj 31 502 netpd-fifo;
#X obj 31 388 r \$0.finished;
#X obj 31 471 until;
#X obj 255 13 loadbang;
#X msg 255 35 NETPD;
#X obj 255 57 list;
#X text 293 36 <- tag containing subpatch;
#X obj 255 79 s \$0.tags;
#N canvas 540 62 366 372 tag.content 0;
#X obj 52 67 route #N;
#X obj 52 89 route canvas;
#X msg 52 111 \$5;
#X obj 52 38 r \$0.out0;
#X obj 7 227 spigot 0;
#X msg 52 173 1;
#X obj 7 8 r \$0.out0;
#X obj 192 42 r \$0.out0;
#X obj 192 64 route #X;
#X obj 192 86 route restore;
#X obj 192 129 list trim;
#X obj 192 151 route pd;
#X obj 192 107 list split 2;
#X msg 192 220 0;
#X obj 192 173 route NETPD;
#X obj 115 109 r \$0.tags;
#X obj 52 133 route NETPD;
#X obj 7 249 outlet;
#X obj 223 224 route bang;
#X obj 192 195 t b a b;
#X msg 223 247 0;
#X obj 223 274 pack f f;
#X msg 299 224 0;
#X obj 223 296 list prepend;
#X msg 223 319 \$1_PATCH_SPEC \$2 \$3;
#X obj 223 341 outlet;
#X connect 0 0 1 0;
#X connect 1 0 2 0;
#X connect 2 0 16 0;
#X connect 3 0 0 0;
#X connect 4 0 17 0;
#X connect 5 0 4 1;
#X connect 6 0 4 0;
#X connect 7 0 8 0;
#X connect 8 0 9 0;
#X connect 9 0 12 0;
#X connect 10 0 11 0;
#X connect 11 0 14 0;
#X connect 12 1 10 0;
#X connect 13 0 4 1;
#X connect 14 0 19 0;
#X connect 15 0 14 1;
#X connect 15 0 16 1;
#X connect 15 0 23 1;
#X connect 16 0 5 0;
#X connect 18 0 20 0;
#X connect 18 1 21 0;
#X connect 19 0 13 0;
#X connect 19 1 18 0;
#X connect 19 2 22 0;
#X connect 20 0 21 0;
#X connect 21 0 23 0;
#X connect 22 0 21 1;
#X connect 23 0 24 0;
#X connect 24 0 25 0;
#X restore 182 190 pd tag.content;
#X obj 182 364 route #X;
#X obj 182 386 route msg;
#X obj 215 269 route canvas;
#X obj 341 272 route restore;
#X msg 215 291 list \$5;
#X obj 182 213 t a a;
#X obj 215 234 route #N #X;
#X obj 215 321 list prepend;
#X obj 300 321 t a;
#X obj 341 319 list;
#X obj 368 361 list length;
#X obj 341 341 t a a;
#X obj 368 383 - 1;
#X obj 341 408 list split;
#X obj 182 439 list prepend;
#X obj 182 409 list split 2;
#X obj 341 294 t b a;
#X obj 31 410 t b b;
#X obj 200 487 list append;
#X obj 200 508 list trim;
#X connect 0 0 7 0;
#X connect 0 1 8 0;
#X connect 1 0 0 0;
#X connect 2 0 0 0;
#X connect 3 0 1 0;
#X connect 3 1 2 0;
#X connect 4 0 5 0;
#X connect 5 0 3 0;
#X connect 9 0 1 1;
#X connect 10 0 6 0;
#X connect 12 0 11 0;
#X connect 12 1 14 1;
#X connect 13 0 38 0;
#X connect 14 0 12 0;
#X connect 15 0 16 0;
#X connect 16 0 17 0;
#X connect 17 0 19 0;
#X connect 20 0 26 0;
#X connect 20 1 39 1;
#X connect 21 0 22 0;
#X connect 22 0 36 0;
#X connect 23 0 25 0;
#X connect 24 0 37 0;
#X connect 25 0 28 0;
#X connect 26 0 21 0;
#X connect 26 1 27 0;
#X connect 27 0 23 0;
#X connect 27 1 24 0;
#X connect 28 0 29 0;
#X connect 29 0 28 1;
#X connect 29 0 30 1;
#X connect 29 0 35 1;
#X connect 30 0 32 0;
#X connect 31 0 33 0;
#X connect 32 0 34 0;
#X connect 32 1 31 0;
#X connect 33 0 34 1;
#X connect 34 0 29 0;
#X connect 35 0 12 1;
#X connect 36 1 35 0;
#X connect 37 0 30 0;
#X connect 38 0 14 0;
#X connect 38 1 39 0;
#X connect 39 0 40 0;
#X connect 40 0 11 0;
