#N canvas 511 45 363 328 10;
#X obj 24 20 inlet;
#X obj 24 42 unpack f f f;
#X obj 126 20 inlet;
#X obj 126 42 unpack f f f;
#N canvas 0 570 197 261 compare 0;
#X obj 21 19 inlet;
#X obj 61 20 inlet;
#X obj 65 231 outlet;
#X obj 21 174 sel 0;
#X obj 21 229 outlet;
#X obj 48 117 abs;
#X obj 21 71 -;
#X obj 21 93 t a a;
#X obj 21 138 /;
#X connect 0 0 6 0;
#X connect 1 0 6 1;
#X connect 3 0 2 0;
#X connect 3 1 4 0;
#X connect 5 0 8 1;
#X connect 6 0 7 0;
#X connect 7 0 8 0;
#X connect 7 1 5 0;
#X connect 8 0 3 0;
#X restore 24 138 pd compare;
#X obj 24 295 outlet;
#X obj 81 167 f;
#N canvas 0 570 197 261 compare 0;
#X obj 21 19 inlet;
#X obj 61 20 inlet;
#X obj 65 231 outlet;
#X obj 21 174 sel 0;
#X obj 21 229 outlet;
#X obj 48 117 abs;
#X obj 21 71 -;
#X obj 21 93 t a a;
#X obj 21 138 /;
#X connect 0 0 6 0;
#X connect 1 0 6 1;
#X connect 3 0 2 0;
#X connect 3 1 4 0;
#X connect 5 0 8 1;
#X connect 6 0 7 0;
#X connect 7 0 8 0;
#X connect 7 1 5 0;
#X connect 8 0 3 0;
#X restore 81 189 pd compare;
#X obj 138 218 f;
#N canvas 0 570 197 261 compare 0;
#X obj 21 19 inlet;
#X obj 61 20 inlet;
#X obj 65 231 outlet;
#X obj 21 174 sel 0;
#X obj 21 229 outlet;
#X obj 48 117 abs;
#X obj 21 71 -;
#X obj 21 93 t a a;
#X obj 21 138 /;
#X connect 0 0 6 0;
#X connect 1 0 6 1;
#X connect 3 0 2 0;
#X connect 3 1 4 0;
#X connect 5 0 8 1;
#X connect 6 0 7 0;
#X connect 7 0 8 0;
#X connect 7 1 5 0;
#X connect 8 0 3 0;
#X restore 138 243 pd compare;
#X obj 215 107 loadbang;
#X obj 215 129 list append \$1 \$2 \$3;
#X msg 195 265 0;
#X connect 0 0 1 0;
#X connect 1 0 4 0;
#X connect 1 1 6 1;
#X connect 1 2 8 1;
#X connect 2 0 3 0;
#X connect 3 0 4 1;
#X connect 3 1 7 1;
#X connect 3 2 9 1;
#X connect 4 0 5 0;
#X connect 4 1 6 0;
#X connect 6 0 7 0;
#X connect 7 0 5 0;
#X connect 7 1 8 0;
#X connect 8 0 9 0;
#X connect 9 0 5 0;
#X connect 9 1 12 0;
#X connect 10 0 11 0;
#X connect 11 0 3 0;
#X connect 12 0 5 0;
