#N canvas 22 116 169 255 10;
#X obj 15 98 spigot 1;
#X obj 15 120 t a b;
#X msg 95 105 0;
#X obj 42 164 t b b;
#X msg 95 129 1;
#X obj 15 7 inlet;
#X obj 15 214 outlet;
#X obj 42 142 del \$1;
#X obj 15 68 list;
#X obj 15 36 t b a;
#X connect 0 0 1 0;
#X connect 1 0 6 0;
#X connect 1 1 2 0;
#X connect 1 1 7 0;
#X connect 2 0 0 1;
#X connect 3 0 8 0;
#X connect 3 1 4 0;
#X connect 4 0 0 1;
#X connect 5 0 9 0;
#X connect 7 0 3 0;
#X connect 8 0 0 0;
#X connect 9 0 8 0;
#X connect 9 1 8 1;
