#N canvas 448 40 443 528 10;
#X obj 45 90 until;
#X obj 45 170 list store, f 15;
#X obj 45 118 f;
#X obj 83 117 + 1;
#X msg 88 90 0, f 2;
#X msg 45 146 get \$1 1;
#X obj 45 66 t b b a, f 15;
#X obj 45 208 sel <br/>;
#X msg 48 397 append \$1;
#X obj 12 467 list store, f 28;
#X obj 12 38 t b a b, f 28;
#X msg 45 231 1;
#X obj 48 305 route 0 1, f 21;
#X obj 96 231 t b a;
#X obj 48 282 list prepend 0;
#X msg 129 256 0;
#X obj 143 375 list prepend;
#X obj 212 299 loadbang;
#X msg 212 322 10;
#X obj 212 345 list tosymbol;
#X msg 143 398 append \$1\$2;
#X obj 12 12 inlet;
#X obj 12 494 outlet;
#X obj 195 467 list store, f 28;
#X msg 244 402 append \$1;
#X obj 12 425 t b b;
#X obj 195 493 outlet;
#X obj 48 373 list;
#X connect 0 0 2 0;
#X connect 1 0 7 0;
#X connect 1 1 0 1;
#X connect 2 0 3 0;
#X connect 2 0 5 0;
#X connect 3 0 2 1;
#X connect 4 0 2 1;
#X connect 5 0 1 0;
#X connect 6 0 0 0;
#X connect 6 1 4 0;
#X connect 6 2 1 1;
#X connect 7 0 11 0;
#X connect 7 1 13 0;
#X connect 8 0 9 0;
#X connect 9 0 22 0;
#X connect 10 0 25 0;
#X connect 10 1 6 0;
#X connect 10 2 9 1;
#X connect 10 2 23 1;
#X connect 11 0 14 1;
#X connect 12 0 27 0;
#X connect 12 1 16 0;
#X connect 13 0 15 0;
#X connect 13 1 14 0;
#X connect 13 1 24 0;
#X connect 14 0 12 0;
#X connect 15 0 14 1;
#X connect 16 0 20 0;
#X connect 17 0 18 0;
#X connect 18 0 19 0;
#X connect 19 0 16 1;
#X connect 20 0 9 0;
#X connect 21 0 10 0;
#X connect 23 0 26 0;
#X connect 24 0 23 0;
#X connect 25 0 9 0;
#X connect 25 1 23 0;
#X connect 27 0 8 0;
