#N canvas 174 130 432 488 10;
#X obj 71 438 outlet;
#X obj 20 13 inlet;
#X obj 137 139 unpack f f;
#X obj 137 159 array get \$1;
#X obj 137 179 list prepend 0;
#N canvas 532 141 378 248 DSP.processing 0;
#X obj 6 13 inlet;
#N canvas 313 305 500 262 reblock_upsampled_by_2 0;
#X obj 15 20 inlet;
#X obj 236 91 rzero_rev~ 0;
#X text 321 88 <- one sample delay;
#X obj 158 161 +~;
#X obj 157 25 inlet~ pad;
#X obj 236 27 inlet~ pad;
#X obj 157 193 tabsend~ \$0.out.segment;
#X obj 15 98 switch~ 2048 1 2;
#X connect 0 0 7 0;
#X connect 1 0 3 1;
#X connect 3 0 6 0;
#X connect 4 0 3 0;
#X connect 5 0 1 0;
#X restore 6 194 pd reblock_upsampled_by_2;
#X obj 79 120 tabreceive~ \$0.in.segment;
#X obj 6 55 t b b;
#X obj 33 83 switch~ 1024 1 1;
#X obj 79 142 netpd-sig-to-16bit~;
#X connect 0 0 3 0;
#X connect 2 0 5 0;
#X connect 3 0 1 0;
#X connect 3 1 4 0;
#X connect 5 0 1 1;
#X connect 5 1 1 2;
#X restore 117 227 pd DSP.processing;
#X msg 98 252 \$2;
#X obj 98 274 * 2;
#X obj 137 199 s \$0.in.segment;
#X obj 20 38 route set;
#X obj 20 73 list;
#X obj 98 119 t a b a;
#X obj 98 294 t b a;
#X obj 71 61 t b a;
#N canvas 443 388 344 105 msgbox 0;
#X obj 10 7 inlet;
#X obj 10 59 outlet;
#X msg 10 33;
#X connect 0 0 2 0;
#X connect 2 0 1 0;
#X restore 71 414 pd msgbox;
#X obj 98 342 list prepend add2;
#X msg 71 386 bang \, set;
#X obj 98 317 array get \$0.out.segment;
#X obj 98 364 list trim;
#X obj 239 36 table \$0.in.segment 1024;
#X obj 239 55 table \$0.out.segment 2048;
#X obj 98 91 netpd-range-slice 1024;
#X connect 1 0 9 0;
#X connect 2 0 3 0;
#X connect 2 1 3 1;
#X connect 3 0 4 0;
#X connect 4 0 8 0;
#X connect 6 0 7 0;
#X connect 7 0 12 0;
#X connect 9 0 10 0;
#X connect 9 1 13 0;
#X connect 10 0 3 2;
#X connect 11 0 6 0;
#X connect 11 1 5 0;
#X connect 11 2 2 0;
#X connect 12 0 17 0;
#X connect 12 1 17 1;
#X connect 13 0 16 0;
#X connect 13 1 21 0;
#X connect 14 0 0 0;
#X connect 15 0 18 0;
#X connect 16 0 14 0;
#X connect 17 0 15 0;
#X connect 18 0 14 0;
#X connect 21 0 11 0;
