#N canvas 402 260 211 366 10;
#X obj 11 10 inlet;
#X obj 12 203 s \$1.NETPD;
#X obj 12 226 r \$1.receive;
#X obj 12 248 routeOSC /\$2;
#X obj 12 280 t a a;
#X obj 12 328 outlet;
#X obj 74 10 r \$1.NETPD;
#X obj 74 32 route dump;
#X obj 74 54 route 5;
#X obj 74 76 b;
#X obj 39 304 s \$0.internal;
#X obj 120 89 r \$0.internal;
#X obj 12 116 list append;
#X obj 12 138 list prepend /\$2;
#X obj 12 160 list prepend send;
#X obj 12 182 list trim;
#X obj 12 82 t b a;
#X obj 11 32 route set;
#X obj 11 53 s \$0.set;
#X obj 105 248 r \$0.set;
#X connect 0 0 17 0;
#X connect 2 0 3 0;
#X connect 3 0 4 0;
#X connect 4 0 5 0;
#X connect 4 1 10 0;
#X connect 6 0 7 0;
#X connect 7 0 8 0;
#X connect 8 0 9 0;
#X connect 9 0 12 0;
#X connect 11 0 12 1;
#X connect 12 0 13 0;
#X connect 13 0 14 0;
#X connect 14 0 15 0;
#X connect 15 0 1 0;
#X connect 16 0 12 0;
#X connect 16 1 12 1;
#X connect 17 0 18 0;
#X connect 17 0 12 1;
#X connect 17 1 16 0;
#X connect 19 0 4 0;
