#N canvas 280 276 308 240 10;
#X obj 27 6 inlet;
#X obj 27 68 t f f f;
#X obj 27 48 * -1;
#X obj 27 104 >> 16;
#X obj 66 126 >> 8;
#X obj 66 104 & 65280;
#X obj 27 185 pack f f f;
#X text 103 16 converts iem color to rgb 8bit;
#X obj 27 213 outlet;
#X obj 116 105 & 255;
#X obj 27 26 + 1;
#X connect 0 0 10 0;
#X connect 1 0 3 0;
#X connect 1 1 5 0;
#X connect 1 2 9 0;
#X connect 2 0 1 0;
#X connect 3 0 6 0;
#X connect 4 0 6 1;
#X connect 5 0 4 0;
#X connect 6 0 8 0;
#X connect 9 0 6 2;
#X connect 10 0 2 0;
