#N canvas 493 71 404 623 10;
#X obj 202 170 r \$0.send;
#X obj 203 241 s \$0.receive;
#X obj 11 10 inlet;
#X obj 11 211 s \$0.send;
#X msg 11 191 OSC /whosther \$1;
#X obj 10 248 r \$0.receive;
#X obj 10 294 select;
#X obj 12 325 list append;
#X obj 12 524 r \$0.receive;
#X obj 12 545 routeOSC /iam;
#X obj 12 568 outlet;
#X obj 10 270 routeOSC /whosther;
#X obj 11 168 f;
#X obj 228 477 outlet;
#X obj 11 97 t b b;
#X obj 228 453 timer;
#X text 271 478 ping time;
#X obj 11 73 spigot 1;
#X obj 228 396 t b b;
#X msg 270 394 0;
#X obj 255 425 t b b;
#X msg 282 447 1;
#X obj 327 420 t a;
#X obj 202 193 netpd-s \$1/peers;
#X obj 266 165 r \$0.recipient;
#X obj 203 218 netpd-r \$1/peers;
#X obj 12 346 t a a;
#X msg 39 368 \$1;
#X obj 12 488 s \$0.send;
#X obj 39 391 s \$0.recipient;
#X msg 23 125 b;
#X obj 23 145 s \$0.recipient;
#X obj 174 103 netpd-status-get socket 1;
#X text 62 292 <- filter own requests;
#X obj 11 39 route state;
#X obj 114 16 list;
#X obj 114 36 s \$0.state;
#X obj 12 440 list prepend OSC /iam;
#X obj 12 462 list trim;
#X msg 12 368 \$2;
#X obj 12 418 list append;
#X obj 109 418 r \$0.state;
#X connect 0 0 23 0;
#X connect 2 0 34 0;
#X connect 4 0 3 0;
#X connect 5 0 11 0;
#X connect 6 0 20 0;
#X connect 6 1 7 0;
#X connect 7 0 26 0;
#X connect 8 0 9 0;
#X connect 9 0 10 0;
#X connect 11 0 6 0;
#X connect 12 0 4 0;
#X connect 14 0 12 0;
#X connect 14 1 18 0;
#X connect 14 1 30 0;
#X connect 14 1 32 0;
#X connect 15 0 13 0;
#X connect 17 0 14 0;
#X connect 18 0 15 0;
#X connect 18 1 19 0;
#X connect 19 0 22 0;
#X connect 20 0 15 1;
#X connect 20 1 21 0;
#X connect 21 0 22 0;
#X connect 22 0 17 1;
#X connect 24 0 23 1;
#X connect 25 0 1 0;
#X connect 26 0 39 0;
#X connect 26 1 27 0;
#X connect 27 0 29 0;
#X connect 30 0 31 0;
#X connect 32 0 12 1;
#X connect 32 0 7 1;
#X connect 32 0 6 1;
#X connect 34 0 35 0;
#X connect 34 1 17 0;
#X connect 35 0 36 0;
#X connect 37 0 38 0;
#X connect 38 0 28 0;
#X connect 39 0 40 0;
#X connect 40 0 37 0;
#X connect 41 0 40 1;
