#N canvas 338 188 719 487 10;
#X obj 13 17 inlet;
#X obj 13 431 outlet;
#X obj 551 23 inlet~;
#X obj 529 442 table \$1-\$2-table 2.646e+06;
#X text 534 460 max. size: 1 min @ 44.1kHz;
#X obj 13 43 s \$0.inlet;
#X obj 13 402 r \$0.outlet;
#N canvas 603 172 380 345 fromtable 0;
#X obj 9 9 r \$0.inlet;
#X obj 9 36 route loadtable;
#X obj 9 59 list;
#X msg 52 115 set \$1;
#N canvas 439 208 319 390 split.into.1024.chunks 0;
#X obj 25 89 t a a;
#X obj 82 133 div 1024;
#X obj 25 132 mod 1024;
#X obj 82 160 until;
#X msg 82 182 1024;
#X msg 25 63 \$2;
#X msg 157 161 \$1;
#X obj 25 210 t a b a;
#X obj 44 235 f;
#X obj 74 234 +;
#X obj 44 279 +;
#X obj 25 311 pack f f;
#X msg 25 333 \$2 \$1;
#X obj 25 41 t a a b;
#X msg 148 116 0;
#X obj 25 166 sel 0;
#X obj 25 13 inlet;
#X obj 25 358 outlet;
#X connect 0 0 2 0;
#X connect 0 1 1 0;
#X connect 1 0 3 0;
#X connect 2 0 15 0;
#X connect 3 0 4 0;
#X connect 4 0 7 0;
#X connect 5 0 0 0;
#X connect 6 0 10 1;
#X connect 7 0 11 0;
#X connect 7 1 8 0;
#X connect 7 2 9 1;
#X connect 8 0 9 0;
#X connect 8 0 10 0;
#X connect 9 0 8 1;
#X connect 10 0 11 1;
#X connect 11 0 12 0;
#X connect 12 0 17 0;
#X connect 13 0 5 0;
#X connect 13 1 6 0;
#X connect 13 2 14 0;
#X connect 14 0 8 1;
#X connect 15 1 7 0;
#X connect 16 0 13 0;
#X restore 9 150 pd split.into.1024.chunks;
#X msg 9 115 \$2 \$3;
#X obj 9 82 t a a a;
#X obj 226 175 list prepend \$2;
#X msg 226 153 \$3;
#X msg 226 211 send /\$1/length \$2;
#X obj 226 234 s \$1.NETPD;
#X obj 9 220 s \$0.tabdump;
#X msg 9 180 index \$1 \, \$1 \$2;
#X connect 0 0 1 0;
#X connect 1 0 2 0;
#X connect 2 0 6 0;
#X connect 3 0 11 0;
#X connect 4 0 12 0;
#X connect 5 0 4 0;
#X connect 6 0 5 0;
#X connect 6 1 3 0;
#X connect 6 2 8 0;
#X connect 7 0 9 0;
#X connect 8 0 7 0;
#X connect 9 0 10 0;
#X connect 12 0 11 0;
#X restore 13 84 pd fromtable;
#X obj 162 271 netpd-tabwrite16 \$1-\$2-table;
#X obj 162 245 netpd_r \$1 \$2/data;
#X obj 162 313 netpd_r \$1 \$2/length;
#X obj 162 69 netpd-tabdump16 \$1-\$2-table;
#X obj 162 160 s \$1.NETPD;
#X obj 162 138 list trim;
#X obj 162 115 list prepend sendtyped /\$2/data fb;
#X obj 162 17 r \$0.tabdump;
#X obj 162 91 list prepend;
#N canvas 603 172 380 345 length 0;
#X obj 9 9 r \$0.inlet;
#X obj 9 36 route length;
#X obj 38 59 r \$0.length;
#X obj 9 58 b;
#X obj 9 80 f;
#X obj 9 108 s \$0.outlet;
#X connect 0 0 1 0;
#X connect 1 0 3 0;
#X connect 2 0 4 1;
#X connect 3 0 4 0;
#X connect 4 0 5 0;
#X restore 13 153 pd length;
#X obj 162 341 s \$0.length;
#N canvas 970 179 380 345 dump 0;
#X msg 36 192 set \$1;
#N canvas 439 208 319 390 split.into.1024.chunks 0;
#X obj 25 89 t a a;
#X obj 82 133 div 1024;
#X obj 25 132 mod 1024;
#X obj 82 160 until;
#X msg 82 182 1024;
#X msg 25 63 \$2;
#X msg 157 161 \$1;
#X obj 25 210 t a b a;
#X obj 44 235 f;
#X obj 74 234 +;
#X obj 44 279 +;
#X obj 25 311 pack f f;
#X msg 25 333 \$2 \$1;
#X obj 25 41 t a a b;
#X msg 148 116 0;
#X obj 25 166 sel 0;
#X obj 25 13 inlet;
#X obj 25 358 outlet;
#X connect 0 0 2 0;
#X connect 0 1 1 0;
#X connect 1 0 3 0;
#X connect 2 0 15 0;
#X connect 3 0 4 0;
#X connect 4 0 7 0;
#X connect 5 0 0 0;
#X connect 6 0 10 1;
#X connect 7 0 11 0;
#X connect 7 1 8 0;
#X connect 7 2 9 1;
#X connect 8 0 9 0;
#X connect 8 0 10 0;
#X connect 9 0 8 1;
#X connect 10 0 11 1;
#X connect 11 0 12 0;
#X connect 12 0 17 0;
#X connect 13 0 5 0;
#X connect 13 1 6 0;
#X connect 13 2 14 0;
#X connect 14 0 8 1;
#X connect 15 1 7 0;
#X connect 16 0 13 0;
#X restore 9 218 pd split.into.1024.chunks;
#X obj 179 65 list prepend \$2;
#X msg 179 89 send /\$1/length \$2;
#X obj 179 112 s \$1.NETPD;
#X obj 24 36 r \$0.length;
#X obj 9 64 f;
#X msg 9 121 0 \$1;
#X obj 9 86 t a a;
#X msg 179 43 \$1;
#X obj 9 147 t a b;
#X obj 36 169 symbol \$1-\$2-table;
#X obj 9 279 s \$0.tabdump;
#X obj 9 9 netpd-dump \$1 7;
#X msg 9 247 index \$1 \, \$1 \$2;
#X connect 0 0 12 0;
#X connect 1 0 14 0;
#X connect 2 0 3 0;
#X connect 3 0 4 0;
#X connect 5 0 6 1;
#X connect 6 0 8 0;
#X connect 7 0 10 0;
#X connect 8 0 7 0;
#X connect 8 1 9 0;
#X connect 9 0 2 0;
#X connect 10 0 1 0;
#X connect 10 1 11 0;
#X connect 11 0 0 0;
#X connect 13 0 6 0;
#X connect 14 0 12 0;
#X restore 13 176 pd dump;
#N canvas 652 188 333 359 fromfile 0;
#X msg 37 243 set \$1;
#N canvas 439 208 319 390 split.into.1024.chunks 0;
#X obj 25 89 t a a;
#X obj 82 133 div 1024;
#X obj 25 132 mod 1024;
#X obj 82 160 until;
#X msg 82 182 1024;
#X msg 25 63 \$2;
#X msg 157 161 \$1;
#X obj 25 210 t a b a;
#X obj 44 235 f;
#X obj 74 234 +;
#X obj 44 279 +;
#X obj 25 311 pack f f;
#X msg 25 333 \$2 \$1;
#X obj 25 41 t a a b;
#X msg 148 116 0;
#X obj 25 166 sel 0;
#X obj 25 13 inlet;
#X obj 25 358 outlet;
#X connect 0 0 2 0;
#X connect 0 1 1 0;
#X connect 1 0 3 0;
#X connect 2 0 15 0;
#X connect 3 0 4 0;
#X connect 4 0 7 0;
#X connect 5 0 0 0;
#X connect 6 0 10 1;
#X connect 7 0 11 0;
#X connect 7 1 8 0;
#X connect 7 2 9 1;
#X connect 8 0 9 0;
#X connect 8 0 10 0;
#X connect 9 0 8 1;
#X connect 10 0 11 1;
#X connect 11 0 12 0;
#X connect 12 0 17 0;
#X connect 13 0 5 0;
#X connect 13 1 6 0;
#X connect 13 2 14 0;
#X connect 14 0 8 1;
#X connect 15 1 7 0;
#X connect 16 0 13 0;
#X restore 10 269 pd split.into.1024.chunks;
#X obj 187 233 list prepend \$2;
#X msg 187 257 send /\$1/length \$2;
#X obj 187 280 s \$1.NETPD;
#X msg 10 172 0 \$1;
#X obj 10 137 t a a;
#X msg 187 211 \$1;
#X obj 10 198 t a b;
#X obj 37 220 symbol \$1-\$2-table;
#X obj 10 320 s \$0.tabdump;
#X obj 10 7 r \$0.inlet;
#X obj 10 29 route loadfile;
#X obj 10 96 soundfiler;
#X obj 10 50 list append \$1-\$2-table;
#X msg 10 72 read \$1 \$2;
#X msg 10 293 index \$1 \, \$1 \$2;
#X connect 0 0 10 0;
#X connect 1 0 16 0;
#X connect 2 0 3 0;
#X connect 3 0 4 0;
#X connect 5 0 8 0;
#X connect 6 0 5 0;
#X connect 6 1 7 0;
#X connect 7 0 2 0;
#X connect 8 0 1 0;
#X connect 8 1 9 0;
#X connect 9 0 0 0;
#X connect 11 0 12 0;
#X connect 12 0 14 0;
#X connect 13 0 6 0;
#X connect 14 0 15 0;
#X connect 15 0 13 0;
#X connect 16 0 10 0;
#X restore 13 107 pd fromfile;
#X obj 551 46 s~ \$0.inlet1;
#N canvas 520 60 450 300 liveinput 0;
#X obj 107 159 r~ \$0.inlet1;
#X obj 19 21 r \$0.inlet;
#X obj 19 45 route start stop;
#X obj 112 70 route 1 0;
#X msg 19 97 1;
#X msg 65 100 0;
#N canvas 597 161 511 350 reblock@1024 0;
#X obj 69 30 inlet;
#X obj 270 45 inlet~;
#X obj 10 146 bang~;
#X obj 96 73 switch~ 1024 1 1;
#X obj 270 96 table \$0.audio.in 1024;
#X obj 270 73 tabsend~ \$0.audio.in;
#X obj 10 285 s \$0.tabdump;
#X obj 10 172 f;
#X obj 10 194 t a a;
#X obj 49 174 + 1;
#X obj 69 52 t a a;
#X obj 69 94 sel 1;
#X msg 69 116 0;
#X obj 10 238 list append \$0.audio.in;
#X msg 10 260 set \$2 \, index \$1 \, 0 1024;
#X obj 10 217 * 1024;
#X connect 0 0 10 0;
#X connect 1 0 5 0;
#X connect 2 0 7 0;
#X connect 7 0 8 0;
#X connect 8 0 15 0;
#X connect 8 1 9 0;
#X connect 9 0 7 1;
#X connect 10 0 11 0;
#X connect 10 1 3 0;
#X connect 11 0 12 0;
#X connect 12 0 7 1;
#X connect 13 0 14 0;
#X connect 14 0 6 0;
#X connect 15 0 13 0;
#X restore 19 192 pd reblock@1024;
#X connect 0 0 6 1;
#X connect 1 0 2 0;
#X connect 2 0 4 0;
#X connect 2 1 5 0;
#X connect 2 2 3 0;
#X connect 3 0 4 0;
#X connect 3 1 5 0;
#X connect 4 0 6 0;
#X connect 5 0 6 0;
#X restore 13 130 pd liveinput;
#X obj 162 39 route list index;
#X connect 0 0 5 0;
#X connect 2 0 21 0;
#X connect 6 0 1 0;
#X connect 9 0 8 0;
#X connect 10 0 18 0;
#X connect 11 0 16 0;
#X connect 13 0 12 0;
#X connect 14 0 13 0;
#X connect 15 0 23 0;
#X connect 16 0 14 0;
#X connect 23 0 11 0;
#X connect 23 1 16 1;
#X connect 23 2 11 0;
