#N canvas 577 79 450 300 10;
#X obj 23 18 inlet~;
#X obj 227 18 inlet~;
#X obj 22 218 outlet~;
#X obj 23 77 *~ 256;
#X obj 22 107 +~;
#X obj 22 162 -~ 1;
#X obj 22 142 /~ 32768;
#X connect 0 0 3 0;
#X connect 1 0 4 1;
#X connect 3 0 4 0;
#X connect 4 0 6 0;
#X connect 5 0 2 0;
#X connect 6 0 5 0;
