#N canvas 738 109 498 516 10;
#X obj 158 306 t b b b;
#X obj 86 234 moses 1;
#X obj 177 347 outlet;
#X obj 86 151 t a a;
#X obj 86 22 inlet;
#X obj 86 276 outlet;
#X obj 80 380 realtime;
#X obj 86 130 +;
#X msg 15 318 -1;
#X text 194 445 (add 20% spare time);
#X text 142 279 <--- bang when done;
#X obj 211 20 inlet;
#X msg 211 59 0;
#X text 267 21 stop;
#X obj 86 44 route bang float;
#X msg 86 76 1e+08;
#N canvas 0 124 258 259 grouped_delay 0;
#X obj 16 75 +;
#X obj 16 115 t b a;
#X obj 61 119 t a b;
#X msg 120 94 0;
#X obj 16 95 moses 20;
#X obj 61 145 delay;
#X obj 16 25 inlet;
#X obj 120 23 inlet;
#X text 140 46 reset;
#X obj 16 188 outlet;
#X msg 133 120 stop;
#X connect 0 0 4 0;
#X connect 1 0 9 0;
#X connect 1 1 0 1;
#X connect 2 0 5 0;
#X connect 2 1 3 0;
#X connect 3 0 0 1;
#X connect 4 0 1 0;
#X connect 4 1 2 0;
#X connect 5 0 9 0;
#X connect 6 0 0 0;
#X connect 7 0 3 0;
#X connect 7 0 10 0;
#X connect 10 0 5 0;
#X restore 80 443 pd grouped_delay;
#X text 359 488 2016 \, Roman Haefeli;
#X obj 86 256 t b b;
#N canvas 591 237 367 371 global.lock 0;
#X obj 15 14 inlet;
#X obj 53 296 outlet;
#X obj 53 137 netpd-mutex NB_UNTIL;
#X obj 34 56 > 0;
#X obj 53 267 spigot;
#X obj 34 76 t b a b;
#X obj 15 34 t a a a;
#X obj 53 157 t a a;
#X obj 53 197 sel 1;
#X obj 53 177 spigot;
#X msg 73 98 0;
#X msg 34 101 1;
#X obj 53 220 f;
#X obj 147 167 t a;
#X obj 15 237 sel 0;
#X msg 15 263 0;
#X connect 0 0 6 0;
#X connect 2 0 7 0;
#X connect 3 0 5 0;
#X connect 4 0 1 0;
#X connect 5 0 11 0;
#X connect 5 1 2 0;
#X connect 5 2 10 0;
#X connect 6 0 14 0;
#X connect 6 1 3 0;
#X connect 6 2 13 0;
#X connect 7 0 9 0;
#X connect 7 1 4 1;
#X connect 8 0 12 0;
#X connect 9 0 8 0;
#X connect 10 0 9 1;
#X connect 11 0 9 1;
#X connect 12 0 4 0;
#X connect 13 0 12 1;
#X connect 14 0 15 0;
#X connect 14 1 4 0;
#X connect 15 0 1 0;
#X restore 86 185 pd global.lock;
#X obj 80 466 del 0;
#X connect 0 0 6 1;
#X connect 0 1 2 0;
#X connect 0 2 6 0;
#X connect 1 0 18 0;
#X connect 1 1 0 0;
#X connect 3 0 19 0;
#X connect 3 1 7 1;
#X connect 4 0 14 0;
#X connect 6 0 16 0;
#X connect 7 0 3 0;
#X connect 8 0 7 0;
#X connect 11 0 12 0;
#X connect 12 0 7 1;
#X connect 14 0 15 0;
#X connect 14 1 7 0;
#X connect 15 0 7 0;
#X connect 16 0 20 0;
#X connect 18 0 5 0;
#X connect 18 1 16 1;
#X connect 19 0 1 0;
#X connect 20 0 8 0;
