#N canvas 473 322 338 366 10;
#X obj 24 12 inlet;
#X obj 43 92 list split 1;
#X obj 77 186 list split 1;
#X obj 77 143 until;
#X obj 77 165 list append;
#X obj 179 157 bang;
#X obj 77 121 t b a;
#X msg 140 71 list \$1;
#X obj 250 136 loadbang;
#X obj 77 210 list append;
#X obj 77 232 list append;
#X msg 77 254 symbol \$3\$2\$1;
#X obj 77 276 t a a;
#X obj 24 44 t b a a;
#X obj 24 304 list append;
#X obj 24 326 outlet;
#X obj 250 158 symbol \$1;
#X obj 250 180 inlet;
#X connect 0 0 13 0;
#X connect 1 1 6 0;
#X connect 2 0 9 0;
#X connect 2 1 4 1;
#X connect 2 2 5 0;
#X connect 3 0 4 0;
#X connect 4 0 2 0;
#X connect 5 0 3 1;
#X connect 6 0 3 0;
#X connect 6 1 4 1;
#X connect 7 0 10 1;
#X connect 8 0 16 0;
#X connect 9 0 10 0;
#X connect 10 0 11 0;
#X connect 11 0 12 0;
#X connect 12 0 14 1;
#X connect 12 1 10 1;
#X connect 13 0 14 0;
#X connect 13 1 1 0;
#X connect 13 2 7 0;
#X connect 14 0 15 0;
#X connect 16 0 9 1;
#X connect 17 0 9 1;
