#N canvas 368 194 291 384 10;
#X obj 121 31 inlet;
#X obj 121 53 t a a;
#X obj 148 78 list length;
#X obj 121 105 list prepend;
#X obj 121 141 list prepend;
#X obj 100 193 list;
#X obj 100 228 list split 1;
#X obj 100 273 list;
#X obj 100 250 t b a;
#X obj 17 29 inlet;
#X obj 100 298 list split;
#X obj 121 167 t a a;
#X obj 207 236 t a;
#X obj 100 343 outlet;
#X obj 169 346 outlet empty;
#X obj 100 320 list trim;
#X obj 17 53 route bang clear;
#X obj 207 176 t b;
#X connect 0 0 1 0;
#X connect 1 0 3 0;
#X connect 1 1 2 0;
#X connect 2 0 3 1;
#X connect 3 0 4 0;
#X connect 4 0 11 0;
#X connect 5 0 6 0;
#X connect 6 0 8 0;
#X connect 6 1 7 1;
#X connect 6 2 14 0;
#X connect 7 0 10 0;
#X connect 8 0 7 0;
#X connect 8 1 10 1;
#X connect 9 0 16 0;
#X connect 10 0 15 0;
#X connect 10 1 12 0;
#X connect 11 0 5 1;
#X connect 11 1 4 1;
#X connect 12 0 11 0;
#X connect 15 0 13 0;
#X connect 16 0 5 0;
#X connect 16 1 17 0;
#X connect 17 0 12 0;
