#N canvas 520 252 400 454 10;
#X obj 12 10 inlet;
#X text 122 96 get data of a given netpd preference setting;
#X obj 31 188 list trim;
#X obj 31 209 s NETPD;
#X obj 31 230 r NETPD;
#X obj 69 410 outlet;
#X obj 69 97 t b a;
#X obj 12 119 list append \$1;
#X obj 12 76 route bang;
#X obj 31 275 route bla;
#X obj 51 11 loadbang;
#X obj 31 297 t b a;
#X obj 12 362 list append;
#X obj 12 141 t b a a b;
#X obj 201 271 b;
#X obj 12 384 route bang;
#X obj 51 53 route float;
#X obj 51 33 list append \$1;
#X msg 159 271 0;
#X obj 31 319 spigot \$2;
#X obj 122 269 f \$2;
#X obj 31 166 list prepend status get;
#X obj 31 251 route status;
#X connect 0 0 8 0;
#X connect 2 0 3 0;
#X connect 4 0 22 0;
#X connect 6 0 7 0;
#X connect 6 1 7 1;
#X connect 7 0 13 0;
#X connect 8 0 7 0;
#X connect 8 1 6 0;
#X connect 9 0 11 0;
#X connect 10 0 17 0;
#X connect 11 0 19 0;
#X connect 11 1 12 1;
#X connect 12 0 15 0;
#X connect 13 0 12 0;
#X connect 13 0 20 0;
#X connect 13 1 21 0;
#X connect 13 2 9 1;
#X connect 13 3 14 0;
#X connect 13 3 18 0;
#X connect 14 0 12 1;
#X connect 15 1 5 0;
#X connect 16 1 8 0;
#X connect 17 0 16 0;
#X connect 18 0 19 1;
#X connect 19 0 12 0;
#X connect 20 0 19 1;
#X connect 21 0 2 0;
#X connect 22 0 9 0;
