#N canvas 520 110 363 540 10;
#X text 211 69 1: yes;
#X text 211 82 0: no;
#X text 156 47 check \, if given file exists:;
#X obj 28 123 ggee/getdir;
#X obj 28 192 moonlib/basedir;
#X obj 28 339 moocow/readdir;
#X obj 28 398 sel <empty>;
#X obj 28 274 t b a;
#X obj 28 300 until;
#X msg 28 368 symbol \$1;
#X msg 28 441 1;
#X msg 109 442 0;
#X obj 109 366 t b b;
#X obj 28 419 t b b;
#X obj 28 57 inlet;
#X obj 28 476 outlet;
#X obj 28 79 symbol;
#X obj 28 101 t b a;
#X msg 28 248 open \$2;
#X obj 28 145 list append;
#X msg 28 167 symbol \$1/\$2;
#X obj 28 214 t a a;
#X msg 91 242 symbol \$1;
#X connect 3 0 19 0;
#X connect 4 0 21 0;
#X connect 5 0 9 0;
#X connect 5 1 12 0;
#X connect 6 0 13 0;
#X connect 7 0 8 0;
#X connect 7 1 5 0;
#X connect 8 0 5 0;
#X connect 9 0 6 0;
#X connect 10 0 15 0;
#X connect 11 0 15 0;
#X connect 12 0 11 0;
#X connect 12 1 8 1;
#X connect 13 0 10 0;
#X connect 13 1 8 1;
#X connect 14 0 16 0;
#X connect 16 0 17 0;
#X connect 17 0 3 0;
#X connect 17 1 19 1;
#X connect 18 0 7 0;
#X connect 19 0 20 0;
#X connect 20 0 4 0;
#X connect 21 0 18 0;
#X connect 21 1 22 0;
#X connect 22 0 6 1;
