#N canvas 186 322 401 216 10;
#X text 211 89 1: yes;
#X text 211 102 0: no;
#X text 156 67 check \, if given file exists:;
#X obj 28 57 inlet;
#X obj 28 178 outlet;
#X obj 28 99 netpd-resolve \$1;
#X obj 28 127 file isfile;
#X msg 91 154 0;
#X connect 3 0 5 0;
#X connect 5 0 6 0;
#X connect 6 0 4 0;
#X connect 6 1 7 0;
#X connect 7 0 4 0;
