#N canvas 663 336 420 278 10;
#X obj 12 14 inlet;
#X text 124 18 get data of a given netpd preference setting;
#X obj 31 61 list prepend pref get;
#X obj 31 82 list trim;
#X obj 31 103 s NETPD;
#X obj 31 124 r NETPD;
#X obj 31 145 route pref;
#X obj 31 166 list split 1;
#X obj 31 189 sel _;
#X obj 12 39 t b a a;
#X obj 12 230 list;
#X obj 31 210 list;
#X obj 12 251 outlet;
#X connect 0 0 9 0;
#X connect 2 0 3 0;
#X connect 3 0 4 0;
#X connect 5 0 6 0;
#X connect 6 0 7 0;
#X connect 7 0 8 0;
#X connect 7 1 11 1;
#X connect 8 0 11 0;
#X connect 9 0 10 0;
#X connect 9 1 2 0;
#X connect 9 2 8 1;
#X connect 10 0 12 0;
#X connect 11 0 10 1;
