#N canvas 657 405 402 410 10;
#X obj 12 14 inlet;
#X text 115 11 get data of a given netpd preference setting;
#X obj 29 123 list prepend pref get;
#X obj 29 144 list trim;
#X obj 29 165 s NETPD;
#X obj 29 186 r NETPD;
#X obj 29 207 route pref;
#X obj 29 228 list split 1;
#X obj 29 251 sel _;
#X obj 12 341 list;
#X obj 65 308 list;
#X obj 12 362 outlet;
#X msg 29 279 1;
#X msg 99 277 0;
#X obj 12 300 spigot;
#X obj 12 101 t b a a b;
#X obj 69 57 t b a;
#X obj 12 79 list append \$1;
#X obj 12 36 route bang;
#X connect 0 0 18 0;
#X connect 2 0 3 0;
#X connect 3 0 4 0;
#X connect 5 0 6 0;
#X connect 6 0 7 0;
#X connect 7 0 8 0;
#X connect 7 1 10 1;
#X connect 8 0 12 0;
#X connect 8 0 10 0;
#X connect 9 0 11 0;
#X connect 10 0 9 1;
#X connect 12 0 14 1;
#X connect 13 0 14 1;
#X connect 14 0 9 0;
#X connect 15 0 14 0;
#X connect 15 1 2 0;
#X connect 15 2 8 1;
#X connect 15 3 13 0;
#X connect 16 0 17 0;
#X connect 16 1 17 1;
#X connect 17 0 15 0;
#X connect 18 0 17 0;
#X connect 18 1 16 0;
