#N canvas 431 99 744 730 10;
#X obj 25 35 list;
#X obj 159 271 netpd-abslist;
#X obj 25 12 inlet;
#X obj 159 318 t a a;
#X obj 159 295 list;
#X msg 97 326 patch \$1;
#X msg 159 339 abstraction \$1;
#X obj 40 692 outlet;
#X obj 97 362 t a;
#X obj 40 418 netpd-fifo;
#X obj 40 394 until;
#X text 112 418 buffer dependency list in order to spare the Pd stack
;
#X obj 103 627 netpd-version;
#X obj 40 455 t a a;
#X obj 103 487 route patch abstraction;
#X obj 103 509 list;
#X obj 170 508 list;
#X obj 40 649 list append;
#X obj 40 671 list trim;
#X text 65 22 --------- resolve dependencies recursily ---------------
;
#X obj 369 658 outlet finished;
#X obj 25 86 s \$0.done;
#X obj 369 490 r \$0.done;
#X obj 159 194 netpd-if-file;
#X obj 159 216 sel 1 0;
#X obj 159 171 t a a;
#X obj 159 249 list;
#X obj 293 372 s \$0.error;
#X msg 53 339 clear;
#X obj 293 350 list prepend not_found;
#X obj 369 543 list append;
#X obj 401 514 r \$0.error;
#X obj 369 565 list trim;
#X obj 25 57 t b b a a b;
#X obj 369 587 route bang;
#X obj 453 633 s \$0.clear;
#X obj 426 609 t a b;
#X obj 53 302 r \$0.clear;
#X obj 40 241 f;
#X obj 40 263 sel 1;
#X obj 88 230 r \$0.error;
#X msg 88 252 0;
#X text 326 153 --- error handling ----;
#X text 52 440 ------ get version for each -----;
#X text 366 458 --- status outlet ----;
#X obj 88 85 s \$0.reset;
#X obj 89 179 r \$0.reset;
#X msg 89 201 1;
#X obj 452 535 r \$0.reset;
#X obj 159 106 until;
#X obj 159 127 netpd-fifo;
#X text 231 126 <- buffer overflow prevention;
#X msg 362 299 symbol patch;
#X obj 293 329 list prepend;
#X obj 159 43 t b a b;
#X obj 274 167 t a b;
#X msg 396 273 symbol abstraction;
#X obj 293 258 list;
#X obj 274 193 list prepend;
#X obj 216 81 list prepend;
#X obj 343 55 loadbang;
#X obj 343 78 netpd-pref-get netpd-instruments-path;
#X msg 216 103 \$1/\$2.pd;
#X msg 274 217 \$1/abs/\$2.pd;
#X obj 103 556 list prepend;
#X obj 170 533 list prepend;
#X msg 170 580 \$1/abs/\$2.pd;
#X msg 103 604 \$1/\$2.pd;
#X connect 0 0 33 0;
#X connect 1 0 4 0;
#X connect 2 0 0 0;
#X connect 3 0 6 0;
#X connect 3 1 55 0;
#X connect 4 0 3 0;
#X connect 5 0 8 0;
#X connect 6 0 8 0;
#X connect 8 0 9 1;
#X connect 9 0 13 0;
#X connect 9 1 10 1;
#X connect 10 0 9 0;
#X connect 12 0 17 1;
#X connect 13 0 17 0;
#X connect 13 1 14 0;
#X connect 14 0 15 0;
#X connect 14 1 16 0;
#X connect 15 0 64 0;
#X connect 16 0 65 0;
#X connect 17 0 18 0;
#X connect 18 0 7 0;
#X connect 22 0 30 0;
#X connect 23 0 24 0;
#X connect 24 0 26 0;
#X connect 24 1 57 0;
#X connect 25 0 23 0;
#X connect 25 1 26 1;
#X connect 25 1 57 1;
#X connect 26 0 1 0;
#X connect 28 0 9 0;
#X connect 29 0 27 0;
#X connect 30 0 32 0;
#X connect 31 0 30 1;
#X connect 32 0 34 0;
#X connect 33 0 21 0;
#X connect 33 1 38 0;
#X connect 33 2 5 0;
#X connect 33 3 54 0;
#X connect 33 4 45 0;
#X connect 34 0 20 0;
#X connect 34 1 36 0;
#X connect 36 0 20 0;
#X connect 36 1 35 0;
#X connect 37 0 28 0;
#X connect 38 0 39 0;
#X connect 39 0 10 0;
#X connect 40 0 41 0;
#X connect 41 0 38 1;
#X connect 46 0 47 0;
#X connect 47 0 38 1;
#X connect 48 0 30 1;
#X connect 49 0 50 0;
#X connect 50 0 25 0;
#X connect 50 1 49 1;
#X connect 52 0 53 1;
#X connect 53 0 29 0;
#X connect 54 0 49 0;
#X connect 54 1 59 0;
#X connect 54 2 52 0;
#X connect 55 0 58 0;
#X connect 55 1 56 0;
#X connect 56 0 53 1;
#X connect 57 0 53 0;
#X connect 58 0 63 0;
#X connect 59 0 62 0;
#X connect 60 0 61 0;
#X connect 61 0 58 1;
#X connect 61 0 59 1;
#X connect 61 0 65 1;
#X connect 61 0 64 1;
#X connect 62 0 50 1;
#X connect 63 0 50 1;
#X connect 64 0 67 0;
#X connect 65 0 66 0;
#X connect 66 0 12 0;
#X connect 67 0 12 0;
