#N canvas 392 44 445 487 10;
#X obj 23 35 list;
#X obj 159 104 netpd-abslist;
#X obj 23 12 inlet;
#X obj 159 150 t a a;
#X obj 159 127 list;
#X msg 97 136 patch \$1;
#X msg 159 171 abstraction \$1;
#X obj 40 452 outlet;
#X obj 97 198 t a;
#X obj 40 228 netpd-fifo;
#X obj 40 204 until;
#X text 112 228 buffer dependency list in order to spare the Pd stack
;
#X obj 103 387 netpd-version;
#X obj 40 265 t a a;
#X obj 103 297 route patch abstraction;
#X obj 103 319 list;
#X obj 170 318 list;
#X obj 40 409 list append;
#X obj 40 431 list trim;
#X text 86 269 --------- get version for each --------------------
;
#X text 61 37 --------- resolve dependencies recursily ---------------
;
#X obj 23 57 t b b a a;
#X obj 326 405 outlet finished;
#X obj 23 98 s \$0.done;
#X obj 326 382 r \$0.done;
#X msg 213 131 ../abs/\$1.pd;
#X msg 159 83 ../patches/\$1.pd;
#X msg 170 340 ../abs/\$1.pd;
#X msg 103 364 ../patches/\$1.pd;
#X connect 0 0 21 0;
#X connect 1 0 4 0;
#X connect 2 0 0 0;
#X connect 3 0 6 0;
#X connect 3 1 25 0;
#X connect 4 0 3 0;
#X connect 5 0 8 0;
#X connect 6 0 8 0;
#X connect 8 0 9 1;
#X connect 9 0 13 0;
#X connect 9 1 10 1;
#X connect 10 0 9 0;
#X connect 12 0 17 1;
#X connect 13 0 17 0;
#X connect 13 1 14 0;
#X connect 14 0 15 0;
#X connect 14 1 16 0;
#X connect 15 0 28 0;
#X connect 16 0 27 0;
#X connect 17 0 18 0;
#X connect 18 0 7 0;
#X connect 21 0 23 0;
#X connect 21 1 10 0;
#X connect 21 2 5 0;
#X connect 21 3 26 0;
#X connect 24 0 22 0;
#X connect 25 0 1 0;
#X connect 26 0 1 0;
#X connect 27 0 12 0;
#X connect 28 0 12 0;
