#N canvas 174 131 432 488 10;
#X obj 71 438 outlet;
#X obj 20 13 inlet;
#X obj 137 139 unpack f f;
#X obj 137 159 array get \$1;
#X obj 137 179 list prepend 0;
#N canvas 532 142 508 392 DSP.processing 0;
#X obj 6 13 inlet;
#X obj 160 238 wrap~;
#X obj 144 259 -~;
#X obj 145 191 /~ 256;
#X obj 242 285 *~ 256;
#X obj 226 312 -~;
#X obj 242 116 wrap~;
#X obj 226 139 -~;
#X obj 226 46 *~ 32767.5;
#X obj 226 68 +~ 32768;
#X obj 242 97 +~ 1;
#X obj 161 218 +~ 1;
#X text 277 97 <- work-around [wrap~] bug;
#X text 203 217 <- work-around [wrap~] bug;
#N canvas 313 305 500 262 reblock_upsampled_by_2 0;
#X obj 15 20 inlet;
#X obj 236 91 rzero_rev~ 0;
#X text 321 88 <- one sample delay;
#X obj 158 161 +~;
#X obj 157 25 inlet~ pad;
#X obj 236 27 inlet~ pad;
#X obj 15 98 switch~ 128 1 2;
#X obj 157 193 tabsend~ \$0.out.segment;
#X connect 0 0 6 0;
#X connect 1 0 3 1;
#X connect 3 0 7 0;
#X connect 4 0 3 0;
#X connect 5 0 1 0;
#X restore 6 346 pd reblock_upsampled_by_2;
#X obj 33 83 switch~ 64 1 1;
#X obj 227 21 tabreceive~ \$0.in.segment;
#X obj 6 55 t b b;
#X connect 0 0 17 0;
#X connect 1 0 2 1;
#X connect 2 0 4 0;
#X connect 2 0 14 1;
#X connect 3 0 2 0;
#X connect 3 0 11 0;
#X connect 4 0 5 1;
#X connect 5 0 14 2;
#X connect 6 0 7 1;
#X connect 7 0 3 0;
#X connect 7 0 5 0;
#X connect 8 0 9 0;
#X connect 9 0 7 0;
#X connect 9 0 10 0;
#X connect 10 0 6 0;
#X connect 11 0 1 0;
#X connect 16 0 8 0;
#X connect 17 0 14 0;
#X connect 17 1 15 0;
#X restore 117 227 pd DSP.processing;
#X msg 98 252 \$2;
#X obj 98 274 * 2;
#X obj 137 199 s \$0.in.segment;
#X obj 239 36 table \$0.in.segment 64;
#X obj 239 55 table \$0.out.segment 128;
#X obj 98 91 netpd-range-slice 64;
#X obj 20 38 route set;
#X obj 20 73 list;
#X obj 98 119 t a b a;
#X obj 98 294 t b a;
#X obj 71 61 t b a;
#N canvas 443 388 344 105 msgbox 0;
#X obj 10 7 inlet;
#X obj 10 59 outlet;
#X msg 10 33;
#X connect 0 0 2 0;
#X connect 2 0 1 0;
#X restore 71 414 pd msgbox;
#X obj 98 342 list prepend add2;
#X msg 71 386 bang \, set;
#X obj 98 317 array get \$0.out.segment;
#X obj 98 364 list trim;
#X connect 1 0 12 0;
#X connect 2 0 3 0;
#X connect 2 1 3 1;
#X connect 3 0 4 0;
#X connect 4 0 8 0;
#X connect 6 0 7 0;
#X connect 7 0 15 0;
#X connect 11 0 14 0;
#X connect 12 0 13 0;
#X connect 12 1 16 0;
#X connect 13 0 3 2;
#X connect 14 0 6 0;
#X connect 14 1 5 0;
#X connect 14 2 2 0;
#X connect 15 0 20 0;
#X connect 15 1 20 1;
#X connect 16 0 19 0;
#X connect 16 1 11 0;
#X connect 17 0 0 0;
#X connect 18 0 21 0;
#X connect 19 0 17 0;
#X connect 20 0 18 0;
#X connect 21 0 17 0;
