#N canvas 1120 566 715 386 10;
#X obj 7 14 inlet;
#X obj 7 37 s \$0.in.0;
#X obj 72 15 inlet;
#X obj 72 38 s \$0.in.1;
#X obj 16 255 r \$0.out.0;
#X obj 16 278 outlet;
#X obj 102 278 outlet;
#X obj 102 255 r \$0.out.1;
#N canvas 762 374 358 547 push 0;
#X obj 20 15 r \$0.in.1;
#X obj 20 64 list;
#X obj 20 87 fudiformat;
#X obj 20 113 t a a;
#X obj 47 139 list length;
#X obj 20 166 list prepend;
#X obj 71 256 v \$0.push.i;
#X obj 20 38 route bang;
#X obj 54 315 array set \$0.data;
#X obj 20 229 t b a a b;
#X msg 37 344 \$1;
#X obj 183 377 v \$0.push.i;
#X obj 37 367 + 1;
#X obj 20 499 v \$0.length;
#X obj 101 499 + 1;
#X obj 156 354 t a b;
#X obj 156 399 +;
#X obj 156 496 v \$0.push.i;
#X obj 37 390 t b a a;
#X obj 37 447 v \$0.size;
#X obj 103 446 +;
#N canvas 1158 460 475 350 trigger_resize 0;
#X obj 36 29 inlet;
#X obj 36 220 outlet;
#X obj 105 83 list length;
#X obj 36 55 t a a, f 12;
#X obj 144 179 array size \$0.data;
#X obj 124 142 v \$0.size;
#X obj 105 111 t a b b;
#X obj 105 167 +;
#X obj 105 240 sel 1;
#X obj 105 190 t a a;
#X obj 163 242 max;
#X obj 178 214 * 2;
#X obj 105 270 f;
#X obj 105 295 s \$0.resize;
#X obj 105 217 >=;
#X connect 0 0 3 0;
#X connect 2 0 6 0;
#X connect 3 0 1 0;
#X connect 3 1 2 0;
#X connect 4 0 11 0;
#X connect 4 0 14 1;
#X connect 5 0 7 1;
#X connect 6 0 7 0;
#X connect 6 1 5 0;
#X connect 6 2 4 0;
#X connect 7 0 9 0;
#X connect 8 0 12 0;
#X connect 9 0 14 0;
#X connect 9 1 10 0;
#X connect 10 0 12 1;
#X connect 11 0 10 1;
#X connect 12 0 13 0;
#X connect 14 0 8 0;
#X restore 20 199 pd trigger_resize;
#N canvas 1231 915 411 471 wrap_around 0;
#X obj 3 16 inlet;
#X obj 214 42 inlet;
#X obj 3 377 outlet;
#X obj 176 366 outlet;
#X obj 3 89 array size \$0.data;
#X obj 3 137 -;
#X obj 3 207 list append;
#X obj 3 181 t b a, f 6;
#X obj 3 231 list split, f 24;
#X msg 100 300 0;
#X obj 3 254 t a b;
#X obj 30 281 f;
#X obj 73 275 t a b;
#X obj 3 54 t b b a, f 19;
#X obj 144 263 t a b;
#X obj 171 290 f;
#X connect 0 0 13 0;
#X connect 1 0 11 1;
#X connect 1 0 5 1;
#X connect 1 0 15 1;
#X connect 4 0 5 0;
#X connect 5 0 7 0;
#X connect 6 0 8 0;
#X connect 7 0 6 0;
#X connect 7 1 8 1;
#X connect 8 0 10 0;
#X connect 8 1 12 0;
#X connect 8 2 14 0;
#X connect 9 0 3 0;
#X connect 10 0 2 0;
#X connect 10 1 11 0;
#X connect 11 0 3 0;
#X connect 12 0 2 0;
#X connect 12 1 9 0;
#X connect 13 0 4 0;
#X connect 13 2 6 1;
#X connect 14 0 2 0;
#X connect 14 1 15 0;
#X connect 15 0 3 0;
#X restore 54 286 pd wrap_around;
#X obj 156 422 t a b;
#X obj 183 446 array size \$0.data;
#X obj 156 469 mod;
#X connect 0 0 7 0;
#X connect 1 0 2 0;
#X connect 2 0 3 0;
#X connect 3 0 5 0;
#X connect 3 1 4 0;
#X connect 4 0 5 1;
#X connect 5 0 21 0;
#X connect 6 0 22 1;
#X connect 7 1 1 0;
#X connect 9 0 13 0;
#X connect 9 1 10 0;
#X connect 9 2 22 0;
#X connect 9 3 6 0;
#X connect 10 0 12 0;
#X connect 11 0 16 1;
#X connect 12 0 18 0;
#X connect 13 0 14 0;
#X connect 14 0 13 0;
#X connect 15 0 16 0;
#X connect 15 1 11 0;
#X connect 16 0 23 0;
#X connect 18 0 19 0;
#X connect 18 1 20 1;
#X connect 18 2 15 0;
#X connect 19 0 20 0;
#X connect 20 0 19 0;
#X connect 21 0 9 0;
#X connect 22 0 8 0;
#X connect 22 1 8 1;
#X connect 23 0 25 0;
#X connect 23 1 24 0;
#X connect 24 0 25 1;
#X connect 25 0 17 0;
#X restore 9 75 pd push;
#N canvas 1280 469 558 612 pop 0;
#X obj 20 38 route bang;
#X obj 87 205 v \$0.pop.i;
#X obj 258 254 tabread \$0.data;
#X obj 114 262 + 1;
#X obj 114 285 t a a;
#X obj 114 317 +;
#X obj 114 411 v \$0.pop.i;
#X obj 20 559 s \$0.out.0;
#X obj 245 393 fudiparse;
#X obj 87 230 t b a a, f 28;
#X obj 87 442 v \$0.length;
#X obj 171 444 - 1;
#X obj 48 128 v \$0.length;
#X obj 48 156 moses 1;
#X obj 48 477 s \$0.out.1;
#X obj 48 179 b;
#X obj 87 179 b;
#X obj 258 281 t a a a;
#X obj 387 344 + 1;
#X obj 387 367 t b a;
#X obj 387 406 v \$0.size;
#X obj 453 406 -;
#X obj 20 15 r \$0.in.0;
#N canvas 1087 904 450 445 wrap_around 0;
#X obj 28 18 inlet;
#X obj 224 29 inlet;
#X obj 28 373 outlet;
#X obj 28 117 array get \$0.data;
#X obj 28 140 t a a;
#X obj 55 165 list length;
#X obj 55 225 -, f 4;
#X obj 55 295 array get \$0.data;
#X obj 55 248 t b a;
#X msg 55 271 0;
#X obj 28 333 list append;
#X obj 55 198 swap;
#X connect 0 0 3 0;
#X connect 1 0 3 1;
#X connect 1 0 11 1;
#X connect 3 0 4 0;
#X connect 4 0 10 0;
#X connect 4 1 5 0;
#X connect 5 0 11 0;
#X connect 6 0 8 0;
#X connect 7 0 10 1;
#X connect 8 0 9 0;
#X connect 8 1 7 1;
#X connect 9 0 7 0;
#X connect 10 0 2 0;
#X connect 11 0 6 0;
#X connect 11 1 6 1;
#X restore 245 361 pd wrap_around;
#X obj 114 340 t a b;
#X obj 121 364 array size \$0.data;
#X obj 114 387 mod;
#X obj 20 533 list trim;
#X obj 20 509 list append, f 38;
#X obj 20 61 t b b b, f 10;
#X msg 77 86 0;
#X msg 60 286 1;
#X obj 20 329 f;
#X obj 20 352 sel 1;
#X connect 0 0 29 0;
#X connect 1 0 9 0;
#X connect 2 0 17 0;
#X connect 3 0 4 0;
#X connect 4 0 5 0;
#X connect 4 1 23 0;
#X connect 5 0 24 0;
#X connect 8 0 28 1;
#X connect 9 0 10 0;
#X connect 9 0 31 0;
#X connect 9 1 3 0;
#X connect 9 2 2 0;
#X connect 10 0 11 0;
#X connect 11 0 10 0;
#X connect 12 0 13 0;
#X connect 13 0 15 0;
#X connect 13 1 16 0;
#X connect 15 0 14 0;
#X connect 16 0 1 0;
#X connect 17 0 18 0;
#X connect 17 1 5 1;
#X connect 17 2 23 1;
#X connect 18 0 19 0;
#X connect 19 0 20 0;
#X connect 19 1 21 1;
#X connect 20 0 21 0;
#X connect 21 0 20 0;
#X connect 22 0 0 0;
#X connect 23 0 8 0;
#X connect 24 0 26 0;
#X connect 24 1 25 0;
#X connect 25 0 26 1;
#X connect 26 0 6 0;
#X connect 27 0 7 0;
#X connect 28 0 27 0;
#X connect 29 0 32 0;
#X connect 29 1 12 0;
#X connect 29 2 30 0;
#X connect 30 0 32 1;
#X connect 31 0 32 1;
#X connect 32 0 33 0;
#X connect 33 0 28 0;
#X restore 9 99 pd pop;
#N canvas 670 604 450 300 clear 0;
#X obj 19 144 v \$0.push.i;
#X obj 93 144 v \$0.pop.i;
#X obj 160 144 v \$0.length;
#X obj 236 144 v \$0.size;
#X obj 19 9 r \$0.in.0;
#X obj 19 32 route clear;
#X obj 19 55 b;
#X msg 19 78 0;
#X connect 4 0 5 0;
#X connect 5 0 6 0;
#X connect 6 0 7 0;
#X connect 7 0 0 0;
#X connect 7 0 3 0;
#X connect 7 0 2 0;
#X connect 7 0 1 0;
#X restore 9 123 pd clear;
#N canvas 1195 999 596 297 resize 0;
#X obj 12 14 r \$0.resize;
#X obj 95 124 v \$0.push.i;
#X obj 122 98 v \$0.pop.i;
#X obj 95 72 t b b;
#X obj 12 38 t a b;
#N canvas 0 0 800 561 re-arrange 0;
#X obj 22 24 inlet;
#X obj 235 80 v \$0.pop.i;
#X obj 235 159 array get \$0.data;
#X obj 235 103 t a b;
#X msg 262 129 -1;
#X obj 235 182 list prepend 0;
#X obj 213 267 v \$0.push.i;
#X obj 164 240 t b b;
#X obj 164 292 array get \$0.data;
#X text 413 163 |________________|.......|____|;
#X text 566 149 POP;
#X text 516 149 PUSH;
#X text 415 240 POP;
#X text 547 240 PUSH;
#X text 413 253 |____|________________|.......|;
#X text 504 192 V;
#X text 504 202 V;
#X text 504 212 V;
#X obj 235 208 t a a, f 17;
#X obj 235 231 list length;
#X obj 164 322 list prepend;
#X obj 93 354 list append;
#X obj 175 354 list append;
#X obj 93 319 t b b;
#X obj 93 389 s \$0.data;
#X text 395 57 We need to re-arrange the data so that we can use the
new space after growing the buffer.;
#X obj 22 55 t b b b b, f 36;
#X obj 22 414 t b b, f 13;
#X obj 22 480 v \$0.pop.i;
#X obj 97 482 v \$0.push.i;
#X obj 97 455 v \$0.size;
#X msg 22 437 0;
#X msg 164 263 0;
#X obj 317 290 - 1;
#X text 352 290 <- why this?;
#X connect 0 0 26 0;
#X connect 1 0 3 0;
#X connect 2 0 5 0;
#X connect 3 0 2 0;
#X connect 3 1 4 0;
#X connect 4 0 2 1;
#X connect 5 0 18 0;
#X connect 6 0 8 1;
#X connect 7 0 32 0;
#X connect 7 1 6 0;
#X connect 8 0 20 0;
#X connect 18 0 19 0;
#X connect 18 1 22 1;
#X connect 19 0 33 0;
#X connect 20 0 21 1;
#X connect 21 0 24 0;
#X connect 22 0 24 0;
#X connect 23 0 21 0;
#X connect 23 1 22 0;
#X connect 26 0 27 0;
#X connect 26 1 23 0;
#X connect 26 2 7 0;
#X connect 26 3 1 0;
#X connect 27 0 31 0;
#X connect 27 1 30 0;
#X connect 30 0 29 0;
#X connect 31 0 28 0;
#X connect 32 0 8 0;
#X connect 33 0 20 1;
#X restore 95 195 pd re-arrange;
#X obj 95 171 sel 1;
#X text 195 95 only re-arrange when active range is wrapped around
array border;
#X msg 12 220 resize \$1;
#X obj 12 243 s \$0.data;
#X obj 95 148 <=;
#X connect 0 0 4 0;
#X connect 1 0 10 0;
#X connect 2 0 10 1;
#X connect 3 0 1 0;
#X connect 3 1 2 0;
#X connect 4 0 8 0;
#X connect 4 1 3 0;
#X connect 6 0 5 0;
#X connect 8 0 9 0;
#X connect 10 0 6 0;
#X restore 9 147 pd resize;
#N canvas 643 600 426 221 length 0;
#X obj 9 11 r \$0.in.0;
#X obj 9 43 route length;
#X obj 9 66 b;
#X obj 9 89 v \$0.length;
#X obj 9 135 s \$0.out.1;
#X msg 9 112 length \$1;
#X connect 0 0 1 0;
#X connect 1 0 2 0;
#X connect 2 0 3 0;
#X connect 3 0 5 0;
#X connect 5 0 4 0;
#X restore 9 172 pd length;
#N canvas 566 539 411 176 size 0;
#X obj 9 11 r \$0.in.0;
#X obj 9 127 s \$0.out.1;
#X obj 9 35 route size;
#X obj 9 58 b;
#X obj 9 81 v \$0.size;
#X msg 9 104 size \$1;
#X connect 0 0 2 0;
#X connect 2 0 3 0;
#X connect 3 0 4 0;
#X connect 4 0 5 0;
#X connect 5 0 1 0;
#X restore 10 196 pd size;
#X obj 175 125 v \$0.push.i;
#X obj 249 125 v \$0.pop.i;
#X obj 316 125 v \$0.length;
#X floatatom 175 148 5 0 0 0 - - - 0;
#X floatatom 249 148 5 0 0 0 - - - 0;
#X floatatom 316 148 5 0 0 0 - - - 0;
#X obj 175 96 bng 15 250 50 0 empty empty empty 17 7 0 10 #fcfcfc #000000
#000000;
#X obj 249 97 bng 15 250 50 0 empty empty empty 17 7 0 10 #fcfcfc #000000
#000000;
#X obj 316 97 bng 15 250 50 0 empty empty empty 17 7 0 10 #fcfcfc #000000
#000000;
#X obj 460 124 tabread \$0.data;
#X floatatom 460 147 5 0 0 0 - - - 0;
#X floatatom 460 101 5 0 0 0 - - - 0;
#X msg 276 64 0;
#X floatatom 392 148 5 0 0 0 - - - 0;
#X obj 392 97 bng 15 250 50 0 empty empty empty 17 7 0 10 #fcfcfc #000000
#000000;
#X obj 392 125 v \$0.size;
#X floatatom 237 221 5 0 0 0 - - - 0;
#X msg 237 243 \$1 0;
#X obj 237 266 s \$0.data;
#X msg 287 240 const 0;
#X obj 384 254 array get \$0.data;
#X obj 402 316 print;
#X msg 387 207 10 8;
#X obj 384 277 fudiparse;
#X obj 204 24 array define -yrange 0 255 \$0.data 10;
#X connect 0 0 1 0;
#X connect 2 0 3 0;
#X connect 4 0 5 0;
#X connect 7 0 6 0;
#X connect 14 0 17 0;
#X connect 15 0 18 0;
#X connect 16 0 19 0;
#X connect 20 0 14 0;
#X connect 21 0 15 0;
#X connect 22 0 16 0;
#X connect 23 0 24 0;
#X connect 25 0 23 0;
#X connect 26 0 15 0;
#X connect 26 0 14 0;
#X connect 26 0 16 0;
#X connect 26 0 29 0;
#X connect 28 0 29 0;
#X connect 29 0 27 0;
#X connect 30 0 31 0;
#X connect 31 0 32 0;
#X connect 33 0 32 0;
#X connect 34 0 37 0;
#X connect 36 0 34 0;
#X connect 37 0 35 0;
