#N canvas 415 44 503 359 10;
#X obj 1 0 cnv 15 500 30 empty empty empty 20 12 0 14 #e0e0e0 #404040 0;
#X text 130 7;
#X text 7 7 netpd-search - search instruments or abs paths;
#X obj 20 230 netpd-search;
#X text 232 192 inlet0: instrument or abs name;
#X text 226 232 outlet0: full path;
#X text 244 252 arg1: 0|1 (search abs -> 1);
#X text 232 212 inlet1: 0|1 (search abs -> 1);
#X obj 89 181 tgl 18 0 empty empty empty 0 -9 0 10 #fcfcfc #000000 #000000 0 1;
#X text 114 175 0: instrument;
#X text 114 188 1: abs;
#X obj 89 269 print not_found;
#X msg 20 70 sine;
#X msg 33 96 sine-voice;
#X msg 48 127 foo;
#X obj 20 313 print netpd-search;
#X text 153 49 find instrument or abs path in the order:;
#X text 180 69 1) user configured path;
#X text 181 86 2) hard-coded built-in path;
#X text 155 106 and return full path of first result;
#X connect 3 0 15 0;
#X connect 3 1 11 0;
#X connect 8 0 3 1;
#X connect 12 0 3 0;
#X connect 13 0 3 0;
#X connect 14 0 3 0;
