#N canvas 80 1366 278 281 10;
#X obj 134 119 list append;
#X obj 134 96 r \$0.i.0;
#X obj 197 96 r \$0.i.1;
#X obj 134 143 s \$0.o.0;
#X obj 16 14 inlet;
#X obj 16 37 s \$0.inlet;
#X obj 16 214 r \$0.outlet;
#X obj 16 237 outlet;
#N canvas 292 1406 171 342 append 0;
#X obj 14 10 r \$0.inlet;
#X obj 14 32 route append;
#X obj 41 245 s \$0.i.0;
#X obj 14 312 s \$0.i.1;
#X obj 41 264 r \$0.o.0;
#X obj 14 54 t a a;
#X msg 14 76 \$1;
#X msg 41 76 symbol \$2;
#X obj 14 119 route float;
#X obj 41 98 route symbol;
#X obj 14 140 list append;
#X obj 14 223 t a b;
#X obj 14 288 list prepend;
#X obj 14 162 t a a;
#X msg 41 182 drop \$1;
#X obj 41 202 s \$0.inlet;
#X connect 0 0 1 0;
#X connect 1 0 5 0;
#X connect 4 0 12 1;
#X connect 5 0 6 0;
#X connect 5 1 7 0;
#X connect 6 0 8 0;
#X connect 7 0 9 0;
#X connect 8 0 10 0;
#X connect 9 0 10 1;
#X connect 10 0 13 0;
#X connect 11 0 12 0;
#X connect 11 1 2 0;
#X connect 12 0 3 0;
#X connect 13 0 11 0;
#X connect 13 1 14 0;
#X connect 14 0 15 0;
#X restore 16 89 pd append;
#N canvas 300 1385 215 395 drop 0;
#X obj 14 10 r \$0.inlet;
#X obj 33 98 s \$0.i.0;
#X obj 14 339 s \$0.i.1;
#X obj 33 117 r \$0.o.0;
#X obj 14 139 list append;
#X obj 14 32 route drop;
#X obj 14 54 route float;
#X obj 31 189 until;
#X obj 31 211 list append;
#X obj 119 229 bang;
#X obj 31 232 list split 2;
#X obj 31 254 route;
#X obj 14 76 t b b a;
#X obj 14 161 t b b a b;
#X obj 58 277 list prepend;
#X obj 151 277 t a;
#X obj 14 315 list;
#X obj 152 230 t b;
#X connect 0 0 5 0;
#X connect 3 0 4 1;
#X connect 4 0 13 0;
#X connect 5 0 6 0;
#X connect 6 0 12 0;
#X connect 7 0 8 0;
#X connect 8 0 10 0;
#X connect 9 0 7 1;
#X connect 10 0 11 0;
#X connect 10 1 8 1;
#X connect 10 2 9 0;
#X connect 11 1 14 0;
#X connect 12 0 4 0;
#X connect 12 1 1 0;
#X connect 12 2 11 1;
#X connect 13 0 16 0;
#X connect 13 1 7 0;
#X connect 13 2 8 1;
#X connect 13 3 17 0;
#X connect 14 0 15 0;
#X connect 14 0 16 1;
#X connect 15 0 14 1;
#X connect 16 0 2 0;
#X connect 17 0 14 1;
#X connect 17 0 16 1;
#X restore 16 109 pd drop;
#N canvas 300 1385 219 428 get 0;
#X obj 14 10 r \$0.inlet;
#X obj 33 98 s \$0.i.0;
#X obj 33 117 r \$0.o.0;
#X obj 14 139 list append;
#X obj 14 54 route float;
#X obj 31 189 until;
#X obj 31 211 list append;
#X obj 119 229 bang;
#X obj 31 232 list split 2;
#X obj 31 254 route;
#X obj 14 76 t b b a;
#X obj 14 161 t b b a b;
#X obj 58 321 list;
#X obj 58 396 s \$0.outlet;
#X obj 14 32 route get;
#X obj 31 276 t b a;
#X msg 31 297 1;
#X msg 65 299 0;
#X obj 14 324 f;
#X obj 14 346 sel 0;
#X msg 14 368 symbol empty;
#X connect 0 0 14 0;
#X connect 2 0 3 1;
#X connect 3 0 11 0;
#X connect 4 0 10 0;
#X connect 5 0 6 0;
#X connect 6 0 8 0;
#X connect 7 0 5 1;
#X connect 8 0 9 0;
#X connect 8 1 6 1;
#X connect 8 2 7 0;
#X connect 9 0 15 0;
#X connect 10 0 3 0;
#X connect 10 1 1 0;
#X connect 10 2 9 1;
#X connect 11 0 18 0;
#X connect 11 1 5 0;
#X connect 11 2 6 1;
#X connect 11 3 17 0;
#X connect 12 0 13 0;
#X connect 14 0 4 0;
#X connect 15 0 16 0;
#X connect 15 1 12 0;
#X connect 16 0 18 1;
#X connect 17 0 18 1;
#X connect 18 0 19 0;
#X connect 19 0 20 0;
#X connect 20 0 13 0;
#X restore 16 149 pd get;
#N canvas 300 1385 177 297 getall 0;
#X obj 14 10 r \$0.inlet;
#X obj 41 78 s \$0.i.0;
#X obj 41 97 r \$0.o.0;
#X obj 14 119 list append;
#X obj 14 167 until;
#X obj 14 189 list append;
#X obj 107 205 bang;
#X obj 14 210 list split 2;
#X obj 14 235 s \$0.outlet;
#X obj 14 32 route getall;
#X obj 14 56 t b b;
#X obj 14 141 t b a;
#X connect 0 0 9 0;
#X connect 2 0 3 1;
#X connect 3 0 11 0;
#X connect 4 0 5 0;
#X connect 5 0 7 0;
#X connect 6 0 4 1;
#X connect 7 0 8 0;
#X connect 7 1 5 1;
#X connect 7 2 6 0;
#X connect 9 0 10 0;
#X connect 10 0 3 0;
#X connect 10 1 1 0;
#X connect 11 0 4 0;
#X connect 11 1 5 1;
#X restore 16 169 pd getall;
#X text 18 68 methods:;
#N canvas 294 1497 142 199 dropall 0;
#X obj 14 10 r \$0.inlet;
#X obj 14 32 route dropall;
#X obj 14 55 s \$0.i.1;
#X connect 0 0 1 0;
#X connect 1 0 2 0;
#X restore 16 129 pd dropall;
#X connect 0 0 3 0;
#X connect 1 0 0 0;
#X connect 2 0 0 1;
#X connect 4 0 5 0;
#X connect 6 0 7 0;
