#N canvas 692 264 878 727 10;
#X obj 19 380 t a a, f 29;
#X obj 19 561 t a a, f 8;
#X obj 64 623 set \$0.number number;
#X obj 19 413 get \$0.number number;
#X obj 379 616 set \$0.number bgclr;
#X obj 378 431 set \$0.number w;
#X obj 477 433 set \$0.number h;
#X obj 66 303 pointer \$0.number;
#N canvas 1205 328 1936 1364 \$0.gop 0;
#X coords 0 0 34 16 34 16 2 50 50;
#X restore 50 50 pd \$0.gop;
#X obj 93 258 s pd-\$0.gop;
#X msg 66 280 traverse pd-\$1.gop \, next;
#X obj 66 155 f \$0;
#X obj 424 363 s pd-\$0.gop;
#X obj 430 248 t b a;
#X msg 424 337 coords 0 0 \$1 \$2 \$1 \$2 2 50 50;
#X obj 378 338 t a a;
#X obj 181 600 r \$0.p;
#X obj 190 404 s \$0.p;
#X obj 564 401 r \$0.p;
#X obj 378 401 unpack f f, f 17;
#X obj 510 536 r \$0.p;
#X obj 379 526 set \$0.number fclr;
#X obj 15 108 loadbang;
#X obj 66 179 t a a;
#X obj 758 11 namecanvas \$0.top;
#X obj 499 363 s \$0.top;
#X text 162 217 x y number fclr bgclr w h;
#X obj 647 611 s \$0.top;
#X msg 647 586 font \$1 100 100;
#X text 661 132 args:;
#X text 661 152 arg1: sendname;
#X text 661 172 arg2: width;
#X text 661 272 arg7: background color;
#X text 661 292 arg8: text color;
#X text 661 192 arg3: height;
#X text 661 212 arg4: fontsize;
#X text 661 232 arg5: range min;
#X text 661 252 arg6: range max;
#X obj 378 200 r \$1;
#X obj 378 223 route width height;
#X obj 647 489 r \$1;
#X obj 647 512 route fontsize;
#X obj 378 306 pack \$2 \$3;
#X obj 379 477 r \$1;
#X obj 379 500 route text_color;
#X obj 379 568 r \$1;
#X obj 379 591 route background_color;
#X msg 93 236 scalar \$1.number 0 0 0 \$2 \$3 \$4 \$5;
#X obj 19 624 s \$1;
#X obj 95 551 r \$1;
#X obj 95 574 route float;
#X obj 170 574 route set;
#X obj 19 538 clip \$5 \$6;
#X obj 47 435 r \$1;
#X obj 47 458 route range_min range_max;
#X msg 638 382 clear;
#X obj 638 409 s pd-\$0.gop;
#X msg 770 562 10;
#X obj 529 104 bng 18 250 50 0 \$0.reset \$0.bkz empty 0 -9 0 10 #fcfcfc #000000 #000000;
#X text 551 106 reset;
#X obj 638 357 r \$0.reset;
#X obj 770 539 r \$0.reset;
#X obj 472 247 netpd-default 3 16;
#X obj 15 155 s \$0.lb;
#X obj 362 136 r \$0.lb;
#X obj 362 157 t b b;
#X obj 654 534 r \$0.lb;
#X obj 654 557 netpd-default 4 12;
#X obj 93 202 list append;
#X obj 15 131 t b b b, f 24;
#X obj 83 352 route change;
#N canvas 512 220 355 287 defaults 0;
#X obj 20 29 inlet;
#X obj 20 210 pack f f f f;
#X obj 20 56 t b b b b, f 12;
#X obj 20 175 netpd-default 8 0;
#X obj 43 146 netpd-default 7 888 0;
#X obj 89 86 netpd-default 3 16 0;
#X obj 20 234 outlet;
#X obj 66 115 netpd-default 2 34;
#X connect 0 0 2 0;
#X connect 1 0 6 0;
#X connect 2 0 3 0;
#X connect 2 1 4 0;
#X connect 2 2 7 0;
#X connect 2 3 5 0;
#X connect 3 0 1 0;
#X connect 4 0 1 1;
#X connect 5 0 1 3;
#X connect 7 0 1 2;
#X restore 156 177 pd defaults;
#N canvas 918 530 450 300 struct 0;
#X obj 62 163 outlet;
#X obj 62 122 struct \$0.number float x float y float number float fclr float bgclr float w float h;
#X obj 62 59 filledpolygon -x bgclr bgclr 0 0 0 0 h w h w 0;
#X obj 59 89 drawnumber number 2 1 fclr;
#X connect 1 0 0 0;
#X restore 83 329 pd struct \$0.number;
#X obj 60 481 r \$0.lb;
#X obj 60 504 netpd-default 5 -99999;
#X obj 203 481 r \$0.lb;
#X obj 203 504 netpd-default 6 99999;
#X obj 362 178 netpd-default 2 34;
#X connect 0 0 3 0;
#X connect 0 1 17 0;
#X connect 1 0 48 0;
#X connect 1 1 2 0;
#X connect 3 0 52 0;
#X connect 7 0 0 0;
#X connect 10 0 7 0;
#X connect 11 0 23 0;
#X connect 13 0 42 0;
#X connect 13 1 42 1;
#X connect 14 0 12 0;
#X connect 14 0 25 0;
#X connect 15 0 19 0;
#X connect 15 1 14 0;
#X connect 16 0 2 1;
#X connect 18 0 5 1;
#X connect 18 0 6 1;
#X connect 19 0 5 0;
#X connect 19 1 6 0;
#X connect 20 0 4 1;
#X connect 20 0 21 1;
#X connect 22 0 69 0;
#X connect 23 0 10 0;
#X connect 23 1 68 0;
#X connect 28 0 27 0;
#X connect 38 0 39 0;
#X connect 39 0 42 0;
#X connect 39 1 13 0;
#X connect 40 0 41 0;
#X connect 41 0 28 0;
#X connect 42 0 15 0;
#X connect 43 0 44 0;
#X connect 44 0 21 0;
#X connect 45 0 46 0;
#X connect 46 0 4 0;
#X connect 47 0 9 0;
#X connect 49 0 50 0;
#X connect 50 0 2 0;
#X connect 50 1 51 0;
#X connect 51 0 2 0;
#X connect 52 0 1 0;
#X connect 53 0 54 0;
#X connect 54 0 52 1;
#X connect 54 1 52 2;
#X connect 55 0 56 0;
#X connect 57 0 28 0;
#X connect 60 0 55 0;
#X connect 61 0 57 0;
#X connect 62 0 42 1;
#X connect 64 0 65 0;
#X connect 65 0 77 0;
#X connect 65 1 62 0;
#X connect 66 0 67 0;
#X connect 67 0 28 0;
#X connect 68 0 47 0;
#X connect 69 0 63 0;
#X connect 69 1 11 0;
#X connect 69 2 71 0;
#X connect 70 0 0 0;
#X connect 71 0 68 1;
#X connect 72 0 70 0;
#X connect 73 0 74 0;
#X connect 74 0 52 1;
#X connect 75 0 76 0;
#X connect 76 0 52 2;
#X connect 77 0 42 0;
#X coords 0 0 34 16 34 16 2 50 50;
