#N canvas 664 222 306 311 10;
#X obj 109 256 list trim;
#X obj 109 182 list prepend to \$1;
#X obj 109 278 s NETPD;
#X obj 12 19 inlet;
#X obj 12 83 route OSC;
#X obj 12 111 list split 1;
#X obj 12 132 list prepend \$1;
#X obj 12 181 list append;
#X msg 12 154 list to \$1\$2;
#X obj 152 25 loadbang;
#X obj 152 48 list append \$1;
#X obj 152 70 route float;
#X obj 152 92 b;
#X msg 214 153 symbol to;
#X msg 99 103 symbol;
#X connect 0 0 2 0;
#X connect 1 0 0 0;
#X connect 3 0 4 0;
#X connect 4 0 5 0;
#X connect 4 1 1 0;
#X connect 5 0 6 0;
#X connect 5 1 7 1;
#X connect 6 0 8 0;
#X connect 7 0 0 0;
#X connect 8 0 7 0;
#X connect 9 0 10 0;
#X connect 10 0 11 0;
#X connect 11 0 12 0;
#X connect 12 0 13 0;
#X connect 12 0 14 0;
#X connect 13 0 1 1;
#X connect 14 0 6 1;
