#N canvas 472 179 244 410 10;
#X obj 53 10 r \$1-\$2;
#X obj 12 10 inlet;
#X obj 12 174 s \$1.NETPD;
#X obj 12 131 list prepend \$2;
#X msg 12 153 send /\$1 \$2;
#X obj 12 197 r \$1.receive;
#X obj 12 219 routeOSC /\$2;
#X obj 12 261 t a a;
#X obj 12 331 outlet;
#X obj 12 240 route float;
#X obj 39 284 spigot;
#X obj 72 262 r \$1.notown;
#X obj 12 32 t a a;
#X obj 115 10 r \$1.NETPD;
#X obj 115 32 route dump;
#X obj 115 54 route 5;
#X obj 115 76 b;
#X obj 12 106 f;
#X obj 53 32 route set;
#X msg 91 358 set \$1;
#X obj 91 380 s \$1-\$2;
#X obj 91 318 t a a;
#X obj 118 338 s \$0.internal;
#X obj 43 106 r \$0.internal;
#X connect 0 0 18 0;
#X connect 1 0 12 0;
#X connect 3 0 4 0;
#X connect 4 0 2 0;
#X connect 5 0 6 0;
#X connect 6 0 9 0;
#X connect 7 0 8 0;
#X connect 7 1 10 0;
#X connect 9 0 7 0;
#X connect 10 0 21 0;
#X connect 11 0 10 1;
#X connect 12 0 17 0;
#X connect 12 1 19 0;
#X connect 13 0 14 0;
#X connect 14 0 15 0;
#X connect 15 0 16 0;
#X connect 16 0 17 0;
#X connect 17 0 3 0;
#X connect 18 0 17 1;
#X connect 18 1 17 0;
#X connect 19 0 20 0;
#X connect 21 0 19 0;
#X connect 21 1 22 0;
#X connect 23 0 17 1;
