#N canvas 368 222 291 384 10;
#X obj 121 31 inlet;
#X obj 17 29 inlet;
#X obj 17 334 outlet;
#X obj 169 346 outlet empty;
#X obj 17 153 fifop;
#X obj 121 53 list;
#X connect 0 0 5 0;
#X connect 1 0 4 0;
#X connect 4 0 2 0;
#X connect 4 1 3 0;
#X connect 5 0 4 0;
