#N canvas 571 366 309 430 10;
#X obj 177 113 r \$0.send;
#X obj 177 186 routeOSC /peers;
#X obj 177 208 s \$0.receive;
#X obj 91 62 netpd-status-get;
#X msg 91 38 socket;
#X obj 11 10 inlet;
#X obj 11 121 s \$0.send;
#X msg 11 101 OSC /whosther \$1;
#X obj 10 158 r \$0.receive;
#X obj 10 204 select;
#X obj 10 236 list append \$1;
#X obj 10 258 list append;
#X obj 10 302 netpd-s;
#X obj 4 345 r \$0.receive;
#X obj 4 367 routeOSC /iam;
#X obj 4 390 outlet;
#X obj 10 180 routeOSC /whosther;
#X obj 177 164 netpd-r \$1;
#X obj 177 136 netpd-s /b\$1/peers;
#X msg 10 280 /\$1\$2/peers/iam \$3;
#X obj 91 16 loadbang;
#X obj 11 78 f;
#X obj 158 387 outlet;
#X obj 11 55 t b b;
#X obj 158 363 timer;
#X text 201 388 ping time;
#X obj 11 33 spigot 1;
#X obj 158 306 t b b;
#X msg 200 304 0;
#X obj 185 335 t b b;
#X msg 212 357 1;
#X obj 251 297 t a;
#X connect 0 0 18 0;
#X connect 1 0 2 0;
#X connect 3 0 21 1;
#X connect 3 0 11 1;
#X connect 3 0 9 1;
#X connect 4 0 3 0;
#X connect 5 0 26 0;
#X connect 7 0 6 0;
#X connect 8 0 16 0;
#X connect 9 0 29 0;
#X connect 9 1 10 0;
#X connect 10 0 11 0;
#X connect 11 0 19 0;
#X connect 13 0 14 0;
#X connect 14 0 15 0;
#X connect 16 0 9 0;
#X connect 17 0 1 0;
#X connect 19 0 12 0;
#X connect 20 0 4 0;
#X connect 21 0 7 0;
#X connect 23 0 21 0;
#X connect 23 1 27 0;
#X connect 24 0 22 0;
#X connect 26 0 23 0;
#X connect 27 0 24 0;
#X connect 27 1 28 0;
#X connect 28 0 31 0;
#X connect 29 0 24 1;
#X connect 29 1 30 0;
#X connect 30 0 31 0;
#X connect 31 0 26 1;
