#N canvas 574 67 573 320 10;
#X obj 22 18 inlet~;
#X obj 227 18 inlet~;
#X obj 22 218 outlet~;
#X obj 22 107 +~;
#X obj 22 142 /~ 32768;
#X obj 355 265 table \$0.msb 256;
#X obj 22 52 tabread~ \$0.msb;
#X obj 22 162 -~ 1;
#X obj 354 149 << 8;
#X obj 354 173 + 32768;
#X obj 354 193 mod 65536;
#X obj 354 43 loadbang;
#X msg 354 63 256;
#X obj 354 83 until;
#X obj 354 103 f;
#X obj 422 114 + 1;
#X obj 354 123 t a a a;
#X obj 354 219 tabwrite \$0.msb;
#X connect 0 0 6 0;
#X connect 1 0 3 1;
#X connect 3 0 4 0;
#X connect 4 0 7 0;
#X connect 6 0 3 0;
#X connect 7 0 2 0;
#X connect 8 0 9 0;
#X connect 9 0 10 0;
#X connect 10 0 17 0;
#X connect 11 0 12 0;
#X connect 12 0 13 0;
#X connect 13 0 14 0;
#X connect 14 0 16 0;
#X connect 15 0 14 1;
#X connect 16 0 8 0;
#X connect 16 1 17 1;
#X connect 16 2 15 0;
