#N canvas 376 67 413 600 10;
#X obj 216 8 inlet;
#X obj 16 142 netpd-fifo;
#X obj 16 70 t b a;
#X obj 16 96 spigot 1;
#X obj 61 75 r \$0.gate;
#X obj 16 165 t a b;
#X msg 43 185 0;
#X obj 43 208 s \$0.gate;
#X msg 73 185 1;
#X obj 58 119 r \$0.next;
#X msg 117 277 find;
#X obj 16 232 route msg;
#X obj 43 277 outlet;
#X obj 117 255 t b a;
#X obj 117 325 list prepend;
#X obj 117 347 list trim;
#X obj 117 572 s \$0.next;
#X obj 117 487 t b b;
#X msg 144 511 stop;
#X obj 184 486 t b;
#X obj 184 535 delay;
#X obj 117 399 t a b;
#X msg 230 510 2000;
#X msg 184 511 10000;
#X obj 184 557 s \$0.findagain;
#X obj 155 149 r \$0.findagain;
#X text 43 294 msg;
#X obj 258 492 outlet no_peer;
#X obj 16 254 t b a;
#X obj 16 317 s \$0.next;
#X obj 258 322 t b b;
#X msg 285 357 clear;
#X obj 285 379 s \$0.next;
#X msg 306 312 1;
#X obj 306 334 s \$0.gate;
#X obj 216 30 route ready unready;
#X msg 271 104 unready;
#X msg 216 103 ready;
#X obj 117 302 netpd-find-sync \$1/batch;
#X obj 117 421 netpd-patch-download \$1/batch;
#X obj 117 463 route saved downloading;
#X obj 117 443 t a a;
#X obj 270 449 list prepend status;
#X obj 270 471 list trim;
#X connect 0 0 35 0;
#X connect 1 0 5 0;
#X connect 1 1 8 0;
#X connect 2 0 3 0;
#X connect 2 1 1 1;
#X connect 3 0 1 0;
#X connect 4 0 3 1;
#X connect 5 0 11 0;
#X connect 5 1 6 0;
#X connect 6 0 7 0;
#X connect 8 0 7 0;
#X connect 9 0 1 0;
#X connect 10 0 38 0;
#X connect 11 0 28 0;
#X connect 11 1 13 0;
#X connect 13 0 10 0;
#X connect 13 1 14 1;
#X connect 14 0 15 0;
#X connect 15 0 21 0;
#X connect 17 0 16 0;
#X connect 17 1 18 0;
#X connect 18 0 20 0;
#X connect 19 0 23 0;
#X connect 20 0 24 0;
#X connect 21 0 39 0;
#X connect 21 1 22 0;
#X connect 22 0 20 0;
#X connect 23 0 20 0;
#X connect 25 0 10 0;
#X connect 28 0 29 0;
#X connect 28 1 12 0;
#X connect 30 0 27 0;
#X connect 30 1 31 0;
#X connect 30 1 33 0;
#X connect 31 0 32 0;
#X connect 33 0 34 0;
#X connect 35 0 37 0;
#X connect 35 1 36 0;
#X connect 35 2 2 0;
#X connect 36 0 38 0;
#X connect 37 0 38 0;
#X connect 38 0 14 0;
#X connect 38 1 30 0;
#X connect 39 0 41 0;
#X connect 40 0 17 0;
#X connect 40 1 19 0;
#X connect 41 0 40 0;
#X connect 41 1 42 0;
#X connect 42 0 43 0;
#X connect 43 0 27 0;
