#N canvas 0 139 293 280 10;
#X obj 11 14 r NETPD;
#X obj 11 35 route status;
#X obj 11 216 list trim;
#X obj 11 237 s NETPD;
#X obj 11 164 list append;
#X obj 11 56 route get set;
#X obj 11 114 b;
#X obj 48 131 t b a;
#X obj 11 82 route \$1;
#X obj 11 191 list prepend status \$1;
#X obj 48 108 route \$1;
#X connect 0 0 1 0;
#X connect 1 0 5 0;
#X connect 2 0 3 0;
#X connect 4 0 9 0;
#X connect 5 0 8 0;
#X connect 5 1 10 0;
#X connect 6 0 4 0;
#X connect 7 0 4 0;
#X connect 7 1 4 1;
#X connect 8 0 6 0;
#X connect 9 0 2 0;
#X connect 10 0 7 0;
