#N canvas 402 377 340 427 10;
#X obj 11 10 inlet;
#X obj 12 203 s \$1.NETPD;
#X obj 12 279 routeOSC /\$2;
#X obj 12 342 t a a;
#X obj 12 368 outlet;
#X obj 12 116 list append;
#X obj 12 138 list prepend /\$2;
#X obj 12 160 list prepend send;
#X obj 12 182 list trim;
#X obj 12 82 t b a;
#X obj 11 32 route set;
#X obj 156 180 t a;
#X obj 12 313 route foo;
#X msg 74 313 symbol;
#X obj 124 313 loadbang;
#X text 18 296 workaround for bug3426523;
#X obj 117 58 netpd-dump \$1;
#X obj 12 233 r \$1.NETPD;
#X obj 12 257 route receive;
#X connect 0 0 10 0;
#X connect 2 0 12 0;
#X connect 3 0 4 0;
#X connect 3 1 11 0;
#X connect 5 0 6 0;
#X connect 6 0 7 0;
#X connect 7 0 8 0;
#X connect 8 0 1 0;
#X connect 9 0 5 0;
#X connect 9 1 5 1;
#X connect 10 0 5 1;
#X connect 10 1 9 0;
#X connect 11 0 5 1;
#X connect 12 0 3 0;
#X connect 12 1 3 0;
#X connect 13 0 12 1;
#X connect 14 0 13 0;
#X connect 16 0 5 0;
#X connect 17 0 18 0;
#X connect 18 0 2 0;
