#N canvas 456 196 604 511 10;
#X obj 20 22 vsl 10 295 1 0 0 0 \$0.sensor \$0.sensor.r empty 0 -9
0 10 -204786 -4160 -1 28400 1;
#X obj 21 31 cnv 4 8 113 empty \$0.bar.r empty 20 12 0 14 -258049 -262144
0;
#X obj 378 388 namecanvas \$0.scrollbar;
#X obj 321 287 s \$0.quotient;
#X floatatom 321 33 5 0 0 0 - - -;
#X floatatom 378 35 5 0 0 0 - - -;
#X obj 321 72 pack f f;
#X msg 321 165 \$2 \$1;
#X obj 321 187 /;
#X obj 321 209 min 1;
#X obj 321 94 t a a;
#X obj 412 157 *;
#X obj 412 230 int;
#X msg 427 132 \$1;
#X obj 412 109 r \$0.pos;
#X obj 412 207 + 0.5;
#N canvas 103 95 773 462 scrollbar.logic 0;
#X msg 400 158 coords 0 -1 1 1 \$1 \$2 2 20 20;
#X obj 430 42 loadbang;
#X obj 400 180 s \$0.scrollbar;
#X obj 349 113 list append \$1 \$2;
#X obj 383 293 s \$0.sensor.r;
#X msg 383 270 size \$1 \$2;
#X obj 383 206 unpack;
#X obj 416 227 - 5;
#X obj 383 248 pack f f;
#X msg 19 385 pos 21 \$1;
#X obj 19 407 s \$0.bar.r;
#X obj 366 314 unpack;
#X obj 366 356 pack f f;
#X obj 366 335 - 2;
#X obj 411 335 - 2;
#X msg 224 244 vis_size \$1 \$2;
#X obj 224 223 pack f f;
#X obj 224 265 s \$0.bar.r;
#X obj 224 179 t b a;
#X obj 19 21 r \$0.sensor;
#X obj 19 363 + 21;
#X obj 349 184 - 6;
#X msg 349 161 \$2;
#X obj 349 135 t a a a a;
#X obj 19 65 *;
#X obj 349 227 s \$0.scale;
#X obj 34 43 r \$0.scale;
#X obj 366 378 s \$0.barsize;
#X obj 237 200 r \$0.barsize;
#X obj 225 295 r \$0.scale;
#X obj 225 317 + 4;
#X obj 197 155 t a a;
#X obj 197 346 pack f f;
#X msg 197 368 \$2 \$1;
#X obj 197 390 -;
#X obj 19 237 int;
#X obj 19 281 max 0;
#X obj 197 412 s \$0.bar.y;
#X obj 19 259 min;
#X obj 77 191 >;
#X obj 58 69 r \$0.bar.y;
#X obj 77 213 sel 1;
#X obj 77 235 f;
#X obj 77 257 /;
#X obj 104 236 r \$0.scale;
#X msg 77 278 set \$1;
#X obj 77 300 s \$0.sensor.r;
#X obj 58 91 t b a;
#X obj 19 87 f;
#X obj 19 117 t a a a;
#X obj 212 37 r \$0.scale;
#X obj 212 59 + 4;
#X obj 197 81 *;
#X obj 197 102 int;
#X obj 197 14 r \$0.quotient;
#X obj 19 303 t a a;
#X obj 86 320 r \$0.scale;
#X obj 71 342 /;
#X obj 71 364 s \$0.pos;
#X obj 197 124 + 3;
#X text 224 126 <- EXPLAIN;
#X text 440 228 <- a slider is 5px larger than given size;
#X msg 420 79 10 300;
#X connect 0 0 2 0;
#X connect 1 0 62 0;
#X connect 3 0 23 0;
#X connect 5 0 4 0;
#X connect 6 0 8 0;
#X connect 6 1 7 0;
#X connect 7 0 8 1;
#X connect 8 0 5 0;
#X connect 9 0 10 0;
#X connect 11 0 13 0;
#X connect 11 1 14 0;
#X connect 12 0 27 0;
#X connect 13 0 12 0;
#X connect 14 0 12 1;
#X connect 15 0 17 0;
#X connect 16 0 15 0;
#X connect 18 0 16 0;
#X connect 18 1 16 1;
#X connect 19 0 24 0;
#X connect 20 0 9 0;
#X connect 21 0 25 0;
#X connect 22 0 21 0;
#X connect 23 0 22 0;
#X connect 23 1 11 0;
#X connect 23 2 6 0;
#X connect 23 3 0 0;
#X connect 24 0 48 0;
#X connect 26 0 24 1;
#X connect 28 0 16 0;
#X connect 29 0 30 0;
#X connect 30 0 32 1;
#X connect 31 0 32 0;
#X connect 31 1 18 0;
#X connect 32 0 33 0;
#X connect 33 0 34 0;
#X connect 34 0 37 0;
#X connect 35 0 38 0;
#X connect 36 0 55 0;
#X connect 38 0 36 0;
#X connect 39 0 41 0;
#X connect 40 0 47 0;
#X connect 41 0 42 0;
#X connect 42 0 43 0;
#X connect 43 0 45 0;
#X connect 44 0 43 1;
#X connect 45 0 46 0;
#X connect 47 0 48 0;
#X connect 47 1 39 1;
#X connect 47 1 42 1;
#X connect 47 1 38 1;
#X connect 48 0 49 0;
#X connect 49 0 35 0;
#X connect 49 2 39 0;
#X connect 50 0 51 0;
#X connect 51 0 52 1;
#X connect 52 0 53 0;
#X connect 53 0 59 0;
#X connect 54 0 52 0;
#X connect 55 0 20 0;
#X connect 55 1 57 0;
#X connect 56 0 57 1;
#X connect 57 0 58 0;
#X connect 59 0 31 0;
#X connect 62 0 3 0;
#X restore 114 45 pd scrollbar.logic;
#X obj 412 252 change;
#X floatatom 383 319 5 0 0 0 - - -;
#X connect 4 0 6 0;
#X connect 5 0 6 1;
#X connect 6 0 10 0;
#X connect 7 0 8 0;
#X connect 8 0 9 0;
#X connect 9 0 3 0;
#X connect 10 0 7 0;
#X connect 10 1 13 0;
#X connect 11 0 15 0;
#X connect 12 0 17 0;
#X connect 13 0 11 1;
#X connect 14 0 11 0;
#X connect 15 0 12 0;
#X connect 17 0 18 0;
#X coords 0 -1 1 1 10 300 2 20 20;
