#N canvas 301 26 767 553 10;
#X obj 563 43 list store, f 16;
#X obj 149 330 netpd-list-compare;
#X obj 468 15 inlet;
#X obj 468 38 s \$0.in.0;
#X obj 469 64 r \$0.out.0;
#X obj 469 87 outlet;
#X obj 563 19 r \$0.store.i.0;
#X obj 656 19 r \$0.store.i.1;
#X obj 563 67 s \$0.store.o.0;
#X obj 656 67 s \$0.store.o.1;
#X obj 471 136 loadbang;
#X obj 471 159 list append \$1 \$2;
#X obj 471 202 unpack s s, f 25;
#X obj 471 226 list fromsymbol;
#X obj 471 249 s \$0.repl;
#X obj 618 223 list fromsymbol;
#X obj 618 246 s \$0.with;
#X obj 19 4 r \$0.in.0;
#X obj 19 56 list fromsymbol;
#X obj 166 104 s \$0.store.i.1;
#X obj 272 151 r \$0.repl;
#X obj 272 174 list length;
#X obj 92 160 until;
#X msg 147 124 0;
#X obj 92 209 list append;
#X obj 136 259 s \$0.store.i.0;
#X obj 171 280 r \$0.store.o.0;
#X obj 92 281 list append;
#X obj 92 257 t b a;
#X obj 274 330 r \$0.repl;
#X obj 147 148 value \$0.i;
#X obj 92 183 value \$0.i;
#X msg 92 234 get \$1 \$2;
#X obj 170 170 r \$0.store.o.1;
#X obj 92 135 t b b;
#X obj 171 300 r \$0.store.o.1;
#X obj 92 304 route bang;
#X obj 65 366 sel 0 1, f 41;
#X obj 65 396 value \$0.i;
#X obj 133 395 + 1;
#X obj 186 388 value \$0.i;
#X obj 417 434 list append;
#X msg 417 458 delete \$1 \$2;
#X obj 417 481 s \$0.store.i.0;
#X obj 280 434 list append;
#X obj 356 434 r \$0.with;
#X obj 280 456 list prepend insert;
#X obj 280 478 list trim;
#X obj 280 502 s \$0.store.i.0;
#X obj 186 411 t a a a, f 39;
#X obj 186 490 +;
#X obj 201 467 list length;
#X obj 186 514 value \$0.i;
#X obj 19 81 t b b a, f 25;
#X obj 19 429 t b b;
#X obj 63 431 s \$0.store.i.0;
#X obj 98 452 r \$0.store.o.0;
#X obj 19 453 list append;
#X obj 19 507 s \$0.out.0;
#X obj 19 482 list tosymbol;
#X obj 19 29 route symbol;
#X obj 606 116 r \$0.in.0;
#X obj 606 143 route set;
#X obj 606 168 list;
#X connect 0 0 8 0;
#X connect 0 1 9 0;
#X connect 1 0 37 0;
#X connect 2 0 3 0;
#X connect 4 0 5 0;
#X connect 6 0 0 0;
#X connect 7 0 0 1;
#X connect 10 0 11 0;
#X connect 11 0 12 0;
#X connect 12 0 13 0;
#X connect 12 1 15 0;
#X connect 13 0 14 0;
#X connect 15 0 16 0;
#X connect 17 0 60 0;
#X connect 18 0 53 0;
#X connect 20 0 21 0;
#X connect 21 0 24 1;
#X connect 21 0 41 1;
#X connect 22 0 31 0;
#X connect 23 0 30 0;
#X connect 24 0 32 0;
#X connect 26 0 27 1;
#X connect 27 0 36 0;
#X connect 28 0 27 0;
#X connect 28 1 25 0;
#X connect 29 0 1 1;
#X connect 31 0 24 0;
#X connect 32 0 28 0;
#X connect 33 0 22 1;
#X connect 34 0 22 0;
#X connect 34 1 23 0;
#X connect 35 0 27 1;
#X connect 36 1 1 0;
#X connect 37 0 38 0;
#X connect 37 1 40 0;
#X connect 38 0 39 0;
#X connect 39 0 38 0;
#X connect 40 0 49 0;
#X connect 41 0 42 0;
#X connect 42 0 43 0;
#X connect 44 0 46 0;
#X connect 45 0 44 1;
#X connect 45 0 51 0;
#X connect 46 0 47 0;
#X connect 47 0 48 0;
#X connect 49 0 50 0;
#X connect 49 1 44 0;
#X connect 49 2 41 0;
#X connect 50 0 52 0;
#X connect 51 0 50 1;
#X connect 53 0 54 0;
#X connect 53 1 34 0;
#X connect 53 2 19 0;
#X connect 54 0 57 0;
#X connect 54 1 55 0;
#X connect 56 0 57 1;
#X connect 57 0 59 0;
#X connect 59 0 58 0;
#X connect 60 0 18 0;
#X connect 61 0 62 0;
#X connect 62 0 63 0;
#X connect 63 0 12 0;
