#N canvas 366 44 548 631 10;
#X declare -stdpath mrpeach -stdpath slip;
#X obj 177 320 unpackOSC;
#X obj 177 141 packOSC;
#X obj 326 77 inlet;
#X obj 326 99 route connect disconnect;
#X obj 326 121 list;
#X msg 326 141 connect \$1 \$2;
#X msg 396 164 disconnect;
#X obj 264 410 outlet status;
#X msg 324 378 connection \$1;
#X obj 177 401 routeOSC /*;
#X obj 177 378 t a a;
#X obj 204 447 netpd-sender-get;
#X obj 6 592 s NETPD;
#X obj 6 569 list trim;
#X obj 6 13 r NETPD;
#X obj 177 205 netpd-tcpclient;
#X text 73 34 we assume \, that there is no separate package for slip
yet;
#N canvas 377 44 330 321 check_protocol_version 0;
#X obj 10 10 inlet;
#X obj 10 204 outlet;
#X obj 69 13 inlet;
#X obj 69 203 outlet;
#N canvas 0 44 597 461 check_version 0;
#X obj 69 13 inlet;
#X obj 69 404 outlet;
#X obj 257 137 r \$0.protocol_version;
#X obj 88 90 netpd-s /server/protocol_version s;
#X obj 69 35 t a a;
#X obj 69 58 sel 0 1;
#X msg 69 120 0;
#X obj 134 115 netpd-r /server/protocol_version;
#X obj 69 350 t a a;
#X obj 134 208 netpd-version-compare;
#X msg 134 184 \$1 \$2 0;
#X msg 257 185 \$1 \$2 0;
#X obj 134 231 sel 0;
#X obj 134 283 f;
#X obj 161 252 b;
#X obj 161 274 list append;
#X obj 161 296 list append;
#X obj 257 159 t a a;
#X obj 161 340 netpd-error netpd-client;
#X msg 161 319 protocol version mismatch: server \$1 \$2 \, client
\$3 \$4;
#X obj 134 137 t a a b;
#X obj 285 283 outlet;
#X obj 285 241 b;
#X text 314 243 <- stop other checks when we received version;
#X connect 0 0 4 0;
#X connect 2 0 17 0;
#X connect 4 0 5 0;
#X connect 4 1 13 1;
#X connect 5 0 6 0;
#X connect 5 1 3 0;
#X connect 6 0 8 0;
#X connect 7 0 20 0;
#X connect 8 0 1 0;
#X connect 9 0 12 0;
#X connect 10 0 9 0;
#X connect 11 0 9 1;
#X connect 12 0 13 0;
#X connect 12 1 14 0;
#X connect 13 0 8 0;
#X connect 14 0 15 0;
#X connect 15 0 16 0;
#X connect 16 0 19 0;
#X connect 17 0 11 0;
#X connect 17 1 16 1;
#X connect 19 0 18 0;
#X connect 20 0 10 0;
#X connect 20 1 15 1;
#X connect 20 2 22 0;
#X connect 22 0 21 0;
#X restore 69 81 pd check_version;
#X obj 69 35 t a a;
#N canvas 0 44 532 310 check_tcp_connection 0;
#X obj 42 41 inlet;
#X obj 148 39 inlet;
#X obj 42 101 sel 1;
#X obj 42 159 delay 5000;
#X msg 148 96 stop;
#X obj 165 258 netpd-error netpd-client;
#X obj 42 181 t b b;
#X msg 42 223 0;
#X obj 42 245 outlet;
#X msg 165 234 connected server talks not netpd. check your settings
;
#X connect 0 0 2 0;
#X connect 1 0 4 0;
#X connect 2 0 3 0;
#X connect 3 0 6 0;
#X connect 4 0 3 0;
#X connect 6 0 7 0;
#X connect 6 1 9 0;
#X connect 7 0 8 0;
#X connect 9 0 5 0;
#X restore 96 129 pd check_tcp_connection;
#X connect 0 0 1 0;
#X connect 2 0 5 0;
#X connect 4 0 3 0;
#X connect 4 1 6 1;
#X connect 5 0 4 0;
#X connect 5 1 6 0;
#X connect 6 0 3 0;
#X restore 177 352 pd check_protocol_version;
#X obj 370 487 loadbang;
#X obj 370 509 \$0;
#X obj 74 10 declare -stdpath mrpeach -stdpath slip;
#X obj 6 256 unpackOSC;
#N canvas 0 44 414 230 local_passthrough 0;
#X obj 15 15 inlet;
#X obj 15 178 outlet;
#X text 41 83 Do nothing here \, just pass local message as is;
#X connect 0 0 1 0;
#X restore 6 204 pd local_passthrough;
#X text 293 204 OSC transport;
#X text 11 221 ------------------------------------------------------------
;
#X text 11 187 ------------------------------------------------------------
;
#N canvas 673 161 314 103 unpack_from_TCP 0;
#X obj 10 11 inlet;
#X obj 10 55 outlet;
#X obj 10 33 slipdec 65536;
#X text 98 33 unpack from serial transport;
#X connect 0 0 2 0;
#X connect 2 0 1 0;
#X restore 177 256 pd unpack_from_TCP;
#N canvas 673 161 314 103 pack_for_TCP 0;
#X obj 10 11 inlet;
#X obj 10 33 slipenc 65536;
#X obj 10 55 outlet;
#X text 98 33 Packetize for serial transport;
#X connect 0 0 1 0;
#X connect 1 0 2 0;
#X restore 177 164 pd pack_for_TCP;
#X obj 6 493 list prepend from;
#N canvas 194 160 543 244 sender 0;
#X obj 91 61 list trim;
#X obj 91 84 route receiver;
#X obj 91 38 r NETPD;
#X obj 16 203 outlet;
#X obj 16 31 inlet;
#X obj 16 53 b;
#X obj 16 175 list append b;
#X obj 91 106 list;
#X obj 91 128 sel g;
#X msg 91 150 symbol p;
#X text 168 132 <- convert the preset request (sender g) to p so that
the preset is sent to the receiver p;
#X connect 0 0 1 0;
#X connect 1 0 7 0;
#X connect 2 0 0 0;
#X connect 4 0 5 0;
#X connect 5 0 6 0;
#X connect 6 0 3 0;
#X connect 7 0 8 0;
#X connect 8 0 9 0;
#X connect 8 1 6 1;
#X connect 9 0 6 1;
#X restore 122 446 pd sender;
#X obj 6 378 t a b;
#X msg 122 493 sender \$1;
#N canvas 0 44 488 169 packOSC 0;
#X obj 38 62 packOSC;
#X obj 11 15 inlet;
#X obj 11 37 t b a;
#X obj 11 89 list append;
#X obj 11 111 outlet;
#X text 93 17 We buffer the output of [packOSC] in order to work-around
a reentrancy bug of [packOSC].;
#X connect 0 0 3 1;
#X connect 1 0 2 0;
#X connect 2 0 3 0;
#X connect 2 1 0 0;
#X connect 3 0 4 0;
#X restore 6 155 pd packOSC (fixed);
#X msg 370 531 \; \$1.protocol_version 2 0;
#N canvas 0 44 465 556 local 0;
#X obj 6 36 list trim;
#X obj 6 59 route to receiver;
#X obj 6 126 list prepend;
#X obj 6 148 list trim;
#X obj 6 13 inlet;
#X obj 6 449 outlet;
#X obj 117 428 outlet;
#X obj 260 307 netpd-error netpd-client;
#X msg 260 281 not a valid receiver: \$1;
#X obj 58 293 t a b;
#X msg 85 324 prefix /b;
#X obj 174 218 list split 1;
#X obj 174 244 route float;
#X obj 174 266 int;
#X obj 174 316 list append;
#X obj 174 338 list trim;
#X obj 174 288 t b a;
#X msg 201 381 prefix /\$1;
#X obj 6 169 route l g p b s;
#X obj 75 239 t a b;
#X msg 102 270 prefix /s;
#X text 259 50 l: local;
#X text 259 63 g: preset request;
#X text 259 78 p: preset;
#X text 259 93 b: broadcast;
#X text 260 108 s: server;
#X text 193 32 receiver ids:;
#X obj 40 373 list prepend preset;
#X obj 40 395 list trim;
#X obj 40 417 s NETPD;
#N canvas 209 332 601 314 offline_mode 0;
#X obj 12 12 inlet;
#X obj 12 249 outlet;
#X obj 81 25 r \$0.connection;
#X obj 12 49 list prepend;
#X obj 12 71 route 1 0;
#X text 222 13 When connected \, pass receiver IDs through unchanged.
;
#X text 223 29 When disconnected \, convert s \, b \, numeric IDs to
l (local).;
#X obj 37 96 route float;
#X obj 100 139 sel b s;
#X msg 37 172 symbol l;
#X obj 12 226 t a a;
#X obj 100 118 list;
#X obj 37 196 list trim;
#X connect 0 0 3 0;
#X connect 2 0 3 1;
#X connect 3 0 4 0;
#X connect 4 0 10 0;
#X connect 4 1 7 0;
#X connect 7 0 9 0;
#X connect 7 1 11 0;
#X connect 8 0 9 0;
#X connect 8 1 9 0;
#X connect 8 2 12 0;
#X connect 9 0 12 0;
#X connect 10 0 1 0;
#X connect 11 0 8 0;
#X connect 12 0 10 0;
#X restore 55 87 pd offline_mode;
#X connect 0 0 1 0;
#X connect 1 0 2 0;
#X connect 1 1 30 0;
#X connect 2 0 3 0;
#X connect 3 0 18 0;
#X connect 4 0 0 0;
#X connect 8 0 7 0;
#X connect 9 0 6 0;
#X connect 9 1 10 0;
#X connect 10 0 6 0;
#X connect 11 0 12 0;
#X connect 11 1 14 1;
#X connect 12 0 13 0;
#X connect 12 1 8 0;
#X connect 13 0 16 0;
#X connect 14 0 15 0;
#X connect 15 0 6 0;
#X connect 16 0 14 0;
#X connect 16 1 17 0;
#X connect 17 0 6 0;
#X connect 18 0 5 0;
#X connect 18 1 5 0;
#X connect 18 2 27 0;
#X connect 18 3 9 0;
#X connect 18 4 19 0;
#X connect 18 5 11 0;
#X connect 19 0 6 0;
#X connect 19 1 20 0;
#X connect 20 0 6 0;
#X connect 27 0 28 0;
#X connect 28 0 29 0;
#X connect 30 0 2 1;
#X restore 6 77 pd local vs preset vs relayed;
#X obj 177 290 netpd-funnel;
#X obj 6 110 t a a;
#X obj 51 110 print LCLSND;
#X obj 177 109 t a a;
#X obj 222 109 print NETSND;
#X obj 6 51 t a a;
#X obj 48 51 print NETPD;
#X obj 351 312 s \$0.connection;
#X obj 324 289 t a a;
#X obj 335 243 loadbang;
#X msg 335 263 0;
#X connect 0 0 17 0;
#X connect 1 0 27 0;
#X connect 2 0 3 0;
#X connect 3 0 4 0;
#X connect 3 1 6 0;
#X connect 4 0 5 0;
#X connect 5 0 15 0;
#X connect 6 0 15 0;
#X connect 8 0 7 0;
#X connect 9 0 28 0;
#X connect 10 0 9 0;
#X connect 10 1 11 0;
#X connect 11 0 31 0;
#X connect 13 0 12 0;
#X connect 14 0 40 0;
#X connect 15 0 26 0;
#X connect 15 2 43 0;
#X connect 15 3 7 0;
#X connect 17 0 10 0;
#X connect 17 1 8 0;
#X connect 18 0 19 0;
#X connect 19 0 33 0;
#X connect 21 0 30 0;
#X connect 22 0 21 0;
#X connect 26 0 35 0;
#X connect 27 0 15 0;
#X connect 28 0 13 0;
#X connect 29 0 31 0;
#X connect 30 0 28 0;
#X connect 30 1 29 0;
#X connect 31 0 13 0;
#X connect 32 0 22 0;
#X connect 34 0 36 0;
#X connect 34 1 38 0;
#X connect 35 0 0 0;
#X connect 36 0 32 0;
#X connect 38 0 1 0;
#X connect 40 0 34 0;
#X connect 43 0 17 1;
#X connect 43 1 42 0;
#X connect 44 0 45 0;
#X connect 45 0 43 0;
