#N canvas 510 99 502 312 10;
#X obj 1 0 cnv 15 500 30 empty empty empty 20 12 0 14 #e0e0e0 #404040
0;
#X obj 14 136 bng 15 250 50 0 empty empty empty 17 7 0 10 #c4fcc4 #000000
#000000;
#X text 212 206 outlet0: 0|1;
#X text 8 7 netpd-if-dir - check if given directory exists;
#X text 218 189 inlet0: path to directory;
#X obj 14 244 netpd-if-dir;
#X msg 24 182 ../includes;
#X msg 41 206 /tmp/foo;
#X text 8 41 [netpd-if-dir] checks if the given directory exists and
returns a '1' for true and '0' for false.;
#X obj 14 160 openpanel 1;
#X obj 14 276 tgl 20 0 empty empty empty 17 7 0 10 #fcfcfc #000000
#000000 0 1;
#X text 248 126 0: current patch;
#X text 248 139 1: parent patch;
#X text 250 153 ...;
#X text 202 111 arg0: parent level (default: 0);
#X connect 1 0 9 0;
#X connect 5 0 10 0;
#X connect 6 0 5 0;
#X connect 7 0 5 0;
#X connect 9 0 5 0;
