#N canvas 312 44 413 642 10;
#X obj 13 13 inlet;
#X obj 259 13 table \$0.buffer 2049;
#X obj 91 101 s \$0.buffer;
#X obj 64 125 list length;
#X obj 64 147 - 1;
#X obj 81 221 until;
#X msg 121 221 1;
#X obj 81 246 f;
#X obj 91 80 list prepend 0;
#X obj 64 58 t a a;
#X obj 149 261 + 2;
#X obj 81 268 t a a a;
#X obj 81 334 tabread \$0.buffer;
#X obj 100 313 tabread \$0.buffer;
#X obj 100 291 + 1;
#N canvas 307 165 395 306 msg 0;
#X obj 23 17 inlet;
#X msg 23 39;
#X obj 23 249 outlet;
#X connect 0 0 1 0;
#X connect 1 0 2 0;
#X restore 64 567 pd msg;
#X msg 81 519 add2 \$1;
#X obj 64 192 t b a b b;
#X obj 239 345 tabread \$0.buffer;
#X msg 239 321 0;
#X text 270 320 read index;
#X msg 64 541 bang \, set;
#X obj 64 170 >> 1;
#X obj 13 597 s \$1;
#X obj 13 35 route set;
#X obj 81 449 +;
#X obj 81 471 / 32768;
#X obj 81 423 << 8;
#X obj 81 356 + 128;
#X obj 81 378 mod 256;
#X obj 81 400 - 128;
#X connect 0 0 24 0;
#X connect 3 0 4 0;
#X connect 4 0 22 0;
#X connect 5 0 7 0;
#X connect 6 0 7 1;
#X connect 7 0 11 0;
#X connect 8 0 2 0;
#X connect 9 0 3 0;
#X connect 9 1 8 0;
#X connect 10 0 7 1;
#X connect 11 0 12 0;
#X connect 11 1 14 0;
#X connect 11 2 10 0;
#X connect 12 0 28 0;
#X connect 13 0 25 1;
#X connect 14 0 13 0;
#X connect 15 0 23 0;
#X connect 16 0 15 0;
#X connect 17 0 21 0;
#X connect 17 1 5 0;
#X connect 17 2 6 0;
#X connect 17 3 19 0;
#X connect 18 0 16 0;
#X connect 19 0 18 0;
#X connect 21 0 15 0;
#X connect 22 0 17 0;
#X connect 24 0 23 0;
#X connect 24 1 9 0;
#X connect 25 0 26 0;
#X connect 26 0 16 0;
#X connect 27 0 25 0;
#X connect 28 0 29 0;
#X connect 29 0 30 0;
#X connect 30 0 27 0;
