#N canvas 0 43 782 509 10;
#X obj 160 238 wrap~;
#X obj 144 259 -~;
#X obj 145 191 /~ 256;
#X obj 242 285 *~ 256;
#X obj 226 312 -~;
#X obj 242 116 wrap~;
#X obj 226 139 -~;
#X text 308 95 <- work-around [wrap~] bug;
#X text 203 217 <- work-around [wrap~] bug;
#X obj 226 46 *~ 32768;
#X obj 111 353 wrap~;
#X obj 95 374 -~;
#X obj 96 306 /~ 256;
#X obj 95 394 *~ 256;
#X obj 80 420 -~;
#X obj 242 97 +~ 65356;
#X obj 161 218 +~ 256;
#X obj 112 333 +~ 2;
#X obj 225 17 inlet~;
#X obj 79 453 outlet~;
#X obj 226 457 outlet~;
#X connect 0 0 1 1;
#X connect 1 0 3 0;
#X connect 1 0 12 0;
#X connect 1 0 14 0;
#X connect 2 0 1 0;
#X connect 2 0 16 0;
#X connect 3 0 4 1;
#X connect 4 0 20 0;
#X connect 5 0 6 1;
#X connect 6 0 2 0;
#X connect 6 0 4 0;
#X connect 9 0 6 0;
#X connect 9 0 15 0;
#X connect 10 0 11 1;
#X connect 11 0 13 0;
#X connect 12 0 11 0;
#X connect 12 0 17 0;
#X connect 13 0 14 1;
#X connect 14 0 19 0;
#X connect 15 0 5 0;
#X connect 16 0 0 0;
#X connect 17 0 10 0;
#X connect 18 0 9 0;
