#N canvas 511 421 291 292 10;
#X obj 19 6 r NETPD;
#X obj 19 27 route pref;
#X obj 58 90 route \$1;
#X obj 97 168 list append;
#X obj 97 69 t b b;
#X obj 97 233 list trim;
#X obj 97 254 s NETPD;
#X obj 19 48 route get set saving;
#X obj 19 70 route \$1;
#X obj 19 92 t b b;
#X obj 19 167 list append;
#X obj 19 208 list prepend pref \$1;
#X obj 25 132 list append;
#X obj 58 111 t b a;
#X obj 97 189 list prepend pref saved \$1;
#X connect 0 0 1 0;
#X connect 1 0 7 0;
#X connect 2 0 13 0;
#X connect 3 0 14 0;
#X connect 4 0 3 0;
#X connect 4 1 12 0;
#X connect 5 0 6 0;
#X connect 7 0 8 0;
#X connect 7 1 2 0;
#X connect 7 2 4 0;
#X connect 8 0 9 0;
#X connect 9 0 10 0;
#X connect 9 1 12 0;
#X connect 10 0 11 0;
#X connect 11 0 5 0;
#X connect 12 0 3 1;
#X connect 12 0 10 1;
#X connect 13 0 9 0;
#X connect 13 1 12 1;
#X connect 14 0 5 0;
