#N canvas 379 44 504 427 10;
#X obj 1 0 cnv 15 500 30 empty empty empty 20 12 0 14 -233017 -66577
0;
#X text 308 395 see also:;
#X obj 17 267 snapshot~;
#X floatatom 17 287 10 0 0 0 - - -, f 10;
#X obj 17 124 sig~;
#X obj 372 394 netpd-sig-to-16bit~;
#X text 36 357 inlet0: audio signal (MSB);
#X text 36 370 inlet1: audio signal (LSB);
#X text 30 383 outlet0: audio signal (-1 to 1);
#X obj 17 177 netpd-16bit-to-sig~;
#X floatatom 17 67 5 0 255 0 - - -, f 5;
#X obj 127 124 sig~;
#X floatatom 127 67 5 0 255 0 - - -, f 5;
#X text 8 7 netpd-16bit-to-sig - convert two byte-streams to audio
signa;
#X obj 97 218 loadbang;
#X obj 97 238 metro 100;
#X connect 2 0 3 0;
#X connect 4 0 9 0;
#X connect 9 0 2 0;
#X connect 10 0 4 0;
#X connect 11 0 9 1;
#X connect 12 0 11 0;
#X connect 14 0 15 0;
#X connect 15 0 2 0;
