#N canvas 434 1385 604 511 10;
#X obj 20 22 vsl 12 195 1 0 0 0 \$0.sensor \$0.sensor.r empty 0 -9
0 10 -204786 -4160 -1 19400 1;
#X obj 21 21 cnv 4 10 157 empty \$0.bar.r empty 20 12 0 14 -258049
-262144 0;
#X msg 415 123 coords 0 -1 1 1 \$1 \$2 2 20 20;
#X obj 364 56 loadbang;
#X obj 337 402 namecanvas \$0.scrollbar;
#X obj 415 145 s \$0.scrollbar;
#X obj 364 78 list append \$1 \$2;
#X obj 398 258 s \$0.sensor.r;
#X msg 398 235 size \$1 \$2;
#X obj 398 171 unpack;
#X obj 431 192 - 5;
#X obj 398 213 pack f f;
#X msg 66 375 pos 21 \$1;
#X obj 66 397 s \$0.bar.r;
#X obj 381 279 unpack;
#X obj 381 321 pack f f;
#X obj 381 300 - 2;
#X obj 426 300 - 2;
#X msg 254 157 vis_size \$1 \$2;
#X obj 254 136 pack f f;
#X obj 254 178 s \$0.bar.r;
#X obj 254 92 t b a;
#X obj 66 2 r \$0.sensor;
#X obj 66 353 + 21;
#X obj 364 149 - 6;
#X msg 364 126 \$2;
#X msg 436 51 12 200;
#X obj 364 100 t a a a a;
#X obj 66 46 *;
#X obj 364 192 s \$0.scale;
#X obj 81 24 r \$0.scale;
#X obj 381 343 s \$0.barsize;
#X obj 267 113 r \$0.barsize;
#X obj 497 77 loadbang;
#X obj 255 208 r \$0.scale;
#X obj 255 230 + 4;
#X floatatom 227 49 5 0 0 0 - - -;
#X obj 227 68 t a a;
#X obj 227 259 pack f f;
#X msg 227 281 \$2 \$1;
#X obj 227 303 -;
#X obj 66 288 int;
#X obj 66 332 max 0;
#X obj 227 325 s \$0.bar.y;
#X obj 66 310 min;
#X obj 197 -40 r \$0.scale;
#X obj 275 -68 r \$0.bar.y;
#X obj 100 -71 r \$0.sensor;
#X floatatom 124 -35 5 0 0 0 - - -;
#X obj 97 287 r \$0.bar.y;
#X obj 112 138 >;
#X obj 105 50 r \$0.bar.y;
#X obj 112 160 sel 1;
#X obj 112 182 f;
#X obj 112 204 /;
#X obj 152 180 r \$0.scale;
#X msg 112 226 set \$1;
#X obj 112 248 s \$0.sensor.r;
#X obj 105 72 t b a;
#X obj 66 68 f;
#X obj 66 98 t a a a;
#X obj 76 146 sel 0;
#X msg 76 168 0;
#X connect 2 0 5 0;
#X connect 3 0 6 0;
#X connect 6 0 27 0;
#X connect 8 0 7 0;
#X connect 9 0 11 0;
#X connect 9 1 10 0;
#X connect 10 0 11 1;
#X connect 11 0 8 0;
#X connect 12 0 13 0;
#X connect 14 0 16 0;
#X connect 14 1 17 0;
#X connect 15 0 31 0;
#X connect 16 0 15 0;
#X connect 17 0 15 1;
#X connect 18 0 20 0;
#X connect 19 0 18 0;
#X connect 21 0 19 0;
#X connect 21 1 19 1;
#X connect 22 0 28 0;
#X connect 23 0 12 0;
#X connect 24 0 29 0;
#X connect 25 0 24 0;
#X connect 26 0 6 0;
#X connect 27 0 25 0;
#X connect 27 1 14 0;
#X connect 27 2 9 0;
#X connect 27 3 2 0;
#X connect 28 0 59 0;
#X connect 30 0 28 1;
#X connect 32 0 19 0;
#X connect 33 0 26 0;
#X connect 34 0 35 0;
#X connect 35 0 38 1;
#X connect 36 0 37 0;
#X connect 37 0 38 0;
#X connect 37 1 21 0;
#X connect 38 0 39 0;
#X connect 39 0 40 0;
#X connect 40 0 43 0;
#X connect 41 0 44 0;
#X connect 42 0 23 0;
#X connect 44 0 42 0;
#X connect 49 0 44 1;
#X connect 50 0 52 0;
#X connect 51 0 58 0;
#X connect 52 0 53 0;
#X connect 53 0 54 0;
#X connect 54 0 56 0;
#X connect 55 0 54 1;
#X connect 56 0 57 0;
#X connect 58 0 59 0;
#X connect 58 1 50 1;
#X connect 58 1 53 1;
#X connect 59 0 60 0;
#X connect 60 0 41 0;
#X connect 60 1 61 0;
#X connect 60 2 50 0;
#X connect 61 0 62 0;
#X connect 62 0 56 0;
#X coords 0 -1 1 1 12 200 2 20 20;
