#N canvas 668 174 222 214 10;
#X obj 8 10 r \$1.NETPD;
#X obj 8 153 b;
#X obj 8 57 route;
#X obj 8 177 outlet;
#X obj 8 32 route dump init;
#N canvas 805 96 176 114 once 0;
#X obj 13 12 inlet;
#X obj 13 34 spigot 1;
#X obj 13 56 t a b;
#X msg 88 49 0;
#X obj 13 78 outlet;
#X connect 0 0 1 0;
#X connect 1 0 2 0;
#X connect 2 0 4 0;
#X connect 2 1 3 0;
#X connect 3 0 1 1;
#X restore 51 93 pd once;
#X obj 51 58 route;
#X obj 132 30 f \$2;
#X obj 132 9 loadbang;
#X obj 132 51 sel 0;
#X msg 132 73 5;
#X obj 132 95 t a;
#X connect 0 0 4 0;
#X connect 1 0 3 0;
#X connect 2 0 1 0;
#X connect 4 0 2 0;
#X connect 4 1 6 0;
#X connect 5 0 1 0;
#X connect 6 0 5 0;
#X connect 7 0 9 0;
#X connect 8 0 7 0;
#X connect 9 0 10 0;
#X connect 9 1 11 0;
#X connect 10 0 11 0;
#X connect 11 0 6 1;
#X connect 11 0 2 1;
