#N canvas 520 65 505 359 10;
#X obj 0 0 cnv 15 500 30 empty empty empty 20 12 0 14 -233017 -66577
0;
#X obj 13 244 netpd-split-path;
#X obj 13 279 print PATH;
#X obj 106 276 print FILE;
#X text 7 7 netpd-split-path - split directory and filename from path
;
#X text 7 43 [netpd-split-path] takes a file path and splits it into
a directory and a filename part. If only a filename is given \, it
ouputs './' for directory.;
#X text 217 186 inlet0: file path;
#X text 211 206 outlet0: directory part;
#X text 211 226 outlet1: filename part;
#X msg 13 112 C:/Users/kevin/Documents/Pd/mypatch.pd;
#X msg 31 141 /tmp/file.txt;
#X msg 50 167 mypatch.pd;
#X msg 60 194 ../patches/seq.pd;
#X msg 78 219 /main.pd;
#X connect 1 0 2 0;
#X connect 1 1 3 0;
#X connect 9 0 1 0;
#X connect 10 0 1 0;
#X connect 11 0 1 0;
#X connect 12 0 1 0;
#X connect 13 0 1 0;
