#N canvas 109 133 469 442 10;
#X obj 317 292 s \$1.NETPD;
#X obj 317 315 r \$1.receive;
#X obj 317 337 routeOSC /\$2;
#X obj 317 227 list prepend /\$2;
#X obj 317 249 list prepend send;
#X obj 317 271 list trim;
#X obj 317 203 r \$0.send;
#X obj 317 359 s \$0.receive;
#X obj 222 405 table \$0.compare \$3;
#X obj 105 141 tabwrite \$0.compare;
#X obj 51 48 metro 100;
#X obj 51 23 loadbang;
#N canvas 358 162 185 403 generate.diff 0;
#X obj 40 160 tabread \$1-\$2;
#X obj 21 203 tabread \$0.compare;
#X obj 21 68 f \$3;
#X obj 21 90 until;
#X obj 21 47 t b b;
#X msg 77 89 0;
#X obj 21 113 f;
#X obj 55 113 + 1;
#X obj 21 228 -;
#X obj 21 250 sel 0;
#X obj 40 182 t a a;
#X obj 21 140 t a a a;
#X obj 21 294 f;
#X obj 21 316 list append;
#X obj 21 273 b;
#X obj 21 25 inlet;
#X obj 21 338 outlet;
#X connect 0 0 10 0;
#X connect 1 0 8 0;
#X connect 2 0 3 0;
#X connect 3 0 6 0;
#X connect 4 0 2 0;
#X connect 4 1 5 0;
#X connect 5 0 6 1;
#X connect 6 0 7 0;
#X connect 6 0 11 0;
#X connect 7 0 6 1;
#X connect 8 0 9 0;
#X connect 9 1 14 0;
#X connect 10 0 8 1;
#X connect 10 1 12 1;
#X connect 11 0 1 0;
#X connect 11 1 0 0;
#X connect 11 2 13 1;
#X connect 12 0 13 0;
#X connect 13 0 16 0;
#X connect 14 0 12 0;
#X connect 15 0 4 0;
#X restore 78 96 pd generate.diff;
#N canvas 727 256 205 198 concatenate.diff 0;
#X obj 13 18 inlet;
#X obj 13 150 outlet;
#X obj 13 46 route send;
#X obj 70 76 list prepend add2;
#X msg 13 122;
#X msg 13 76 bang \, set;
#X obj 70 98 list trim;
#X connect 0 0 2 0;
#X connect 2 0 5 0;
#X connect 2 1 3 0;
#X connect 3 0 6 0;
#X connect 4 0 1 0;
#X connect 5 0 4 0;
#X connect 6 0 4 0;
#X restore 51 168 pd concatenate.diff;
#X obj 51 70 t b b;
#X msg 51 146 send;
#X obj 78 118 t a a;
#X obj 51 193 s \$0.send;
#X obj 51 260 r \$0.receive;
#X obj 78 328 tabwrite \$0.compare;
#X obj 51 351 tabwrite \$1-\$2;
#N canvas 567 275 270 367 serialize.diff 0;
#X obj 11 14 inlet;
#X obj 38 79 s \$0.serialize;
#X obj 38 59 list prepend 0;
#X obj 11 36 t a a;
#X obj 11 100 list length;
#X obj 11 122 t a b;
#X obj 11 169 until;
#X obj 11 146 >> 1;
#X obj 11 193 f;
#X obj 37 193 + 2;
#X msg 47 170 0;
#X obj 11 283 tabread \$0.serialize;
#X obj 11 216 t a a;
#X obj 38 238 + 1;
#X obj 38 260 tabread \$0.serialize;
#X obj 11 305 pack f f;
#X obj 11 327 outlet;
#X obj 109 13 table \$0.serialize 2000;
#X connect 0 0 3 0;
#X connect 2 0 1 0;
#X connect 3 0 4 0;
#X connect 3 1 2 0;
#X connect 4 0 5 0;
#X connect 5 0 7 0;
#X connect 5 1 10 0;
#X connect 6 0 8 0;
#X connect 7 0 6 0;
#X connect 8 0 9 0;
#X connect 8 0 12 0;
#X connect 9 0 8 1;
#X connect 10 0 8 1;
#X connect 11 0 15 0;
#X connect 12 0 11 0;
#X connect 12 1 13 0;
#X connect 13 0 14 0;
#X connect 14 0 15 1;
#X connect 15 0 16 0;
#X restore 51 284 pd serialize.diff;
#X obj 51 306 t a a;
#X connect 1 0 2 0;
#X connect 2 0 7 0;
#X connect 3 0 4 0;
#X connect 4 0 5 0;
#X connect 5 0 0 0;
#X connect 6 0 3 0;
#X connect 10 0 14 0;
#X connect 11 0 10 0;
#X connect 12 0 16 0;
#X connect 13 0 17 0;
#X connect 14 0 15 0;
#X connect 14 1 12 0;
#X connect 15 0 13 0;
#X connect 16 0 13 0;
#X connect 16 1 9 0;
#X connect 18 0 21 0;
#X connect 21 0 22 0;
#X connect 22 0 20 0;
#X connect 22 1 19 0;
