#N canvas 604 299 371 324 10;
#X obj 47 85 t a a;
#X obj 95 127 t a b;
#X obj 95 147 until;
#X obj 95 167 f;
#X obj 47 203 list prepend;
#X obj 47 255 t a;
#X obj 47 143 sel 0;
#X obj 47 4 inlet;
#X obj 47 279 outlet;
#X obj 134 146 f;
#X msg 149 76 \$1;
#X msg 47 50 \$2;
#X obj 47 105 mod \$1;
#X obj 95 105 div \$1;
#X obj 131 167 + \$1;
#X obj 256 9 inlet;
#X obj 256 29 route float;
#X obj 47 24 t a a;
#X obj 95 230 list append \$1;
#X connect 0 0 12 0;
#X connect 0 1 13 0;
#X connect 1 0 2 0;
#X connect 1 1 9 0;
#X connect 2 0 3 0;
#X connect 3 0 14 0;
#X connect 3 0 18 0;
#X connect 4 0 5 0;
#X connect 5 0 8 0;
#X connect 6 1 4 0;
#X connect 7 0 17 0;
#X connect 9 0 3 1;
#X connect 10 0 9 1;
#X connect 10 0 4 1;
#X connect 11 0 0 0;
#X connect 12 0 6 0;
#X connect 13 0 1 0;
#X connect 14 0 3 1;
#X connect 14 0 4 1;
#X connect 15 0 16 0;
#X connect 16 0 13 1;
#X connect 16 0 12 1;
#X connect 16 0 14 1;
#X connect 17 0 11 0;
#X connect 17 1 10 0;
#X connect 18 0 5 0;
