#N canvas 222 155 574 318 10;
#N canvas 247 349 709 287 \$0.gop 0;
#X coords 0 0 100 16 100 16 2 50 50;
#X restore 50 50 pd \$0.gop;
#X obj 193 275 s \$0.expand;
#X obj 193 232 tgl 30 0 empty empty empty 17 7 0 10 #fcfcfc #000000 #000000 0 1;
#N canvas 0 40 670 717 create.items 0;
#X obj 43 606 s pd-\$0.gop;
#X obj 43 234 until;
#X obj 43 257 f;
#X obj 43 302 t a a;
#X obj 89 304 + 1;
#X obj 166 264 s pd-\$0.gop;
#X msg 166 240 clear;
#X obj 517 490 list store;
#X msg 517 466 get \$1 1;
#X obj 43 176 + 1;
#X obj 517 445 - 1;
#X obj 574 465 r \$0.items;
#X obj 84 149 r \$0.length;
#X obj 43 280 mod, f 14;
#X obj 43 204 t a b a b, f 21;
#X text 70 176 items + selected;
#X msg 84 233 1;
#X obj 43 534 pack f f f f f f f f s, f 64;
#X text 50 518 id;
#X text 100 517 x;
#X text 146 517 y;
#X text 193 516 w;
#X text 240 515 h;
#X text 393 517 bgclr;
#X text 338 517 boxclr;
#X text 434 518 label;
#X obj 43 558 list prepend scalar \$0.rectangle;
#X obj 43 581 list trim;
#X obj 43 327 t a a a a a a a a a, f 64;
#X obj 466 374 moses 1, f 9;
#X obj 466 399 b;
#X obj 466 422 symbol;
#X obj 499 399 r \$0.sel.value;
#X text 289 516 txtclr;
#X obj 344 427 r \$0.sel.clr;
#X obj 332 379 b;
#X obj 281 450 list append;
#X obj 332 402 list append;
#X obj 359 376 r \$0.items.clr;
#X obj 281 480 unpack f f f;
#X obj 281 354 sel 0, f 9;
#X obj 185 443 r \$0.width;
#X obj 201 477 r \$0.height;
#X msg 90 425 0;
#X obj 138 432 * 16;
#X obj 43 38 r \$0.expand;
#X text 141 30 expand 0: clear everything \, draw label;
#X text 139 47 expand 1: clear everything \, draw all items;
#X obj 43 147 *;
#X obj 546 289 r \$1;
#X obj 546 312 route setlabel;
#X obj 546 334 symbol;
#X msg 507 107 traverse pd-\$1.gop;
#X obj 507 81 \$0;
#X msg 462 105 next;
#X obj 462 134 pointer \$0.rectangle;
#X obj 462 184 get \$0.rectangle id;
#X obj 462 82 until;
#X obj 462 208 sel 0;
#X obj 462 159 t p p, f 20;
#X msg 462 60 1000;
#X obj 462 38 t b b, f 8;
#X obj 462 251 pointer, f 20;
#X obj 462 230 t b b, f 8;
#X obj 43 93 t a a;
#X obj 453 277 s \$0.front.pt;
#X obj 159 407 r \$0.height;
#X connect 1 0 2 0;
#X connect 2 0 13 0;
#X connect 3 0 28 0;
#X connect 3 1 4 0;
#X connect 4 0 2 1;
#X connect 6 0 5 0;
#X connect 7 0 17 8;
#X connect 8 0 7 0;
#X connect 9 0 14 0;
#X connect 10 0 8 0;
#X connect 11 0 7 1;
#X connect 12 0 48 1;
#X connect 13 0 3 0;
#X connect 14 0 1 0;
#X connect 14 1 16 0;
#X connect 14 2 13 1;
#X connect 14 3 6 0;
#X connect 16 0 2 1;
#X connect 17 0 26 0;
#X connect 26 0 27 0;
#X connect 27 0 0 0;
#X connect 28 0 17 0;
#X connect 28 1 43 0;
#X connect 28 2 44 0;
#X connect 28 5 40 0;
#X connect 28 8 29 0;
#X connect 29 0 30 0;
#X connect 29 1 10 0;
#X connect 30 0 31 0;
#X connect 31 0 17 8;
#X connect 32 0 31 1;
#X connect 34 0 36 1;
#X connect 35 0 37 0;
#X connect 36 0 39 0;
#X connect 37 0 39 0;
#X connect 38 0 37 1;
#X connect 39 0 17 5;
#X connect 39 1 17 6;
#X connect 39 2 17 7;
#X connect 40 0 36 0;
#X connect 40 1 35 0;
#X connect 41 0 17 3;
#X connect 42 0 17 4;
#X connect 43 0 17 1;
#X connect 44 0 17 2;
#X connect 45 0 64 0;
#X connect 48 0 9 0;
#X connect 49 0 50 0;
#X connect 50 0 51 0;
#X connect 51 0 31 1;
#X connect 52 0 55 0;
#X connect 53 0 52 0;
#X connect 54 0 55 0;
#X connect 55 0 59 0;
#X connect 56 0 58 0;
#X connect 57 0 54 0;
#X connect 58 0 63 0;
#X connect 59 0 56 0;
#X connect 59 1 62 1;
#X connect 60 0 57 0;
#X connect 61 0 60 0;
#X connect 61 1 53 0;
#X connect 62 0 65 0;
#X connect 63 0 62 0;
#X connect 63 1 57 1;
#X connect 64 0 61 0;
#X connect 64 1 48 0;
#X connect 66 0 44 1;
#X restore 190 98 pd create.items;
#N canvas 338 166 671 413 expand 0;
#X msg 58 171 traverse pd-\$1.gop;
#X obj 58 145 \$0;
#X msg 12 169 next;
#X obj 12 198 pointer \$0.rectangle;
#X obj 12 248 get \$0.rectangle id;
#X obj 12 325 set \$0.rectangle y;
#X obj 12 146 until;
#X obj 12 301 * 0, f 16;
#X obj 12 120 t b b a, f 16;
#X obj 12 67 sel 0 1, f 10;
#X msg 12 90 0;
#X obj 12 44 r \$0.expand;
#X obj 12 223 t p p p, f 47;
#X obj 12 271 t a a, f 26;
#X obj 213 320 r \$0.sel.value;
#X obj 165 319 symbol;
#X obj 165 295 sel 0;
#X obj 165 343 set -symbol \$0.rectangle label;
#X obj 422 362 s pd-\$0.gop;
#X obj 422 162 * 16;
#X obj 422 137 + 1;
#X obj 422 64 r \$0.expand;
#X obj 437 89 r \$0.length;
#X obj 422 114 * 0;
#X text 15 16 Move scalars around;
#X text 419 34 resize GOP area;
#X obj 442 337 s \$0.top;
#X obj 464 161 r \$0.height;
#X obj 520 280 r \$0.width;
#X msg 422 310 coords 0 0 \$2 \$1 \$2 \$1 2 50 50;
#X obj 422 185 t a a;
#X msg 449 234 expand \$1;
#X obj 449 257 s \$1;
#X obj 449 211 -;
#X obj 422 286 list append 0;
#X connect 0 0 3 0;
#X connect 1 0 0 0;
#X connect 2 0 3 0;
#X connect 3 0 12 0;
#X connect 3 2 6 1;
#X connect 4 0 13 0;
#X connect 6 0 2 0;
#X connect 7 0 5 0;
#X connect 8 0 6 0;
#X connect 8 1 1 0;
#X connect 8 2 7 1;
#X connect 9 0 10 0;
#X connect 10 0 8 0;
#X connect 12 0 4 0;
#X connect 12 1 5 1;
#X connect 12 2 17 1;
#X connect 13 0 7 0;
#X connect 13 1 16 0;
#X connect 14 0 15 1;
#X connect 15 0 17 0;
#X connect 16 0 15 0;
#X connect 19 0 30 0;
#X connect 20 0 19 0;
#X connect 21 0 23 0;
#X connect 22 0 23 1;
#X connect 23 0 20 0;
#X connect 27 0 19 1;
#X connect 27 0 33 1;
#X connect 28 0 34 1;
#X connect 29 0 18 0;
#X connect 29 0 26 0;
#X connect 30 0 34 0;
#X connect 30 1 33 0;
#X connect 31 0 32 0;
#X connect 33 0 31 0;
#X connect 34 0 29 0;
#X restore 190 170 pd expand;
#N canvas 0 106 519 515 register.clicks 0;
#X obj 15 45 route click;
#X obj 15 78 unpack p f f;
#X obj 15 100 get \$0.rectangle id label;
#X obj 162 164 s \$0.sel.value;
#X obj 69 170 r \$0.expand;
#X obj 69 193 == 0;
#X obj 15 180 f;
#X obj 15 220 t b a, f 8;
#X obj 15 267 f, f 8;
#X obj 42 470 s \$0.expand;
#X obj 15 243 del 0;
#X obj 207 113 r \$0.expand;
#X obj 162 139 spigot 1;
#X obj 15 18 inlet;
#X obj 15 446 t a a;
#X obj 15 492 s \$0.active;
#X obj 15 419 spigot;
#X obj 15 290 moses 1;
#X obj 15 313 t a a;
#X obj 54 315 t a b a;
#X obj 48 394 t a a;
#X obj 73 339 f;
#X text 102 339 <- if we do not acquire the lock immediately \, we do not even request it;
#X obj 106 264 r \$0.to.mutex;
#X obj 15 140 b;
#X obj 48 371 netpd-mutex GUI:DROPDOWN;
#X connect 0 0 1 0;
#X connect 1 0 2 0;
#X connect 2 0 24 0;
#X connect 2 1 12 0;
#X connect 4 0 5 0;
#X connect 5 0 6 1;
#X connect 6 0 7 0;
#X connect 7 0 10 0;
#X connect 7 1 8 1;
#X connect 8 0 17 0;
#X connect 10 0 8 0;
#X connect 11 0 12 1;
#X connect 12 0 3 0;
#X connect 13 0 0 0;
#X connect 14 0 15 0;
#X connect 14 1 9 0;
#X connect 16 0 14 0;
#X connect 17 0 18 0;
#X connect 17 1 19 0;
#X connect 18 0 25 0;
#X connect 18 1 16 0;
#X connect 19 0 16 0;
#X connect 19 1 21 0;
#X connect 19 2 25 0;
#X connect 20 0 16 1;
#X connect 20 1 21 1;
#X connect 21 0 25 0;
#X connect 23 0 17 0;
#X connect 24 0 6 0;
#X connect 25 0 20 0;
#X restore 190 146 pd register.clicks;
#N canvas 306 206 433 148 the.struct 0;
#X obj 11 112 outlet;
#X obj 11 76 struct \$0.rectangle float id float x float y float w float h float txtclr float boxclr float bgclr symbol label;
#X obj 12 12 filledpolygon -xv bgclr boxclr 1 0 0 w 0 w h 0 h;
#X obj 13 44 drawsymbol label 1 2 txtclr;
#X connect 1 0 0 0;
#X restore 190 122 pd the.struct;
#X text 338 41 arg2: width;
#X text 338 27 arg1: sendname;
#X text 338 55 arg3: height;
#X obj 190 26 namecanvas \$0.top;
#N canvas 430 368 450 317 init 0;
#X obj 12 10 loadbang;
#X obj 70 83 pdcontrol;
#X msg 70 60 args 0;
#X obj 268 166 s \$0.items.clr;
#X obj 268 141 pack f f f;
#X obj 183 142 pack f f f;
#X obj 183 167 s \$0.sel.clr;
#X obj 126 221 s \$0.height;
#X obj 98 246 s \$0.width;
#X obj 12 33 t b b b, f 20;
#X obj 12 269 s \$1;
#X msg 12 244 items symbol;
#X msg 129 58 list _placeholder 100 16 10 0 666 888 0 666 777;
#X obj 70 106 unpack s f f f f f f f f f, f 43;
#X obj 155 195 s \$0.fontsize;
#X obj 12 139 t b b;
#X msg 12 165 0;
#X obj 12 188 s \$0.expand;
#X connect 0 0 9 0;
#X connect 1 0 13 0;
#X connect 2 0 1 0;
#X connect 4 0 3 0;
#X connect 5 0 6 0;
#X connect 9 0 15 0;
#X connect 9 1 2 0;
#X connect 9 2 12 0;
#X connect 11 0 10 0;
#X connect 12 0 13 0;
#X connect 13 1 8 0;
#X connect 13 2 7 0;
#X connect 13 3 14 0;
#X connect 13 4 5 0;
#X connect 13 5 5 1;
#X connect 13 6 5 2;
#X connect 13 7 4 0;
#X connect 13 8 4 1;
#X connect 13 9 4 2;
#X connect 15 0 16 0;
#X connect 15 1 11 0;
#X connect 16 0 17 0;
#X restore 190 50 pd init;
#N canvas 138 156 424 279 methods 0;
#N canvas 0 106 389 323 items 0;
#X obj 11 7 r \$1;
#X obj 58 139 list length;
#X obj 58 161 s \$0.length;
#X obj 74 119 s \$0.items;
#X msg 11 241 0;
#X obj 11 264 s \$0.expand;
#X obj 11 30 route items;
#X obj 11 53 list;
#X obj 11 96 t b b b a a;
#X obj 26 215 s \$0.reset.label;
#X connect 0 0 6 0;
#X connect 1 0 2 0;
#X connect 4 0 5 0;
#X connect 6 0 7 0;
#X connect 7 0 8 0;
#X connect 8 3 1 0;
#X connect 8 4 3 0;
#X restore 15 44 pd items;
#X text 13 13 input;
#X text 166 16 output;
#N canvas 0 106 439 129 selected 0;
#X obj 30 18 r \$0.sel.value;
#X msg 30 41 selected \$1;
#X obj 30 64 s \$1;
#X connect 0 0 1 0;
#X connect 1 0 2 0;
#X restore 165 44 pd selected;
#N canvas 0 106 439 174 width 0;
#X obj 11 7 r \$1;
#X obj 11 29 route width;
#X obj 38 79 s \$0.width;
#X obj 116 101 r \$0.front.pt;
#X obj 11 127 set \$0.rectangle w;
#X obj 11 52 t a a;
#X connect 0 0 1 0;
#X connect 1 0 5 0;
#X connect 3 0 4 1;
#X connect 5 0 4 0;
#X connect 5 1 2 0;
#X restore 15 68 pd width;
#N canvas 0 106 439 174 height 0;
#X obj 11 7 r \$1;
#X obj 11 29 route height;
#X obj 38 79 s \$0.height;
#X obj 116 101 r \$0.front.pt;
#X obj 11 52 t a a;
#X obj 11 127 set \$0.rectangle h;
#X connect 0 0 1 0;
#X connect 1 0 4 0;
#X connect 3 0 5 1;
#X connect 4 0 5 0;
#X connect 4 1 2 0;
#X restore 15 92 pd height;
#N canvas 0 106 439 271 items_* 0;
#X obj 11 7 r \$1;
#X obj 11 65 t b a;
#X obj 86 68 t b a;
#X obj 161 70 t b a;
#X obj 56 153 pack f f f;
#X obj 56 126 f;
#X obj 11 100 t b b;
#X obj 56 177 s \$0.items.clr;
#X obj 11 29 route items_text_color items_box_color items_background_color;
#X obj 257 43 r \$0.items.clr;
#X obj 257 66 unpack f f f;
#X connect 0 0 8 0;
#X connect 1 0 6 0;
#X connect 1 1 5 1;
#X connect 2 0 6 0;
#X connect 2 1 4 1;
#X connect 3 0 6 0;
#X connect 3 1 4 2;
#X connect 4 0 7 0;
#X connect 5 0 4 0;
#X connect 6 1 5 0;
#X connect 8 0 1 0;
#X connect 8 1 2 0;
#X connect 8 2 3 0;
#X connect 9 0 10 0;
#X connect 10 0 5 1;
#X connect 10 1 4 1;
#X connect 10 2 4 2;
#X restore 15 164 pd items_*;
#N canvas 0 37 439 359 selected_* 0;
#X obj 11 7 r \$1;
#X obj 11 29 route selected_text_color selected_box_color selected_background_color;
#X obj 56 200 s \$0.sel.clr;
#X obj 11 65 t b a;
#X obj 98 66 t b a;
#X obj 185 66 t b a;
#X obj 56 153 pack f f f;
#X obj 56 126 f;
#X obj 11 100 t b b;
#X obj 245 71 r \$0.sel.clr;
#X obj 245 94 unpack f f f;
#X obj 272 247 r \$0.front.pt;
#X obj 56 177 t a a;
#X obj 98 251 unpack f f f;
#X obj 94 286 set \$0.rectangle txtclr boxclr bgclr;
#X connect 0 0 1 0;
#X connect 1 0 3 0;
#X connect 1 1 4 0;
#X connect 1 2 5 0;
#X connect 3 0 8 0;
#X connect 3 1 7 1;
#X connect 4 0 8 0;
#X connect 4 1 6 1;
#X connect 5 0 8 0;
#X connect 5 1 6 2;
#X connect 6 0 12 0;
#X connect 7 0 6 0;
#X connect 8 1 7 0;
#X connect 9 0 10 0;
#X connect 10 0 7 1;
#X connect 10 1 6 1;
#X connect 10 2 6 2;
#X connect 11 0 14 3;
#X connect 12 0 2 0;
#X connect 12 1 13 0;
#X connect 13 0 14 0;
#X connect 13 1 14 1;
#X connect 13 2 14 2;
#X restore 15 140 pd selected_*;
#N canvas 0 106 439 174 fontsize 0;
#X obj 11 7 r \$1;
#X obj 11 52 t b a;
#X obj 11 29 route fontsize;
#X obj 38 79 s \$0.fontsize;
#X connect 0 0 2 0;
#X connect 1 1 3 0;
#X connect 2 0 1 0;
#X restore 15 116 pd fontsize;
#N canvas 0 106 439 129 active 0;
#X obj 30 64 s \$1;
#X msg 30 41 active \$1;
#X obj 30 18 r \$0.active;
#X connect 1 0 0 0;
#X connect 2 0 1 0;
#X restore 165 68 pd active;
#N canvas 0 97 358 187 setlabel 0;
#X obj 11 7 r \$1;
#X obj 11 30 route setlabel;
#X obj 11 127 set -symbol \$0.rectangle label;
#X obj 11 64 symbol;
#X obj 188 88 r \$0.front.pt;
#X connect 0 0 1 0;
#X connect 1 0 3 0;
#X connect 3 0 2 0;
#X connect 4 0 2 1;
#X restore 15 187 pd setlabel;
#N canvas 0 106 485 407 drop 0;
#X obj 11 7 r \$1;
#X obj 11 30 route drop;
#X obj 11 53 sel 0 1;
#X msg 11 83 0;
#X msg 40 82 1;
#X obj 11 120 s \$0.to.mutex;
#X connect 0 0 1 0;
#X connect 1 0 2 0;
#X connect 2 0 3 0;
#X connect 2 1 4 0;
#X connect 3 0 5 0;
#X connect 4 0 5 0;
#X restore 15 210 pd drop;
#X restore 190 74 pd methods;
#X obj 269 275 s \$0.top;
#X msg 269 250 font \$1 100 100;
#X text 338 83 arg5: selected text color;
#X text 338 97 arg6: selected box color;
#X text 338 111 arg7: selected background color;
#X text 338 125 arg8: items text color;
#X text 338 138 arg9: items box color;
#X text 332 152 arg10: items background color;
#X text 338 69 arg4: fontsize;
#X obj 269 226 r \$0.fontsize;
#X obj 409 265 s pd-\$0.gop;
#X msg 409 237 clear;
#X obj 190 3 namecanvas \$1.canvas;
#X obj 22 213 f;
#X obj 22 164 key;
#X obj 22 187 sel 27;
#X obj 22 236 sel 1;
#X obj 54 213 r \$0.active;
#X msg 22 261 0;
#X obj 22 284 s \$0.expand;
#X obj 50 262 s \$0.to.mutex;
#X connect 2 0 1 0;
#X connect 6 0 5 0;
#X connect 14 0 13 0;
#X connect 22 0 14 0;
#X connect 24 0 23 0;
#X connect 26 0 29 0;
#X connect 27 0 28 0;
#X connect 28 0 26 0;
#X connect 29 0 31 0;
#X connect 30 0 26 1;
#X connect 31 0 32 0;
#X connect 31 0 33 0;
#X coords 0 0 100 16 100 16 2 50 50;
