#N canvas 174 131 467 498 10;
#X obj 98 146 until;
#X obj 98 170 f;
#X obj 98 194 t a a;
#X obj 147 187 + 1;
#X obj 98 369 pack f f;
#X msg 98 391 add2 \$1 \$2;
#N canvas 307 165 395 306 msg 0;
#X obj 23 17 inlet;
#X msg 23 39;
#X obj 23 249 outlet;
#X connect 0 0 1 0;
#X connect 1 0 2 0;
#X restore 71 450 pd msg;
#X msg 71 416 bang \, set;
#X obj 71 472 outlet;
#X obj 20 13 inlet;
#X obj 71 64 t a a;
#X msg 71 91 \$2;
#X msg 113 96 \$1;
#X obj 71 122 t b a;
#X obj 20 38 route set;
#X msg 20 173 set \$1;
#X obj 98 220 tabread \$1;
#X obj 98 295 t a a;
#X obj 98 321 >> 8;
#X obj 133 322 & 255;
#X obj 98 343 mod 256;
#X obj 98 271 * 32768;
#X obj 20 114 list;
#X obj 98 244 clip -1 0.99997;
#X connect 0 0 1 0;
#X connect 1 0 2 0;
#X connect 2 0 16 0;
#X connect 2 1 3 0;
#X connect 3 0 1 1;
#X connect 4 0 5 0;
#X connect 5 0 6 0;
#X connect 6 0 8 0;
#X connect 7 0 6 0;
#X connect 9 0 14 0;
#X connect 10 0 11 0;
#X connect 10 1 12 0;
#X connect 11 0 13 0;
#X connect 12 0 1 1;
#X connect 13 0 7 0;
#X connect 13 1 0 0;
#X connect 14 0 22 0;
#X connect 14 1 10 0;
#X connect 15 0 16 0;
#X connect 16 0 23 0;
#X connect 17 0 18 0;
#X connect 17 1 19 0;
#X connect 18 0 20 0;
#X connect 19 0 4 1;
#X connect 20 0 4 0;
#X connect 21 0 17 0;
#X connect 22 0 15 0;
#X connect 23 0 21 0;
