#N canvas 263 150 177 204 10;
#X obj 14 49 sel 0 1;
#X obj 14 28 route float;
#X msg 14 85 set 0.5;
#X obj 94 112 -;
#X obj 94 90 t a a;
#X obj 94 133 sel 0;
#X obj 14 6 r \$1;
#X obj 14 148 s \$2;
#X obj 94 155 outlet;
#X msg 24 127 range 0 1;
#X obj 24 106 loadbang;
#X connect 0 0 2 0;
#X connect 0 1 2 0;
#X connect 0 2 4 0;
#X connect 1 0 0 0;
#X connect 2 0 7 0;
#X connect 3 0 5 0;
#X connect 4 0 3 1;
#X connect 4 1 3 0;
#X connect 5 0 8 0;
#X connect 6 0 1 0;
#X connect 9 0 7 0;
#X connect 10 0 9 0;
