#N canvas 667 404 200 136 10;
#X obj -4 10 r \$1.receive;
#X obj -4 32 routeOSC /\$2;
#X obj -4 106 outlet;
#X obj -4 70 route foo;
#X msg 58 70 symbol;
#X obj 108 70 loadbang;
#X text 2 53 workaround for bug3426523;
#X connect 0 0 1 0;
#X connect 1 0 3 0;
#X connect 3 0 2 0;
#X connect 3 1 2 0;
#X connect 4 0 3 1;
#X connect 5 0 4 0;
