#N canvas 496 44 773 454 10;
#N canvas 949 172 412 208 patch-data 0;
#X obj -41 5 inlet;
#X obj -41 149 outlet;
#X msg -41 32 #N canvas 496 44 360 155 10 \, #X declare -stdpath extra/iemnet
-stdpath extra/mrpeach \, #X declare -path .. -path ../includes -path
../abs \, #X obj 12 42 declare -stdpath extra/iemnet -stdpath extra/mrpeach
\, #X obj 12 64 namecanvas container.\$1 \, #X obj 13 85 patches/\$2
\$1 \, #X obj 12 22 declare -path .. -path ../includes -path ../abs
\,;
#X connect 0 0 2 0;
#X connect 2 0 1 0;
#X restore 200 141 pd patch-data;
#X obj 180 243 textfile;
#X obj 200 163 list prepend add;
#X obj 200 185 list trim;
#X msg 180 214 write zzzz.pd \, clear;
#X obj 161 117 t a b a;
#X msg 100 11 load 4 example-patch;
#X msg 143 36 unload 4;
#X msg 178 61 vis 4 \$1;
#X obj 257 30 tgl 15 0 empty empty empty 17 7 0 10 -262144 -1 -1 0
1;
#X obj 79 91 route vis unload load;
#X msg 120 330 \; container.\$1 menuclose;
#X msg 79 368 \; container.\$1 vis \$2;
#X msg 161 266 \; pd open zzzz.pd netpd2/includes \; container.\$1
vis 0;
#X connect 0 0 2 0;
#X connect 2 0 3 0;
#X connect 3 0 1 0;
#X connect 4 0 1 0;
#X connect 5 0 13 0;
#X connect 5 1 4 0;
#X connect 5 2 0 0;
#X connect 6 0 10 0;
#X connect 7 0 10 0;
#X connect 8 0 10 0;
#X connect 9 0 8 0;
#X connect 10 0 12 0;
#X connect 10 1 11 0;
#X connect 10 2 5 0;
