#N canvas 186 223 344 539 10;
#X declare -path else;
#X declare -stdpath else;
#X text 211 89 1: yes;
#X text 211 102 0: no;
#X text 156 67 check \, if given file exists:;
#X obj 28 57 inlet;
#X obj 28 79 symbol;
#X obj 28 433 outlet;
#X obj 26 18 declare -path else;
#X obj 28 142 pack s s;
#X msg 28 165 list \$2 \$1;
#X obj 28 188 unpack s s;
#X obj 45 298 dir;
#X msg 85 212 open \$1;
#X obj 28 236 t b b a b;
#X msg 45 269 dump;
#X obj 45 331 select symbol;
#X msg 45 354 1;
#X msg 86 360 0;
#X obj 28 388 f;
#N canvas 0 99 405 91 deprecated 0;
#X obj 15 16 declare -stdpath else;
#X restore 232 18 pd deprecated;
#X obj 28 111 netpd-split-path;
#X connect 3 0 4 0;
#X connect 4 0 19 0;
#X connect 7 0 8 0;
#X connect 8 0 9 0;
#X connect 9 0 12 0;
#X connect 9 1 11 0;
#X connect 10 0 14 0;
#X connect 11 0 10 0;
#X connect 12 0 17 0;
#X connect 12 1 13 0;
#X connect 12 2 14 1;
#X connect 12 3 16 0;
#X connect 13 0 10 0;
#X connect 14 0 15 0;
#X connect 15 0 17 1;
#X connect 16 0 17 1;
#X connect 17 0 5 0;
#X connect 19 0 7 0;
#X connect 19 1 7 1;
