#N canvas 396 63 443 530 10;
#X obj 215 244 tcpclient;
#X obj 215 290 unpackOSC;
#X obj 215 123 packOSC;
#X obj 215 169 list prepend send;
#X obj 215 192 list trim;
#X obj 215 268 slipdec;
#X obj 215 145 slipenc;
#X obj 11 7 inlet;
#X obj 11 29 route connect disconnect;
#X obj 11 51 list;
#X msg 11 73 connect \$1 \$2;
#X obj 11 97 s \$0.totcpclient;
#X msg 81 50 disconnect;
#X obj 236 214 r \$0.totcpclient;
#X obj 152 432 outlet data;
#X obj 266 482 outlet status;
#X msg 250 450 connection \$1;
#X obj 215 344 routeOSC /*;
#X obj 152 100 routeOSC /l;
#X text 228 100 don't transmit local OSC messages;
#X obj 215 314 t a a;
#X obj 152 391 t a;
#X obj 152 342 t a b;
#X obj 242 375 netpd-sender-get;
#X msg 179 373 symbol l;
#X obj 210 409 outlet sender;
#X connect 0 0 5 0;
#X connect 0 2 16 0;
#X connect 0 3 15 0;
#X connect 1 0 20 0;
#X connect 2 0 6 0;
#X connect 3 0 4 0;
#X connect 4 0 0 0;
#X connect 5 0 1 0;
#X connect 6 0 3 0;
#X connect 7 0 8 0;
#X connect 8 0 9 0;
#X connect 8 1 12 0;
#X connect 8 2 18 0;
#X connect 9 0 10 0;
#X connect 10 0 11 0;
#X connect 12 0 11 0;
#X connect 13 0 0 0;
#X connect 16 0 15 0;
#X connect 17 0 21 0;
#X connect 18 0 22 0;
#X connect 18 1 2 0;
#X connect 20 0 17 0;
#X connect 20 1 23 0;
#X connect 21 0 14 0;
#X connect 22 0 21 0;
#X connect 22 1 24 0;
#X connect 23 0 25 0;
#X connect 24 0 25 0;
