#N canvas 453 44 504 359 10;
#X obj 0 0 cnv 15 500 30 empty empty empty 20 12 0 14 -233017 -66577
0;
#X text 7 7 netpd-l2s - compose a symbol from list;
#X symbolatom 112 154 10 0 0 0 - - -;
#X obj 49 201 netpd-l2s /;
#X msg 49 107 list this is not a path;
#X obj 49 236 print netpd-l2s;
#X text 296 199 arg1: delimiter symbol;
#X text 284 226 inlet0: list;
#X text 284 243 inlet1: delimiter symbol;
#X text 278 260 outlet0: composed symbol;
#X text 20 58 [netpd-l2s] composes a symbol of the incoming list using
the symbol on the right inlet as a delimiter.;
#X msg 220 128 32;
#X obj 220 150 makefilename %c;
#X text 259 129 <- use a white space as delimiter;
#X connect 2 0 3 1;
#X connect 3 0 5 0;
#X connect 4 0 3 0;
#X connect 11 0 12 0;
#X connect 12 0 3 1;
