#N canvas 682 121 543 469 10;
#X obj 19 17 inlet;
#X obj 19 64 route symbol;
#X obj 88 110 netpd-error netpd-isabsolute;
#X msg 88 88 received message is not a symbol;
#X obj 46 188 list fromsymbol;
#X obj 46 212 list split 2;
#X obj 46 241 unpack f f, f 12;
#X text 92 272 /;
#X obj 115 274 sel 58;
#X text 161 273 :;
#X obj 19 154 t b a b, f 23;
#X msg 46 308 1;
#X msg 154 314 0;
#X obj 19 345 f;
#X obj 19 372 outlet;
#X obj 46 273 sel 47;
#X obj 19 40 list;
#X connect 0 0 16 0;
#X connect 1 0 10 0;
#X connect 1 1 3 0;
#X connect 3 0 2 0;
#X connect 4 0 5 0;
#X connect 5 0 6 0;
#X connect 5 2 6 0;
#X connect 6 0 15 0;
#X connect 6 1 8 0;
#X connect 8 0 11 0;
#X connect 10 0 13 0;
#X connect 10 1 4 0;
#X connect 10 2 12 0;
#X connect 11 0 13 1;
#X connect 12 0 13 1;
#X connect 13 0 14 0;
#X connect 15 0 11 0;
#X connect 16 0 1 0;
