#N canvas 317 53 322 659 10;
#X obj 18 8 inlet;
#X obj 208 25 r \$0.send;
#X obj 207 169 s \$0.receive;
#X obj 207 125 netpd-r \$1;
#X obj 208 47 list prepend to;
#X obj 208 69 list trim;
#X obj 208 91 s NETPD;
#X obj 18 273 list append \$1;
#X obj 18 295 list append;
#X obj 18 362 s \$0.send;
#X obj 18 164 t a b;
#X obj 45 235 s \$0.waittime;
#X obj 45 209 spigot;
#X msg 78 186 1;
#X obj 106 163 r \$0.stop;
#X msg 106 186 0;
#X obj 65 73 s \$0.ready;
#X msg 65 51 1;
#X obj 18 437 r \$0.receive;
#X obj 18 459 routeOSC /ready;
#X obj 207 147 routeOSC /sync;
#X obj 18 570 spigot 1;
#X obj 18 592 t a b;
#X msg 91 582 0;
#X obj 18 95 t b b b b b;
#X msg 251 407 1;
#X obj 18 635 outlet;
#X msg 45 186 3000;
#X obj 45 614 s \$0.stop;
#X obj 18 30 route find ready unready;
#X msg 112 51 0;
#X obj 216 538 r \$0.waittime;
#X obj 216 605 delay;
#X obj 216 627 outlet;
#X obj 233 560 r \$0.stop;
#X msg 233 582 stop;
#N canvas 54 120 211 221 append_increment 0;
#X obj 40 14 inlet;
#X obj 40 171 outlet;
#X obj 40 36 t a b;
#X obj 67 60 f;
#X obj 67 82 mod 1000;
#X obj 129 77 + 1;
#X obj 40 142 list append;
#X obj 67 104 t a a;
#X obj 142 170 outlet;
#X connect 0 0 2 0;
#X connect 2 0 6 0;
#X connect 2 1 3 0;
#X connect 3 0 4 0;
#X connect 4 0 5 0;
#X connect 4 0 7 0;
#X connect 5 0 3 1;
#X connect 6 0 1 0;
#X connect 7 0 6 1;
#X connect 7 1 8 0;
#X restore 18 317 pd append_increment;
#X msg 18 341 /\$1\$2/sync/ifready \$3 \$4;
#X text 85 363 <local_socket> <id>;
#X obj 18 481 t a a;
#X msg 18 503 \$2;
#X obj 18 525 select;
#X msg 63 525 \$1;
#X obj 18 547 f;
#X obj 92 295 r \$0.socket;
#N canvas 730 322 137 144 get.socket 0;
#X obj -87 79 netpd-status-get;
#X msg -87 55 socket;
#X obj -67 30 loadbang;
#X obj -87 101 s \$0.socket;
#X obj -87 7 inlet;
#X connect 0 0 3 0;
#X connect 1 0 0 0;
#X connect 2 0 1 0;
#X connect 4 0 1 0;
#X restore 81 118 pd get.socket;
#N canvas 733 241 221 349 handle.request 0;
#X obj 19 26 r \$0.receive;
#X obj 19 48 routeOSC /ifready;
#X obj 19 150 spigot;
#X obj 61 99 r \$0.ready;
#X obj 19 237 list append \$1;
#X obj 19 259 list append;
#X obj 19 301 s \$0.send;
#X msg 19 280 /\$1\$3/sync/ready \$4 \$2;
#X text 26 67 <remote_socket> <id>;
#X text 81 298 <local_socket> <id>;
#X obj 95 258 r \$0.socket;
#X obj 19 201 netpd-fifo;
#X obj 19 100 t b a;
#X obj 61 121 t a a;
#X obj 88 145 sel 1;
#X obj 88 167 until;
#X connect 0 0 1 0;
#X connect 1 0 12 0;
#X connect 2 0 11 0;
#X connect 3 0 13 0;
#X connect 4 0 5 0;
#X connect 5 0 7 0;
#X connect 7 0 6 0;
#X connect 10 0 5 1;
#X connect 11 0 4 0;
#X connect 11 1 15 1;
#X connect 12 0 2 0;
#X connect 12 1 11 1;
#X connect 13 0 2 1;
#X connect 13 1 14 0;
#X connect 14 0 15 0;
#X connect 15 0 11 0;
#X restore 18 400 pd handle.request;
#X obj 18 143 netpd-find-peers \$1/sync;
#X connect 0 0 29 0;
#X connect 1 0 4 0;
#X connect 3 0 20 0;
#X connect 4 0 5 0;
#X connect 5 0 6 0;
#X connect 7 0 8 0;
#X connect 8 0 36 0;
#X connect 10 0 7 0;
#X connect 10 1 27 0;
#X connect 12 0 11 0;
#X connect 13 0 12 1;
#X connect 14 0 15 0;
#X connect 15 0 12 1;
#X connect 17 0 16 0;
#X connect 18 0 19 0;
#X connect 19 0 39 0;
#X connect 20 0 2 0;
#X connect 21 0 22 0;
#X connect 22 0 26 0;
#X connect 22 1 23 0;
#X connect 22 1 28 0;
#X connect 23 0 21 1;
#X connect 24 0 47 0;
#X connect 24 1 27 0;
#X connect 24 2 13 0;
#X connect 24 3 25 0;
#X connect 24 4 45 0;
#X connect 25 0 21 1;
#X connect 27 0 12 0;
#X connect 29 0 24 0;
#X connect 29 1 17 0;
#X connect 29 2 30 0;
#X connect 30 0 16 0;
#X connect 31 0 32 0;
#X connect 32 0 33 0;
#X connect 34 0 35 0;
#X connect 35 0 32 0;
#X connect 36 0 37 0;
#X connect 36 1 41 1;
#X connect 37 0 9 0;
#X connect 39 0 40 0;
#X connect 39 1 42 0;
#X connect 40 0 41 0;
#X connect 41 0 43 0;
#X connect 42 0 43 1;
#X connect 43 0 21 0;
#X connect 44 0 8 1;
#X connect 47 0 10 0;
