#N canvas 481 234 394 221 10;
#X obj 23 22 inlet;
#X obj 23 156 list trim;
#X obj 23 178 s NETPD;
#X obj 23 89 route 0 1;
#X obj 48 112 list prepend error -n \$1:;
#X obj 23 45 list prepend \$2;
#X obj 23 134 list prepend error \$1:;
#X connect 0 0 5 0;
#X connect 1 0 2 0;
#X connect 3 0 6 0;
#X connect 3 1 4 0;
#X connect 4 0 1 0;
#X connect 5 0 3 0;
#X connect 6 0 1 0;
