#N canvas 461 145 243 490 10;
#X obj 26 59 r \$1-\$2;
#X obj 12 10 inlet;
#X obj 12 244 s \$1.NETPD;
#X obj 12 201 list prepend \$2;
#X msg 12 223 send /\$1 \$2;
#X obj 13 321 routeOSC /\$2;
#X obj 13 365 t a a;
#X obj 13 435 outlet;
#X obj 13 344 route float;
#X obj 40 388 spigot;
#X obj 73 366 r \$1.notown;
#X obj 12 32 t a a, f 26;
#X msg 165 428 set \$1;
#X obj 165 450 s \$1-\$2;
#N canvas 812 204 208 184 rate.limit 0;
#X obj 55 101 netpd-rate-limit \$4;
#X obj 16 38 list prepend \$4;
#X obj 16 60 route 0;
#X msg 55 81 \$2;
#X obj 16 14 inlet;
#X obj 16 133 outlet;
#X connect 0 0 5 0;
#X connect 1 0 2 0;
#X connect 2 0 5 0;
#X connect 2 1 3 0;
#X connect 3 0 0 0;
#X connect 4 0 1 0;
#X restore 12 118 pd rate.limit;
#X obj 12 176 f \$3, f 10;
#X obj 22 143 netpd-dump \$1;
#X obj 13 274 r \$1.NETPD;
#X obj 13 297 route receive;
#X obj 26 81 route float set;
#X connect 0 0 19 0;
#X connect 1 0 11 0;
#X connect 3 0 4 0;
#X connect 4 0 2 0;
#X connect 5 0 8 0;
#X connect 6 0 7 0;
#X connect 6 1 9 0;
#X connect 8 0 6 0;
#X connect 9 0 12 0;
#X connect 10 0 9 1;
#X connect 11 0 14 0;
#X connect 11 1 12 0;
#X connect 12 0 13 0;
#X connect 14 0 15 0;
#X connect 15 0 3 0;
#X connect 16 0 15 0;
#X connect 17 0 18 0;
#X connect 18 0 5 0;
#X connect 19 0 14 0;
#X connect 19 1 15 1;
