#N canvas 112 126 668 512 10;
#X obj 492 137 s \$1.NETPD;
#X obj 492 167 r \$1.receive;
#X obj 492 189 routeOSC /\$2;
#X obj 492 72 list prepend /\$2;
#X obj 492 94 list prepend send;
#X obj 492 116 list trim;
#X obj 492 48 r \$0.send;
#X obj 492 211 s \$0.receive;
#X obj 233 375 table \$0.compare \$3;
#X msg 15 67 1;
#X obj 233 47 r \$1-\$2;
#X obj 235 321 s \$0.send;
#X obj 14 276 r \$0.receive;
#N canvas 498 76 360 535 unpack.delta 0;
#X obj 11 14 inlet;
#X obj 30 83 list prepend 0;
#X obj 38 493 outlet;
#X obj 30 107 s \$0.unpack;
#X obj 178 17 table \$0.unpack 2000;
#X msg 50 62 const 0;
#X obj 11 37 t b a b;
#X msg 11 135 0;
#X obj 11 211 tabread \$0.unpack;
#X obj 30 259 until;
#X obj 181 80 r \$0.counter.in;
#X obj 181 132 f;
#X obj 181 102 route bang float;
#X obj 215 132 + 1;
#X obj 181 167 s \$0.counter.out;
#X obj 11 157 t b a;
#N canvas 483 421 180 198 counter 0;
#X obj 42 81 s \$0.counter.in;
#X obj 42 101 r \$0.counter.out;
#X obj 15 122 f;
#X obj 15 40 route bang;
#X obj 15 62 t b b;
#X obj 15 13 inlet;
#X obj 15 145 outlet;
#X connect 1 0 2 1;
#X connect 2 0 6 0;
#X connect 3 0 4 0;
#X connect 3 1 0 0;
#X connect 4 0 2 0;
#X connect 4 1 0 0;
#X connect 5 0 3 0;
#X restore 11 185 pd counter;
#N canvas 483 421 180 198 counter 0;
#X obj 42 81 s \$0.counter.in;
#X obj 42 101 r \$0.counter.out;
#X obj 15 122 f;
#X obj 15 40 route bang;
#X obj 15 62 t b b;
#X obj 15 13 inlet;
#X obj 15 145 outlet;
#X connect 1 0 2 1;
#X connect 2 0 6 0;
#X connect 3 0 4 0;
#X connect 3 1 0 0;
#X connect 4 0 2 0;
#X connect 4 1 0 0;
#X connect 5 0 3 0;
#X restore 30 282 pd counter;
#X obj 30 305 tabread \$0.unpack;
#X obj 11 237 t b a b;
#X msg 91 345 set;
#X msg 30 345 add2 \$1;
#X msg 11 400;
#X obj 11 422 t b a;
#X obj 11 450 s \$0.next;
#X obj 64 155 r \$0.next;
#X connect 0 0 6 0;
#X connect 1 0 3 0;
#X connect 5 0 3 0;
#X connect 6 0 7 0;
#X connect 6 1 1 0;
#X connect 6 2 5 0;
#X connect 7 0 15 0;
#X connect 8 0 19 0;
#X connect 9 0 17 0;
#X connect 10 0 12 0;
#X connect 11 0 13 0;
#X connect 11 0 14 0;
#X connect 12 0 11 0;
#X connect 12 1 11 1;
#X connect 13 0 11 1;
#X connect 15 0 16 0;
#X connect 15 1 16 0;
#X connect 16 0 8 0;
#X connect 17 0 18 0;
#X connect 18 0 21 0;
#X connect 19 0 22 0;
#X connect 19 1 9 0;
#X connect 19 2 20 0;
#X connect 20 0 22 0;
#X connect 21 0 22 0;
#X connect 22 0 23 0;
#X connect 23 0 24 0;
#X connect 23 1 2 0;
#X connect 25 0 16 0;
#X restore 14 322 pd unpack.delta;
#X obj 31 399 s \$1-\$2;
#X obj 65 373 s \$0.compare;
#X obj 14 298 route list;
#X obj 14 344 t b a b a;
#X msg 14 430 1;
#X msg 48 430 0;
#X obj 14 457 s \$0.loopbreak;
#X obj 235 270 t a a;
#X obj 262 293 s \$0.compare;
#X obj 15 91 metro 100;
#X obj 15 209 s \$0.send;
#X obj 125 162 s \$0.compare;
#X obj 55 162 route done;
#X obj 15 162 t a a;
#N canvas 544 212 185 403 generate.delta 0;
#X obj 59 160 tabread \$1-\$2;
#X obj 40 203 tabread \$0.compare;
#X obj 40 90 until;
#X msg 96 89 0;
#X obj 40 113 f;
#X obj 74 113 + 1;
#X obj 40 228 -;
#X obj 40 250 sel 0;
#X obj 59 182 t a a;
#X obj 40 140 t a a a;
#X obj 40 294 f;
#X obj 40 273 b;
#X obj 21 25 inlet;
#X obj 41 373 outlet;
#X obj 40 316 list prepend;
#X obj 21 47 t b b b;
#X msg 21 343 done;
#X obj 88 43 r \$0.size;
#X obj 40 68 f;
#X connect 0 0 8 0;
#X connect 1 0 6 0;
#X connect 2 0 4 0;
#X connect 3 0 4 1;
#X connect 4 0 5 0;
#X connect 4 0 9 0;
#X connect 5 0 4 1;
#X connect 6 0 7 0;
#X connect 7 1 11 0;
#X connect 8 0 6 1;
#X connect 8 1 10 1;
#X connect 9 0 1 0;
#X connect 9 1 0 0;
#X connect 9 2 14 1;
#X connect 10 0 14 0;
#X connect 11 0 10 0;
#X connect 12 0 15 0;
#X connect 14 0 13 0;
#X connect 15 0 16 0;
#X connect 15 1 18 0;
#X connect 15 2 3 0;
#X connect 16 0 13 0;
#X connect 17 0 18 1;
#X connect 18 0 2 0;
#X restore 15 112 pd generate.delta;
#N canvas 541 420 450 300 compress.delta 0;
#X obj 26 18 inlet;
#X obj 83 251 outlet;
#X obj 83 102 route 0;
#X obj 83 124 t a b;
#X obj 235 91 f;
#X obj 235 115 + 1;
#X msg 83 198 add2 \$1;
#X obj 235 140 t a;
#X msg 122 169 \$2;
#X msg 141 147 \$1;
#X obj 122 125 t a a b;
#X msg 161 187 bang \, set;
#X obj 177 36 loadbang;
#X msg 177 58 -12.3457;
#X msg 83 220;
#X obj 26 47 route done;
#X obj 26 69 t b b;
#X msg 26 177 done;
#X connect 0 0 15 0;
#X connect 2 0 3 0;
#X connect 2 1 10 0;
#X connect 3 0 6 0;
#X connect 3 1 4 0;
#X connect 4 0 5 0;
#X connect 5 0 7 0;
#X connect 6 0 14 0;
#X connect 7 0 4 1;
#X connect 7 0 2 1;
#X connect 8 0 6 0;
#X connect 9 0 6 0;
#X connect 9 0 5 0;
#X connect 10 0 8 0;
#X connect 10 1 9 0;
#X connect 10 2 11 0;
#X connect 11 0 14 0;
#X connect 12 0 13 0;
#X connect 13 0 7 0;
#X connect 14 0 1 0;
#X connect 15 0 16 0;
#X connect 15 1 2 0;
#X connect 16 0 17 0;
#X connect 16 1 11 0;
#X connect 16 1 13 0;
#X connect 17 0 1 0;
#X restore 15 140 pd compress.delta;
#N canvas 508 241 301 250 pack.delta 0;
#X obj 13 18 inlet;
#X obj 13 180 outlet;
#X obj 79 136 list prepend add2;
#X msg 13 152;
#X msg 13 66 bang \, set;
#X obj 79 158 list trim;
#X obj 13 43 route done;
#X obj 79 66 t a a;
#X obj 106 89 list length;
#X msg 106 112 add2 \$1;
#X connect 0 0 6 0;
#X connect 2 0 5 0;
#X connect 3 0 1 0;
#X connect 4 0 3 0;
#X connect 5 0 3 0;
#X connect 6 0 4 0;
#X connect 6 1 7 0;
#X connect 7 0 2 0;
#X connect 7 1 8 0;
#X connect 8 0 9 0;
#X connect 9 0 3 0;
#X restore 15 185 pd pack.delta;
#X obj 233 93 spigot 1;
#X obj 278 71 r \$0.loopbreak;
#X text 490 25 -- communication --;
#X text 233 353 -- reference table --;
#X text 12 255 -- receive array commands --;
#X text 231 24 -- array commands --;
#X text 10 26 -- auto-detect sync --;
#X obj 233 148 route read write print;
#X text 246 118 filter some commands;
#X text 246 130 that we don't want to support;
#X obj 15 46 r \$0.start.auto.sync;
#X obj 492 266 loadbang;
#X obj 492 288 f \$3;
#X obj 492 310 s \$0.set.size;
#X obj 494 361 r \$0.set.size;
#X obj 494 388 min 1024;
#X obj 494 410 s \$0.size;
#X obj 235 176 t a a;
#X obj 262 197 route resize sinesum cosinesum;
#X msg 262 221 \$1;
#X obj 262 243 s \$0.set.size;
#X text 550 389 <- MAXSIZE;
#N canvas 495 223 191 304 init.reference.table 0;
#X obj 7 2 r \$0.size;
#X obj 7 24 spigot 1;
#X msg 80 36 0;
#X obj 34 138 until;
#X obj 34 160 f;
#X obj 77 159 + 1;
#X obj 7 46 t b a b;
#X obj 7 68 del 0;
#X obj 7 90 f;
#X obj 34 209 tabread \$1-\$2;
#X obj 34 186 t a a;
#X obj 34 236 tabwrite \$0.compare;
#X obj 7 113 t b a;
#X obj 7 262 s \$0.start.auto.sync;
#X connect 0 0 1 0;
#X connect 1 0 6 0;
#X connect 2 0 1 1;
#X connect 2 0 4 1;
#X connect 3 0 4 0;
#X connect 4 0 5 0;
#X connect 4 0 10 0;
#X connect 5 0 4 1;
#X connect 6 0 7 0;
#X connect 6 1 8 1;
#X connect 6 2 2 0;
#X connect 7 0 8 0;
#X connect 8 0 12 0;
#X connect 9 0 11 0;
#X connect 10 0 9 0;
#X connect 10 1 11 1;
#X connect 12 0 13 0;
#X connect 12 1 3 0;
#X restore 233 440 pd init.reference.table;
#N canvas 263 422 186 326 dump.total 0;
#X obj 11 9 r \$1.NETPD;
#X obj 11 31 route dump;
#X obj 11 53 route 5;
#X obj 11 75 b;
#X obj 57 213 tabread \$1-\$2;
#X obj 30 141 until;
#X msg 86 140 0;
#X obj 30 164 f;
#X obj 64 164 + 1;
#X obj 31 294 outlet;
#X obj 11 98 t b b b;
#X msg 11 264 done;
#X obj 78 94 r \$0.size;
#X obj 30 119 f;
#X obj 30 191 t a a;
#X obj 30 237 list append;
#X connect 0 0 1 0;
#X connect 1 0 2 0;
#X connect 2 0 3 0;
#X connect 3 0 10 0;
#X connect 4 0 15 1;
#X connect 5 0 7 0;
#X connect 6 0 7 1;
#X connect 7 0 8 0;
#X connect 7 0 14 0;
#X connect 8 0 7 1;
#X connect 10 0 11 0;
#X connect 10 1 13 0;
#X connect 10 2 6 0;
#X connect 11 0 9 0;
#X connect 12 0 13 1;
#X connect 13 0 5 0;
#X connect 14 0 15 0;
#X connect 14 1 4 0;
#X connect 15 0 9 0;
#X restore 124 112 pd dump.total;
#X connect 1 0 2 0;
#X connect 2 0 7 0;
#X connect 3 0 4 0;
#X connect 4 0 5 0;
#X connect 5 0 0 0;
#X connect 6 0 3 0;
#X connect 9 0 23 0;
#X connect 10 0 31 0;
#X connect 12 0 16 0;
#X connect 13 0 17 0;
#X connect 16 0 13 0;
#X connect 16 1 17 0;
#X connect 17 0 18 0;
#X connect 17 1 14 0;
#X connect 17 2 19 0;
#X connect 17 3 15 0;
#X connect 18 0 20 0;
#X connect 19 0 20 0;
#X connect 21 0 11 0;
#X connect 21 1 22 0;
#X connect 23 0 28 0;
#X connect 26 1 25 0;
#X connect 27 0 30 0;
#X connect 27 1 26 0;
#X connect 28 0 29 0;
#X connect 29 0 27 0;
#X connect 30 0 24 0;
#X connect 31 0 38 0;
#X connect 32 0 31 1;
#X connect 38 3 48 0;
#X connect 41 0 9 0;
#X connect 42 0 43 0;
#X connect 43 0 44 0;
#X connect 45 0 46 0;
#X connect 46 0 47 0;
#X connect 48 0 21 0;
#X connect 48 1 49 0;
#X connect 49 0 50 0;
#X connect 49 1 50 0;
#X connect 49 2 50 0;
#X connect 50 0 51 0;
#X connect 54 0 29 0;
