#N canvas 453 344 302 192 10;
#X obj 14 2 inlet;
#X obj 14 23 unpack f f f;
#X obj 14 168 outlet;
#X obj 48 49 << 8;
#X obj 14 49 << 16;
#X obj 14 106 +;
#X obj 48 78 +;
#X text 93 79 converts rgb 8bit to iem colors;
#X obj 14 126 * -1;
#X obj 14 147 - 1;
#X connect 0 0 1 0;
#X connect 1 0 4 0;
#X connect 1 1 3 0;
#X connect 1 2 6 1;
#X connect 3 0 6 0;
#X connect 4 0 5 0;
#X connect 5 0 8 0;
#X connect 6 0 5 1;
#X connect 8 0 9 0;
#X connect 9 0 2 0;
