#N canvas 676 374 691 574 10;
#X obj 128 170 netpd-pref-get netpd-instruments-path;
#X obj 280 293 netpd-pref-get int-instr-path;
#X obj 65 47 inlet;
#X obj 65 203 list append;
#X obj 266 56 loadbang;
#X obj 217 318 list append;
#X obj 65 313 file isfile;
#X obj 65 105 list;
#X symbolatom 121 74 10 0 0 0 - - - 0;
#X obj 65 340 sel 1;
#X obj 65 289 t a a;
#X obj 65 365 symbol, f 11;
#X obj 217 297 symbol;
#X obj 216 273 b;
#X obj 217 412 file isfile;
#X obj 217 439 sel 1;
#X obj 217 388 t a a;
#X obj 217 464 symbol, f 11;
#X obj 65 132 t a a a, f 54;
#X obj 353 436 symbol;
#X obj 353 410 b;
#N canvas 1320 584 454 172 to_absolute 0;
#X obj 20 23 inlet;
#X obj 20 122 outlet;
#X msg 20 73 dir 1 \$1;
#X obj 20 96 pdcontrol;
#X msg 20 50 symbol \$2\$3/\$1.pd;
#X connect 0 0 4 0;
#X connect 2 0 3 0;
#X connect 3 0 1 0;
#X connect 4 0 2 0;
#X restore 217 364 pd to_absolute;
#X obj 524 49 loadbang;
#X obj 524 72 \$1;
#X obj 524 95 route float;
#X obj 584 52 inlet;
#X obj 524 128 sel 0 1, f 17;
#X msg 524 185 symbol;
#X obj 65 234 list append;
#X msg 65 265 symbol \$2\$3/\$1.pd;
#X obj 524 215 s \$0.type;
#X obj 141 233 r \$0.type;
#X obj 293 340 r \$0.type;
#X obj 217 341 list append;
#X msg 573 187 symbol /abs;
#X obj 65 516 outlet;
#X obj 353 503 outlet;
#X connect 0 0 3 1;
#X connect 1 0 5 1;
#X connect 2 0 7 0;
#X connect 3 0 28 0;
#X connect 4 0 0 0;
#X connect 4 0 1 0;
#X connect 5 0 33 0;
#X connect 6 0 9 0;
#X connect 6 1 13 0;
#X connect 7 0 18 0;
#X connect 8 0 7 0;
#X connect 9 0 11 0;
#X connect 9 1 13 0;
#X connect 10 0 6 0;
#X connect 10 1 11 1;
#X connect 11 0 35 0;
#X connect 12 0 5 0;
#X connect 13 0 12 0;
#X connect 14 0 15 0;
#X connect 14 1 20 0;
#X connect 15 0 17 0;
#X connect 15 1 20 0;
#X connect 16 0 14 0;
#X connect 16 1 17 1;
#X connect 17 0 35 0;
#X connect 18 0 3 0;
#X connect 18 1 12 1;
#X connect 18 2 19 1;
#X connect 19 0 36 0;
#X connect 20 0 19 0;
#X connect 21 0 16 0;
#X connect 22 0 23 0;
#X connect 23 0 24 0;
#X connect 24 0 26 0;
#X connect 25 0 24 0;
#X connect 26 0 27 0;
#X connect 26 1 34 0;
#X connect 27 0 30 0;
#X connect 28 0 29 0;
#X connect 29 0 10 0;
#X connect 31 0 28 1;
#X connect 32 0 33 1;
#X connect 33 0 21 0;
#X connect 34 0 30 0;
