#N canvas 366 44 504 423 10;
#X obj 0 0 cnv 15 500 30 empty empty empty 20 12 0 14 -233017 -66577
0;
#X text 7 7 netpd-find-peers - find other instances of similar peers
;
#X obj 17 225 bng 15 250 50 0 empty empty empty 17 7 0 10 -262144 -1
-1;
#X text 20 174 Additionally \, [netpd-find-peers] performs a round
trip measurement (a.k.a ping time) to the server.;
#X text 190 357 outlet0: peers (socket numbers);
#X text 190 375 outlet1: ping time (ms);
#X obj 17 322 print netpd-find-peers;
#X floatatom 176 283 6 0 0 0 - - -;
#X text 217 283 ms;
#X text 208 310 arg1: /name (OSC address field);
#X obj 17 256 netpd-find-peers /helppatch;
#X text 196 339 inlet0: bang | state <any-message> (optional);
#X msg 43 224 state some_message (or some message);
#X text 21 47 [netpd-find-peers] tries to find remote instances of
similar peers (which might be netpd-patches or sections of netpd-patches)
and returns their socket numbers (if any are around).;
#X text 21 113 Optionally \, [netpd-find-peers] adds a message to its
response to a request of a peer. This may be used to inform peers about
the own state (used by [netpd-find-sync]).;
#X connect 2 0 10 0;
#X connect 10 0 6 0;
#X connect 10 1 7 0;
#X connect 12 0 10 0;
