#N canvas 144 53 332 314 10;
#X obj 203 41 list append;
#X obj 203 18 r \$0.i.0;
#X obj 266 18 r \$0.i.1;
#X obj 203 65 s \$0.o.0;
#X obj 16 14 inlet;
#X obj 16 37 s \$0.inlet;
#X obj 16 214 r \$0.outlet;
#X obj 16 237 outlet;
#N canvas 255 203 191 354 append 0;
#X obj 14 10 r \$0.inlet;
#X obj 14 32 route append;
#X obj 41 245 s \$0.i.0;
#X obj 14 312 s \$0.i.1;
#X obj 41 264 r \$0.o.0;
#X obj 14 54 t a a;
#X msg 14 76 \$1;
#X msg 41 76 symbol \$2;
#X obj 14 119 route float;
#X obj 41 98 route symbol;
#X obj 14 140 list append;
#X obj 14 223 t a b;
#X obj 14 288 list prepend;
#X obj 14 162 t a a;
#X msg 41 182 drop \$1;
#X obj 41 202 s \$0.inlet;
#X connect 0 0 1 0;
#X connect 1 0 5 0;
#X connect 4 0 12 1;
#X connect 5 0 6 0;
#X connect 5 1 7 0;
#X connect 6 0 8 0;
#X connect 7 0 9 0;
#X connect 8 0 10 0;
#X connect 9 0 10 1;
#X connect 10 0 13 0;
#X connect 11 0 12 0;
#X connect 11 1 2 0;
#X connect 12 0 3 0;
#X connect 13 0 11 0;
#X connect 13 1 14 0;
#X connect 14 0 15 0;
#X restore 16 81 pd append;
#N canvas 239 288 215 395 drop 0;
#X obj 14 10 r \$0.inlet;
#X obj 33 98 s \$0.i.0;
#X obj 14 339 s \$0.i.1;
#X obj 33 117 r \$0.o.0;
#X obj 14 139 list append;
#X obj 14 32 route drop;
#X obj 14 54 route float;
#X obj 31 189 until;
#X obj 31 211 list append;
#X obj 119 229 bang;
#X obj 31 232 list split 2;
#X obj 31 254 route;
#X obj 14 76 t b b a;
#X obj 14 161 t b b a b;
#X obj 58 277 list prepend;
#X obj 151 277 t a;
#X obj 14 315 list;
#X obj 152 230 t b;
#X connect 0 0 5 0;
#X connect 3 0 4 1;
#X connect 4 0 13 0;
#X connect 5 0 6 0;
#X connect 6 0 12 0;
#X connect 7 0 8 0;
#X connect 8 0 10 0;
#X connect 9 0 7 1;
#X connect 10 0 11 0;
#X connect 10 1 8 1;
#X connect 10 2 9 0;
#X connect 11 1 14 0;
#X connect 12 0 4 0;
#X connect 12 1 1 0;
#X connect 12 2 11 1;
#X connect 13 0 16 0;
#X connect 13 1 7 0;
#X connect 13 2 8 1;
#X connect 13 3 17 0;
#X connect 14 0 15 0;
#X connect 14 0 16 1;
#X connect 15 0 14 1;
#X connect 16 0 2 0;
#X connect 17 0 14 1;
#X connect 17 0 16 1;
#X restore 16 101 pd drop;
#N canvas 251 191 219 428 get 0;
#X obj 14 10 r \$0.inlet;
#X obj 33 98 s \$0.i.0;
#X obj 33 117 r \$0.o.0;
#X obj 14 139 list append;
#X obj 14 54 route float;
#X obj 31 189 until;
#X obj 31 211 list append;
#X obj 119 229 bang;
#X obj 31 232 list split 2;
#X obj 31 254 route;
#X obj 14 76 t b b a;
#X obj 14 161 t b b a b;
#X obj 58 321 list;
#X obj 58 396 s \$0.outlet;
#X obj 14 32 route get;
#X obj 31 276 t b a;
#X msg 31 297 1;
#X msg 65 299 0;
#X obj 14 324 f;
#X obj 14 346 sel 0;
#X msg 14 368 symbol empty;
#X connect 0 0 14 0;
#X connect 2 0 3 1;
#X connect 3 0 11 0;
#X connect 4 0 10 0;
#X connect 5 0 6 0;
#X connect 6 0 8 0;
#X connect 7 0 5 1;
#X connect 8 0 9 0;
#X connect 8 1 6 1;
#X connect 8 2 7 0;
#X connect 9 0 15 0;
#X connect 10 0 3 0;
#X connect 10 1 1 0;
#X connect 10 2 9 1;
#X connect 11 0 18 0;
#X connect 11 1 5 0;
#X connect 11 2 6 1;
#X connect 11 3 17 0;
#X connect 12 0 13 0;
#X connect 14 0 4 0;
#X connect 15 0 16 0;
#X connect 15 1 12 0;
#X connect 16 0 18 1;
#X connect 17 0 18 1;
#X connect 18 0 19 0;
#X connect 19 0 20 0;
#X connect 20 0 13 0;
#X restore 16 161 pd get;
#N canvas 268 249 177 297 getall 0;
#X obj 14 10 r \$0.inlet;
#X obj 41 78 s \$0.i.0;
#X obj 41 97 r \$0.o.0;
#X obj 14 119 list append;
#X obj 14 167 until;
#X obj 14 189 list append;
#X obj 107 205 bang;
#X obj 14 210 list split 2;
#X obj 14 235 s \$0.outlet;
#X obj 14 32 route getall;
#X obj 14 56 t b b;
#X obj 14 141 t b a;
#X connect 0 0 9 0;
#X connect 2 0 3 1;
#X connect 3 0 11 0;
#X connect 4 0 5 0;
#X connect 5 0 7 0;
#X connect 6 0 4 1;
#X connect 7 0 8 0;
#X connect 7 1 5 1;
#X connect 7 2 6 0;
#X connect 9 0 10 0;
#X connect 10 0 3 0;
#X connect 10 1 1 0;
#X connect 11 0 4 0;
#X connect 11 1 5 1;
#X restore 16 181 pd getall;
#X text 18 60 methods:;
#N canvas 303 326 142 199 dropall 0;
#X obj 14 10 r \$0.inlet;
#X obj 14 32 route dropall;
#X obj 14 55 s \$0.i.1;
#X connect 0 0 1 0;
#X connect 1 0 2 0;
#X restore 16 141 pd dropall;
#N canvas 240 251 177 297 getlength 0;
#X obj 14 10 r \$0.inlet;
#X obj 41 78 s \$0.i.0;
#X obj 41 97 r \$0.o.0;
#X obj 14 119 list append;
#X obj 14 235 s \$0.outlet;
#X obj 14 56 t b b;
#X obj 14 141 list length;
#X obj 14 32 route getlength;
#X obj 14 163 * 0.5;
#X connect 0 0 7 0;
#X connect 2 0 3 1;
#X connect 3 0 6 0;
#X connect 5 0 3 0;
#X connect 5 1 1 0;
#X connect 6 0 8 0;
#X connect 7 0 5 0;
#X connect 8 0 4 0;
#X restore 105 81 pd getlength;
#N canvas 289 247 218 322 getbypos 0;
#X obj 14 10 r \$0.inlet;
#X obj 33 98 s \$0.i.0;
#X obj 33 117 r \$0.o.0;
#X obj 14 139 list append;
#X obj 14 54 route float;
#X obj 14 76 t b b a;
#X obj 14 170 list split 0;
#X obj 48 225 list split 2;
#X msg 83 250 0 empty;
#X obj 48 273 s \$0.outlet;
#X obj 14 32 route getbypos;
#X obj 115 122 << 1;
#X obj 48 194 route bang;
#X connect 0 0 10 0;
#X connect 2 0 3 1;
#X connect 3 0 6 0;
#X connect 4 0 5 0;
#X connect 5 0 3 0;
#X connect 5 1 1 0;
#X connect 5 2 11 0;
#X connect 6 1 12 0;
#X connect 6 2 8 0;
#X connect 7 0 9 0;
#X connect 8 0 9 0;
#X connect 10 0 4 0;
#X connect 11 0 6 1;
#X connect 12 0 8 0;
#X connect 12 1 7 0;
#X restore 105 101 pd getbypos;
#N canvas 253 361 269 477 getrange 0;
#X obj 14 10 r \$0.inlet;
#X obj 33 78 s \$0.i.0;
#X obj 33 97 r \$0.o.0;
#X obj 14 119 list append;
#X obj 42 261 until;
#X obj 42 283 list append;
#X obj 42 304 list split 2;
#X obj 42 356 s \$0.outlet;
#X obj 42 213 t b a;
#X obj 14 32 route getrange;
#X obj 14 56 t b b a;
#X obj 100 76 t a a;
#X msg 100 98 \$1;
#X obj 100 120 << 1;
#X obj 14 163 list split;
#X msg 127 157 \$2;
#X obj 42 235 f;
#X msg 111 326 0 empty;
#X obj 71 185 b;
#X connect 0 0 9 0;
#X connect 2 0 3 1;
#X connect 3 0 14 0;
#X connect 4 0 5 0;
#X connect 5 0 6 0;
#X connect 6 0 7 0;
#X connect 6 1 5 1;
#X connect 6 2 17 0;
#X connect 8 0 16 0;
#X connect 8 1 5 1;
#X connect 9 0 10 0;
#X connect 10 0 3 0;
#X connect 10 1 1 0;
#X connect 10 2 11 0;
#X connect 11 0 12 0;
#X connect 11 1 15 0;
#X connect 12 0 13 0;
#X connect 13 0 14 1;
#X connect 14 1 8 0;
#X connect 14 2 18 0;
#X connect 15 0 16 1;
#X connect 16 0 4 0;
#X connect 17 0 7 0;
#X connect 18 0 8 0;
#X restore 105 121 pd getrange;
#N canvas 227 400 198 381 dropbypos 0;
#X obj 14 10 r \$0.inlet;
#X obj 33 98 s \$0.i.0;
#X obj 14 320 s \$0.i.1;
#X obj 33 117 r \$0.o.0;
#X obj 14 139 list append;
#X obj 14 54 route float;
#X obj 14 76 t b b a;
#X obj 14 32 route dropbypos;
#X obj 14 192 list split;
#X obj 71 168 * 2;
#X obj 42 240 list split 2;
#X obj 14 264 list append;
#X obj 71 215 t a b;
#X connect 0 0 7 0;
#X connect 3 0 4 1;
#X connect 4 0 8 0;
#X connect 5 0 6 0;
#X connect 6 0 4 0;
#X connect 6 1 1 0;
#X connect 6 2 9 0;
#X connect 7 0 5 0;
#X connect 8 0 11 0;
#X connect 8 1 10 0;
#X connect 8 2 12 0;
#X connect 9 0 8 1;
#X connect 10 1 11 1;
#X connect 11 0 2 0;
#X connect 12 0 11 0;
#X connect 12 1 11 1;
#X restore 16 121 pd dropbypos;
#N canvas 476 100 127 255 find 0;
#X obj 14 10 r \$0.inlet;
#X obj 14 212 s \$0.outlet;
#X obj 14 32 route find;
#N canvas 594 306 164 240 getall 0;
#X obj 37 53 s \$0.i.0;
#X obj 37 72 r \$0.o.0;
#X obj 10 94 list append;
#X obj 10 142 until;
#X obj 10 164 list append;
#X obj 103 180 bang;
#X obj 10 185 list split 2;
#X obj 10 31 t b b;
#X obj 10 116 t b a;
#X obj 10 8 inlet;
#X obj 10 207 outlet;
#X connect 1 0 2 1;
#X connect 2 0 8 0;
#X connect 3 0 4 0;
#X connect 4 0 6 0;
#X connect 5 0 3 1;
#X connect 6 0 10 0;
#X connect 6 1 4 1;
#X connect 6 2 5 0;
#X connect 7 0 2 0;
#X connect 7 1 0 0;
#X connect 8 0 3 0;
#X connect 8 1 4 1;
#X connect 9 0 7 0;
#X restore 14 75 pd getall;
#X obj 14 97 t a a;
#X msg 14 143 symbol \$2;
#X obj 14 167 sel _dummy;
#X obj 72 100 symbol;
#X msg 41 121 \$1;
#X obj 14 190 f;
#X obj 14 53 t b a;
#X connect 0 0 2 0;
#X connect 2 0 10 0;
#X connect 3 0 4 0;
#X connect 4 0 5 0;
#X connect 4 1 8 0;
#X connect 5 0 6 0;
#X connect 6 0 9 0;
#X connect 7 0 6 1;
#X connect 8 0 9 1;
#X connect 9 0 1 0;
#X connect 10 0 3 0;
#X connect 10 1 7 0;
#X restore 105 141 pd find;
#X connect 0 0 3 0;
#X connect 1 0 0 0;
#X connect 2 0 0 1;
#X connect 4 0 5 0;
#X connect 6 0 7 0;
