#N canvas 663 428 425 338 10;
#X obj 12 14 inlet;
#X obj 29 99 list trim;
#X obj 29 120 s NETPD;
#X obj 29 141 r NETPD;
#X obj 29 183 list split 1;
#X obj 29 206 sel _;
#X obj 12 296 list;
#X obj 65 263 list;
#X obj 12 317 outlet;
#X msg 29 234 1;
#X msg 99 232 0;
#X obj 12 255 spigot;
#X obj 12 56 t b a a b;
#X obj 12 35 list;
#X obj 29 78 list prepend status get;
#X obj 29 162 route status;
#X text 124 18 get data of a given netpd status property;
#X connect 0 0 13 0;
#X connect 1 0 2 0;
#X connect 3 0 15 0;
#X connect 4 0 5 0;
#X connect 4 1 7 1;
#X connect 5 0 9 0;
#X connect 5 0 7 0;
#X connect 6 0 8 0;
#X connect 7 0 6 1;
#X connect 9 0 11 1;
#X connect 10 0 11 1;
#X connect 11 0 6 0;
#X connect 12 0 11 0;
#X connect 12 1 14 0;
#X connect 12 2 5 1;
#X connect 12 3 10 0;
#X connect 13 0 12 0;
#X connect 14 0 1 0;
#X connect 15 0 4 0;
