#N canvas 410 44 504 439 10;
#X obj 0 0 cnv 15 500 30 empty empty empty 20 12 0 14 -233017 -66577
0;
#X text 18 172 patch|abstraction <filename> <remote socket>;
#X text 7 7 netpd-transfer-patch -;
#X text 143 7 download a patch/abstraction from given peer;
#X obj 25 322 netpd-patch-transfer /helppatch;
#X msg 25 241 abstraction example.pd \$1;
#X floatatom 25 216 5 0 0 0 - - -;
#X text 23 51 Request a netpd-patch or netpd-abstraction from a peer
identified by its socket number and download it.;
#X text 35 132 abstraction -> <netpd>/abs;
#X text 25 87 There are currently only two hard-coded types of patches
which are saved into different directories:;
#X text 252 248 inlet0: patch to download;
#X text 36 120 patch -> <netpd>/patches;
#X text 264 219 arg1: /name (OSC address field);
#X obj 25 376 print netpd-patch-transfer:MSG;
#X obj 102 351 print netpd-patch-transfer:STATUS;
#X text 246 284 outlet1: status info;
#X text 246 266 outlet0: messages;
#X connect 4 0 13 0;
#X connect 4 1 14 0;
#X connect 5 0 4 0;
#X connect 6 0 5 0;
