#N canvas 407 125 495 436 10;
#X obj 14 9 inlet;
#X obj 11 387 outlet;
#X obj 344 383 outlet;
#X obj 144 121 text define \$1-\$2;
#X obj 14 31 s \$0.inlet.0;
#X obj 11 362 r \$0.outlet.0;
#N canvas 201 106 452 389 get 0;
#X obj 14 31 r \$0.inlet.0;
#X obj 14 346 s \$0.outlet.0;
#X obj 14 51 route get;
#X obj 14 71 t a a;
#X obj 41 92 list length;
#X obj 14 114 list prepend;
#X obj 14 134 route 1 2 3;
#X obj 14 298 text get \$1-\$2;
#X obj 343 354 s \$0.outlet.2;
#X obj 168 351 s \$0.outlet.1;
#X obj 14 244 t a b;
#X msg 41 262 -1;
#X obj 35 183 unpack f f;
#X obj 92 209 t a b;
#X msg 119 229 1;
#X obj 157 227 unpack f f f;
#X connect 0 0 2 0;
#X connect 2 0 3 0;
#X connect 3 0 5 0;
#X connect 3 1 4 0;
#X connect 4 0 5 1;
#X connect 5 0 6 0;
#X connect 6 0 10 0;
#X connect 6 1 12 0;
#X connect 6 2 15 0;
#X connect 7 0 1 0;
#X connect 7 1 9 0;
#X connect 10 0 7 0;
#X connect 10 1 11 0;
#X connect 11 0 7 1;
#X connect 12 0 7 0;
#X connect 12 1 13 0;
#X connect 13 0 7 1;
#X connect 13 1 14 0;
#X connect 14 0 7 2;
#X connect 15 0 7 0;
#X connect 15 1 7 1;
#X connect 15 2 7 2;
#X restore 15 65 pd get;
#X obj 335 102 s \$1.NETPD;
#X obj 335 190 routeOSC /\$2;
#X obj 335 60 list prepend send /\$2;
#X obj 335 81 list trim;
#X obj 335 37 r \$0.s;
#X obj 362 237 s \$0.r;
#N canvas 142 125 487 309 set 0;
#X obj 11 10 r \$0.inlet.0;
#X obj 11 252 s \$0.outlet.0;
#X obj 11 69 s \$0.s;
#X obj 11 88 r \$0.r;
#X obj 11 30 route set;
#X obj 11 197 text set \$1-\$2;
#X obj 11 50 list prepend set;
#X obj 11 108 route set;
#X obj 11 128 t a a a;
#X msg 30 149 \$1;
#X msg 60 149 \$2;
#X obj 348 255 s \$0.outlet.2;
#X obj 188 255 s \$0.outlet.1;
#X obj 11 172 list split 2;
#X connect 0 0 4 0;
#X connect 3 0 7 0;
#X connect 4 0 6 0;
#X connect 6 0 2 0;
#X connect 7 0 8 0;
#X connect 8 0 13 0;
#X connect 8 1 9 0;
#X connect 8 2 10 0;
#X connect 9 0 5 1;
#X connect 10 0 5 2;
#X connect 13 1 5 0;
#X restore 15 85 pd set;
#N canvas 142 125 450 300 delete 0;
#X obj 12 10 r \$0.inlet.0;
#X obj 11 252 s \$0.outlet.0;
#X obj 144 253 s \$0.outlet.1;
#X obj 12 127 s \$0.s;
#X obj 12 145 r \$0.r;
#X obj 12 30 route delete;
#X obj 12 50 route float;
#X obj 75 90 print netpd_text;
#X msg 75 70 wrong arguments to method 'delete';
#X msg 12 109 delete \$1;
#X obj 12 165 route delete;
#X obj 12 186 text delete \$1-\$2;
#X obj 307 252 s \$0.outlet.2;
#X connect 0 0 5 0;
#X connect 4 0 10 0;
#X connect 5 0 6 0;
#X connect 6 0 9 0;
#X connect 6 1 8 0;
#X connect 8 0 7 0;
#X connect 9 0 3 0;
#X connect 10 0 11 0;
#X restore 15 125 pd delete;
#N canvas 142 125 447 237 size 0;
#X obj 14 31 r \$0.inlet.0;
#X obj 14 194 s \$0.outlet.0;
#X obj 346 200 s \$0.outlet.1;
#X obj 14 51 route size;
#X obj 14 71 route float bang;
#X obj 60 104 b;
#X obj 14 137 text size \$1-\$2;
#X connect 0 0 3 0;
#X connect 3 0 4 0;
#X connect 4 0 6 0;
#X connect 4 1 5 0;
#X connect 5 0 6 0;
#X connect 6 0 1 0;
#X restore 15 145 pd size;
#N canvas 142 125 450 300 tolist 0;
#X obj 14 31 r \$0.inlet.0;
#X obj 14 251 s \$0.outlet.0;
#X obj 146 254 s \$0.outlet.1;
#X obj 14 51 route tolist;
#X obj 14 93 text tolist \$1-\$2;
#X obj 14 71 b;
#X obj 314 257 s \$0.outlet.2;
#X connect 0 0 3 0;
#X connect 3 0 5 0;
#X connect 4 0 1 0;
#X connect 5 0 4 0;
#X restore 15 165 pd tolist;
#N canvas 142 125 450 300 fromlist 0;
#X obj 14 31 r \$0.inlet.0;
#X obj 11 252 s \$0.outlet.0;
#X obj 158 253 s \$0.outlet.1;
#X obj 14 92 s \$0.s;
#X obj 15 112 r \$0.r;
#X obj 14 52 route fromlist;
#X obj 14 72 list prepend fromlist;
#X obj 15 132 route fromlist;
#X obj 15 152 list;
#X obj 15 172 text fromlist \$1-\$2;
#X obj 333 253 s \$0.outlet.2;
#X connect 0 0 5 0;
#X connect 4 0 7 0;
#X connect 5 0 6 0;
#X connect 6 0 3 0;
#X connect 7 0 8 0;
#X connect 8 0 9 0;
#X restore 15 185 pd fromlist;
#X obj 182 384 outlet;
#X obj 182 359 r \$0.outlet.1;
#X obj 344 360 r \$0.outlet.2;
#X obj 335 258 s \$0.outlet.2;
#N canvas 0 139 321 182 state.sync 0;
#X obj 19 46 text tolist \$1-\$2;
#X obj 19 66 list prepend fromlist;
#X obj 19 86 s \$0.s;
#X obj 19 24 netpd-dump \$1;
#X connect 0 0 1 0;
#X connect 1 0 2 0;
#X connect 3 0 0 0;
#X restore 142 26 pd state.sync;
#N canvas 142 125 487 309 append 0;
#X obj 11 10 r \$0.inlet.0;
#X obj 11 252 s \$0.outlet.0;
#X obj 11 69 s \$0.s;
#X obj 11 88 r \$0.r;
#X obj 11 215 text set \$1-\$2;
#X obj 348 255 s \$0.outlet.2;
#X obj 188 255 s \$0.outlet.1;
#X obj 11 30 route append;
#X obj 11 108 route append;
#X obj 38 158 loadbang;
#X msg 38 178 8e+06;
#X msg 65 197 -1;
#X obj 11 134 list;
#X obj 11 50 list prepend append;
#X connect 0 0 7 0;
#X connect 3 0 8 0;
#X connect 7 0 13 0;
#X connect 8 0 12 0;
#X connect 9 0 10 0;
#X connect 9 0 11 0;
#X connect 10 0 4 1;
#X connect 11 0 4 2;
#X connect 12 0 4 0;
#X connect 13 0 2 0;
#X restore 15 205 pd append;
#X obj 335 143 r \$1.NETPD;
#X obj 335 166 route receive;
#N canvas 142 125 487 309 insert 0;
#X obj 11 10 r \$0.inlet.0;
#X obj 11 252 s \$0.outlet.0;
#X obj 11 69 s \$0.s;
#X obj 11 88 r \$0.r;
#X obj 11 128 t a a a;
#X msg 30 149 \$1;
#X obj 348 255 s \$0.outlet.2;
#X obj 188 255 s \$0.outlet.1;
#X obj 11 30 route insert;
#X obj 11 50 list prepend insert;
#X obj 11 108 route insert;
#X obj 11 197 text insert \$1-\$2;
#X obj 11 172 list split 1;
#X connect 0 0 8 0;
#X connect 3 0 10 0;
#X connect 4 0 12 0;
#X connect 4 1 5 0;
#X connect 5 0 11 1;
#X connect 8 0 9 0;
#X connect 9 0 2 0;
#X connect 10 0 4 0;
#X connect 12 1 11 0;
#X restore 15 105 pd insert;
#X obj 335 213 t a a;
#N canvas 142 125 450 300 clear 0;
#X obj 12 10 r \$0.inlet.0;
#X obj 11 252 s \$0.outlet.0;
#X obj 144 253 s \$0.outlet.1;
#X obj 12 93 s \$0.s;
#X obj 307 252 s \$0.outlet.2;
#X obj 12 30 route clear;
#X obj 12 50 b;
#X msg 12 71 delete -1;
#X connect 0 0 5 0;
#X connect 5 0 6 0;
#X connect 6 0 7 0;
#X connect 7 0 3 0;
#X restore 15 225 pd clear;
#X obj 172 150 s \$0.updated;
#X obj 144 80 r \$0.t;
#N canvas 142 125 450 300 read 0;
#X obj 12 10 r \$0.inlet.0;
#X obj 11 252 s \$0.outlet.0;
#X obj 144 253 s \$0.outlet.1;
#X obj 307 252 s \$0.outlet.2;
#X obj 213 46 text define \$0.local;
#X obj 213 19 r \$0.to.local;
#X obj 12 30 route read;
#X obj 43 103 list prepend read;
#X obj 43 126 list trim;
#X obj 43 149 s \$0.to.local;
#X obj 12 55 t b a b, f 11;
#X msg 75 79 clear;
#X obj 12 176 text tolist \$0.local;
#X obj 12 221 s \$0.s;
#X obj 12 201 list prepend fromlist;
#X connect 0 0 6 0;
#X connect 5 0 4 0;
#X connect 6 0 10 0;
#X connect 7 0 8 0;
#X connect 8 0 9 0;
#X connect 10 0 12 0;
#X connect 10 1 7 0;
#X connect 10 2 11 0;
#X connect 11 0 9 0;
#X connect 12 0 14 0;
#X connect 14 0 13 0;
#X restore 15 245 pd read;
#N canvas 142 125 450 300 write 0;
#X obj 12 10 r \$0.inlet.0;
#X obj 11 252 s \$0.outlet.0;
#X obj 144 253 s \$0.outlet.1;
#X obj 307 252 s \$0.outlet.2;
#X obj 12 30 route write;
#X obj 12 53 list prepend write;
#X obj 12 76 list trim;
#X obj 12 99 s \$0.t;
#X connect 0 0 4 0;
#X connect 4 0 5 0;
#X connect 5 0 6 0;
#X connect 6 0 7 0;
#X restore 15 265 pd write;
#N canvas 142 125 450 300 detect.updates 0;
#X obj 11 252 s \$0.outlet.0;
#X obj 144 253 s \$0.outlet.1;
#X obj 307 252 s \$0.outlet.2;
#X obj 39 93 text tolist \$1-\$2;
#X obj 39 113 list prepend fromlist;
#X obj 39 133 s \$0.s;
#X obj 39 23 r \$0.updated;
#X obj 39 46 route updated;
#X obj 39 69 b;
#X connect 3 0 4 0;
#X connect 4 0 5 0;
#X connect 6 0 7 0;
#X connect 7 0 8 0;
#X connect 8 0 3 0;
#X restore 15 285 pd detect.updates;
#N canvas 142 125 487 309 sort 0;
#X obj 11 10 r \$0.inlet.0;
#X obj 11 252 s \$0.outlet.0;
#X obj 11 74 s \$0.s;
#X obj 11 98 r \$0.r;
#X obj 348 255 s \$0.outlet.2;
#X obj 188 255 s \$0.outlet.1;
#X obj 11 30 route sort;
#X msg 11 53 sort;
#X obj 11 118 route sort;
#X msg 11 141 sort;
#X obj 11 166 s \$0.t;
#X connect 0 0 6 0;
#X connect 3 0 8 0;
#X connect 6 0 7 0;
#X connect 7 0 2 0;
#X connect 8 0 9 0;
#X connect 9 0 10 0;
#X restore 15 305 pd sort;
#N canvas 142 125 487 309 click/close 0;
#X obj 11 10 r \$0.inlet.0;
#X obj 11 252 s \$0.outlet.0;
#X obj 348 255 s \$0.outlet.2;
#X obj 188 255 s \$0.outlet.1;
#X obj 11 97 s \$0.t;
#X obj 11 36 route click close, f 28;
#X msg 11 68 click;
#X msg 93 68 close;
#X connect 0 0 5 0;
#X connect 5 0 6 0;
#X connect 5 1 7 0;
#X connect 6 0 4 0;
#X connect 7 0 4 0;
#X restore 15 325 pd click/close;
#X connect 0 0 4 0;
#X connect 3 1 29 0;
#X connect 5 0 1 0;
#X connect 8 0 27 0;
#X connect 9 0 10 0;
#X connect 10 0 7 0;
#X connect 11 0 9 0;
#X connect 19 0 18 0;
#X connect 20 0 2 0;
#X connect 24 0 25 0;
#X connect 25 0 8 0;
#X connect 27 0 21 0;
#X connect 27 1 12 0;
#X connect 30 0 3 0;
