#N canvas 399 44 503 456 10;
#X msg 43 219 drop \$1;
#X floatatom 43 200 5 0 0 0 - - -;
#X floatatom 79 290 5 0 0 0 - - -;
#X msg 79 309 get \$1;
#X msg 126 309 getall;
#X msg 153 241 dropall;
#X obj 31 366 netpd-hash;
#X obj 31 398 print netpd-hash;
#X msg 173 309 getlength;
#X obj 0 0 cnv 15 500 30 empty empty empty 20 12 0 14 -233017 -66577
0;
#X text 7 7 netpd-hash - associate symbols with numbers;
#X msg 239 309 getbypos \$1;
#X floatatom 239 288 5 0 0 0 - - -;
#X floatatom 316 288 5 0 0 0 - - -;
#X msg 316 309 getrange \$1 3;
#X msg 31 156 append \$1 \$2;
#X floatatom 31 117 5 0 0 0 - - -;
#X symbolatom 76 117 10 0 0 0 - - -;
#X msg 121 156 append 1 eins;
#X text 28 97 add:;
#X text 41 180 delete:;
#X text 78 271 retrieve:;
#X text 30 43 [netpd-hash] store symbols identified by a unique number.
Symbols/number pairs can be added \, removed and information about
the current data can be retrieved.;
#X text 215 92 supported methods:;
#X text 216 114 append <id> <symbol>: append a pair;
#X text 216 156 dropall: delete all pairs;
#X text 216 170 get <id>: get the symbol with id <id>;
#X text 216 184 getall: retrieve all pairs;
#X text 216 198 getlength: get the number of pairs;
#X text 216 212 getbypos <pos>: get pair at position <pos>;
#X text 216 225 getrange <pos> <num_of_elements>: retreive;
#X text 336 237 pairs from given range;
#X text 215 99 ------------------;
#X text 216 128 drop <id>: delete pair with id <id>;
#X text 272 352 inlet0: commands;
#X text 266 370 outlet0: data output;
#X msg 96 219 dropbypos \$1;
#X floatatom 96 200 5 0 0 0 - - -;
#X text 216 142 dropbypos <pos>: delete pair by pos;
#X obj 31 135 pack f s;
#X msg 407 309 find \$1;
#X symbolatom 407 287 10 0 0 0 - - -;
#X text 216 249 find <symbol>: find <id> with given symbol;
#X connect 0 0 6 0;
#X connect 1 0 0 0;
#X connect 2 0 3 0;
#X connect 3 0 6 0;
#X connect 4 0 6 0;
#X connect 5 0 6 0;
#X connect 6 0 7 0;
#X connect 8 0 6 0;
#X connect 11 0 6 0;
#X connect 12 0 11 0;
#X connect 13 0 14 0;
#X connect 14 0 6 0;
#X connect 15 0 6 0;
#X connect 16 0 39 0;
#X connect 17 0 39 1;
#X connect 18 0 6 0;
#X connect 36 0 6 0;
#X connect 37 0 36 0;
#X connect 39 0 15 0;
#X connect 40 0 6 0;
#X connect 41 0 40 0;
