#N canvas 682 121 380 369 10;
#X obj 19 17 inlet;
#X obj 19 324 outlet;
#X obj 68 288 pdcontrol;
#X obj 19 116 t a a;
#X obj 19 64 route symbol;
#X msg 88 88 received message is not a symbol;
#X obj 19 40 list;
#X obj 88 110 netpd-error netpd-resolve;
#X obj 19 171 list append;
#X obj 19 194 route 1 0, f 17;
#X obj 19 242 symbol;
#X obj 137 161 loadbang;
#X obj 137 184 f \$1;
#X obj 137 207 + 1;
#X obj 68 236 list prepend;
#X msg 68 265 dir \$1 \$2;
#X obj 19 146 netpd-if-absolute;
#X connect 0 0 6 0;
#X connect 2 0 1 0;
#X connect 3 0 16 0;
#X connect 3 1 8 1;
#X connect 4 0 3 0;
#X connect 4 1 5 0;
#X connect 5 0 7 0;
#X connect 6 0 4 0;
#X connect 8 0 9 0;
#X connect 9 0 10 0;
#X connect 9 1 14 0;
#X connect 10 0 1 0;
#X connect 11 0 12 0;
#X connect 12 0 13 0;
#X connect 13 0 14 1;
#X connect 14 0 15 0;
#X connect 15 0 2 0;
#X connect 16 0 8 0;
