#N canvas 666 165 324 228 10;
#X obj 19 17 inlet;
#X obj 19 64 route symbol;
#X msg 88 88 received message is not a symbol;
#X obj 19 180 outlet;
#X obj 19 40 list;
#X obj 88 110 netpd-error netpd-is-absolute;
#X obj 19 150 file isabsolute;
#X connect 0 0 4 0;
#X connect 1 0 6 0;
#X connect 1 1 2 0;
#X connect 2 0 5 0;
#X connect 4 0 1 0;
#X connect 6 0 3 0;
