#N canvas 388 108 503 661 10;
#X declare -stdpath extra/iemnet -stdpath extra/net;
#X declare -stdpath extra/mrpeach;
#X obj 130 363 unpackOSC;
#X obj 130 176 packOSC;
#X obj 130 222 list prepend send;
#X obj 130 245 list trim;
#X obj 254 180 inlet;
#X obj 254 202 route connect disconnect;
#X obj 254 224 list;
#X msg 254 244 connect \$1 \$2;
#X msg 324 267 disconnect;
#X obj 217 574 outlet status;
#X msg 277 542 connection \$1;
#X obj 130 437 routeOSC /*;
#X obj 130 407 t a a;
#X obj 6 488 t a;
#X obj 6 433 t a b;
#X obj 157 468 netpd-sender-get;
#X msg 33 454 symbol l;
#X obj 73 632 s NETPD;
#X obj 6 573 list prepend from;
#X obj 73 604 list trim;
#X msg 33 518 sender \$1;
#X obj 6 13 r NETPD;
#X obj 6 36 list trim;
#X obj 6 59 route to;
#X obj 130 198 slipenc 65536;
#X obj 130 341 slipdec 65536;
#X obj 130 297 netpd-tcpclient;
#X obj 74 10 declare -stdpath extra/mrpeach;
#X text 75 26 we assume \, that there is no separate package for slip
yet;
#N canvas 377 44 639 444 check_protocol_version 0;
#X obj 10 10 inlet;
#X obj 10 281 outlet;
#X obj 10 260 spigot;
#X obj 10 32 t a a;
#X obj 412 10 inlet;
#X msg 142 77 to /s/server/protocol_version;
#X obj 142 99 s NETPD;
#X obj 115 56 t b b;
#X obj 37 106 spigot;
#X msg 115 78 1;
#X obj 37 174 route;
#X obj 37 196 route;
#X msg 37 239 1;
#X msg 89 153 0;
#X obj 37 218 t b b;
#X obj 64 382 s NETPD;
#X msg 64 359 to /s/server/num_of_clients;
#X obj 126 151 r \$0.protocol_version;
#X obj 126 173 unpack;
#X obj 37 130 routeOSC /s/server/protocol_version;
#X obj 37 152 t a a b;
#X obj 174 208 list append;
#X obj 111 229 list append;
#X obj 111 209 b;
#X obj 111 338 netpd-error netpd-client;
#X msg 111 317 protocol version mismatch \, server: \$1 \$2 \, client:
\$3 \$4;
#X obj 354 9 inlet;
#X obj 402 175 list split 1;
#X obj 402 152 list append;
#X obj 354 167 sel 0;
#X obj 402 129 t b a;
#X obj 436 198 route bang;
#X msg 402 106 99 104 46 110 117 109 98 101 114;
#X obj 354 65 spigot;
#X msg 310 293 wrong protocol \, can't talk to ancient netpd-server
;
#X obj 273 200 delay 5000;
#X msg 281 180 stop;
#X msg 273 272 unknown protocol (server does not speak netpd);
#X obj 364 220 routeOSC /s/server/num_of_clients;
#X msg 364 241 1;
#X obj 273 230 f 0;
#X obj 273 252 sel 0 1;
#X msg 292 343 protocol version in use was not confirmed by server
\, talking to it anyway;
#X obj 137 255 f;
#X msg 95 283 /s/server/num_of_clients \$1;
#X obj 115 34 sel 1 0;
#X msg 287 147 0;
#X obj 253 411 outlet;
#X msg 254 382 0;
#X msg 201 383 1;
#X connect 0 0 3 0;
#X connect 2 0 1 0;
#X connect 3 0 2 0;
#X connect 3 1 8 0;
#X connect 4 0 45 0;
#X connect 5 0 6 0;
#X connect 7 0 9 0;
#X connect 7 0 32 0;
#X connect 7 0 35 0;
#X connect 7 1 5 0;
#X connect 8 0 19 0;
#X connect 8 0 38 0;
#X connect 9 0 8 1;
#X connect 9 0 33 1;
#X connect 10 0 11 0;
#X connect 10 1 23 0;
#X connect 11 0 14 0;
#X connect 11 1 23 0;
#X connect 12 0 2 1;
#X connect 13 0 8 1;
#X connect 13 0 33 1;
#X connect 14 0 12 0;
#X connect 14 1 16 0;
#X connect 14 1 49 0;
#X connect 16 0 15 0;
#X connect 17 0 21 1;
#X connect 17 0 18 0;
#X connect 18 0 10 1;
#X connect 18 1 11 1;
#X connect 19 0 20 0;
#X connect 20 0 10 0;
#X connect 20 1 21 0;
#X connect 20 2 13 0;
#X connect 20 2 36 0;
#X connect 21 0 22 1;
#X connect 22 0 25 0;
#X connect 23 0 22 0;
#X connect 25 0 24 0;
#X connect 26 0 33 0;
#X connect 27 0 29 1;
#X connect 27 1 28 1;
#X connect 27 1 31 0;
#X connect 28 0 27 0;
#X connect 29 0 28 0;
#X connect 30 0 28 0;
#X connect 30 1 28 1;
#X connect 31 0 34 0;
#X connect 31 0 36 0;
#X connect 32 0 30 0;
#X connect 33 0 29 0;
#X connect 34 0 24 0;
#X connect 35 0 40 0;
#X connect 36 0 35 0;
#X connect 37 0 24 0;
#X connect 38 0 39 0;
#X connect 38 0 43 1;
#X connect 39 0 40 1;
#X connect 40 0 41 0;
#X connect 41 0 37 0;
#X connect 41 1 42 0;
#X connect 41 1 43 0;
#X connect 41 1 12 0;
#X connect 41 1 49 0;
#X connect 42 0 24 0;
#X connect 43 0 44 0;
#X connect 44 0 1 0;
#X connect 45 0 7 0;
#X connect 45 1 46 0;
#X connect 45 1 48 0;
#X connect 46 0 40 1;
#X connect 48 0 47 0;
#X connect 49 0 47 0;
#X restore 130 385 pd check_protocol_version;
#X text 120 86 <- don't transmit local OSC messages;
#X obj 324 429 loadbang;
#X obj 324 451 \$0;
#X msg 324 473 \; \$1.protocol_version 2 0;
#X obj 130 319 t a a;
#X obj 105 108 list prepend 0;
#X obj 105 130 route 0 1;
#X obj 105 153 routeOSC /*;
#X msg 132 491 0;
#X obj 188 318 t a a;
#X obj 105 461 t a b;
#X obj 39 410 t a b;
#X msg 66 431 symbol g;
#X obj 6 86 routeOSC /l /g /p;
#X obj 72 269 list prepend preset;
#X connect 0 0 29 0;
#X connect 1 0 24 0;
#X connect 2 0 3 0;
#X connect 3 0 26 0;
#X connect 4 0 5 0;
#X connect 5 0 6 0;
#X connect 5 1 8 0;
#X connect 6 0 7 0;
#X connect 7 0 26 0;
#X connect 8 0 26 0;
#X connect 10 0 9 0;
#X connect 11 0 13 0;
#X connect 12 0 11 0;
#X connect 12 1 15 0;
#X connect 13 0 18 0;
#X connect 14 0 13 0;
#X connect 14 1 16 0;
#X connect 15 0 20 0;
#X connect 16 0 20 0;
#X connect 18 0 19 0;
#X connect 19 0 17 0;
#X connect 20 0 17 0;
#X connect 21 0 22 0;
#X connect 22 0 23 0;
#X connect 23 0 43 0;
#X connect 24 0 2 0;
#X connect 25 0 0 0;
#X connect 26 0 34 0;
#X connect 26 2 39 0;
#X connect 26 3 9 0;
#X connect 29 0 12 0;
#X connect 29 1 10 0;
#X connect 31 0 32 0;
#X connect 32 0 33 0;
#X connect 34 0 25 0;
#X connect 34 1 29 1;
#X connect 35 0 36 0;
#X connect 36 0 37 0;
#X connect 36 1 1 0;
#X connect 37 0 40 0;
#X connect 38 0 20 0;
#X connect 39 0 29 2;
#X connect 39 1 35 1;
#X connect 40 0 13 0;
#X connect 40 1 38 0;
#X connect 41 0 13 0;
#X connect 41 1 42 0;
#X connect 42 0 20 0;
#X connect 43 0 14 0;
#X connect 43 1 41 0;
#X connect 43 2 44 0;
#X connect 43 3 35 0;
#X connect 44 0 19 0;
