#N canvas 239 75 498 516 10;
#X obj 158 306 t b b b;
#X obj 86 234 moses 1;
#X obj 177 347 outlet;
#X obj 86 151 t a a;
#X obj 86 22 inlet;
#X obj 86 276 outlet;
#X obj 80 380 realtime;
#X obj 86 130 +;
#X msg 15 318 -1;
#X text 194 445 (add 20% spare time);
#X text 142 279 <--- bang when done;
#X obj 211 20 inlet;
#X msg 211 59 0;
#X text 267 21 stop;
#X obj 86 44 route bang float;
#X msg 86 76 1e+08;
#N canvas 591 237 442 392 global.lock 0;
#X obj 15 14 inlet;
#X obj 15 320 outlet;
#X obj 15 140 netpd-mutex NB_UNTIL;
#X obj 15 106 change -1;
#X obj 15 166 t a a;
#X obj 15 190 sel 1;
#X obj 15 223 f;
#X obj 79 227 spigot 0;
#X obj 15 71 > 0;
#X obj 15 39 t a a;
#X connect 0 0 9 0;
#X connect 2 0 4 0;
#X connect 3 0 2 0;
#X connect 4 0 5 0;
#X connect 4 1 7 1;
#X connect 5 0 6 0;
#X connect 6 0 1 0;
#X connect 7 0 1 0;
#X connect 8 0 3 0;
#X connect 9 0 8 0;
#X connect 9 1 7 0;
#X connect 9 1 6 1;
#X restore 86 183 pd global.lock;
#N canvas 0 70 258 259 grouped_delay 0;
#X obj 16 75 +;
#X obj 16 115 t b a;
#X obj 61 119 t a b;
#X msg 120 94 0;
#X obj 16 95 moses 20;
#X obj 61 145 delay;
#X obj 16 25 inlet;
#X obj 120 23 inlet;
#X text 140 46 reset;
#X obj 16 188 outlet;
#X connect 0 0 4 0;
#X connect 1 0 9 0;
#X connect 1 1 0 1;
#X connect 2 0 5 0;
#X connect 2 1 3 0;
#X connect 3 0 0 1;
#X connect 4 0 1 0;
#X connect 4 1 2 0;
#X connect 5 0 9 0;
#X connect 6 0 0 0;
#X connect 7 0 3 0;
#X restore 80 443 pd grouped_delay;
#X text 359 488 2016 \, Roman Haefeli;
#X obj 86 256 t b b;
#X connect 0 0 6 1;
#X connect 0 1 2 0;
#X connect 0 2 6 0;
#X connect 1 0 19 0;
#X connect 1 1 0 0;
#X connect 3 0 16 0;
#X connect 3 1 7 1;
#X connect 4 0 14 0;
#X connect 6 0 17 0;
#X connect 7 0 3 0;
#X connect 8 0 7 0;
#X connect 11 0 12 0;
#X connect 12 0 7 1;
#X connect 14 0 15 0;
#X connect 14 1 7 0;
#X connect 15 0 7 0;
#X connect 16 0 1 0;
#X connect 17 0 8 0;
#X connect 19 0 5 0;
#X connect 19 1 17 1;
