#N canvas 0 43 313 501 10;
#X obj 52 195 /~ 256;
#X obj 150 275 *~ 256;
#X obj 134 302 -~;
#X obj 134 330 outlet~;
#X obj 51 460 outlet~;
#X obj 134 10 inlet~;
#X obj 134 36 *~ 32768;
#X obj 68 301 /~ 256;
#X obj 52 428 -~;
#X obj 67 390 *~ 256;
#N canvas 0 43 450 300 int~ 0;
#X obj 178 105 pow 23;
#X obj 178 66 loadbang;
#X msg 178 86 2;
#X obj 92 113 +~;
#X obj 92 134 -~;
#X obj 92 63 inlet~;
#X obj 92 153 outlet~;
#X obj 178 125 + 65536;
#X obj 92 84 -~ 0.5;
#X connect 0 0 7 0;
#X connect 1 0 2 0;
#X connect 2 0 0 0;
#X connect 3 0 4 0;
#X connect 4 0 6 0;
#X connect 5 0 8 0;
#X connect 7 0 3 1;
#X connect 7 0 4 1;
#X connect 8 0 3 0;
#X restore 135 80 pd int~;
#N canvas 0 43 450 300 int~ 0;
#X obj 178 105 pow 23;
#X obj 178 66 loadbang;
#X msg 178 86 2;
#X obj 91 110 +~;
#X obj 91 131 -~;
#X obj 92 63 inlet~;
#X obj 91 150 outlet~;
#X obj 178 125 + 65536;
#X obj 91 84 -~ 0.5;
#X connect 0 0 7 0;
#X connect 1 0 2 0;
#X connect 2 0 0 0;
#X connect 3 0 4 0;
#X connect 4 0 6 0;
#X connect 5 0 8 0;
#X connect 7 0 3 1;
#X connect 7 0 4 1;
#X connect 8 0 3 0;
#X restore 52 218 pd int~;
#N canvas 0 43 450 300 int~ 0;
#X obj 178 105 pow 23;
#X obj 178 66 loadbang;
#X msg 178 86 2;
#X obj 91 116 +~;
#X obj 91 137 -~;
#X obj 92 63 inlet~;
#X obj 91 156 outlet~;
#X obj 178 125 + 65536;
#X obj 91 84 -~ 0.5;
#X connect 0 0 7 0;
#X connect 1 0 2 0;
#X connect 2 0 0 0;
#X connect 3 0 4 0;
#X connect 4 0 6 0;
#X connect 5 0 8 0;
#X connect 7 0 3 1;
#X connect 7 0 4 1;
#X connect 8 0 3 0;
#X restore 67 330 pd int~;
#X connect 0 0 11 0;
#X connect 1 0 2 1;
#X connect 2 0 3 0;
#X connect 5 0 6 0;
#X connect 6 0 10 0;
#X connect 7 0 12 0;
#X connect 8 0 4 0;
#X connect 9 0 8 1;
#X connect 10 0 2 0;
#X connect 10 0 0 0;
#X connect 11 0 7 0;
#X connect 11 0 1 0;
#X connect 11 0 8 0;
#X connect 12 0 9 0;
