#N canvas 577 77 450 300 10;
#X obj 22 18 inlet~;
#X obj 227 18 inlet~;
#X obj 22 218 outlet~;
#X obj 22 107 +~;
#X obj 22 142 /~ 32768;
#N canvas 301 278 348 267 generate_msb 0;
#X obj 19 17 inlet;
#X obj 36 65 switch~ 256 1 1;
#X obj 53 115 samplerate~;
#X obj 53 135 / 256;
#X obj 53 155 phasor~;
#X msg 92 133 0.5;
#X obj 19 37 t b b b b;
#X obj 53 175 *~ 65536;
#X obj 53 198 tabsend~ \$0.msb;
#X connect 0 0 6 0;
#X connect 2 0 3 0;
#X connect 3 0 4 0;
#X connect 4 0 7 0;
#X connect 5 0 4 1;
#X connect 6 1 1 0;
#X connect 6 2 2 0;
#X connect 6 3 5 0;
#X connect 7 0 8 0;
#X restore 279 183 pd generate_msb;
#X obj 279 252 table \$0.msb 256;
#X obj 22 52 tabread~ \$0.msb;
#X obj 22 162 -~ 1;
#X obj 279 84 sel 1;
#X obj 279 135 spigot 1;
#X obj 279 155 t a b;
#X msg 340 146 0;
#X obj 279 64 netpd-status-get dsp 1;
#X obj 279 107 del 0;
#X connect 0 0 7 0;
#X connect 1 0 3 1;
#X connect 3 0 4 0;
#X connect 4 0 8 0;
#X connect 7 0 3 0;
#X connect 8 0 2 0;
#X connect 9 0 14 0;
#X connect 10 0 11 0;
#X connect 11 0 5 0;
#X connect 11 1 12 0;
#X connect 12 0 10 1;
#X connect 13 0 9 0;
#X connect 14 0 10 0;
