#N canvas 377 44 405 592 10;
#X obj 21 115 textfile;
#X obj 21 84 until;
#X msg 70 84 clear \, read \$1 \, rewind;
#X obj 21 60 t b a;
#X obj 21 11 inlet;
#X obj 21 38 list;
#X obj 133 253 route #N;
#X obj 133 275 route canvas;
#X msg 133 297 \$5;
#X obj 133 319 route abslist;
#X obj 283 137 outlet finished;
#X obj 21 159 s \$0.out0;
#X obj 66 137 s \$0.finished;
#X obj 70 57 r \$0.finished;
#X obj 283 114 r \$0.finished;
#X obj 133 224 r \$0.out0;
#X obj 88 413 spigot 0;
#X msg 133 341 1;
#X obj 88 194 r \$0.out0;
#X obj 222 228 r \$0.out0;
#X obj 222 250 route #X;
#X obj 222 272 route restore;
#X obj 222 315 list trim;
#X obj 222 337 route pd;
#X obj 222 359 route abslist;
#X obj 222 293 list split 2;
#X msg 222 381 0;
#X obj 88 435 route #X;
#X obj 88 457 route msg;
#X obj 31 540 outlet;
#X obj 31 502 netpd-fifo;
#X obj 31 388 r \$0.finished;
#X obj 31 471 until;
#X msg 88 479 \$3;
#X connect 0 0 11 0;
#X connect 0 1 12 0;
#X connect 1 0 0 0;
#X connect 2 0 0 0;
#X connect 3 0 1 0;
#X connect 3 1 2 0;
#X connect 4 0 5 0;
#X connect 5 0 3 0;
#X connect 6 0 7 0;
#X connect 7 0 8 0;
#X connect 8 0 9 0;
#X connect 9 0 17 0;
#X connect 13 0 1 1;
#X connect 14 0 10 0;
#X connect 15 0 6 0;
#X connect 16 0 27 0;
#X connect 17 0 16 1;
#X connect 18 0 16 0;
#X connect 19 0 20 0;
#X connect 20 0 21 0;
#X connect 21 0 25 0;
#X connect 22 0 23 0;
#X connect 23 0 24 0;
#X connect 24 0 26 0;
#X connect 25 1 22 0;
#X connect 26 0 16 1;
#X connect 27 0 28 0;
#X connect 28 0 33 0;
#X connect 30 0 29 0;
#X connect 30 1 32 1;
#X connect 31 0 32 0;
#X connect 32 0 30 0;
#X connect 33 0 30 1;
