#N canvas 597 84 301 453 10;
#X obj 12 19 inlet;
#X obj 12 70 list split 1;
#X obj 12 98 list prepend \$1;
#X obj 194 23 loadbang;
#X obj 194 46 list append \$1;
#X obj 194 90 b;
#X msg 12 121 list \$1\$2;
#X obj 107 148 list prepend \$1;
#X obj 174 332 inlet;
#X obj 194 68 route 0;
#X msg 99 73 symbol;
#X obj 12 408 s NETPD;
#N canvas 947 161 258 295 set 0;
#X obj 156 83 loadbang;
#X obj 156 127 route 0;
#X obj 156 105 list append \$2;
#X msg 156 149 b;
#X obj 116 184 list;
#X msg 116 206 receiver \$1;
#X obj 19 8 inlet;
#X obj 137 53 inlet;
#X obj 19 253 outlet;
#X obj 19 82 t a b;
#X obj 19 55 list trim;
#X connect 0 0 2 0;
#X connect 1 0 3 0;
#X connect 1 1 4 1;
#X connect 2 0 1 0;
#X connect 3 0 4 1;
#X connect 4 0 5 0;
#X connect 5 0 8 0;
#X connect 6 0 10 0;
#X connect 7 0 4 1;
#X connect 9 0 8 0;
#X connect 9 1 4 0;
#X connect 10 0 9 0;
#X restore 12 380 pd set receiver;
#X obj 12 146 list append;
#X obj 12 44 route OSC send typed;
#X obj 90 206 sel 0 1;
#X msg 90 233 send;
#X msg 123 233 sendtyped;
#X obj 12 287 list prepend;
#X obj 12 309 list prepend to;
#X obj 12 331 list trim;
#X connect 0 0 14 0;
#X connect 1 0 2 0;
#X connect 1 1 13 1;
#X connect 2 0 6 0;
#X connect 3 0 4 0;
#X connect 4 0 9 0;
#X connect 5 0 7 1;
#X connect 5 0 10 0;
#X connect 6 0 13 0;
#X connect 7 0 18 0;
#X connect 8 0 12 1;
#X connect 9 0 5 0;
#X connect 10 0 2 1;
#X connect 12 0 11 0;
#X connect 13 0 18 0;
#X connect 14 0 1 0;
#X connect 14 1 7 0;
#X connect 14 2 15 0;
#X connect 14 3 7 0;
#X connect 15 0 16 0;
#X connect 15 1 17 0;
#X connect 16 0 18 1;
#X connect 17 0 18 1;
#X connect 18 0 19 0;
#X connect 19 0 20 0;
#X connect 20 0 12 0;
