#N canvas 511 421 544 360 10;
#X obj 19 6 r NETPD;
#X obj 19 27 route pref;
#X obj 19 213 list trim;
#X obj 19 234 s NETPD;
#X obj 19 70 route \$1;
#X obj 19 92 t b b;
#X obj 19 167 list append;
#X obj 19 190 list prepend pref \$1;
#X obj 19 48 route get;
#X obj 46 127 list append \$2;
#X connect 0 0 1 0;
#X connect 1 0 8 0;
#X connect 2 0 3 0;
#X connect 4 0 5 0;
#X connect 5 0 6 0;
#X connect 5 1 9 0;
#X connect 6 0 7 0;
#X connect 7 0 2 0;
#X connect 8 0 4 0;
#X connect 9 0 6 1;
