#N canvas 383 94 719 487 10;
#X obj 13 17 inlet;
#X obj 19 435 outlet;
#X obj 551 23 inlet~;
#X obj 529 442 table \$1-\$2-table 2.646e+06;
#X text 534 460 max. size: 1 min @ 44.1kHz;
#X obj 13 43 s \$0.inlet;
#X obj 19 406 r \$0.outlet;
#N canvas 603 172 380 345 fromtable 0;
#X obj 9 9 r \$0.inlet;
#X obj 9 36 route loadtable;
#X obj 9 59 list;
#X msg 52 115 set \$1;
#N canvas 439 208 319 390 split.into.1024.chunks 0;
#X obj 25 89 t a a;
#X obj 82 133 div 1024;
#X obj 25 132 mod 1024;
#X obj 82 160 until;
#X msg 82 182 1024;
#X msg 25 63 \$2;
#X msg 157 161 \$1;
#X obj 25 210 t a b a;
#X obj 44 235 f;
#X obj 74 234 +;
#X obj 44 279 +;
#X obj 25 311 pack f f;
#X msg 25 333 \$2 \$1;
#X obj 25 41 t a a b;
#X msg 148 116 0;
#X obj 25 166 sel 0;
#X obj 25 13 inlet;
#X obj 25 358 outlet;
#X connect 0 0 2 0;
#X connect 0 1 1 0;
#X connect 1 0 3 0;
#X connect 2 0 15 0;
#X connect 3 0 4 0;
#X connect 4 0 7 0;
#X connect 5 0 0 0;
#X connect 6 0 10 1;
#X connect 7 0 11 0;
#X connect 7 1 8 0;
#X connect 7 2 9 1;
#X connect 8 0 9 0;
#X connect 8 0 10 0;
#X connect 9 0 8 1;
#X connect 10 0 11 1;
#X connect 11 0 12 0;
#X connect 12 0 17 0;
#X connect 13 0 5 0;
#X connect 13 1 6 0;
#X connect 13 2 14 0;
#X connect 14 0 8 1;
#X connect 15 1 7 0;
#X connect 16 0 13 0;
#X restore 9 150 pd split.into.1024.chunks;
#X msg 9 115 \$2 \$3;
#X obj 9 82 t a a a;
#X obj 226 175 list prepend \$2;
#X msg 226 153 \$3;
#X msg 226 211 send /\$1/length \$2;
#X obj 226 234 s \$1.NETPD;
#X obj 9 192 s \$0.tabdump;
#X connect 0 0 1 0;
#X connect 1 0 2 0;
#X connect 2 0 6 0;
#X connect 3 0 11 0;
#X connect 4 0 11 0;
#X connect 5 0 4 0;
#X connect 6 0 5 0;
#X connect 6 1 3 0;
#X connect 6 2 8 0;
#X connect 7 0 9 0;
#X connect 8 0 7 0;
#X connect 9 0 10 0;
#X restore 15 84 pd fromtable;
#X obj 159 301 netpd-tabwrite16 \$1-\$2-table;
#X obj 159 275 netpd_r \$1 \$2/data;
#X obj 346 274 netpd_r \$1 \$2/length;
#X obj 162 109 netpd-tabdump16 \$1-\$2-table;
#X obj 162 200 s \$1.NETPD;
#X obj 162 178 list trim;
#X obj 162 155 list prepend sendtyped /\$2/data fb;
#X obj 162 17 r \$0.tabdump;
#X obj 162 39 route list;
#X obj 162 63 t a a;
#X obj 162 131 list prepend;
#X msg 189 86 \$1;
#N canvas 603 172 380 345 length 0;
#X obj 9 9 r \$0.inlet;
#X obj 9 36 route length;
#X obj 38 59 r \$0.length;
#X obj 9 58 b;
#X obj 9 80 f;
#X obj 9 108 s \$0.outlet;
#X connect 0 0 1 0;
#X connect 1 0 3 0;
#X connect 2 0 4 1;
#X connect 3 0 4 0;
#X connect 4 0 5 0;
#X restore 15 115 pd length;
#X obj 346 302 s \$0.length;
#N canvas 970 179 380 345 dump 0;
#X msg 52 190 set \$1;
#N canvas 439 208 319 390 split.into.1024.chunks 0;
#X obj 25 89 t a a;
#X obj 82 133 div 1024;
#X obj 25 132 mod 1024;
#X obj 82 160 until;
#X msg 82 182 1024;
#X msg 25 63 \$2;
#X msg 157 161 \$1;
#X obj 25 210 t a b a;
#X obj 44 235 f;
#X obj 74 234 +;
#X obj 44 279 +;
#X obj 25 311 pack f f;
#X msg 25 333 \$2 \$1;
#X obj 25 41 t a a b;
#X msg 148 116 0;
#X obj 25 166 sel 0;
#X obj 25 13 inlet;
#X obj 25 358 outlet;
#X connect 0 0 2 0;
#X connect 0 1 1 0;
#X connect 1 0 3 0;
#X connect 2 0 15 0;
#X connect 3 0 4 0;
#X connect 4 0 7 0;
#X connect 5 0 0 0;
#X connect 6 0 10 1;
#X connect 7 0 11 0;
#X connect 7 1 8 0;
#X connect 7 2 9 1;
#X connect 8 0 9 0;
#X connect 8 0 10 0;
#X connect 9 0 8 1;
#X connect 10 0 11 1;
#X connect 11 0 12 0;
#X connect 12 0 17 0;
#X connect 13 0 5 0;
#X connect 13 1 6 0;
#X connect 13 2 14 0;
#X connect 14 0 8 1;
#X connect 15 1 7 0;
#X connect 16 0 13 0;
#X restore 9 243 pd split.into.1024.chunks;
#X obj 179 65 list prepend \$2;
#X msg 179 89 send /\$1/length \$2;
#X obj 179 112 s \$1.NETPD;
#X obj 9 267 s \$0.tabdump;
#X obj 9 9 netpd-dump 7;
#X obj 24 36 r \$0.length;
#X obj 9 64 f;
#X msg 9 121 0 \$1;
#X obj 9 86 t a a;
#X msg 179 43 \$1;
#X obj 9 157 t a b;
#X connect 0 0 5 0;
#X connect 1 0 5 0;
#X connect 2 0 3 0;
#X connect 3 0 4 0;
#X connect 6 0 8 0;
#X connect 7 0 8 1;
#X connect 8 0 10 0;
#X connect 9 0 12 0;
#X connect 10 0 9 0;
#X connect 10 1 11 0;
#X connect 11 0 2 0;
#X connect 12 0 1 0;
#X restore 14 148 pd dump;
#X connect 0 0 5 0;
#X connect 6 0 1 0;
#X connect 9 0 8 0;
#X connect 10 0 21 0;
#X connect 11 0 18 0;
#X connect 13 0 12 0;
#X connect 14 0 13 0;
#X connect 15 0 16 0;
#X connect 16 0 17 0;
#X connect 16 1 11 0;
#X connect 17 0 11 0;
#X connect 17 1 19 0;
#X connect 18 0 14 0;
#X connect 19 0 18 1;
