#N canvas 366 44 674 591 10;
#X obj 18 8 inlet;
#X obj 453 458 s \$0.receive;
#X obj 18 90 route find ready unready;
#X obj 18 254 netpd-find-peers \$1/sync;
#X obj 453 433 netpd-r \$1/sync;
#X obj 540 457 s \$0.sender;
#X obj 453 218 r \$0.send;
#X obj 453 240 list;
#X obj 453 291 list split 1;
#X obj 453 262 t a a;
#X msg 540 283 \$1;
#X obj 453 316 list prepend OSC;
#X obj 453 336 list trim;
#X obj 453 356 netpd-s \$1/sync;
#X obj 453 14 loadbang;
#X obj 453 36 \$0;
#X msg 453 58 \; \$1.t_short 3000 \; \$1.t_long 20000 \;;
#N canvas 839 81 346 335 timeout 0;
#X obj 39 23 r \$0.timeout;
#X obj 39 70 b;
#X obj 80 70 b;
#X obj 39 132 f;
#X obj 238 73 r \$0.t_short;
#X obj 240 96 r \$0.t_long;
#X obj 80 133 f;
#X msg 121 132 stop;
#X obj 39 199 delay;
#X obj 39 45 route short long stop action;
#X obj 39 223 list append;
#X obj 39 267 list trim;
#X obj 39 289 s \$0.expired;
#X obj 162 133 list;
#X obj 39 245 t a b;
#X msg 121 171 bang;
#X connect 0 0 9 0;
#X connect 1 0 3 0;
#X connect 2 0 6 0;
#X connect 3 0 8 0;
#X connect 4 0 3 1;
#X connect 5 0 6 1;
#X connect 6 0 8 0;
#X connect 7 0 8 0;
#X connect 7 0 15 0;
#X connect 8 0 10 0;
#X connect 9 0 1 0;
#X connect 9 1 2 0;
#X connect 9 2 7 0;
#X connect 9 3 13 0;
#X connect 10 0 14 0;
#X connect 11 0 12 0;
#X connect 13 0 10 1;
#X connect 14 0 11 0;
#X connect 14 1 10 1;
#X connect 15 0 10 1;
#X restore 453 535 pd timeout;
#X obj 291 447 r \$0.expired;
#X msg 91 164 state \$1;
#X obj 91 142 list;
#X msg 65 112 ready;
#X msg 112 112 unready;
#X msg 75 206 action no_peer \, short;
#X obj 18 166 t b b;
#X obj 453 138 netpd-status-get socket 1;
#X obj 453 160 s \$0.socket;
#X text 453 195 - send -;
#X text 454 117 - socket -;
#X text 453 408 - receive -;
#X text 453 508 - programmable timeout -;
#X obj 75 228 s \$0.timeout;
#X obj 18 301 spigot;
#X msg 51 278 1;
#X msg 18 322 \$2 \$1;
#X obj 18 344 route ready wait;
#X msg 64 368 action repeat \, long;
#X obj 64 390 s \$0.timeout;
#X obj 18 448 t a b b;
#X msg 224 351 0;
#X obj 37 492 s \$0.timeout;
#X msg 37 471 stop;
#X obj 18 531 outlet;
#X obj 291 469 route no_peer;
#X obj 291 491 b;
#X obj 291 513 outlet;
#X obj 62 7 r \$0.expired;
#X obj 62 29 route repeat;
#X msg 176 112 wait;
#X msg 62 52 unready \, find;
#X connect 0 0 2 0;
#X connect 2 0 24 0;
#X connect 2 1 21 0;
#X connect 2 2 22 0;
#X connect 3 0 32 0;
#X connect 4 0 1 0;
#X connect 4 1 5 0;
#X connect 6 0 7 0;
#X connect 7 0 9 0;
#X connect 8 1 11 0;
#X connect 9 0 8 0;
#X connect 9 1 10 0;
#X connect 10 0 13 1;
#X connect 11 0 12 0;
#X connect 12 0 13 0;
#X connect 14 0 15 0;
#X connect 15 0 16 0;
#X connect 18 0 43 0;
#X connect 19 0 3 0;
#X connect 20 0 19 0;
#X connect 21 0 20 0;
#X connect 22 0 20 0;
#X connect 23 0 31 0;
#X connect 24 0 3 0;
#X connect 24 1 23 0;
#X connect 24 1 33 0;
#X connect 25 0 26 0;
#X connect 32 0 34 0;
#X connect 33 0 32 1;
#X connect 34 0 35 0;
#X connect 35 0 38 0;
#X connect 35 1 36 0;
#X connect 36 0 37 0;
#X connect 38 0 42 0;
#X connect 38 1 41 0;
#X connect 38 2 39 0;
#X connect 38 2 48 0;
#X connect 39 0 32 1;
#X connect 41 0 40 0;
#X connect 43 0 44 0;
#X connect 44 0 45 0;
#X connect 46 0 47 0;
#X connect 47 0 49 0;
#X connect 48 0 20 0;
#X connect 49 0 2 0;
