#N canvas 469 369 604 511 10;
#X obj 20 22 vsl 12 150 1 0 0 0 \$0.sensor \$0.sensor.r empty 0 -9
0 10 -204786 -4160 -1 9800 1;
#X obj 21 72 cnv 4 10 102 empty \$0.bar.r empty 20 12 0 14 -258049
-262144 0;
#X obj 378 388 namecanvas \$0.scrollbar;
#X obj 321 287 s \$0.quotient;
#X obj 361 344 hsl 128 15 0 1 0 0 empty empty empty -2 -8 0 10 -262144
-1 -1 4600 1;
#N canvas 0 53 594 432 gui.code 0;
#X msg 368 142 coords 0 -1 1 1 \$1 \$2 2 20 20;
#X obj 317 75 loadbang;
#X obj 368 164 s \$0.scrollbar;
#X obj 317 97 list append \$1 \$2;
#X obj 351 277 s \$0.sensor.r;
#X msg 351 254 size \$1 \$2;
#X obj 351 190 unpack;
#X obj 384 211 - 5;
#X obj 351 232 pack f f;
#X msg 19 324 pos 21 \$1;
#X obj 19 346 s \$0.bar.r;
#X obj 334 298 unpack;
#X obj 334 340 pack f f;
#X obj 334 319 - 2;
#X obj 379 319 - 2;
#X msg 207 176 vis_size \$1 \$2;
#X obj 207 155 pack f f;
#X obj 207 197 s \$0.bar.r;
#X obj 207 111 t b a;
#X obj 19 21 r \$0.sensor;
#X obj 19 302 + 21;
#X obj 317 168 - 6;
#X msg 317 145 \$2;
#X obj 317 119 t a a a a;
#X obj 19 65 *;
#X obj 317 211 s \$0.scale;
#X obj 34 43 r \$0.scale;
#X obj 334 362 s \$0.barsize;
#X obj 220 132 r \$0.barsize;
#X obj 208 227 r \$0.scale;
#X obj 208 249 + 4;
#X obj 180 87 t a a;
#X obj 180 278 pack f f;
#X msg 180 300 \$2 \$1;
#X obj 180 322 -;
#X obj 19 237 int;
#X obj 19 281 max 0;
#X obj 180 344 s \$0.bar.y;
#X obj 19 259 min;
#X obj 77 191 >;
#X obj 58 69 r \$0.bar.y;
#X obj 77 213 sel 1;
#X obj 77 235 f;
#X obj 77 257 /;
#X obj 104 236 r \$0.scale;
#X msg 77 279 set \$1;
#X obj 77 301 s \$0.sensor.r;
#X obj 58 91 t b a;
#X obj 19 87 f;
#X obj 19 117 t a a a;
#X obj 195 -3 r \$0.scale;
#X obj 195 19 + 4;
#X obj 180 41 *;
#X obj 180 62 int;
#X obj 180 -26 r \$0.quotient;
#X msg 388 63 12 155;
#X connect 0 0 2 0;
#X connect 1 0 3 0;
#X connect 3 0 23 0;
#X connect 5 0 4 0;
#X connect 6 0 8 0;
#X connect 6 1 7 0;
#X connect 7 0 8 1;
#X connect 8 0 5 0;
#X connect 9 0 10 0;
#X connect 11 0 13 0;
#X connect 11 1 14 0;
#X connect 12 0 27 0;
#X connect 13 0 12 0;
#X connect 14 0 12 1;
#X connect 15 0 17 0;
#X connect 16 0 15 0;
#X connect 18 0 16 0;
#X connect 18 1 16 1;
#X connect 19 0 24 0;
#X connect 20 0 9 0;
#X connect 21 0 25 0;
#X connect 22 0 21 0;
#X connect 23 0 22 0;
#X connect 23 1 11 0;
#X connect 23 2 6 0;
#X connect 23 3 0 0;
#X connect 24 0 48 0;
#X connect 26 0 24 1;
#X connect 28 0 16 0;
#X connect 29 0 30 0;
#X connect 30 0 32 1;
#X connect 31 0 32 0;
#X connect 31 1 18 0;
#X connect 32 0 33 0;
#X connect 33 0 34 0;
#X connect 34 0 37 0;
#X connect 35 0 38 0;
#X connect 36 0 20 0;
#X connect 38 0 36 0;
#X connect 39 0 41 0;
#X connect 40 0 47 0;
#X connect 41 0 42 0;
#X connect 42 0 43 0;
#X connect 43 0 45 0;
#X connect 44 0 43 1;
#X connect 45 0 46 0;
#X connect 47 0 48 0;
#X connect 47 1 39 1;
#X connect 47 1 42 1;
#X connect 47 1 38 1;
#X connect 48 0 49 0;
#X connect 49 0 35 0;
#X connect 49 2 39 0;
#X connect 50 0 51 0;
#X connect 51 0 52 1;
#X connect 52 0 53 0;
#X connect 53 0 31 0;
#X connect 54 0 52 0;
#X connect 55 0 3 0;
#X restore 130 77 pd gui.code;
#X floatatom 321 33 5 0 0 0 - - -;
#X floatatom 378 35 5 0 0 0 - - -;
#X obj 321 72 pack f f;
#X msg 321 165 \$2 \$1;
#X obj 321 187 /;
#X floatatom 338 244 5 0 0 0 - - -;
#X obj 321 209 min 1;
#X obj 382 105 r \$0.sensor;
#X obj 321 94 t a a;
#X obj 382 153 *;
#X obj 381 198 int;
#X floatatom 417 228 5 0 0 0 - - -;
#X msg 397 128 \$1;
#X floatatom 429 201 10 0 0 0 - - -;
#X obj 382 173 - 0.5;
#X connect 4 0 3 0;
#X connect 6 0 8 0;
#X connect 7 0 8 1;
#X connect 8 0 14 0;
#X connect 9 0 10 0;
#X connect 10 0 12 0;
#X connect 12 0 11 0;
#X connect 12 0 3 0;
#X connect 13 0 15 0;
#X connect 14 0 9 0;
#X connect 14 1 18 0;
#X connect 15 0 20 0;
#X connect 16 0 17 0;
#X connect 18 0 15 1;
#X connect 20 0 16 0;
#X connect 20 0 19 0;
#X coords 0 -1 1 1 12 155 2 20 20;
