#N canvas 776 111 504 422 10;
#X obj 1 0 cnv 15 500 30 empty empty empty 20 12 0 14 -233017 -66577
0;
#X text 8 7 netpd-list-compare - check if two lists are identical;
#X obj 43 193 netpd-list-compare;
#X msg 43 75 1 11 111 11 0;
#X obj 43 216 select 0 1;
#X obj 43 271 print DIFFERENT;
#X obj 144 271 print IDENTICAL;
#X text 15 334 inlet0: list;
#X text 15 354 inlet1: list;
#X msg 263 54 1 11 111 11 0;
#X msg 273 79 1 11 110 11 0;
#X msg 278 111 list one 2 three 4 5;
#X msg 285 137 list one two three 4 5;
#X msg 53 102 list one two three 4 5;
#X msg 60 128 list one 2 three 4 5;
#X msg 297 159 list one two three 4;
#X text 15 374 outlet0: 0|1;
#X connect 2 0 4 0;
#X connect 3 0 2 0;
#X connect 4 0 5 0;
#X connect 4 1 6 0;
#X connect 9 0 2 1;
#X connect 10 0 2 1;
#X connect 11 0 2 1;
#X connect 12 0 2 1;
#X connect 13 0 2 0;
#X connect 14 0 2 0;
#X connect 15 0 2 1;
