#N canvas 443 65 553 498 10;
#X obj 29 15 inlet;
#X obj 11 382 netpd-patch-download /\$1.batch;
#X obj 170 273 netpd-find-sync /\$1.batch;
#X obj 29 119 netpd-fifo;
#X obj 29 38 t b a;
#X obj 29 64 spigot 1;
#X obj 74 43 r \$0.gate;
#X obj 29 149 t a b;
#X msg 56 169 0;
#X obj 56 192 s \$0.gate;
#X msg 86 169 1;
#X obj 74 90 r \$0.next;
#X msg 170 245 find;
#X obj 332 315 bng 15 250 50 0 empty empty empty 17 7 0 10 -262144
-1 -1;
#X connect 0 0 4 0;
#X connect 2 1 13 0;
#X connect 3 0 7 0;
#X connect 3 1 10 0;
#X connect 4 0 5 0;
#X connect 4 1 3 1;
#X connect 5 0 3 0;
#X connect 6 0 5 1;
#X connect 7 1 8 0;
#X connect 8 0 9 0;
#X connect 10 0 9 0;
#X connect 11 0 3 0;
#X connect 12 0 2 0;
