#N canvas 109 133 469 442 10;
#X obj 317 292 s \$1.NETPD;
#X obj 317 315 r \$1.receive;
#X obj 317 337 routeOSC /\$2;
#X obj 317 227 list prepend /\$2;
#X obj 317 249 list prepend send;
#X obj 317 271 list trim;
#X obj 317 203 r \$0.send;
#X obj 317 359 s \$0.receive;
#X obj 280 55 table \$0.compare \$3;
#X obj 25 51 metro 100;
#X obj 25 26 loadbang;
#X obj 25 190 s \$0.send;
#X obj 24 225 r \$0.receive;
#X obj 24 271 t a a;
#X obj 135 143 s \$0.compare;
#X obj 65 143 route done;
#X obj 25 143 t a a;
#N canvas 544 128 185 403 generate.delta 0;
#X obj 59 160 tabread \$1-\$2;
#X obj 40 203 tabread \$0.compare;
#X obj 40 68 f \$3;
#X obj 40 90 until;
#X msg 96 89 0;
#X obj 40 113 f;
#X obj 74 113 + 1;
#X obj 40 228 -;
#X obj 40 250 sel 0;
#X obj 59 182 t a a;
#X obj 40 140 t a a a;
#X obj 40 294 f;
#X obj 40 273 b;
#X obj 21 25 inlet;
#X obj 41 373 outlet;
#X obj 40 316 list prepend;
#X obj 21 47 t b b b;
#X msg 21 343 done;
#X connect 0 0 9 0;
#X connect 1 0 7 0;
#X connect 2 0 3 0;
#X connect 3 0 5 0;
#X connect 4 0 5 1;
#X connect 5 0 6 0;
#X connect 5 0 10 0;
#X connect 6 0 5 1;
#X connect 7 0 8 0;
#X connect 8 1 12 0;
#X connect 9 0 7 1;
#X connect 9 1 11 1;
#X connect 10 0 1 0;
#X connect 10 1 0 0;
#X connect 10 2 15 1;
#X connect 11 0 15 0;
#X connect 12 0 11 0;
#X connect 13 0 16 0;
#X connect 15 0 14 0;
#X connect 16 0 17 0;
#X connect 16 1 2 0;
#X connect 16 2 4 0;
#X connect 17 0 14 0;
#X restore 25 98 pd generate.delta;
#N canvas 541 420 450 300 compress.delta 0;
#X obj 26 18 inlet;
#X obj 83 251 outlet;
#X obj 83 102 route 0;
#X obj 83 124 t a b;
#X obj 235 91 f;
#X obj 235 115 + 1;
#X msg 83 198 add2 \$1;
#X obj 235 140 t a;
#X msg 122 169 \$2;
#X msg 141 147 \$1;
#X obj 122 125 t a a b;
#X msg 161 187 bang \, set;
#X obj 177 36 loadbang;
#X msg 177 58 -12.3457;
#X msg 83 220;
#X obj 26 47 route done;
#X obj 26 69 t b b;
#X msg 26 177 done;
#X connect 0 0 15 0;
#X connect 2 0 3 0;
#X connect 2 1 10 0;
#X connect 3 0 6 0;
#X connect 3 1 4 0;
#X connect 4 0 5 0;
#X connect 5 0 7 0;
#X connect 6 0 14 0;
#X connect 7 0 4 1;
#X connect 7 0 2 1;
#X connect 8 0 6 0;
#X connect 9 0 6 0;
#X connect 9 0 5 0;
#X connect 10 0 8 0;
#X connect 10 1 9 0;
#X connect 10 2 11 0;
#X connect 11 0 14 0;
#X connect 12 0 13 0;
#X connect 13 0 7 0;
#X connect 14 0 1 0;
#X connect 15 0 16 0;
#X connect 15 1 2 0;
#X connect 16 0 17 0;
#X connect 16 1 11 0;
#X connect 16 1 13 0;
#X connect 17 0 1 0;
#X restore 25 121 pd compress.delta;
#N canvas 508 241 301 250 pack.delta 0;
#X obj 13 18 inlet;
#X obj 13 180 outlet;
#X obj 79 136 list prepend add2;
#X msg 13 152;
#X msg 13 66 bang \, set;
#X obj 79 158 list trim;
#X obj 13 43 route done;
#X obj 79 66 t a a;
#X obj 106 89 list length;
#X msg 106 112 add2 \$1;
#X connect 0 0 6 0;
#X connect 2 0 5 0;
#X connect 3 0 1 0;
#X connect 4 0 3 0;
#X connect 5 0 3 0;
#X connect 6 0 4 0;
#X connect 6 1 7 0;
#X connect 7 0 2 0;
#X connect 7 1 8 0;
#X connect 8 0 9 0;
#X connect 9 0 3 0;
#X restore 25 166 pd pack.delta;
#N canvas 498 76 360 535 unpack.delta 0;
#X obj 11 14 inlet;
#X obj 30 83 list prepend 0;
#X obj 38 493 outlet;
#X obj 30 107 s \$0.unpack;
#X obj 178 17 table \$0.unpack 2000;
#X msg 50 62 const 0;
#X obj 11 37 t b a b;
#X msg 11 135 0;
#X obj 11 211 tabread \$0.unpack;
#X obj 30 259 until;
#X obj 181 80 r \$0.counter.in;
#X obj 181 132 f;
#X obj 181 102 route bang float;
#X obj 215 132 + 1;
#X obj 181 167 s \$0.counter.out;
#X obj 11 157 t b a;
#N canvas 483 421 180 198 counter 0;
#X obj 42 81 s \$0.counter.in;
#X obj 42 101 r \$0.counter.out;
#X obj 15 122 f;
#X obj 15 40 route bang;
#X obj 15 62 t b b;
#X obj 15 13 inlet;
#X obj 15 145 outlet;
#X connect 1 0 2 1;
#X connect 2 0 6 0;
#X connect 3 0 4 0;
#X connect 3 1 0 0;
#X connect 4 0 2 0;
#X connect 4 1 0 0;
#X connect 5 0 3 0;
#X restore 11 185 pd counter;
#N canvas 483 421 180 198 counter 0;
#X obj 42 81 s \$0.counter.in;
#X obj 42 101 r \$0.counter.out;
#X obj 15 122 f;
#X obj 15 40 route bang;
#X obj 15 62 t b b;
#X obj 15 13 inlet;
#X obj 15 145 outlet;
#X connect 1 0 2 1;
#X connect 2 0 6 0;
#X connect 3 0 4 0;
#X connect 3 1 0 0;
#X connect 4 0 2 0;
#X connect 4 1 0 0;
#X connect 5 0 3 0;
#X restore 30 282 pd counter;
#X obj 30 305 tabread \$0.unpack;
#X obj 11 237 t b a b;
#X msg 91 345 set;
#X msg 30 345 add2 \$1;
#X msg 11 400;
#X obj 11 422 t b a;
#X obj 11 450 s \$0.next;
#X obj 64 155 r \$0.next;
#X connect 0 0 6 0;
#X connect 1 0 3 0;
#X connect 5 0 3 0;
#X connect 6 0 7 0;
#X connect 6 1 1 0;
#X connect 6 2 5 0;
#X connect 7 0 15 0;
#X connect 8 0 19 0;
#X connect 9 0 17 0;
#X connect 10 0 12 0;
#X connect 11 0 13 0;
#X connect 11 0 14 0;
#X connect 12 0 11 0;
#X connect 12 1 11 1;
#X connect 13 0 11 1;
#X connect 15 0 16 0;
#X connect 15 1 16 0;
#X connect 16 0 8 0;
#X connect 17 0 18 0;
#X connect 18 0 21 0;
#X connect 19 0 22 0;
#X connect 19 1 9 0;
#X connect 19 2 20 0;
#X connect 20 0 22 0;
#X connect 21 0 22 0;
#X connect 22 0 23 0;
#X connect 23 0 24 0;
#X connect 23 1 2 0;
#X connect 25 0 16 0;
#X restore 24 249 pd unpack.delta;
#X obj 24 316 s \$1-\$2;
#X obj 51 293 s \$0.compare;
#X connect 1 0 2 0;
#X connect 2 0 7 0;
#X connect 3 0 4 0;
#X connect 4 0 5 0;
#X connect 5 0 0 0;
#X connect 6 0 3 0;
#X connect 9 0 17 0;
#X connect 10 0 9 0;
#X connect 12 0 20 0;
#X connect 13 0 21 0;
#X connect 13 1 22 0;
#X connect 15 1 14 0;
#X connect 16 0 19 0;
#X connect 16 1 15 0;
#X connect 17 0 18 0;
#X connect 18 0 16 0;
#X connect 19 0 11 0;
#X connect 20 0 13 0;
