#N canvas 606 73 427 514 10;
#X obj 11 86 list prepend;
#X obj 80 18 loadbang;
#X msg 80 40 32;
#X obj 80 62 makefilename %c;
#X obj 11 57 t a a;
#X obj 38 135 list length;
#X obj 11 156 list prepend;
#X obj 77 428 list prepend label;
#X obj 77 450 list trim;
#X obj 11 108 list prepend 0;
#X msg 11 392 \$3;
#X msg 102 265 \$3\$2\$4\$2\$5\$2\$6\$2\$7\$2\$8\$2\$9;
#X msg 87 286 \$3\$2\$4\$2\$5\$2\$6\$2\$7\$2\$8;
#X msg 72 308 \$3\$2\$4\$2\$5\$2\$6\$2\$7;
#X msg 56 330 \$3\$2\$4\$2\$5\$2\$6;
#X msg 41 352 \$3\$2\$4\$2\$5;
#X msg 26 373 \$3\$2\$4;
#X obj 11 178 route 1 2 3 4 5 6 7 8 9 10;
#X msg 118 243 \$3\$2\$4\$2\$5\$2\$6\$2\$7\$2\$8\$2\$9\$2\$10;
#X msg 133 221 \$3\$2\$4\$2\$5\$2\$6\$2\$7\$2\$8\$2\$9\$2\$10\$2\$11
;
#X msg 148 199 \$3\$2\$4\$2\$5\$2\$6\$2\$7\$2\$8\$2\$9\$2\$10\$2\$11\$2\$12
;
#X obj 77 471 s \$1;
#X obj 11 11 inlet;
#X obj 11 33 list;
#X connect 0 0 9 0;
#X connect 1 0 2 0;
#X connect 2 0 3 0;
#X connect 3 0 0 1;
#X connect 4 0 0 0;
#X connect 4 1 5 0;
#X connect 5 0 6 1;
#X connect 6 0 17 0;
#X connect 7 0 8 0;
#X connect 8 0 21 0;
#X connect 9 0 6 0;
#X connect 10 0 7 0;
#X connect 11 0 7 0;
#X connect 12 0 7 0;
#X connect 13 0 7 0;
#X connect 14 0 7 0;
#X connect 15 0 7 0;
#X connect 16 0 7 0;
#X connect 17 0 10 0;
#X connect 17 1 16 0;
#X connect 17 2 15 0;
#X connect 17 3 14 0;
#X connect 17 4 13 0;
#X connect 17 5 12 0;
#X connect 17 6 11 0;
#X connect 17 7 18 0;
#X connect 17 8 19 0;
#X connect 17 9 20 0;
#X connect 18 0 7 0;
#X connect 19 0 7 0;
#X connect 20 0 7 0;
#X connect 22 0 23 0;
#X connect 23 0 4 0;
