#N canvas 904 377 744 730 10;
#X obj 25 35 list;
#X obj 159 271 netpd-abslist;
#X obj 25 12 inlet;
#X obj 159 318 t a a;
#X obj 159 295 list;
#X msg 97 326 patch \$1;
#X msg 159 339 abstraction \$1;
#X obj 97 362 t a;
#X obj 40 418 netpd-fifo;
#X obj 40 394 until;
#X text 112 418 buffer dependency list in order to spare the Pd stack;
#X obj 103 627 netpd-version;
#X obj 40 479 t a a;
#X obj 40 649 list append;
#X obj 40 671 list trim;
#X obj 369 658 outlet finished;
#X obj 25 86 s \$0.done;
#X obj 369 490 r \$0.done;
#X obj 159 151 t a a;
#X obj 159 249 list;
#X obj 305 381 s \$0.error;
#X msg 53 339 clear;
#X obj 305 359 list prepend not_found;
#X obj 369 543 list append;
#X obj 401 514 r \$0.error;
#X obj 369 565 list trim;
#X obj 25 57 t b b a a b;
#X obj 369 587 route bang;
#X obj 453 633 s \$0.clear;
#X obj 426 609 t a b;
#X obj 53 302 r \$0.clear;
#X obj 40 241 f;
#X obj 40 263 sel 1;
#X obj 88 230 r \$0.error;
#X msg 88 252 0;
#X text 309 226 --- error handling ----;
#X text 52 440 ------ get version for each -----;
#X text 366 458 --- status outlet ----;
#X obj 88 85 s \$0.reset;
#X obj 89 179 r \$0.reset;
#X msg 89 201 1;
#X obj 452 535 r \$0.reset;
#X obj 159 106 until;
#X obj 159 127 netpd-fifo;
#X text 232 126 <- buffer overflow prevention;
#X obj 305 338 list prepend;
#X obj 159 187 netpd-search;
#X obj 306 211 t a;
#X obj 374 256 r \$0.reset;
#X msg 374 279 symbol instrument;
#X obj 159 215 t a b;
#X msg 386 302 symbol abstraction;
#X obj 159 43 t b a;
#X text 65 22 --------- resolve dependencies recursively ---------------;
#X symbolatom 410 102 10 0 0 0 - - - 0;
#X obj 251 144 r \$0.reset;
#X msg 251 167 0;
#X msg 252 192 1;
#X obj 103 605 netpd-search;
#X obj 103 479 list;
#X msg 103 502 list \$2 \$1;
#X obj 103 525 unpack s s;
#X obj 172 553 sel patch abstraction;
#X msg 172 576 0;
#X msg 233 578 1;
#X obj 200 672 s \$0.error;
#X obj 200 650 list prepend not_found;
#X obj 40 692 outlet;
#X connect 0 0 26 0;
#X connect 1 0 4 0;
#X connect 2 0 0 0;
#X connect 3 0 6 0;
#X connect 3 1 47 0;
#X connect 4 0 3 0;
#X connect 5 0 7 0;
#X connect 6 0 7 0;
#X connect 7 0 8 1;
#X connect 8 0 12 0;
#X connect 8 1 9 1;
#X connect 9 0 8 0;
#X connect 11 0 13 1;
#X connect 12 0 13 0;
#X connect 12 1 59 0;
#X connect 13 0 14 0;
#X connect 14 0 67 0;
#X connect 17 0 23 0;
#X connect 18 0 46 0;
#X connect 18 1 19 1;
#X connect 19 0 1 0;
#X connect 21 0 8 0;
#X connect 22 0 20 0;
#X connect 23 0 25 0;
#X connect 24 0 23 1;
#X connect 25 0 27 0;
#X connect 26 0 16 0;
#X connect 26 1 31 0;
#X connect 26 2 5 0;
#X connect 26 3 52 0;
#X connect 26 4 38 0;
#X connect 27 0 15 0;
#X connect 27 1 29 0;
#X connect 29 0 15 0;
#X connect 29 1 28 0;
#X connect 30 0 21 0;
#X connect 31 0 32 0;
#X connect 32 0 9 0;
#X connect 33 0 34 0;
#X connect 34 0 31 1;
#X connect 39 0 40 0;
#X connect 40 0 31 1;
#X connect 41 0 23 1;
#X connect 42 0 43 0;
#X connect 43 0 18 0;
#X connect 43 1 42 1;
#X connect 45 0 22 0;
#X connect 46 0 50 0;
#X connect 46 1 45 0;
#X connect 47 0 43 1;
#X connect 48 0 49 0;
#X connect 49 0 45 1;
#X connect 50 0 19 0;
#X connect 50 1 51 0;
#X connect 50 1 57 0;
#X connect 51 0 45 1;
#X connect 52 0 42 0;
#X connect 52 1 43 1;
#X connect 54 0 0 0;
#X connect 55 0 56 0;
#X connect 56 0 46 1;
#X connect 57 0 46 1;
#X connect 58 0 11 0;
#X connect 58 1 66 0;
#X connect 59 0 60 0;
#X connect 60 0 61 0;
#X connect 61 0 58 0;
#X connect 61 1 62 0;
#X connect 62 0 63 0;
#X connect 62 1 64 0;
#X connect 63 0 58 1;
#X connect 64 0 58 1;
#X connect 66 0 65 0;
