#N canvas 520 44 513 368 10;
#X obj 21 10 inlet;
#X obj 21 297 outlet;
#X obj 210 70 netpd-properties;
#N canvas 807 501 142 203 get.unpatch.version 0;
#X obj 35 61 s up.getversion;
#X obj 37 81 r up.version;
#X obj 16 125 list;
#X obj 16 38 t b b b;
#X msg 55 103 empty;
#X obj 16 15 inlet;
#X obj 16 171 outlet;
#X obj 16 147 list trim;
#X connect 1 0 2 1;
#X connect 2 0 7 0;
#X connect 3 0 2 0;
#X connect 3 1 0 0;
#X connect 3 2 4 0;
#X connect 4 0 2 1;
#X connect 5 0 3 0;
#X connect 7 0 6 0;
#X restore 21 80 pd get.unpatch.version;
#X obj 21 102 route empty;
#X obj 21 124 b;
#X obj 21 249 list append;
#X obj 21 271 list trim;
#X obj 84 125 unpack f f;
#X obj 210 137 unpack f f;
#X obj 84 153 ==;
#X obj 84 175 sel 1;
#X obj 141 175 >=;
#X obj 84 199 f;
#X obj 84 221 sel 1;
#X obj 144 339 netpd-error netpd-check-patch-spec;
#X obj 21 32 t b a a a;
#X obj 144 256 list append;
#X obj 144 278 list append;
#X obj 210 113 t a a;
#X obj 144 232 b;
#X obj 210 91 route NETPD_PATCH_SPEC;
#X msg 144 299 \$1: patch spec (\$2 \$3) not supported by unpatch \,
only spec 2 0 is supported;
#X obj 84 332 outlet;
#X connect 0 0 16 0;
#X connect 2 0 21 0;
#X connect 3 0 4 0;
#X connect 4 0 5 0;
#X connect 4 1 8 0;
#X connect 5 0 6 0;
#X connect 6 0 7 0;
#X connect 7 0 1 0;
#X connect 8 0 10 0;
#X connect 8 1 12 0;
#X connect 9 0 10 1;
#X connect 9 1 12 1;
#X connect 10 0 11 0;
#X connect 11 0 13 0;
#X connect 11 1 20 0;
#X connect 12 0 13 1;
#X connect 13 0 14 0;
#X connect 14 0 6 1;
#X connect 14 1 20 0;
#X connect 16 0 3 0;
#X connect 16 1 2 0;
#X connect 16 2 6 1;
#X connect 16 3 17 1;
#X connect 17 0 18 0;
#X connect 18 0 22 0;
#X connect 19 0 9 0;
#X connect 19 1 18 1;
#X connect 20 0 17 0;
#X connect 20 0 23 0;
#X connect 21 0 19 0;
#X connect 22 0 15 0;
