#N canvas 317 53 444 568 10;
#X obj 18 8 inlet;
#X obj 268 238 s \$0.receive;
#X obj 18 307 s \$0.send;
#X obj 18 164 t a b;
#X obj 45 235 s \$0.waittime;
#X obj 45 209 spigot;
#X msg 78 186 1;
#X obj 106 163 r \$0.stop;
#X msg 106 186 0;
#X obj 65 73 s \$0.ready;
#X msg 65 51 1;
#X obj 18 384 r \$0.receive;
#X obj 18 406 routeOSC /ready;
#X obj 18 477 spigot 1;
#X obj 18 499 t a b;
#X msg 91 489 0;
#X obj 18 95 t b b b b b;
#X msg 251 354 1;
#X obj 18 542 outlet;
#X msg 45 186 3000;
#X obj 45 521 s \$0.stop;
#X obj 18 30 route find ready unready;
#X msg 112 51 0;
#X obj 275 418 r \$0.waittime;
#X obj 275 485 delay;
#X obj 275 507 outlet;
#X obj 292 440 r \$0.stop;
#X msg 292 462 stop;
#N canvas 54 120 211 221 append_increment 0;
#X obj 40 14 inlet;
#X obj 40 171 outlet;
#X obj 40 36 t a b;
#X obj 67 60 f;
#X obj 67 82 mod 1000;
#X obj 129 77 + 1;
#X obj 40 142 list append;
#X obj 67 104 t a a;
#X obj 142 170 outlet;
#X connect 0 0 2 0;
#X connect 2 0 6 0;
#X connect 2 1 3 0;
#X connect 3 0 4 0;
#X connect 4 0 5 0;
#X connect 4 0 7 0;
#X connect 5 0 3 1;
#X connect 6 0 1 0;
#X connect 7 0 6 1;
#X connect 7 1 8 0;
#X restore 18 262 pd append_increment;
#X obj 18 432 select;
#X obj 18 454 f;
#N canvas 730 462 175 144 get.socket 0;
#X obj -67 30 loadbang;
#X obj -87 101 s \$0.socket;
#X obj -87 7 inlet;
#X obj -87 79 netpd-status-get socket 1;
#X connect 0 0 3 0;
#X connect 2 0 3 0;
#X connect 3 0 1 0;
#X restore 81 118 pd get.socket;
#N canvas 643 264 244 355 handle.request 0;
#X obj 19 26 r \$0.receive;
#X obj 19 48 routeOSC /ifready;
#X obj 19 220 spigot;
#X obj 61 169 r \$0.ready;
#X obj 19 327 s \$0.send;
#X obj 19 271 netpd-fifo;
#X obj 19 170 t b a;
#X obj 61 191 t a a;
#X obj 88 215 sel 1;
#X obj 88 237 until;
#X text 135 49 <id>;
#X obj 106 72 r \$0.sender;
#X text 107 307 <id>;
#X obj 19 71 list prepend;
#X obj 70 116 r \$0.socket;
#X obj 19 117 route 0;
#X text 46 144 only pass foreign requests;
#X msg 19 306 \$1 /ready \$2;
#X connect 0 0 1 0;
#X connect 1 0 13 0;
#X connect 2 0 5 0;
#X connect 3 0 7 0;
#X connect 5 0 17 0;
#X connect 5 1 9 1;
#X connect 6 0 2 0;
#X connect 6 1 5 1;
#X connect 7 0 2 1;
#X connect 7 1 8 0;
#X connect 8 0 9 0;
#X connect 9 0 5 0;
#X connect 11 0 13 1;
#X connect 13 0 15 0;
#X connect 14 0 15 1;
#X connect 15 1 6 0;
#X connect 17 0 4 0;
#X restore 18 347 pd handle.request;
#X obj 18 143 netpd-find-peers \$1/sync;
#X obj 268 213 netpd-r \$1/sync;
#X obj 355 237 s \$0.sender;
#X obj 269 30 r \$0.send;
#X obj 269 52 list;
#X obj 269 103 list split 1;
#X obj 269 74 t a a;
#X msg 356 95 \$1;
#X obj 269 128 list prepend OSC;
#X obj 269 148 list trim;
#X obj 269 168 netpd-s \$1/sync;
#X msg 18 286 \$1 /ifready \$2;
#X text 130 286 <id>;
#X obj 44 455 r \$0.sender;
#X connect 0 0 21 0;
#X connect 3 0 28 0;
#X connect 3 1 19 0;
#X connect 5 0 4 0;
#X connect 6 0 5 1;
#X connect 7 0 8 0;
#X connect 8 0 5 1;
#X connect 10 0 9 0;
#X connect 11 0 12 0;
#X connect 12 0 29 0;
#X connect 13 0 14 0;
#X connect 14 0 18 0;
#X connect 14 1 15 0;
#X connect 14 1 20 0;
#X connect 15 0 13 1;
#X connect 16 0 33 0;
#X connect 16 1 19 0;
#X connect 16 2 6 0;
#X connect 16 3 17 0;
#X connect 16 4 31 0;
#X connect 17 0 13 1;
#X connect 19 0 5 0;
#X connect 21 0 16 0;
#X connect 21 1 10 0;
#X connect 21 2 22 0;
#X connect 22 0 9 0;
#X connect 23 0 24 0;
#X connect 24 0 25 0;
#X connect 26 0 27 0;
#X connect 27 0 24 0;
#X connect 28 0 44 0;
#X connect 28 1 29 1;
#X connect 29 0 30 0;
#X connect 30 0 13 0;
#X connect 33 0 3 0;
#X connect 34 0 1 0;
#X connect 34 1 35 0;
#X connect 36 0 37 0;
#X connect 37 0 39 0;
#X connect 38 1 41 0;
#X connect 39 0 38 0;
#X connect 39 1 40 0;
#X connect 40 0 43 1;
#X connect 41 0 42 0;
#X connect 42 0 43 0;
#X connect 44 0 2 0;
#X connect 46 0 30 1;
