#N canvas 315 196 638 443 10;
#X obj 20 22 vsl 10 135 1 0 0 0 \$0.sensor \$0.sensor.r empty 0 -9
0 10 -224635 -224635 -1 13300 1;
#X obj 21 21 cnv 4 8 118 empty \$0.bar.r empty 20 12 0 14 -258049 -258049
0;
#X obj 49 42 namecanvas \$0.scrollbar;
#X obj 146 378 s \$0.quotient;
#X msg 146 256 \$2 \$1;
#X obj 146 278 /;
#X obj 146 300 min 1;
#X obj 238 253 *;
#X obj 265 317 int;
#X msg 253 230 \$1;
#X obj 238 205 r \$0.pos;
#X obj 265 296 + 0.5;
#N canvas 173 332 717 547 scrollbar.logic 0;
#X msg 400 220 coords 0 -1 1 1 \$1 \$2 2 20 20;
#X obj 349 20 loadbang;
#X obj 400 242 s \$0.scrollbar;
#X obj 383 355 s \$0.sensor.r;
#X msg 383 332 size \$1 \$2;
#X obj 383 268 unpack;
#X obj 416 289 - 5;
#X obj 383 310 pack f f;
#X msg 19 385 pos 21 \$1;
#X obj 19 407 s \$0.bar.r;
#X obj 366 376 unpack;
#X obj 366 418 pack f f;
#X obj 366 397 - 2;
#X obj 411 397 - 2;
#X msg 224 338 vis_size \$1 \$2;
#X obj 224 317 pack f f;
#X obj 224 359 s \$0.bar.r;
#X obj 224 179 t b a;
#X obj 19 21 r \$0.sensor;
#X obj 19 363 + 21;
#X obj 349 246 - 6;
#X msg 349 223 \$2;
#X obj 349 197 t a a a a;
#X obj 19 65 *;
#X obj 349 289 s \$0.scale;
#X obj 34 43 r \$0.scale;
#X obj 366 440 s \$0.barsize;
#X obj 237 200 r \$0.barsize;
#X obj 225 385 r \$0.scale;
#X obj 225 407 + 4;
#X obj 197 155 t a a;
#X obj 197 432 pack f f;
#X msg 197 454 \$2 \$1;
#X obj 197 476 -;
#X obj 19 329 int;
#X obj 19 281 max 0;
#X obj 197 498 s \$0.bar.y;
#X obj 19 259 min;
#X obj 77 191 >;
#X obj 58 69 r \$0.bar.y;
#X obj 77 213 sel 1;
#X obj 77 235 f;
#X obj 77 257 /;
#X obj 104 236 r \$0.scale;
#X msg 77 278 set \$1;
#X obj 77 300 s \$0.sensor.r;
#X obj 58 91 t b a;
#X obj 19 87 f;
#X obj 19 117 t a a a;
#X obj 212 37 r \$0.scale;
#X obj 212 59 + 4;
#X obj 197 81 *;
#X obj 197 102 int;
#X obj 197 14 r \$0.quotient;
#X obj 19 303 t a a;
#X obj 86 320 r \$0.scale;
#X obj 71 342 /;
#X obj 71 364 s \$0.pos;
#X obj 197 125 + 3;
#X text 227 125 <- EXPLAIN;
#X text 440 290 <- a slider is 5px larger than given size;
#X obj 349 175 list append \$2 \$3;
#X msg 388 67 set 0;
#X obj 388 89 s \$0.sensor.r;
#X obj 349 45 t b b b;
#X obj 368 110 f \$4;
#X obj 368 153 s \$1;
#X msg 368 131 set displaylength \$1;
#X obj 237 222 unpack f f;
#X obj 294 243 t a a;
#X obj 269 266 min;
#X obj 269 288 max 4;
#X obj 557 32 sel 0;
#X obj 557 141 s \$0.sensor.r;
#X obj 572 77 r \$0.scale;
#X obj 557 98 /;
#X obj 423 25 bng 15 250 50 0 empty empty empty 17 7 0 10 -262144 -1
-1;
#X msg 557 119 set \$1;
#X msg 557 53 1;
#X obj 557 9 r \$0.sensor;
#X connect 0 0 2 0;
#X connect 1 0 64 0;
#X connect 4 0 3 0;
#X connect 5 0 7 0;
#X connect 5 1 6 0;
#X connect 6 0 7 1;
#X connect 7 0 4 0;
#X connect 8 0 9 0;
#X connect 10 0 12 0;
#X connect 10 1 13 0;
#X connect 11 0 26 0;
#X connect 12 0 11 0;
#X connect 13 0 11 1;
#X connect 14 0 16 0;
#X connect 15 0 14 0;
#X connect 17 0 15 0;
#X connect 17 1 70 0;
#X connect 18 0 23 0;
#X connect 19 0 8 0;
#X connect 20 0 24 0;
#X connect 21 0 20 0;
#X connect 22 0 21 0;
#X connect 22 1 10 0;
#X connect 22 2 5 0;
#X connect 22 3 0 0;
#X connect 23 0 47 0;
#X connect 25 0 23 1;
#X connect 27 0 68 0;
#X connect 28 0 29 0;
#X connect 29 0 31 1;
#X connect 30 0 31 0;
#X connect 30 1 17 0;
#X connect 31 0 32 0;
#X connect 32 0 33 0;
#X connect 33 0 36 0;
#X connect 34 0 19 0;
#X connect 35 0 54 0;
#X connect 37 0 35 0;
#X connect 38 0 40 0;
#X connect 39 0 46 0;
#X connect 40 0 41 0;
#X connect 41 0 42 0;
#X connect 42 0 44 0;
#X connect 43 0 42 1;
#X connect 44 0 45 0;
#X connect 46 0 47 0;
#X connect 46 1 38 1;
#X connect 46 1 41 1;
#X connect 46 1 37 1;
#X connect 47 0 48 0;
#X connect 48 0 37 0;
#X connect 48 2 38 0;
#X connect 49 0 50 0;
#X connect 50 0 51 1;
#X connect 51 0 52 0;
#X connect 52 0 58 0;
#X connect 53 0 51 0;
#X connect 54 0 34 0;
#X connect 54 1 56 0;
#X connect 55 0 56 1;
#X connect 56 0 57 0;
#X connect 58 0 30 0;
#X connect 61 0 22 0;
#X connect 62 0 63 0;
#X connect 64 0 61 0;
#X connect 64 1 65 0;
#X connect 64 2 62 0;
#X connect 65 0 67 0;
#X connect 67 0 66 0;
#X connect 68 0 15 0;
#X connect 68 1 69 0;
#X connect 69 0 70 0;
#X connect 69 1 70 1;
#X connect 70 0 71 0;
#X connect 71 0 15 1;
#X connect 72 0 78 0;
#X connect 74 0 75 1;
#X connect 75 0 77 0;
#X connect 76 0 64 0;
#X connect 77 0 73 0;
#X connect 78 0 75 0;
#X connect 79 0 72 0;
#X restore 49 22 pd scrollbar.logic;
#X obj 265 339 change;
#X obj 52 338 /;
#X obj 67 251 t a a;
#X msg 94 316 \$1;
#X obj 67 270 -;
#X obj 52 291 min;
#X obj 52 314 max 0;
#X obj 52 358 s \$0.sensor.r;
#X obj 52 75 r \$1;
#X obj 121 167 pack f f;
#X obj 190 142 t b a;
#X msg 265 361 pos \$1;
#X obj 265 383 s \$1;
#X obj 52 97 route set;
#X obj 52 119 route pos totallength displaylength;
#X obj 121 143 max 1;
#X obj 358 37 r \$1;
#X obj 358 59 route set;
#X obj 358 81 route bgcolor frontcolor;
#X obj 358 170 netpd-rgb2iem;
#X obj 428 103 netpd-rgb2iem;
#X msg 428 126 color \$1 \$1;
#X obj 428 148 s \$0.bar.r;
#X msg 358 192 color \$1 \$1 -1;
#X obj 358 214 s \$0.sensor.r;
#X obj 238 273 t a a;
#X obj 121 189 t b a a a;
#X obj 121 232 f;
#X obj 52 142 t a b;
#X msg 79 209 set -1;
#X connect 4 0 5 0;
#X connect 5 0 6 0;
#X connect 6 0 3 0;
#X connect 7 0 38 0;
#X connect 8 0 13 0;
#X connect 9 0 7 1;
#X connect 10 0 7 0;
#X connect 11 0 8 0;
#X connect 13 0 24 0;
#X connect 14 0 20 0;
#X connect 15 0 17 0;
#X connect 15 1 16 0;
#X connect 16 0 14 1;
#X connect 17 0 18 1;
#X connect 18 0 19 0;
#X connect 19 0 14 0;
#X connect 21 0 26 0;
#X connect 22 0 39 0;
#X connect 23 0 28 0;
#X connect 23 1 22 1;
#X connect 24 0 25 0;
#X connect 26 0 27 0;
#X connect 27 0 41 0;
#X connect 27 1 28 0;
#X connect 27 2 23 0;
#X connect 28 0 22 0;
#X connect 29 0 30 0;
#X connect 30 0 31 0;
#X connect 31 0 32 0;
#X connect 31 1 33 0;
#X connect 32 0 36 0;
#X connect 33 0 34 0;
#X connect 34 0 35 0;
#X connect 36 0 37 0;
#X connect 38 0 40 1;
#X connect 38 1 11 0;
#X connect 39 0 40 0;
#X connect 39 1 15 0;
#X connect 39 2 4 0;
#X connect 39 3 9 0;
#X connect 40 0 18 0;
#X connect 41 0 18 0;
#X connect 41 1 42 0;
#X connect 42 0 13 0;
#X coords 0 -1 1 1 10 140 2 20 20;
