#N canvas 443 196 377 263 10;
#X obj 244 52 r \$0.send;
#X obj 243 196 s \$0.receive;
#X obj 243 152 netpd-r \$1;
#X obj 244 74 list prepend to;
#X obj 244 96 list trim;
#X obj 244 118 s NETPD;
#X obj 11 12 inlet;
#X obj 243 174 routeOSC /download;
#X text 55 11 patch|abstraction <filename> <remote socket>;
#N canvas 0 69 548 259 send.request 0;
#X obj 11 33 list;
#X obj 11 116 list append \$1;
#X obj 11 182 s \$0.send;
#X msg 38 75 socket;
#X obj 38 96 netpd-status-get;
#X obj 11 162 list append;
#X obj 11 54 t a b;
#X msg 11 139 /\$3\$4/download/request/\$1 \$2;
#X text 11 203 /<socket>/<namespace>/download/request/patch|abstraction
;
#X text 362 203 <filename> <local_socket>;
#X obj 11 7 inlet;
#X text 62 9 patch|abstraction <filename> <remote socket>;
#X connect 0 0 6 0;
#X connect 1 0 7 0;
#X connect 3 0 4 0;
#X connect 4 0 5 1;
#X connect 5 0 2 0;
#X connect 6 0 1 0;
#X connect 6 1 3 0;
#X connect 7 0 5 0;
#X connect 10 0 0 0;
#X restore 11 51 pd send.request;
#N canvas 429 270 338 178 handle.request 0;
#X obj 6 14 r \$0.receive;
#X obj 6 35 routeOSC /request;
#X obj 6 56 route /patch /abstraction;
#X obj 6 142 outlet;
#X text 132 78 <filename> <remote_socket>;
#X obj 6 77 list;
#X obj 79 77 list;
#X msg 79 97 list abs \$1 \$2 abstraction;
#X msg 6 117 list patches \$1 \$2 patch;
#X text 58 140 list <path> <file> <remote_socket> <type>;
#X connect 0 0 1 0;
#X connect 1 0 2 0;
#X connect 2 0 5 0;
#X connect 2 1 6 0;
#X connect 5 0 8 0;
#X connect 6 0 7 0;
#X connect 7 0 3 0;
#X connect 8 0 3 0;
#X restore 11 99 pd handle.request;
#N canvas 410 151 425 542 send.patch 0;
#X obj 15 13 inlet;
#X obj 15 199 textfile;
#X obj 15 168 until;
#X obj 15 143 t b a a;
#X obj 15 221 t b a;
#X obj 15 243 f;
#X text 108 201 socket;
#X obj 15 285 list append \$1;
#X msg 15 307 /\$1\$2/download/data;
#X obj 15 330 list append;
#X obj 15 352 s \$0.send;
#X obj 60 225 t b b;
#X obj 15 35 t a a;
#X obj 63 55 list append \$1;
#X obj 90 121 s \$0.send;
#X text 254 99 start message;
#X obj 63 77 t a a;
#X obj 60 250 list append;
#X text 147 305 transmit data;
#X obj 60 416 s \$0.send;
#X text 224 394 end message;
#X text 60 17 list <path> <file> <remote_socket> <type>;
#X msg 90 99 /\$3\$5/download/start \$4 \$2;
#X msg 60 394 /\$3\$5/download/done \$4 \$2;
#X msg 79 200 \$3;
#X msg 58 169 clear \, read ../\$1/\$2.pd \, rewind;
#X connect 0 0 12 0;
#X connect 1 0 4 0;
#X connect 1 1 11 0;
#X connect 2 0 1 0;
#X connect 3 0 2 0;
#X connect 3 1 25 0;
#X connect 3 2 24 0;
#X connect 4 0 5 0;
#X connect 4 1 9 1;
#X connect 5 0 7 0;
#X connect 7 0 8 0;
#X connect 8 0 9 0;
#X connect 9 0 10 0;
#X connect 11 0 17 0;
#X connect 11 1 2 1;
#X connect 12 0 3 0;
#X connect 12 1 13 0;
#X connect 13 0 16 0;
#X connect 16 0 17 1;
#X connect 16 1 22 0;
#X connect 17 0 23 0;
#X connect 22 0 14 0;
#X connect 23 0 19 0;
#X connect 24 0 5 1;
#X connect 25 0 1 0;
#X restore 11 136 pd send.patch;
#N canvas 410 277 334 439 receive.patch 0;
#X obj 11 12 r \$0.receive;
#X obj 50 55 routeOSC /start;
#X obj 11 34 t a a a;
#X obj 191 108 list;
#X msg 191 130 download \$1 \$2;
#X obj 50 77 t b a;
#X obj 30 227 textfile;
#X msg 50 101 clear;
#X obj 30 149 routeOSC /data;
#X obj 135 399 outlet;
#X obj 30 172 list prepend add;
#X obj 30 194 list trim;
#X obj 11 259 routeOSC /done;
#X obj 11 314 list;
#X obj 11 283 t a a;
#X obj 150 217 route patch abstraction;
#X obj 150 261 list prepend patches;
#X obj 217 238 list prepend abs;
#X msg 11 338 saved \$1 \$2;
#X msg 150 283 write ../\$1/\$2.pd;
#X connect 0 0 2 0;
#X connect 1 0 5 0;
#X connect 2 0 12 0;
#X connect 2 1 8 0;
#X connect 2 2 1 0;
#X connect 3 0 4 0;
#X connect 4 0 9 0;
#X connect 5 0 7 0;
#X connect 5 1 3 0;
#X connect 7 0 6 0;
#X connect 8 0 10 0;
#X connect 10 0 11 0;
#X connect 11 0 6 0;
#X connect 12 0 14 0;
#X connect 13 0 18 0;
#X connect 14 0 13 0;
#X connect 14 1 15 0;
#X connect 15 0 16 0;
#X connect 15 1 17 0;
#X connect 16 0 19 0;
#X connect 17 0 19 0;
#X connect 18 0 9 0;
#X connect 19 0 6 0;
#X restore 12 175 pd receive.patch;
#X obj 12 197 outlet;
#X connect 0 0 3 0;
#X connect 2 0 7 0;
#X connect 3 0 4 0;
#X connect 4 0 5 0;
#X connect 6 0 9 0;
#X connect 7 0 1 0;
#X connect 10 0 11 0;
#X connect 12 0 13 0;
