#N canvas 434 44 361 552 10;
#X obj 29 83 packOSC;
#X obj 219 151 list prepend 0;
#X obj 219 173 s \$0.header;
#X msg 56 176 8;
#X obj 56 198 until;
#X obj 56 150 t b b a;
#X msg 117 192 0;
#X obj 56 220 f;
#X obj 93 221 + 1;
#X obj 29 105 route 47;
#X obj 219 130 list split 7;
#X obj 56 247 tabread \$0.header;
#X obj 56 269 sel 47;
#X obj 29 411 list append;
#X msg 89 330 l;
#X msg 126 327 s;
#X obj 209 356 - 48;
#X obj 244 380 * 10;
#X obj 209 384 +;
#X obj 164 312 moses 48;
#X obj 209 333 moses 58;
#X obj 29 127 t b a;
#X obj 29 21 inlet;
#X obj 29 434 route bang;
#X obj 223 479 outlet error;
#X obj 86 478 outlet;
#X obj 165 34 table \$0.header 7;
#X obj 89 289 route 108 115;
#X obj 254 356 s \$0.stop;
#X obj 164 411 s \$0.stop;
#X obj 56 359 s \$0.stop;
#X obj 133 132 r \$0.stop;
#X text 175 288 l \, s (local \, server);
#X obj 133 154 b;
#X obj 29 41 list;
#X msg 29 63 \$1;
#X connect 0 0 9 0;
#X connect 1 0 2 0;
#X connect 3 0 4 0;
#X connect 4 0 7 0;
#X connect 5 0 3 0;
#X connect 5 1 6 0;
#X connect 5 1 13 1;
#X connect 5 2 10 0;
#X connect 6 0 7 1;
#X connect 6 0 18 1;
#X connect 7 0 8 0;
#X connect 7 0 11 0;
#X connect 8 0 7 1;
#X connect 9 0 21 0;
#X connect 10 0 1 0;
#X connect 11 0 12 0;
#X connect 12 0 30 0;
#X connect 12 1 27 0;
#X connect 13 0 23 0;
#X connect 14 0 13 1;
#X connect 15 0 13 1;
#X connect 16 0 18 0;
#X connect 17 0 18 1;
#X connect 18 0 17 0;
#X connect 18 0 13 1;
#X connect 19 0 29 0;
#X connect 19 1 20 0;
#X connect 20 0 16 0;
#X connect 20 1 28 0;
#X connect 21 0 13 0;
#X connect 21 1 5 0;
#X connect 22 0 34 0;
#X connect 23 0 24 0;
#X connect 23 1 25 0;
#X connect 27 0 14 0;
#X connect 27 1 15 0;
#X connect 27 2 19 0;
#X connect 31 0 33 0;
#X connect 33 0 4 1;
#X connect 34 0 35 0;
#X connect 35 0 0 0;
