#N canvas 332 56 324 761 10;
#X obj 18 116 netpd-find-peers \$1;
#X obj 18 8 inlet;
#X obj 208 25 r \$0.send;
#X obj 207 169 s \$0.receive;
#X obj 207 125 netpd-r \$1;
#X obj 208 47 list prepend to;
#X obj 208 69 list trim;
#X obj 208 91 s NETPD;
#X obj 18 305 list append \$1;
#X obj 130 285 netpd-status-get;
#X msg 130 261 socket;
#X obj 18 327 list append;
#X obj 18 369 s \$0.send;
#X obj 18 139 t a b;
#X obj 45 244 s \$0.waittime;
#X obj 45 218 spigot;
#X msg 78 196 1;
#X obj 107 173 r \$0.stop;
#X msg 107 197 0;
#X obj 18 400 r \$0.receive;
#X obj 18 422 routeOSC /ifready;
#X obj 65 73 s \$0.ready;
#X obj 18 466 spigot;
#X msg 65 51 1;
#X obj 51 444 r \$0.ready;
#X obj 18 487 list append \$1;
#X obj 18 509 list append;
#X obj 18 551 s \$0.send;
#X obj 18 593 r \$0.receive;
#X obj 18 615 routeOSC /ready;
#X obj 207 147 routeOSC /sync;
#X msg 18 348 /\$1\$2/sync/ifready \$3;
#X msg 18 530 /\$1\$2/sync/ready \$3;
#X obj 18 638 spigot 1;
#X obj 18 660 t a b;
#X msg 91 650 0;
#X obj 18 95 t b b b b b;
#X msg 273 452 1;
#X obj 18 716 outlet;
#X msg 45 172 3000;
#X obj 45 682 s \$0.stop;
#X obj 18 30 route find ready unready;
#X msg 112 51 0;
#X obj 200 628 r \$0.waittime;
#X obj 200 695 delay;
#X obj 200 717 outlet;
#X obj 217 650 r \$0.stop;
#X msg 217 672 stop;
#X connect 0 0 13 0;
#X connect 1 0 41 0;
#X connect 2 0 5 0;
#X connect 4 0 30 0;
#X connect 5 0 6 0;
#X connect 6 0 7 0;
#X connect 8 0 11 0;
#X connect 9 0 11 1;
#X connect 9 0 26 1;
#X connect 10 0 9 0;
#X connect 11 0 31 0;
#X connect 13 0 8 0;
#X connect 13 1 39 0;
#X connect 15 0 14 0;
#X connect 16 0 15 1;
#X connect 17 0 18 0;
#X connect 18 0 15 1;
#X connect 19 0 20 0;
#X connect 20 0 22 0;
#X connect 22 0 25 0;
#X connect 23 0 21 0;
#X connect 24 0 22 1;
#X connect 25 0 26 0;
#X connect 26 0 32 0;
#X connect 28 0 29 0;
#X connect 29 0 33 0;
#X connect 30 0 3 0;
#X connect 31 0 12 0;
#X connect 32 0 27 0;
#X connect 33 0 34 0;
#X connect 34 0 38 0;
#X connect 34 1 35 0;
#X connect 34 1 40 0;
#X connect 35 0 33 1;
#X connect 36 0 0 0;
#X connect 36 1 39 0;
#X connect 36 2 16 0;
#X connect 36 3 10 0;
#X connect 36 4 37 0;
#X connect 37 0 33 1;
#X connect 39 0 15 0;
#X connect 41 0 36 0;
#X connect 41 1 23 0;
#X connect 41 2 42 0;
#X connect 42 0 21 0;
#X connect 43 0 44 0;
#X connect 44 0 45 0;
#X connect 46 0 47 0;
#X connect 47 0 44 0;
