#N canvas 239 75 460 487 10;
#X obj 125 313 t b b b;
#X obj 80 427 del;
#X obj 86 234 moses 1;
#X obj 144 354 outlet;
#X obj 86 151 t a a;
#X obj 86 22 inlet;
#X obj 86 276 outlet;
#X obj 80 380 realtime;
#X obj 86 130 +;
#X msg 15 318 -1;
#X text 122 407 (add 20% spare time);
#X text 131 276 <--- bang when done;
#X obj 211 20 inlet;
#X msg 211 59 0;
#X text 267 21 stop;
#X obj 86 44 route bang float;
#X msg 86 76 1e+08;
#X text 228 464 2012 \, Roman Haefeli;
#N canvas 591 237 442 392 global.lock 0;
#X obj 15 14 inlet;
#X obj 15 320 outlet;
#X obj 15 140 netpd-mutex NB_UNTIL;
#X obj 15 106 change -1;
#X obj 15 166 t a a;
#X obj 15 190 sel 1;
#X obj 15 223 f;
#X obj 79 227 spigot 0;
#X obj 15 71 > 0;
#X obj 15 39 t a a;
#X connect 0 0 9 0;
#X connect 2 0 4 0;
#X connect 3 0 2 0;
#X connect 4 0 5 0;
#X connect 4 1 7 1;
#X connect 5 0 6 0;
#X connect 6 0 1 0;
#X connect 7 0 1 0;
#X connect 8 0 3 0;
#X connect 9 0 8 0;
#X connect 9 1 7 0;
#X connect 9 1 6 1;
#X restore 86 183 pd global.lock;
#X obj 80 405 * 2;
#X obj 86 256 t b;
#X connect 0 0 7 1;
#X connect 0 1 3 0;
#X connect 0 2 7 0;
#X connect 1 0 9 0;
#X connect 2 0 20 0;
#X connect 2 1 0 0;
#X connect 4 0 18 0;
#X connect 4 1 8 1;
#X connect 5 0 15 0;
#X connect 7 0 19 0;
#X connect 8 0 4 0;
#X connect 9 0 8 0;
#X connect 12 0 13 0;
#X connect 13 0 8 1;
#X connect 15 0 16 0;
#X connect 15 1 8 0;
#X connect 16 0 8 0;
#X connect 18 0 2 0;
#X connect 19 0 1 0;
#X connect 20 0 6 0;
