#N struct 1199.rectangle float id float x float y float w float h float
txtclr float boxclr float bgclr symbol label;
#N struct 1200.rectangle float id float x float y float w float h float
txtclr float boxclr float bgclr symbol label;
#N struct 1201.rectangle float id float x float y float w float h float
txtclr float boxclr float bgclr symbol label;
#N canvas 262 67 503 487 10;
#X obj 1 0 cnv 15 500 30 empty empty empty 20 12 0 14 #e0e0e0 #404040
0;
#X text 30 443 No inlets;
#X text 30 457 No outlets;
#X obj 24 132 loadbang;
#N canvas 555 131 451 528 customize 0;
#X msg 18 46 width \$1;
#X floatatom 18 22 5 0 0 0 - - - 0;
#X floatatom 21 108 5 0 0 0 - - - 0;
#X msg 21 132 height \$1;
#X text 57 22 Change width;
#X text 59 106 Change height;
#X floatatom 23 232 5 0 0 0 - - - 0;
#X msg 23 256 selected_text_color \$1;
#X floatatom 23 307 5 0 0 0 - - - 0;
#X msg 23 331 selected_box_color \$1;
#X floatatom 25 383 5 0 0 0 - - - 0;
#X msg 25 407 selected_background_color \$1;
#X floatatom 233 242 5 0 0 0 - - - 0;
#X floatatom 233 317 5 0 0 0 - - - 0;
#X floatatom 235 393 5 0 0 0 - - - 0;
#X msg 233 266 items_text_color \$1;
#X msg 233 341 items_box_color \$1;
#X msg 235 417 items_background_color \$1;
#X text 20 197 Colors for selected item;
#X text 230 198 Colors for drop-down items;
#X text 21 488 Use data structure color values (800=red \, 80=green
\, 8=blue);
#X text 21 470 NOTE:;
#X text 168 21 CUSTOMIZATIONS FOR [netpd-gui-dropdown];
#X text 168 36 =======================================;
#X floatatom 171 108 5 0 0 0 - - - 0;
#X msg 171 132 fontsize \$1;
#X text 209 106 Allowed values: 8 \, 10 \, 12 \, 16 \, 24 \, 36;
#X obj 18 71 s \$0.myvmenu;
#X obj 21 157 s \$0.myvmenu;
#X obj 171 157 s \$0.myvmenu;
#X obj 23 281 s \$0.myvmenu;
#X obj 23 356 s \$0.myvmenu;
#X obj 25 432 s \$0.myvmenu;
#X obj 233 291 s \$0.myvmenu;
#X obj 233 366 s \$0.myvmenu;
#X obj 235 442 s \$0.myvmenu;
#X connect 0 0 27 0;
#X connect 1 0 0 0;
#X connect 2 0 3 0;
#X connect 3 0 28 0;
#X connect 6 0 7 0;
#X connect 7 0 30 0;
#X connect 8 0 9 0;
#X connect 9 0 31 0;
#X connect 10 0 11 0;
#X connect 11 0 32 0;
#X connect 12 0 15 0;
#X connect 13 0 16 0;
#X connect 14 0 17 0;
#X connect 15 0 33 0;
#X connect 16 0 34 0;
#X connect 17 0 35 0;
#X connect 24 0 25 0;
#X connect 25 0 29 0;
#X restore 284 350 pd customize;
#X text 18 301 arg2: width;
#X text 18 315 arg3: height;
#X text 18 343 arg5: selected text color;
#X text 18 357 arg6: selected box color;
#X text 18 371 arg7: selected background color;
#X text 18 385 arg8: items text color;
#X text 18 398 arg9: items box color;
#X text 12 412 arg10: items background color;
#X text 18 329 arg4: fontsize;
#X text 18 287 arg1: sendname (mandatory);
#X text 282 326 More info:;
#N canvas 374 109 409 508 optional 0;
#X text 9 10 It's possible to specify only some the args while the
non-specified args stay at their default value.;
#X msg 45 398 items A B C;
#X obj 45 421 s \$0.letters;
#X msg 18 448 items stilton cheddar shropshire stichelton;
#X obj 18 471 s \$0.cheese;
#X text 82 218 <- fully specifed;
#X text 129 127 <- partially specified;
#X obj 18 351 loadbang;
#X obj 18 374 t b b;
#X text 12 58 [netpd-gui-hmenu \$0.letters 30 30 16];
#X text 14 181 [netpd-gui-hmenu \$0.cheese 57 14 8 232 787 787 322
877 877];
#X obj 19 120 netpd-gui-hmenu \$0.letters 30 30 16;
#X obj 14 220 netpd-gui-hmenu \$0.cheese 57 14 8 232 787 787 322 877
877;
#X connect 1 0 2 0;
#X connect 3 0 4 0;
#X connect 7 0 8 0;
#X connect 8 0 3 0;
#X connect 8 1 1 0;
#X restore 284 379 pd optional args;
#X text 8 7 netpd-gui-hmenu - a configurable vertical menu;
#X text 10 47 [netpd-gui-hmenu \$0.myvmenu];
#X obj 24 181 s \$0.myvmenu;
#X obj 141 184 r \$0.myvmenu;
#X obj 141 234 print netpd-gui-hmenu;
#X obj 18 91 netpd-gui-hmenu \$0.myvmenu;
#X obj 141 211 route selected;
#X msg 24 156 items binfile else iemlib iemnet osc slip zexy \, width
44;
#X connect 3 0 24 0;
#X connect 20 0 23 0;
#X connect 23 0 21 0;
#X connect 24 0 19 0;
