#N canvas 475 159 453 379 10;
#X obj 27 25 inlet;
#X obj 96 113 b;
#X msg 96 136 0;
#X obj 141 114 b;
#X msg 141 137 1;
#X obj 27 167 list prepend;
#X obj 196 6 inlet;
#X obj 329 171 symbol;
#X obj 329 107 t a b;
#X obj 253 107 t a b;
#X obj 27 333 outlet;
#X obj 112 336 outlet;
#X obj 306 271 pdcontrol;
#X msg 306 245 args 0;
#X obj 96 89 route float symbol bang;
#X obj 186 113 b;
#X msg 186 138 2;
#X obj 27 285 route 0;
#X obj 112 285 route _;
#X msg 280 137 symbol _;
#X msg 356 138 0;
#X obj 306 219 loadbang;
#X obj 253 78 route float symbol, f 26;
#X obj 27 190 route 0 1 2, f 29;
#X obj 196 29 t a a;
#X obj 306 294 list split 1;
#X obj 306 320 t a;
#N canvas 624 258 450 300 list_or_not 0;
#X obj 26 26 inlet;
#X obj 26 207 outlet;
#X obj 26 145 route 0 1;
#X obj 52 173 list append;
#X obj 26 109 list prepend;
#X obj 95 85 r \$0.list_or_not;
#X connect 0 0 4 0;
#X connect 2 0 1 0;
#X connect 2 1 3 0;
#X connect 3 0 1 0;
#X connect 4 0 2 0;
#X connect 5 0 4 1;
#X restore 141 241 pd list_or_not;
#N canvas 624 258 272 213 list_or_not 0;
#X obj 26 26 inlet;
#X obj 26 177 outlet;
#X obj 53 152 s \$0.list_or_not;
#X obj 26 49 t a a;
#X obj 53 75 route list;
#X msg 53 123 1;
#X msg 110 123 0;
#X obj 53 98 b;
#X obj 110 98 b;
#X connect 0 0 3 0;
#X connect 3 0 1 0;
#X connect 3 1 4 0;
#X connect 4 0 7 0;
#X connect 4 1 8 0;
#X connect 5 0 2 0;
#X connect 6 0 2 0;
#X connect 7 0 5 0;
#X connect 8 0 6 0;
#X restore 27 56 pd list_or_not;
#X connect 0 0 28 0;
#X connect 1 0 2 0;
#X connect 2 0 5 1;
#X connect 3 0 4 0;
#X connect 4 0 5 1;
#X connect 5 0 23 0;
#X connect 6 0 24 0;
#X connect 7 0 18 1;
#X connect 8 0 7 0;
#X connect 8 1 20 0;
#X connect 9 0 17 1;
#X connect 9 1 19 0;
#X connect 12 0 25 0;
#X connect 13 0 12 0;
#X connect 14 0 1 0;
#X connect 14 1 3 0;
#X connect 14 2 15 0;
#X connect 15 0 16 0;
#X connect 16 0 5 1;
#X connect 17 0 10 0;
#X connect 17 1 11 0;
#X connect 18 0 10 0;
#X connect 18 1 11 0;
#X connect 19 0 18 1;
#X connect 20 0 17 1;
#X connect 21 0 13 0;
#X connect 22 0 9 0;
#X connect 22 1 8 0;
#X connect 23 0 17 0;
#X connect 23 1 18 0;
#X connect 23 2 27 0;
#X connect 24 0 14 0;
#X connect 24 1 22 0;
#X connect 25 0 26 0;
#X connect 25 2 26 0;
#X connect 26 0 24 0;
#X connect 27 0 11 0;
#X connect 28 0 5 0;
