#N canvas 548 334 329 183 10;
#X obj 26 72 routeOSC /\$2;
#X obj 26 146 outlet;
#X obj 26 110 route foo;
#X msg 88 110 symbol;
#X obj 138 110 loadbang;
#X text 32 93 workaround for bug3426523;
#X obj 26 20 r \$1.NETPD;
#X obj 26 43 route receive;
#X connect 0 0 2 0;
#X connect 2 0 1 0;
#X connect 2 1 1 0;
#X connect 3 0 2 1;
#X connect 4 0 3 0;
#X connect 6 0 7 0;
#X connect 7 0 0 0;
