#N canvas 520 69 343 631 10;
#X declare -stdpath extra/zexy -stdlib extra/zexy;
#X declare -stdpath extra/zexy -stdlib extra/zexy;
#X obj 52 20 cnv 15 174 13 empty \$0.background1.r empty 5 8 1 10 -199731
-1 0;
#X obj 52 34 cnv 12 174 13 empty \$0.background2.r empty 5 6 1 9 -224635
-1 0;
#X symbolatom 51 33 29 0 0 0 - #0.symbolbox.r #0.symbolbox;
#X obj 20 20 bng 27 250 50 0 \$0.button empty empty 34 7 1 9 -199731
-258049 -1;
#X obj 24 20 bng 27 250 50 0 \$0.button empty empty 34 7 1 9 -199731
-258049 -1;
#X obj 21 34 cnv 12 29 12 empty \$0.button2.r empty 5 6 1 9 -224635
-1 0;
#X obj 21 21 cnv 12 29 12 empty \$0.button1.r empty 5 6 1 9 -199731
-1 0;
#N canvas 428 364 708 341 set.colors 0;
#X obj -93 98 netpd-pref-get cr.background1.clr 1;
#X obj -94 19 netpd-pref-get cr.background2.clr 1;
#X obj -96 255 netpd-pref-get cr.display.clr 1;
#X obj -94 175 netpd-pref-get cr.label.clr 1;
#X obj -94 42 netpd-rgb2iem;
#X obj -94 197 netpd-rgb2iem;
#X obj -96 277 netpd-rgb2iem;
#X obj -93 119 netpd-rgb2iem;
#X obj 157 263 s \$0.button1.r;
#X obj 253 262 s \$0.button2.r;
#X obj -93 141 s \$0.bg1.clr;
#X obj -94 63 s \$0.bg2.clr;
#X obj -94 219 s \$0.label.clr;
#X obj -96 299 s \$0.display.clr;
#X msg 253 241 color \$1 -1;
#X msg 157 242 color \$1 -1;
#X obj 274 85 r \$0.bg2.clr;
#X obj 274 145 r \$0.display.clr;
#X obj 274 26 r \$0.bg1.clr;
#X obj 157 32 r \$0.button;
#X obj 191 61 del 200;
#X msg 191 84 0;
#X msg 157 62 1;
#X obj 157 136 sel 0 1;
#X obj 253 216 f;
#X obj 279 216 f;
#X obj 157 115 f;
#X obj 274 167 t b a;
#X obj 274 107 t b a;
#X obj 274 48 t b a;
#X obj 157 218 f;
#X obj 182 218 f;
#X obj 388 128 s \$0.background1.r;
#X obj 394 246 s \$0.background2.r;
#X obj 394 202 r \$0.bg2.clr;
#X msg 394 224 color \$1 -1;
#X obj 388 20 r \$0.bg1.clr;
#X obj 388 87 pack f f;
#X obj 413 44 r \$0.label.clr;
#X obj 413 66 t b a;
#X msg 388 107 color \$1 \$2;
#X connect 0 0 7 0;
#X connect 1 0 4 0;
#X connect 2 0 6 0;
#X connect 3 0 5 0;
#X connect 4 0 11 0;
#X connect 5 0 12 0;
#X connect 6 0 13 0;
#X connect 7 0 10 0;
#X connect 14 0 9 0;
#X connect 15 0 8 0;
#X connect 16 0 28 0;
#X connect 17 0 27 0;
#X connect 18 0 29 0;
#X connect 19 0 20 0;
#X connect 19 0 22 0;
#X connect 20 0 21 0;
#X connect 21 0 26 0;
#X connect 22 0 26 0;
#X connect 23 0 30 0;
#X connect 23 0 24 0;
#X connect 23 1 31 0;
#X connect 23 1 25 0;
#X connect 24 0 14 0;
#X connect 25 0 14 0;
#X connect 26 0 23 0;
#X connect 27 0 26 0;
#X connect 27 1 25 1;
#X connect 27 1 31 1;
#X connect 28 0 26 0;
#X connect 28 1 24 1;
#X connect 29 0 26 0;
#X connect 29 1 30 1;
#X connect 30 0 15 0;
#X connect 31 0 15 0;
#X connect 34 0 35 0;
#X connect 35 0 33 0;
#X connect 36 0 37 0;
#X connect 37 0 40 0;
#X connect 38 0 39 0;
#X connect 39 0 37 0;
#X connect 39 1 37 1;
#X connect 40 0 32 0;
#X restore 26 72 pd set.colors;
#N canvas 456 283 373 116 set.fonts 0;
#X obj 15 19 netpd-pref-get cr.label.fnt 1;
#X msg 15 41 label_font \$1 \$2;
#X obj 15 62 s \$0.background1.r;
#X connect 0 0 1 0;
#X connect 1 0 2 0;
#X restore 117 72 pd set.fonts;
#N canvas 530 393 648 235 set.labels 0;
#X obj 19 176 s \$0.background1.r;
#X msg 170 88 label empty;
#X msg 19 108 list netload patch;
#X obj 19 21 loadbang;
#X obj 19 43 t b b;
#X msg 46 63 32;
#X obj 46 85 makefilename %c;
#X obj 19 130 list append;
#X msg 19 153 label \$1\$3\$2;
#X obj 268 24 loadbang;
#X msg 295 98 32;
#X obj 295 120 makefilename %c;
#X obj 268 155 list append;
#X msg 268 50 list <enter patch name>;
#X obj 268 201 s \$0.symbolbox.r;
#X msg 268 178 set \$1\$4\$2\$4\$3;
#X obj 170 31 inlet;
#X obj 483 21 r \$1.UNPATCH;
#X obj 483 43 route ready;
#X obj 483 65 sel 1 0;
#X msg 502 88 please wait ...;
#X obj 268 78 t a b;
#X connect 1 0 0 0;
#X connect 2 0 7 0;
#X connect 3 0 4 0;
#X connect 4 0 2 0;
#X connect 4 1 5 0;
#X connect 5 0 6 0;
#X connect 6 0 7 1;
#X connect 7 0 8 0;
#X connect 8 0 0 0;
#X connect 9 0 13 0;
#X connect 10 0 11 0;
#X connect 11 0 12 1;
#X connect 12 0 15 0;
#X connect 13 0 21 0;
#X connect 15 0 14 0;
#X connect 16 0 1 0;
#X connect 17 0 18 0;
#X connect 18 0 19 0;
#X connect 19 0 13 0;
#X connect 19 1 20 0;
#X connect 20 0 21 0;
#X connect 21 0 12 0;
#X connect 21 1 10 0;
#X restore 28 126 pd set.labels;
#X obj 28 103 bng 15 250 50 0 empty empty empty 17 7 0 10 -262144 -1
-1;
#X text 47 102 reset labels;
#X obj 33 218 netpd-symbol2list /;
#X obj 33 152 r \$0.button;
#X obj 33 195 openpanel;
#X obj 33 240 t a a;
#X obj 60 261 list length;
#X obj 60 282 - 1;
#X obj 33 303 list split;
#X obj 32 328 netpd-symbol2list .;
#X obj 59 373 list length;
#X obj 59 394 - 1;
#X obj 32 415 list split;
#X obj 32 352 t a a;
#X obj 32 436 list prepend;
#X obj 32 458 route 1 2 3 4;
#X obj 32 479 list;
#X obj 50 479 list;
#X obj 69 479 list;
#X obj 88 479 list;
#X msg 88 502 \$1.\$2.\$3.\$4;
#X obj 32 585 list;
#X msg 69 523 \$1.\$2.\$3;
#X msg 50 542 \$1.\$2;
#X msg 32 562 \$1;
#X obj 33 174 del 210;
#X obj 211 243 r \$0.symbolbox;
#X obj 211 268 s \$2;
#X obj 32 605 s \$2;
#X obj 21 48 cnv 2 205 2 empty empty empty 5 8 1 10 -199731 -1 0;
#X connect 10 0 9 0;
#X connect 12 0 15 0;
#X connect 13 0 35 0;
#X connect 14 0 12 0;
#X connect 15 0 18 0;
#X connect 15 1 16 0;
#X connect 16 0 17 0;
#X connect 17 0 18 1;
#X connect 18 1 19 0;
#X connect 19 0 23 0;
#X connect 20 0 21 0;
#X connect 21 0 22 1;
#X connect 21 0 24 1;
#X connect 22 0 24 0;
#X connect 23 0 22 0;
#X connect 23 1 20 0;
#X connect 24 0 25 0;
#X connect 25 0 26 0;
#X connect 25 1 27 0;
#X connect 25 2 28 0;
#X connect 25 3 29 0;
#X connect 26 0 34 0;
#X connect 27 0 33 0;
#X connect 28 0 32 0;
#X connect 29 0 30 0;
#X connect 30 0 31 0;
#X connect 31 0 38 0;
#X connect 32 0 31 0;
#X connect 33 0 31 0;
#X connect 34 0 31 0;
#X connect 35 0 14 0;
#X connect 36 0 37 0;
#X coords 0 -1 1 1 207 30 2 20 20;
