#N canvas 371 44 503 417 10;
#X obj 0 0 cnv 15 500 30 empty empty empty 20 12 0 14 -233017 -66577
0;
#X obj 20 360 print netpd-find-sync;
#X msg 197 314 no_peer;
#X msg 20 202 find;
#X msg 36 223 ready;
#X msg 45 246 unready;
#X text 258 209 arg1: /name (OSC address field);
#X text 246 238 inlet0: find|ready|unready;
#X text 240 256 outlet0: socket number;
#X text 240 274 outlet1: bang \, when no peer is found;
#X text 7 7 unpatch-find-sync - find peer ready for sync;
#X text 17 48 [unpatch-find-sync] helps syncing states between several
instances of a certain patch in that it tries to find a peer that claims
to hold an up-to-date state. The socket number of the first peer that
answers is output at the left outlet.;
#X text 15 126 This is modified version of [netpd-find-sync] \, adapted
for unpatch. It allows to fragment ready states for different task.
;
#X obj 20 282 unpatch-find-sync /netpd-patch;
#X connect 2 0 1 0;
#X connect 3 0 13 0;
#X connect 4 0 13 0;
#X connect 5 0 13 0;
#X connect 13 0 1 0;
#X connect 13 1 2 0;
