#N canvas 546 145 494 221 10;
#X obj 20 97 s UNPATCH;
#N canvas 19 459 336 145 \$0.singleton.container 0;
#X restore 18 181 pd \$0.singleton.container;
#X obj 20 8 r UNPATCH;
#X obj 20 30 route singleton;
#X obj 20 52 route SYN;
#X msg 20 75 singleton ACK;
#X obj 176 10 r UNPATCH;
#X obj 176 32 route singleton;
#X obj 176 54 route instantiate;
#X obj 372 63 netpd-hash;
#X obj 372 40 r \$0.singl.in;
#X obj 372 84 s \$0.singl.out;
#N canvas 502 254 227 365 check.constraint 0;
#X obj 8 5 inlet;
#X obj 8 332 outlet;
#X obj 8 27 list;
#X msg 8 70 symbol \$1;
#X obj 42 146 s \$0.singl.in;
#X obj 42 168 r \$0.singl.out;
#X msg 42 124 find \$1;
#X obj 42 219 spigot;
#X msg 42 241 1;
#X obj 8 92 t b b a b;
#X msg 25 190 0;
#X msg 75 191 1;
#X msg 73 241 0;
#X obj 8 264 f;
#X obj 8 286 select 0;
#X obj 8 49 t a a;
#X obj 178 178 t a;
#X obj 8 308 list;
#X connect 0 0 2 0;
#X connect 2 0 15 0;
#X connect 3 0 9 0;
#X connect 5 0 7 0;
#X connect 6 0 4 0;
#X connect 7 0 8 0;
#X connect 8 0 13 1;
#X connect 9 0 13 0;
#X connect 9 1 10 0;
#X connect 9 2 6 0;
#X connect 9 3 11 0;
#X connect 9 3 12 0;
#X connect 10 0 7 1;
#X connect 11 0 7 1;
#X connect 12 0 13 1;
#X connect 13 0 14 0;
#X connect 14 0 17 0;
#X connect 15 0 3 0;
#X connect 15 1 16 0;
#X connect 16 0 17 1;
#X connect 17 0 1 0;
#X restore 176 77 pd check.constraint;
#X obj 176 99 t a a;
#N canvas 744 332 175 171 append.to.hash 0;
#X obj 19 8 inlet;
#X obj 19 30 t b a;
#X msg 82 61 symbol \$1;
#X obj 19 59 f;
#X obj 50 60 + 1;
#X obj 19 92 list append;
#X obj 19 136 s \$0.singl.in;
#X msg 19 115 append \$1 \$2;
#X connect 0 0 1 0;
#X connect 1 0 3 0;
#X connect 1 1 2 0;
#X connect 2 0 5 1;
#X connect 3 0 4 0;
#X connect 3 0 5 0;
#X connect 4 0 3 1;
#X connect 5 0 7 0;
#X connect 7 0 6 0;
#X restore 203 120 pd append.to.hash;
#N canvas 594 557 244 224 create.instance 0;
#X obj 17 14 inlet;
#X obj 17 36 t b a;
#X obj 17 76 f 20;
#X obj 52 77 + 20;
#X obj 17 133 list append;
#X msg 17 102 obj 20 \$1;
#X obj 17 155 list trim;
#X obj 17 177 s pd-\$0.singleton.container;
#X connect 0 0 1 0;
#X connect 1 0 2 0;
#X connect 1 1 4 1;
#X connect 2 0 3 0;
#X connect 2 0 5 0;
#X connect 3 0 2 1;
#X connect 4 0 6 0;
#X connect 5 0 4 0;
#X connect 6 0 7 0;
#X restore 176 141 pd create.instance;
#X connect 2 0 3 0;
#X connect 3 0 4 0;
#X connect 4 0 5 0;
#X connect 5 0 0 0;
#X connect 6 0 7 0;
#X connect 7 0 8 0;
#X connect 8 0 12 0;
#X connect 9 0 11 0;
#X connect 10 0 9 0;
#X connect 12 0 13 0;
#X connect 13 0 15 0;
#X connect 13 1 14 0;
