#N canvas 535 99 828 527 10;
#X obj 23 22 inlet;
#X obj 69 99 list prepend $ 1;
#X obj 42 364 list prepend add;
#X obj 42 385 list trim;
#X obj 42 490 textfile;
#X msg 179 369 clear;
#N canvas 112 161 311 420 read_template_patch 0;
#X obj 30 17 inlet;
#X obj 30 99 textfile;
#X obj 30 41 t b b;
#X obj 30 67 until;
#X msg 74 67 read unpatch-template.pd \, rewind;
#X obj 49 164 route #X;
#X obj 49 186 route msg;
#X obj 49 252 route PLACEHOLDER;
#X obj 49 276 route NETPD_HEAD GUI;
#X msg 49 230 \$3 \$4 \$1 \$2;
#X obj 30 121 t a a b;
#X msg 69 142 1;
#X obj 30 349 spigot 1;
#X obj 49 298 t a b;
#X obj 107 298 t a b;
#X msg 134 324 0;
#X obj 103 378 outlet;
#X obj 152 379 outlet;
#X obj 30 377 outlet;
#X obj 49 209 list split 4;
#X connect 0 0 2 0;
#X connect 1 0 10 0;
#X connect 1 1 3 1;
#X connect 2 0 3 0;
#X connect 2 1 4 0;
#X connect 3 0 1 0;
#X connect 4 0 1 0;
#X connect 5 0 6 0;
#X connect 6 0 19 0;
#X connect 7 0 8 0;
#X connect 8 0 13 0;
#X connect 8 1 14 0;
#X connect 9 0 7 0;
#X connect 10 0 12 0;
#X connect 10 1 5 0;
#X connect 10 2 11 0;
#X connect 11 0 12 1;
#X connect 12 0 18 0;
#X connect 13 0 16 0;
#X connect 13 1 15 0;
#X connect 14 0 17 0;
#X connect 14 1 15 0;
#X connect 15 0 12 1;
#X connect 19 0 9 0;
#X restore 42 142 pd read_template_patch;
#X obj 42 77 t b a;
#X obj 106 268 list append;
#X obj 171 165 list append;
#X obj 42 319 t a;
#X obj 23 44 t a a b;
#X msg 106 293 #X obj \$1 \$2 netpd_head \$3\$4 \$5;
#X obj 165 398 loadbang;
#X obj 165 421 netpd-pref-get netpd-instruments-path;
#X obj 23 424 list prepend;
#X msg 23 451 write \$1/\$2.pd;
#X msg 171 189 #N canvas 607 190 450 300 \$3\$4-\$5 1 \, #X text 21
36 [ PUT YOUR GUI STUFF HERE ... ] \, #X text 26 88 To see the main
patch use the menu: \, #X text 47 112 'Window' -> 'Parent Window' \,
#X restore \$1 \$2 pd \$3\$4-\$5;
#X connect 0 0 11 0;
#X connect 1 0 8 1;
#X connect 1 0 9 1;
#X connect 2 0 3 0;
#X connect 3 0 4 0;
#X connect 5 0 4 0;
#X connect 6 0 10 0;
#X connect 6 1 8 0;
#X connect 6 2 9 0;
#X connect 7 0 6 0;
#X connect 7 1 1 0;
#X connect 8 0 12 0;
#X connect 9 0 17 0;
#X connect 10 0 2 0;
#X connect 11 0 15 0;
#X connect 11 1 7 0;
#X connect 11 2 5 0;
#X connect 12 0 10 0;
#X connect 13 0 14 0;
#X connect 14 0 15 1;
#X connect 15 0 16 0;
#X connect 16 0 4 0;
#X connect 17 0 10 0;
