#N canvas 230 264 280 469 10;
#N canvas 408 94 355 442 get.data 0;
#X obj 78 140 r NETPD;
#X obj 78 115 s NETPD;
#X msg 78 90 to /g/unpatch/patchlist/request;
#X obj 78 182 route preset;
#X msg 61 374 to /g/\$1/\$2/dump/request;
#X obj 61 399 s NETPD;
#X msg 61 351;
#X msg 61 327 bang \, set;
#X obj 44 61 t b b b b;
#X obj 78 161 spigot 0;
#X msg 134 129 1;
#X msg 44 125 0;
#X obj 78 204 routeOSC /unpatch;
#X msg 78 305 add2 \$1 \$2 \, addcomma;
#X obj 78 258 t a a;
#X msg 105 281 /unpatch/netload \$1 \$2;
#X obj 245 322 t a;
#X obj 78 236 routeOSC /netload /synced;
#X msg 151 259 /unpatch/synced;
#X obj 245 344 outlet;
#X obj 44 34 inlet;
#X connect 0 0 9 0;
#X connect 2 0 1 0;
#X connect 3 0 12 0;
#X connect 4 0 5 0;
#X connect 6 0 4 0;
#X connect 7 0 6 0;
#X connect 8 0 11 0;
#X connect 8 1 7 0;
#X connect 8 2 2 0;
#X connect 8 3 10 0;
#X connect 9 0 3 0;
#X connect 10 0 9 1;
#X connect 11 0 9 1;
#X connect 12 0 17 0;
#X connect 12 1 16 0;
#X connect 13 0 6 0;
#X connect 14 0 13 0;
#X connect 14 1 15 0;
#X connect 15 0 16 0;
#X connect 16 0 19 0;
#X connect 17 0 14 0;
#X connect 17 1 18 0;
#X connect 18 0 16 0;
#X connect 20 0 8 0;
#X restore 36 222 pd get.data;
#X obj 17 406 textfile;
#X obj 36 244 list prepend add;
#X obj 36 266 list trim;
#X obj 17 199 t b b b;
#X msg 17 372 write \$1 cr;
#X msg 56 352 clear;
#X obj 17 289 savepanel;
#X obj 23 20 hsl 35 13 0 127 0 0 \$0.button.s empty empty -2 -8 0 10
-262144 -1 -1 0 1;
#X obj 20 20 cnv 13 40 13 empty \$0.button.r save 2 8 1 10 -199731
-1 0;
#N canvas 547 364 371 356 set.colors 0;
#X obj 123 83 netpd-pref-get cr.display.clr 1;
#X obj 30 189 netpd-pref-get cr.label.clr 1;
#X obj 12 252 pack f f;
#X obj 30 230 t b a;
#X msg 12 274 color \$1 \$2;
#X obj 12 31 netpd-rgb2iem;
#X obj 30 211 netpd-rgb2iem;
#X obj 123 107 netpd-rgb2iem;
#X obj 12 10 netpd-pref-get cr.background1.clr 1;
#X obj 81 60 r \$0.click;
#X obj 12 296 s \$0.button.r;
#X obj 12 136 f;
#X obj 108 135 f;
#X obj 26 108 r \$0.done;
#X obj 28 82 del 1000;
#X connect 0 0 7 0;
#X connect 1 0 6 0;
#X connect 2 0 4 0;
#X connect 3 0 2 0;
#X connect 3 1 2 1;
#X connect 4 0 10 0;
#X connect 5 0 11 0;
#X connect 6 0 3 0;
#X connect 7 0 12 1;
#X connect 8 0 5 0;
#X connect 9 0 12 0;
#X connect 9 0 14 0;
#X connect 11 0 2 0;
#X connect 12 0 2 0;
#X connect 13 0 11 0;
#X connect 14 0 11 0;
#X restore 25 437 pd set.colors;
#N canvas 268 603 247 107 set.fonts 0;
#X obj 20 26 netpd-pref-get cr.label.fnt 1;
#X msg 20 48 label_font \$1 \$2;
#X obj 20 69 s \$0.save.r;
#X connect 0 0 1 0;
#X connect 1 0 2 0;
#X restore 116 437 pd set.fonts;
#X obj 17 78 t a a;
#X obj 17 100 -;
#X obj 17 122 sel 0;
#X obj 17 58 r \$0.button.s;
#X obj 44 173 s \$0.click;
#X obj 17 144 t b b;
#X obj 17 311 t a b;
#X obj 79 313 s \$0.done;
#X connect 0 0 2 0;
#X connect 2 0 3 0;
#X connect 3 0 1 0;
#X connect 4 0 7 0;
#X connect 4 1 0 0;
#X connect 4 2 6 0;
#X connect 5 0 1 0;
#X connect 6 0 1 0;
#X connect 7 0 18 0;
#X connect 12 0 13 1;
#X connect 12 1 13 0;
#X connect 13 0 14 0;
#X connect 14 0 17 0;
#X connect 15 0 12 0;
#X connect 17 0 4 0;
#X connect 17 1 16 0;
#X connect 18 0 5 0;
#X connect 18 1 19 0;
#X coords 0 -1 1 1 40 13 2 20 20;
