#N canvas 535 55 426 401 10;
#X obj 23 22 inlet;
#X obj 23 299 outlet;
#X obj 23 44 t b a;
#X obj 23 115 list append;
#X msg 23 143 #N canvas 585 170 426 287 10 \, #N canvas 624 75 373
157 NETPD 0 \, #X msg 12 8 version 0 0 0 \, #N canvas 954 301 289 192
abslist 0 \, #X text 7 7 Add here dependencies of your netpd-patch:
\, #X restore 12 33 pd abslist \, #X text 106 7 <- update the version
of this netpd-patch \, #X restore 10 14 pd NETPD 2 0 \, #N canvas 624
348 433 148 \$1-\$2 1 \, #X text 23 16 Put your GUI stuff here....
\, #X restore 10 66 pd \$1-\$2 \, #X obj 10 40 netpd_head \$1 \$2 \,
#X text 158 16 <- put netpd-patch meta tags here \, #X text 158 39
<- this manages patch state synchorization \, #X text 158 66 <- this
is your new patch's GUI canvas;
#X msg 23 66 list $ 1;
#X msg 23 87 symbol \$1\$2;
#X connect 0 0 2 0;
#X connect 2 0 5 0;
#X connect 2 1 3 1;
#X connect 3 0 4 0;
#X connect 4 0 1 0;
#X connect 5 0 6 0;
#X connect 6 0 3 0;
