#N canvas 451 44 507 641 10;
#X obj 19 72 openpanel;
#X obj 38 502 list prepend to;
#X obj 38 524 list trim;
#X obj 38 595 s NETPD;
#N canvas 326 109 450 300 turn-dsp-off 0;
#X obj 96 10 inlet;
#N canvas 462 254 178 271 get-dsp-status 0;
#X obj 29 30 inlet;
#X obj 29 52 t b b;
#X msg 56 74 status get dsp;
#X obj 56 96 s NETPD;
#X obj 56 118 r NETPD;
#X obj 56 140 route status;
#X obj 56 162 route dsp;
#X obj 29 188 f;
#X obj 29 210 outlet;
#X connect 0 0 1 0;
#X connect 1 0 7 0;
#X connect 1 1 2 0;
#X connect 2 0 3 0;
#X connect 4 0 5 0;
#X connect 5 0 6 0;
#X connect 6 0 7 1;
#X connect 7 0 8 0;
#X restore 135 63 pd get-dsp-status;
#X obj 284 24 inlet;
#X obj 96 32 t a b b;
#X obj 199 137 f;
#X obj 284 46 b;
#X msg 199 168 dsp \$1;
#X obj 199 190 s pd;
#X msg 115 97 0;
#X connect 0 0 3 0;
#X connect 1 0 4 1;
#X connect 2 0 5 0;
#X connect 3 1 8 0;
#X connect 3 2 1 0;
#X connect 4 0 6 0;
#X connect 5 0 4 0;
#X connect 6 0 7 0;
#X connect 8 0 6 0;
#X restore 244 225 pd turn-dsp-off;
#N canvas 268 631 247 107 set.fonts 0;
#X obj 20 26 netpd-pref-get cr.label.fnt 1;
#X msg 20 48 label_font \$1 \$2;
#X obj 20 69 s \$0.save.r;
#X connect 0 0 1 0;
#X connect 1 0 2 0;
#X restore 372 601 pd set.fonts;
#X obj 196 73 t a a;
#X obj 196 96 -;
#X obj 196 117 sel 0;
#X obj 196 14 r \$0.button.s;
#X obj 23 20 hsl 35 13 0 127 0 0 \$0.button.s empty empty -2 -8 0 10
-262144 -1 -1 0 1;
#X obj 20 20 cnv 13 40 13 empty \$0.button.r load 2 8 1 10 -199731
-1 0;
#N canvas 547 364 371 356 set.colors 0;
#X obj 123 83 netpd-pref-get cr.display.clr 1;
#X obj 30 189 netpd-pref-get cr.label.clr 1;
#X obj 12 252 pack f f;
#X obj 30 230 t b a;
#X msg 12 274 color \$1 \$2;
#X obj 12 31 netpd-rgb2iem;
#X obj 30 211 netpd-rgb2iem;
#X obj 123 107 netpd-rgb2iem;
#X obj 12 10 netpd-pref-get cr.background1.clr 1;
#X obj 12 296 s \$0.button.r;
#X obj 12 136 f;
#X obj 108 135 f;
#X obj 27 98 r \$0.done;
#X obj 81 60 r \$0.load;
#X connect 0 0 7 0;
#X connect 1 0 6 0;
#X connect 2 0 4 0;
#X connect 3 0 2 0;
#X connect 3 1 2 1;
#X connect 4 0 9 0;
#X connect 5 0 10 0;
#X connect 6 0 3 0;
#X connect 7 0 11 1;
#X connect 8 0 5 0;
#X connect 10 0 2 0;
#X connect 11 0 2 0;
#X connect 12 0 10 0;
#X connect 13 0 11 0;
#X restore 284 601 pd set.colors;
#X obj 196 41 spigot 1;
#X msg 269 66 0;
#X obj 269 88 r \$0.done;
#X msg 269 110 1;
#X obj 269 44 r \$0.load;
#X obj 70 134 s \$0.load;
#X obj 38 546 t a b;
#X msg 65 569 receiver l;
#X obj 19 215 netpd-nb-until;
#X obj 114 215 r \$0.done;
#X obj 38 334 unpackOSC;
#X obj 224 295 packOSC;
#X msg 224 272 /unpatch/netcloseall;
#X msg 19 153 38;
#X obj 19 101 t b a b;
#X obj 331 198 r \$0.done;
#N canvas 641 236 416 430 check_format_version 0;
#X obj 75 17 inlet;
#X obj 60 383 outlet;
#X obj 75 40 routeOSC /netpd/preset/format;
#X msg 75 85 \$1 \$2 0;
#X obj 198 66 r \$0.preset.format;
#X msg 198 88 \$1 \$2 0;
#X obj 75 111 netpd-version-compare;
#X obj 60 138 r \$0.untiled;
#X obj 152 158 r \$0.load;
#X obj 60 260 f;
#X msg 152 180 -3;
#X msg 186 179 0;
#X obj 191 218 t b a;
#X obj 191 241 s \$0.done;
#X obj 134 394 netpd-error unpatch;
#X obj 218 293 b;
#X obj 218 314 list append;
#X obj 75 62 t a a;
#X msg 134 371 preset format version not supported: \$1 \$2;
#X msg 60 333 1;
#X obj 60 177 f;
#X msg 123 180 1;
#X obj 60 199 sel 1;
#X obj 60 221 t b b;
#X msg 106 212 0;
#X obj 82 313 s \$0.try.old.format;
#X obj 60 291 sel 0 -3;
#X obj 218 267 sel -1 1;
#X connect 0 0 2 0;
#X connect 2 0 17 0;
#X connect 3 0 6 0;
#X connect 4 0 5 0;
#X connect 5 0 6 1;
#X connect 6 0 9 1;
#X connect 7 0 20 0;
#X connect 8 0 10 0;
#X connect 8 0 11 0;
#X connect 8 0 21 0;
#X connect 9 0 26 0;
#X connect 10 0 9 1;
#X connect 11 0 1 0;
#X connect 12 0 13 0;
#X connect 12 1 27 0;
#X connect 15 0 16 0;
#X connect 16 0 18 0;
#X connect 17 0 3 0;
#X connect 17 1 16 1;
#X connect 18 0 14 0;
#X connect 19 0 1 0;
#X connect 20 0 22 0;
#X connect 21 0 20 1;
#X connect 22 0 23 0;
#X connect 23 0 9 0;
#X connect 23 1 24 0;
#X connect 24 0 20 1;
#X connect 26 0 19 0;
#X connect 26 1 25 0;
#X connect 26 2 12 0;
#X connect 27 0 15 0;
#X connect 27 1 15 0;
#X restore 65 388 pd check_format_version;
#X obj 38 366 t a a;
#X obj 38 478 spigot 0;
#X obj 357 12 loadbang;
#X obj 357 34 \$0;
#X msg 357 56 \; \$1.preset.format 2 0;
#X obj 19 241 s \$0.untiled;
#X obj 65 410 t a a;
#X obj 65 434 sel 1;
#X obj 65 456 s \$0.flush;
#X obj 205 154 r \$0.flush;
#X obj 205 186 t b b b;
#N canvas 914 112 450 300 slipdec 0;
#X obj 15 15 inlet;
#X obj 15 255 outlet;
#X obj 15 188 slipdec 65536;
#X text 66 13 we need to make sure to clear [slipdec]'s buffer if we
received non-slip data before proceeding. Otherwise garbage is sent
to [unpackOSC];
#X obj 15 213 spigot 1;
#X obj 90 59 r \$0.done;
#X obj 90 81 t b b b;
#X msg 129 102 0;
#X msg 109 123 192;
#X msg 90 151 1;
#X connect 0 0 2 0;
#X connect 2 0 4 0;
#X connect 4 0 1 0;
#X connect 5 0 6 0;
#X connect 6 0 9 0;
#X connect 6 1 8 0;
#X connect 6 2 7 0;
#X connect 7 0 4 1;
#X connect 8 0 2 0;
#X connect 9 0 4 1;
#X restore 38 306 pd slipdec;
#N canvas 193 44 667 506 binary_vs_text 0;
#X obj 77 222 s \$0.done;
#X obj 26 222 binfile;
#X obj 77 222 s \$0.done;
#X obj 26 19 inlet;
#X obj 26 292 outlet;
#X obj 312 21 inlet;
#X msg 47 201 read \$1 \, rewind;
#X obj 189 148 symbol;
#X obj 189 199 textfile;
#X obj 26 129 f;
#X obj 26 154 sel 0 1;
#X obj 189 399 outlet;
#X obj 164 24 r \$0.try.old.format;
#X obj 41 42 r \$0.load;
#X msg 41 64 0;
#X msg 203 75 1;
#X obj 164 46 t b b b;
#X obj 234 224 s \$0.done;
#X msg 189 173 read \$1 cr \, rewind \, bang;
#X obj 214 304 route /unpatch/netload;
#X obj 189 257 list prepend 0;
#X obj 189 279 route 1 0;
#X msg 310 276 1;
#X obj 214 369 s \$0.flush;
#X msg 311 211 rewind;
#X obj 310 232 r \$0.load;
#X msg 310 254 0;
#X msg 343 346 not a valid preset file;
#X obj 343 368 netpd-error unpatch;
#X obj 343 325 b;
#X obj 305 417 print UNPATCH;
#X msg 305 396 old preset format detected;
#X obj 214 326 t b b b b;
#X connect 1 0 4 0;
#X connect 1 2 0 0;
#X connect 3 0 9 0;
#X connect 5 0 7 1;
#X connect 5 0 6 0;
#X connect 6 0 1 0;
#X connect 7 0 18 0;
#X connect 8 0 20 0;
#X connect 8 1 17 0;
#X connect 9 0 10 0;
#X connect 10 0 1 0;
#X connect 10 1 8 0;
#X connect 12 0 16 0;
#X connect 13 0 14 0;
#X connect 14 0 9 1;
#X connect 15 0 9 1;
#X connect 16 0 7 0;
#X connect 16 2 15 0;
#X connect 18 0 8 0;
#X connect 19 0 32 0;
#X connect 19 1 29 0;
#X connect 20 0 21 0;
#X connect 21 0 11 0;
#X connect 21 1 19 0;
#X connect 22 0 20 1;
#X connect 24 0 8 0;
#X connect 25 0 26 0;
#X connect 26 0 20 1;
#X connect 27 0 28 0;
#X connect 29 0 27 0;
#X connect 31 0 30 0;
#X connect 32 0 23 0;
#X connect 32 1 24 0;
#X connect 32 2 22 0;
#X connect 32 3 31 0;
#X restore 38 277 pd binary_vs_text;
#X connect 0 0 27 0;
#X connect 1 0 2 0;
#X connect 2 0 19 0;
#X connect 6 0 7 1;
#X connect 6 1 7 0;
#X connect 7 0 8 0;
#X connect 8 0 0 0;
#X connect 9 0 13 0;
#X connect 13 0 6 0;
#X connect 14 0 13 1;
#X connect 15 0 16 0;
#X connect 16 0 13 1;
#X connect 17 0 14 0;
#X connect 19 0 3 0;
#X connect 19 1 20 0;
#X connect 20 0 3 0;
#X connect 21 0 35 0;
#X connect 21 1 42 0;
#X connect 22 0 21 1;
#X connect 23 0 30 0;
#X connect 24 0 23 0;
#X connect 25 0 24 0;
#X connect 26 0 21 0;
#X connect 27 0 26 0;
#X connect 27 1 42 1;
#X connect 27 2 18 0;
#X connect 28 0 4 1;
#X connect 29 0 36 0;
#X connect 30 0 31 0;
#X connect 30 1 29 0;
#X connect 31 0 1 0;
#X connect 32 0 33 0;
#X connect 33 0 34 0;
#X connect 36 0 37 0;
#X connect 36 1 31 1;
#X connect 37 0 38 0;
#X connect 39 0 40 0;
#X connect 40 0 21 0;
#X connect 40 1 25 0;
#X connect 40 2 4 0;
#X connect 41 0 23 0;
#X connect 42 0 41 0;
#X connect 42 1 30 0;
#X coords 0 -1 1 1 40 13 2 20 20;
