#N canvas 502 72 275 509 10;
#N canvas 408 94 345 539 get.data 0;
#X obj 78 140 r NETPD;
#X obj 78 182 route preset;
#X msg 61 327 bang \, set;
#X obj 44 61 t b b b b;
#X obj 78 161 spigot 0;
#X msg 134 129 1;
#X msg 44 125 0;
#X obj 78 204 routeOSC /unpatch;
#X msg 78 305 add2 \$1 \$2 \, addcomma;
#X obj 78 258 t a a;
#X msg 105 281 /unpatch/netload \$1 \$2;
#X obj 245 322 t a;
#X obj 78 236 routeOSC /netload /synced;
#X msg 151 259 /unpatch/synced;
#X obj 245 506 outlet;
#X obj 44 34 inlet;
#X obj 78 90 netpd-s /unpatch/patchlist/request g;
#X obj 61 420 netpd-s;
#X msg 61 374 OSC /\$1/\$2/dump/request;
#X obj 147 397 loadbang;
#X msg 147 419 symbol g;
#X msg 61 350;
#X obj 245 456 packOSC;
#X obj 245 478 slipenc 65536;
#X text 44 469 convert to binary OSC format ->;
#X connect 0 0 4 0;
#X connect 1 0 7 0;
#X connect 2 0 21 0;
#X connect 3 0 6 0;
#X connect 3 1 2 0;
#X connect 3 2 16 0;
#X connect 3 3 5 0;
#X connect 4 0 1 0;
#X connect 5 0 4 1;
#X connect 6 0 4 1;
#X connect 7 0 12 0;
#X connect 7 1 11 0;
#X connect 8 0 21 0;
#X connect 9 0 8 0;
#X connect 9 1 10 0;
#X connect 10 0 11 0;
#X connect 11 0 22 0;
#X connect 12 0 9 0;
#X connect 12 1 13 0;
#X connect 13 0 11 0;
#X connect 15 0 3 0;
#X connect 18 0 17 0;
#X connect 19 0 20 0;
#X connect 20 0 17 1;
#X connect 21 0 18 0;
#X connect 22 0 23 0;
#X connect 23 0 14 0;
#X restore 34 246 pd get.data;
#X obj 34 272 list prepend add;
#X obj 34 294 list trim;
#X msg 68 373 clear;
#X obj 17 317 savepanel;
#X obj 23 20 hsl 35 13 0 127 0 0 \$0.button.s empty empty -2 -8 0 10
-262144 -1 -1 0 1;
#X obj 20 20 cnv 13 40 13 empty \$0.button.r save 2 8 1 10 -199731
-1 0;
#N canvas 547 364 371 356 set.colors 0;
#X obj 123 83 netpd-pref-get cr.display.clr 1;
#X obj 30 189 netpd-pref-get cr.label.clr 1;
#X obj 12 252 pack f f;
#X obj 30 230 t b a;
#X msg 12 274 color \$1 \$2;
#X obj 12 31 netpd-rgb2iem;
#X obj 30 211 netpd-rgb2iem;
#X obj 123 107 netpd-rgb2iem;
#X obj 12 10 netpd-pref-get cr.background1.clr 1;
#X obj 81 60 r \$0.click;
#X obj 12 296 s \$0.button.r;
#X obj 12 136 f;
#X obj 108 135 f;
#X obj 26 108 r \$0.done;
#X obj 28 82 del 1000;
#X connect 0 0 7 0;
#X connect 1 0 6 0;
#X connect 2 0 4 0;
#X connect 3 0 2 0;
#X connect 3 1 2 1;
#X connect 4 0 10 0;
#X connect 5 0 11 0;
#X connect 6 0 3 0;
#X connect 7 0 12 1;
#X connect 8 0 5 0;
#X connect 9 0 12 0;
#X connect 9 0 14 0;
#X connect 11 0 2 0;
#X connect 12 0 2 0;
#X connect 13 0 11 0;
#X connect 14 0 11 0;
#X restore 17 459 pd set.colors;
#N canvas 268 603 247 107 set.fonts 0;
#X obj 20 26 netpd-pref-get cr.label.fnt 1;
#X msg 20 48 label_font \$1 \$2;
#X obj 20 69 s \$0.save.r;
#X connect 0 0 1 0;
#X connect 1 0 2 0;
#X restore 108 459 pd set.fonts;
#X obj 17 78 t a a;
#X obj 17 100 -;
#X obj 17 122 sel 0;
#X obj 17 58 r \$0.button.s;
#X obj 44 173 s \$0.click;
#X obj 17 144 t b b;
#X obj 17 339 t a b;
#X obj 79 341 s \$0.done;
#X msg 17 400 write \$1;
#X obj 17 434 binfile;
#X obj 17 199 t b b b b;
#N canvas 0 44 419 214 header 0;
#X msg 27 81 192 47 110 101 116 112 100 47 112 114 101 115 101 116
47 102 111 114 109 97 116 0 0 0 0 44 105 105 0 0 0 0 2 0 0 0 0 192
;
#X obj 27 22 inlet;
#X obj 27 152 outlet;
#X text 53 59 /netpd/preset/format 2 0;
#X connect 0 0 2 0;
#X connect 1 0 0 0;
#X restore 51 224 pd header;
#X connect 0 0 1 0;
#X connect 1 0 2 0;
#X connect 2 0 18 0;
#X connect 3 0 18 0;
#X connect 4 0 15 0;
#X connect 9 0 10 1;
#X connect 9 1 10 0;
#X connect 10 0 11 0;
#X connect 11 0 14 0;
#X connect 12 0 9 0;
#X connect 14 0 19 0;
#X connect 14 1 13 0;
#X connect 15 0 17 0;
#X connect 15 1 16 0;
#X connect 17 0 18 0;
#X connect 19 0 4 0;
#X connect 19 1 0 0;
#X connect 19 2 20 0;
#X connect 19 3 3 0;
#X connect 20 0 1 0;
#X coords 0 -1 1 1 40 13 2 20 20;
