#N canvas 535 99 609 507 10;
#X obj 23 22 inlet;
#X obj 69 99 list prepend $ 1;
#X obj 42 334 list prepend add;
#X obj 42 355 list trim;
#X obj 42 460 textfile;
#X msg 179 339 clear;
#N canvas 87 169 341 389 read_template_patch 0;
#X obj 30 17 inlet;
#X obj 30 99 textfile;
#X obj 30 41 t b b;
#X obj 30 67 until;
#X msg 74 67 read unpatch-template.pd \, rewind;
#X obj 49 164 route #X;
#X obj 49 186 route msg;
#X obj 49 232 route PLACEHOLDER;
#X obj 49 256 route NETPD_HEAD GUI;
#X msg 49 210 \$3 \$4 \$1 \$2;
#X obj 30 121 t a a b;
#X msg 69 142 1;
#X obj 30 329 spigot 1;
#X obj 49 278 t a b;
#X obj 107 278 t a b;
#X msg 134 304 0;
#X obj 103 358 outlet;
#X obj 152 359 outlet;
#X obj 30 357 outlet;
#X connect 0 0 2 0;
#X connect 1 0 10 0;
#X connect 1 1 3 1;
#X connect 2 0 3 0;
#X connect 2 1 4 0;
#X connect 3 0 1 0;
#X connect 4 0 1 0;
#X connect 5 0 6 0;
#X connect 6 0 9 0;
#X connect 7 0 8 0;
#X connect 8 0 13 0;
#X connect 8 1 14 0;
#X connect 9 0 7 0;
#X connect 10 0 12 0;
#X connect 10 1 5 0;
#X connect 10 2 11 0;
#X connect 11 0 12 1;
#X connect 12 0 18 0;
#X connect 13 0 16 0;
#X connect 13 1 15 0;
#X connect 14 0 17 0;
#X connect 14 1 15 0;
#X connect 15 0 12 1;
#X restore 42 142 pd read_template_patch;
#X obj 42 77 t b a;
#X obj 106 216 list append;
#X msg 182 203 #N canvas 694 109 426 339 \$3\$4-\$5 1 \, #X text 96
145 [ PUT YOUR GUI STUFF HERE ... ] \, #X restore \$1 \$2 pd \$3\$4-\$5
;
#X obj 182 180 list append;
#X obj 42 289 t a;
#X obj 23 44 t a a b;
#X msg 106 241 #X obj \$1 \$2 netpd_head \$3\$4 \$5;
#X obj 165 368 loadbang;
#X obj 165 391 netpd-pref-get netpd-instruments-path;
#X obj 23 394 list prepend;
#X msg 23 421 write \$1/\$2.pd;
#X connect 0 0 12 0;
#X connect 1 0 8 1;
#X connect 1 0 10 1;
#X connect 2 0 3 0;
#X connect 3 0 4 0;
#X connect 5 0 4 0;
#X connect 6 0 11 0;
#X connect 6 1 8 0;
#X connect 6 2 10 0;
#X connect 7 0 6 0;
#X connect 7 1 1 0;
#X connect 8 0 13 0;
#X connect 9 0 11 0;
#X connect 10 0 9 0;
#X connect 11 0 2 0;
#X connect 12 0 16 0;
#X connect 12 1 7 0;
#X connect 12 2 5 0;
#X connect 13 0 11 0;
#X connect 14 0 15 0;
#X connect 15 0 16 1;
#X connect 16 0 17 0;
#X connect 17 0 4 0;
