#N canvas 411 332 523 329 10;
#X obj 211 13 r \$1.scrollbar;
#X obj 211 36 route pos;
#X obj 211 104 text get \$1.instr.list;
#X obj 211 59 + \$2;
#X obj 361 186 unpack s f;
#X msg 361 257 label \$1;
#X obj 361 280 s \$0.label;
#X msg 211 229 symbol empty;
#N canvas 317 162 450 338 colors 0;
#X obj 212 253 netpd-rgb2iem;
#X msg 23 147 64 64 64;
#X obj 168 155 t b a;
#X obj 212 228 r \$0.to.iem;
#X obj 212 276 s \$0.from.iem;
#X obj 212 156 s \$0.to.iem;
#X obj 198 178 r \$0.from.iem;
#X obj 168 177 f;
#X obj 23 97 sel 1 0;
#X obj 23 171 t b a;
#X obj 67 172 s \$0.to.iem;
#X obj 53 194 r \$0.from.iem;
#X obj 23 193 f;
#X obj 168 102 loadbang;
#X obj 23 225 list prepend;
#X msg 23 248 color \$1 \$1 \$2;
#X obj 23 271 s \$0.label;
#X msg 168 129 240 240 240;
#X obj 23 26 inlet;
#X obj 130 11 r \$0.flash;
#X msg 42 124 184 184 184;
#X msg 266 128 184 184 184;
#X obj 23 64 f;
#X obj 130 34 t b b b;
#X obj 171 80 t b b;
#X obj 171 57 del 120;
#X connect 0 0 4 0;
#X connect 1 0 9 0;
#X connect 2 0 7 0;
#X connect 2 1 5 0;
#X connect 3 0 0 0;
#X connect 6 0 7 1;
#X connect 7 0 14 1;
#X connect 8 0 1 0;
#X connect 8 1 20 0;
#X connect 9 0 12 0;
#X connect 9 1 10 0;
#X connect 11 0 12 1;
#X connect 12 0 14 0;
#X connect 13 0 17 0;
#X connect 14 0 15 0;
#X connect 15 0 16 0;
#X connect 17 0 2 0;
#X connect 18 0 22 0;
#X connect 19 0 23 0;
#X connect 20 0 9 0;
#X connect 21 0 2 0;
#X connect 22 0 8 0;
#X connect 23 0 22 0;
#X connect 23 1 21 0;
#X connect 23 2 25 0;
#X connect 24 0 22 0;
#X connect 24 1 17 0;
#X connect 25 0 24 0;
#X restore 418 210 pd colors;
#X obj 23 20 hsl 139 20 0 127 0 0 \$0.click empty empty -2 -8 0 10
-262144 -1 -1 0 1;
#X obj 20 20 cnv 15 144 20 empty \$0.label empty 10 12 0 14 -249661
-191407 0;
#X obj 102 110 r \$0.click;
#X obj 102 134 sel;
#X obj 132 133 t a;
#X obj 268 155 t a a a, f 16;
#X msg 268 179 \$2;
#X obj 102 168 spigot;
#X msg 285 207 symbol \$1;
#X obj 102 198 symbol;
#X obj 171 294 s \$1.load;
#X obj 330 8 r \$1.refresh;
#X obj 330 31 b;
#X obj 211 82 f;
#X obj 211 127 route bang;
#X obj 102 220 select empty;
#X obj 171 250 t a b;
#X obj 198 274 s \$0.flash;
#X connect 0 0 1 0;
#X connect 1 0 3 0;
#X connect 2 0 23 0;
#X connect 3 0 22 0;
#X connect 4 0 5 0;
#X connect 4 1 8 0;
#X connect 5 0 6 0;
#X connect 7 0 5 0;
#X connect 7 0 18 1;
#X connect 11 0 12 0;
#X connect 12 0 16 0;
#X connect 12 1 13 0;
#X connect 13 0 12 1;
#X connect 14 0 15 0;
#X connect 14 1 17 0;
#X connect 14 2 4 0;
#X connect 15 0 16 1;
#X connect 16 0 18 0;
#X connect 17 0 18 1;
#X connect 18 0 24 0;
#X connect 20 0 21 0;
#X connect 21 0 3 0;
#X connect 22 0 2 0;
#X connect 23 0 7 0;
#X connect 23 1 14 0;
#X connect 24 1 25 0;
#X connect 25 0 19 0;
#X connect 25 1 26 0;
#X coords 0 2 1 1 144 20 2 20 20;
