#N canvas 607 79 570 296 10;
#X obj 24 201 s \$0.scrollbar;
#X obj 20 20 unpatch-instrument-picker-row \$0 0;
#X obj 20 40 unpatch-instrument-picker-row \$0 1;
#X obj 20 60 unpatch-instrument-picker-row \$0 2;
#X obj 20 80 unpatch-instrument-picker-row \$0 3;
#X obj 20 100 unpatch-instrument-picker-row \$0 4;
#X obj 20 120 unpatch-instrument-picker-row \$0 5;
#X obj 165 20 netpd-gui-scrollbar \$0.scrollbar 15 120 6;
#N canvas 293 40 447 711 load.files 0;
#X obj 63 513 text set \$0.instr.list;
#X msg 106 466 1e+15;
#X obj 63 440 t a b;
#X obj 63 490 list append 1, f 23;
#X obj 46 586 s \$0.scrollbar;
#X msg 46 563 set totallength \$1;
#X obj 46 538 text size \$0.instr.list;
#X obj 29 635 s \$0.refresh;
#X obj 29 46 t b b a b;
#X obj 80 70 s \$0.clear;
#X msg 63 248 symbol \$1/*.pd;
#X obj 63 272 file glob;
#X obj 63 297 file splitname;
#X msg 63 321 symbol \$2;
#X obj 63 343 file splitext;
#X msg 63 366 symbol \$1;
#X obj 132 161 netpd-pref-get netpd-instruments-path;
#X obj 63 112 netpd-pref-get int-instr-path;
#X msg 63 135 dir 0 \$1;
#X obj 63 158 pdcontrol;
#X obj 126 15 bng 18 250 50 0 empty empty empty 0 -9 0 10 #fcfcfc #000000 #000000;
#X obj 63 91 t b b, f 12;
#X obj 29 613 t b b;
#X text 219 333 bit 0: 0 locked \, 1 available;
#X text 219 353 bit 1: 0 built-in \, 1 user instr;
#X obj 132 186 t a b, f 13;
#X msg 207 210 3;
#X obj 63 183 t a b;
#X msg 90 207 1;
#X obj 198 249 t a;
#X obj 72 612 s \$0.sort;
#N canvas 942 253 423 229 skip.duplicates 0;
#X obj 31 34 inlet;
#X obj 31 164 outlet;
#X obj 31 92 text search \$0.instr.list 0;
#X obj 31 57 t a a, f 10;
#X obj 31 115 sel -1;
#X obj 31 138 symbol, f 10;
#X connect 0 0 3 0;
#X connect 2 0 4 0;
#X connect 3 0 2 0;
#X connect 3 1 5 1;
#X connect 4 0 5 0;
#X connect 5 0 1 0;
#X restore 63 404 pd skip.duplicates;
#X text 219 388 colors codes:;
#X text 233 409 0: grey (built-in/locked);
#X text 233 425 1: black (built-in/available);
#X text 233 442 2: greyblue (user/locked);
#X text 233 458 3: blue (user/available);
#X obj 29 12 loadbang;
#X connect 1 0 0 1;
#X connect 2 0 3 0;
#X connect 2 1 1 0;
#X connect 3 0 0 0;
#X connect 5 0 4 0;
#X connect 6 0 5 0;
#X connect 8 0 22 0;
#X connect 8 1 6 0;
#X connect 8 2 21 0;
#X connect 8 3 9 0;
#X connect 10 0 11 0;
#X connect 11 0 12 0;
#X connect 12 0 13 0;
#X connect 13 0 14 0;
#X connect 14 0 15 0;
#X connect 15 0 31 0;
#X connect 16 0 25 0;
#X connect 17 0 18 0;
#X connect 18 0 19 0;
#X connect 19 0 27 0;
#X connect 20 0 8 0;
#X connect 21 0 17 0;
#X connect 21 1 16 0;
#X connect 22 0 7 0;
#X connect 22 1 30 0;
#X connect 25 0 10 0;
#X connect 25 1 26 0;
#X connect 26 0 29 0;
#X connect 27 0 10 0;
#X connect 27 1 28 0;
#X connect 28 0 29 0;
#X connect 29 0 3 1;
#X connect 31 0 2 0;
#X connect 37 0 8 0;
#X restore 224 22 pd load.files;
#X obj 224 135 text define \$0.instr.list;
#X msg 224 109 clear;
#X msg 24 174 set bgcolor 240 240 240 \, set frontcolor 184 184 184;
#X obj 24 151 loadbang;
#X obj 229 205 r \$0.load;
#N canvas 666 285 450 317 lock.instrument 0;
#X obj 15 11 r \$1;
#X obj 15 101 symbol;
#X obj 42 148 text search \$0.instr.list 0;
#X obj 42 171 route -1;
#X obj 87 248 text set \$0.instr.list;
#X obj 87 194 t b a b, f 15;
#X msg 174 220 1;
#X obj 15 34 route lock unlock;
#X obj 15 57 t a b;
#X obj 64 58 t a b;
#X msg 42 80 0;
#X msg 91 81 1;
#X obj 87 217 f;
#X obj 15 124 t b a;
#X obj 15 269 s \$0.refresh;
#X connect 0 0 7 0;
#X connect 1 0 13 0;
#X connect 2 0 3 0;
#X connect 3 1 5 0;
#X connect 5 0 12 0;
#X connect 5 1 4 1;
#X connect 5 2 6 0;
#X connect 6 0 4 2;
#X connect 7 0 8 0;
#X connect 7 1 9 0;
#X connect 8 0 1 0;
#X connect 8 1 10 0;
#X connect 9 0 1 0;
#X connect 9 1 11 0;
#X connect 10 0 12 1;
#X connect 11 0 12 1;
#X connect 12 0 4 0;
#X connect 13 0 14 0;
#X connect 13 1 2 0;
#X restore 223 48 pd lock.instrument;
#X obj 224 85 r \$0.clear;
#X text 349 42 lock|unlock <instrument>;
#X msg 229 228 load \$1;
#X obj 229 270 s \$1;
#X msg 294 110 sort;
#X obj 294 85 r \$0.sort;
#X connect 10 0 9 0;
#X connect 11 0 0 0;
#X connect 12 0 11 0;
#X connect 13 0 17 0;
#X connect 15 0 10 0;
#X connect 17 0 18 0;
#X connect 19 0 9 0;
#X connect 20 0 19 0;
#X coords 0 -1 1 1 160 120 2 20 20;
