#N canvas 549 229 412 268 10;
#X obj 20 20 cnv 13 163 13 empty \$0.label empty 2 8 1 10 -224635 -1
0;
#X obj 20 34 cnv 13 205 13 empty \$0.display empty 2 8 0 12 -199731
-258049 0;
#X obj 20 200 s \$0.label;
#X obj 233 242 s \$0.display;
#N canvas 307 94 509 391 set.colors 0;
#X obj 17 203 netpd-pref-get cr.background1.clr 1;
#X obj 12 10 netpd-pref-get cr.background2.clr 1;
#X obj 35 245 netpd-pref-get cr.display.clr 1;
#X obj 30 59 netpd-pref-get cr.label.clr 1;
#X obj 12 122 pack f f;
#X obj 30 100 t b a;
#X msg 12 144 color \$1 \$2;
#X obj 12 165 s \$0.label;
#X obj 17 314 pack f f;
#X obj 35 292 t b a;
#X msg 17 336 color \$1 \$2;
#X obj 17 357 s \$0.display;
#X obj 12 31 netpd-rgb2iem;
#X obj 30 81 netpd-rgb2iem;
#X obj 35 269 netpd-rgb2iem;
#X obj 17 224 netpd-rgb2iem;
#X obj 350 310 s \$0.print.r;
#X obj 350 23 r \$0.print;
#X obj 350 169 sel 0 1;
#X obj 350 199 f;
#X obj 378 200 f;
#X obj 350 138 f;
#X obj 284 157 t b a;
#X obj 278 101 t b a;
#X obj 350 264 pack f f;
#X obj 368 232 t b a;
#X msg 350 287 color \$1 \$2;
#X obj 350 54 ==;
#X obj 389 58 t a;
#X obj 398 116 spigot;
#X obj 398 139 print UNPATCH;
#X obj 398 91 r \$1;
#X connect 0 0 15 0;
#X connect 1 0 12 0;
#X connect 2 0 14 0;
#X connect 3 0 13 0;
#X connect 4 0 6 0;
#X connect 5 0 4 0;
#X connect 5 1 4 1;
#X connect 6 0 7 0;
#X connect 8 0 10 0;
#X connect 9 0 8 0;
#X connect 9 1 8 1;
#X connect 10 0 11 0;
#X connect 12 0 4 0;
#X connect 12 0 23 0;
#X connect 13 0 5 0;
#X connect 13 0 25 0;
#X connect 14 0 9 0;
#X connect 14 0 22 0;
#X connect 15 0 8 0;
#X connect 17 0 27 0;
#X connect 18 0 19 0;
#X connect 18 1 20 0;
#X connect 19 0 24 0;
#X connect 20 0 24 0;
#X connect 21 0 18 0;
#X connect 22 0 21 0;
#X connect 22 1 20 1;
#X connect 23 0 21 0;
#X connect 23 1 19 1;
#X connect 24 0 26 0;
#X connect 25 0 24 0;
#X connect 25 1 24 1;
#X connect 26 0 16 0;
#X connect 27 0 28 0;
#X connect 27 0 21 0;
#X connect 27 0 29 1;
#X connect 28 0 27 1;
#X connect 29 0 30 0;
#X connect 31 0 29 0;
#X restore 101 69 pd set.colors;
#N canvas 268 575 323 229 set.fonts 0;
#X obj 45 51 netpd-pref-get cr.display.fnt 1;
#X obj 46 125 netpd-pref-get cr.label.fnt 1;
#X obj 46 168 s \$0.label;
#X obj 45 94 s \$0.display;
#X msg 46 147 label_font \$1 \$2;
#X msg 45 72 label_font \$1 \$2;
#X obj 130 175 s \$0.print.r;
#X connect 0 0 5 0;
#X connect 1 0 4 0;
#X connect 4 0 2 0;
#X connect 4 0 6 0;
#X connect 5 0 3 0;
#X restore 192 69 pd set.fonts;
#X obj 228 91 r \$1;
#X obj 20 72 loadbang;
#X obj 20 94 t b b;
#X obj 113 133 makefilename %c;
#X msg 113 111 32;
#X obj 20 115 list append \$2;
#X obj 20 150 list append;
#X msg 20 176 label \$1\$2status:;
#X msg 233 213 label empty;
#X obj 185 20 bng 13 250 50 0 \$0.print empty empty 17 7 0 10 -262144
-1 -1;
#X obj 212 20 bng 13 250 50 0 \$0.print empty empty 17 7 0 10 -262144
-1 -1;
#X obj 198 20 bng 13 250 50 0 \$0.print empty empty 17 7 0 10 -262144
-1 -1;
#X obj 185 20 cnv 13 40 13 empty \$0.print.r print 2 8 1 10 -224635
-1 0;
#X obj 228 182 s \$0.display;
#X msg 228 160 label \$1;
#X obj 228 137 netpd-l2s;
#X obj 279 53 loadbang;
#X msg 279 75 32;
#X obj 279 97 makefilename %c;
#X obj 228 114 list;
#X connect 6 0 25 0;
#X connect 7 0 8 0;
#X connect 8 0 11 0;
#X connect 8 1 10 0;
#X connect 9 0 12 1;
#X connect 10 0 9 0;
#X connect 11 0 12 0;
#X connect 12 0 13 0;
#X connect 13 0 2 0;
#X connect 14 0 2 0;
#X connect 14 0 3 0;
#X connect 20 0 19 0;
#X connect 21 0 20 0;
#X connect 22 0 23 0;
#X connect 23 0 24 0;
#X connect 24 0 21 1;
#X connect 25 0 21 0;
#X coords 0 -1 1 1 205 27 2 20 20;
