#N canvas 435 55 527 585 10;
#X obj 16 20 inlet;
#X obj 16 142 netpd-fifo;
#X obj 16 70 t b a;
#X obj 16 96 spigot 1;
#X obj 61 75 r \$0.gate;
#X obj 16 165 t a b;
#X msg 43 185 0;
#X obj 43 208 s \$0.gate;
#X msg 73 185 1;
#X obj 58 119 r \$0.next;
#X obj 16 232 route msg;
#X obj 43 277 outlet;
#X obj 158 276 list prepend;
#X obj 158 319 list trim;
#X obj 158 538 s \$0.next;
#X obj 158 453 t b b;
#X msg 185 477 stop;
#X obj 225 452 t b;
#X obj 225 501 delay;
#X msg 225 477 10000;
#X obj 225 523 s \$0.findagain;
#X obj 228 95 r \$0.findagain;
#X text 43 294 msg;
#X obj 333 451 outlet no_peer;
#X obj 16 254 t b a;
#X obj 16 317 s \$0.next;
#X obj 292 252 t b b;
#X msg 319 287 clear;
#X obj 319 309 s \$0.next;
#X msg 336 244 1;
#X obj 336 266 s \$0.gate;
#X obj 158 212 unpatch-find-sync \$1/batch \$2;
#X obj 158 141 list;
#X obj 158 116 t b a;
#X obj 158 164 t a a;
#X msg 158 186 find \$3;
#X msg 186 246 \$1 \$2;
#X obj 333 401 list prepend status;
#X obj 333 423 list trim;
#X obj 158 340 netpd-patch-download \$1/batch;
#X obj 158 362 t a a;
#X obj 158 429 route saved downloading;
#X obj 158 297 t a b a;
#X msg 271 476 3000;
#X msg 333 378 download request \$3 \$1 \$2;
#X connect 0 0 2 0;
#X connect 1 0 5 0;
#X connect 1 1 8 0;
#X connect 2 0 3 0;
#X connect 2 1 1 1;
#X connect 3 0 1 0;
#X connect 4 0 3 1;
#X connect 5 0 10 0;
#X connect 5 1 6 0;
#X connect 6 0 7 0;
#X connect 8 0 7 0;
#X connect 9 0 1 0;
#X connect 10 0 24 0;
#X connect 10 1 33 0;
#X connect 12 0 42 0;
#X connect 13 0 39 0;
#X connect 15 0 14 0;
#X connect 15 1 16 0;
#X connect 16 0 18 0;
#X connect 17 0 19 0;
#X connect 18 0 20 0;
#X connect 19 0 18 0;
#X connect 21 0 32 0;
#X connect 24 0 25 0;
#X connect 24 1 11 0;
#X connect 26 0 23 0;
#X connect 26 1 27 0;
#X connect 26 1 29 0;
#X connect 27 0 28 0;
#X connect 29 0 30 0;
#X connect 31 0 12 0;
#X connect 31 1 26 0;
#X connect 32 0 34 0;
#X connect 33 0 32 0;
#X connect 33 1 32 1;
#X connect 34 0 35 0;
#X connect 34 1 36 0;
#X connect 35 0 31 0;
#X connect 36 0 12 1;
#X connect 37 0 38 0;
#X connect 38 0 23 0;
#X connect 39 0 40 0;
#X connect 40 0 41 0;
#X connect 40 1 37 0;
#X connect 41 0 15 0;
#X connect 41 1 17 0;
#X connect 42 0 13 0;
#X connect 42 1 43 0;
#X connect 42 2 44 0;
#X connect 43 0 18 0;
#X connect 44 0 37 0;
