#N canvas 317 53 322 659 10;
#X obj 18 8 inlet;
#X obj 208 25 r \$0.send;
#X obj 207 169 s \$0.receive;
#X obj 207 125 netpd-r \$1;
#X obj 208 47 list prepend to;
#X obj 208 69 list trim;
#X obj 208 91 s NETPD;
#X obj 18 264 list append \$1;
#X obj 18 286 list append;
#X obj 18 381 s \$0.send;
#X obj 18 164 t a b;
#X obj 45 235 s \$0.waittime;
#X obj 45 209 spigot;
#X msg 78 186 1;
#X obj 106 163 r \$0.stop;
#X msg 106 186 0;
#X obj 77 74 s \$0.ready;
#X msg 77 52 1;
#X obj 18 437 r \$0.receive;
#X obj 18 459 routeOSC /ready;
#X obj 207 147 routeOSC /sync;
#X obj 18 570 spigot 1;
#X obj 18 592 t a b;
#X msg 91 582 0;
#X msg 251 407 1;
#X obj 18 635 outlet;
#X msg 45 186 3000;
#X obj 45 614 s \$0.stop;
#X obj 18 30 route find ready unready;
#X msg 124 52 0;
#X obj 216 538 r \$0.waittime;
#X obj 216 605 delay;
#X obj 216 627 outlet;
#X obj 233 560 r \$0.stop;
#X msg 233 582 stop;
#X msg 18 360 /\$1\$2/sync/ifready \$3 \$4;
#X text 85 382 <local_socket> <id>;
#X obj 18 481 t a a;
#X msg 18 503 \$2;
#X obj 18 525 select;
#X msg 63 525 \$1;
#X obj 18 547 f;
#X obj 92 286 r \$0.socket;
#N canvas 730 378 137 144 get.socket 0;
#X obj -87 79 netpd-status-get;
#X msg -87 55 socket;
#X obj -67 30 loadbang;
#X obj -87 101 s \$0.socket;
#X obj -87 7 inlet;
#X connect 0 0 3 0;
#X connect 1 0 0 0;
#X connect 2 0 1 0;
#X connect 4 0 1 0;
#X restore 81 118 pd get.socket;
#N canvas 669 72 229 515 handle.request 0;
#X obj 19 26 r \$0.receive;
#X obj 19 48 routeOSC /ifready;
#X obj 20 323 list append \$1;
#X obj 20 345 list append;
#X obj 20 387 s \$0.send;
#X msg 20 366 /\$1\$3/sync/ready \$4 \$2;
#X text 26 67 <remote_socket> <id>;
#X text 82 384 <local_socket> <id>;
#X obj 96 344 r \$0.socket;
#X obj 38 134 s \$2;
#X obj 40 157 r \$2;
#X msg 38 113 patchlist in get \$1;
#X obj 40 179 route patchlist;
#X obj 40 201 route out;
#X obj 19 228 list;
#X obj 19 90 t b a a;
#X obj 19 250 sel empty loading...;
#X obj 20 276 b;
#X obj 20 298 list append;
#X connect 0 0 1 0;
#X connect 1 0 15 0;
#X connect 2 0 3 0;
#X connect 3 0 5 0;
#X connect 5 0 4 0;
#X connect 8 0 3 1;
#X connect 10 0 12 0;
#X connect 11 0 9 0;
#X connect 12 0 13 0;
#X connect 13 0 14 1;
#X connect 14 0 16 0;
#X connect 15 0 14 0;
#X connect 15 1 11 0;
#X connect 15 2 18 1;
#X connect 16 2 17 0;
#X connect 17 0 18 0;
#X connect 18 0 2 0;
#X restore 20 410 pd handle.request;
#X obj 18 143 netpd-find-peers \$1/sync;
#X obj 18 336 list append;
#X obj 18 95 t b b b b b;
#X obj 18 52 t b a;
#X obj 28 74 s \$0.id;
#X obj 81 313 r \$0.id;
#X obj 61 483 r \$0.id;
#X connect 0 0 28 0;
#X connect 1 0 4 0;
#X connect 3 0 20 0;
#X connect 4 0 5 0;
#X connect 5 0 6 0;
#X connect 7 0 8 0;
#X connect 8 0 46 0;
#X connect 10 0 7 0;
#X connect 10 1 26 0;
#X connect 12 0 11 0;
#X connect 13 0 12 1;
#X connect 14 0 15 0;
#X connect 15 0 12 1;
#X connect 17 0 16 0;
#X connect 18 0 19 0;
#X connect 19 0 37 0;
#X connect 20 0 2 0;
#X connect 21 0 22 0;
#X connect 22 0 25 0;
#X connect 22 1 23 0;
#X connect 22 1 27 0;
#X connect 23 0 21 1;
#X connect 24 0 21 1;
#X connect 26 0 12 0;
#X connect 28 0 48 0;
#X connect 28 1 17 0;
#X connect 28 2 29 0;
#X connect 29 0 16 0;
#X connect 30 0 31 0;
#X connect 31 0 32 0;
#X connect 33 0 34 0;
#X connect 34 0 31 0;
#X connect 35 0 9 0;
#X connect 37 0 38 0;
#X connect 37 1 40 0;
#X connect 38 0 39 0;
#X connect 39 0 41 0;
#X connect 40 0 41 1;
#X connect 41 0 21 0;
#X connect 42 0 8 1;
#X connect 45 0 10 0;
#X connect 46 0 35 0;
#X connect 47 0 45 0;
#X connect 47 1 26 0;
#X connect 47 2 13 0;
#X connect 47 3 24 0;
#X connect 47 4 43 0;
#X connect 48 0 47 0;
#X connect 48 1 49 0;
#X connect 50 0 46 1;
#X connect 51 0 39 1;
