#N canvas 314 53 458 689 10;
#X obj 18 8 inlet;
#X obj 18 358 s \$0.send;
#X obj 18 164 t a b;
#X obj 52 265 s \$0.waittime;
#X obj 52 239 spigot;
#X msg 85 216 1;
#X obj 137 183 r \$0.stop;
#X msg 137 212 0;
#X obj 18 434 r \$0.receive;
#X obj 18 456 routeOSC /ready;
#X obj 18 567 spigot 1;
#X obj 18 589 t a b;
#X msg 91 579 0;
#X msg 251 362 1;
#X obj 18 632 outlet;
#X obj 45 611 s \$0.stop;
#X obj 216 453 r \$0.waittime;
#X obj 216 520 delay;
#X obj 216 649 outlet;
#X obj 233 475 r \$0.stop;
#X msg 233 497 stop;
#X obj 18 502 select;
#X obj 18 529 f;
#N canvas 730 434 232 145 get.socket 0;
#X obj -67 30 loadbang;
#X obj -87 101 s \$0.socket;
#X obj -87 7 inlet;
#X obj -87 79 netpd-status-get socket 1;
#X connect 0 0 3 0;
#X connect 2 0 3 0;
#X connect 3 0 1 0;
#X restore 81 118 pd get.socket;
#N canvas 657 240 220 456 handle.request 0;
#X obj 19 26 r \$0.receive;
#X obj 19 48 routeOSC /ifready;
#X obj 20 397 s \$0.send;
#X obj 38 184 s \$2;
#X obj 40 207 r \$2;
#X obj 40 229 route patchlist;
#X obj 40 251 route out;
#X obj 19 278 list;
#X obj 19 140 t b a a;
#X obj 19 300 sel empty loading...;
#X obj 20 326 b;
#X obj 20 348 list append;
#X msg 38 163 patchlist in get \$2;
#X text 128 51 <id>;
#X obj 19 105 list prepend;
#X obj 88 81 r \$0.sender;
#X text 82 394 <id>;
#X msg 20 376 \$1 /ready \$2;
#X connect 0 0 1 0;
#X connect 1 0 14 0;
#X connect 4 0 5 0;
#X connect 5 0 6 0;
#X connect 6 0 7 1;
#X connect 7 0 9 0;
#X connect 8 0 7 0;
#X connect 8 1 12 0;
#X connect 8 2 11 1;
#X connect 9 2 10 0;
#X connect 10 0 11 0;
#X connect 11 0 17 0;
#X connect 12 0 3 0;
#X connect 14 0 8 0;
#X connect 15 0 14 1;
#X connect 17 0 2 0;
#X restore 18 396 pd handle.request;
#X obj 18 143 netpd-find-peers \$1/sync;
#X obj 18 95 t b b b b b;
#X obj 18 52 t b a;
#X obj 45 73 s \$0.id;
#X obj 51 480 r \$0.id;
#X obj 18 30 route find;
#X obj 266 227 s \$0.receive;
#X obj 266 202 netpd-r \$1/sync;
#X obj 353 226 s \$0.sender;
#X obj 267 19 r \$0.send;
#X obj 267 41 list;
#X obj 267 92 list split 1;
#X obj 267 63 t a a;
#X msg 354 84 \$1;
#X obj 267 117 list prepend OSC;
#X obj 267 137 list trim;
#X obj 267 157 netpd-s \$1/sync;
#X text 111 339 <id>;
#X obj 18 314 list append;
#X obj 81 291 r \$0.id;
#X msg 18 337 \$1 /ifready \$2;
#X text 122 456 <id>;
#X obj 53 529 r \$0.sender;
#X obj 316 454 r \$0.id;
#X obj 316 475 b;
#X obj 216 552 f;
#X msg 316 497 0;
#X obj 216 574 + 1;
#X obj 216 596 sel 3;
#X obj 276 622 s \$0.try.again;
#X obj 276 599 b;
#X obj 102 44 r \$0.try.again;
#X msg 52 188 10000;
#X msg 45 214 20000;
#X connect 0 0 30 0;
#X connect 2 0 43 0;
#X connect 2 1 58 0;
#X connect 4 0 3 0;
#X connect 5 0 4 1;
#X connect 6 0 7 0;
#X connect 7 0 4 1;
#X connect 8 0 9 0;
#X connect 9 0 21 0;
#X connect 10 0 11 0;
#X connect 11 0 14 0;
#X connect 11 1 12 0;
#X connect 11 1 15 0;
#X connect 12 0 10 1;
#X connect 13 0 10 1;
#X connect 16 0 17 0;
#X connect 17 0 50 0;
#X connect 19 0 20 0;
#X connect 20 0 17 0;
#X connect 21 0 22 0;
#X connect 22 0 10 0;
#X connect 25 0 2 0;
#X connect 26 0 25 0;
#X connect 26 1 57 0;
#X connect 26 2 5 0;
#X connect 26 3 13 0;
#X connect 26 4 23 0;
#X connect 27 0 26 0;
#X connect 27 1 28 0;
#X connect 29 0 21 1;
#X connect 30 0 27 0;
#X connect 32 0 31 0;
#X connect 32 1 33 0;
#X connect 34 0 35 0;
#X connect 35 0 37 0;
#X connect 36 1 39 0;
#X connect 37 0 36 0;
#X connect 37 1 38 0;
#X connect 38 0 41 1;
#X connect 39 0 40 0;
#X connect 40 0 41 0;
#X connect 43 0 45 0;
#X connect 44 0 43 1;
#X connect 45 0 1 0;
#X connect 47 0 22 1;
#X connect 48 0 49 0;
#X connect 49 0 51 0;
#X connect 50 0 52 0;
#X connect 51 0 50 1;
#X connect 52 0 50 1;
#X connect 52 0 53 0;
#X connect 53 0 18 0;
#X connect 53 1 55 0;
#X connect 55 0 54 0;
#X connect 56 0 26 0;
#X connect 57 0 4 0;
#X connect 58 0 4 0;
