#N canvas 617 118 432 294 10;
#X obj 23 20 hsl 45 20 0 127 0 0 \$0.button.s empty empty -2 -8 0 10
-262144 -1 -1 0 1;
#X obj 20 20 cnv 15 50 20 empty \$0.button.r print 3 12 0 14 -249661
-191407 0;
#N canvas 950 342 404 351 set.colors 0;
#X obj 203 246 netpd-rgb2iem;
#X msg 23 147 64 64 64;
#X obj 168 155 t b a;
#X obj 203 221 r \$0.to.iem;
#X obj 203 269 s \$0.from.iem;
#X obj 212 156 s \$0.to.iem;
#X obj 198 178 r \$0.from.iem;
#X obj 168 177 f;
#X obj 23 97 sel 1 0;
#X obj 23 171 t b a;
#X obj 67 172 s \$0.to.iem;
#X obj 53 194 r \$0.from.iem;
#X obj 23 193 f;
#X obj 168 102 loadbang;
#X obj 23 225 list prepend;
#X msg 23 248 color \$1 \$1 \$2;
#X msg 168 129 240 240 240;
#X obj 21 5 inlet;
#X msg 42 124 184 184 184;
#X msg 266 128 184 184 184;
#X obj 23 68 f;
#X obj 171 80 t b b;
#X obj 23 271 s \$0.button.r;
#X obj 23 33 t b b b a;
#X obj 171 57 del 120;
#X connect 0 0 4 0;
#X connect 1 0 9 0;
#X connect 2 0 7 0;
#X connect 2 1 5 0;
#X connect 3 0 0 0;
#X connect 6 0 7 1;
#X connect 7 0 14 1;
#X connect 8 0 1 0;
#X connect 8 1 18 0;
#X connect 9 0 12 0;
#X connect 9 1 10 0;
#X connect 11 0 12 1;
#X connect 12 0 14 0;
#X connect 13 0 16 0;
#X connect 14 0 15 0;
#X connect 15 0 22 0;
#X connect 16 0 2 0;
#X connect 17 0 23 0;
#X connect 18 0 9 0;
#X connect 19 0 2 0;
#X connect 20 0 8 0;
#X connect 21 0 20 0;
#X connect 21 1 16 0;
#X connect 23 0 20 0;
#X connect 23 1 19 0;
#X connect 23 2 24 0;
#X connect 23 3 20 1;
#X connect 24 0 21 0;
#X restore 172 129 pd set.colors;
#X obj 145 21 r \$0.button.s;
#X obj 145 44 sel;
#X obj 175 45 t a;
#X obj 145 77 ==;
#X obj 187 81 t a;
#X obj 50 141 r \$1.upload.status;
#X obj 24 117 r \$1.download.status;
#X obj 24 180 spigot;
#X obj 145 100 t a a;
#X obj 24 208 print UNPATCH;
#X connect 3 0 4 0;
#X connect 4 0 6 0;
#X connect 4 1 5 0;
#X connect 5 0 4 1;
#X connect 6 0 7 0;
#X connect 6 0 11 0;
#X connect 7 0 6 1;
#X connect 8 0 10 0;
#X connect 9 0 10 0;
#X connect 10 0 12 0;
#X connect 11 0 10 1;
#X connect 11 1 2 0;
#X coords 0 -1 1 1 50 20 2 20 20;
