#N canvas 377 123 570 296 10;
#X declare -path else;
#X obj 24 201 s \$0.scrollbar;
#X obj 20 20 unpatch-instrument-picker-row \$0 0;
#X obj 20 40 unpatch-instrument-picker-row \$0 1;
#X obj 20 60 unpatch-instrument-picker-row \$0 2;
#X obj 20 80 unpatch-instrument-picker-row \$0 3;
#X obj 20 100 unpatch-instrument-picker-row \$0 4;
#X obj 20 120 unpatch-instrument-picker-row \$0 5;
#X obj 165 20 netpd-scrollbar \$0.scrollbar 15 120 6;
#N canvas 860 246 447 459 load.files 0;
#X obj 56 150 dir, f 14;
#N canvas 228 139 254 368 strip.ext 0;
#X obj 8 44 netpd-symbol2list .;
#X obj 8 67 t a a;
#X obj 35 90 list length;
#X obj 35 113 - 1;
#X obj 8 173 list split;
#X obj 35 139 max 1;
#X obj 8 270 spigot;
#X msg 36 242 1;
#X msg 81 241 0;
#X obj 36 195 list trim;
#X obj 36 218 route pd;
#X obj 8 293 netpd-list2symbol .;
#X obj 8 17 inlet;
#X obj 8 316 outlet;
#X connect 0 0 1 0;
#X connect 1 0 4 0;
#X connect 1 1 2 0;
#X connect 2 0 3 0;
#X connect 3 0 5 0;
#X connect 4 0 6 0;
#X connect 4 1 9 0;
#X connect 5 0 4 1;
#X connect 6 0 11 0;
#X connect 7 0 6 1;
#X connect 8 0 6 1;
#X connect 9 0 10 0;
#X connect 10 0 7 0;
#X connect 10 1 8 0;
#X connect 11 0 13 0;
#X connect 12 0 0 0;
#X restore 56 174 pd strip.ext | filter.pd;
#X obj 56 275 text set \$0.instr.list;
#X msg 99 228 1e+15;
#X obj 56 202 t a b;
#X obj 56 252 list append 1;
#X obj 39 348 s \$0.scrollbar;
#X msg 39 325 set totallength \$1;
#X obj 39 300 text size \$0.instr.list;
#X obj 22 8 r \$1;
#X obj 22 31 route readdir;
#X obj 22 54 symbol;
#X msg 56 126 reset \, open \$1 \, dump;
#X obj 22 372 s \$0.refresh;
#X obj 22 81 t b b a b;
#X obj 73 105 s \$0.clear;
#X connect 0 0 1 0;
#X connect 1 0 4 0;
#X connect 3 0 2 1;
#X connect 4 0 5 0;
#X connect 4 1 3 0;
#X connect 5 0 2 0;
#X connect 7 0 6 0;
#X connect 8 0 7 0;
#X connect 9 0 10 0;
#X connect 10 0 11 0;
#X connect 11 0 14 0;
#X connect 12 0 0 0;
#X connect 14 0 13 0;
#X connect 14 1 8 0;
#X connect 14 2 12 0;
#X connect 14 3 15 0;
#X restore 224 22 pd load.files;
#X obj 224 135 text define \$0.instr.list;
#X msg 224 109 clear;
#X msg 24 174 set bgcolor 240 240 240 \, set frontcolor 184 184 184
;
#X obj 24 151 loadbang;
#X obj 229 205 r \$0.load;
#N canvas 666 285 450 317 lock.instrument 0;
#X obj 15 11 r \$1;
#X obj 15 101 symbol;
#X obj 42 148 text search \$0.instr.list 0;
#X obj 42 171 route -1;
#X obj 87 248 text set \$0.instr.list;
#X obj 87 194 t b a b, f 15;
#X msg 174 220 1;
#X obj 15 34 route lock unlock;
#X obj 15 57 t a b;
#X obj 64 58 t a b;
#X msg 42 80 0;
#X msg 91 81 1;
#X obj 87 217 f;
#X obj 15 124 t b a;
#X obj 15 269 s \$0.refresh;
#X connect 0 0 7 0;
#X connect 1 0 13 0;
#X connect 2 0 3 0;
#X connect 3 1 5 0;
#X connect 5 0 12 0;
#X connect 5 1 4 1;
#X connect 5 2 6 0;
#X connect 6 0 4 2;
#X connect 7 0 8 0;
#X connect 7 1 9 0;
#X connect 8 0 1 0;
#X connect 8 1 10 0;
#X connect 9 0 1 0;
#X connect 9 1 11 0;
#X connect 10 0 12 1;
#X connect 11 0 12 1;
#X connect 12 0 4 0;
#X connect 13 0 14 0;
#X connect 13 1 2 0;
#X restore 223 48 pd lock.instrument;
#X obj 224 85 r \$0.clear;
#X text 349 22 readdir <path/to/instruments/>;
#X text 349 42 lock|unlock <instrument>;
#X msg 229 228 load \$1;
#X obj 229 251 s \$1;
#X obj 363 80 declare -path else;
#X connect 10 0 9 0;
#X connect 11 0 0 0;
#X connect 12 0 11 0;
#X connect 13 0 18 0;
#X connect 15 0 10 0;
#X connect 18 0 19 0;
#X coords 0 -1 1 1 160 120 2 20 20;
