#N canvas 429 329 529 242 10;
#X declare -stdpath extra/zexy -stdlib extra/zexy;
#N canvas 358 72 230 319 unpatch 1;
#X obj 5 7 cnv 5 207 296 empty empty empty 20 12 0 14 -1 -66577 0;
#X obj 35 36 cnv 13 176 13 empty cr.farbe1 empty 20 12 1 9 -199731
-1 0;
#X obj 6 64 cnv 12 205 13 empty cr.farbe1 empty 5 6 1 9 -199731 -1
0;
#X obj 6 8 cnv 12 205 13 empty cr.title empty 5 7 1 11 -199731 -1 0
;
#X obj 6 22 cnv 12 205 13 empty cr.farbe2 empty 5 6 1 9 -224635 -1
0;
#X obj 35 50 cnv 12 176 13 empty cr.farbe2 empty 5 6 1 9 -224635 -1
0;
#X obj 5 36 bng 27 250 50 0 \$0-loadpatch cr.loadpatch.set empty 34
7 1 9 -199731 -258049 -1;
#X obj 6 50 cnv 12 27 12 empty cr.farbe2b empty 5 6 1 9 -224635 -262144
0;
#X obj 6 37 cnv 12 27 12 empty cr.farbe1b empty 5 6 1 9 -199731 -262144
0;
#X obj 6 233 cnv 12 205 13 empty cr.farbe1 empty 5 6 1 9 -199731 -1
0;
#X obj 6 78 cnv 12 205 13 empty \$0-label.help close/code/visualize
5 6 1 9 -224635 -1 0;
#X obj 6 275 cnv 12 205 13 empty cr.upload_label empty 6 5 1 9 -224635
-1 0;
#X obj 6 247 cnv 12 205 13 empty cr.download_label empty 5 6 1 9 -224635
-1 0;
#X obj 6 261 cnv 12 205 13 empty cr.download_display empty 5 6 0 11
-199731 -258049 0;
#X obj 6 289 cnv 12 205 13 empty cr.upload_display empty 5 6 0 11 -199731
-258049 0;
#X obj 5 106 unpatch-gui-row \$0 1;
#X obj 202 92 netpd-scrollbar \$0.scrollbar 10 140 10;
#X obj 5 92 unpatch-gui-row \$0 0;
#X obj 5 120 unpatch-gui-row \$0 2;
#X obj 5 134 unpatch-gui-row \$0 3;
#X obj 5 148 unpatch-gui-row \$0 4;
#X obj 5 162 unpatch-gui-row \$0 5;
#X obj 5 176 unpatch-gui-row \$0 6;
#X obj 5 190 unpatch-gui-row \$0 7;
#X obj 5 204 unpatch-gui-row \$0 8;
#X obj 5 218 unpatch-gui-row \$0 9;
#X restore 220 64 pd unpatch;
#N canvas 690 141 369 531 unpatch_upload 0;
#N canvas 181 216 253 390 find.free.id 0;
#X obj 27 19 inlet;
#X obj 27 88 f;
#X obj 27 111 + 1;
#X obj 27 64 until;
#X msg 46 155 patchlist in get \$1;
#X obj 46 177 s \$0.UNPATCH;
#X obj 46 198 r \$0.UNPATCH;
#X obj 46 220 route patchlist;
#X obj 46 242 route out;
#X obj 27 133 t b a a;
#X obj 27 265 list;
#X obj 27 287 sel empty;
#X obj 27 309 t b b;
#X obj 27 331 f;
#X obj 209 183 b;
#X obj 27 353 outlet;
#X obj 27 41 t b b;
#X msg 82 66 0;
#X connect 0 0 16 0;
#X connect 1 0 2 0;
#X connect 2 0 1 1;
#X connect 2 0 9 0;
#X connect 3 0 1 0;
#X connect 4 0 5 0;
#X connect 6 0 7 0;
#X connect 7 0 8 0;
#X connect 8 0 10 1;
#X connect 9 0 10 0;
#X connect 9 1 4 0;
#X connect 9 2 13 1;
#X connect 10 0 11 0;
#X connect 11 0 12 0;
#X connect 12 0 13 0;
#X connect 12 1 14 0;
#X connect 13 0 15 0;
#X connect 14 0 3 1;
#X connect 16 0 3 0;
#X connect 16 1 17 0;
#X connect 17 0 1 1;
#X restore 30 81 pd find.free.id;
#X symbolatom 33 15 10 0 0 0 - - -;
#X obj 61 258 netpd-fifo;
#X restore 17 84 pd unpatch_upload;
#N canvas 437 379 396 227 unpatch_download 0;
#X restore 17 110 pd unpatch_download;
#N canvas 618 490 169 83 version 0;
#X obj 18 13 r cr.getversion;
#X obj 18 55 s cr.version;
#X msg 18 34 2.0.-1;
#X connect 0 0 2 0;
#X connect 2 0 1 0;
#X restore 18 199 pd version;
#X obj 220 118 s \$0-clean;
#X msg 220 97 label empty;
#X text 14 10 UNPATCH www.netpd.org;
#N canvas 502 286 437 371 singletons-container 0;
#X obj 34 76 s cr.singletons;
#X obj 34 97 r cr.singletons;
#X obj 34 118 route yesiamthere;
#X msg 34 55 areyouthere;
#X obj 18 5 loadbang;
#X obj 18 142 f;
#X obj 18 28 t b b b;
#N canvas 19 459 336 145 \$0-singletons 0;
#X restore 18 345 pd \$0-singletons;
#X obj 18 318 s pd-\$0-singletons;
#X obj 18 165 sel 0;
#X msg 18 186 obj 8 79 s cr.singletons \, obj 8 14 r cr.singletons
\, obj 8 35 route areyouthere \, msg 8 58 yesiamthere 1 \, obj 8 100
pd cr.singletons \, connect 1 0 2 0 \, connect 2 0 3 0 \, connect 3
0 0 0 \; pd-cr.singletons vis 0 \;;
#X obj 242 21 r \$0-clean;
#X msg 242 43 clear;
#X obj 242 93 s pd-\$0-singletons;
#X connect 1 0 2 0;
#X connect 2 0 5 1;
#X connect 3 0 0 0;
#X connect 4 0 6 0;
#X connect 5 0 9 0;
#X connect 6 0 5 0;
#X connect 6 1 3 0;
#X connect 9 0 10 0;
#X connect 10 0 8 0;
#X connect 11 0 12 0;
#X connect 12 0 13 0;
#X restore 322 89 pd singletons-container;
#N canvas 456 269 199 95 unpatchversion_compare 0;
#N canvas 457 340 385 255 tell_version 0;
#X obj 20 16 r netpd-receive;
#X obj 20 54 route cr.getversion;
#X text 140 16 [remotesocket];
#X obj 20 77 t a b;
#X obj 50 104 s cr.getversion;
#X obj 50 124 r cr.version;
#X obj 164 124 r netpd-socket;
#X obj 20 173 pack f s f;
#X obj 50 146 list;
#X text 101 175 [remotesocket] [version] [selfsocket];
#X msg 20 199 \$1 cr.version \$2 \$3;
#X obj 20 222 s netpd-send;
#X connect 0 0 1 0;
#X connect 1 0 3 0;
#X connect 3 0 7 0;
#X connect 3 1 4 0;
#X connect 5 0 8 0;
#X connect 6 0 7 2;
#X connect 7 0 10 0;
#X connect 8 0 7 1;
#X connect 10 0 11 0;
#X restore 11 34 pd tell_version;
#N canvas 521 338 250 170 request_version 0;
#X obj 22 17 r netpd-socket;
#X obj 22 55 spigot 1;
#X obj 22 81 t a b;
#X obj 103 72 0;
#X msg 22 104 cr.getversion \$1;
#X obj 22 128 s netpd-broadcast;
#X connect 0 0 1 0;
#X connect 1 0 2 0;
#X connect 2 0 4 0;
#X connect 2 1 3 0;
#X connect 3 0 1 1;
#X connect 4 0 5 0;
#X restore 11 13 pd request_version;
#N canvas 509 368 405 374 compare_version 0;
#X obj 9 8 r netpd-receive;
#X obj 9 31 route cr.version;
#N canvas 786 69 369 735 versioncompare 0;
#X obj 13 7 inlet;
#X obj 167 8 inlet;
#X obj 14 623 outlet;
#X obj 167 32 symbol;
#X obj 167 79 symbol2list .;
#X obj 13 78 symbol2list .;
#X obj 13 30 symbol;
#X text 214 7 remote version;
#X text 49 6 local version;
#X obj 13 52 t s s;
#X obj 31 147 unpack f f f;
#X obj 167 127 unpack f f f;
#X obj 61 200 <;
#X obj 14 494 f;
#X obj 31 198 ==;
#X obj 31 227 sel 1;
#X obj 91 277 f;
#X obj 116 329 <;
#X obj 91 329 ==;
#X obj 162 419 sel 1;
#X obj 162 442 f;
#X obj 184 491 <;
#X obj 167 55 t s s;
#X obj 14 518 t f f;
#X obj 94 201 >;
#X obj 94 224 * -1;
#X obj 142 332 >;
#X obj 142 355 * -1;
#X obj 31 172 t f f f;
#X obj 73 248 +;
#X obj 92 302 t f f f;
#X obj 116 381 +;
#X obj 211 492 >;
#X obj 211 515 * -1;
#X obj 185 541 +;
#X obj 162 467 t f f f;
#X obj 13 124 t b a b;
#X connect 0 0 6 0;
#X connect 1 0 3 0;
#X connect 3 0 22 0;
#X connect 4 0 11 0;
#X connect 5 0 36 0;
#X connect 6 0 9 0;
#X connect 9 0 5 0;
#X connect 10 0 28 0;
#X connect 10 1 16 1;
#X connect 10 2 20 1;
#X connect 11 0 12 1;
#X connect 11 0 14 1;
#X connect 11 0 24 1;
#X connect 11 1 17 1;
#X connect 11 1 18 1;
#X connect 11 1 26 1;
#X connect 11 2 21 1;
#X connect 11 2 32 1;
#X connect 12 0 29 0;
#X connect 13 0 23 0;
#X connect 14 0 15 0;
#X connect 15 0 16 0;
#X connect 16 0 30 0;
#X connect 17 0 31 0;
#X connect 18 0 19 0;
#X connect 19 0 20 0;
#X connect 20 0 35 0;
#X connect 21 0 34 0;
#X connect 22 0 4 0;
#X connect 23 0 2 0;
#X connect 24 0 25 0;
#X connect 25 0 29 1;
#X connect 26 0 27 0;
#X connect 27 0 31 1;
#X connect 28 0 14 0;
#X connect 28 1 12 0;
#X connect 28 2 24 0;
#X connect 29 0 13 1;
#X connect 30 0 18 0;
#X connect 30 1 17 0;
#X connect 30 2 26 0;
#X connect 31 0 13 1;
#X connect 32 0 33 0;
#X connect 33 0 34 1;
#X connect 34 0 13 1;
#X connect 35 1 21 0;
#X connect 35 2 32 0;
#X connect 36 0 13 0;
#X connect 36 1 10 0;
#X restore 9 163 pd versioncompare;
#X text 131 33 [version] [remotesocket];
#X obj 9 80 t a b a;
#X obj 9 55 list;
#X obj 123 141 r cr.version;
#X obj 123 122 s cr.getversion;
#X text 220 162 -1: remote is newer;
#X text 220 176 1: local is newer;
#X text 227 191 0: both are the same;
#X obj 9 189 sel -1 1;
#X msg 9 138 \$1;
#X obj 9 238 list;
#X obj 92 240 list;
#X msg 115 217 \$2;
#X obj 92 262 list append;
#N canvas 193 360 426 190 local_is_newer 0;
#X obj 98 48 r netpd-socket;
#X obj 12 153 s netpd-send;
#X msg 12 118 \$1 ch.msg UNPATCH found_unpatch_v\$2_on_socket_\$3.
0 \, \$1 ch.msg UNPATCH you_may_want_to_update_your_unpatch. 0;
#X obj 12 23 inlet;
#X obj 12 72 list append 0;
#X text 21 97 [remotesocket] [version] [selfsocket];
#X connect 0 0 4 1;
#X connect 2 0 1 0;
#X connect 3 0 4 0;
#X connect 4 0 2 0;
#X restore 92 292 pd local_is_newer;
#N canvas 193 360 425 179 remote_is_newer 0;
#X obj 12 72 list prepend 0;
#X obj 105 45 r netpd-socket;
#X obj 12 131 s netpd-send;
#X msg 12 96 \$1 ch.msg UNPATCH found_unpatch_v\$2_on_socket_\$3. 0
\, \$1 ch.msg UNPATCH you_may_want_to_update_your_unpatch. 0;
#X obj 12 23 inlet;
#X connect 0 0 3 0;
#X connect 1 0 0 1;
#X connect 3 0 2 0;
#X connect 4 0 0 0;
#X restore 9 328 pd remote_is_newer;
#X connect 0 0 1 0;
#X connect 1 0 5 0;
#X connect 2 0 11 0;
#X connect 4 0 12 0;
#X connect 4 1 7 0;
#X connect 4 2 13 1;
#X connect 4 2 15 0;
#X connect 5 0 4 0;
#X connect 6 0 2 1;
#X connect 6 0 16 1;
#X connect 11 0 13 0;
#X connect 11 1 14 0;
#X connect 12 0 2 0;
#X connect 13 0 18 0;
#X connect 14 0 16 0;
#X connect 15 0 14 1;
#X connect 16 0 17 0;
#X restore 11 55 pd compare_version;
#X restore 17 58 pd unpatchversion_compare;
#X text 15 24 Author: Roman Haefeli <roman@netpd.org>;
#X obj 174 206 declare -stdpath extra/zexy -stdlib extra/zexy;
#X msg 220 146 \; pd-unpatch.pd loadbang;
#N canvas 620 44 681 305 unpatch_patch_manager 0;
#X obj 14 75 netpd-hash;
#X obj 14 10 r \$0.UNPATCH;
#X obj 14 142 s \$0.UNPATCH;
#X obj 14 96 list prepend patchlist out;
#X obj 14 118 list trim;
#X obj 222 151 pack f s;
#X floatatom 222 132 5 0 0 0 - - -;
#X symbolatom 263 132 10 0 0 0 - - -;
#X obj 14 32 route patchlist;
#X obj 14 54 route in;
#X msg 193 100 1 eins \, 2 zwei \, 3 drei \, 4 vier \, 5 fuenf \, 6
sechs \, 7 sieben \, 8 acht \, 9 neun \, 10 zehn \, 11 elf \, 12 zwoelf
;
#N canvas 778 119 198 360 sync.length 0;
#X msg 41 103 patchlist in getlength;
#X obj 14 82 t b b;
#X obj 41 125 s \$0.UNPATCH;
#X obj 41 147 r \$0.UNPATCH;
#X obj 41 169 route patchlist;
#X obj 41 191 route out;
#X obj 41 275 s \$0.scrollbar;
#X obj 14 211 list;
#X msg 41 254 set totallength \$1;
#X obj 14 233 t a a;
#X obj 14 16 r \$0.UNPATCH;
#X obj 14 38 route patchlist;
#X obj 14 60 route synclength;
#X msg 14 299 patchlist length \$1;
#X obj 14 321 s \$0.UNPATCH;
#X connect 0 0 2 0;
#X connect 1 0 7 0;
#X connect 1 1 0 0;
#X connect 3 0 4 0;
#X connect 4 0 5 0;
#X connect 5 0 7 1;
#X connect 7 0 9 0;
#X connect 8 0 6 0;
#X connect 9 0 13 0;
#X connect 9 1 8 0;
#X connect 10 0 11 0;
#X connect 11 0 12 0;
#X connect 12 0 1 0;
#X connect 13 0 14 0;
#X restore 15 215 pd sync.length;
#X obj 193 213 s \$0.UNPATCH;
#N canvas 220 44 332 469 add.patch 0;
#X obj 42 137 s \$0.UNPATCH;
#X msg 42 117 patchlist in append \$1 \$2;
#X obj 15 94 t b a;
#X obj 15 158 t b b;
#X obj 42 201 s \$0.UNPATCH;
#X obj 42 223 r \$0.UNPATCH;
#X obj 42 245 route patchlist;
#X obj 15 375 s \$0.scrollbar;
#X obj 15 287 list;
#X obj 15 308 - 10;
#X msg 15 352 set pos \$1;
#X obj 15 329 max 0;
#X msg 42 179 patchlist synclength;
#X obj 42 267 route length;
#X obj 15 7 r \$0.UNPATCH;
#X obj 15 73 list;
#X obj 15 29 route patch;
#X obj 15 51 route load;
#X connect 1 0 0 0;
#X connect 2 0 3 0;
#X connect 2 1 1 0;
#X connect 3 0 8 0;
#X connect 3 1 12 0;
#X connect 5 0 6 0;
#X connect 6 0 13 0;
#X connect 8 0 9 0;
#X connect 9 0 11 0;
#X connect 10 0 7 0;
#X connect 11 0 10 0;
#X connect 12 0 4 0;
#X connect 13 0 8 1;
#X connect 14 0 16 0;
#X connect 15 0 2 0;
#X connect 16 0 17 0;
#X connect 17 0 15 0;
#X restore 15 172 pd add.patch;
#N canvas 847 184 246 395 scroll.logic 0;
#X obj 34 124 s \$0.UNPATCH;
#X msg 34 104 patchlist in getrange \$1 10;
#X obj 34 147 r \$0.UNPATCH;
#X obj 34 191 route patchlist;
#X obj 34 213 route out;
#X obj 34 169 spigot;
#X msg 51 79 1;
#X msg 17 81 0;
#X obj 34 261 t a b;
#X obj 61 284 f;
#X obj 105 285 + 1;
#X obj 34 313 list prepend;
#X obj 17 55 t b a b b;
#X msg 132 254 0;
#X obj 34 357 s \$0.UNPATCH;
#X obj 17 11 r \$0.scrollbar;
#X obj 17 33 route pos;
#N canvas 719 128 172 344 nice.labels 0;
#X obj 28 207 makefilename %c;
#X obj 11 230 list append;
#X obj 28 163 loadbang;
#X msg 28 185 32;
#X obj 11 31 unpack f s;
#X obj 11 252 list append;
#X msg 11 274 symbol \$1\$2\$3;
#X obj 68 54 sel empty;
#X msg 68 106 symbol empty;
#X obj 11 107 spigot;
#X msg 44 83 0;
#X msg 82 80 1;
#X obj 11 9 inlet;
#X obj 11 296 outlet;
#X obj 11 136 makefilename %3d;
#X connect 0 0 1 1;
#X connect 1 0 5 0;
#X connect 2 0 3 0;
#X connect 3 0 0 0;
#X connect 4 0 9 0;
#X connect 4 1 7 0;
#X connect 5 0 6 0;
#X connect 6 0 13 0;
#X connect 7 0 8 0;
#X connect 7 0 10 0;
#X connect 7 1 11 0;
#X connect 7 1 5 1;
#X connect 8 0 13 0;
#X connect 9 0 14 0;
#X connect 10 0 9 1;
#X connect 11 0 9 1;
#X connect 12 0 4 0;
#X connect 14 0 1 0;
#X restore 34 238 pd nice.labels;
#X msg 34 335 gui.row \$1 label \$2;
#X connect 1 0 0 0;
#X connect 2 0 5 0;
#X connect 3 0 4 0;
#X connect 4 0 17 0;
#X connect 5 0 3 0;
#X connect 6 0 5 1;
#X connect 7 0 5 1;
#X connect 8 0 11 0;
#X connect 8 1 9 0;
#X connect 9 0 10 0;
#X connect 9 0 11 1;
#X connect 10 0 9 1;
#X connect 11 0 18 0;
#X connect 12 0 7 0;
#X connect 12 1 1 0;
#X connect 12 2 6 0;
#X connect 12 3 13 0;
#X connect 13 0 9 1;
#X connect 15 0 16 0;
#X connect 16 0 12 0;
#X connect 17 0 8 0;
#X connect 18 0 14 0;
#X restore 15 193 pd scroll.logic;
#N canvas 756 156 283 540 close.patch 0;
#X obj 12 -221 r \$0.UNPATCH;
#X obj 12 -199 route gui.row;
#X obj 12 -177 route button;
#X obj 12 -155 route close;
#X obj 27 -133 r \$0.scrollbar;
#X obj 27 -111 route pos;
#X obj 12 -89 +;
#X msg 75 -47 patchlist in getbypos \$1;
#X obj 75 -26 s \$0.UNPATCH;
#X obj 80 -4 r \$0.UNPATCH;
#X obj 80 20 route patchlist;
#X obj 80 42 route out;
#X obj 59 63 list;
#X obj 27 158 s \$0.UNPATCH;
#X msg 43 114 patchlist in dropbypos \$1;
#X obj 12 194 f;
#X obj 48 183 r \$0.scrollbar;
#X obj 48 205 route pos;
#X msg 12 231 set pos \$1;
#X obj 12 253 s \$0.scrollbar;
#X obj 12 -67 t b b a b a;
#X msg 27 136 patchlist synclength;
#X msg 59 85 patch close \$1 \$2;
#X connect 0 0 1 0;
#X connect 1 0 2 0;
#X connect 2 0 3 0;
#X connect 3 0 6 0;
#X connect 4 0 5 0;
#X connect 5 0 6 1;
#X connect 6 0 20 0;
#X connect 7 0 8 0;
#X connect 9 0 10 0;
#X connect 10 0 11 0;
#X connect 11 0 12 1;
#X connect 12 0 22 0;
#X connect 14 0 13 0;
#X connect 15 0 18 0;
#X connect 16 0 17 0;
#X connect 17 0 15 1;
#X connect 18 0 19 0;
#X connect 20 0 15 0;
#X connect 20 1 21 0;
#X connect 20 2 14 0;
#X connect 20 3 12 0;
#X connect 20 4 7 0;
#X connect 21 0 13 0;
#X connect 22 0 13 0;
#X restore 15 236 pd close.patch;
#N canvas 756 212 236 366 show.gui 0;
#X obj 12 -221 r \$0.UNPATCH;
#X obj 12 -199 route gui.row;
#X obj 12 -177 route button;
#X obj 27 -133 r \$0.scrollbar;
#X obj 27 -111 route pos;
#X obj 12 -89 +;
#X msg 39 -46 patchlist in getbypos \$1;
#X obj 39 -25 s \$0.UNPATCH;
#X obj 33 -4 r \$0.UNPATCH;
#X obj 33 20 route patchlist;
#X obj 33 42 route out;
#X obj 12 63 list;
#X obj 12 -67 t b a;
#X obj 12 -155 route visgui;
#X obj 12 107 s \$0.UNPATCH;
#X msg 12 85 patch showgui \$1 \$2;
#X connect 0 0 1 0;
#X connect 1 0 2 0;
#X connect 2 0 13 0;
#X connect 3 0 4 0;
#X connect 4 0 5 1;
#X connect 5 0 12 0;
#X connect 6 0 7 0;
#X connect 8 0 9 0;
#X connect 9 0 10 0;
#X connect 10 0 11 1;
#X connect 11 0 15 0;
#X connect 12 0 11 0;
#X connect 12 1 6 0;
#X connect 13 0 5 0;
#X connect 15 0 14 0;
#X restore 15 256 pd show.gui;
#N canvas 756 212 236 363 show.code 0;
#X obj 12 -221 r \$0.UNPATCH;
#X obj 12 -199 route gui.row;
#X obj 12 -177 route button;
#X obj 27 -133 r \$0.scrollbar;
#X obj 27 -111 route pos;
#X obj 12 -89 +;
#X msg 39 -46 patchlist in getbypos \$1;
#X obj 39 -25 s \$0.UNPATCH;
#X obj 33 -4 r \$0.UNPATCH;
#X obj 33 20 route patchlist;
#X obj 33 42 route out;
#X obj 12 63 list;
#X obj 12 -67 t b a;
#X obj 12 -155 route vismain;
#X obj 12 107 s \$0.UNPATCH;
#X msg 12 85 patch showcode \$1 \$2;
#X connect 0 0 1 0;
#X connect 1 0 2 0;
#X connect 2 0 13 0;
#X connect 3 0 4 0;
#X connect 4 0 5 1;
#X connect 5 0 12 0;
#X connect 6 0 7 0;
#X connect 8 0 9 0;
#X connect 9 0 10 0;
#X connect 10 0 11 1;
#X connect 11 0 15 0;
#X connect 12 0 11 0;
#X connect 12 1 6 0;
#X connect 13 0 5 0;
#X connect 15 0 14 0;
#X restore 15 277 pd show.code;
#X text 194 82 ---------- testing ---------------------------------------
;
#N canvas 1093 72 284 177 set.scrollbar.colors 0;
#X obj -100 14 netpd-pref-get cr.display.clr;
#X msg -100 37 set frontcolor \$1 \$2 \$3;
#X obj -100 59 s \$0.scrollbar;
#X obj -99 137 s \$0.scrollbar;
#X msg -99 115 set bgcolor \$1 \$2 \$3;
#X obj -99 92 netpd-pref-get cr.background2.clr;
#X connect 0 0 1 0;
#X connect 1 0 2 0;
#X connect 4 0 3 0;
#X connect 5 0 4 0;
#X restore 235 21 pd set.scrollbar.colors;
#X obj 373 149 r \$0.UNPATCH;
#X obj 373 277 print close;
#X obj 470 235 print showcode;
#X obj 421 255 print showgui;
#X obj 373 171 route patch;
#X obj 373 193 route close showgui showcode load;
#X msg 193 191 patch load \$1 \$2;
#X obj 519 215 print load;
#X connect 0 0 3 0;
#X connect 1 0 8 0;
#X connect 3 0 4 0;
#X connect 4 0 2 0;
#X connect 5 0 26 0;
#X connect 6 0 5 0;
#X connect 7 0 5 1;
#X connect 8 0 9 0;
#X connect 9 0 0 0;
#X connect 10 0 26 0;
#X connect 20 0 24 0;
#X connect 24 0 25 0;
#X connect 25 0 21 0;
#X connect 25 1 23 0;
#X connect 25 2 22 0;
#X connect 25 3 27 0;
#X connect 26 0 12 0;
#X restore 17 136 pd unpatch_patch_manager;
#X text 286 64 GUI;
#N canvas 310 57 312 219 unpatch_communication 0;
#X obj 35 173 netpd-s /unpatch;
#X obj 35 15 r \$0.send;
#X obj 35 37 list;
#X obj 35 98 list split 1;
#X obj 35 59 t a a;
#X msg 128 101 \$1;
#X obj 35 133 list prepend OSC;
#X obj 35 153 list trim;
#X obj 182 18 netpd-r /unpatch;
#X obj 182 77 s \$0.receive;
#X obj 199 54 s \$0.sender;
#X connect 1 0 2 0;
#X connect 2 0 4 0;
#X connect 3 1 6 0;
#X connect 4 0 3 0;
#X connect 4 1 5 0;
#X connect 5 0 0 1;
#X connect 6 0 7 0;
#X connect 7 0 0 0;
#X connect 8 0 9 0;
#X connect 8 1 10 0;
#X restore 319 38 pd unpatch_communication;
#X connect 5 0 4 0;
