#N canvas 377 310 560 387 10;
#X obj 33 30 hsl 15 14 0 0 0 0 \$0.close \$0.close.r empty -2 -8 1
9 -262144 -262144 -1 0 1;
#X obj 53 30 hsl 4 14 0 0 0 0 \$0.vismain \$0.vismain.r empty -2 -6
0 8 -262144 -262144 -1 0 1;
#X obj 62 30 hsl 163 14 0 0 0 0 \$0.visgui \$0.visgui.r 001 dsfjlk
2 8 0 10 -262144 -262144 -1 0 1;
#X obj 321 349 s \$0.visgui.r;
#X msg 345 307 label \$1;
#X obj 124 282 s \$0.vismain.r;
#X obj 29 279 s \$0.close.r;
#X msg 29 227 color \$1 \$1 -1;
#X msg 124 228 color \$1 \$1 -1;
#X symbolatom 350 278 10 0 0 0 - - -;
#X floatatom 231 202 5 0 0 0 - - -;
#X floatatom 132 195 5 0 0 0 - - -;
#X floatatom 32 188 5 0 0 0 - - -;
#N canvas 0 53 450 300 get.pref.params 0;
#X obj 74 189 netpd-pref-get;
#X msg 40 103 1 cr.background1.clr;
#X msg 57 82 2 cr.background2.clr;
#X msg 74 61 3 cr.display.clr;
#X msg 168 142 4 cr.display.fnt;
#X obj 40 166 list split 1;
#X obj 40 232 list append;
#X obj 40 5 loadbang;
#X obj 40 27 t b b b b;
#X obj 202 207 netpd-pref-get;
#X obj 168 184 list split 1;
#X obj 168 230 list append;
#X obj 74 211 netpd-rgb2iem;
#X obj 40 254 outlet;
#X obj 99 3 inlet;
#X connect 0 0 12 0;
#X connect 1 0 5 0;
#X connect 2 0 5 0;
#X connect 3 0 5 0;
#X connect 4 0 10 0;
#X connect 5 0 6 0;
#X connect 5 1 0 0;
#X connect 6 0 13 0;
#X connect 7 0 8 0;
#X connect 8 0 1 0;
#X connect 8 1 2 0;
#X connect 8 2 3 0;
#X connect 8 3 4 0;
#X connect 9 0 11 1;
#X connect 10 0 11 0;
#X connect 10 1 9 0;
#X connect 11 0 13 0;
#X connect 12 0 6 1;
#X connect 14 0 8 0;
#X restore 318 69 pd get.pref.params;
#X obj 318 91 print;
#X obj 321 40 bng 15 250 50 0 empty empty empty 17 7 0 10 -262144 -1
-1;
#X msg 230 235 color \$1 \$1 \$2;
#X connect 4 0 3 0;
#X connect 7 0 6 0;
#X connect 8 0 5 0;
#X connect 9 0 4 0;
#X connect 10 0 16 0;
#X connect 11 0 8 0;
#X connect 12 0 7 0;
#X connect 13 0 14 0;
#X connect 15 0 13 0;
#X connect 16 0 3 0;
#X coords 0 -1 1 1 197 14 2 30 30;
