#N canvas 584 113 586 663 10;
#X obj 19 72 openpanel;
#X obj 38 502 list prepend to;
#X obj 38 524 list trim;
#X obj 65 638 s NETPD;
#N canvas 326 105 490 269 turn-dsp-off 0;
#X obj 136 21 inlet;
#X obj 199 23 inlet;
#X obj 199 91 f;
#X msg 199 121 dsp \$1;
#X obj 199 190 s pd;
#X msg 136 83 0;
#X obj 229 45 netpd-status-get dsp 1;
#X obj 232 142 netpd-pref-get pd-dynamic-dsp-off 1;
#X obj 199 162 spigot;
#X obj 214 71 f;
#X obj 136 41 t b b;
#X obj 199 45 bang;
#X connect 0 0 10 0;
#X connect 1 0 11 0;
#X connect 2 0 3 0;
#X connect 3 0 8 0;
#X connect 5 0 3 0;
#X connect 6 0 9 1;
#X connect 7 0 8 1;
#X connect 8 0 4 0;
#X connect 9 0 2 1;
#X connect 10 0 5 0;
#X connect 10 1 9 0;
#X connect 11 0 2 0;
#X restore 239 244 pd turn-dsp-off;
#X obj 196 73 t a a;
#X obj 196 96 -;
#X obj 196 117 sel 0;
#X obj 196 14 r \$0.button.s;
#X obj 23 20 hsl 35 20 0 127 0 0 \$0.button.s empty empty -2 8 0 10
-262144 -1 -1 0 1;
#X obj 196 41 spigot 1;
#X msg 269 66 0;
#X obj 269 88 r \$0.done;
#X msg 269 110 1;
#X obj 269 44 r \$0.load;
#X obj 70 134 s \$0.load;
#X obj 19 215 netpd-nb-until;
#X obj 100 180 r \$0.done;
#X obj 38 334 unpackOSC;
#X obj 222 295 packOSC;
#X msg 222 272 /unpatch/netcloseall;
#X obj 19 101 t b a b;
#X obj 326 221 r \$0.done;
#N canvas 792 265 416 430 check_format_version 0;
#X obj 75 17 inlet;
#X obj 75 40 routeOSC /netpd/preset/format;
#X msg 75 85 \$1 \$2 0;
#X obj 198 66 r \$0.preset.format;
#X msg 198 88 \$1 \$2 0;
#X obj 75 111 netpd-version-compare;
#X obj 60 138 r \$0.untiled;
#X obj 152 158 r \$0.load;
#X obj 60 260 f;
#X msg 152 180 -3;
#X obj 191 218 t b a;
#X obj 191 241 s \$0.done;
#X obj 134 394 netpd-error unpatch;
#X obj 218 293 b;
#X obj 218 314 list append;
#X obj 75 62 t a a;
#X msg 134 371 preset format version not supported: \$1 \$2;
#X obj 60 177 f;
#X msg 123 180 1;
#X obj 60 199 sel 1;
#X obj 60 221 t b b;
#X msg 123 214 0;
#X obj 82 313 s \$0.try.old.format;
#X obj 60 291 sel 0 -3;
#X obj 218 267 sel -1 1;
#X obj 60 358 s \$0.flush;
#X obj 60 332 del 0;
#X connect 0 0 1 0;
#X connect 1 0 15 0;
#X connect 2 0 5 0;
#X connect 3 0 4 0;
#X connect 4 0 5 1;
#X connect 5 0 8 1;
#X connect 6 0 17 0;
#X connect 7 0 9 0;
#X connect 7 0 18 0;
#X connect 8 0 23 0;
#X connect 9 0 8 1;
#X connect 10 0 11 0;
#X connect 10 1 24 0;
#X connect 13 0 14 0;
#X connect 14 0 16 0;
#X connect 15 0 2 0;
#X connect 15 1 14 1;
#X connect 16 0 12 0;
#X connect 17 0 19 0;
#X connect 18 0 17 1;
#X connect 19 0 20 0;
#X connect 20 0 8 0;
#X connect 20 1 21 0;
#X connect 21 0 17 1;
#X connect 23 0 26 0;
#X connect 23 1 22 0;
#X connect 23 2 10 0;
#X connect 24 0 13 0;
#X connect 24 1 13 0;
#X connect 26 0 25 0;
#X restore 65 388 pd check_format_version;
#X obj 38 366 t a a;
#X obj 38 478 spigot 0;
#X obj 357 12 loadbang;
#X obj 357 34 \$0;
#X msg 357 56 \; \$1.preset.format 2 0;
#X obj 19 241 s \$0.untiled;
#X obj 205 154 r \$0.flush;
#N canvas 914 112 450 300 slipdec 0;
#X obj 15 15 inlet;
#X obj 15 255 outlet;
#X obj 15 188 slipdec 65536;
#X text 66 13 we need to make sure to clear [slipdec]'s buffer if we
received non-slip data before proceeding. Otherwise garbage is sent
to [unpackOSC];
#X obj 15 213 spigot 1;
#X obj 90 59 r \$0.done;
#X obj 90 81 t b b b;
#X msg 129 102 0;
#X msg 90 151 1;
#X msg 109 123 192;
#X connect 0 0 2 0;
#X connect 2 0 4 0;
#X connect 4 0 1 0;
#X connect 5 0 6 0;
#X connect 6 0 8 0;
#X connect 6 1 9 0;
#X connect 6 2 7 0;
#X connect 7 0 4 1;
#X connect 8 0 4 1;
#X connect 9 0 2 0;
#X restore 38 306 pd slipdec;
#N canvas 193 44 667 506 binary_vs_text 0;
#X obj 77 222 s \$0.done;
#X obj 26 222 binfile;
#X obj 77 222 s \$0.done;
#X obj 26 19 inlet;
#X obj 26 292 outlet;
#X obj 312 21 inlet;
#X msg 47 201 read \$1 \, rewind;
#X obj 189 148 symbol;
#X obj 189 199 textfile;
#X obj 26 129 f;
#X obj 26 154 sel 0 1;
#X obj 189 399 outlet;
#X obj 164 24 r \$0.try.old.format;
#X obj 41 42 r \$0.load;
#X msg 41 64 0;
#X msg 203 75 1;
#X obj 164 46 t b b b;
#X obj 234 224 s \$0.done;
#X msg 189 173 read \$1 cr \, rewind \, bang;
#X obj 214 304 route /unpatch/netload;
#X obj 189 257 list prepend 0;
#X obj 189 279 route 1 0;
#X msg 310 276 1;
#X obj 214 369 s \$0.flush;
#X msg 311 211 rewind;
#X obj 310 232 r \$0.load;
#X msg 310 254 0;
#X msg 370 347 not a valid preset file;
#X obj 370 369 netpd-error unpatch;
#X obj 305 433 print UNPATCH;
#X msg 305 412 old preset format detected;
#X obj 214 326 t b b b b;
#X obj 343 325 t b b;
#X obj 343 389 s \$0.done;
#X connect 1 0 4 0;
#X connect 1 2 0 0;
#X connect 3 0 9 0;
#X connect 5 0 7 1;
#X connect 5 0 6 0;
#X connect 6 0 1 0;
#X connect 7 0 18 0;
#X connect 8 0 20 0;
#X connect 8 1 17 0;
#X connect 9 0 10 0;
#X connect 10 0 1 0;
#X connect 10 1 8 0;
#X connect 12 0 16 0;
#X connect 13 0 14 0;
#X connect 14 0 9 1;
#X connect 15 0 9 1;
#X connect 16 0 7 0;
#X connect 16 2 15 0;
#X connect 18 0 8 0;
#X connect 19 0 31 0;
#X connect 19 1 32 0;
#X connect 20 0 21 0;
#X connect 21 0 11 0;
#X connect 21 1 19 0;
#X connect 22 0 20 1;
#X connect 24 0 8 0;
#X connect 25 0 26 0;
#X connect 26 0 20 1;
#X connect 27 0 28 0;
#X connect 30 0 29 0;
#X connect 31 0 23 0;
#X connect 31 1 24 0;
#X connect 31 2 22 0;
#X connect 31 3 30 0;
#X connect 32 0 33 0;
#X connect 32 1 27 0;
#X restore 38 277 pd binary_vs_text;
#X obj 112 412 r \$0.load;
#X msg 112 434 0;
#X msg 83 435 1;
#X obj 205 186 t b b b b;
#X msg 19 153 40;
#X obj 20 20 cnv 15 40 20 empty \$0.button.r load 3 12 0 14 -249661
-66577 0;
#N canvas 547 595 371 356 set.colors 0;
#X obj 23 273 s \$0.button.r;
#X obj 212 253 netpd-rgb2iem;
#X obj 23 128 t b a;
#X obj 212 228 r \$0.to.iem;
#X obj 212 276 s \$0.from.iem;
#X obj 67 129 s \$0.to.iem;
#X obj 53 151 r \$0.from.iem;
#X obj 23 150 f;
#X obj 166 158 t b a;
#X obj 210 159 s \$0.to.iem;
#X obj 196 181 r \$0.from.iem;
#X obj 166 180 f;
#X obj 23 45 loadbang;
#X msg 23 248 color \$1 \$1 \$2;
#X msg 23 102 240 240 240;
#X msg 149 95 184 184 184;
#X msg 166 134 64 64 64;
#X obj 23 225 pack f f;
#X obj 23 68 t b b;
#X obj 89 39 r \$0.done;
#X obj 149 39 r \$0.load;
#X connect 1 0 4 0;
#X connect 2 0 7 0;
#X connect 2 1 5 0;
#X connect 3 0 1 0;
#X connect 6 0 7 1;
#X connect 7 0 17 0;
#X connect 8 0 11 0;
#X connect 8 1 9 0;
#X connect 10 0 11 1;
#X connect 11 0 17 1;
#X connect 12 0 18 0;
#X connect 13 0 0 0;
#X connect 14 0 2 0;
#X connect 15 0 2 0;
#X connect 16 0 8 0;
#X connect 17 0 13 0;
#X connect 18 0 14 0;
#X connect 18 1 16 0;
#X connect 19 0 14 0;
#X connect 20 0 15 0;
#X restore 325 371 pd set.colors;
#X obj 38 549 t a a, f 18;
#X obj 38 572 t a b;
#X msg 65 596 receiver b;
#X obj 143 573 t a b;
#X msg 170 597 receiver l;
#X connect 0 0 21 0;
#X connect 1 0 2 0;
#X connect 2 0 40 0;
#X connect 5 0 6 1;
#X connect 5 1 6 0;
#X connect 6 0 7 0;
#X connect 7 0 0 0;
#X connect 8 0 10 0;
#X connect 10 0 5 0;
#X connect 11 0 10 1;
#X connect 12 0 13 0;
#X connect 13 0 10 1;
#X connect 14 0 11 0;
#X connect 16 0 29 0;
#X connect 16 1 32 0;
#X connect 17 0 16 1;
#X connect 18 0 24 0;
#X connect 19 0 18 0;
#X connect 20 0 19 0;
#X connect 21 0 37 0;
#X connect 21 1 32 1;
#X connect 21 2 15 0;
#X connect 22 0 4 1;
#X connect 24 0 25 0;
#X connect 24 1 23 0;
#X connect 25 0 1 0;
#X connect 26 0 27 0;
#X connect 27 0 28 0;
#X connect 30 0 36 0;
#X connect 31 0 18 0;
#X connect 32 0 31 0;
#X connect 32 1 24 0;
#X connect 33 0 34 0;
#X connect 34 0 25 1;
#X connect 35 0 25 1;
#X connect 36 0 16 0;
#X connect 36 1 20 0;
#X connect 36 2 4 0;
#X connect 36 3 35 0;
#X connect 37 0 16 0;
#X connect 40 1 43 0;
#X connect 41 0 3 0;
#X connect 41 1 42 0;
#X connect 42 0 3 0;
#X connect 43 0 3 0;
#X connect 43 1 44 0;
#X connect 44 0 3 0;
#X coords 0 -1 1 1 40 20 2 20 20;
