#N canvas 435 99 536 559 10;
#X obj 16 20 inlet;
#X obj 16 142 netpd-fifo;
#X obj 16 70 t b a;
#X obj 16 96 spigot 1;
#X obj 61 75 r \$0.gate;
#X obj 16 165 t a b;
#X msg 43 185 0;
#X obj 43 208 s \$0.gate;
#X msg 73 185 1;
#X obj 58 119 r \$0.next;
#X obj 16 232 route msg;
#X obj 43 277 outlet;
#X obj 165 298 list prepend;
#X obj 165 341 list trim;
#X obj 165 535 s \$0.next;
#X msg 196 487 stop;
#X obj 232 513 delay;
#X obj 233 536 s \$0.findagain;
#X obj 216 137 r \$0.findagain;
#X text 43 294 msg;
#X obj 340 473 outlet no_peer;
#X obj 16 254 t b a;
#X obj 16 317 s \$0.next;
#X obj 299 274 t b b;
#X msg 326 309 clear;
#X obj 326 331 s \$0.next;
#X msg 343 266 1;
#X obj 343 288 s \$0.gate;
#X obj 165 234 unpatch-find-sync \$1/batch \$2;
#X obj 165 163 list;
#X obj 165 135 t b a;
#X obj 165 186 t a a;
#X msg 165 208 find \$3;
#X msg 193 275 \$1 \$2;
#X obj 340 423 list prepend status;
#X obj 340 445 list trim;
#X obj 165 362 netpd-patch-download \$1/batch;
#X obj 165 384 t a a;
#X obj 165 319 t a b a;
#X msg 340 400 download request \$3 \$1 \$2;
#X obj 165 416 route download;
#N canvas 683 58 421 595 bang.if.needs.download 0;
#X obj 11 220 netpd-if-file;
#X obj 11 90 route abstraction patch, f 31;
#X obj 11 112 list;
#X obj 102 116 list;
#X obj 11 322 netpd-version;
#X obj 11 195 t a a;
#X obj 11 274 sel 1 0;
#X obj 11 296 list append;
#X obj 11 366 netpd-version-compare;
#X obj 31 63 list split 2;
#X obj 11 493 outlet;
#X text 59 493 <- bang if download is needed;
#X obj 11 10 inlet;
#X obj 11 344 t a a;
#X obj 134 344 t a a;
#X obj 177 315 t a;
#N canvas 494 134 387 401 local_is_newer_message 0;
#X obj 26 53 list append;
#X obj 26 78 list append;
#X text 96 38 local version;
#X text 112 58 remote version;
#X obj 26 100 list prepend;
#X text 132 80 type & name;
#X obj 26 122 list prepend /error remote_version_newer;
#X obj 26 145 list prepend;
#X obj 108 144 r \$0.sender;
#X obj 26 187 s \$0.send;
#X text 94 186 send error message to peer if local;
#X text 95 200 version is newer;
#X obj 26 8 inlet;
#X obj 89 10 inlet;
#X obj 145 12 inlet;
#X obj 220 10 inlet;
#X obj 25 241 r \$0.receive;
#X obj 25 263 routeOSC /error;
#X obj 25 285 route remote_version_newer;
#X obj 25 307 list;
#X obj 25 367 netpd-error unpatch;
#X obj 26 167 list append;
#X msg 25 329 \$1 \$2: found newer version (\$3 \$4 \$5) on peer \$9
(local version: \$6 \$7 \$8);
#X obj 110 166 r \$0.socket;
#X connect 0 0 1 0;
#X connect 1 0 4 0;
#X connect 4 0 6 0;
#X connect 6 0 7 0;
#X connect 7 0 21 0;
#X connect 8 0 7 1;
#X connect 12 0 0 0;
#X connect 13 0 0 1;
#X connect 14 0 1 1;
#X connect 15 0 4 1;
#X connect 16 0 17 0;
#X connect 17 0 18 0;
#X connect 18 0 19 0;
#X connect 19 0 22 0;
#X connect 21 0 9 0;
#X connect 22 0 20 0;
#X connect 23 0 21 1;
#X restore 30 419 pd local_is_newer_message;
#X obj 220 532 outlet;
#X text 13 533 bang if no download is needed ->;
#X obj 11 388 sel -1 1 0;
#X obj 220 509 del 0;
#X obj 102 142 list prepend;
#X obj 11 140 list prepend;
#X obj 171 34 loadbang;
#X obj 171 57 netpd-pref-get netpd-instruments-path;
#X msg 102 167 \$1/\$2.pd;
#X msg 11 168 \$1/abs/\$2.pd;
#X obj 11 442 t b b;
#X obj 11 38 t a a a;
#X obj 11 243 t a a;
#N canvas 767 207 583 559 ask_permission 0;
#X obj 11 11 inlet;
#X obj 107 13 inlet;
#X obj 360 16 inlet;
#X obj 252 13 inlet;
#X text 145 11 local version;
#X text 396 13 <type> <name> <remote_version>;
#X text 290 15 exists;
#X obj 11 34 t b b;
#X obj 38 58 f;
#X obj 38 81 sel 0 1;
#X msg 38 151 symbol none;
#X obj 57 107 list append;
#X msg 57 129 symbol \$1.\$2.\$3;
#X obj 360 39 list split 2;
#X msg 394 61 symbol \$1.\$2.\$3;
#X obj 11 175 list append;
#X obj 360 90 list append;
#X obj 11 198 list append;
#X msg 11 227 \$2 \$3 (\$1 -> \$4);
#X obj 11 252 netpd-list2symbol;
#X obj 11 506 s pd-unpatch-download-popup;
#X msg 11 480 vis \$1;
#N canvas 384 324 320 174 unpatch-download-popup 0;
#X obj 5 7 unpatch-download-popup \$0.download.popup;
#X restore 266 206 pd unpatch-download-popup;
#X obj 80 322 s \$0.download.popup;
#X msg 80 299 set \$1;
#X obj 11 275 t b a, f 12;
#X msg 11 312 1;
#X obj 83 347 r \$0.download.popup;
#X obj 83 370 route answer;
#X obj 134 442 outlet;
#X obj 134 417 sel 1 0, f 17;
#X msg 83 441 0;
#X obj 183 442 outlet;
#X obj 83 417 del 0;
#X obj 83 393 t b a, f 9;
#X connect 0 0 7 0;
#X connect 1 0 11 1;
#X connect 2 0 13 0;
#X connect 3 0 8 1;
#X connect 7 0 15 0;
#X connect 7 1 8 0;
#X connect 8 0 9 0;
#X connect 9 0 10 0;
#X connect 9 1 11 0;
#X connect 10 0 15 1;
#X connect 11 0 12 0;
#X connect 12 0 15 1;
#X connect 13 0 16 0;
#X connect 13 1 14 0;
#X connect 14 0 16 1;
#X connect 15 0 17 0;
#X connect 16 0 17 1;
#X connect 17 0 18 0;
#X connect 18 0 19 0;
#X connect 19 0 25 0;
#X connect 21 0 20 0;
#X connect 24 0 23 0;
#X connect 25 0 26 0;
#X connect 25 1 24 0;
#X connect 26 0 21 0;
#X connect 27 0 28 0;
#X connect 28 0 34 0;
#X connect 30 0 29 0;
#X connect 30 1 32 0;
#X connect 31 0 21 0;
#X connect 33 0 31 0;
#X connect 34 0 33 0;
#X connect 34 1 30 0;
#X restore 38 467 pd ask_permission;
#X connect 0 0 29 0;
#X connect 1 0 2 0;
#X connect 1 1 3 0;
#X connect 2 0 22 0;
#X connect 3 0 21 0;
#X connect 4 0 13 0;
#X connect 5 0 0 0;
#X connect 5 1 7 1;
#X connect 6 0 7 0;
#X connect 6 1 27 0;
#X connect 7 0 4 0;
#X connect 8 0 19 0;
#X connect 9 0 15 0;
#X connect 9 1 14 0;
#X connect 12 0 28 0;
#X connect 13 0 8 0;
#X connect 13 1 16 1;
#X connect 13 1 30 1;
#X connect 14 0 8 1;
#X connect 14 1 16 2;
#X connect 15 0 16 3;
#X connect 19 0 27 0;
#X connect 19 1 16 0;
#X connect 19 1 20 0;
#X connect 19 2 20 0;
#X connect 20 0 17 0;
#X connect 21 0 25 0;
#X connect 22 0 26 0;
#X connect 23 0 24 0;
#X connect 24 0 21 1;
#X connect 24 0 22 1;
#X connect 25 0 5 0;
#X connect 26 0 5 0;
#X connect 27 1 30 0;
#X connect 28 0 1 0;
#X connect 28 1 9 0;
#X connect 28 2 30 3;
#X connect 29 0 6 0;
#X connect 29 1 30 2;
#X connect 30 0 10 0;
#X connect 30 1 20 0;
#X restore 165 88 pd bang.if.needs.download;
#X text 205 21 <type> <name> <ver> <ver> <ver> <slot>;
#X obj 67 254 list;
#X msg 165 46 \$1 \$2 \$3 \$4 \$5;
#X obj 165 23 t a a;
#X msg 228 68 \$1 \$2 \$6;
#X obj 165 110 list append;
#X text 264 47 <type> <name> <ver> <ver> <ver>;
#X text 248 110 <type> <name> <slot>;
#X obj 329 88 s \$0.next;
#X obj 165 465 t b;
#X obj 165 441 route end begin expire;
#X obj 251 462 b;
#X msg 232 487 20000;
#N canvas 834 434 238 144 test 0;
#X obj 14 12 inlet;
#X obj 14 60 s NETPD;
#X msg 14 39 tests DOWNLOAD_SYNC_PEER_FOUND \$1;
#X connect 0 0 2 0;
#X connect 2 0 1 0;
#X restore 175 254 pd test;
#N canvas 834 490 243 153 test 0;
#X obj 14 12 inlet;
#X obj 14 100 s NETPD;
#X msg 14 79 tests DOWNLOAD_COMPLETE \$1 \$2 \$3;
#X connect 0 0 2 0;
#X connect 2 0 1 0;
#X restore 36 511 pd test;
#N canvas 834 490 245 163 test 0;
#X obj 14 12 inlet;
#X obj 14 100 s NETPD;
#X msg 14 79 tests DOWNLOAD_START \$1 \$2 \$3;
#X connect 0 0 2 0;
#X connect 2 0 1 0;
#X restore 89 513 pd test;
#X msg 260 211 symbol FAILED;
#X connect 0 0 2 0;
#X connect 1 0 5 0;
#X connect 1 1 8 0;
#X connect 2 0 3 0;
#X connect 2 1 1 1;
#X connect 3 0 1 0;
#X connect 4 0 3 1;
#X connect 5 0 10 0;
#X connect 5 1 6 0;
#X connect 6 0 7 0;
#X connect 8 0 7 0;
#X connect 9 0 1 0;
#X connect 10 0 21 0;
#X connect 10 1 43 0;
#X connect 12 0 38 0;
#X connect 13 0 36 0;
#X connect 15 0 16 0;
#X connect 16 0 17 0;
#X connect 18 0 29 0;
#X connect 21 0 22 0;
#X connect 21 1 11 0;
#X connect 23 0 20 0;
#X connect 23 0 15 0;
#X connect 23 1 24 0;
#X connect 23 1 26 0;
#X connect 24 0 25 0;
#X connect 26 0 27 0;
#X connect 28 0 12 0;
#X connect 28 0 55 0;
#X connect 28 1 23 0;
#X connect 28 1 58 0;
#X connect 29 0 31 0;
#X connect 30 0 29 0;
#X connect 30 1 29 1;
#X connect 31 0 32 0;
#X connect 31 1 33 0;
#X connect 32 0 28 0;
#X connect 33 0 12 1;
#X connect 34 0 35 0;
#X connect 35 0 20 0;
#X connect 36 0 37 0;
#X connect 37 0 40 0;
#X connect 37 1 34 0;
#X connect 38 0 13 0;
#X connect 38 1 54 0;
#X connect 38 2 39 0;
#X connect 39 0 34 0;
#X connect 40 0 52 0;
#X connect 41 0 47 0;
#X connect 41 1 50 0;
#X connect 43 0 45 0;
#X connect 44 0 41 0;
#X connect 45 0 44 0;
#X connect 45 1 46 0;
#X connect 46 0 47 1;
#X connect 47 0 30 0;
#X connect 51 0 14 0;
#X connect 52 0 51 0;
#X connect 52 0 56 0;
#X connect 52 1 15 0;
#X connect 52 1 57 0;
#X connect 52 2 53 0;
#X connect 53 0 15 0;
#X connect 53 0 17 0;
#X connect 54 0 16 0;
#X connect 58 0 55 0;
