#N canvas 358 44 545 496 10;
#X obj 278 320 netpd-pref-get cr.display.clr 1;
#X obj 294 146 netpd-pref-get cr.background1.clr 1;
#X obj 314 104 netpd-pref-get cr.background2.clr 1;
#X obj 278 402 netpd-pref-get cr.display.fnt 1;
#X obj 278 343 netpd-rgb2iem;
#X obj 294 214 netpd-rgb2iem;
#X obj 294 16 loadbang;
#X obj 347 84 mod 2;
#X obj 294 236 s \$0.bg.clr;
#X obj 278 364 s \$0.front.clr;
#X obj 278 425 s \$0.font;
#X obj 36 30 bng 14 250 50 0 \$0.close empty empty 17 7 0 10 -262144
-1 -1;
#X obj 30 30 bng 14 250 50 0 \$0.close empty empty 17 7 0 10 -262144
-1 -1;
#X obj 50 35 bng 9 250 50 0 \$0.vismain empty empty 17 7 0 10 -262144
-1 -1;
#X obj 50 30 bng 9 250 50 0 \$0.vismain empty empty 17 7 0 10 -262144
-1 -1;
#X obj 60 30 bng 14 250 50 0 \$0.visgui empty empty 17 7 0 10 -262144
-1 -1;
#X obj 75 30 bng 14 250 50 0 \$0.visgui empty empty 17 7 0 10 -262144
-1 -1;
#X obj 90 30 bng 14 250 50 0 \$0.visgui empty empty 17 7 0 10 -262144
-1 -1;
#X obj 105 30 bng 14 250 50 0 \$0.visgui empty empty 17 7 0 10 -262144
-1 -1;
#X obj 120 30 bng 14 250 50 0 \$0.visgui empty empty 17 7 0 10 -262144
-1 -1;
#X obj 135 30 bng 14 250 50 0 \$0.visgui empty empty 17 7 0 10 -262144
-1 -1;
#X obj 150 30 bng 14 250 50 0 \$0.visgui empty empty 17 7 0 10 -262144
-1 -1;
#X obj 165 30 bng 14 250 50 0 \$0.visgui empty empty 17 7 0 10 -262144
-1 -1;
#X obj 180 30 bng 14 250 50 0 \$0.visgui empty empty 17 7 0 10 -262144
-1 -1;
#X obj 195 30 bng 14 250 50 0 \$0.visgui empty empty 17 7 0 10 -262144
-1 -1;
#X obj 210 30 bng 14 250 50 0 \$0.visgui empty empty 17 7 0 10 -262144
-1 -1;
#X obj 33 30 hsl 15 14 0 0 0 0 \$0.bli \$0.close.r empty 3 8 1 12 -224635
-224635 -258049 0 1;
#X obj 53 30 hsl 4 14 0 0 0 0 \$0.bli \$0.vismain.r empty -2 -6 0 8
-224635 -224635 -1 0 1;
#X obj 62 30 hsl 163 14 0 0 0 0 \$0.bli \$0.visgui.r empty 2 8 0 12
-224635 -224635 -258049 0 1;
#X obj 14 343 r \$0.visgui;
#X obj 86 343 r \$0.vismain;
#X obj 164 343 r \$0.close;
#N canvas 141 150 289 372 visgui 0;
#X obj 21 342 s \$0.visgui.r;
#X msg 21 314 color \$1 \$1 \$2;
#X obj 47 257 f;
#X obj 21 256 f;
#X obj 21 212 sel 0 1;
#X obj 21 190 f;
#X obj 21 290 pack f f;
#X obj 200 132 r \$0.bg.clr;
#X obj 104 132 r \$0.front.clr;
#X obj 200 156 t b a;
#X obj 104 156 t b a a;
#X obj 21 11 r \$0.visgui;
#X obj 21 80 t b b;
#X msg 74 106 1;
#X msg 21 127 0;
#X obj 21 105 del 100;
#X obj 158 259 r \$0.font;
#X msg 158 281 label_font \$1 \$2;
#X obj 158 307 s \$0.visgui.r;
#X obj 54 32 r \$0.isset;
#X obj 21 55 spigot;
#X connect 1 0 0 0;
#X connect 2 0 6 0;
#X connect 3 0 6 0;
#X connect 4 0 3 0;
#X connect 4 1 2 0;
#X connect 5 0 4 0;
#X connect 6 0 1 0;
#X connect 7 0 9 0;
#X connect 8 0 10 0;
#X connect 9 0 5 0;
#X connect 9 1 3 1;
#X connect 10 0 5 0;
#X connect 10 1 2 1;
#X connect 10 2 6 1;
#X connect 11 0 20 0;
#X connect 12 0 15 0;
#X connect 12 1 13 0;
#X connect 13 0 5 0;
#X connect 14 0 5 0;
#X connect 15 0 14 0;
#X connect 16 0 17 0;
#X connect 17 0 18 0;
#X connect 19 0 20 1;
#X connect 20 0 12 0;
#X restore 15 89 pd visgui;
#N canvas 613 312 341 346 close 0;
#X obj 17 313 s \$0.close.r;
#X obj 43 229 f;
#X obj 17 228 f;
#X obj 17 184 sel 0 1;
#X obj 243 88 r \$0.bg.clr;
#X obj 17 162 f;
#X obj 144 87 r \$0.front.clr;
#X obj 144 109 t b a;
#X obj 243 110 t b a;
#X obj 17 264 pack f f;
#X obj 17 82 t b b;
#X msg 70 108 1;
#X msg 17 129 0;
#X obj 17 10 r \$0.close;
#X msg 17 290 color \$1 \$1 \$2;
#X obj 17 107 del 100;
#X obj 210 288 s \$0.close.r;
#X msg 210 263 label empty;
#X msg 229 240 label X;
#X obj 210 195 r \$0.isset;
#X obj 210 217 sel 0 1;
#X obj 50 32 r \$0.isset;
#X obj 17 55 spigot;
#X connect 1 0 9 0;
#X connect 2 0 9 0;
#X connect 3 0 2 0;
#X connect 3 1 1 0;
#X connect 4 0 8 0;
#X connect 5 0 3 0;
#X connect 6 0 7 0;
#X connect 7 0 5 0;
#X connect 7 1 1 1;
#X connect 7 1 9 1;
#X connect 8 0 5 0;
#X connect 8 1 2 1;
#X connect 9 0 14 0;
#X connect 10 0 15 0;
#X connect 10 1 11 0;
#X connect 11 0 5 0;
#X connect 12 0 5 0;
#X connect 13 0 22 0;
#X connect 14 0 0 0;
#X connect 15 0 12 0;
#X connect 17 0 16 0;
#X connect 18 0 16 0;
#X connect 19 0 20 0;
#X connect 20 0 17 0;
#X connect 20 1 18 0;
#X connect 21 0 22 1;
#X connect 22 0 10 0;
#X restore 15 110 pd close;
#N canvas 632 181 317 331 vismain 0;
#X obj 220 98 r \$0.bg.clr;
#X msg 17 270 color \$1 \$1 -1;
#X obj 43 244 f;
#X obj 17 243 f;
#X obj 17 199 sel 0 1;
#X obj 17 177 f;
#X obj 121 97 r \$0.front.clr;
#X obj 121 119 t b a;
#X obj 220 120 t b a;
#X obj 17 293 s \$0.vismain.r;
#X obj 17 82 t b b;
#X msg 70 107 1;
#X msg 17 129 0;
#X obj 17 107 del 100;
#X obj 17 6 r \$0.vismain;
#X obj 50 32 r \$0.isset;
#X obj 17 55 spigot;
#X connect 0 0 8 0;
#X connect 1 0 9 0;
#X connect 2 0 1 0;
#X connect 3 0 1 0;
#X connect 4 0 3 0;
#X connect 4 1 2 0;
#X connect 5 0 4 0;
#X connect 6 0 7 0;
#X connect 7 0 5 0;
#X connect 7 1 2 1;
#X connect 8 0 5 0;
#X connect 8 1 3 1;
#X connect 10 0 13 0;
#X connect 10 1 11 0;
#X connect 11 0 5 0;
#X connect 12 0 5 0;
#X connect 13 0 12 0;
#X connect 14 0 16 0;
#X connect 15 0 16 1;
#X connect 16 0 10 0;
#X restore 15 131 pd vismain;
#X msg 14 367 visgui;
#X msg 86 365 vismain;
#X msg 164 366 close;
#X obj 14 455 list trim;
#X obj 156 101 route gui.row;
#X obj 156 146 route label;
#X obj 156 168 list;
#X obj 156 190 t a a;
#X msg 156 281 label \$1;
#X obj 156 303 s \$0.visgui.r;
#X obj 183 211 sel empty;
#X msg 183 233 0;
#X msg 234 233 1;
#X obj 183 258 s \$0.isset;
#X obj 86 406 r \$0.isset;
#X obj 14 406 spigot;
#X obj 314 126 list prepend 1;
#X obj 294 168 list prepend 0;
#X obj 294 193 route;
#X obj 294 38 t b b;
#X obj 14 428 list prepend gui.row \$2 button;
#X obj 156 123 route \$2;
#X obj 347 64 f \$2;
#X obj 14 476 s \$1.UNPATCH;
#X obj 156 79 r \$1.UNPATCH;
#X connect 0 0 4 0;
#X connect 1 0 52 0;
#X connect 2 0 51 0;
#X connect 3 0 10 0;
#X connect 4 0 9 0;
#X connect 5 0 8 0;
#X connect 6 0 54 0;
#X connect 7 0 53 1;
#X connect 29 0 35 0;
#X connect 30 0 36 0;
#X connect 31 0 37 0;
#X connect 35 0 50 0;
#X connect 36 0 50 0;
#X connect 37 0 50 0;
#X connect 38 0 58 0;
#X connect 39 0 56 0;
#X connect 40 0 41 0;
#X connect 41 0 42 0;
#X connect 42 0 43 0;
#X connect 42 1 45 0;
#X connect 43 0 44 0;
#X connect 45 0 46 0;
#X connect 45 1 47 0;
#X connect 46 0 48 0;
#X connect 47 0 48 0;
#X connect 49 0 50 1;
#X connect 50 0 55 0;
#X connect 51 0 53 0;
#X connect 52 0 53 0;
#X connect 53 0 5 0;
#X connect 54 0 2 0;
#X connect 54 0 1 0;
#X connect 54 1 57 0;
#X connect 55 0 38 0;
#X connect 56 0 40 0;
#X connect 57 0 7 0;
#X connect 59 0 39 0;
#X coords 0 -1 1 1 197 14 2 30 30;
