#N canvas 792 274 268 286 10;
#X obj 19 10 loadbang;
#X obj 21 181 spigot;
#X obj 19 32 t b b;
#N canvas 502 107 237 277 is.unpatch.there 0;
#X obj 49 80 s UNPATCH;
#X obj 49 102 r UNPATCH;
#X msg 49 60 singleton SYN;
#X obj 49 173 route singleton;
#X obj 49 195 route ACK;
#X obj 30 37 t b b b;
#X obj 49 152 spigot 0;
#X msg 30 121 0;
#X msg 69 124 1;
#X msg 49 218 1;
#X obj 30 9 inlet;
#X obj 49 241 outlet;
#X connect 1 0 6 0;
#X connect 2 0 0 0;
#X connect 3 0 4 0;
#X connect 4 0 9 0;
#X connect 5 0 7 0;
#X connect 5 1 2 0;
#X connect 5 2 8 0;
#X connect 6 0 3 0;
#X connect 7 0 6 1;
#X connect 8 0 6 1;
#X connect 9 0 11 0;
#X connect 10 0 5 0;
#X restore 93 114 pd is.unpatch.there;
#X obj 19 112 route 0;
#X obj 21 151 inlet;
#X obj 21 202 list prepend singleton instantiate;
#X obj 21 224 list trim;
#X obj 21 246 s UNPATCH;
#X obj 19 90 list append \$1;
#X connect 0 0 2 0;
#X connect 1 0 6 0;
#X connect 2 0 9 0;
#X connect 2 1 3 0;
#X connect 3 0 1 1;
#X connect 4 1 1 0;
#X connect 5 0 1 0;
#X connect 6 0 7 0;
#X connect 7 0 8 0;
#X connect 9 0 4 0;
