#N canvas 678 76 572 499 10;
#N canvas 408 94 345 539 get.data 0;
#X obj 78 140 r NETPD;
#X obj 78 182 route preset;
#X msg 61 327 bang \, set;
#X obj 44 61 t b b b b;
#X obj 78 161 spigot 0;
#X msg 134 129 1;
#X msg 44 125 0;
#X obj 78 204 routeOSC /unpatch;
#X msg 78 305 add2 \$1 \$2 \, addcomma;
#X obj 78 258 t a a;
#X msg 105 281 /unpatch/netload \$1 \$2;
#X obj 245 322 t a;
#X obj 78 236 routeOSC /netload /synced;
#X msg 151 259 /unpatch/synced;
#X obj 245 506 outlet;
#X obj 44 34 inlet;
#X obj 78 90 netpd-s /unpatch/patchlist/request g;
#X obj 61 420 netpd-s;
#X msg 61 374 OSC /\$1/\$2/dump/request;
#X obj 147 397 loadbang;
#X msg 147 419 symbol g;
#X msg 61 350;
#X obj 245 456 packOSC;
#X obj 245 478 slipenc 65536;
#X text 44 469 convert to binary OSC format ->;
#X connect 0 0 4 0;
#X connect 1 0 7 0;
#X connect 2 0 21 0;
#X connect 3 0 6 0;
#X connect 3 1 2 0;
#X connect 3 2 16 0;
#X connect 3 3 5 0;
#X connect 4 0 1 0;
#X connect 5 0 4 1;
#X connect 6 0 4 1;
#X connect 7 0 12 0;
#X connect 7 1 11 0;
#X connect 8 0 21 0;
#X connect 9 0 8 0;
#X connect 9 1 10 0;
#X connect 10 0 11 0;
#X connect 11 0 22 0;
#X connect 12 0 9 0;
#X connect 12 1 13 0;
#X connect 13 0 11 0;
#X connect 15 0 3 0;
#X connect 18 0 17 0;
#X connect 19 0 20 0;
#X connect 20 0 17 1;
#X connect 21 0 18 0;
#X connect 22 0 23 0;
#X connect 23 0 14 0;
#X restore 110 236 pd get.data;
#X obj 16 289 savepanel;
#X obj 23 20 hsl 35 20 0 127 0 0 \$0.button.s empty empty -2 8 0 10
#fcfcfc #000000 #000000 0 1;
#N canvas 547 529 371 356 set.colors 0;
#X obj 23 273 s \$0.button.r;
#X obj 212 253 netpd-rgb2iem;
#X obj 23 128 t b a;
#X obj 212 228 r \$0.to.iem;
#X obj 212 276 s \$0.from.iem;
#X obj 67 129 s \$0.to.iem;
#X obj 53 151 r \$0.from.iem;
#X obj 23 150 f;
#X obj 166 158 t b a;
#X obj 210 159 s \$0.to.iem;
#X obj 196 181 r \$0.from.iem;
#X obj 166 180 f;
#X obj 23 45 loadbang;
#X msg 23 248 color \$1 \$1 \$2;
#X msg 23 102 240 240 240;
#X msg 149 95 184 184 184;
#X msg 166 134 64 64 64;
#X obj 23 225 pack f f;
#X obj 23 68 t b b;
#X obj 149 39 r \$0.click;
#X obj 89 39 r \$0.done;
#X connect 1 0 4 0;
#X connect 2 0 7 0;
#X connect 2 1 5 0;
#X connect 3 0 1 0;
#X connect 6 0 7 1;
#X connect 7 0 17 0;
#X connect 8 0 11 0;
#X connect 8 1 9 0;
#X connect 10 0 11 1;
#X connect 11 0 17 1;
#X connect 12 0 18 0;
#X connect 13 0 0 0;
#X connect 14 0 2 0;
#X connect 15 0 2 0;
#X connect 16 0 8 0;
#X connect 17 0 13 0;
#X connect 18 0 14 0;
#X connect 18 1 16 0;
#X connect 19 0 15 0;
#X connect 20 0 14 0;
#X restore 127 106 pd set.colors;
#X obj 16 58 r \$0.button.s;
#X obj 43 126 s \$0.click;
#X obj 16 104 t b b;
#X obj 43 334 s \$0.done;
#N canvas 0 44 419 214 header 0;
#X msg 27 81 192 47 110 101 116 112 100 47 112 114 101 115 101 116
47 102 111 114 109 97 116 0 0 0 0 44 105 105 0 0 0 0 2 0 0 0 0 192
;
#X obj 27 22 inlet;
#X obj 27 152 outlet;
#X text 53 59 /netpd/preset/format 2 0;
#X connect 0 0 2 0;
#X connect 1 0 0 0;
#X restore 157 211 pd header;
#X obj 20 20 cnv 15 40 20 empty \$0.button.r save 3 12 0 14 #f0f0f0
#404040 0;
#X obj 16 81 sel;
#X obj 44 82 t a;
#X obj 243 65 loadbang, f 9;
#X obj 306 121 netpd-pref-get netpd-instruments-path;
#X obj 110 351 file handle;
#X obj 16 159 t b b b b b, f 32;
#X msg 63 257 close;
#X obj 16 440 file move;
#X obj 16 311 t a b;
#X obj 243 142 pdcontrol;
#X msg 243 117 dir;
#X obj 243 88 t b b;
#X obj 243 165 list append;
#X msg 204 281 open \$1 c \, seek 0;
#X msg 243 188 symbol \$1/\$2/.cachedstate;
#X obj 204 255 symbol;
#X msg 16 417 list \$1 \$2;
#X obj 16 393 list prepend, f 38;
#X connect 0 0 14 0;
#X connect 1 0 18 0;
#X connect 4 0 10 0;
#X connect 6 0 15 0;
#X connect 6 1 5 0;
#X connect 8 0 14 0;
#X connect 10 0 6 0;
#X connect 10 1 11 0;
#X connect 11 0 10 1;
#X connect 12 0 21 0;
#X connect 13 0 22 1;
#X connect 15 0 1 0;
#X connect 15 1 16 0;
#X connect 15 2 0 0;
#X connect 15 3 8 0;
#X connect 15 4 25 0;
#X connect 16 0 14 0;
#X connect 18 0 27 0;
#X connect 18 1 7 0;
#X connect 19 0 22 0;
#X connect 20 0 19 0;
#X connect 21 0 20 0;
#X connect 21 1 13 0;
#X connect 22 0 24 0;
#X connect 23 0 14 0;
#X connect 24 0 25 1;
#X connect 24 0 27 1;
#X connect 25 0 23 0;
#X connect 26 0 17 0;
#X connect 27 0 26 0;
#X coords 0 -1 1 1 40 20 2 20 20;
