#N canvas 647 236 428 428 10;
#X obj 32 167 r \$0.visgui;
#X obj 109 167 r \$0.close;
#N canvas 141 242 409 467 visgui 0;
#X obj 21 369 s \$0.visgui.r;
#X msg 21 341 color \$1 \$1 \$2;
#X obj 47 284 f;
#X obj 21 283 f;
#X obj 21 239 sel 0 1;
#X obj 21 217 f;
#X obj 21 11 r \$0.visgui;
#X obj 21 107 t b b;
#X msg 74 133 1;
#X msg 21 154 0;
#X obj 54 59 r \$0.isset;
#X obj 21 82 spigot;
#X obj 21 32 sel 0;
#X obj 71 35 t a;
#X obj 21 133 del 120;
#X obj 21 317 pack f -1;
#X obj 168 155 t b a;
#X obj 212 156 s \$0.to.iem;
#X obj 198 178 r \$0.from.iem;
#X obj 168 177 f;
#X msg 168 129 240 240 240;
#X obj 285 155 t b a;
#X obj 329 156 s \$0.to.iem;
#X obj 315 178 r \$0.from.iem;
#X obj 285 177 f;
#X obj 149 61 loadbang;
#X msg 285 131 184 184 184;
#X obj 149 288 t b a;
#X obj 193 289 s \$0.to.iem;
#X obj 179 311 r \$0.from.iem;
#X obj 149 310 f;
#X obj 149 91 t b b b;
#X msg 149 262 0 0 0;
#X obj 168 233 s \$0.bg.clrs;
#X obj 168 207 pack f f, f 20;
#X connect 1 0 0 0;
#X connect 2 0 15 0;
#X connect 3 0 15 0;
#X connect 4 0 3 0;
#X connect 4 1 2 0;
#X connect 5 0 4 0;
#X connect 6 0 12 0;
#X connect 7 0 14 0;
#X connect 7 1 8 0;
#X connect 8 0 5 0;
#X connect 9 0 5 0;
#X connect 10 0 11 1;
#X connect 11 0 7 0;
#X connect 12 0 11 0;
#X connect 12 1 13 0;
#X connect 13 0 12 1;
#X connect 14 0 9 0;
#X connect 15 0 1 0;
#X connect 16 0 19 0;
#X connect 16 1 17 0;
#X connect 18 0 19 1;
#X connect 19 0 3 1;
#X connect 19 0 34 0;
#X connect 20 0 16 0;
#X connect 21 0 24 0;
#X connect 21 1 22 0;
#X connect 23 0 24 1;
#X connect 24 0 2 1;
#X connect 24 0 34 1;
#X connect 25 0 31 0;
#X connect 26 0 21 0;
#X connect 27 0 30 0;
#X connect 27 1 28 0;
#X connect 29 0 30 1;
#X connect 30 0 15 1;
#X connect 31 0 32 0;
#X connect 31 1 20 0;
#X connect 31 2 26 0;
#X connect 32 0 27 0;
#X connect 34 0 33 0;
#X restore 32 92 pd visgui;
#N canvas 762 444 341 346 close 0;
#X obj 17 313 s \$0.close.r;
#X obj 43 229 f;
#X obj 17 228 f;
#X obj 17 184 sel 0 1;
#X obj 17 162 f;
#X obj 17 264 pack f f;
#X obj 17 82 t b b;
#X msg 70 108 1;
#X msg 17 129 0;
#X obj 17 10 r \$0.close;
#X msg 17 290 color \$1 \$1 \$2;
#X obj 17 107 del 100;
#X obj 210 288 s \$0.close.r;
#X msg 210 263 label empty;
#X obj 210 195 r \$0.isset;
#X obj 210 217 sel 0 1;
#X obj 50 32 r \$0.isset;
#X obj 17 55 spigot;
#X msg 229 240 label ×;
#X obj 149 36 r \$0.bg.clrs;
#X obj 149 59 unpack f f;
#X obj 96 219 t b a;
#X obj 140 220 s \$0.to.iem;
#X obj 126 242 r \$0.from.iem;
#X obj 96 241 f;
#X msg 96 195 192 0 0;
#X obj 96 167 loadbang;
#X connect 1 0 5 0;
#X connect 2 0 5 0;
#X connect 3 0 2 0;
#X connect 3 1 1 0;
#X connect 4 0 3 0;
#X connect 5 0 10 0;
#X connect 6 0 11 0;
#X connect 6 1 7 0;
#X connect 7 0 4 0;
#X connect 8 0 4 0;
#X connect 9 0 17 0;
#X connect 10 0 0 0;
#X connect 11 0 8 0;
#X connect 13 0 12 0;
#X connect 14 0 15 0;
#X connect 15 0 13 0;
#X connect 15 1 18 0;
#X connect 16 0 17 1;
#X connect 17 0 6 0;
#X connect 18 0 12 0;
#X connect 19 0 20 0;
#X connect 20 0 2 1;
#X connect 20 1 1 1;
#X connect 21 0 24 0;
#X connect 21 1 22 0;
#X connect 23 0 24 1;
#X connect 24 0 5 1;
#X connect 25 0 21 0;
#X connect 26 0 25 0;
#X restore 32 113 pd close;
#X msg 32 211 visgui;
#X msg 109 210 close;
#X obj 32 323 list trim;
#X obj 268 42 route gui.row;
#X obj 268 87 route label;
#X obj 268 109 list;
#X obj 268 131 t a a;
#X msg 268 222 label \$1;
#X obj 268 244 s \$0.visgui.r;
#X obj 295 152 sel empty;
#X msg 295 174 0;
#X msg 346 174 1;
#X obj 295 199 s \$0.isset;
#X obj 104 250 r \$0.isset;
#X obj 32 250 spigot;
#X obj 268 64 route \$2;
#X obj 32 344 s \$1.UNPATCH;
#X obj 268 20 r \$1.UNPATCH;
#X obj 32 272 list prepend gui.row button;
#X obj 32 294 list append \$2;
#X obj 32 185 sel 0;
#X obj 76 185 t a;
#X obj 33 30 hsl 15 20 0 127 0 0 \$0.close empty empty -2 -8 0 10 -262144
-1 -1 0 1;
#X obj 109 186 sel 0;
#X obj 154 186 t a;
#X obj 53 30 hsl 160 20 0 1 0 0 \$0.visgui empty empty -2 -8 0 10 -262144
-1 -1 0 1;
#X obj 51 30 cnv 15 165 20 empty \$0.visgui.r empty 10 12 0 14 -249661
-1 0;
#X obj 30 30 cnv 15 20 20 empty \$0.close.r empty 5 12 0 24 -249661
-196609 0;
#X obj 268 332 netpd-rgb2iem;
#X obj 268 307 r \$0.to.iem;
#X obj 268 355 s \$0.from.iem;
#X connect 0 0 24 0;
#X connect 1 0 27 0;
#X connect 4 0 18 0;
#X connect 5 0 18 0;
#X connect 6 0 20 0;
#X connect 7 0 19 0;
#X connect 8 0 9 0;
#X connect 9 0 10 0;
#X connect 10 0 11 0;
#X connect 10 1 13 0;
#X connect 11 0 12 0;
#X connect 13 0 14 0;
#X connect 13 1 15 0;
#X connect 14 0 16 0;
#X connect 15 0 16 0;
#X connect 17 0 18 1;
#X connect 18 0 22 0;
#X connect 19 0 8 0;
#X connect 21 0 7 0;
#X connect 22 0 23 0;
#X connect 23 0 6 0;
#X connect 24 0 4 0;
#X connect 24 1 25 0;
#X connect 25 0 24 1;
#X connect 27 0 5 0;
#X connect 27 1 28 0;
#X connect 28 0 27 1;
#X connect 32 0 34 0;
#X connect 33 0 32 0;
#X coords 0 -1 1 1 185 20 2 30 30;
