#N canvas 713 56 447 306 10;
#X obj 40 98 s up.getversion;
#X obj 40 121 r up.version;
#X obj 21 52 loadbang;
#X obj 40 143 list;
#X obj 21 170 list;
#X msg 90 145 32;
#X obj 90 167 makefilename %c;
#X obj 21 74 t b b b;
#X obj 21 192 list prepend;
#X obj 21 214 list prepend UNPATCH;
#X obj 20 20 cnv 13 205 13 empty \$0.title empty 5 8 1 12 -199731 -1
0;
#X obj 21 266 s \$0.title;
#X obj 209 93 netpd-pref-get cr.background1.clr 1;
#X obj 227 138 netpd-pref-get cr.label.clr 1;
#X obj 209 115 netpd-rgb2iem;
#X obj 227 159 netpd-rgb2iem;
#X obj 227 183 t b a;
#X obj 209 208 pack f f;
#X msg 209 230 color \$1 \$2;
#X msg 21 236 label \$1\$2\$3.\$4.\$5;
#X connect 1 0 3 0;
#X connect 2 0 7 0;
#X connect 3 0 4 1;
#X connect 4 0 8 0;
#X connect 5 0 6 0;
#X connect 6 0 8 1;
#X connect 7 0 4 0;
#X connect 7 1 0 0;
#X connect 7 2 5 0;
#X connect 8 0 9 0;
#X connect 9 0 19 0;
#X connect 12 0 14 0;
#X connect 13 0 15 0;
#X connect 14 0 17 0;
#X connect 15 0 16 0;
#X connect 16 0 17 0;
#X connect 16 1 17 1;
#X connect 17 0 18 0;
#X connect 18 0 11 0;
#X connect 19 0 11 0;
#X coords 0 -1 1 1 205 13 2 20 20;
