#N canvas 414 286 399 461 10;
#X obj 59 52 openpanel;
#X msg 93 154 read \$1 cr \, rewind;
#X obj 86 274 textfile;
#X obj 86 296 list split 1;
#X obj 86 360 list append;
#X obj 86 382 list prepend to;
#X obj 86 404 list trim;
#X obj 27 236 b;
#X obj 59 250 t b b;
#X obj 59 222 spigot 0;
#X msg 153 250 0;
#X msg 76 175 1;
#X obj 86 425 s NETPD;
#X msg 86 338 symbol /l\$1;
#X obj 59 131 t b b a b;
#X msg 115 204 symbol /unpatch/netcloseall;
#N canvas 326 109 450 300 turn-dsp-off 0;
#X obj 96 10 inlet;
#X obj 96 231 outlet;
#N canvas 462 254 178 271 get-dsp-status 0;
#X obj 29 30 inlet;
#X obj 29 52 t b b;
#X msg 56 74 status get dsp;
#X obj 56 96 s NETPD;
#X obj 56 118 r NETPD;
#X obj 56 140 route status;
#X obj 56 162 route dsp;
#X obj 29 188 f;
#X obj 29 210 outlet;
#X connect 0 0 1 0;
#X connect 1 0 7 0;
#X connect 1 1 2 0;
#X connect 2 0 3 0;
#X connect 4 0 5 0;
#X connect 5 0 6 0;
#X connect 6 0 7 1;
#X connect 7 0 8 0;
#X restore 135 63 pd get-dsp-status;
#X obj 284 24 inlet;
#X obj 96 32 t a b b;
#X obj 199 137 f;
#X obj 284 46 b;
#X msg 199 168 dsp \$1;
#X obj 199 190 s pd;
#X msg 115 97 0;
#X connect 0 0 4 0;
#X connect 2 0 5 1;
#X connect 3 0 6 0;
#X connect 4 0 1 0;
#X connect 4 1 9 0;
#X connect 4 2 2 0;
#X connect 5 0 7 0;
#X connect 6 0 5 0;
#X connect 7 0 8 0;
#X connect 9 0 7 0;
#X restore 59 109 pd turn-dsp-off;
#X obj 59 200 del 0.5;
#N canvas 268 603 247 107 set.fonts 0;
#X obj 20 26 netpd-pref-get cr.label.fnt 1;
#X msg 20 48 label_font \$1 \$2;
#X obj 20 69 s \$0.save.r;
#X connect 0 0 1 0;
#X connect 1 0 2 0;
#X restore 303 409 pd set.fonts;
#X obj 236 83 t a a;
#X obj 236 106 -;
#X obj 236 127 sel 0;
#X obj 263 172 s \$0.click;
#X obj 236 24 r \$0.button.s;
#X obj 23 20 hsl 35 13 0 127 0 0 \$0.button.s empty empty -2 -8 0 10
-262144 -1 -1 0 1;
#X obj 20 20 cnv 13 40 13 empty \$0.button.r load 2 8 1 10 -199731
-1 0;
#X obj 236 149 t b b;
#X obj 215 319 s \$0.done;
#N canvas 547 364 371 356 set.colors 0;
#X obj 123 83 netpd-pref-get cr.display.clr 1;
#X obj 30 189 netpd-pref-get cr.label.clr 1;
#X obj 12 252 pack f f;
#X obj 30 230 t b a;
#X msg 12 274 color \$1 \$2;
#X obj 12 31 netpd-rgb2iem;
#X obj 30 211 netpd-rgb2iem;
#X obj 123 107 netpd-rgb2iem;
#X obj 12 10 netpd-pref-get cr.background1.clr 1;
#X obj 12 296 s \$0.button.r;
#X obj 12 136 f;
#X obj 108 135 f;
#X obj 27 98 r \$0.done;
#X obj 81 60 r \$0.load;
#X connect 0 0 7 0;
#X connect 1 0 6 0;
#X connect 2 0 4 0;
#X connect 3 0 2 0;
#X connect 3 1 2 1;
#X connect 4 0 9 0;
#X connect 5 0 10 0;
#X connect 6 0 3 0;
#X connect 7 0 11 1;
#X connect 8 0 5 0;
#X connect 10 0 2 0;
#X connect 11 0 2 0;
#X connect 12 0 10 0;
#X connect 13 0 11 0;
#X restore 215 409 pd set.colors;
#X obj 236 51 spigot 1;
#X msg 309 76 0;
#X obj 309 98 r \$0.done;
#X msg 309 120 1;
#X obj 309 54 r \$0.load;
#X obj 59 74 t a b;
#X obj 103 76 s \$0.load;
#X connect 0 0 34 0;
#X connect 1 0 2 0;
#X connect 2 0 3 0;
#X connect 2 1 10 0;
#X connect 2 1 16 1;
#X connect 2 1 27 0;
#X connect 3 0 13 0;
#X connect 3 1 4 1;
#X connect 4 0 5 0;
#X connect 5 0 6 0;
#X connect 6 0 12 0;
#X connect 7 0 17 0;
#X connect 8 0 7 0;
#X connect 8 1 2 0;
#X connect 9 0 8 0;
#X connect 10 0 9 1;
#X connect 11 0 9 1;
#X connect 13 0 4 0;
#X connect 14 0 17 0;
#X connect 14 1 11 0;
#X connect 14 2 1 0;
#X connect 14 3 15 0;
#X connect 15 0 13 0;
#X connect 16 0 14 0;
#X connect 17 0 9 0;
#X connect 19 0 20 1;
#X connect 19 1 20 0;
#X connect 20 0 21 0;
#X connect 21 0 26 0;
#X connect 23 0 29 0;
#X connect 26 0 0 0;
#X connect 26 1 22 0;
#X connect 29 0 19 0;
#X connect 30 0 29 1;
#X connect 31 0 32 0;
#X connect 32 0 29 1;
#X connect 33 0 30 0;
#X connect 34 0 16 0;
#X connect 34 1 35 0;
#X coords 0 -1 1 1 40 13 2 20 20;
