#N canvas 713 115 440 391 10;
#X obj 21 52 loadbang;
#X obj 20 20 cnv 13 121 13 empty \$0.title empty 5 7 1 12 -199731 -1
0;
#X obj 21 239 s \$0.title;
#X obj 209 93 netpd-pref-get cr.background1.clr 1;
#X obj 227 138 netpd-pref-get cr.label.clr 1;
#X obj 209 115 netpd-rgb2iem;
#X obj 227 159 netpd-rgb2iem;
#X obj 227 183 t b a;
#X obj 209 208 pack f f;
#X msg 209 230 color \$1 \$2;
#X obj 217 264 netpd-pref-get cr.title.fnt 1;
#X msg 217 286 label_font \$1 \$2;
#X msg 156 343 label empty;
#X msg 21 209 label \$1;
#X obj 21 184 netpd-l2s;
#X obj 21 75 t b b;
#X msg 48 101 32;
#X obj 48 127 makefilename %c;
#X msg 21 156 list u n p a t c h;
#X connect 0 0 15 0;
#X connect 3 0 5 0;
#X connect 4 0 6 0;
#X connect 5 0 8 0;
#X connect 6 0 7 0;
#X connect 7 0 8 0;
#X connect 7 1 8 1;
#X connect 8 0 9 0;
#X connect 9 0 2 0;
#X connect 10 0 11 0;
#X connect 11 0 2 0;
#X connect 12 0 2 0;
#X connect 13 0 2 0;
#X connect 14 0 13 0;
#X connect 15 0 18 0;
#X connect 15 1 16 0;
#X connect 16 0 17 0;
#X connect 17 0 14 1;
#X connect 18 0 14 0;
#X coords 0 -1 1 1 121 13 2 20 20;
